G75*
G70*
%OFA0B0*%
%FSLAX24Y24*%
%IPPOS*%
%LPD*%
%AMOC8*
5,1,8,0,0,1.08239X$1,22.5*
%
%ADD10R,0.4400X0.5000*%
%ADD11C,0.0040*%
%ADD12C,0.0080*%
%ADD13C,0.0160*%
%ADD14C,0.0030*%
%ADD15R,0.0052X0.0006*%
%ADD16R,0.0052X0.0006*%
%ADD17R,0.0045X0.0006*%
%ADD18R,0.0046X0.0006*%
%ADD19R,0.0045X0.0007*%
%ADD20R,0.0046X0.0007*%
%ADD21R,0.0098X0.0007*%
%ADD22R,0.0071X0.0007*%
%ADD23R,0.0052X0.0007*%
%ADD24R,0.0175X0.0007*%
%ADD25R,0.0058X0.0007*%
%ADD26R,0.0052X0.0007*%
%ADD27R,0.0169X0.0007*%
%ADD28R,0.0078X0.0007*%
%ADD29R,0.0117X0.0006*%
%ADD30R,0.0215X0.0006*%
%ADD31R,0.0059X0.0006*%
%ADD32R,0.0195X0.0006*%
%ADD33R,0.0208X0.0006*%
%ADD34R,0.0214X0.0006*%
%ADD35R,0.0117X0.0006*%
%ADD36R,0.0071X0.0006*%
%ADD37R,0.0208X0.0006*%
%ADD38R,0.0221X0.0006*%
%ADD39R,0.0091X0.0006*%
%ADD40R,0.0078X0.0006*%
%ADD41R,0.0084X0.0006*%
%ADD42R,0.0078X0.0006*%
%ADD43R,0.0039X0.0006*%
%ADD44R,0.0039X0.0006*%
%ADD45R,0.0039X0.0007*%
%ADD46R,0.0136X0.0006*%
%ADD47R,0.0247X0.0007*%
%ADD48R,0.0201X0.0007*%
%ADD49R,0.0214X0.0007*%
%ADD50R,0.0273X0.0006*%
%ADD51R,0.0331X0.0006*%
%ADD52R,0.0344X0.0006*%
%ADD53R,0.0371X0.0006*%
%ADD54R,0.0384X0.0007*%
%ADD55R,0.0416X0.0006*%
%ADD56R,0.0436X0.0006*%
%ADD57R,0.0455X0.0006*%
%ADD58R,0.0163X0.0006*%
%ADD59R,0.0468X0.0006*%
%ADD60R,0.0488X0.0007*%
%ADD61R,0.0163X0.0007*%
%ADD62R,0.0059X0.0007*%
%ADD63R,0.0065X0.0007*%
%ADD64R,0.0176X0.0007*%
%ADD65R,0.0500X0.0006*%
%ADD66R,0.0520X0.0006*%
%ADD67R,0.0526X0.0006*%
%ADD68R,0.0533X0.0006*%
%ADD69R,0.0546X0.0007*%
%ADD70R,0.0559X0.0006*%
%ADD71R,0.0578X0.0006*%
%ADD72R,0.0585X0.0006*%
%ADD73R,0.0598X0.0006*%
%ADD74R,0.0598X0.0007*%
%ADD75R,0.0611X0.0006*%
%ADD76R,0.0617X0.0006*%
%ADD77R,0.0624X0.0006*%
%ADD78R,0.0630X0.0006*%
%ADD79R,0.0006X0.0006*%
%ADD80R,0.0644X0.0007*%
%ADD81R,0.0091X0.0007*%
%ADD82R,0.0650X0.0006*%
%ADD83R,0.0663X0.0006*%
%ADD84R,0.0013X0.0006*%
%ADD85R,0.0266X0.0006*%
%ADD86R,0.0325X0.0006*%
%ADD87R,0.0669X0.0006*%
%ADD88R,0.0351X0.0006*%
%ADD89R,0.0676X0.0007*%
%ADD90R,0.0357X0.0007*%
%ADD91R,0.0683X0.0006*%
%ADD92R,0.0377X0.0006*%
%ADD93R,0.0390X0.0006*%
%ADD94R,0.0696X0.0006*%
%ADD95R,0.0409X0.0006*%
%ADD96R,0.0702X0.0007*%
%ADD97R,0.0429X0.0007*%
%ADD98R,0.0702X0.0006*%
%ADD99R,0.0429X0.0006*%
%ADD100R,0.0715X0.0006*%
%ADD101R,0.0442X0.0006*%
%ADD102R,0.0721X0.0006*%
%ADD103R,0.0449X0.0006*%
%ADD104R,0.0728X0.0006*%
%ADD105R,0.0728X0.0007*%
%ADD106R,0.0455X0.0007*%
%ADD107R,0.0735X0.0006*%
%ADD108R,0.0462X0.0006*%
%ADD109R,0.0338X0.0006*%
%ADD110R,0.0319X0.0006*%
%ADD111R,0.0091X0.0006*%
%ADD112R,0.0085X0.0006*%
%ADD113R,0.0110X0.0006*%
%ADD114R,0.0423X0.0006*%
%ADD115R,0.0104X0.0006*%
%ADD116R,0.0150X0.0006*%
%ADD117R,0.0741X0.0006*%
%ADD118R,0.0468X0.0006*%
%ADD119R,0.0384X0.0006*%
%ADD120R,0.0098X0.0006*%
%ADD121R,0.0149X0.0006*%
%ADD122R,0.0475X0.0006*%
%ADD123R,0.0754X0.0007*%
%ADD124R,0.0481X0.0007*%
%ADD125R,0.0442X0.0007*%
%ADD126R,0.0423X0.0007*%
%ADD127R,0.0091X0.0007*%
%ADD128R,0.0085X0.0007*%
%ADD129R,0.0468X0.0007*%
%ADD130R,0.0110X0.0007*%
%ADD131R,0.0104X0.0007*%
%ADD132R,0.0143X0.0007*%
%ADD133R,0.0754X0.0006*%
%ADD134R,0.0488X0.0006*%
%ADD135R,0.0474X0.0006*%
%ADD136R,0.0760X0.0006*%
%ADD137R,0.0481X0.0006*%
%ADD138R,0.0111X0.0006*%
%ADD139R,0.0767X0.0006*%
%ADD140R,0.0494X0.0006*%
%ADD141R,0.0124X0.0006*%
%ADD142R,0.0501X0.0006*%
%ADD143R,0.0104X0.0006*%
%ADD144R,0.0143X0.0006*%
%ADD145R,0.0767X0.0007*%
%ADD146R,0.0494X0.0007*%
%ADD147R,0.0494X0.0007*%
%ADD148R,0.0130X0.0007*%
%ADD149R,0.0501X0.0007*%
%ADD150R,0.0111X0.0007*%
%ADD151R,0.0150X0.0007*%
%ADD152R,0.0461X0.0006*%
%ADD153R,0.0507X0.0006*%
%ADD154R,0.0507X0.0006*%
%ADD155R,0.0143X0.0006*%
%ADD156R,0.0182X0.0006*%
%ADD157R,0.0514X0.0006*%
%ADD158R,0.0494X0.0006*%
%ADD159R,0.0175X0.0006*%
%ADD160R,0.0156X0.0006*%
%ADD161R,0.0481X0.0007*%
%ADD162R,0.0514X0.0007*%
%ADD163R,0.0527X0.0007*%
%ADD164R,0.0149X0.0007*%
%ADD165R,0.0156X0.0006*%
%ADD166R,0.0364X0.0006*%
%ADD167R,0.0540X0.0006*%
%ADD168R,0.0182X0.0006*%
%ADD169R,0.0357X0.0006*%
%ADD170R,0.0189X0.0006*%
%ADD171R,0.0312X0.0007*%
%ADD172R,0.0136X0.0007*%
%ADD173R,0.0526X0.0007*%
%ADD174R,0.0435X0.0007*%
%ADD175R,0.0143X0.0007*%
%ADD176R,0.0273X0.0006*%
%ADD177R,0.0130X0.0006*%
%ADD178R,0.0533X0.0006*%
%ADD179R,0.0260X0.0006*%
%ADD180R,0.0123X0.0006*%
%ADD181R,0.0247X0.0006*%
%ADD182R,0.0221X0.0006*%
%ADD183R,0.0137X0.0006*%
%ADD184R,0.0234X0.0006*%
%ADD185R,0.0410X0.0006*%
%ADD186R,0.0215X0.0007*%
%ADD187R,0.0533X0.0007*%
%ADD188R,0.0396X0.0007*%
%ADD189R,0.0396X0.0006*%
%ADD190R,0.0169X0.0006*%
%ADD191R,0.0377X0.0006*%
%ADD192R,0.0540X0.0007*%
%ADD193R,0.0117X0.0007*%
%ADD194R,0.0286X0.0006*%
%ADD195R,0.0240X0.0006*%
%ADD196R,0.0546X0.0006*%
%ADD197R,0.0286X0.0007*%
%ADD198R,0.0065X0.0006*%
%ADD199R,0.0553X0.0006*%
%ADD200R,0.0072X0.0006*%
%ADD201R,0.0058X0.0006*%
%ADD202R,0.0553X0.0007*%
%ADD203R,0.0117X0.0007*%
%ADD204R,0.0208X0.0007*%
%ADD205R,0.0312X0.0006*%
%ADD206R,0.0032X0.0007*%
%ADD207R,0.0195X0.0007*%
%ADD208R,0.0293X0.0007*%
%ADD209R,0.0520X0.0007*%
%ADD210R,0.0084X0.0007*%
%ADD211R,0.0124X0.0007*%
%ADD212R,0.0026X0.0006*%
%ADD213R,0.0188X0.0006*%
%ADD214R,0.0020X0.0006*%
%ADD215R,0.0227X0.0006*%
%ADD216R,0.0280X0.0006*%
%ADD217R,0.0254X0.0006*%
%ADD218R,0.0273X0.0007*%
%ADD219R,0.0013X0.0007*%
%ADD220R,0.0280X0.0007*%
%ADD221R,0.0293X0.0006*%
%ADD222R,0.0013X0.0006*%
%ADD223R,0.0305X0.0006*%
%ADD224R,0.0201X0.0006*%
%ADD225R,0.0338X0.0006*%
%ADD226R,0.0390X0.0007*%
%ADD227R,0.0299X0.0006*%
%ADD228R,0.0507X0.0007*%
%ADD229R,0.0305X0.0007*%
%ADD230R,0.0156X0.0007*%
%ADD231R,0.0513X0.0006*%
%ADD232R,0.0474X0.0007*%
%ADD233R,0.0137X0.0007*%
%ADD234R,0.0527X0.0006*%
%ADD235R,0.0572X0.0006*%
%ADD236R,0.0578X0.0007*%
%ADD237R,0.0559X0.0007*%
%ADD238R,0.0332X0.0007*%
%ADD239R,0.0533X0.0007*%
%ADD240R,0.0592X0.0006*%
%ADD241R,0.0565X0.0006*%
%ADD242R,0.0332X0.0006*%
%ADD243R,0.0579X0.0006*%
%ADD244R,0.0605X0.0006*%
%ADD245R,0.0617X0.0007*%
%ADD246R,0.0585X0.0007*%
%ADD247R,0.0344X0.0007*%
%ADD248R,0.0591X0.0006*%
%ADD249R,0.0351X0.0006*%
%ADD250R,0.0637X0.0006*%
%ADD251R,0.0650X0.0007*%
%ADD252R,0.0605X0.0007*%
%ADD253R,0.0351X0.0007*%
%ADD254R,0.0500X0.0007*%
%ADD255R,0.0663X0.0006*%
%ADD256R,0.0397X0.0006*%
%ADD257R,0.0637X0.0006*%
%ADD258R,0.0624X0.0007*%
%ADD259R,0.0266X0.0007*%
%ADD260R,0.0254X0.0007*%
%ADD261R,0.0006X0.0007*%
%ADD262R,0.0598X0.0006*%
%ADD263R,0.0241X0.0006*%
%ADD264R,0.0253X0.0006*%
%ADD265R,0.0026X0.0006*%
%ADD266R,0.0364X0.0006*%
%ADD267R,0.0546X0.0007*%
%ADD268R,0.0247X0.0007*%
%ADD269R,0.0234X0.0007*%
%ADD270R,0.0364X0.0007*%
%ADD271R,0.0539X0.0006*%
%ADD272R,0.0247X0.0006*%
%ADD273R,0.0032X0.0006*%
%ADD274R,0.0240X0.0007*%
%ADD275R,0.0026X0.0007*%
%ADD276R,0.0429X0.0006*%
%ADD277R,0.0416X0.0007*%
%ADD278R,0.0539X0.0007*%
%ADD279R,0.0403X0.0006*%
%ADD280R,0.0345X0.0006*%
%ADD281R,0.0331X0.0007*%
%ADD282R,0.0579X0.0007*%
%ADD283R,0.0572X0.0006*%
%ADD284R,0.0566X0.0006*%
%ADD285R,0.0306X0.0006*%
%ADD286R,0.0325X0.0007*%
%ADD287R,0.0026X0.0007*%
%ADD288R,0.0202X0.0006*%
%ADD289R,0.0234X0.0006*%
%ADD290R,0.0448X0.0007*%
%ADD291R,0.0013X0.0007*%
%ADD292R,0.0260X0.0007*%
%ADD293R,0.0442X0.0006*%
%ADD294R,0.0299X0.0006*%
%ADD295R,0.0410X0.0007*%
%ADD296R,0.0403X0.0006*%
%ADD297R,0.0370X0.0006*%
%ADD298R,0.0019X0.0006*%
%ADD299R,0.0370X0.0007*%
%ADD300R,0.0475X0.0007*%
%ADD301R,0.0435X0.0006*%
%ADD302R,0.0397X0.0007*%
%ADD303R,0.0189X0.0007*%
%ADD304R,0.0351X0.0007*%
%ADD305R,0.0169X0.0007*%
%ADD306R,0.0319X0.0007*%
%ADD307R,0.0176X0.0006*%
%ADD308R,0.0312X0.0006*%
%ADD309R,0.0202X0.0007*%
%ADD310R,0.0279X0.0007*%
%ADD311R,0.0286X0.0006*%
%ADD312R,0.0565X0.0007*%
%ADD313R,0.0221X0.0007*%
%ADD314R,0.0468X0.0007*%
%ADD315R,0.0234X0.0007*%
%ADD316R,0.0241X0.0007*%
%ADD317R,0.0169X0.0006*%
%ADD318R,0.0182X0.0007*%
%ADD319R,0.0507X0.0007*%
%ADD320R,0.0279X0.0006*%
%ADD321C,0.0120*%
%ADD322C,0.0220*%
%ADD323C,0.0060*%
%ADD324C,0.0100*%
%ADD325C,0.0050*%
D10*
X023732Y028282D03*
D11*
X023830Y025382D02*
X024017Y025382D01*
X023924Y025382D02*
X023924Y025102D01*
X024125Y025149D02*
X024172Y025102D01*
X024312Y025102D01*
X024312Y025382D01*
X024172Y025382D01*
X024125Y025335D01*
X024125Y025289D01*
X024172Y025242D01*
X024312Y025242D01*
X024172Y025242D02*
X024125Y025195D01*
X024125Y025149D01*
X024180Y024832D02*
X024180Y024552D01*
X024073Y024599D02*
X024026Y024552D01*
X023932Y024552D01*
X023886Y024599D01*
X023778Y024599D02*
X023731Y024552D01*
X023638Y024552D01*
X023591Y024599D01*
X023591Y024692D01*
X023638Y024739D01*
X023685Y024739D01*
X023778Y024692D01*
X023778Y024832D01*
X023591Y024832D01*
X023483Y024785D02*
X023483Y024739D01*
X023437Y024692D01*
X023343Y024692D01*
X023296Y024645D01*
X023296Y024599D01*
X023343Y024552D01*
X023437Y024552D01*
X023483Y024599D01*
X023483Y024645D01*
X023437Y024692D01*
X023343Y024692D02*
X023296Y024739D01*
X023296Y024785D01*
X023343Y024832D01*
X023437Y024832D01*
X023483Y024785D01*
X023189Y024785D02*
X023189Y024739D01*
X023142Y024692D01*
X023049Y024692D01*
X023002Y024645D01*
X023002Y024599D01*
X023049Y024552D01*
X023142Y024552D01*
X023189Y024599D01*
X023189Y024645D01*
X023142Y024692D01*
X023049Y024692D02*
X023002Y024739D01*
X023002Y024785D01*
X023049Y024832D01*
X023142Y024832D01*
X023189Y024785D01*
X022894Y024785D02*
X022847Y024832D01*
X022754Y024832D01*
X022707Y024785D01*
X022707Y024739D01*
X022754Y024692D01*
X022707Y024645D01*
X022707Y024599D01*
X022754Y024552D01*
X022847Y024552D01*
X022894Y024599D01*
X022801Y024692D02*
X022754Y024692D01*
X022212Y024702D02*
X022072Y024702D01*
X022025Y024749D01*
X022025Y024795D01*
X022072Y024842D01*
X022212Y024842D01*
X022212Y024702D02*
X022212Y024982D01*
X022072Y024982D01*
X022025Y024935D01*
X022025Y024889D01*
X022072Y024842D01*
X021917Y024702D02*
X021917Y024982D01*
X021824Y024889D01*
X021730Y024982D01*
X021730Y024702D01*
X021623Y024702D02*
X021623Y024982D01*
X021482Y024982D01*
X021436Y024935D01*
X021436Y024842D01*
X021482Y024795D01*
X021623Y024795D01*
X021328Y024702D02*
X021141Y024702D01*
X021235Y024702D02*
X021235Y024982D01*
X021328Y024889D01*
X021033Y024889D02*
X021033Y024935D01*
X020987Y024982D01*
X020893Y024982D01*
X020846Y024935D01*
X020846Y024889D01*
X020893Y024842D01*
X020987Y024842D01*
X021033Y024889D01*
X020987Y024842D02*
X021033Y024795D01*
X021033Y024749D01*
X020987Y024702D01*
X020893Y024702D01*
X020846Y024749D01*
X020846Y024795D01*
X020893Y024842D01*
X020739Y024749D02*
X020552Y024935D01*
X020552Y024749D01*
X020599Y024702D01*
X020692Y024702D01*
X020739Y024749D01*
X020739Y024935D01*
X020692Y024982D01*
X020599Y024982D01*
X020552Y024935D01*
X019096Y024832D02*
X018956Y024832D01*
X018909Y024879D01*
X018909Y025065D01*
X018956Y025112D01*
X019096Y025112D01*
X019096Y024832D01*
X018801Y024832D02*
X018614Y024832D01*
X018708Y024832D02*
X018708Y025112D01*
X018801Y025019D01*
X018507Y025065D02*
X018460Y025112D01*
X018366Y025112D01*
X018320Y025065D01*
X018320Y025019D01*
X018507Y024832D01*
X018320Y024832D01*
X018366Y024512D02*
X018320Y024465D01*
X018320Y024419D01*
X018366Y024372D01*
X018320Y024325D01*
X018320Y024279D01*
X018366Y024232D01*
X018460Y024232D01*
X018507Y024279D01*
X018614Y024232D02*
X018801Y024232D01*
X018708Y024232D02*
X018708Y024512D01*
X018801Y024419D01*
X018909Y024465D02*
X018956Y024512D01*
X019096Y024512D01*
X019096Y024232D01*
X018956Y024232D01*
X018909Y024279D01*
X018909Y024465D01*
X018507Y024465D02*
X018460Y024512D01*
X018366Y024512D01*
X018366Y024372D02*
X018413Y024372D01*
X018507Y023312D02*
X018507Y023032D01*
X018320Y023032D01*
X018614Y023079D02*
X018661Y023032D01*
X018754Y023032D01*
X018801Y023079D01*
X018801Y023265D01*
X018754Y023312D01*
X018661Y023312D01*
X018614Y023265D01*
X018909Y023265D02*
X018956Y023312D01*
X019049Y023312D01*
X019096Y023265D01*
X019096Y023219D01*
X019049Y023172D01*
X018956Y023172D01*
X018909Y023125D01*
X018909Y023079D01*
X018956Y023032D01*
X019049Y023032D01*
X019096Y023079D01*
X019049Y022712D02*
X018956Y022712D01*
X018909Y022665D01*
X018956Y022572D02*
X018909Y022525D01*
X018909Y022479D01*
X018956Y022432D01*
X019049Y022432D01*
X019096Y022479D01*
X019049Y022572D02*
X018956Y022572D01*
X019049Y022572D02*
X019096Y022619D01*
X019096Y022665D01*
X019049Y022712D01*
X018801Y022712D02*
X018661Y022712D01*
X018614Y022665D01*
X018614Y022479D01*
X018661Y022432D01*
X018801Y022432D01*
X018801Y022712D01*
X018507Y022619D02*
X018413Y022712D01*
X018320Y022619D01*
X018320Y022432D01*
X018320Y022572D02*
X018507Y022572D01*
X018507Y022619D02*
X018507Y022432D01*
X018249Y021262D02*
X018296Y021215D01*
X018296Y021029D01*
X018249Y020982D01*
X018156Y020982D01*
X018109Y021029D01*
X018109Y021122D01*
X018202Y021122D01*
X018109Y021215D02*
X018156Y021262D01*
X018249Y021262D01*
X018001Y021262D02*
X017814Y020982D01*
X017814Y021262D01*
X017707Y021262D02*
X017566Y021262D01*
X017520Y021215D01*
X017520Y021029D01*
X017566Y020982D01*
X017707Y020982D01*
X017707Y021262D01*
X018001Y021262D02*
X018001Y020982D01*
X018075Y020532D02*
X017888Y020532D01*
X017935Y020439D02*
X017888Y020392D01*
X017888Y020299D01*
X017935Y020252D01*
X018029Y020252D01*
X018075Y020299D01*
X018075Y020392D02*
X017982Y020439D01*
X017935Y020439D01*
X018075Y020392D02*
X018075Y020532D01*
X018176Y020299D02*
X018176Y020252D01*
X018223Y020252D01*
X018223Y020299D01*
X018176Y020299D01*
X018330Y020299D02*
X018377Y020252D01*
X018471Y020252D01*
X018517Y020299D01*
X018517Y020392D02*
X018424Y020439D01*
X018377Y020439D01*
X018330Y020392D01*
X018330Y020299D01*
X018517Y020392D02*
X018517Y020532D01*
X018330Y020532D01*
X018718Y020532D02*
X018718Y020252D01*
X018625Y020252D02*
X018812Y020252D01*
X018812Y020439D02*
X018718Y020532D01*
X017781Y020299D02*
X017734Y020299D01*
X017734Y020252D01*
X017781Y020252D01*
X017781Y020299D01*
X017633Y020252D02*
X017446Y020439D01*
X017446Y020485D01*
X017493Y020532D01*
X017587Y020532D01*
X017633Y020485D01*
X017633Y020252D02*
X017446Y020252D01*
X017339Y020299D02*
X017292Y020252D01*
X017199Y020252D01*
X017152Y020299D01*
X017152Y020392D01*
X017199Y020439D01*
X017245Y020439D01*
X017339Y020392D01*
X017339Y020532D01*
X017152Y020532D01*
X017044Y020439D02*
X016951Y020252D01*
X016857Y020439D01*
X016749Y020485D02*
X016703Y020532D01*
X016609Y020532D01*
X016563Y020485D01*
X016749Y020299D01*
X016703Y020252D01*
X016609Y020252D01*
X016563Y020299D01*
X016563Y020485D01*
X016749Y020485D02*
X016749Y020299D01*
X016455Y020299D02*
X016408Y020299D01*
X016408Y020252D01*
X016455Y020252D01*
X016455Y020299D01*
X016307Y020299D02*
X016261Y020252D01*
X016167Y020252D01*
X016121Y020299D01*
X016121Y020392D01*
X016167Y020439D01*
X016214Y020439D01*
X016307Y020392D01*
X016307Y020532D01*
X016121Y020532D01*
X016563Y020982D02*
X016470Y021075D01*
X016470Y021262D01*
X016657Y021262D02*
X016657Y021075D01*
X016563Y020982D01*
X016764Y021029D02*
X016811Y020982D01*
X016904Y020982D01*
X016951Y021029D01*
X017052Y021029D02*
X017052Y020982D01*
X017099Y020982D01*
X017099Y021029D01*
X017052Y021029D01*
X017206Y021029D02*
X017253Y020982D01*
X017346Y020982D01*
X017393Y021029D01*
X017300Y021122D02*
X017253Y021122D01*
X017206Y021075D01*
X017206Y021029D01*
X017253Y021122D02*
X017206Y021169D01*
X017206Y021215D01*
X017253Y021262D01*
X017346Y021262D01*
X017393Y021215D01*
X016951Y021215D02*
X016904Y021262D01*
X016811Y021262D01*
X016764Y021215D01*
X016764Y021169D01*
X016811Y021122D01*
X016764Y021075D01*
X016764Y021029D01*
X016811Y021122D02*
X016858Y021122D01*
X020602Y021949D02*
X020602Y022042D01*
X020649Y022089D01*
X020602Y022197D02*
X020602Y022383D01*
X020602Y022290D02*
X020882Y022290D01*
X020789Y022197D01*
X020835Y022089D02*
X020882Y022042D01*
X020882Y021949D01*
X020835Y021902D01*
X020649Y021902D01*
X020602Y021949D01*
X020602Y022491D02*
X020602Y022678D01*
X020602Y022585D02*
X020882Y022585D01*
X020789Y022491D01*
X021327Y022187D02*
X021327Y022093D01*
X021374Y022047D01*
X021467Y022047D02*
X021514Y022140D01*
X021514Y022187D01*
X021467Y022233D01*
X021374Y022233D01*
X021327Y022187D01*
X021467Y022047D02*
X021607Y022047D01*
X021607Y022233D01*
X021560Y021939D02*
X021607Y021892D01*
X021607Y021799D01*
X021560Y021752D01*
X021374Y021752D01*
X021327Y021799D01*
X021327Y021892D01*
X021374Y021939D01*
X022470Y022072D02*
X022657Y022072D01*
X022516Y022212D01*
X022516Y021932D01*
X022764Y021979D02*
X022764Y022212D01*
X022951Y022212D02*
X022951Y021979D01*
X022904Y021932D01*
X022811Y021932D01*
X022764Y021979D01*
X024102Y021949D02*
X024102Y022042D01*
X024149Y022089D01*
X024149Y022197D02*
X024195Y022197D01*
X024242Y022243D01*
X024242Y022337D01*
X024195Y022383D01*
X024149Y022383D01*
X024102Y022337D01*
X024102Y022243D01*
X024149Y022197D01*
X024242Y022243D02*
X024289Y022197D01*
X024335Y022197D01*
X024382Y022243D01*
X024382Y022337D01*
X024335Y022383D01*
X024289Y022383D01*
X024242Y022337D01*
X024335Y022089D02*
X024382Y022042D01*
X024382Y021949D01*
X024335Y021902D01*
X024149Y021902D01*
X024102Y021949D01*
X024852Y021949D02*
X024852Y022042D01*
X024899Y022089D01*
X024899Y022197D02*
X024852Y022197D01*
X024899Y022197D02*
X025085Y022383D01*
X025132Y022383D01*
X025132Y022197D01*
X025085Y022089D02*
X025132Y022042D01*
X025132Y021949D01*
X025085Y021902D01*
X024899Y021902D01*
X024852Y021949D01*
X025955Y021999D02*
X026002Y021952D01*
X026096Y021952D01*
X026142Y021999D01*
X026250Y021999D02*
X026250Y022232D01*
X026142Y022185D02*
X026096Y022232D01*
X026002Y022232D01*
X025955Y022185D01*
X025955Y022139D01*
X026002Y022092D01*
X025955Y022045D01*
X025955Y021999D01*
X026002Y022092D02*
X026049Y022092D01*
X026250Y021999D02*
X026297Y021952D01*
X026390Y021952D01*
X026437Y021999D01*
X026437Y022232D01*
X027302Y022243D02*
X027302Y022337D01*
X027349Y022383D01*
X027395Y022383D01*
X027442Y022337D01*
X027442Y022197D01*
X027349Y022197D01*
X027302Y022243D01*
X027442Y022197D02*
X027535Y022290D01*
X027582Y022383D01*
X027535Y022089D02*
X027582Y022042D01*
X027582Y021949D01*
X027535Y021902D01*
X027349Y021902D01*
X027302Y021949D01*
X027302Y022042D01*
X027349Y022089D01*
X028632Y020682D02*
X028726Y020682D01*
X028773Y020635D01*
X028773Y020449D01*
X028726Y020402D01*
X028632Y020402D01*
X028586Y020449D01*
X028586Y020635D02*
X028632Y020682D01*
X028880Y020635D02*
X028927Y020682D01*
X029021Y020682D01*
X029067Y020635D01*
X029067Y020449D01*
X029021Y020402D01*
X028927Y020402D01*
X028880Y020449D01*
X029175Y020495D02*
X029268Y020402D01*
X029362Y020495D01*
X029362Y020682D01*
X029175Y020682D02*
X029175Y020495D01*
X029836Y020449D02*
X029882Y020402D01*
X030023Y020402D01*
X030023Y020682D01*
X029882Y020682D01*
X029836Y020635D01*
X029836Y020449D01*
X030130Y020402D02*
X030130Y020682D01*
X030317Y020682D02*
X030130Y020402D01*
X030317Y020402D02*
X030317Y020682D01*
X030425Y020635D02*
X030472Y020682D01*
X030565Y020682D01*
X030612Y020635D01*
X030612Y020449D01*
X030565Y020402D01*
X030472Y020402D01*
X030425Y020449D01*
X030425Y020542D01*
X030518Y020542D01*
X026558Y025005D02*
X026558Y025286D01*
X026418Y025286D01*
X026372Y025239D01*
X026372Y025146D01*
X026418Y025099D01*
X026558Y025099D01*
X026465Y025099D02*
X026372Y025005D01*
X026264Y025005D02*
X026077Y025286D01*
X025969Y025286D02*
X025829Y025286D01*
X025782Y025239D01*
X025782Y025052D01*
X025829Y025005D01*
X025969Y025005D01*
X025969Y025286D01*
X026264Y025286D02*
X026077Y025005D01*
X024662Y024832D02*
X024662Y024552D01*
X024662Y024692D02*
X024475Y024692D01*
X024475Y024832D02*
X024475Y024552D01*
X024367Y024552D02*
X024367Y024832D01*
X024274Y024739D01*
X024180Y024832D01*
X024073Y024785D02*
X024073Y024599D01*
X024073Y024785D02*
X024026Y024832D01*
X023932Y024832D01*
X023886Y024785D01*
X023582Y025102D02*
X023582Y025382D01*
X023723Y025242D01*
X023536Y025242D01*
X023428Y025149D02*
X023381Y025149D01*
X023381Y025102D01*
X023428Y025102D01*
X023428Y025149D01*
X023281Y025149D02*
X023094Y025335D01*
X023094Y025149D01*
X023140Y025102D01*
X023234Y025102D01*
X023281Y025149D01*
X023281Y025335D01*
X023234Y025382D01*
X023140Y025382D01*
X023094Y025335D01*
X019096Y025532D02*
X018956Y025532D01*
X018909Y025579D01*
X018909Y025765D01*
X018956Y025812D01*
X019096Y025812D01*
X019096Y025532D01*
X018801Y025532D02*
X018614Y025532D01*
X018708Y025532D02*
X018708Y025812D01*
X018801Y025719D01*
X018507Y025719D02*
X018413Y025812D01*
X018413Y025532D01*
X018320Y025532D02*
X018507Y025532D01*
X017612Y026302D02*
X017612Y026489D01*
X017518Y026582D01*
X017425Y026489D01*
X017425Y026302D01*
X017317Y026302D02*
X017130Y026302D01*
X017224Y026302D02*
X017224Y026582D01*
X017317Y026489D01*
X017425Y026442D02*
X017612Y026442D01*
X017023Y026302D02*
X016836Y026582D01*
X016728Y026489D02*
X016635Y026582D01*
X016541Y026489D01*
X016541Y026302D01*
X016433Y026349D02*
X016387Y026302D01*
X016293Y026302D01*
X016246Y026349D01*
X016246Y026442D01*
X016293Y026489D01*
X016340Y026489D01*
X016433Y026442D01*
X016433Y026582D01*
X016246Y026582D01*
X016541Y026442D02*
X016728Y026442D01*
X016728Y026489D02*
X016728Y026302D01*
X028702Y025797D02*
X028749Y025797D01*
X028935Y025983D01*
X028982Y025983D01*
X028982Y025797D01*
X028982Y025689D02*
X028749Y025689D01*
X028702Y025642D01*
X028702Y025549D01*
X028749Y025502D01*
X028982Y025502D01*
D12*
X029272Y025143D02*
X029369Y025240D01*
X029756Y025240D01*
X029852Y025143D01*
X029852Y024950D01*
X029756Y024853D01*
X029369Y024853D01*
X029272Y024950D01*
X029272Y025143D01*
X029272Y024632D02*
X029852Y024632D01*
X029852Y024245D02*
X029272Y024632D01*
X029272Y024245D02*
X029852Y024245D01*
X029852Y024024D02*
X029272Y023637D01*
X029272Y023417D02*
X029852Y023417D01*
X029562Y023417D02*
X029562Y023030D01*
X029272Y023030D02*
X029852Y023030D01*
X029756Y022809D02*
X029852Y022712D01*
X029852Y022519D01*
X029756Y022422D01*
X029369Y022422D01*
X029272Y022519D01*
X029272Y022712D01*
X029369Y022809D01*
X026551Y021792D02*
X026551Y021755D01*
X026551Y021792D02*
X025913Y021792D01*
X025913Y021755D01*
X025913Y020709D02*
X025913Y020672D01*
X026551Y020672D01*
X026551Y020709D01*
X024401Y023063D02*
X024165Y023063D01*
X024401Y023063D02*
X024401Y023299D01*
X024401Y024165D02*
X024401Y024401D01*
X024165Y024401D01*
X023236Y024376D02*
X023088Y024236D01*
X023063Y023299D02*
X023063Y023063D01*
X023299Y023063D01*
X022118Y023141D02*
X022118Y022944D01*
X021822Y022944D01*
X021074Y022944D02*
X020740Y022944D01*
X020740Y023141D01*
X020740Y024322D02*
X020740Y024519D01*
X021074Y024519D01*
X021822Y024519D02*
X022118Y024519D01*
X022118Y024322D01*
X022563Y021792D02*
X022901Y021792D01*
X022413Y021338D02*
X022413Y021126D01*
X022563Y020672D02*
X022901Y020672D01*
X011692Y014062D02*
X011305Y014062D01*
X011498Y013869D02*
X011498Y014256D01*
X013998Y035869D02*
X013998Y036256D01*
X013805Y036062D02*
X014192Y036062D01*
X033305Y036062D02*
X033692Y036062D01*
X033498Y035869D02*
X033498Y036256D01*
X035998Y014256D02*
X035998Y013869D01*
X035805Y014062D02*
X036192Y014062D01*
D13*
X013482Y011232D02*
X013489Y011133D01*
X013493Y011035D01*
X013494Y010936D01*
X013490Y010837D01*
X013482Y010739D01*
X013471Y010641D01*
X013455Y010543D01*
X013436Y010446D01*
X013413Y010350D01*
X013386Y010255D01*
X013356Y010161D01*
X013322Y010068D01*
X013284Y009977D01*
X013243Y009887D01*
X013198Y009799D01*
X013150Y009713D01*
X013098Y009628D01*
X013043Y009546D01*
X012985Y009466D01*
X012924Y009389D01*
X012860Y009314D01*
X012793Y009241D01*
X012723Y009171D01*
X012650Y009104D01*
X012575Y009040D01*
X012498Y008979D01*
X012418Y008921D01*
X012336Y008866D01*
X012251Y008814D01*
X012165Y008766D01*
X012077Y008721D01*
X011987Y008680D01*
X011896Y008642D01*
X011803Y008608D01*
X011709Y008578D01*
X011614Y008551D01*
X011518Y008528D01*
X011421Y008509D01*
X011323Y008493D01*
X011225Y008482D01*
X011127Y008474D01*
X011028Y008470D01*
X010929Y008471D01*
X010831Y008475D01*
X010732Y008482D01*
X013732Y010232D02*
X013732Y010982D01*
X013482Y011232D01*
X021470Y021232D02*
X021494Y021232D01*
X033732Y010982D02*
X033732Y010232D01*
X033732Y010982D02*
X033982Y011232D01*
X033978Y011131D01*
X033979Y011029D01*
X033983Y010928D01*
X033991Y010828D01*
X034002Y010727D01*
X034018Y010627D01*
X034037Y010528D01*
X034061Y010429D01*
X034088Y010332D01*
X034119Y010236D01*
X034153Y010140D01*
X034191Y010047D01*
X034233Y009955D01*
X034278Y009864D01*
X034327Y009775D01*
X034379Y009689D01*
X034434Y009604D01*
X034493Y009521D01*
X034554Y009441D01*
X034619Y009364D01*
X034687Y009288D01*
X034757Y009216D01*
X034831Y009146D01*
X034906Y009079D01*
X034985Y009015D01*
X035066Y008954D01*
X035149Y008897D01*
X035234Y008842D01*
X035321Y008791D01*
X035410Y008743D01*
X035501Y008699D01*
X035594Y008658D01*
X035688Y008621D01*
X035783Y008587D01*
X035880Y008558D01*
X035978Y008531D01*
X036076Y008509D01*
X036176Y008491D01*
X036276Y008476D01*
X036377Y008465D01*
X036477Y008458D01*
X036579Y008455D01*
X036680Y008456D01*
X036781Y008461D01*
X036882Y008469D01*
X036982Y008482D01*
X034232Y036232D02*
X033982Y036482D01*
X033982Y037232D01*
X034232Y036232D02*
X034225Y036331D01*
X034221Y036429D01*
X034220Y036528D01*
X034224Y036627D01*
X034232Y036725D01*
X034243Y036823D01*
X034259Y036921D01*
X034278Y037018D01*
X034301Y037114D01*
X034328Y037209D01*
X034358Y037303D01*
X034392Y037396D01*
X034430Y037487D01*
X034471Y037577D01*
X034516Y037665D01*
X034564Y037751D01*
X034616Y037836D01*
X034671Y037918D01*
X034729Y037998D01*
X034790Y038075D01*
X034854Y038150D01*
X034921Y038223D01*
X034991Y038293D01*
X035064Y038360D01*
X035139Y038424D01*
X035216Y038485D01*
X035296Y038543D01*
X035378Y038598D01*
X035463Y038650D01*
X035549Y038698D01*
X035637Y038743D01*
X035727Y038784D01*
X035818Y038822D01*
X035911Y038856D01*
X036005Y038886D01*
X036100Y038913D01*
X036196Y038936D01*
X036293Y038955D01*
X036391Y038971D01*
X036489Y038982D01*
X036587Y038990D01*
X036686Y038994D01*
X036785Y038993D01*
X036883Y038989D01*
X036982Y038982D01*
X013732Y037232D02*
X013732Y036482D01*
X013482Y036232D01*
X013489Y036331D01*
X013493Y036429D01*
X013494Y036528D01*
X013490Y036627D01*
X013482Y036725D01*
X013471Y036823D01*
X013455Y036921D01*
X013436Y037018D01*
X013413Y037114D01*
X013386Y037209D01*
X013356Y037303D01*
X013322Y037396D01*
X013284Y037487D01*
X013243Y037577D01*
X013198Y037665D01*
X013150Y037751D01*
X013098Y037836D01*
X013043Y037918D01*
X012985Y037998D01*
X012924Y038075D01*
X012860Y038150D01*
X012793Y038223D01*
X012723Y038293D01*
X012650Y038360D01*
X012575Y038424D01*
X012498Y038485D01*
X012418Y038543D01*
X012336Y038598D01*
X012251Y038650D01*
X012165Y038698D01*
X012077Y038743D01*
X011987Y038784D01*
X011896Y038822D01*
X011803Y038856D01*
X011709Y038886D01*
X011614Y038913D01*
X011518Y038936D01*
X011421Y038955D01*
X011323Y038971D01*
X011225Y038982D01*
X011127Y038990D01*
X011028Y038994D01*
X010929Y038993D01*
X010831Y038989D01*
X010732Y038982D01*
D14*
X015028Y034638D02*
X014862Y034400D01*
X014981Y034317D01*
X015048Y034329D01*
X015104Y034408D01*
X015092Y034475D01*
X014973Y034559D01*
X015214Y034390D02*
X015253Y034362D01*
X015277Y034228D01*
X015333Y034307D02*
X015222Y034148D01*
X015303Y034091D02*
X015383Y034036D01*
X015343Y034063D02*
X015454Y034222D01*
X015494Y034194D01*
X015509Y034301D02*
X015537Y034341D01*
X015549Y034097D02*
X015616Y034108D01*
X015735Y034025D01*
X015790Y034104D02*
X015624Y033867D01*
X015505Y033950D01*
X015493Y034017D01*
X015549Y034097D01*
X015790Y033928D02*
X015762Y033888D01*
X015921Y033777D01*
X015948Y033817D02*
X015937Y033884D01*
X015857Y033939D01*
X015790Y033928D01*
X015746Y033781D02*
X015826Y033725D01*
X015893Y033737D01*
X015948Y033817D01*
X016059Y033798D02*
X016107Y033529D01*
X015948Y033640D01*
X016059Y033798D02*
X016218Y033687D01*
X016273Y033590D02*
X016189Y033471D01*
X016308Y033387D01*
X016376Y033399D01*
X016364Y033467D01*
X016245Y033550D01*
X016273Y033590D02*
X016340Y033601D01*
X016419Y033546D01*
X016541Y033461D02*
X016581Y033433D01*
X016605Y033298D01*
X016549Y033219D02*
X016660Y033377D01*
X016743Y033319D02*
X016862Y033236D01*
X016874Y033169D01*
X016818Y033089D01*
X016751Y033078D01*
X016632Y033161D01*
X017040Y033230D02*
X017032Y032881D01*
X017115Y032823D02*
X017198Y032942D01*
X017265Y032954D01*
X017277Y032886D01*
X017194Y032767D01*
X017273Y032712D02*
X017384Y032870D01*
X017345Y032898D01*
X017277Y032886D01*
X017439Y032773D02*
X017507Y032785D01*
X017586Y032729D01*
X017598Y032662D01*
X017542Y032582D01*
X017475Y032571D01*
X017396Y032626D01*
X017384Y032693D01*
X017439Y032773D01*
X017708Y032643D02*
X017827Y032560D01*
X017839Y032493D01*
X017784Y032413D01*
X017716Y032402D01*
X017597Y032485D01*
X017837Y032317D02*
X017877Y032289D01*
X017904Y032329D01*
X017865Y032357D01*
X017837Y032317D01*
X017959Y032232D02*
X018133Y032228D01*
X018070Y032390D01*
X018244Y032386D02*
X018078Y032148D01*
X018161Y032090D02*
X018279Y032007D01*
X018347Y032019D01*
X018335Y032086D01*
X018216Y032170D01*
X018244Y032209D02*
X018161Y032090D01*
X018244Y032209D02*
X018311Y032221D01*
X018390Y032166D01*
X018485Y032040D02*
X018457Y032001D01*
X018616Y031890D01*
X018644Y031929D02*
X018632Y031997D01*
X018553Y032052D01*
X018485Y032040D01*
X018442Y031894D02*
X018521Y031838D01*
X018588Y031850D01*
X018644Y031929D01*
X018727Y031871D02*
X018671Y031792D01*
X018683Y031725D01*
X018802Y031641D01*
X018746Y031562D02*
X018913Y031800D01*
X018794Y031883D01*
X018727Y031871D01*
X018968Y031702D02*
X019035Y031714D01*
X019115Y031659D01*
X019126Y031591D01*
X019071Y031512D01*
X019004Y031500D01*
X018924Y031556D01*
X018912Y031623D01*
X018968Y031702D01*
X019209Y031533D02*
X019126Y031414D01*
X019209Y031533D02*
X019277Y031545D01*
X019396Y031462D01*
X019285Y031303D01*
X019366Y031246D02*
X019445Y031191D01*
X019406Y031219D02*
X019517Y031377D01*
X019556Y031349D01*
X019639Y031291D02*
X019528Y031133D01*
X019647Y031050D01*
X019715Y031061D01*
X019798Y031180D01*
X019881Y031122D02*
X020000Y031039D01*
X020011Y030972D01*
X019956Y030892D01*
X019889Y030881D01*
X019770Y030964D01*
X019936Y031202D01*
X019572Y031456D02*
X019600Y031496D01*
X027360Y031021D02*
X027531Y030786D01*
X027648Y030871D01*
X027659Y030939D01*
X027602Y031017D01*
X027535Y031028D01*
X027417Y030942D01*
X027655Y031115D02*
X027694Y031144D01*
X027829Y031122D01*
X027886Y031044D02*
X027772Y031200D01*
X027892Y031287D02*
X028006Y031131D01*
X028045Y031159D02*
X027967Y031102D01*
X027892Y031287D02*
X027931Y031316D01*
X027835Y031366D02*
X027807Y031405D01*
X028042Y031336D02*
X028098Y031258D01*
X028166Y031247D01*
X028283Y031332D01*
X028113Y031567D01*
X028170Y031489D02*
X028052Y031404D01*
X028042Y031336D01*
X028280Y031509D02*
X028308Y031470D01*
X028465Y031584D01*
X028493Y031545D02*
X028436Y031623D01*
X028369Y031634D01*
X028291Y031577D01*
X028280Y031509D01*
X028404Y031420D02*
X028483Y031477D01*
X028493Y031545D01*
X028604Y031565D02*
X028760Y031679D01*
X028490Y031722D01*
X028646Y031835D01*
X028757Y031856D02*
X028842Y031738D01*
X028959Y031824D01*
X028970Y031891D01*
X028903Y031902D01*
X028785Y031817D01*
X028757Y031856D02*
X028767Y031923D01*
X028846Y031980D01*
X028966Y032068D02*
X029005Y032096D01*
X029140Y032075D01*
X029083Y032153D02*
X029197Y031996D01*
X029279Y032056D02*
X029396Y032141D01*
X029407Y032209D01*
X029350Y032287D01*
X029283Y032298D01*
X029165Y032212D01*
X029347Y032464D02*
X029674Y032343D01*
X029756Y032402D02*
X029670Y032520D01*
X029681Y032587D01*
X029749Y032577D01*
X029834Y032459D01*
X029912Y032516D02*
X029799Y032673D01*
X029759Y032644D01*
X029749Y032577D01*
X029909Y032693D02*
X029920Y032760D01*
X029998Y032817D01*
X030065Y032807D01*
X030122Y032728D01*
X030112Y032661D01*
X030033Y032604D01*
X029966Y032615D01*
X029909Y032693D01*
X030119Y032905D02*
X030236Y032990D01*
X030304Y032980D01*
X030361Y032901D01*
X030350Y032834D01*
X030232Y032749D01*
X030469Y032921D02*
X030508Y032949D01*
X030480Y032988D01*
X030441Y032960D01*
X030469Y032921D01*
X030589Y033008D02*
X030650Y033172D01*
X030476Y033165D01*
X030536Y033328D02*
X030707Y033093D01*
X030789Y033153D02*
X030906Y033238D01*
X030917Y033306D01*
X030849Y033316D01*
X030732Y033231D01*
X030703Y033270D02*
X030789Y033153D01*
X030703Y033270D02*
X030714Y033338D01*
X030792Y033395D01*
X030942Y033443D02*
X030970Y033404D01*
X031127Y033518D01*
X031155Y033479D02*
X031098Y033557D01*
X031031Y033568D01*
X030952Y033511D01*
X030942Y033443D01*
X031066Y033354D02*
X031144Y033411D01*
X031155Y033479D01*
X031237Y033538D02*
X031305Y033528D01*
X031422Y033613D01*
X031479Y033535D02*
X031308Y033769D01*
X031191Y033684D01*
X031180Y033617D01*
X031237Y033538D01*
X031475Y033711D02*
X031419Y033790D01*
X031429Y033857D01*
X031508Y033914D01*
X031575Y033903D01*
X031632Y033825D01*
X031621Y033758D01*
X031543Y033701D01*
X031475Y033711D01*
X031742Y033846D02*
X031657Y033963D01*
X031668Y034030D01*
X031785Y034116D01*
X031899Y033959D01*
X031979Y034018D02*
X032058Y034075D01*
X032019Y034046D02*
X031905Y034203D01*
X031944Y034231D01*
X032026Y034291D02*
X032140Y034134D01*
X032257Y034219D01*
X032268Y034287D01*
X032182Y034404D01*
X032264Y034464D02*
X032382Y034549D01*
X032449Y034538D01*
X032506Y034460D01*
X032495Y034393D01*
X032378Y034307D01*
X032207Y034542D01*
X031848Y034281D02*
X031820Y034320D01*
X027443Y016819D02*
X027272Y016584D01*
X027390Y016499D01*
X027457Y016510D01*
X027514Y016588D01*
X027503Y016656D01*
X027386Y016741D01*
X027624Y016568D02*
X027663Y016540D01*
X027684Y016405D01*
X027628Y016326D02*
X027741Y016483D01*
X027861Y016396D02*
X027747Y016239D01*
X027786Y016211D02*
X027708Y016268D01*
X027861Y016396D02*
X027900Y016368D01*
X027918Y016474D02*
X027946Y016513D01*
X027954Y016269D02*
X028021Y016280D01*
X028139Y016194D01*
X028195Y016273D02*
X028025Y016038D01*
X027907Y016123D01*
X027897Y016191D01*
X027954Y016269D01*
X028192Y016096D02*
X028164Y016057D01*
X028320Y015943D01*
X028349Y015982D02*
X028338Y016050D01*
X028260Y016106D01*
X028192Y016096D01*
X028146Y015950D02*
X028224Y015893D01*
X028292Y015904D01*
X028349Y015982D01*
X028459Y015962D02*
X028502Y015691D01*
X028345Y015805D01*
X028459Y015962D02*
X028615Y015848D01*
X028669Y015749D02*
X028583Y015632D01*
X028701Y015547D01*
X028768Y015557D01*
X028758Y015625D01*
X028640Y015710D01*
X028669Y015749D02*
X028736Y015760D01*
X028815Y015703D01*
X028935Y015616D02*
X028974Y015587D01*
X028995Y015452D01*
X028939Y015374D02*
X029052Y015530D01*
X029134Y015471D02*
X029252Y015386D01*
X029262Y015318D01*
X029205Y015240D01*
X029138Y015229D01*
X029020Y015314D01*
X029429Y015376D02*
X029415Y015027D01*
X029497Y014968D02*
X029582Y015085D01*
X029650Y015096D01*
X029661Y015029D01*
X029575Y014911D01*
X029654Y014854D02*
X029767Y015011D01*
X029728Y015039D01*
X029661Y015029D01*
X029821Y014912D02*
X029888Y014923D01*
X029967Y014866D01*
X029977Y014799D01*
X029921Y014720D01*
X029853Y014710D01*
X029775Y014766D01*
X029764Y014834D01*
X029821Y014912D01*
X030088Y014778D02*
X030205Y014693D01*
X030216Y014625D01*
X030159Y014547D01*
X030091Y014536D01*
X029974Y014622D01*
X030211Y014450D02*
X030250Y014421D01*
X030278Y014460D01*
X030239Y014489D01*
X030211Y014450D01*
X030331Y014362D02*
X030505Y014355D01*
X030445Y014519D01*
X030619Y014512D02*
X030448Y014277D01*
X030530Y014218D02*
X030615Y014335D01*
X030683Y014346D01*
X030761Y014289D01*
X030704Y014211D02*
X030587Y014296D01*
X030530Y014218D02*
X030648Y014132D01*
X030715Y014143D01*
X030704Y014211D01*
X030825Y014123D02*
X030982Y014009D01*
X031010Y014048D02*
X031000Y014116D01*
X030921Y014172D01*
X030854Y014162D01*
X030825Y014123D01*
X030808Y014016D02*
X030886Y013959D01*
X030954Y013970D01*
X031010Y014048D01*
X031092Y013989D02*
X031035Y013910D01*
X031046Y013843D01*
X031163Y013757D01*
X031107Y013679D02*
X031277Y013914D01*
X031160Y013999D01*
X031092Y013989D01*
X031331Y013815D02*
X031274Y013737D01*
X031284Y013670D01*
X031363Y013613D01*
X031430Y013623D01*
X031487Y013702D01*
X031476Y013769D01*
X031398Y013826D01*
X031331Y013815D01*
X031569Y013642D02*
X031484Y013525D01*
X031569Y013642D02*
X031637Y013653D01*
X031754Y013568D01*
X031640Y013411D01*
X031721Y013352D02*
X031799Y013296D01*
X031760Y013324D02*
X031874Y013481D01*
X031913Y013452D01*
X031995Y013393D02*
X031881Y013236D01*
X031998Y013151D01*
X032066Y013162D01*
X032151Y013279D01*
X032233Y013219D02*
X032350Y013134D01*
X032361Y013067D01*
X032304Y012988D01*
X032237Y012978D01*
X032119Y013063D01*
X032290Y013298D01*
X031931Y013559D02*
X031959Y013598D01*
X020023Y016523D02*
X020031Y016590D01*
X019972Y016667D01*
X019904Y016675D01*
X019790Y016586D01*
X019730Y016662D02*
X019909Y016433D01*
X020023Y016523D01*
X019799Y016409D02*
X019791Y016341D01*
X019677Y016252D01*
X019557Y016404D01*
X019478Y016342D02*
X019440Y016312D01*
X019559Y016160D01*
X019597Y016189D02*
X019521Y016130D01*
X019442Y016069D02*
X019323Y016221D01*
X019209Y016132D01*
X019200Y016064D01*
X019290Y015949D01*
X019180Y015925D02*
X019172Y015857D01*
X019095Y015798D01*
X019028Y015806D01*
X018968Y015882D01*
X018976Y015950D01*
X019053Y016010D01*
X019121Y016002D01*
X019180Y015925D01*
X018978Y015706D02*
X018863Y015616D01*
X018795Y015625D01*
X018736Y015701D01*
X018744Y015769D01*
X018859Y015858D01*
X019037Y015629D01*
X018716Y015562D02*
X018656Y015639D01*
X018588Y015647D01*
X018512Y015587D01*
X018504Y015520D01*
X018533Y015481D01*
X018686Y015601D01*
X018716Y015562D02*
X018707Y015495D01*
X018631Y015435D01*
X018484Y015381D02*
X018416Y015389D01*
X018301Y015300D01*
X018271Y015338D02*
X018361Y015224D01*
X018475Y015313D01*
X018484Y015381D01*
X018356Y015466D02*
X018280Y015406D01*
X018271Y015338D01*
X018222Y015238D02*
X018048Y015225D01*
X018102Y015390D02*
X018281Y015162D01*
X018222Y015238D02*
X018167Y015072D01*
X018088Y015010D02*
X018049Y014981D01*
X018020Y015019D01*
X018058Y015048D01*
X018088Y015010D01*
X017942Y014958D02*
X017933Y014890D01*
X017819Y014801D01*
X017710Y014776D02*
X017701Y014708D01*
X017625Y014649D01*
X017557Y014657D01*
X017498Y014733D01*
X017506Y014801D01*
X017582Y014861D01*
X017650Y014853D01*
X017710Y014776D01*
X017700Y014953D02*
X017814Y015042D01*
X017882Y015034D01*
X017942Y014958D01*
X017507Y014557D02*
X017388Y014709D01*
X017350Y014680D01*
X017342Y014612D01*
X017274Y014620D01*
X017265Y014552D01*
X017355Y014438D01*
X017431Y014497D02*
X017342Y014612D01*
X017275Y014375D02*
X016944Y014485D01*
X016953Y014308D02*
X017013Y014232D01*
X017005Y014164D01*
X016890Y014075D01*
X016811Y014013D02*
X016691Y014165D01*
X016615Y014106D02*
X016577Y014076D01*
X016615Y014106D02*
X016751Y014089D01*
X016771Y014227D02*
X016886Y014317D01*
X016953Y014308D01*
X016587Y013900D02*
X016519Y013908D01*
X016405Y013819D01*
X016375Y013857D02*
X016465Y013742D01*
X016579Y013832D01*
X016587Y013900D01*
X016460Y013984D02*
X016384Y013925D01*
X016375Y013857D01*
X016266Y013833D02*
X016113Y013713D01*
X016385Y013680D01*
X016232Y013561D01*
X016123Y013537D02*
X016063Y013613D01*
X015995Y013621D01*
X015919Y013562D01*
X015911Y013494D01*
X015941Y013456D01*
X016093Y013575D01*
X016123Y013537D02*
X016115Y013469D01*
X016038Y013409D01*
X015921Y013317D02*
X015806Y013228D01*
X015738Y013236D01*
X015679Y013312D01*
X015687Y013380D01*
X015801Y013470D01*
X015742Y013546D02*
X015921Y013317D01*
X015688Y013136D02*
X015612Y013076D01*
X015650Y013106D02*
X015531Y013259D01*
X015569Y013288D01*
X015472Y013335D02*
X015442Y013373D01*
X015414Y013167D02*
X015534Y013015D01*
X015474Y013091D02*
X015338Y013108D01*
X015300Y013078D01*
X015251Y012978D02*
X015183Y012986D01*
X015068Y012897D01*
X015009Y012973D02*
X015188Y012745D01*
X015302Y012834D01*
X015310Y012902D01*
X015251Y012978D01*
X019380Y016388D02*
X019350Y016427D01*
X019710Y016523D02*
X019799Y016409D01*
D15*
X020627Y018695D03*
X020621Y018708D03*
X020679Y018864D03*
X020686Y018870D03*
X020523Y018851D03*
X020517Y018864D03*
X021011Y018864D03*
X021011Y018870D03*
X021011Y018857D03*
X021011Y018851D03*
X021011Y018838D03*
X021011Y018831D03*
X021011Y018825D03*
X021011Y018818D03*
X021011Y018805D03*
X021011Y018799D03*
X021011Y018792D03*
X021011Y018786D03*
X021011Y018773D03*
X021011Y018766D03*
X021011Y018760D03*
X021011Y018753D03*
X021011Y018883D03*
X021011Y018890D03*
X021011Y018896D03*
X021011Y018903D03*
X021011Y018916D03*
X021011Y018922D03*
X021011Y018929D03*
X021011Y018935D03*
X021011Y018948D03*
X021011Y018955D03*
X021011Y018961D03*
X023000Y018935D03*
X023000Y018929D03*
X023000Y018922D03*
X023000Y018916D03*
X023000Y018870D03*
X023000Y018864D03*
X023000Y018857D03*
X023000Y018851D03*
X023000Y018838D03*
X023000Y018831D03*
X023000Y018825D03*
X023000Y018818D03*
X023000Y018805D03*
X023000Y018799D03*
X023000Y018792D03*
X023000Y018786D03*
X023000Y018773D03*
X023000Y018766D03*
X023000Y018760D03*
X023000Y018753D03*
X023903Y018773D03*
X023903Y018786D03*
X023903Y018792D03*
X023903Y018799D03*
X023903Y018805D03*
X023903Y018818D03*
X023903Y018825D03*
X023903Y018831D03*
X023903Y018838D03*
X023903Y018851D03*
X023903Y018857D03*
X023903Y018883D03*
X023903Y018890D03*
X023903Y018896D03*
X023903Y018903D03*
X023903Y018916D03*
X023903Y018922D03*
X023903Y018929D03*
X023903Y018935D03*
X023903Y018948D03*
X023903Y018955D03*
X023903Y018961D03*
X024072Y018838D03*
X024072Y018831D03*
X024072Y018825D03*
X024072Y018818D03*
X024072Y018805D03*
X024072Y018799D03*
X024072Y018792D03*
X024072Y018786D03*
X025366Y018870D03*
X025372Y018864D03*
X025392Y018831D03*
X025463Y018727D03*
X025489Y018688D03*
X025535Y018864D03*
X027127Y019338D03*
D16*
X026874Y019338D03*
X026874Y019345D03*
X026874Y019351D03*
X026874Y019358D03*
X027199Y020034D03*
X026945Y020287D03*
X026711Y020138D03*
X025541Y018870D03*
X025379Y018851D03*
X025476Y018708D03*
X025483Y018695D03*
X024209Y018753D03*
X024209Y018760D03*
X024209Y018766D03*
X024209Y018773D03*
X024209Y018786D03*
X024209Y018792D03*
X024209Y018799D03*
X024209Y018805D03*
X024209Y018818D03*
X024209Y018825D03*
X024209Y018831D03*
X024209Y018838D03*
X024209Y018851D03*
X024209Y018857D03*
X024209Y018864D03*
X024209Y018870D03*
X024209Y018916D03*
X024209Y018922D03*
X024209Y018929D03*
X024209Y018935D03*
X023461Y018857D03*
X023461Y018851D03*
X023468Y018799D03*
X023468Y018792D03*
X023468Y018786D03*
X023468Y018773D03*
X023468Y018766D03*
X023299Y018773D03*
X023299Y018786D03*
X023299Y018792D03*
X023299Y018799D03*
X023299Y018825D03*
X023299Y018831D03*
X023299Y018838D03*
X023299Y018851D03*
X023299Y018857D03*
X021323Y018799D03*
X021323Y018792D03*
X021323Y018786D03*
X021323Y018773D03*
X021323Y018766D03*
X021316Y018851D03*
X021316Y018857D03*
X021154Y018857D03*
X021154Y018851D03*
X021154Y018838D03*
X021154Y018831D03*
X021154Y018825D03*
X021154Y018799D03*
X021154Y018792D03*
X021154Y018786D03*
X021154Y018773D03*
X020634Y018688D03*
X020608Y018727D03*
X020536Y018831D03*
X020510Y018870D03*
D17*
X020533Y018838D03*
X020539Y018825D03*
X020546Y018818D03*
X020565Y018786D03*
X020598Y018740D03*
X020604Y018734D03*
X020611Y018721D03*
X020630Y018786D03*
X020637Y018799D03*
X020643Y018805D03*
X020663Y018838D03*
X020669Y018851D03*
X020676Y018857D03*
X021456Y018857D03*
X021456Y018851D03*
X021456Y018838D03*
X021456Y018831D03*
X021456Y018786D03*
X021456Y018773D03*
X021456Y018766D03*
X021618Y018766D03*
X021618Y018773D03*
X021618Y018786D03*
X021618Y018792D03*
X021618Y018799D03*
X021618Y018805D03*
X021618Y018831D03*
X021618Y018838D03*
X021618Y018851D03*
X021618Y018857D03*
X021735Y018857D03*
X021735Y018851D03*
X021735Y018838D03*
X022691Y018838D03*
X022691Y018831D03*
X022691Y018825D03*
X022691Y018818D03*
X022691Y018805D03*
X022691Y018799D03*
X022691Y018792D03*
X022691Y018786D03*
X022691Y018773D03*
X022691Y018766D03*
X022691Y018760D03*
X022691Y018753D03*
X022691Y018851D03*
X022691Y018857D03*
X023601Y018857D03*
X023601Y018851D03*
X023601Y018838D03*
X023601Y018831D03*
X023601Y018786D03*
X023601Y018773D03*
X023601Y018766D03*
X023763Y018766D03*
X023763Y018773D03*
X023763Y018786D03*
X023763Y018792D03*
X023763Y018799D03*
X023763Y018805D03*
X023763Y018831D03*
X023763Y018838D03*
X023763Y018851D03*
X023763Y018857D03*
X024634Y018851D03*
X024634Y018838D03*
X024634Y018831D03*
X024634Y018825D03*
X024634Y018818D03*
X024634Y018805D03*
X024634Y018799D03*
X024634Y018792D03*
X024634Y018786D03*
X024634Y018773D03*
X024634Y018766D03*
X024634Y018760D03*
X024634Y018753D03*
X024771Y018773D03*
X024771Y018786D03*
X024771Y018792D03*
X024771Y018799D03*
X024771Y018805D03*
X024771Y018818D03*
X024771Y018825D03*
X024771Y018831D03*
X024771Y018838D03*
X024771Y018851D03*
X024771Y018857D03*
X024771Y018864D03*
X024771Y018870D03*
X025245Y018857D03*
X025245Y018851D03*
X025245Y018838D03*
X025245Y018831D03*
X025245Y018825D03*
X025245Y018818D03*
X025245Y018805D03*
X025245Y018799D03*
X025245Y018792D03*
X025245Y018786D03*
X025245Y018773D03*
X025245Y018766D03*
X025375Y018857D03*
X025388Y018838D03*
X025408Y018805D03*
X025414Y018799D03*
X025421Y018786D03*
X025453Y018740D03*
X025479Y018701D03*
X025486Y018786D03*
X025505Y018818D03*
X025512Y018825D03*
X025512Y018831D03*
X025518Y018838D03*
X025993Y018838D03*
X025993Y018831D03*
X025993Y018825D03*
X025993Y018818D03*
X025993Y018805D03*
X025993Y018799D03*
X025993Y018792D03*
X025993Y018786D03*
X025993Y018773D03*
X025993Y018766D03*
X025993Y018760D03*
X025993Y018753D03*
X025993Y018851D03*
X026259Y018851D03*
X026259Y018838D03*
X026259Y018831D03*
X026259Y018825D03*
X026259Y018818D03*
X026259Y018805D03*
X026259Y018799D03*
X026259Y018792D03*
X026259Y018786D03*
X026259Y018773D03*
X026259Y018766D03*
X026259Y018760D03*
X026259Y018753D03*
X026396Y018773D03*
X026396Y018786D03*
X026396Y018792D03*
X026396Y018799D03*
X026396Y018805D03*
X026396Y018818D03*
X026396Y018825D03*
X026396Y018831D03*
X026396Y018838D03*
X026396Y018851D03*
X026396Y018857D03*
X026396Y018864D03*
X026396Y018870D03*
X026747Y018857D03*
X026747Y018851D03*
X026747Y018838D03*
X026747Y018831D03*
X026747Y018825D03*
X026747Y018818D03*
X026747Y018805D03*
X026747Y018799D03*
X026747Y018792D03*
X026747Y018786D03*
X026747Y018773D03*
X026747Y018766D03*
X026747Y018883D03*
X026747Y018890D03*
X026747Y018896D03*
X026747Y018903D03*
X026747Y018916D03*
X026747Y018922D03*
X027195Y020027D03*
X026948Y020281D03*
X026721Y020131D03*
D18*
X026727Y020125D03*
X027124Y019351D03*
X027124Y019345D03*
X026565Y018870D03*
X026565Y018864D03*
X026565Y018857D03*
X026565Y018851D03*
X026565Y018838D03*
X026565Y018831D03*
X026565Y018825D03*
X026565Y018818D03*
X026565Y018805D03*
X026565Y018799D03*
X026565Y018792D03*
X026565Y018786D03*
X026565Y018773D03*
X026565Y018766D03*
X026110Y018838D03*
X026110Y018851D03*
X026110Y018857D03*
X025824Y018857D03*
X025824Y018851D03*
X025824Y018838D03*
X025824Y018831D03*
X025824Y018825D03*
X025824Y018818D03*
X025824Y018805D03*
X025824Y018799D03*
X025824Y018792D03*
X025824Y018786D03*
X025824Y018773D03*
X025824Y018766D03*
X025824Y018760D03*
X025824Y018753D03*
X025531Y018857D03*
X025525Y018851D03*
X025499Y018805D03*
X025492Y018799D03*
X025460Y018734D03*
X025466Y018721D03*
X025401Y018818D03*
X025395Y018825D03*
X025076Y018825D03*
X025076Y018831D03*
X025076Y018838D03*
X025076Y018851D03*
X025076Y018857D03*
X025076Y018818D03*
X025076Y018805D03*
X025076Y018799D03*
X025076Y018792D03*
X025076Y018786D03*
X025076Y018773D03*
X025076Y018766D03*
X024940Y018766D03*
X024940Y018773D03*
X024940Y018786D03*
X024940Y018792D03*
X024940Y018799D03*
X024940Y018805D03*
X024940Y018818D03*
X024940Y018825D03*
X024940Y018831D03*
X024940Y018838D03*
X024940Y018851D03*
X024940Y018857D03*
X024940Y018864D03*
X024940Y018870D03*
X024485Y018857D03*
X024485Y018851D03*
X024485Y018838D03*
X024069Y018851D03*
X024069Y018773D03*
X022860Y018773D03*
X022860Y018766D03*
X022860Y018760D03*
X022860Y018753D03*
X022860Y018786D03*
X022860Y018792D03*
X022860Y018799D03*
X022860Y018805D03*
X022860Y018818D03*
X022860Y018825D03*
X022860Y018831D03*
X022860Y018838D03*
X022860Y018851D03*
X022535Y018851D03*
X022535Y018857D03*
X022535Y018838D03*
X022535Y018831D03*
X022535Y018825D03*
X022535Y018818D03*
X022535Y018805D03*
X022535Y018799D03*
X022535Y018792D03*
X022535Y018786D03*
X022535Y018773D03*
X022535Y018766D03*
X022535Y018883D03*
X022535Y018890D03*
X022535Y018896D03*
X022535Y018903D03*
X022535Y018916D03*
X022535Y018922D03*
X022346Y018857D03*
X022346Y018851D03*
X022346Y018838D03*
X022346Y018831D03*
X022346Y018825D03*
X022346Y018818D03*
X022346Y018805D03*
X022346Y018799D03*
X022346Y018792D03*
X022346Y018786D03*
X022346Y018773D03*
X022346Y018766D03*
X022177Y018766D03*
X022177Y018773D03*
X022177Y018786D03*
X022177Y018792D03*
X022177Y018799D03*
X022177Y018805D03*
X022177Y018818D03*
X022177Y018825D03*
X022177Y018831D03*
X022177Y018838D03*
X022177Y018851D03*
X022177Y018857D03*
X021885Y018851D03*
X021885Y018838D03*
X021885Y018831D03*
X021885Y018825D03*
X021885Y018818D03*
X021885Y018805D03*
X021885Y018799D03*
X021885Y018792D03*
X021885Y018786D03*
X021885Y018773D03*
X021885Y018766D03*
X021885Y018760D03*
X021885Y018753D03*
X020851Y018766D03*
X020851Y018773D03*
X020851Y018786D03*
X020851Y018792D03*
X020851Y018799D03*
X020851Y018805D03*
X020851Y018818D03*
X020851Y018825D03*
X020851Y018831D03*
X020851Y018838D03*
X020851Y018851D03*
X020851Y018857D03*
X020851Y018883D03*
X020851Y018890D03*
X020851Y018896D03*
X020851Y018903D03*
X020851Y018916D03*
X020851Y018922D03*
X020656Y018831D03*
X020656Y018825D03*
X020650Y018818D03*
X020559Y018799D03*
X020552Y018805D03*
X020520Y018857D03*
X020624Y018701D03*
D19*
X020643Y018812D03*
X020546Y018812D03*
X020507Y018877D03*
X021456Y018844D03*
X021456Y018779D03*
X021618Y018779D03*
X021618Y018844D03*
X021735Y018844D03*
X022691Y018844D03*
X022691Y018812D03*
X022691Y018779D03*
X022691Y018747D03*
X023601Y018779D03*
X023601Y018844D03*
X023763Y018844D03*
X023763Y018779D03*
X024634Y018779D03*
X024634Y018747D03*
X024634Y018812D03*
X024634Y018844D03*
X024634Y018877D03*
X024771Y018877D03*
X024771Y018844D03*
X024771Y018812D03*
X024771Y018779D03*
X024771Y018747D03*
X025245Y018779D03*
X025245Y018812D03*
X025245Y018844D03*
X025382Y018844D03*
X025473Y018714D03*
X025993Y018747D03*
X025993Y018779D03*
X025993Y018812D03*
X025993Y018844D03*
X025993Y018877D03*
X026259Y018877D03*
X026259Y018844D03*
X026259Y018812D03*
X026259Y018779D03*
X026259Y018747D03*
X026396Y018747D03*
X026396Y018779D03*
X026396Y018812D03*
X026396Y018844D03*
X026396Y018877D03*
X026747Y018909D03*
X026747Y018844D03*
X026747Y018812D03*
X026747Y018779D03*
D20*
X026565Y018779D03*
X026565Y018812D03*
X026565Y018844D03*
X026565Y018877D03*
X026110Y018844D03*
X025824Y018844D03*
X025824Y018812D03*
X025824Y018779D03*
X025824Y018747D03*
X025499Y018812D03*
X025401Y018812D03*
X025362Y018877D03*
X025076Y018844D03*
X025076Y018812D03*
X025076Y018779D03*
X024940Y018779D03*
X024940Y018812D03*
X024940Y018844D03*
X024940Y018877D03*
X024485Y018844D03*
X022860Y018844D03*
X022860Y018812D03*
X022860Y018779D03*
X022860Y018747D03*
X022860Y018877D03*
X022535Y018909D03*
X022535Y018844D03*
X022535Y018812D03*
X022535Y018779D03*
X022346Y018779D03*
X022346Y018812D03*
X022346Y018844D03*
X022177Y018844D03*
X022177Y018812D03*
X022177Y018779D03*
X021885Y018779D03*
X021885Y018747D03*
X021885Y018812D03*
X021885Y018844D03*
X021885Y018877D03*
X020851Y018909D03*
X020851Y018844D03*
X020851Y018812D03*
X020851Y018779D03*
X020617Y018714D03*
X020526Y018844D03*
X027644Y020177D03*
D21*
X027150Y019299D03*
X026701Y018747D03*
X026090Y019917D03*
X024212Y019494D03*
X023555Y019429D03*
X023555Y019397D03*
X023555Y019364D03*
X023555Y019332D03*
X023555Y019299D03*
X023555Y019267D03*
X023555Y019234D03*
X023555Y019202D03*
X023555Y019169D03*
X023139Y019202D03*
X023139Y019234D03*
X023139Y019267D03*
X023139Y019299D03*
X023139Y019332D03*
X023139Y019364D03*
X023139Y019397D03*
X023139Y019429D03*
X022489Y018747D03*
X021664Y019104D03*
X021644Y019137D03*
X021345Y019332D03*
X021358Y019364D03*
X021378Y019397D03*
X021326Y019299D03*
X020806Y018747D03*
D22*
X024907Y018747D03*
X026532Y018747D03*
X026883Y019299D03*
D23*
X025541Y018877D03*
X025450Y018747D03*
X024209Y018747D03*
X024209Y018779D03*
X024209Y018812D03*
X024209Y018844D03*
X024209Y018877D03*
X023468Y018779D03*
X023461Y018844D03*
X023299Y018844D03*
X023299Y018779D03*
X023299Y018747D03*
X021323Y018779D03*
X021316Y018844D03*
X021154Y018844D03*
X021154Y018779D03*
X021154Y018747D03*
X020666Y018844D03*
D24*
X022262Y018877D03*
X022262Y018747D03*
X025161Y018747D03*
X025161Y018877D03*
D25*
X024017Y018747D03*
X026877Y019332D03*
D26*
X027127Y019332D03*
X025522Y018844D03*
X024072Y018844D03*
X024072Y018812D03*
X024072Y018779D03*
X023903Y018779D03*
X023903Y018747D03*
X023903Y018812D03*
X023903Y018844D03*
X023903Y018909D03*
X023903Y018942D03*
X023000Y018877D03*
X023000Y018844D03*
X023000Y018812D03*
X023000Y018779D03*
X023000Y018747D03*
X021011Y018747D03*
X021011Y018779D03*
X021011Y018812D03*
X021011Y018844D03*
X021011Y018877D03*
X021011Y018909D03*
X021011Y018942D03*
X020686Y018877D03*
X020595Y018747D03*
D27*
X021537Y018747D03*
X021537Y018877D03*
X023682Y018877D03*
X023682Y018747D03*
X023962Y018877D03*
X024176Y019429D03*
D28*
X023435Y018747D03*
X021290Y018747D03*
D29*
X022428Y019403D03*
X022428Y019410D03*
X022428Y019416D03*
X022428Y019423D03*
X022428Y019436D03*
X022428Y019442D03*
X022428Y019449D03*
X022428Y019455D03*
X022428Y019468D03*
X022428Y019475D03*
X022428Y019481D03*
X022428Y019488D03*
X022428Y019501D03*
X022428Y019507D03*
X022428Y019514D03*
X025411Y019403D03*
X025411Y019390D03*
X025411Y019384D03*
X025411Y019377D03*
X025411Y019371D03*
X025411Y019358D03*
X025411Y019351D03*
X025411Y019345D03*
X025411Y019338D03*
X025411Y019325D03*
X025411Y019319D03*
X025411Y019312D03*
X025418Y019293D03*
X025418Y019286D03*
X025418Y019280D03*
X025418Y019423D03*
X025418Y019436D03*
X026549Y019403D03*
X026906Y019228D03*
X026906Y019221D03*
X026711Y018760D03*
X026711Y018753D03*
X027231Y020086D03*
D30*
X026851Y019384D03*
X026493Y019358D03*
X026480Y018760D03*
X026480Y018753D03*
X025908Y018864D03*
X025908Y018870D03*
X025505Y019189D03*
X025161Y018870D03*
X025161Y018864D03*
X025161Y018760D03*
X025161Y018753D03*
X024855Y018753D03*
X024855Y018760D03*
X024153Y019390D03*
X023880Y019215D03*
X022775Y018870D03*
X022775Y018864D03*
X022262Y018864D03*
X022262Y018870D03*
X022262Y018760D03*
X022262Y018753D03*
D31*
X020598Y018753D03*
X024062Y018766D03*
X024062Y018857D03*
X025453Y018753D03*
D32*
X026185Y018864D03*
X026185Y018870D03*
X026607Y020203D03*
X026932Y020411D03*
X027264Y020196D03*
X027264Y020190D03*
X024560Y018870D03*
X024560Y018864D03*
X023975Y018870D03*
X023975Y018753D03*
X023871Y019195D03*
X024163Y019410D03*
X023370Y018818D03*
X021810Y018864D03*
X021810Y018870D03*
X021225Y018818D03*
X020959Y019312D03*
X020959Y019319D03*
X020959Y019325D03*
D33*
X020952Y019306D03*
X021238Y018870D03*
X021537Y018870D03*
X021537Y018864D03*
X021537Y018825D03*
X021537Y018818D03*
X021537Y018760D03*
X021537Y018753D03*
X023383Y018870D03*
X023682Y018870D03*
X023682Y018864D03*
X023682Y018825D03*
X023682Y018818D03*
X023682Y018760D03*
X023682Y018753D03*
X023877Y019208D03*
X026464Y018981D03*
X026828Y020008D03*
D34*
X023380Y018864D03*
X023380Y018753D03*
X021235Y018753D03*
X021235Y018864D03*
X020949Y019338D03*
D35*
X020816Y018760D03*
X020816Y018753D03*
X022499Y018753D03*
X022499Y018760D03*
X023832Y019124D03*
X024202Y019475D03*
X025424Y019449D03*
X025424Y019442D03*
X027179Y018799D03*
D36*
X025453Y018760D03*
X024225Y019514D03*
X023809Y019085D03*
X023913Y018766D03*
X020598Y018760D03*
D37*
X023981Y018760D03*
X023981Y018864D03*
X027205Y019241D03*
X027264Y020222D03*
X027264Y020229D03*
X027264Y020235D03*
X027686Y020105D03*
D38*
X023383Y018805D03*
X023383Y018760D03*
X021238Y018760D03*
X021238Y018805D03*
X020946Y019293D03*
X020946Y019345D03*
D39*
X021375Y019390D03*
X021381Y019403D03*
X021388Y019416D03*
X021394Y019436D03*
X021544Y019338D03*
X021550Y019325D03*
X021557Y019312D03*
X021570Y019286D03*
X021570Y019280D03*
X021576Y019273D03*
X021583Y019260D03*
X021635Y019156D03*
X021641Y019143D03*
X021654Y019124D03*
X021667Y019098D03*
X021674Y019085D03*
X022187Y019176D03*
X022187Y019182D03*
X022187Y019189D03*
X022187Y019195D03*
X022187Y019208D03*
X022187Y019215D03*
X022187Y019221D03*
X022187Y019228D03*
X022187Y019241D03*
X022187Y019247D03*
X022187Y019254D03*
X022187Y019260D03*
X022187Y019273D03*
X022187Y019358D03*
X022187Y019371D03*
X022187Y019377D03*
X022187Y019384D03*
X022187Y019390D03*
X022187Y019403D03*
X022187Y019410D03*
X022187Y019416D03*
X022187Y019423D03*
X022187Y019436D03*
X022187Y019442D03*
X022837Y018857D03*
X023143Y019436D03*
X024215Y019501D03*
X024761Y019501D03*
X024761Y019507D03*
X024761Y019514D03*
X024761Y019520D03*
X024761Y019488D03*
X024761Y019481D03*
X024761Y019475D03*
X024761Y019468D03*
X024761Y019455D03*
X024761Y019449D03*
X024761Y019442D03*
X024761Y019436D03*
X024761Y019423D03*
X024761Y019416D03*
X024761Y019410D03*
X024761Y019403D03*
X024761Y019390D03*
X024761Y019384D03*
X024761Y019377D03*
X024761Y019371D03*
X024761Y019358D03*
X024761Y019351D03*
X024761Y019345D03*
X024761Y019338D03*
X024761Y019325D03*
X024761Y019319D03*
X024761Y019312D03*
X024761Y019306D03*
X024761Y019293D03*
X024761Y019286D03*
X024761Y019280D03*
X024761Y019273D03*
X024761Y019260D03*
X024761Y019254D03*
X024761Y019247D03*
X024761Y019241D03*
X024761Y019228D03*
X024761Y019221D03*
X024761Y019215D03*
X024761Y019208D03*
X024761Y019195D03*
X024761Y019189D03*
X024761Y019182D03*
X024761Y019176D03*
X025132Y019176D03*
X025132Y019182D03*
X025132Y019189D03*
X025132Y019195D03*
X025132Y019208D03*
X025132Y019215D03*
X025132Y019221D03*
X025132Y019228D03*
X025132Y019241D03*
X025132Y019247D03*
X025132Y019254D03*
X025132Y019260D03*
X025132Y019273D03*
X025132Y019280D03*
X025132Y019286D03*
X025132Y019293D03*
X025132Y019306D03*
X025132Y019312D03*
X025132Y019319D03*
X025132Y019325D03*
X025132Y019338D03*
X025132Y019345D03*
X025132Y019351D03*
X025132Y019358D03*
X025132Y019371D03*
X025132Y019377D03*
X025132Y019384D03*
X025132Y019390D03*
X025132Y019403D03*
X025132Y019410D03*
X025132Y019416D03*
X025132Y019423D03*
X025132Y019436D03*
X025132Y019442D03*
X025132Y019449D03*
X025132Y019455D03*
X025132Y019468D03*
X025132Y019475D03*
X025132Y019481D03*
X025132Y019488D03*
X025132Y019501D03*
X025132Y019507D03*
X025132Y019514D03*
X025132Y019520D03*
X024794Y018766D03*
X025970Y018857D03*
X026419Y018766D03*
X026562Y019423D03*
X027147Y019306D03*
X027433Y019865D03*
X027660Y020164D03*
X026932Y020333D03*
X026932Y020346D03*
X020666Y019702D03*
X020666Y019696D03*
D40*
X021869Y018857D03*
X025450Y018766D03*
X026939Y020320D03*
X027140Y019319D03*
D41*
X026890Y019286D03*
X026890Y019280D03*
X026831Y020027D03*
X023315Y018766D03*
X021560Y019306D03*
X021534Y019351D03*
X021534Y019358D03*
X021527Y019371D03*
X021501Y019416D03*
X021501Y019423D03*
X021495Y019436D03*
X021170Y018766D03*
D42*
X020595Y018766D03*
X023812Y019091D03*
X024222Y019507D03*
X024618Y018857D03*
X026087Y019910D03*
X026575Y019436D03*
X026887Y019293D03*
X026243Y018857D03*
X026692Y020151D03*
X027212Y020053D03*
D43*
X027192Y020021D03*
X026965Y020645D03*
X025489Y018792D03*
X025476Y018773D03*
X025418Y018792D03*
X020634Y018792D03*
X020575Y018773D03*
X020562Y018792D03*
D44*
X020621Y018773D03*
X020556Y019650D03*
X020588Y019676D03*
X025431Y018773D03*
X027121Y019358D03*
D45*
X027628Y019364D03*
X025483Y018779D03*
X025424Y018779D03*
X020627Y018779D03*
X020569Y018779D03*
D46*
X020793Y019423D03*
X020760Y019449D03*
X020715Y019481D03*
X020708Y019488D03*
X020689Y019501D03*
X020682Y019507D03*
X020676Y019514D03*
X020663Y019520D03*
X021443Y019481D03*
X021443Y019475D03*
X023841Y019143D03*
X024043Y019325D03*
X024095Y019371D03*
X024101Y019377D03*
X026643Y020183D03*
X026929Y020378D03*
X027241Y020105D03*
X027182Y018805D03*
D47*
X027186Y018812D03*
D48*
X026597Y020209D03*
X023874Y019202D03*
X023685Y018812D03*
X021540Y018812D03*
D49*
X021235Y018812D03*
X020949Y019299D03*
X023380Y018812D03*
X026370Y020404D03*
D50*
X026237Y020203D03*
X027023Y019618D03*
X027179Y018818D03*
D51*
X027182Y018825D03*
X027254Y019195D03*
X027800Y019780D03*
X027696Y020034D03*
X026233Y020138D03*
X026233Y019540D03*
D52*
X026337Y019676D03*
X026240Y020118D03*
X027774Y019865D03*
X027182Y018831D03*
D53*
X027182Y018838D03*
X026246Y020099D03*
X023347Y019520D03*
X023347Y019085D03*
D54*
X026818Y019949D03*
X027189Y018844D03*
D55*
X027192Y018851D03*
X027290Y019176D03*
X026848Y019436D03*
X026432Y019033D03*
X027758Y019728D03*
X026971Y020593D03*
X021440Y019221D03*
D56*
X024946Y019111D03*
X025720Y019598D03*
X027189Y018857D03*
D57*
X027192Y018864D03*
X027602Y019455D03*
X027725Y019696D03*
X026822Y019910D03*
X026614Y019761D03*
X026276Y020034D03*
X026386Y020313D03*
X026393Y019078D03*
X026406Y019065D03*
X025710Y019111D03*
X021440Y019182D03*
D58*
X021443Y019455D03*
X020838Y018870D03*
X020838Y018864D03*
X022522Y018864D03*
X022522Y018870D03*
X024179Y019436D03*
X025473Y019514D03*
X026526Y019377D03*
X026734Y018870D03*
X026734Y018864D03*
X027182Y019260D03*
X027247Y020138D03*
X026929Y020391D03*
X027676Y020131D03*
D59*
X026822Y019904D03*
X026282Y020021D03*
X027192Y018870D03*
X022662Y019611D03*
D60*
X026825Y019884D03*
X027195Y018877D03*
D61*
X026929Y019169D03*
X026734Y018877D03*
X025473Y019202D03*
X023854Y019169D03*
X022522Y018877D03*
X020838Y018877D03*
D62*
X021761Y018877D03*
X024511Y018877D03*
X026136Y018877D03*
D63*
X025853Y018877D03*
X026874Y019364D03*
X027205Y020047D03*
X026939Y020307D03*
X026705Y020144D03*
X022720Y018877D03*
D64*
X023380Y018877D03*
X021235Y018877D03*
X026825Y020014D03*
D65*
X026838Y019475D03*
X026357Y019143D03*
X027195Y018883D03*
X027696Y019676D03*
X022645Y019319D03*
D66*
X022636Y019351D03*
X022636Y019358D03*
X022636Y019371D03*
X022636Y019377D03*
X022636Y019533D03*
X022636Y019540D03*
X022636Y019546D03*
X022636Y019553D03*
X025678Y019546D03*
X025678Y019163D03*
X026347Y019176D03*
X026347Y019182D03*
X026822Y019455D03*
X026828Y019858D03*
X026828Y019865D03*
X027082Y020430D03*
X027075Y020443D03*
X027069Y020450D03*
X027062Y020456D03*
X027056Y020463D03*
X027049Y020482D03*
X027023Y020515D03*
X027017Y020521D03*
X027010Y020528D03*
X027680Y019897D03*
X027680Y019891D03*
X027686Y019670D03*
X027199Y018890D03*
D67*
X027195Y018896D03*
X026818Y019449D03*
X026805Y019442D03*
X026513Y019728D03*
X026337Y019228D03*
X026337Y019221D03*
X026337Y019215D03*
X026350Y019195D03*
X026350Y019189D03*
X027052Y020476D03*
X027046Y020489D03*
X027026Y020508D03*
D68*
X026386Y020261D03*
X025671Y019533D03*
X025671Y019176D03*
X027199Y018903D03*
X027595Y019501D03*
D69*
X027199Y018909D03*
X026328Y019299D03*
D70*
X026490Y019709D03*
X027342Y019156D03*
X027199Y018916D03*
X027595Y019514D03*
D71*
X027202Y018922D03*
D72*
X027205Y018929D03*
X026841Y019780D03*
D73*
X026848Y019572D03*
X027205Y018935D03*
X027595Y019540D03*
D74*
X027205Y018942D03*
D75*
X027205Y018948D03*
X027595Y019553D03*
D76*
X027592Y019566D03*
X027208Y018955D03*
D77*
X027205Y018961D03*
D78*
X027208Y018968D03*
X027592Y019572D03*
D79*
X027709Y019377D03*
X026955Y020235D03*
X027020Y020645D03*
X026428Y018968D03*
D80*
X027208Y018974D03*
D81*
X026458Y018974D03*
X025132Y019169D03*
X025132Y019202D03*
X025132Y019234D03*
X025132Y019267D03*
X025132Y019299D03*
X025132Y019332D03*
X025132Y019364D03*
X025132Y019397D03*
X025132Y019429D03*
X025132Y019462D03*
X025132Y019494D03*
X024761Y019494D03*
X024761Y019462D03*
X024761Y019429D03*
X024761Y019397D03*
X024761Y019364D03*
X024761Y019332D03*
X024761Y019299D03*
X024761Y019267D03*
X024761Y019234D03*
X024761Y019202D03*
X024761Y019169D03*
X023819Y019104D03*
X023143Y019169D03*
X022187Y019169D03*
X022187Y019202D03*
X022187Y019234D03*
X022187Y019267D03*
X022187Y019364D03*
X022187Y019397D03*
X022187Y019429D03*
X021576Y019267D03*
X021394Y019429D03*
X026932Y020339D03*
D82*
X027589Y019585D03*
X027212Y018981D03*
D83*
X027212Y018987D03*
X027212Y018994D03*
D84*
X027101Y019390D03*
X027628Y019358D03*
X026614Y018987D03*
X020666Y019631D03*
X020666Y019637D03*
X020666Y019644D03*
X020666Y019650D03*
X020666Y019663D03*
X020666Y019670D03*
X020666Y019676D03*
X020666Y019683D03*
X020601Y019670D03*
X020601Y019663D03*
X020601Y019650D03*
X020601Y019644D03*
X020601Y019637D03*
X020601Y019631D03*
X020575Y019670D03*
X020536Y019670D03*
X020536Y019663D03*
X020510Y019663D03*
X020510Y019670D03*
X020510Y019650D03*
X020510Y019644D03*
X020510Y019637D03*
X020510Y019631D03*
D85*
X026461Y018987D03*
X026818Y019995D03*
D86*
X026822Y019975D03*
X026224Y019520D03*
X026224Y019514D03*
X026471Y018994D03*
X027608Y019410D03*
X027803Y019793D03*
D87*
X027215Y019000D03*
D88*
X026471Y019000D03*
X026373Y020365D03*
D89*
X027212Y019007D03*
D90*
X026467Y019007D03*
X026285Y019624D03*
D91*
X027215Y019020D03*
X027215Y019013D03*
D92*
X026451Y019013D03*
D93*
X026445Y019020D03*
X025743Y019091D03*
D94*
X027215Y019033D03*
X027215Y019026D03*
D95*
X027605Y019436D03*
X026435Y019026D03*
X024946Y019098D03*
D96*
X027218Y019039D03*
D97*
X026425Y019039D03*
D98*
X027218Y019046D03*
D99*
X026822Y019923D03*
X026263Y020060D03*
X026419Y019046D03*
X027693Y019962D03*
X021440Y019208D03*
D100*
X027218Y019052D03*
D101*
X027602Y019449D03*
X027732Y019702D03*
X026412Y019052D03*
X024943Y019117D03*
X022675Y019293D03*
X022675Y019618D03*
X021440Y019195D03*
D102*
X027221Y019059D03*
D103*
X026409Y019059D03*
X026253Y019975D03*
X026272Y020040D03*
X024946Y019130D03*
X024946Y019124D03*
X023347Y019098D03*
X023347Y019507D03*
X021443Y019189D03*
D104*
X027225Y019065D03*
D105*
X027225Y019072D03*
D106*
X026399Y019072D03*
X025710Y019592D03*
X026269Y019982D03*
X024943Y019137D03*
D107*
X027228Y019085D03*
X027228Y019078D03*
D108*
X026389Y019085D03*
X027689Y019936D03*
X027689Y019943D03*
D109*
X025769Y019085D03*
D110*
X026207Y019488D03*
X026220Y019507D03*
X024946Y019085D03*
X027696Y020040D03*
X027806Y019813D03*
X027806Y019806D03*
X027806Y019800D03*
D111*
X027218Y020060D03*
X026893Y019273D03*
X024488Y019273D03*
X024488Y019280D03*
X024488Y019286D03*
X024488Y019293D03*
X024488Y019306D03*
X024488Y019312D03*
X024488Y019319D03*
X024488Y019325D03*
X024488Y019338D03*
X024488Y019345D03*
X024488Y019351D03*
X024488Y019358D03*
X024488Y019371D03*
X024488Y019377D03*
X024488Y019384D03*
X024488Y019390D03*
X024488Y019403D03*
X024488Y019410D03*
X024488Y019416D03*
X024488Y019423D03*
X024488Y019436D03*
X024488Y019442D03*
X024488Y019449D03*
X024488Y019455D03*
X024488Y019468D03*
X024488Y019475D03*
X024488Y019481D03*
X024488Y019488D03*
X024488Y019501D03*
X024488Y019507D03*
X024488Y019514D03*
X024488Y019520D03*
X024488Y019260D03*
X024488Y019254D03*
X024488Y019247D03*
X024488Y019241D03*
X024488Y019228D03*
X024488Y019221D03*
X024488Y019215D03*
X024488Y019208D03*
X024488Y019195D03*
X024488Y019189D03*
X024488Y019182D03*
X024488Y019176D03*
X024488Y019163D03*
X024488Y019156D03*
X024488Y019150D03*
X024488Y019143D03*
X024488Y019130D03*
X024488Y019124D03*
X024488Y019117D03*
X024488Y019111D03*
X024488Y019098D03*
X024488Y019091D03*
X024488Y019085D03*
X021661Y019111D03*
X021563Y019293D03*
X021011Y019273D03*
X021011Y019260D03*
X021011Y019254D03*
X021011Y019247D03*
X021011Y019241D03*
X021011Y019228D03*
X021011Y019221D03*
X021011Y019215D03*
X021011Y019208D03*
X021011Y019195D03*
X021011Y019189D03*
X021011Y019182D03*
X021011Y019176D03*
X021011Y019163D03*
X021011Y019156D03*
X021011Y019150D03*
X021011Y019143D03*
X021011Y019130D03*
X021011Y019124D03*
X021011Y019117D03*
X021011Y019111D03*
X021011Y019098D03*
X021011Y019091D03*
X021011Y019085D03*
X021011Y019351D03*
X021011Y019358D03*
X021011Y019371D03*
X021011Y019377D03*
X021011Y019384D03*
X021011Y019390D03*
X021011Y019403D03*
X021011Y019410D03*
X021011Y019416D03*
X021011Y019423D03*
X021011Y019436D03*
X021011Y019442D03*
X021011Y019449D03*
X021011Y019455D03*
X021011Y019468D03*
X021011Y019475D03*
X021011Y019481D03*
X021011Y019488D03*
X021011Y019501D03*
X021011Y019507D03*
X021011Y019514D03*
X021011Y019520D03*
D112*
X021508Y019410D03*
X021508Y019403D03*
X021514Y019390D03*
X021521Y019384D03*
X021521Y019377D03*
X021540Y019345D03*
X021553Y019319D03*
X023815Y019319D03*
X023815Y019325D03*
X023815Y019312D03*
X023815Y019306D03*
X023815Y019293D03*
X023815Y019286D03*
X023815Y019280D03*
X023815Y019273D03*
X023815Y019260D03*
X023815Y019254D03*
X023815Y019247D03*
X023815Y019241D03*
X023815Y019338D03*
X023815Y019345D03*
X023815Y019351D03*
X023815Y019358D03*
X023815Y019371D03*
X023815Y019377D03*
X023815Y019384D03*
X023815Y019390D03*
X023815Y019403D03*
X023815Y019410D03*
X023815Y019416D03*
X023815Y019423D03*
X023815Y019436D03*
X023815Y019442D03*
X023815Y019449D03*
X023815Y019455D03*
X023815Y019468D03*
X023815Y019475D03*
X023815Y019481D03*
X023815Y019488D03*
X023815Y019501D03*
X023815Y019507D03*
X023815Y019514D03*
X023815Y019520D03*
X023815Y019098D03*
X024218Y019098D03*
X024218Y019091D03*
X024218Y019085D03*
X024218Y019111D03*
X024218Y019117D03*
X024218Y019124D03*
X024218Y019130D03*
X024218Y019143D03*
X024218Y019150D03*
X024218Y019156D03*
X024218Y019163D03*
X024218Y019176D03*
X024218Y019182D03*
X024218Y019189D03*
X024218Y019195D03*
X024218Y019208D03*
X024218Y019215D03*
X024218Y019221D03*
X024218Y019228D03*
X024218Y019241D03*
X024218Y019247D03*
X024218Y019254D03*
X024218Y019260D03*
X024218Y019273D03*
X024218Y019280D03*
X024218Y019286D03*
X024218Y019293D03*
X024218Y019306D03*
X024218Y019312D03*
X024218Y019319D03*
X024218Y019325D03*
X024218Y019338D03*
X024218Y019345D03*
X024218Y019351D03*
X024218Y019358D03*
X024218Y019371D03*
X024218Y019377D03*
X026935Y020326D03*
X027143Y019312D03*
D113*
X026552Y019410D03*
X025414Y019410D03*
X025414Y019416D03*
X025414Y019306D03*
X024205Y019481D03*
X022840Y019481D03*
X022840Y019475D03*
X022840Y019468D03*
X022840Y019455D03*
X022840Y019449D03*
X022840Y019442D03*
X022840Y019436D03*
X022840Y019423D03*
X022840Y019416D03*
X022840Y019410D03*
X022840Y019403D03*
X022840Y019390D03*
X022840Y019384D03*
X022840Y019286D03*
X022840Y019280D03*
X022840Y019273D03*
X022840Y019260D03*
X022840Y019254D03*
X022840Y019247D03*
X022840Y019241D03*
X022840Y019228D03*
X022840Y019221D03*
X022840Y019215D03*
X022840Y019208D03*
X022840Y019195D03*
X022840Y019189D03*
X022840Y019182D03*
X022840Y019176D03*
X022840Y019163D03*
X022840Y019156D03*
X022840Y019150D03*
X022840Y019143D03*
X022840Y019130D03*
X022840Y019124D03*
X022840Y019117D03*
X022840Y019111D03*
X022840Y019098D03*
X022840Y019091D03*
X022840Y019085D03*
X022840Y019488D03*
X022840Y019501D03*
X022840Y019507D03*
X022840Y019514D03*
X022840Y019520D03*
X021443Y019507D03*
X021443Y019501D03*
X021228Y019111D03*
X027663Y020151D03*
D114*
X027696Y019975D03*
X027696Y019969D03*
X027748Y019715D03*
X027605Y019442D03*
X026818Y019930D03*
X026383Y020326D03*
X025726Y019605D03*
X025726Y019098D03*
X023347Y019091D03*
X023347Y019514D03*
X022021Y019514D03*
X022021Y019520D03*
X022021Y019507D03*
X022021Y019501D03*
X022021Y019488D03*
X022021Y019481D03*
X022021Y019475D03*
X022021Y019468D03*
X022021Y019455D03*
X022021Y019449D03*
X022021Y019163D03*
X022021Y019156D03*
X022021Y019150D03*
X022021Y019143D03*
X022021Y019130D03*
X022021Y019124D03*
X022021Y019117D03*
X022021Y019111D03*
X022021Y019098D03*
X022021Y019091D03*
X022021Y019085D03*
X021443Y019215D03*
D115*
X021316Y019280D03*
X021323Y019293D03*
X021329Y019306D03*
X021258Y019163D03*
X021251Y019156D03*
X021251Y019150D03*
X021245Y019143D03*
X021232Y019117D03*
X021219Y019098D03*
X021219Y019091D03*
X021212Y019085D03*
X023825Y019117D03*
X024209Y019488D03*
X026672Y020164D03*
X027225Y020073D03*
X027660Y020157D03*
X026900Y019247D03*
X026900Y019241D03*
D116*
X027618Y019377D03*
X024186Y019449D03*
X023848Y019156D03*
X021443Y019468D03*
X020838Y019241D03*
X020806Y019215D03*
X020773Y019189D03*
X020741Y019163D03*
X020676Y019111D03*
X020643Y019085D03*
D117*
X027225Y019091D03*
X027225Y019098D03*
D118*
X026386Y019091D03*
X025704Y019117D03*
X025704Y019585D03*
D119*
X026253Y020086D03*
X026376Y020346D03*
X026851Y019423D03*
X027696Y019995D03*
X024946Y019091D03*
X021443Y019247D03*
D120*
X021339Y019319D03*
X021339Y019325D03*
X021332Y019312D03*
X021319Y019286D03*
X021313Y019273D03*
X021306Y019260D03*
X021345Y019338D03*
X021352Y019345D03*
X021352Y019351D03*
X021358Y019358D03*
X021365Y019371D03*
X021365Y019377D03*
X021371Y019384D03*
X021384Y019410D03*
X021391Y019423D03*
X021443Y019514D03*
X021443Y019520D03*
X021631Y019163D03*
X021638Y019150D03*
X021651Y019130D03*
X021657Y019117D03*
X021670Y019091D03*
X023139Y019176D03*
X023139Y019182D03*
X023139Y019189D03*
X023139Y019195D03*
X023139Y019208D03*
X023139Y019215D03*
X023139Y019221D03*
X023139Y019228D03*
X023139Y019241D03*
X023139Y019247D03*
X023139Y019254D03*
X023139Y019260D03*
X023139Y019273D03*
X023139Y019280D03*
X023139Y019286D03*
X023139Y019293D03*
X023139Y019306D03*
X023139Y019312D03*
X023139Y019319D03*
X023139Y019325D03*
X023139Y019338D03*
X023139Y019345D03*
X023139Y019351D03*
X023139Y019358D03*
X023139Y019371D03*
X023139Y019377D03*
X023139Y019384D03*
X023139Y019390D03*
X023139Y019403D03*
X023139Y019410D03*
X023139Y019416D03*
X023139Y019423D03*
X023555Y019423D03*
X023555Y019416D03*
X023555Y019410D03*
X023555Y019403D03*
X023555Y019390D03*
X023555Y019384D03*
X023555Y019377D03*
X023555Y019371D03*
X023555Y019358D03*
X023555Y019351D03*
X023555Y019345D03*
X023555Y019338D03*
X023555Y019325D03*
X023555Y019319D03*
X023555Y019312D03*
X023555Y019306D03*
X023555Y019293D03*
X023555Y019286D03*
X023555Y019280D03*
X023555Y019273D03*
X023555Y019260D03*
X023555Y019254D03*
X023555Y019247D03*
X023555Y019241D03*
X023555Y019228D03*
X023555Y019221D03*
X023555Y019215D03*
X023555Y019208D03*
X023555Y019195D03*
X023555Y019189D03*
X023555Y019182D03*
X023555Y019176D03*
X023555Y019436D03*
X023822Y019111D03*
X026558Y019416D03*
X026870Y019371D03*
X026896Y019260D03*
X026896Y019254D03*
X027221Y020066D03*
X026682Y020157D03*
X026987Y020638D03*
D121*
X026929Y020385D03*
X027247Y020131D03*
X027670Y020138D03*
X026922Y019182D03*
X026532Y019384D03*
X025466Y019507D03*
X020780Y019195D03*
X020715Y019143D03*
X020689Y019124D03*
X020682Y019117D03*
X020656Y019098D03*
X020650Y019091D03*
D122*
X026383Y019098D03*
X027689Y019923D03*
X027689Y019930D03*
X026968Y020586D03*
D123*
X027225Y019104D03*
D124*
X027712Y019689D03*
X026380Y019104D03*
D125*
X025717Y019104D03*
X026269Y020047D03*
X026822Y019917D03*
D126*
X024946Y019104D03*
X022021Y019104D03*
X022021Y019137D03*
X022021Y019462D03*
X022021Y019494D03*
D127*
X021563Y019299D03*
X021628Y019169D03*
X021011Y019169D03*
X021011Y019137D03*
X021011Y019104D03*
X021011Y019202D03*
X021011Y019234D03*
X021011Y019267D03*
X021011Y019364D03*
X021011Y019397D03*
X021011Y019429D03*
X021011Y019462D03*
X021011Y019494D03*
X024488Y019494D03*
X024488Y019462D03*
X024488Y019429D03*
X024488Y019397D03*
X024488Y019364D03*
X024488Y019332D03*
X024488Y019299D03*
X024488Y019267D03*
X024488Y019234D03*
X024488Y019202D03*
X024488Y019169D03*
X024488Y019137D03*
X024488Y019104D03*
X026893Y019267D03*
D128*
X024218Y019267D03*
X024218Y019299D03*
X024218Y019332D03*
X024218Y019364D03*
X024218Y019234D03*
X024218Y019202D03*
X024218Y019169D03*
X024218Y019137D03*
X024218Y019104D03*
X023815Y019234D03*
X023815Y019267D03*
X023815Y019299D03*
X023815Y019332D03*
X023815Y019364D03*
X023815Y019397D03*
X023815Y019429D03*
X023815Y019462D03*
X023815Y019494D03*
X021547Y019332D03*
X021514Y019397D03*
D129*
X022662Y019299D03*
X023351Y019104D03*
X027602Y019462D03*
D130*
X027228Y020079D03*
X026903Y019234D03*
X025414Y019299D03*
X022840Y019267D03*
X022840Y019234D03*
X022840Y019202D03*
X022840Y019169D03*
X022840Y019137D03*
X022840Y019104D03*
X022840Y019397D03*
X022840Y019429D03*
X022840Y019462D03*
X022840Y019494D03*
X022840Y019527D03*
X021261Y019169D03*
D131*
X021225Y019104D03*
X021310Y019267D03*
D132*
X020829Y019234D03*
X020666Y019104D03*
X024014Y019299D03*
X024053Y019332D03*
X024085Y019364D03*
D133*
X027225Y019111D03*
D134*
X026376Y019111D03*
X026376Y019117D03*
X026370Y019124D03*
X025694Y019130D03*
X025694Y019572D03*
X026383Y020294D03*
X023347Y019488D03*
X023347Y019481D03*
X023347Y019124D03*
X023347Y019117D03*
D135*
X023347Y019111D03*
X026825Y019897D03*
D136*
X027228Y019124D03*
X027228Y019117D03*
D137*
X027602Y019468D03*
X026822Y019891D03*
X026555Y019748D03*
X026289Y020008D03*
X026386Y020300D03*
X026965Y020580D03*
X025697Y019579D03*
X025697Y019124D03*
X022655Y019306D03*
X022655Y019605D03*
D138*
X021235Y019124D03*
X025882Y019189D03*
X025882Y019195D03*
X025882Y019208D03*
X025882Y019215D03*
X025882Y019221D03*
X025882Y019228D03*
X025882Y019241D03*
X025882Y019247D03*
X025882Y019254D03*
X025882Y019260D03*
X025882Y019273D03*
X025882Y019280D03*
X025882Y019286D03*
X025882Y019293D03*
X025882Y019306D03*
X025882Y019312D03*
X025882Y019319D03*
X025882Y019325D03*
X025882Y019338D03*
X025882Y019345D03*
X025882Y019351D03*
X025882Y019358D03*
X025882Y019371D03*
X025882Y019377D03*
X025882Y019384D03*
X025882Y019390D03*
X025882Y019403D03*
X025882Y019410D03*
X025882Y019416D03*
X025882Y019423D03*
X025882Y019436D03*
X025882Y019442D03*
X025882Y019449D03*
X025882Y019455D03*
X025882Y019468D03*
X025882Y019475D03*
X025882Y019481D03*
X025882Y019488D03*
X025882Y019501D03*
X025882Y019507D03*
X025882Y019514D03*
X025882Y019520D03*
X026662Y020170D03*
X026929Y020352D03*
X026929Y020359D03*
X027156Y019286D03*
D139*
X027231Y019150D03*
X027231Y019143D03*
X027231Y019130D03*
D140*
X027602Y019475D03*
X026542Y019741D03*
X026295Y020001D03*
X026386Y020287D03*
X026367Y019130D03*
X022649Y019312D03*
X022649Y019598D03*
D141*
X022431Y019520D03*
X022431Y019390D03*
X021443Y019488D03*
X023835Y019130D03*
X024199Y019468D03*
X025427Y019455D03*
X025434Y019468D03*
X025421Y019273D03*
X025427Y019260D03*
X025427Y019254D03*
X025434Y019247D03*
X026370Y020424D03*
X026929Y020365D03*
X027618Y019371D03*
D142*
X026825Y019878D03*
X025687Y019143D03*
X023347Y019143D03*
X023347Y019150D03*
X023347Y019156D03*
X023347Y019130D03*
X023347Y019449D03*
X023347Y019455D03*
X023347Y019468D03*
D143*
X021238Y019130D03*
X027153Y019293D03*
D144*
X027173Y019273D03*
X026100Y019930D03*
X025450Y019221D03*
X024079Y019358D03*
X024020Y019306D03*
X023981Y019273D03*
X023955Y019247D03*
X023949Y019241D03*
X020861Y019260D03*
X020796Y019208D03*
X020764Y019182D03*
X020731Y019156D03*
X020699Y019130D03*
D145*
X027231Y019137D03*
D146*
X027686Y019917D03*
X026360Y019137D03*
D147*
X025691Y019137D03*
D148*
X025437Y019234D03*
X026542Y019397D03*
X024196Y019462D03*
X023838Y019137D03*
X022441Y019527D03*
X020829Y019397D03*
X020783Y019429D03*
D149*
X023347Y019462D03*
X023347Y019137D03*
D150*
X021241Y019137D03*
X025882Y019202D03*
X025882Y019234D03*
X025882Y019267D03*
X025882Y019299D03*
X025882Y019332D03*
X025882Y019364D03*
X025882Y019397D03*
X025882Y019429D03*
X025882Y019462D03*
X025882Y019494D03*
D151*
X027176Y019267D03*
X020708Y019137D03*
D152*
X021443Y019176D03*
X023347Y019501D03*
X024946Y019163D03*
X024946Y019156D03*
X024946Y019150D03*
X024946Y019143D03*
X026279Y020027D03*
D153*
X026841Y019481D03*
X026354Y019163D03*
X026354Y019156D03*
X026354Y019150D03*
X026971Y020573D03*
D154*
X026984Y020560D03*
X026302Y019995D03*
X026828Y019871D03*
X026835Y019468D03*
X027602Y019481D03*
X027680Y019910D03*
X025684Y019150D03*
X023351Y019163D03*
X023351Y019442D03*
X022642Y019325D03*
X022642Y019585D03*
D155*
X023845Y019150D03*
X023962Y019254D03*
X023968Y019260D03*
X023994Y019280D03*
X024001Y019286D03*
X024007Y019293D03*
X024027Y019312D03*
X024033Y019319D03*
X024059Y019338D03*
X024066Y019345D03*
X024072Y019351D03*
X024189Y019455D03*
X025457Y019501D03*
X025457Y019215D03*
X026536Y019390D03*
X026919Y019195D03*
X026919Y019189D03*
X027244Y020118D03*
X027244Y020125D03*
X026633Y020190D03*
X020881Y019273D03*
X020855Y019254D03*
X020848Y019247D03*
X020822Y019228D03*
X020816Y019221D03*
X020757Y019176D03*
X020725Y019150D03*
D156*
X026614Y020196D03*
X026939Y019156D03*
D157*
X027598Y019488D03*
X027683Y019904D03*
X027085Y020424D03*
X027000Y020541D03*
X026994Y020547D03*
X026987Y020554D03*
X026305Y019988D03*
X025681Y019553D03*
X025681Y019156D03*
X022639Y019338D03*
X022639Y019345D03*
X022639Y019566D03*
X022639Y019572D03*
X022639Y019579D03*
D158*
X023351Y019475D03*
X025691Y019566D03*
X027316Y019163D03*
X027706Y019683D03*
D159*
X026935Y019163D03*
X024173Y019423D03*
X023861Y019176D03*
X021443Y019442D03*
X021443Y019449D03*
D160*
X023851Y019163D03*
X024183Y019442D03*
D161*
X027316Y019169D03*
D162*
X026350Y019169D03*
X022639Y019332D03*
D163*
X025674Y019169D03*
X026389Y020274D03*
D164*
X020747Y019169D03*
D165*
X025463Y019208D03*
X026926Y019176D03*
X026828Y020021D03*
X026373Y020417D03*
D166*
X026822Y019956D03*
X026302Y019644D03*
X026295Y019637D03*
X027270Y019182D03*
D167*
X026844Y019507D03*
X026331Y019286D03*
X026331Y019280D03*
X026331Y019273D03*
X026331Y019260D03*
X026331Y019254D03*
X025668Y019182D03*
D168*
X025489Y019520D03*
X024170Y019416D03*
X023864Y019182D03*
X027192Y019247D03*
X027257Y020164D03*
X027257Y020170D03*
X027680Y020125D03*
D169*
X027696Y020021D03*
X027267Y019189D03*
X026851Y019416D03*
X026318Y019663D03*
X026292Y019631D03*
X026285Y019618D03*
X026279Y019611D03*
X026272Y019605D03*
X026266Y019598D03*
X026259Y019585D03*
X026207Y019962D03*
D170*
X026851Y019377D03*
X027260Y020183D03*
X027683Y020118D03*
X025486Y019195D03*
X023867Y019189D03*
D171*
X026211Y019494D03*
X027251Y019202D03*
X027803Y019819D03*
X027699Y020047D03*
D172*
X027241Y020112D03*
X026916Y019202D03*
X025453Y019494D03*
X020871Y019267D03*
X020741Y019462D03*
D173*
X026344Y019202D03*
X027033Y020502D03*
X027676Y019884D03*
D174*
X026591Y019754D03*
X021443Y019202D03*
D175*
X020790Y019202D03*
X023942Y019234D03*
X023975Y019267D03*
D176*
X026679Y019611D03*
X027231Y019208D03*
X027693Y020073D03*
D177*
X027238Y020099D03*
X027166Y019280D03*
X026913Y019208D03*
X025437Y019241D03*
X025437Y019475D03*
X025444Y019481D03*
X022441Y019384D03*
X020887Y019351D03*
X020881Y019358D03*
X020861Y019371D03*
X020855Y019377D03*
X020848Y019384D03*
X020835Y019390D03*
X020822Y019403D03*
X020809Y019410D03*
X020803Y019416D03*
X020777Y019436D03*
X020751Y019455D03*
X020725Y019475D03*
D178*
X026334Y019247D03*
X026334Y019241D03*
X026341Y019208D03*
X026828Y019845D03*
D179*
X026672Y019618D03*
X026854Y019390D03*
X027036Y019631D03*
X027231Y019215D03*
X026373Y020391D03*
X027218Y020417D03*
X027225Y020411D03*
D180*
X027234Y020092D03*
X026909Y019215D03*
D181*
X027225Y019221D03*
X027030Y019735D03*
X027023Y019741D03*
X026373Y020398D03*
D182*
X027270Y020281D03*
X027270Y020268D03*
X027270Y020261D03*
X027270Y020255D03*
X027270Y020248D03*
X027212Y019228D03*
X024150Y019384D03*
X023884Y019221D03*
D183*
X025447Y019228D03*
X025447Y019488D03*
X026097Y019923D03*
X020767Y019442D03*
X020734Y019468D03*
D184*
X020939Y019286D03*
X023890Y019228D03*
X026646Y019676D03*
X026653Y019663D03*
X026659Y019637D03*
X027036Y019709D03*
X027264Y020300D03*
X027264Y020313D03*
X027264Y020320D03*
X027264Y020326D03*
X027257Y020333D03*
D185*
X026818Y019936D03*
X026259Y020066D03*
X026383Y020333D03*
X021443Y019228D03*
D186*
X027208Y019234D03*
X027267Y020242D03*
D187*
X026334Y019234D03*
D188*
X026851Y019429D03*
X026376Y020339D03*
X021443Y019234D03*
D189*
X021443Y019241D03*
X026818Y019943D03*
D190*
X027186Y019254D03*
D191*
X027608Y019423D03*
X027777Y019741D03*
X027777Y019748D03*
X027699Y020001D03*
X026373Y020352D03*
X026250Y020092D03*
X021440Y019254D03*
D192*
X026331Y019267D03*
D193*
X025424Y019267D03*
D194*
X026191Y019371D03*
X026191Y019377D03*
X026191Y019423D03*
X027017Y019611D03*
X026822Y019988D03*
X026230Y020183D03*
X026230Y020190D03*
X027693Y020066D03*
X022090Y019351D03*
X022090Y019345D03*
X022090Y019338D03*
X022090Y019325D03*
X022090Y019319D03*
X022090Y019312D03*
X022090Y019306D03*
X022090Y019293D03*
X022090Y019286D03*
X022090Y019280D03*
D195*
X020936Y019280D03*
X026818Y020001D03*
X027033Y019728D03*
X027033Y019715D03*
X027039Y019702D03*
X027046Y019696D03*
X027046Y019683D03*
X027046Y019676D03*
X027241Y020378D03*
X027241Y020385D03*
X027689Y020092D03*
D196*
X027595Y019507D03*
X026848Y019514D03*
X026497Y019715D03*
X026328Y019293D03*
X026386Y020255D03*
D197*
X026191Y019429D03*
X026854Y019397D03*
X022090Y019332D03*
X022090Y019299D03*
D198*
X024228Y019520D03*
X026880Y019319D03*
X026880Y019312D03*
X026880Y019306D03*
X026939Y020313D03*
D199*
X026831Y019826D03*
X026851Y019520D03*
X026324Y019351D03*
X026324Y019345D03*
X026324Y019338D03*
X026324Y019325D03*
X026324Y019319D03*
X026324Y019312D03*
X026324Y019306D03*
X026389Y020248D03*
X027670Y019871D03*
D200*
X027657Y020170D03*
X027137Y019325D03*
D201*
X026877Y019325D03*
X027202Y020040D03*
X026942Y020294D03*
X026942Y020300D03*
D202*
X026324Y019332D03*
D203*
X025418Y019429D03*
X025411Y019397D03*
X025411Y019364D03*
X025411Y019332D03*
X022428Y019397D03*
X022428Y019429D03*
X022428Y019462D03*
X022428Y019494D03*
D204*
X020952Y019332D03*
X024157Y019397D03*
X026984Y020632D03*
D205*
X027797Y019845D03*
X027803Y019826D03*
X026217Y019501D03*
X026204Y019481D03*
X026204Y019475D03*
X026204Y019358D03*
D206*
X027117Y019364D03*
X027189Y020014D03*
X026948Y020274D03*
X020591Y019689D03*
D207*
X026510Y019364D03*
D208*
X026194Y019364D03*
X026227Y020177D03*
D209*
X026828Y019852D03*
X026848Y019494D03*
X027595Y019494D03*
X027082Y020437D03*
X027056Y020469D03*
X027004Y020534D03*
X022636Y019559D03*
X022636Y019364D03*
D210*
X021527Y019364D03*
X021495Y019429D03*
X026571Y019429D03*
D211*
X026929Y020372D03*
X027663Y020144D03*
X025427Y019462D03*
X021443Y019494D03*
X020871Y019364D03*
D212*
X020666Y019618D03*
X020595Y019696D03*
X020595Y019702D03*
X020517Y019702D03*
X020517Y019696D03*
X027114Y019371D03*
X027394Y019858D03*
D213*
X026519Y019371D03*
D214*
X027104Y019384D03*
X027111Y019377D03*
X027462Y019858D03*
X026948Y020261D03*
X020598Y019618D03*
X020572Y019663D03*
X020513Y019618D03*
D215*
X026649Y019670D03*
X026656Y019650D03*
X026656Y019644D03*
X027267Y020287D03*
X027267Y020294D03*
X027689Y020099D03*
X027611Y019384D03*
D216*
X026188Y019384D03*
X026188Y019390D03*
X026188Y019403D03*
X026188Y019410D03*
X026188Y019416D03*
X026233Y020196D03*
D217*
X026558Y020222D03*
X027020Y019748D03*
X027611Y019390D03*
D218*
X027608Y019397D03*
D219*
X027101Y019397D03*
X026750Y020112D03*
X020666Y019689D03*
X020666Y019657D03*
X020666Y019624D03*
X020601Y019624D03*
X020601Y019657D03*
X020569Y019657D03*
X020543Y019657D03*
X020510Y019657D03*
X020510Y019624D03*
D220*
X026188Y019397D03*
D221*
X026194Y019436D03*
X026194Y019442D03*
X026194Y019449D03*
X026376Y020385D03*
X027696Y020060D03*
X027605Y019403D03*
D222*
X027095Y019403D03*
X027095Y019410D03*
X027179Y020001D03*
X026952Y020255D03*
X027641Y020183D03*
X020556Y019631D03*
D223*
X026201Y019468D03*
X026851Y019403D03*
X026227Y020164D03*
X027696Y020053D03*
D224*
X026935Y020417D03*
X026591Y020216D03*
X026370Y020411D03*
X024160Y019403D03*
D225*
X026237Y019546D03*
X026243Y019553D03*
X026237Y020125D03*
X026237Y020131D03*
X026822Y019969D03*
X026854Y019410D03*
X027608Y019416D03*
X027797Y019774D03*
D226*
X027608Y019429D03*
X026971Y020599D03*
D227*
X026250Y020222D03*
X026230Y020170D03*
X026997Y019761D03*
X026198Y019455D03*
D228*
X025684Y019559D03*
X026828Y019462D03*
D229*
X026818Y019982D03*
X026201Y019462D03*
D230*
X021440Y019462D03*
D231*
X026389Y020281D03*
X026844Y019488D03*
D232*
X023347Y019494D03*
D233*
X020702Y019494D03*
X026649Y020177D03*
D234*
X026389Y020268D03*
X026519Y019735D03*
X026844Y019501D03*
X027039Y020495D03*
X025674Y019540D03*
D235*
X026393Y020229D03*
X027660Y019650D03*
X027595Y019520D03*
D236*
X027592Y019527D03*
D237*
X026848Y019527D03*
X026835Y019819D03*
D238*
X026227Y019527D03*
D239*
X025671Y019527D03*
D240*
X027592Y019533D03*
D241*
X026851Y019533D03*
X026480Y019702D03*
X026389Y020235D03*
D242*
X026974Y020612D03*
X026227Y019533D03*
D243*
X026474Y019696D03*
X026838Y019793D03*
X026851Y019553D03*
X026851Y019546D03*
X026851Y019540D03*
X027650Y019644D03*
D244*
X027592Y019546D03*
X026851Y019579D03*
X026851Y019585D03*
X026851Y019598D03*
X026851Y019605D03*
X026838Y019767D03*
D245*
X027592Y019559D03*
D246*
X026854Y019559D03*
X026471Y019689D03*
D247*
X026246Y019559D03*
D248*
X026467Y019683D03*
X026838Y019774D03*
X026851Y019566D03*
X027644Y019637D03*
D249*
X027790Y019761D03*
X026822Y019962D03*
X026328Y019670D03*
X026256Y019579D03*
X026250Y019572D03*
X026250Y019566D03*
X025762Y019618D03*
X026978Y020606D03*
D250*
X027589Y019579D03*
D251*
X027589Y019592D03*
D252*
X026851Y019592D03*
D253*
X026263Y019592D03*
D254*
X022645Y019592D03*
D255*
X027589Y019598D03*
X027589Y019605D03*
X027595Y019611D03*
D256*
X026259Y020073D03*
X025739Y019611D03*
D257*
X027608Y019618D03*
D258*
X027621Y019624D03*
D259*
X027033Y019624D03*
X027013Y019754D03*
D260*
X026662Y019624D03*
X027228Y020404D03*
D261*
X020559Y019624D03*
D262*
X027641Y019631D03*
D263*
X026662Y019631D03*
X026987Y020625D03*
D264*
X027689Y020086D03*
X027039Y019650D03*
X027039Y019644D03*
X027039Y019637D03*
D265*
X020556Y019637D03*
X020556Y019644D03*
D266*
X026211Y019969D03*
X026243Y020105D03*
X026373Y020359D03*
X026308Y019650D03*
D267*
X027673Y019657D03*
D268*
X027043Y019657D03*
D269*
X026653Y019657D03*
X027264Y020307D03*
D270*
X027784Y019754D03*
X026315Y019657D03*
D271*
X026831Y019832D03*
X026831Y019839D03*
X027670Y019878D03*
X027676Y019663D03*
D272*
X027238Y020391D03*
X027231Y020398D03*
X027043Y019670D03*
X027043Y019663D03*
D273*
X026740Y020118D03*
X026948Y020268D03*
X026064Y019904D03*
X020591Y019683D03*
X020520Y019683D03*
X020520Y019676D03*
D274*
X027033Y019722D03*
X027046Y019689D03*
D275*
X026549Y019982D03*
X020517Y019689D03*
D276*
X027738Y019709D03*
D277*
X027751Y019722D03*
D278*
X026506Y019722D03*
D279*
X027764Y019735D03*
D280*
X027793Y019767D03*
X027780Y019858D03*
X027696Y020027D03*
D281*
X027800Y019787D03*
D282*
X026838Y019787D03*
D283*
X026835Y019800D03*
X026835Y019806D03*
D284*
X026831Y019813D03*
D285*
X026376Y020378D03*
X027800Y019839D03*
X027800Y019832D03*
D286*
X027790Y019852D03*
X026373Y020372D03*
D287*
X027381Y019852D03*
D288*
X027267Y020203D03*
X027267Y020216D03*
X026129Y019936D03*
D289*
X026146Y019943D03*
X027251Y020346D03*
X027251Y020352D03*
X027251Y020359D03*
X027251Y020365D03*
D290*
X027689Y019949D03*
D291*
X026958Y020242D03*
X026315Y019949D03*
D292*
X026159Y019949D03*
X027693Y020079D03*
D293*
X027693Y019956D03*
X026386Y020320D03*
D294*
X026178Y019956D03*
D295*
X027696Y019982D03*
D296*
X027693Y019988D03*
D297*
X027696Y020008D03*
D298*
X027182Y020008D03*
X026955Y020248D03*
D299*
X027696Y020014D03*
D300*
X026285Y020014D03*
D301*
X026266Y020053D03*
D302*
X026259Y020079D03*
D303*
X027260Y020177D03*
X027683Y020112D03*
D304*
X026243Y020112D03*
D305*
X027251Y020144D03*
D306*
X026233Y020144D03*
D307*
X027254Y020151D03*
X027254Y020157D03*
D308*
X026230Y020157D03*
X026230Y020151D03*
D309*
X027267Y020209D03*
D310*
X026240Y020209D03*
D311*
X026243Y020216D03*
D312*
X026389Y020242D03*
D313*
X027270Y020274D03*
D314*
X026386Y020307D03*
D315*
X027251Y020339D03*
D316*
X027247Y020372D03*
D317*
X026932Y020398D03*
D318*
X026932Y020404D03*
D319*
X026978Y020567D03*
D320*
X026987Y020619D03*
D321*
X026068Y020852D02*
X026070Y020859D01*
X026075Y020864D01*
X026082Y020866D01*
X026089Y020864D01*
X026094Y020859D01*
X026096Y020852D01*
X026094Y020845D01*
X026089Y020840D01*
X026082Y020838D01*
X026075Y020840D01*
X026070Y020845D01*
X026068Y020852D01*
D322*
X024994Y021232D02*
X024970Y021232D01*
X027470Y021232D02*
X027494Y021232D01*
X020744Y021232D02*
X020720Y021232D01*
D323*
X023996Y021114D02*
X023996Y021350D01*
X024468Y021350D02*
X024468Y021114D01*
X027374Y025352D02*
X027374Y025913D01*
X028590Y025913D02*
X028590Y025352D01*
D324*
X025132Y018332D02*
X022332Y018332D01*
X022332Y017632D01*
X022032Y017632D01*
X022032Y016832D01*
X022332Y016832D01*
X022332Y016332D01*
X025132Y016332D01*
X025132Y016832D01*
X025432Y016832D01*
X025432Y017632D01*
X025132Y017632D01*
X025132Y018332D01*
D325*
X021940Y022748D02*
X021942Y022766D01*
X021948Y022782D01*
X021957Y022797D01*
X021970Y022810D01*
X021985Y022819D01*
X022001Y022825D01*
X022019Y022827D01*
X022037Y022825D01*
X022053Y022819D01*
X022068Y022810D01*
X022081Y022797D01*
X022090Y022782D01*
X022096Y022766D01*
X022098Y022748D01*
X022096Y022730D01*
X022090Y022714D01*
X022081Y022699D01*
X022068Y022686D01*
X022053Y022677D01*
X022037Y022671D01*
X022019Y022669D01*
X022001Y022671D01*
X021985Y022677D01*
X021970Y022686D01*
X021957Y022699D01*
X021948Y022714D01*
X021942Y022730D01*
X021940Y022748D01*
X020484Y025503D02*
X020484Y030779D01*
X020484Y025503D02*
X026980Y025503D01*
X026980Y030779D01*
M02*
