G75*
G70*
%OFA0B0*%
%FSLAX24Y24*%
%IPPOS*%
%LPD*%
%AMOC8*
5,1,8,0,0,1.08239X$1,22.5*
%
%ADD10R,0.0472X0.0217*%
%ADD11R,0.0354X0.0276*%
%ADD12OC8,0.0850*%
%ADD13R,0.0394X0.0433*%
%ADD14R,0.0472X0.0315*%
%ADD15R,0.0110X0.0256*%
%ADD16R,0.0256X0.0110*%
%ADD17R,0.0236X0.0472*%
%ADD18C,0.0500*%
%ADD19C,0.0490*%
%ADD20C,0.0472*%
%ADD21C,0.0016*%
%ADD22C,0.0130*%
%ADD23C,0.0400*%
%ADD24C,0.0060*%
%ADD25R,0.0236X0.0197*%
%ADD26R,0.0197X0.0236*%
%ADD27R,0.0591X0.0787*%
%ADD28OC8,0.0500*%
%ADD29R,0.0500X0.0500*%
%ADD30R,0.0689X0.0354*%
%ADD31R,0.0500X0.0250*%
%ADD32C,0.0180*%
%ADD33C,0.0050*%
%ADD34C,0.0080*%
%ADD35C,0.0120*%
%ADD36C,0.0160*%
%ADD37C,0.0240*%
%ADD38C,0.0100*%
%ADD39C,0.0320*%
D10*
X022220Y020858D03*
X022220Y021606D03*
X023244Y021606D03*
X023244Y021232D03*
X023244Y020858D03*
X025720Y020858D03*
X025720Y021232D03*
X025720Y021606D03*
X026744Y021606D03*
X026744Y021232D03*
X026744Y020858D03*
D11*
X021482Y020976D03*
X021482Y021488D03*
D12*
X028982Y021232D03*
X030232Y021232D03*
D13*
X027482Y021567D03*
X027482Y020897D03*
X024982Y020897D03*
X024982Y021567D03*
X020732Y021567D03*
X020732Y020897D03*
D14*
X024232Y020878D03*
X024232Y021586D03*
D15*
X024027Y023193D03*
X023830Y023193D03*
X023633Y023193D03*
X023437Y023193D03*
X023437Y024271D03*
X023633Y024271D03*
X023830Y024271D03*
X024027Y024271D03*
D16*
X024271Y024027D03*
X024271Y023830D03*
X024271Y023633D03*
X024271Y023437D03*
X023193Y023437D03*
X023193Y023633D03*
X023193Y023830D03*
X023193Y024027D03*
D17*
X027608Y025118D03*
X027982Y025118D03*
X028356Y025118D03*
X028356Y026146D03*
X027608Y026146D03*
D18*
X026232Y024132D03*
X026232Y023332D03*
X027032Y023332D03*
X025432Y023332D03*
X025432Y024132D03*
X024762Y018292D03*
X017826Y022551D03*
X017039Y022551D03*
X017039Y023338D03*
X017039Y024126D03*
X017039Y024913D03*
X017826Y024913D03*
X017826Y024126D03*
X017826Y023338D03*
X017033Y021763D03*
D19*
X022702Y018292D03*
X022802Y018292D03*
X024662Y018292D03*
D20*
X025112Y017332D03*
X025112Y017132D03*
X022352Y017132D03*
X022352Y017332D03*
D21*
X023140Y018549D02*
X023284Y018549D01*
X023284Y018035D01*
X023140Y018035D01*
X023140Y018549D01*
X023140Y018050D02*
X023284Y018050D01*
X023284Y018065D02*
X023140Y018065D01*
X023140Y018080D02*
X023284Y018080D01*
X023284Y018095D02*
X023140Y018095D01*
X023140Y018110D02*
X023284Y018110D01*
X023284Y018125D02*
X023140Y018125D01*
X023140Y018140D02*
X023284Y018140D01*
X023284Y018155D02*
X023140Y018155D01*
X023140Y018170D02*
X023284Y018170D01*
X023284Y018185D02*
X023140Y018185D01*
X023140Y018200D02*
X023284Y018200D01*
X023284Y018215D02*
X023140Y018215D01*
X023140Y018230D02*
X023284Y018230D01*
X023284Y018245D02*
X023140Y018245D01*
X023140Y018260D02*
X023284Y018260D01*
X023284Y018275D02*
X023140Y018275D01*
X023140Y018290D02*
X023284Y018290D01*
X023284Y018305D02*
X023140Y018305D01*
X023140Y018320D02*
X023284Y018320D01*
X023284Y018335D02*
X023140Y018335D01*
X023140Y018350D02*
X023284Y018350D01*
X023284Y018365D02*
X023140Y018365D01*
X023140Y018380D02*
X023284Y018380D01*
X023284Y018395D02*
X023140Y018395D01*
X023140Y018410D02*
X023284Y018410D01*
X023284Y018425D02*
X023140Y018425D01*
X023140Y018440D02*
X023284Y018440D01*
X023284Y018455D02*
X023140Y018455D01*
X023140Y018470D02*
X023284Y018470D01*
X023284Y018485D02*
X023140Y018485D01*
X023140Y018500D02*
X023284Y018500D01*
X023284Y018515D02*
X023140Y018515D01*
X023140Y018530D02*
X023284Y018530D01*
X023284Y018545D02*
X023140Y018545D01*
X023400Y018549D02*
X023544Y018549D01*
X023544Y018035D01*
X023400Y018035D01*
X023400Y018549D01*
X023400Y018050D02*
X023544Y018050D01*
X023544Y018065D02*
X023400Y018065D01*
X023400Y018080D02*
X023544Y018080D01*
X023544Y018095D02*
X023400Y018095D01*
X023400Y018110D02*
X023544Y018110D01*
X023544Y018125D02*
X023400Y018125D01*
X023400Y018140D02*
X023544Y018140D01*
X023544Y018155D02*
X023400Y018155D01*
X023400Y018170D02*
X023544Y018170D01*
X023544Y018185D02*
X023400Y018185D01*
X023400Y018200D02*
X023544Y018200D01*
X023544Y018215D02*
X023400Y018215D01*
X023400Y018230D02*
X023544Y018230D01*
X023544Y018245D02*
X023400Y018245D01*
X023400Y018260D02*
X023544Y018260D01*
X023544Y018275D02*
X023400Y018275D01*
X023400Y018290D02*
X023544Y018290D01*
X023544Y018305D02*
X023400Y018305D01*
X023400Y018320D02*
X023544Y018320D01*
X023544Y018335D02*
X023400Y018335D01*
X023400Y018350D02*
X023544Y018350D01*
X023544Y018365D02*
X023400Y018365D01*
X023400Y018380D02*
X023544Y018380D01*
X023544Y018395D02*
X023400Y018395D01*
X023400Y018410D02*
X023544Y018410D01*
X023544Y018425D02*
X023400Y018425D01*
X023400Y018440D02*
X023544Y018440D01*
X023544Y018455D02*
X023400Y018455D01*
X023400Y018470D02*
X023544Y018470D01*
X023544Y018485D02*
X023400Y018485D01*
X023400Y018500D02*
X023544Y018500D01*
X023544Y018515D02*
X023400Y018515D01*
X023400Y018530D02*
X023544Y018530D01*
X023544Y018545D02*
X023400Y018545D01*
X023660Y018549D02*
X023804Y018549D01*
X023804Y018035D01*
X023660Y018035D01*
X023660Y018549D01*
X023660Y018050D02*
X023804Y018050D01*
X023804Y018065D02*
X023660Y018065D01*
X023660Y018080D02*
X023804Y018080D01*
X023804Y018095D02*
X023660Y018095D01*
X023660Y018110D02*
X023804Y018110D01*
X023804Y018125D02*
X023660Y018125D01*
X023660Y018140D02*
X023804Y018140D01*
X023804Y018155D02*
X023660Y018155D01*
X023660Y018170D02*
X023804Y018170D01*
X023804Y018185D02*
X023660Y018185D01*
X023660Y018200D02*
X023804Y018200D01*
X023804Y018215D02*
X023660Y018215D01*
X023660Y018230D02*
X023804Y018230D01*
X023804Y018245D02*
X023660Y018245D01*
X023660Y018260D02*
X023804Y018260D01*
X023804Y018275D02*
X023660Y018275D01*
X023660Y018290D02*
X023804Y018290D01*
X023804Y018305D02*
X023660Y018305D01*
X023660Y018320D02*
X023804Y018320D01*
X023804Y018335D02*
X023660Y018335D01*
X023660Y018350D02*
X023804Y018350D01*
X023804Y018365D02*
X023660Y018365D01*
X023660Y018380D02*
X023804Y018380D01*
X023804Y018395D02*
X023660Y018395D01*
X023660Y018410D02*
X023804Y018410D01*
X023804Y018425D02*
X023660Y018425D01*
X023660Y018440D02*
X023804Y018440D01*
X023804Y018455D02*
X023660Y018455D01*
X023660Y018470D02*
X023804Y018470D01*
X023804Y018485D02*
X023660Y018485D01*
X023660Y018500D02*
X023804Y018500D01*
X023804Y018515D02*
X023660Y018515D01*
X023660Y018530D02*
X023804Y018530D01*
X023804Y018545D02*
X023660Y018545D01*
X023920Y018549D02*
X024064Y018549D01*
X024064Y018035D01*
X023920Y018035D01*
X023920Y018549D01*
X023920Y018050D02*
X024064Y018050D01*
X024064Y018065D02*
X023920Y018065D01*
X023920Y018080D02*
X024064Y018080D01*
X024064Y018095D02*
X023920Y018095D01*
X023920Y018110D02*
X024064Y018110D01*
X024064Y018125D02*
X023920Y018125D01*
X023920Y018140D02*
X024064Y018140D01*
X024064Y018155D02*
X023920Y018155D01*
X023920Y018170D02*
X024064Y018170D01*
X024064Y018185D02*
X023920Y018185D01*
X023920Y018200D02*
X024064Y018200D01*
X024064Y018215D02*
X023920Y018215D01*
X023920Y018230D02*
X024064Y018230D01*
X024064Y018245D02*
X023920Y018245D01*
X023920Y018260D02*
X024064Y018260D01*
X024064Y018275D02*
X023920Y018275D01*
X023920Y018290D02*
X024064Y018290D01*
X024064Y018305D02*
X023920Y018305D01*
X023920Y018320D02*
X024064Y018320D01*
X024064Y018335D02*
X023920Y018335D01*
X023920Y018350D02*
X024064Y018350D01*
X024064Y018365D02*
X023920Y018365D01*
X023920Y018380D02*
X024064Y018380D01*
X024064Y018395D02*
X023920Y018395D01*
X023920Y018410D02*
X024064Y018410D01*
X024064Y018425D02*
X023920Y018425D01*
X023920Y018440D02*
X024064Y018440D01*
X024064Y018455D02*
X023920Y018455D01*
X023920Y018470D02*
X024064Y018470D01*
X024064Y018485D02*
X023920Y018485D01*
X023920Y018500D02*
X024064Y018500D01*
X024064Y018515D02*
X023920Y018515D01*
X023920Y018530D02*
X024064Y018530D01*
X024064Y018545D02*
X023920Y018545D01*
X024180Y018549D02*
X024324Y018549D01*
X024324Y018035D01*
X024180Y018035D01*
X024180Y018549D01*
X024180Y018050D02*
X024324Y018050D01*
X024324Y018065D02*
X024180Y018065D01*
X024180Y018080D02*
X024324Y018080D01*
X024324Y018095D02*
X024180Y018095D01*
X024180Y018110D02*
X024324Y018110D01*
X024324Y018125D02*
X024180Y018125D01*
X024180Y018140D02*
X024324Y018140D01*
X024324Y018155D02*
X024180Y018155D01*
X024180Y018170D02*
X024324Y018170D01*
X024324Y018185D02*
X024180Y018185D01*
X024180Y018200D02*
X024324Y018200D01*
X024324Y018215D02*
X024180Y018215D01*
X024180Y018230D02*
X024324Y018230D01*
X024324Y018245D02*
X024180Y018245D01*
X024180Y018260D02*
X024324Y018260D01*
X024324Y018275D02*
X024180Y018275D01*
X024180Y018290D02*
X024324Y018290D01*
X024324Y018305D02*
X024180Y018305D01*
X024180Y018320D02*
X024324Y018320D01*
X024324Y018335D02*
X024180Y018335D01*
X024180Y018350D02*
X024324Y018350D01*
X024324Y018365D02*
X024180Y018365D01*
X024180Y018380D02*
X024324Y018380D01*
X024324Y018395D02*
X024180Y018395D01*
X024180Y018410D02*
X024324Y018410D01*
X024324Y018425D02*
X024180Y018425D01*
X024180Y018440D02*
X024324Y018440D01*
X024324Y018455D02*
X024180Y018455D01*
X024180Y018470D02*
X024324Y018470D01*
X024324Y018485D02*
X024180Y018485D01*
X024180Y018500D02*
X024324Y018500D01*
X024324Y018515D02*
X024180Y018515D01*
X024180Y018530D02*
X024324Y018530D01*
X024324Y018545D02*
X024180Y018545D01*
D22*
X024747Y017492D02*
X025317Y017492D01*
X025317Y016972D01*
X024747Y016972D01*
X024747Y017492D01*
X024747Y017101D02*
X025317Y017101D01*
X025317Y017230D02*
X024747Y017230D01*
X024747Y017359D02*
X025317Y017359D01*
X025317Y017488D02*
X024747Y017488D01*
X022717Y017492D02*
X022147Y017492D01*
X022717Y017492D02*
X022717Y016972D01*
X022147Y016972D01*
X022147Y017492D01*
X022147Y017101D02*
X022717Y017101D01*
X022717Y017230D02*
X022147Y017230D01*
X022147Y017359D02*
X022717Y017359D01*
X022717Y017488D02*
X022147Y017488D01*
D23*
X022652Y018342D02*
X022852Y018342D01*
X022852Y018242D01*
X022652Y018242D01*
X022652Y018342D01*
X024612Y018342D02*
X024812Y018342D01*
X024812Y018242D01*
X024612Y018242D01*
X024612Y018342D01*
D24*
X024422Y017502D02*
X023842Y017502D01*
X024422Y017502D02*
X024422Y016962D01*
X023842Y016962D01*
X023842Y017502D01*
X023842Y017021D02*
X024422Y017021D01*
X024422Y017080D02*
X023842Y017080D01*
X023842Y017139D02*
X024422Y017139D01*
X024422Y017198D02*
X023842Y017198D01*
X023842Y017257D02*
X024422Y017257D01*
X024422Y017316D02*
X023842Y017316D01*
X023842Y017375D02*
X024422Y017375D01*
X024422Y017434D02*
X023842Y017434D01*
X023842Y017493D02*
X024422Y017493D01*
X023622Y017502D02*
X023042Y017502D01*
X023622Y017502D02*
X023622Y016962D01*
X023042Y016962D01*
X023042Y017502D01*
X023042Y017021D02*
X023622Y017021D01*
X023622Y017080D02*
X023042Y017080D01*
X023042Y017139D02*
X023622Y017139D01*
X023622Y017198D02*
X023042Y017198D01*
X023042Y017257D02*
X023622Y017257D01*
X023622Y017316D02*
X023042Y017316D01*
X023042Y017375D02*
X023622Y017375D01*
X023622Y017434D02*
X023042Y017434D01*
X023042Y017493D02*
X023622Y017493D01*
D25*
X021803Y023161D03*
X021409Y023161D03*
X021015Y023161D03*
X021015Y024303D03*
X021409Y024303D03*
X021803Y024303D03*
D26*
X021803Y023732D03*
D27*
G36*
X012801Y032718D02*
X012384Y032301D01*
X011829Y032856D01*
X012246Y033273D01*
X012801Y032718D01*
G37*
G36*
X015163Y035080D02*
X014746Y034663D01*
X014191Y035218D01*
X014608Y035635D01*
X015163Y035080D01*
G37*
G36*
X032856Y035635D02*
X033273Y035218D01*
X032718Y034663D01*
X032301Y035080D01*
X032856Y035635D01*
G37*
G36*
X035218Y033273D02*
X035635Y032856D01*
X035080Y032301D01*
X034663Y032718D01*
X035218Y033273D01*
G37*
G36*
X034663Y014746D02*
X035080Y015163D01*
X035635Y014608D01*
X035218Y014191D01*
X034663Y014746D01*
G37*
G36*
X032301Y012384D02*
X032718Y012801D01*
X033273Y012246D01*
X032856Y011829D01*
X032301Y012384D01*
G37*
G36*
X014746Y012801D02*
X015163Y012384D01*
X014608Y011829D01*
X014191Y012246D01*
X014746Y012801D01*
G37*
G36*
X012384Y015163D02*
X012801Y014746D01*
X012246Y014191D01*
X011829Y014608D01*
X012384Y015163D01*
G37*
D28*
X027032Y024132D03*
D29*
X017826Y025700D03*
X017039Y025700D03*
X017833Y021763D03*
D30*
X021124Y026011D03*
X021124Y027783D03*
X021124Y030145D03*
X026340Y030145D03*
X026340Y029554D03*
X026340Y028373D03*
X026340Y026011D03*
D31*
G36*
X025167Y024794D02*
X025520Y025147D01*
X025697Y024970D01*
X025344Y024617D01*
X025167Y024794D01*
G37*
D32*
X011932Y014282D03*
X016382Y020782D03*
X019032Y020982D03*
X019382Y021782D03*
X019882Y022032D03*
X020132Y021382D03*
X021132Y021182D03*
X021032Y020332D03*
X020732Y020332D03*
X021582Y020332D03*
X022332Y020482D03*
X023032Y021182D03*
X023132Y021982D03*
X023032Y022282D03*
X022732Y022432D03*
X021632Y022032D03*
X020982Y022032D03*
X020382Y022882D03*
X019382Y022632D03*
X018382Y023732D03*
X018632Y024432D03*
X018932Y024932D03*
X019432Y025382D03*
X019432Y025732D03*
X019932Y025982D03*
X020332Y026182D03*
X020832Y025432D03*
X021582Y025232D03*
X021832Y025682D03*
X022132Y025332D03*
X022132Y025032D03*
X022082Y024532D03*
X022082Y024032D03*
X022182Y023532D03*
X023001Y024551D03*
X023482Y024882D03*
X023382Y025532D03*
X023082Y025532D03*
X022682Y025282D03*
X022332Y025582D03*
X022382Y026282D03*
X022032Y026382D03*
X021832Y026182D03*
X021682Y027732D03*
X021532Y028082D03*
X021732Y028582D03*
X022382Y028782D03*
X023282Y029232D03*
X023132Y029482D03*
X023432Y029582D03*
X023782Y029882D03*
X023932Y030132D03*
X023932Y029632D03*
X024632Y029732D03*
X025332Y029432D03*
X025332Y030182D03*
X025682Y030282D03*
X026732Y030532D03*
X025882Y028732D03*
X025382Y028882D03*
X024832Y028882D03*
X025582Y028282D03*
X025732Y028032D03*
X025932Y027832D03*
X027032Y028432D03*
X027082Y027732D03*
X027832Y026532D03*
X027982Y025532D03*
X028132Y024582D03*
X027832Y024582D03*
X028032Y023032D03*
X028532Y021782D03*
X027682Y019932D03*
X027182Y019932D03*
X026382Y019982D03*
X025782Y020332D03*
X024182Y021182D03*
X024032Y022282D03*
X024332Y022382D03*
X025032Y022732D03*
X025132Y022482D03*
X025482Y022432D03*
X025782Y022432D03*
X025082Y024682D03*
X024882Y024932D03*
X024682Y025132D03*
X024482Y025332D03*
X024132Y025582D03*
X023732Y025782D03*
X025082Y026182D03*
X025782Y025832D03*
X025782Y025532D03*
X029732Y025682D03*
X030182Y026482D03*
X030882Y026632D03*
X030532Y022732D03*
X023832Y018932D03*
X023482Y018932D03*
X022532Y019182D03*
X020632Y018482D03*
X020182Y018932D03*
X019432Y024382D03*
X019732Y024432D03*
X020032Y024432D03*
X018282Y025282D03*
X018232Y026082D03*
X018182Y026382D03*
X017482Y026782D03*
X016332Y026332D03*
X019382Y027282D03*
X019482Y028132D03*
X019782Y028482D03*
X020282Y028982D03*
X019982Y029582D03*
X020382Y029982D03*
X021582Y030482D03*
X021832Y030232D03*
X021682Y029982D03*
X021682Y029682D03*
X020882Y027882D03*
X014282Y035532D03*
X033182Y035532D03*
X035532Y014282D03*
D33*
X030817Y019317D02*
X030749Y019450D01*
X030514Y019998D01*
X030516Y020004D01*
X030501Y020029D01*
X030490Y020056D01*
X030484Y020059D01*
X030480Y020065D01*
X030452Y020072D01*
X030426Y020084D01*
X030419Y020081D01*
X030412Y020083D01*
X030387Y020068D01*
X030361Y020057D01*
X030358Y020051D01*
X029998Y019839D01*
X029998Y019839D01*
X029704Y019612D01*
X029259Y020057D01*
X029189Y020057D01*
X029139Y020007D01*
X027407Y018275D01*
X027407Y018205D01*
X027457Y018155D01*
X027851Y017760D01*
X027625Y017466D01*
X027413Y017106D01*
X027406Y017103D01*
X027396Y017076D01*
X027381Y017052D01*
X027383Y017045D01*
X027380Y017038D01*
X027392Y017011D01*
X027399Y016984D01*
X027405Y016980D01*
X027408Y016973D01*
X027435Y016963D01*
X027459Y016948D01*
X027465Y016950D01*
X028014Y016715D01*
X028147Y016647D01*
X028045Y016545D01*
X027853Y016638D01*
X027339Y016828D01*
X026653Y017514D01*
X026549Y017557D01*
X026435Y017557D01*
X026330Y017514D01*
X026250Y017433D01*
X026207Y017329D01*
X026207Y017215D01*
X026250Y017110D01*
X026944Y016416D01*
X026947Y016411D01*
X026984Y016376D01*
X027020Y016340D01*
X027026Y016338D01*
X027030Y016334D01*
X027078Y016316D01*
X027125Y016297D01*
X027128Y016297D01*
X027291Y016232D01*
X026257Y016232D01*
X025641Y016381D01*
X025641Y016381D01*
X024371Y016533D01*
X023093Y016533D01*
X021823Y016381D01*
X021207Y016232D01*
X020062Y016232D01*
X020340Y016347D01*
X020388Y016367D01*
X020438Y016387D01*
X020440Y016389D01*
X020443Y016390D01*
X020481Y016428D01*
X020520Y016465D01*
X020521Y016468D01*
X021234Y017180D01*
X021277Y017285D01*
X021277Y017399D01*
X021234Y017503D01*
X021153Y017584D01*
X021049Y017627D01*
X020935Y017627D01*
X020830Y017584D01*
X020123Y016876D01*
X019608Y016676D01*
X019062Y016402D01*
X018986Y016478D01*
X019450Y016715D01*
X019998Y016950D01*
X020004Y016948D01*
X020029Y016963D01*
X020056Y016973D01*
X020059Y016980D01*
X020065Y016984D01*
X020072Y017011D01*
X020084Y017038D01*
X020081Y017045D01*
X020083Y017052D01*
X020068Y017076D01*
X020057Y017103D01*
X020051Y017106D01*
X019839Y017466D01*
X019612Y017760D01*
X020057Y018205D01*
X020057Y018275D01*
X020007Y018325D01*
X018275Y020057D01*
X018205Y020057D01*
X018155Y020007D01*
X017760Y019612D01*
X017466Y019839D01*
X017106Y020051D01*
X017103Y020057D01*
X017076Y020068D01*
X017052Y020083D01*
X017045Y020081D01*
X017038Y020084D01*
X017011Y020072D01*
X016984Y020065D01*
X016980Y020059D01*
X016973Y020056D01*
X016963Y020029D01*
X016948Y020004D01*
X016950Y019998D01*
X016715Y019450D01*
X016478Y018986D01*
X016334Y019130D01*
X016589Y019661D01*
X016749Y020097D01*
X018414Y020097D01*
X019090Y019420D01*
X019170Y019340D01*
X019275Y019297D01*
X022343Y019297D01*
X022317Y019271D01*
X022317Y019093D01*
X022443Y018967D01*
X022621Y018967D01*
X022681Y019027D01*
X023273Y019027D01*
X023267Y019021D01*
X023267Y018843D01*
X023393Y018717D01*
X023464Y018717D01*
X023499Y018682D01*
X023345Y018682D01*
X023267Y018604D01*
X023267Y017980D01*
X023345Y017902D01*
X023599Y017902D01*
X023602Y017905D01*
X023605Y017902D01*
X023859Y017902D01*
X023862Y017905D01*
X023865Y017902D01*
X024119Y017902D01*
X024122Y017905D01*
X024125Y017902D01*
X024379Y017902D01*
X024457Y017980D01*
X024457Y018777D01*
X025090Y018777D01*
X025093Y018774D01*
X025183Y018737D01*
X025281Y018737D01*
X025371Y018774D01*
X025440Y018843D01*
X025477Y018933D01*
X025477Y019031D01*
X025440Y019121D01*
X025371Y019190D01*
X025281Y019227D01*
X025183Y019227D01*
X025093Y019190D01*
X025090Y019187D01*
X024337Y019187D01*
X024227Y019297D01*
X028089Y019297D01*
X028193Y019340D01*
X029000Y020147D01*
X030709Y020147D01*
X030716Y020128D01*
X030921Y019569D01*
X030969Y019469D01*
X030817Y019317D01*
X030816Y019318D02*
X030818Y019318D01*
X030791Y019367D02*
X030867Y019367D01*
X030915Y019415D02*
X030766Y019415D01*
X030743Y019464D02*
X030964Y019464D01*
X030948Y019512D02*
X030722Y019512D01*
X030701Y019561D02*
X030925Y019561D01*
X030921Y019569D02*
X030921Y019569D01*
X030906Y019609D02*
X030680Y019609D01*
X030660Y019658D02*
X030888Y019658D01*
X030871Y019706D02*
X030639Y019706D01*
X030618Y019755D02*
X030853Y019755D01*
X030835Y019803D02*
X030598Y019803D01*
X030577Y019852D02*
X030817Y019852D01*
X030800Y019900D02*
X030556Y019900D01*
X030535Y019949D02*
X030782Y019949D01*
X030764Y019997D02*
X030515Y019997D01*
X030495Y020046D02*
X030746Y020046D01*
X030729Y020094D02*
X028947Y020094D01*
X028899Y020046D02*
X029178Y020046D01*
X029129Y019997D02*
X028850Y019997D01*
X028802Y019949D02*
X029081Y019949D01*
X029032Y019900D02*
X028753Y019900D01*
X028705Y019852D02*
X028984Y019852D01*
X028935Y019803D02*
X028656Y019803D01*
X028608Y019755D02*
X028887Y019755D01*
X028838Y019706D02*
X028559Y019706D01*
X028511Y019658D02*
X028790Y019658D01*
X028741Y019609D02*
X028462Y019609D01*
X028414Y019561D02*
X028693Y019561D01*
X028644Y019512D02*
X028365Y019512D01*
X028317Y019464D02*
X028596Y019464D01*
X028547Y019415D02*
X028268Y019415D01*
X028220Y019367D02*
X028499Y019367D01*
X028450Y019318D02*
X028140Y019318D01*
X028305Y019173D02*
X025387Y019173D01*
X025436Y019124D02*
X028256Y019124D01*
X028208Y019076D02*
X025458Y019076D01*
X025477Y019027D02*
X028159Y019027D01*
X028111Y018979D02*
X025477Y018979D01*
X025476Y018930D02*
X028062Y018930D01*
X028014Y018882D02*
X025456Y018882D01*
X025430Y018833D02*
X027965Y018833D01*
X027917Y018785D02*
X025381Y018785D01*
X025294Y019221D02*
X028353Y019221D01*
X028402Y019270D02*
X024254Y019270D01*
X024302Y019221D02*
X025170Y019221D01*
X024457Y018736D02*
X027868Y018736D01*
X027820Y018688D02*
X024457Y018688D01*
X024457Y018639D02*
X027771Y018639D01*
X027723Y018591D02*
X024457Y018591D01*
X024457Y018542D02*
X027674Y018542D01*
X027626Y018494D02*
X024457Y018494D01*
X024457Y018445D02*
X027577Y018445D01*
X027529Y018397D02*
X024457Y018397D01*
X024457Y018348D02*
X027480Y018348D01*
X027432Y018300D02*
X024457Y018300D01*
X024457Y018251D02*
X027407Y018251D01*
X027409Y018203D02*
X024457Y018203D01*
X024457Y018154D02*
X027457Y018154D01*
X027506Y018106D02*
X024457Y018106D01*
X024457Y018057D02*
X027554Y018057D01*
X027603Y018009D02*
X024457Y018009D01*
X024437Y017960D02*
X027651Y017960D01*
X027700Y017912D02*
X024389Y017912D01*
X023335Y017912D02*
X019764Y017912D01*
X019813Y017960D02*
X023286Y017960D01*
X023267Y018009D02*
X019861Y018009D01*
X019910Y018057D02*
X023267Y018057D01*
X023267Y018106D02*
X019958Y018106D01*
X020007Y018154D02*
X023267Y018154D01*
X023267Y018203D02*
X020055Y018203D01*
X020057Y018251D02*
X023267Y018251D01*
X023267Y018300D02*
X020032Y018300D01*
X019983Y018348D02*
X023267Y018348D01*
X023267Y018397D02*
X019935Y018397D01*
X019886Y018445D02*
X023267Y018445D01*
X023267Y018494D02*
X019838Y018494D01*
X019789Y018542D02*
X023267Y018542D01*
X023267Y018591D02*
X019741Y018591D01*
X019692Y018639D02*
X023302Y018639D01*
X023373Y018736D02*
X019595Y018736D01*
X019547Y018785D02*
X023325Y018785D01*
X023276Y018833D02*
X019498Y018833D01*
X019450Y018882D02*
X023267Y018882D01*
X023267Y018930D02*
X019401Y018930D01*
X019353Y018979D02*
X022431Y018979D01*
X022382Y019027D02*
X019304Y019027D01*
X019256Y019076D02*
X022334Y019076D01*
X022317Y019124D02*
X019207Y019124D01*
X019159Y019173D02*
X022317Y019173D01*
X022317Y019221D02*
X019110Y019221D01*
X019062Y019270D02*
X022317Y019270D01*
X022633Y018979D02*
X023267Y018979D01*
X023493Y018688D02*
X019644Y018688D01*
X019223Y019318D02*
X019013Y019318D01*
X018965Y019367D02*
X019144Y019367D01*
X019095Y019415D02*
X018916Y019415D01*
X018868Y019464D02*
X019047Y019464D01*
X018998Y019512D02*
X018819Y019512D01*
X018771Y019561D02*
X018950Y019561D01*
X018901Y019609D02*
X018722Y019609D01*
X018674Y019658D02*
X018853Y019658D01*
X018804Y019706D02*
X018625Y019706D01*
X018577Y019755D02*
X018756Y019755D01*
X018707Y019803D02*
X018528Y019803D01*
X018480Y019852D02*
X018659Y019852D01*
X018610Y019900D02*
X018431Y019900D01*
X018383Y019949D02*
X018562Y019949D01*
X018513Y019997D02*
X018334Y019997D01*
X018286Y020046D02*
X018465Y020046D01*
X018416Y020094D02*
X016748Y020094D01*
X016731Y020046D02*
X016969Y020046D01*
X016949Y019997D02*
X016713Y019997D01*
X016695Y019949D02*
X016928Y019949D01*
X016908Y019900D02*
X016677Y019900D01*
X016659Y019852D02*
X016887Y019852D01*
X016866Y019803D02*
X016642Y019803D01*
X016624Y019755D02*
X016846Y019755D01*
X016825Y019706D02*
X016606Y019706D01*
X016589Y019661D02*
X016589Y019661D01*
X016588Y019658D02*
X016804Y019658D01*
X016783Y019609D02*
X016565Y019609D01*
X016541Y019561D02*
X016763Y019561D01*
X016742Y019512D02*
X016518Y019512D01*
X016495Y019464D02*
X016721Y019464D01*
X016698Y019415D02*
X016472Y019415D01*
X016448Y019367D02*
X016673Y019367D01*
X016648Y019318D02*
X016425Y019318D01*
X016402Y019270D02*
X016623Y019270D01*
X016599Y019221D02*
X016378Y019221D01*
X016355Y019173D02*
X016574Y019173D01*
X016549Y019124D02*
X016339Y019124D01*
X016388Y019076D02*
X016524Y019076D01*
X016500Y019027D02*
X016436Y019027D01*
X017114Y020046D02*
X018194Y020046D01*
X018155Y020007D02*
X018155Y020007D01*
X018145Y019997D02*
X017197Y019997D01*
X017279Y019949D02*
X018097Y019949D01*
X018048Y019900D02*
X017361Y019900D01*
X017444Y019852D02*
X018000Y019852D01*
X017951Y019803D02*
X017512Y019803D01*
X017466Y019839D02*
X017466Y019839D01*
X017575Y019755D02*
X017903Y019755D01*
X017854Y019706D02*
X017638Y019706D01*
X017701Y019658D02*
X017806Y019658D01*
X018589Y020667D02*
X016525Y020667D01*
X016420Y020624D01*
X016366Y020569D01*
X016361Y020567D01*
X016326Y020529D01*
X016290Y020493D01*
X016288Y020488D01*
X016284Y020483D01*
X016266Y020436D01*
X016247Y020389D01*
X016247Y020386D01*
X016232Y020348D01*
X016232Y021207D01*
X016381Y021823D01*
X016533Y023093D01*
X016533Y024371D01*
X016381Y025641D01*
X016232Y026257D01*
X016232Y027220D01*
X016247Y027180D01*
X016247Y027175D01*
X016265Y027131D01*
X016281Y027085D01*
X016287Y027079D01*
X016290Y027070D01*
X016324Y027036D01*
X016356Y027000D01*
X016364Y026996D01*
X016420Y026940D01*
X016525Y026897D01*
X018489Y026897D01*
X018493Y026896D01*
X018546Y026897D01*
X018599Y026897D01*
X018602Y026898D01*
X018606Y026898D01*
X018654Y026920D01*
X018703Y026940D01*
X018706Y026943D01*
X018709Y026944D01*
X018746Y026983D01*
X018784Y027020D01*
X018785Y027024D01*
X018978Y027227D01*
X019018Y027333D01*
X019015Y027446D01*
X018969Y027549D01*
X018887Y027628D01*
X018781Y027668D01*
X018668Y027665D01*
X018564Y027619D01*
X018420Y027467D01*
X018335Y027467D01*
X020057Y029189D01*
X020057Y029259D01*
X020007Y029309D01*
X019612Y029704D01*
X019839Y029998D01*
X019907Y030113D01*
X019907Y029809D01*
X020107Y029609D01*
X020107Y029111D01*
X020067Y029071D01*
X020067Y028893D01*
X020193Y028767D01*
X020334Y028767D01*
X019717Y028150D01*
X019717Y026900D01*
X019614Y026797D01*
X019517Y026700D01*
X019517Y025947D01*
X019343Y025947D01*
X019261Y025865D01*
X018201Y025865D01*
X018201Y026002D01*
X018128Y026075D01*
X017709Y026075D01*
X017850Y026217D01*
X018043Y026217D01*
X018093Y026167D01*
X018271Y026167D01*
X018397Y026293D01*
X018397Y026471D01*
X018271Y026597D01*
X018093Y026597D01*
X018043Y026547D01*
X017714Y026547D01*
X017617Y026450D01*
X017267Y026100D01*
X017267Y026075D01*
X016737Y026075D01*
X016664Y026002D01*
X016664Y025399D01*
X016737Y025325D01*
X017267Y025325D01*
X017267Y025215D01*
X017251Y025231D01*
X017114Y025288D01*
X016964Y025288D01*
X016827Y025231D01*
X016721Y025125D01*
X016664Y024988D01*
X016664Y024838D01*
X016721Y024701D01*
X016827Y024595D01*
X016964Y024538D01*
X017114Y024538D01*
X017251Y024595D01*
X017267Y024611D01*
X017267Y024587D01*
X017161Y024481D01*
X017114Y024501D01*
X016964Y024501D01*
X016827Y024443D01*
X016721Y024338D01*
X016664Y024200D01*
X016664Y024051D01*
X016721Y023913D01*
X016827Y023808D01*
X016964Y023751D01*
X017114Y023751D01*
X017251Y023808D01*
X017357Y023913D01*
X017414Y024051D01*
X017414Y024200D01*
X017394Y024248D01*
X017500Y024354D01*
X017597Y024450D01*
X017597Y024612D01*
X017614Y024595D01*
X017752Y024538D01*
X017901Y024538D01*
X018039Y024595D01*
X018144Y024701D01*
X018164Y024748D01*
X018812Y024748D01*
X018843Y024717D01*
X019021Y024717D01*
X019147Y024843D01*
X019147Y025021D01*
X019021Y025147D01*
X018843Y025147D01*
X018774Y025078D01*
X018164Y025078D01*
X018144Y025125D01*
X018039Y025231D01*
X017901Y025288D01*
X017752Y025288D01*
X017614Y025231D01*
X017597Y025214D01*
X017597Y025325D01*
X018128Y025325D01*
X018201Y025399D01*
X018201Y025535D01*
X019281Y025535D01*
X019217Y025471D01*
X019217Y025293D01*
X019343Y025167D01*
X019521Y025167D01*
X019567Y025213D01*
X019567Y024571D01*
X019517Y024521D01*
X019517Y024343D01*
X019643Y024217D01*
X019558Y024217D01*
X019502Y024240D02*
X019300Y024240D01*
X019113Y024163D01*
X018970Y024020D01*
X018893Y023833D01*
X018893Y023631D01*
X018970Y023444D01*
X019113Y023301D01*
X019124Y023297D01*
X018950Y023297D01*
X018841Y023407D01*
X018744Y023503D01*
X018164Y023503D01*
X018144Y023551D01*
X018128Y023567D01*
X018243Y023567D01*
X018293Y023517D01*
X018471Y023517D01*
X018597Y023643D01*
X018597Y023821D01*
X018471Y023947D01*
X018293Y023947D01*
X018243Y023897D01*
X018128Y023897D01*
X018144Y023913D01*
X018164Y023961D01*
X018394Y023961D01*
X018650Y024217D01*
X018721Y024217D01*
X019244Y024217D01*
X019127Y024168D02*
X018602Y024168D01*
X018553Y024120D02*
X019071Y024120D01*
X019022Y024071D02*
X018505Y024071D01*
X018456Y024023D02*
X018974Y024023D01*
X018952Y023974D02*
X018408Y023974D01*
X018492Y023926D02*
X018932Y023926D01*
X018912Y023877D02*
X018540Y023877D01*
X018589Y023829D02*
X018893Y023829D01*
X018893Y023780D02*
X018597Y023780D01*
X018597Y023732D02*
X018893Y023732D01*
X018893Y023683D02*
X018597Y023683D01*
X018589Y023635D02*
X018893Y023635D01*
X018912Y023586D02*
X018540Y023586D01*
X018492Y023538D02*
X018932Y023538D01*
X018952Y023489D02*
X018758Y023489D01*
X018806Y023441D02*
X018974Y023441D01*
X019022Y023392D02*
X018855Y023392D01*
X018903Y023344D02*
X019071Y023344D01*
X018734Y023047D02*
X018089Y023047D01*
X017948Y022906D01*
X017901Y022926D01*
X017752Y022926D01*
X017614Y022869D01*
X017508Y022763D01*
X017451Y022625D01*
X017451Y022476D01*
X017508Y022338D01*
X017614Y022233D01*
X017752Y022176D01*
X017901Y022176D01*
X018039Y022233D01*
X018144Y022338D01*
X018201Y022476D01*
X018201Y022625D01*
X018182Y022673D01*
X018226Y022717D01*
X020243Y022717D01*
X020293Y022667D01*
X020471Y022667D01*
X020597Y022793D01*
X020597Y022956D01*
X020810Y022956D01*
X020810Y022647D01*
X020830Y022627D01*
X020830Y022617D01*
X019455Y022617D01*
X019347Y022509D01*
X018255Y021417D01*
X017409Y021417D01*
X017313Y021513D01*
X017351Y021551D01*
X017408Y021689D01*
X017408Y021838D01*
X017351Y021976D01*
X017245Y022081D01*
X017107Y022138D01*
X016958Y022138D01*
X016820Y022081D01*
X016715Y021976D01*
X016658Y021838D01*
X016658Y021689D01*
X016715Y021551D01*
X016820Y021445D01*
X016882Y021420D01*
X017147Y021155D01*
X017255Y021047D01*
X018409Y021047D01*
X019609Y022247D01*
X021092Y022247D01*
X021200Y022355D01*
X021200Y022527D01*
X022015Y022527D01*
X022015Y021839D01*
X021932Y021839D01*
X021874Y021781D01*
X021409Y021781D01*
X021379Y021751D01*
X021253Y021751D01*
X021180Y021677D01*
X021180Y021298D01*
X021253Y021225D01*
X021711Y021225D01*
X021784Y021298D01*
X021784Y021431D01*
X021874Y021431D01*
X021932Y021373D01*
X022508Y021373D01*
X022581Y021446D01*
X022581Y021766D01*
X022508Y021839D01*
X022425Y021839D01*
X022425Y022585D01*
X022562Y022722D01*
X022574Y022693D01*
X022632Y022636D01*
X022517Y022521D01*
X022517Y022343D01*
X022643Y022217D01*
X022821Y022217D01*
X022947Y022343D01*
X022947Y022414D01*
X022950Y022417D01*
X023300Y022417D01*
X023397Y022514D01*
X023602Y022718D01*
X023602Y022998D01*
X023617Y023013D01*
X023617Y023372D01*
X023544Y023445D01*
X023445Y023445D01*
X023445Y024018D01*
X024018Y024018D01*
X024018Y023330D01*
X024092Y023256D01*
X024217Y023256D01*
X024217Y022714D01*
X024317Y022614D01*
X024317Y022514D01*
X024414Y022417D01*
X024467Y022364D01*
X024467Y022350D01*
X024164Y022047D01*
X023347Y022047D01*
X023347Y022071D01*
X023221Y022197D01*
X023043Y022197D01*
X022917Y022071D01*
X022917Y021893D01*
X022971Y021839D01*
X022956Y021839D01*
X022883Y021766D01*
X022883Y021446D01*
X022956Y021373D01*
X023501Y021373D01*
X023577Y021297D01*
X023577Y021117D01*
X023541Y021081D01*
X023532Y021091D01*
X022956Y021091D01*
X022883Y021018D01*
X022883Y020698D01*
X022956Y020625D01*
X023532Y020625D01*
X023560Y020653D01*
X023577Y020653D01*
X023577Y020447D01*
X023697Y020327D01*
X023847Y020177D01*
X024867Y020177D01*
X024987Y020297D01*
X025067Y020377D01*
X025187Y020497D01*
X025187Y020556D01*
X025231Y020556D01*
X025304Y020629D01*
X025304Y020653D01*
X025404Y020653D01*
X025432Y020625D01*
X025663Y020625D01*
X026141Y020147D01*
X022000Y020147D01*
X021797Y020350D01*
X021797Y020417D01*
X022050Y020417D01*
X022258Y020625D01*
X022508Y020625D01*
X022581Y020698D01*
X022581Y021018D01*
X022508Y021091D01*
X021932Y021091D01*
X021859Y021018D01*
X021859Y020747D01*
X021116Y020747D01*
X021054Y020809D01*
X021054Y021166D01*
X020981Y021239D01*
X020483Y021239D01*
X020410Y021166D01*
X020410Y020637D01*
X020297Y020750D01*
X020297Y021243D01*
X020347Y021293D01*
X020347Y021471D01*
X020221Y021597D01*
X020043Y021597D01*
X019917Y021471D01*
X019917Y021293D01*
X019967Y021243D01*
X019967Y020614D01*
X020317Y020264D01*
X020414Y020167D01*
X020593Y020167D01*
X020643Y020117D01*
X020821Y020117D01*
X020947Y020243D01*
X020947Y020421D01*
X020821Y020547D01*
X020643Y020547D01*
X020593Y020497D01*
X020550Y020497D01*
X020491Y020556D01*
X020840Y020556D01*
X020882Y020514D01*
X020979Y020417D01*
X021367Y020417D01*
X021367Y020243D01*
X021493Y020117D01*
X021564Y020117D01*
X021767Y019914D01*
X021814Y019867D01*
X019450Y019867D01*
X018693Y020624D01*
X018589Y020667D01*
X018683Y020628D02*
X019967Y020628D01*
X019967Y020676D02*
X016232Y020676D01*
X016232Y020628D02*
X016431Y020628D01*
X016376Y020579D02*
X016232Y020579D01*
X016232Y020531D02*
X016328Y020531D01*
X016284Y020482D02*
X016232Y020482D01*
X016232Y020434D02*
X016266Y020434D01*
X016247Y020385D02*
X016232Y020385D01*
X016232Y020725D02*
X019967Y020725D01*
X019967Y020773D02*
X016232Y020773D01*
X016232Y020822D02*
X019967Y020822D01*
X019967Y020870D02*
X016232Y020870D01*
X016232Y020919D02*
X019967Y020919D01*
X019967Y020967D02*
X016232Y020967D01*
X016232Y021016D02*
X019967Y021016D01*
X019967Y021064D02*
X018426Y021064D01*
X018475Y021113D02*
X019967Y021113D01*
X019967Y021161D02*
X018523Y021161D01*
X018572Y021210D02*
X019967Y021210D01*
X019951Y021258D02*
X018620Y021258D01*
X018669Y021307D02*
X019917Y021307D01*
X019917Y021355D02*
X018717Y021355D01*
X018766Y021404D02*
X019917Y021404D01*
X019917Y021452D02*
X018814Y021452D01*
X018863Y021501D02*
X019947Y021501D01*
X019995Y021549D02*
X018911Y021549D01*
X018960Y021598D02*
X021180Y021598D01*
X021180Y021646D02*
X019008Y021646D01*
X019057Y021695D02*
X021197Y021695D01*
X021246Y021743D02*
X019105Y021743D01*
X019154Y021792D02*
X021885Y021792D01*
X022015Y021840D02*
X019202Y021840D01*
X019251Y021889D02*
X022015Y021889D01*
X022015Y021937D02*
X019299Y021937D01*
X019348Y021986D02*
X022015Y021986D01*
X022015Y022034D02*
X019396Y022034D01*
X019445Y022083D02*
X022015Y022083D01*
X022015Y022131D02*
X019493Y022131D01*
X019542Y022180D02*
X022015Y022180D01*
X022015Y022228D02*
X019590Y022228D01*
X019309Y022471D02*
X018199Y022471D01*
X018201Y022519D02*
X019358Y022519D01*
X019406Y022568D02*
X018201Y022568D01*
X018201Y022616D02*
X019455Y022616D01*
X019261Y022422D02*
X018179Y022422D01*
X018159Y022374D02*
X019212Y022374D01*
X019164Y022325D02*
X018131Y022325D01*
X018083Y022277D02*
X019115Y022277D01*
X019067Y022228D02*
X018028Y022228D01*
X017911Y022180D02*
X019018Y022180D01*
X018970Y022131D02*
X017124Y022131D01*
X017114Y022176D02*
X017251Y022233D01*
X017357Y022338D01*
X017414Y022476D01*
X017414Y022625D01*
X017394Y022673D01*
X017597Y022875D01*
X017597Y023037D01*
X017614Y023020D01*
X017752Y022963D01*
X017901Y022963D01*
X018039Y023020D01*
X018144Y023126D01*
X018164Y023173D01*
X018607Y023173D01*
X018734Y023047D01*
X018728Y023053D02*
X018071Y023053D01*
X018047Y023004D02*
X018000Y023004D01*
X017998Y022956D02*
X017597Y022956D01*
X017597Y023004D02*
X017652Y023004D01*
X017597Y022907D02*
X017707Y022907D01*
X017604Y022859D02*
X017580Y022859D01*
X017556Y022810D02*
X017532Y022810D01*
X017508Y022762D02*
X017483Y022762D01*
X017488Y022713D02*
X017435Y022713D01*
X017468Y022665D02*
X017398Y022665D01*
X017414Y022616D02*
X017451Y022616D01*
X017451Y022568D02*
X017414Y022568D01*
X017414Y022519D02*
X017451Y022519D01*
X017454Y022471D02*
X017412Y022471D01*
X017392Y022422D02*
X017474Y022422D01*
X017494Y022374D02*
X017372Y022374D01*
X017344Y022325D02*
X017521Y022325D01*
X017570Y022277D02*
X017295Y022277D01*
X017241Y022228D02*
X017625Y022228D01*
X017742Y022180D02*
X017123Y022180D01*
X017114Y022176D02*
X016964Y022176D01*
X016827Y022233D01*
X016721Y022338D01*
X016664Y022476D01*
X016664Y022625D01*
X016721Y022763D01*
X016827Y022869D01*
X016964Y022926D01*
X017114Y022926D01*
X017161Y022906D01*
X017267Y023012D01*
X017267Y023036D01*
X017251Y023020D01*
X017114Y022963D01*
X016964Y022963D01*
X016827Y023020D01*
X016721Y023126D01*
X016664Y023264D01*
X016664Y023413D01*
X016721Y023551D01*
X016827Y023656D01*
X016964Y023713D01*
X017114Y023713D01*
X017251Y023656D01*
X017267Y023641D01*
X017267Y023650D01*
X017364Y023747D01*
X017514Y023897D01*
X017525Y023897D01*
X017508Y023913D01*
X017451Y024051D01*
X017451Y024200D01*
X017508Y024338D01*
X017614Y024443D01*
X017752Y024501D01*
X017901Y024501D01*
X018039Y024443D01*
X018144Y024338D01*
X018164Y024291D01*
X018257Y024291D01*
X018417Y024450D01*
X018417Y024521D01*
X018543Y024647D01*
X018721Y024647D01*
X018847Y024521D01*
X018847Y024343D01*
X018721Y024217D01*
X018769Y024265D02*
X019594Y024265D01*
X019643Y024217D02*
X019821Y024217D01*
X019943Y024217D01*
X020121Y024217D01*
X020184Y024217D01*
X020169Y024265D02*
X020232Y024265D01*
X020218Y024314D02*
X020281Y024314D01*
X020247Y024343D02*
X020247Y024521D01*
X020197Y024571D01*
X020197Y025255D01*
X020243Y025209D01*
X020333Y025172D01*
X020379Y025172D01*
X020554Y024997D01*
X020555Y024992D01*
X020605Y024946D01*
X020653Y024898D01*
X020658Y024898D01*
X020705Y024855D01*
X020863Y024697D01*
X020664Y024697D01*
X020064Y024097D01*
X019967Y024000D01*
X019967Y023600D01*
X019847Y023480D01*
X019909Y023631D01*
X019909Y023833D01*
X019832Y024020D01*
X019689Y024163D01*
X019502Y024240D01*
X019546Y024314D02*
X018818Y024314D01*
X018847Y024362D02*
X019517Y024362D01*
X019517Y024411D02*
X018847Y024411D01*
X018847Y024459D02*
X019517Y024459D01*
X019517Y024508D02*
X018847Y024508D01*
X018811Y024556D02*
X019552Y024556D01*
X019567Y024605D02*
X018763Y024605D01*
X018501Y024605D02*
X018049Y024605D01*
X018097Y024653D02*
X019567Y024653D01*
X019567Y024702D02*
X018145Y024702D01*
X017945Y024556D02*
X018452Y024556D01*
X018417Y024508D02*
X017597Y024508D01*
X017597Y024556D02*
X017707Y024556D01*
X017652Y024459D02*
X017597Y024459D01*
X017581Y024411D02*
X017558Y024411D01*
X017533Y024362D02*
X017509Y024362D01*
X017498Y024314D02*
X017461Y024314D01*
X017478Y024265D02*
X017412Y024265D01*
X017407Y024217D02*
X017458Y024217D01*
X017451Y024168D02*
X017414Y024168D01*
X017414Y024120D02*
X017451Y024120D01*
X017451Y024071D02*
X017414Y024071D01*
X017402Y024023D02*
X017463Y024023D01*
X017483Y023974D02*
X017382Y023974D01*
X017362Y023926D02*
X017503Y023926D01*
X017494Y023877D02*
X017321Y023877D01*
X017273Y023829D02*
X017446Y023829D01*
X017397Y023780D02*
X017186Y023780D01*
X017186Y023683D02*
X017300Y023683D01*
X017349Y023732D02*
X016533Y023732D01*
X016533Y023780D02*
X016892Y023780D01*
X016892Y023683D02*
X016533Y023683D01*
X016533Y023635D02*
X016805Y023635D01*
X016757Y023586D02*
X016533Y023586D01*
X016533Y023538D02*
X016716Y023538D01*
X016696Y023489D02*
X016533Y023489D01*
X016533Y023441D02*
X016676Y023441D01*
X016664Y023392D02*
X016533Y023392D01*
X016533Y023344D02*
X016664Y023344D01*
X016664Y023295D02*
X016533Y023295D01*
X016533Y023247D02*
X016671Y023247D01*
X016691Y023198D02*
X016533Y023198D01*
X016533Y023150D02*
X016711Y023150D01*
X016745Y023101D02*
X016533Y023101D01*
X016529Y023053D02*
X016794Y023053D01*
X016865Y023004D02*
X016523Y023004D01*
X016517Y022956D02*
X017211Y022956D01*
X017213Y023004D02*
X017259Y023004D01*
X017162Y022907D02*
X017158Y022907D01*
X016920Y022907D02*
X016511Y022907D01*
X016505Y022859D02*
X016817Y022859D01*
X016768Y022810D02*
X016500Y022810D01*
X016494Y022762D02*
X016721Y022762D01*
X016700Y022713D02*
X016488Y022713D01*
X016482Y022665D02*
X016680Y022665D01*
X016664Y022616D02*
X016476Y022616D01*
X016471Y022568D02*
X016664Y022568D01*
X016664Y022519D02*
X016465Y022519D01*
X016459Y022471D02*
X016666Y022471D01*
X016686Y022422D02*
X016453Y022422D01*
X016447Y022374D02*
X016706Y022374D01*
X016734Y022325D02*
X016442Y022325D01*
X016436Y022277D02*
X016783Y022277D01*
X016837Y022228D02*
X016430Y022228D01*
X016424Y022180D02*
X016954Y022180D01*
X016941Y022131D02*
X016418Y022131D01*
X016413Y022083D02*
X016824Y022083D01*
X016773Y022034D02*
X016407Y022034D01*
X016401Y021986D02*
X016725Y021986D01*
X016699Y021937D02*
X016395Y021937D01*
X016389Y021889D02*
X016679Y021889D01*
X016659Y021840D02*
X016384Y021840D01*
X016374Y021792D02*
X016658Y021792D01*
X016658Y021743D02*
X016362Y021743D01*
X016350Y021695D02*
X016658Y021695D01*
X016675Y021646D02*
X016339Y021646D01*
X016327Y021598D02*
X016695Y021598D01*
X016716Y021549D02*
X016315Y021549D01*
X016303Y021501D02*
X016765Y021501D01*
X016813Y021452D02*
X016292Y021452D01*
X016280Y021404D02*
X016898Y021404D01*
X016947Y021355D02*
X016268Y021355D01*
X016256Y021307D02*
X016995Y021307D01*
X017044Y021258D02*
X016244Y021258D01*
X016233Y021210D02*
X017092Y021210D01*
X017141Y021161D02*
X016232Y021161D01*
X016232Y021113D02*
X017189Y021113D01*
X017238Y021064D02*
X016232Y021064D01*
X017325Y021501D02*
X018339Y021501D01*
X018291Y021452D02*
X017373Y021452D01*
X017349Y021549D02*
X018388Y021549D01*
X018436Y021598D02*
X017370Y021598D01*
X017390Y021646D02*
X018485Y021646D01*
X018533Y021695D02*
X017408Y021695D01*
X017408Y021743D02*
X018582Y021743D01*
X018630Y021792D02*
X017408Y021792D01*
X017407Y021840D02*
X018679Y021840D01*
X018727Y021889D02*
X017387Y021889D01*
X017367Y021937D02*
X018776Y021937D01*
X018824Y021986D02*
X017341Y021986D01*
X017292Y022034D02*
X018873Y022034D01*
X018921Y022083D02*
X017241Y022083D01*
X017945Y022907D02*
X017950Y022907D01*
X018120Y023101D02*
X018679Y023101D01*
X018631Y023150D02*
X018154Y023150D01*
X018150Y023538D02*
X018272Y023538D01*
X018272Y023926D02*
X018150Y023926D01*
X018154Y024314D02*
X018281Y024314D01*
X018329Y024362D02*
X018120Y024362D01*
X018071Y024411D02*
X018378Y024411D01*
X018417Y024459D02*
X018000Y024459D01*
X017604Y024605D02*
X017597Y024605D01*
X017267Y024605D02*
X017261Y024605D01*
X017236Y024556D02*
X017158Y024556D01*
X017188Y024508D02*
X016517Y024508D01*
X016511Y024556D02*
X016920Y024556D01*
X016865Y024459D02*
X016523Y024459D01*
X016529Y024411D02*
X016794Y024411D01*
X016745Y024362D02*
X016533Y024362D01*
X016533Y024314D02*
X016711Y024314D01*
X016691Y024265D02*
X016533Y024265D01*
X016533Y024217D02*
X016671Y024217D01*
X016664Y024168D02*
X016533Y024168D01*
X016533Y024120D02*
X016664Y024120D01*
X016664Y024071D02*
X016533Y024071D01*
X016533Y024023D02*
X016676Y024023D01*
X016696Y023974D02*
X016533Y023974D01*
X016533Y023926D02*
X016716Y023926D01*
X016757Y023877D02*
X016533Y023877D01*
X016533Y023829D02*
X016805Y023829D01*
X016817Y024605D02*
X016505Y024605D01*
X016500Y024653D02*
X016768Y024653D01*
X016721Y024702D02*
X016494Y024702D01*
X016488Y024750D02*
X016700Y024750D01*
X016680Y024799D02*
X016482Y024799D01*
X016476Y024847D02*
X016664Y024847D01*
X016664Y024896D02*
X016471Y024896D01*
X016465Y024944D02*
X016664Y024944D01*
X016666Y024993D02*
X016459Y024993D01*
X016453Y025041D02*
X016686Y025041D01*
X016706Y025090D02*
X016447Y025090D01*
X016442Y025138D02*
X016734Y025138D01*
X016783Y025187D02*
X016436Y025187D01*
X016430Y025235D02*
X016837Y025235D01*
X016955Y025284D02*
X016424Y025284D01*
X016418Y025332D02*
X016730Y025332D01*
X016682Y025381D02*
X016413Y025381D01*
X016407Y025429D02*
X016664Y025429D01*
X016664Y025478D02*
X016401Y025478D01*
X016395Y025526D02*
X016664Y025526D01*
X016664Y025575D02*
X016389Y025575D01*
X016384Y025623D02*
X016664Y025623D01*
X016664Y025672D02*
X016374Y025672D01*
X016381Y025641D02*
X016381Y025641D01*
X016362Y025720D02*
X016664Y025720D01*
X016664Y025769D02*
X016350Y025769D01*
X016339Y025817D02*
X016664Y025817D01*
X016664Y025866D02*
X016327Y025866D01*
X016315Y025914D02*
X016664Y025914D01*
X016664Y025963D02*
X016303Y025963D01*
X016292Y026011D02*
X016673Y026011D01*
X016722Y026060D02*
X016280Y026060D01*
X016268Y026108D02*
X017275Y026108D01*
X017324Y026157D02*
X016256Y026157D01*
X016244Y026205D02*
X017372Y026205D01*
X017421Y026254D02*
X016233Y026254D01*
X016232Y026302D02*
X017469Y026302D01*
X017518Y026351D02*
X016232Y026351D01*
X016232Y026399D02*
X017566Y026399D01*
X017615Y026448D02*
X016232Y026448D01*
X016232Y026496D02*
X017663Y026496D01*
X017712Y026545D02*
X016232Y026545D01*
X016232Y026593D02*
X018089Y026593D01*
X018274Y026593D02*
X019517Y026593D01*
X019517Y026545D02*
X018323Y026545D01*
X018371Y026496D02*
X019517Y026496D01*
X019517Y026448D02*
X018397Y026448D01*
X018397Y026399D02*
X019517Y026399D01*
X019517Y026351D02*
X018397Y026351D01*
X018397Y026302D02*
X019517Y026302D01*
X019517Y026254D02*
X018358Y026254D01*
X018309Y026205D02*
X019517Y026205D01*
X019517Y026157D02*
X017790Y026157D01*
X017742Y026108D02*
X019517Y026108D01*
X019517Y026060D02*
X018144Y026060D01*
X018192Y026011D02*
X019517Y026011D01*
X019517Y025963D02*
X018201Y025963D01*
X018201Y025914D02*
X019310Y025914D01*
X019262Y025866D02*
X018201Y025866D01*
X018201Y025526D02*
X019272Y025526D01*
X019224Y025478D02*
X018201Y025478D01*
X018201Y025429D02*
X019217Y025429D01*
X019217Y025381D02*
X018184Y025381D01*
X018135Y025332D02*
X019217Y025332D01*
X019226Y025284D02*
X017911Y025284D01*
X018028Y025235D02*
X019274Y025235D01*
X019323Y025187D02*
X018083Y025187D01*
X018131Y025138D02*
X018834Y025138D01*
X018786Y025090D02*
X018159Y025090D01*
X017742Y025284D02*
X017597Y025284D01*
X017597Y025235D02*
X017625Y025235D01*
X017267Y025235D02*
X017241Y025235D01*
X017267Y025284D02*
X017123Y025284D01*
X017839Y026205D02*
X018054Y026205D01*
X018686Y026933D02*
X019717Y026933D01*
X019717Y026981D02*
X018745Y026981D01*
X018791Y027030D02*
X019717Y027030D01*
X019717Y027078D02*
X018837Y027078D01*
X018883Y027127D02*
X019717Y027127D01*
X019717Y027175D02*
X018929Y027175D01*
X018975Y027224D02*
X019717Y027224D01*
X019717Y027272D02*
X018995Y027272D01*
X019014Y027321D02*
X019717Y027321D01*
X019717Y027369D02*
X019017Y027369D01*
X019016Y027418D02*
X019717Y027418D01*
X019717Y027466D02*
X019006Y027466D01*
X018985Y027515D02*
X019717Y027515D01*
X019717Y027563D02*
X018955Y027563D01*
X018904Y027612D02*
X019717Y027612D01*
X019717Y027660D02*
X018802Y027660D01*
X018657Y027660D02*
X018528Y027660D01*
X018557Y027612D02*
X018480Y027612D01*
X018511Y027563D02*
X018431Y027563D01*
X018465Y027515D02*
X018383Y027515D01*
X018577Y027709D02*
X019717Y027709D01*
X019717Y027757D02*
X018625Y027757D01*
X018674Y027806D02*
X019717Y027806D01*
X019717Y027854D02*
X018722Y027854D01*
X018771Y027903D02*
X019717Y027903D01*
X019717Y027951D02*
X018819Y027951D01*
X018868Y028000D02*
X019717Y028000D01*
X019717Y028048D02*
X018916Y028048D01*
X018965Y028097D02*
X019717Y028097D01*
X019717Y028145D02*
X019013Y028145D01*
X019062Y028194D02*
X019761Y028194D01*
X019809Y028242D02*
X019110Y028242D01*
X019159Y028291D02*
X019858Y028291D01*
X019906Y028339D02*
X019207Y028339D01*
X019256Y028388D02*
X019955Y028388D01*
X020003Y028436D02*
X019304Y028436D01*
X019353Y028485D02*
X020052Y028485D01*
X020100Y028533D02*
X019401Y028533D01*
X019450Y028582D02*
X020149Y028582D01*
X020197Y028630D02*
X019498Y028630D01*
X019547Y028679D02*
X020246Y028679D01*
X020294Y028727D02*
X019595Y028727D01*
X019644Y028776D02*
X020184Y028776D01*
X020135Y028824D02*
X019692Y028824D01*
X019741Y028873D02*
X020087Y028873D01*
X020067Y028921D02*
X019789Y028921D01*
X019838Y028970D02*
X020067Y028970D01*
X020067Y029018D02*
X019886Y029018D01*
X019935Y029067D02*
X020067Y029067D01*
X020107Y029115D02*
X019983Y029115D01*
X020032Y029164D02*
X020107Y029164D01*
X020107Y029212D02*
X020057Y029212D01*
X020055Y029261D02*
X020107Y029261D01*
X020107Y029309D02*
X020007Y029309D01*
X019958Y029358D02*
X020107Y029358D01*
X020107Y029406D02*
X019910Y029406D01*
X019861Y029455D02*
X020107Y029455D01*
X020107Y029503D02*
X019813Y029503D01*
X019764Y029552D02*
X020107Y029552D01*
X020107Y029600D02*
X019716Y029600D01*
X019667Y029649D02*
X020067Y029649D01*
X020019Y029697D02*
X019619Y029697D01*
X019645Y029746D02*
X019970Y029746D01*
X019922Y029794D02*
X019682Y029794D01*
X019720Y029843D02*
X019907Y029843D01*
X019907Y029891D02*
X019757Y029891D01*
X019794Y029940D02*
X019907Y029940D01*
X019907Y029988D02*
X019832Y029988D01*
X019839Y029998D02*
X019839Y029998D01*
X019862Y030037D02*
X019907Y030037D01*
X019907Y030085D02*
X019890Y030085D01*
X021167Y028384D02*
X020647Y027864D01*
X020647Y026547D01*
X020764Y026547D01*
X021817Y027600D01*
X021817Y028784D01*
X021497Y028464D01*
X021497Y028300D01*
X021500Y028297D01*
X021621Y028297D01*
X021747Y028171D01*
X021747Y027993D01*
X021621Y027867D01*
X021443Y027867D01*
X021317Y027993D01*
X021317Y028014D01*
X021167Y028164D01*
X021167Y028384D01*
X021167Y028339D02*
X021123Y028339D01*
X021167Y028291D02*
X021074Y028291D01*
X021026Y028242D02*
X021167Y028242D01*
X021167Y028194D02*
X020977Y028194D01*
X020929Y028145D02*
X021185Y028145D01*
X021234Y028097D02*
X020880Y028097D01*
X020832Y028048D02*
X021282Y028048D01*
X021317Y028000D02*
X020783Y028000D01*
X020735Y027951D02*
X021358Y027951D01*
X021407Y027903D02*
X020686Y027903D01*
X020647Y027854D02*
X021817Y027854D01*
X021817Y027806D02*
X020647Y027806D01*
X020647Y027757D02*
X021817Y027757D01*
X021817Y027709D02*
X020647Y027709D01*
X020647Y027660D02*
X021817Y027660D01*
X021817Y027612D02*
X020647Y027612D01*
X020647Y027563D02*
X021780Y027563D01*
X021732Y027515D02*
X020647Y027515D01*
X020647Y027466D02*
X021683Y027466D01*
X021635Y027418D02*
X020647Y027418D01*
X020647Y027369D02*
X021586Y027369D01*
X021538Y027321D02*
X020647Y027321D01*
X020647Y027272D02*
X021489Y027272D01*
X021441Y027224D02*
X020647Y027224D01*
X020647Y027175D02*
X021392Y027175D01*
X021344Y027127D02*
X020647Y027127D01*
X020647Y027078D02*
X021295Y027078D01*
X021247Y027030D02*
X020647Y027030D01*
X020647Y026981D02*
X021198Y026981D01*
X021150Y026933D02*
X020647Y026933D01*
X020647Y026884D02*
X021101Y026884D01*
X021053Y026836D02*
X020647Y026836D01*
X020647Y026787D02*
X021004Y026787D01*
X020956Y026739D02*
X020647Y026739D01*
X020647Y026690D02*
X020907Y026690D01*
X020859Y026642D02*
X020647Y026642D01*
X020647Y026593D02*
X020810Y026593D01*
X021034Y026351D02*
X021667Y026351D01*
X021667Y026321D02*
X021617Y026271D01*
X021617Y026093D01*
X021743Y025967D01*
X021921Y025967D01*
X022047Y026093D01*
X022047Y026271D01*
X021997Y026321D01*
X021997Y027014D01*
X022197Y027214D01*
X022197Y026401D01*
X022167Y026371D01*
X022167Y026193D01*
X022293Y026067D01*
X022334Y026067D01*
X022264Y025997D01*
X022164Y025997D01*
X022067Y025900D01*
X022014Y025847D01*
X021971Y025847D01*
X021921Y025897D01*
X021743Y025897D01*
X021617Y025771D01*
X021617Y025593D01*
X021743Y025467D01*
X021921Y025467D01*
X021971Y025517D01*
X022013Y025517D01*
X021917Y025421D01*
X021917Y025243D01*
X022043Y025117D01*
X022221Y025117D01*
X022271Y025167D01*
X022450Y025167D01*
X022547Y025264D01*
X022867Y025584D01*
X022867Y025443D01*
X022897Y025413D01*
X022897Y025257D01*
X022809Y025257D01*
X022509Y024957D01*
X021098Y024957D01*
X020998Y025058D01*
X020997Y025063D01*
X020947Y025109D01*
X020898Y025157D01*
X020894Y025157D01*
X020847Y025200D01*
X020651Y025396D01*
X020964Y025709D01*
X021520Y025709D01*
X021593Y025782D01*
X021593Y026240D01*
X021520Y026313D01*
X020997Y026313D01*
X020997Y026314D01*
X021667Y026984D01*
X021667Y026321D01*
X021648Y026302D02*
X021531Y026302D01*
X021579Y026254D02*
X021617Y026254D01*
X021617Y026205D02*
X021593Y026205D01*
X021593Y026157D02*
X021617Y026157D01*
X021617Y026108D02*
X021593Y026108D01*
X021593Y026060D02*
X021650Y026060D01*
X021698Y026011D02*
X021593Y026011D01*
X021593Y025963D02*
X022130Y025963D01*
X022081Y025914D02*
X021593Y025914D01*
X021593Y025866D02*
X021712Y025866D01*
X021663Y025817D02*
X021593Y025817D01*
X021580Y025769D02*
X021617Y025769D01*
X021617Y025720D02*
X021531Y025720D01*
X021617Y025672D02*
X020927Y025672D01*
X020878Y025623D02*
X021617Y025623D01*
X021635Y025575D02*
X020830Y025575D01*
X020781Y025526D02*
X021683Y025526D01*
X021732Y025478D02*
X020733Y025478D01*
X020684Y025429D02*
X021925Y025429D01*
X021917Y025381D02*
X020665Y025381D01*
X020714Y025332D02*
X021917Y025332D01*
X021917Y025284D02*
X020762Y025284D01*
X020811Y025235D02*
X021924Y025235D01*
X021973Y025187D02*
X020861Y025187D01*
X020917Y025138D02*
X022021Y025138D01*
X022242Y025138D02*
X022691Y025138D01*
X022642Y025090D02*
X020967Y025090D01*
X021014Y025041D02*
X022594Y025041D01*
X022545Y024993D02*
X021062Y024993D01*
X020810Y024750D02*
X020197Y024750D01*
X020197Y024702D02*
X020858Y024702D01*
X020761Y024799D02*
X020197Y024799D01*
X020197Y024847D02*
X020713Y024847D01*
X020660Y024896D02*
X020197Y024896D01*
X020197Y024944D02*
X020607Y024944D01*
X020555Y024993D02*
X020197Y024993D01*
X020197Y025041D02*
X020510Y025041D01*
X020461Y025090D02*
X020197Y025090D01*
X020197Y025138D02*
X020413Y025138D01*
X020297Y025187D02*
X020197Y025187D01*
X020197Y025235D02*
X020217Y025235D01*
X019567Y025187D02*
X019541Y025187D01*
X019567Y025138D02*
X019029Y025138D01*
X019078Y025090D02*
X019567Y025090D01*
X019567Y025041D02*
X019126Y025041D01*
X019147Y024993D02*
X019567Y024993D01*
X019567Y024944D02*
X019147Y024944D01*
X019147Y024896D02*
X019567Y024896D01*
X019567Y024847D02*
X019147Y024847D01*
X019103Y024799D02*
X019567Y024799D01*
X019567Y024750D02*
X019054Y024750D01*
X019821Y024217D02*
X019882Y024278D01*
X019943Y024217D01*
X019894Y024265D02*
X019869Y024265D01*
X019732Y024120D02*
X020087Y024120D01*
X020135Y024168D02*
X019675Y024168D01*
X019780Y024071D02*
X020038Y024071D01*
X019990Y024023D02*
X019829Y024023D01*
X019851Y023974D02*
X019967Y023974D01*
X019967Y023926D02*
X019871Y023926D01*
X019891Y023877D02*
X019967Y023877D01*
X019967Y023829D02*
X019909Y023829D01*
X019909Y023780D02*
X019967Y023780D01*
X019967Y023732D02*
X019909Y023732D01*
X019909Y023683D02*
X019967Y023683D01*
X019967Y023635D02*
X019909Y023635D01*
X019891Y023586D02*
X019953Y023586D01*
X019905Y023538D02*
X019871Y023538D01*
X019856Y023489D02*
X019851Y023489D01*
X020294Y023461D02*
X020297Y023464D01*
X020297Y023864D01*
X020772Y024339D01*
X020772Y024153D01*
X020845Y024079D01*
X021185Y024079D01*
X021212Y024106D01*
X021239Y024079D01*
X021579Y024079D01*
X021606Y024106D01*
X021633Y024079D01*
X021867Y024079D01*
X021867Y023943D01*
X021993Y023817D01*
X022171Y023817D01*
X022221Y023867D01*
X022940Y023867D01*
X022940Y023612D01*
X022914Y023612D01*
X022539Y023237D01*
X022497Y023237D01*
X022377Y023117D01*
X022377Y023117D01*
X022197Y022937D01*
X021584Y022937D01*
X021584Y022943D01*
X021606Y022965D01*
X021633Y022938D01*
X021973Y022938D01*
X022046Y023011D01*
X022046Y023311D01*
X021973Y023384D01*
X021633Y023384D01*
X021606Y023357D01*
X021579Y023384D01*
X021239Y023384D01*
X021212Y023357D01*
X021185Y023384D01*
X020845Y023384D01*
X020827Y023366D01*
X020592Y023366D01*
X020590Y023371D01*
X020521Y023440D01*
X020431Y023477D01*
X020333Y023477D01*
X020294Y023461D01*
X020297Y023489D02*
X022792Y023489D01*
X022743Y023441D02*
X020518Y023441D01*
X020568Y023392D02*
X022695Y023392D01*
X022646Y023344D02*
X022013Y023344D01*
X022046Y023295D02*
X022598Y023295D01*
X022549Y023247D02*
X022046Y023247D01*
X022046Y023198D02*
X022458Y023198D01*
X022410Y023150D02*
X022046Y023150D01*
X022046Y023101D02*
X022361Y023101D01*
X022313Y023053D02*
X022046Y023053D01*
X022039Y023004D02*
X022264Y023004D01*
X022216Y022956D02*
X021991Y022956D01*
X021615Y022956D02*
X021597Y022956D01*
X021200Y022519D02*
X022015Y022519D01*
X022015Y022471D02*
X021200Y022471D01*
X021200Y022422D02*
X022015Y022422D01*
X022015Y022374D02*
X021200Y022374D01*
X021170Y022325D02*
X022015Y022325D01*
X022015Y022277D02*
X021122Y022277D01*
X020810Y022665D02*
X018185Y022665D01*
X018222Y022713D02*
X020246Y022713D01*
X020517Y022713D02*
X020810Y022713D01*
X020810Y022762D02*
X020566Y022762D01*
X020597Y022810D02*
X020810Y022810D01*
X020810Y022859D02*
X020597Y022859D01*
X020597Y022907D02*
X020810Y022907D01*
X020810Y022956D02*
X020597Y022956D01*
X020297Y023538D02*
X022840Y023538D01*
X022889Y023586D02*
X020297Y023586D01*
X020297Y023635D02*
X022940Y023635D01*
X022940Y023683D02*
X020297Y023683D01*
X020297Y023732D02*
X022940Y023732D01*
X022940Y023780D02*
X020297Y023780D01*
X020297Y023829D02*
X021981Y023829D01*
X021932Y023877D02*
X020311Y023877D01*
X020359Y023926D02*
X021884Y023926D01*
X021867Y023974D02*
X020408Y023974D01*
X020456Y024023D02*
X021867Y024023D01*
X021867Y024071D02*
X020505Y024071D01*
X020553Y024120D02*
X020805Y024120D01*
X020772Y024168D02*
X020602Y024168D01*
X020650Y024217D02*
X020772Y024217D01*
X020772Y024265D02*
X020699Y024265D01*
X020747Y024314D02*
X020772Y024314D01*
X020523Y024556D02*
X020211Y024556D01*
X020197Y024605D02*
X020572Y024605D01*
X020620Y024653D02*
X020197Y024653D01*
X020247Y024508D02*
X020475Y024508D01*
X020426Y024459D02*
X020247Y024459D01*
X020247Y024411D02*
X020378Y024411D01*
X020329Y024362D02*
X020247Y024362D01*
X020247Y024343D02*
X020121Y024217D01*
X022183Y023829D02*
X022940Y023829D01*
X023445Y023829D02*
X024018Y023829D01*
X024018Y023877D02*
X023445Y023877D01*
X023445Y023926D02*
X024018Y023926D01*
X024018Y023974D02*
X023445Y023974D01*
X023445Y023780D02*
X024018Y023780D01*
X024018Y023732D02*
X023445Y023732D01*
X023445Y023683D02*
X024018Y023683D01*
X024018Y023635D02*
X023445Y023635D01*
X023445Y023586D02*
X024018Y023586D01*
X024018Y023538D02*
X023445Y023538D01*
X023445Y023489D02*
X024018Y023489D01*
X024018Y023441D02*
X023942Y023441D01*
X023937Y023445D02*
X023723Y023445D01*
X023650Y023372D01*
X023650Y023013D01*
X023665Y022998D01*
X023665Y022415D01*
X023817Y022264D01*
X023817Y022193D01*
X023943Y022067D01*
X024121Y022067D01*
X024247Y022193D01*
X024247Y022371D01*
X024121Y022497D01*
X024050Y022497D01*
X023995Y022552D01*
X023995Y022998D01*
X024010Y023013D01*
X024010Y023372D01*
X023937Y023445D01*
X023990Y023392D02*
X024018Y023392D01*
X024010Y023344D02*
X024018Y023344D01*
X024010Y023295D02*
X024053Y023295D01*
X024010Y023247D02*
X024217Y023247D01*
X024217Y023198D02*
X024010Y023198D01*
X024010Y023150D02*
X024217Y023150D01*
X024217Y023101D02*
X024010Y023101D01*
X024010Y023053D02*
X024217Y023053D01*
X024217Y023004D02*
X024002Y023004D01*
X023995Y022956D02*
X024217Y022956D01*
X024217Y022907D02*
X023995Y022907D01*
X023995Y022859D02*
X024217Y022859D01*
X024217Y022810D02*
X023995Y022810D01*
X023995Y022762D02*
X024217Y022762D01*
X024217Y022713D02*
X023995Y022713D01*
X023995Y022665D02*
X024266Y022665D01*
X024314Y022616D02*
X023995Y022616D01*
X023995Y022568D02*
X024317Y022568D01*
X024317Y022519D02*
X024028Y022519D01*
X024147Y022471D02*
X024360Y022471D01*
X024408Y022422D02*
X024195Y022422D01*
X024244Y022374D02*
X024457Y022374D01*
X024442Y022325D02*
X024247Y022325D01*
X024247Y022277D02*
X024394Y022277D01*
X024345Y022228D02*
X024247Y022228D01*
X024234Y022180D02*
X024297Y022180D01*
X024248Y022131D02*
X024185Y022131D01*
X024200Y022083D02*
X024137Y022083D01*
X023927Y022083D02*
X023335Y022083D01*
X023286Y022131D02*
X023878Y022131D01*
X023830Y022180D02*
X023238Y022180D01*
X023026Y022180D02*
X022425Y022180D01*
X022425Y022228D02*
X022631Y022228D01*
X022583Y022277D02*
X022425Y022277D01*
X022425Y022325D02*
X022534Y022325D01*
X022517Y022374D02*
X022425Y022374D01*
X022425Y022422D02*
X022517Y022422D01*
X022517Y022471D02*
X022425Y022471D01*
X022425Y022519D02*
X022517Y022519D01*
X022564Y022568D02*
X022425Y022568D01*
X022456Y022616D02*
X022612Y022616D01*
X022602Y022665D02*
X022505Y022665D01*
X022553Y022713D02*
X022566Y022713D01*
X022947Y022374D02*
X023707Y022374D01*
X023665Y022422D02*
X023306Y022422D01*
X023354Y022471D02*
X023665Y022471D01*
X023665Y022519D02*
X023403Y022519D01*
X023451Y022568D02*
X023665Y022568D01*
X023665Y022616D02*
X023500Y022616D01*
X023548Y022665D02*
X023665Y022665D01*
X023665Y022713D02*
X023597Y022713D01*
X023602Y022762D02*
X023665Y022762D01*
X023665Y022810D02*
X023602Y022810D01*
X023602Y022859D02*
X023665Y022859D01*
X023665Y022907D02*
X023602Y022907D01*
X023602Y022956D02*
X023665Y022956D01*
X023659Y023004D02*
X023608Y023004D01*
X023617Y023053D02*
X023650Y023053D01*
X023650Y023101D02*
X023617Y023101D01*
X023617Y023150D02*
X023650Y023150D01*
X023650Y023198D02*
X023617Y023198D01*
X023617Y023247D02*
X023650Y023247D01*
X023650Y023295D02*
X023617Y023295D01*
X023617Y023344D02*
X023650Y023344D01*
X023670Y023392D02*
X023597Y023392D01*
X023548Y023441D02*
X023719Y023441D01*
X023755Y022325D02*
X022929Y022325D01*
X022881Y022277D02*
X023804Y022277D01*
X023817Y022228D02*
X022832Y022228D01*
X022929Y022083D02*
X022425Y022083D01*
X022425Y022131D02*
X022977Y022131D01*
X022917Y022034D02*
X022425Y022034D01*
X022425Y021986D02*
X022917Y021986D01*
X022917Y021937D02*
X022425Y021937D01*
X022425Y021889D02*
X022921Y021889D01*
X022969Y021840D02*
X022425Y021840D01*
X022555Y021792D02*
X022908Y021792D01*
X022883Y021743D02*
X022581Y021743D01*
X022581Y021695D02*
X022883Y021695D01*
X022883Y021646D02*
X022581Y021646D01*
X022581Y021598D02*
X022883Y021598D01*
X022883Y021549D02*
X022581Y021549D01*
X022581Y021501D02*
X022883Y021501D01*
X022883Y021452D02*
X022581Y021452D01*
X022539Y021404D02*
X022925Y021404D01*
X022929Y021064D02*
X022535Y021064D01*
X022581Y021016D02*
X022883Y021016D01*
X022883Y020967D02*
X022581Y020967D01*
X022581Y020919D02*
X022883Y020919D01*
X022883Y020870D02*
X022581Y020870D01*
X022581Y020822D02*
X022883Y020822D01*
X022883Y020773D02*
X022581Y020773D01*
X022581Y020725D02*
X022883Y020725D01*
X022904Y020676D02*
X022560Y020676D01*
X022511Y020628D02*
X022952Y020628D01*
X023535Y020628D02*
X023577Y020628D01*
X023577Y020579D02*
X022213Y020579D01*
X022164Y020531D02*
X023577Y020531D01*
X023577Y020482D02*
X022116Y020482D01*
X022067Y020434D02*
X023590Y020434D01*
X023638Y020385D02*
X021797Y020385D01*
X021810Y020337D02*
X023687Y020337D01*
X023735Y020288D02*
X021859Y020288D01*
X021907Y020240D02*
X023784Y020240D01*
X023832Y020191D02*
X021956Y020191D01*
X021732Y019949D02*
X019368Y019949D01*
X019319Y019997D02*
X021683Y019997D01*
X021635Y020046D02*
X019271Y020046D01*
X019222Y020094D02*
X021586Y020094D01*
X021467Y020143D02*
X020847Y020143D01*
X020895Y020191D02*
X021418Y020191D01*
X021370Y020240D02*
X020944Y020240D01*
X020947Y020288D02*
X021367Y020288D01*
X021367Y020337D02*
X020947Y020337D01*
X020947Y020385D02*
X021367Y020385D01*
X020962Y020434D02*
X020934Y020434D01*
X020913Y020482D02*
X020885Y020482D01*
X020865Y020531D02*
X020837Y020531D01*
X020627Y020531D02*
X020516Y020531D01*
X020410Y020676D02*
X020371Y020676D01*
X020410Y020725D02*
X020322Y020725D01*
X020297Y020773D02*
X020410Y020773D01*
X020410Y020822D02*
X020297Y020822D01*
X020297Y020870D02*
X020410Y020870D01*
X020410Y020919D02*
X020297Y020919D01*
X020297Y020967D02*
X020410Y020967D01*
X020410Y021016D02*
X020297Y021016D01*
X020297Y021064D02*
X020410Y021064D01*
X020410Y021113D02*
X020297Y021113D01*
X020297Y021161D02*
X020410Y021161D01*
X020454Y021210D02*
X020297Y021210D01*
X020312Y021258D02*
X021220Y021258D01*
X021180Y021307D02*
X020347Y021307D01*
X020347Y021355D02*
X021180Y021355D01*
X021180Y021404D02*
X020347Y021404D01*
X020347Y021452D02*
X021180Y021452D01*
X021180Y021501D02*
X020317Y021501D01*
X020268Y021549D02*
X021180Y021549D01*
X021009Y021210D02*
X023577Y021210D01*
X023577Y021258D02*
X021744Y021258D01*
X021784Y021307D02*
X023567Y021307D01*
X023518Y021355D02*
X021784Y021355D01*
X021784Y021404D02*
X021901Y021404D01*
X021905Y021064D02*
X021054Y021064D01*
X021054Y021016D02*
X021859Y021016D01*
X021859Y020967D02*
X021054Y020967D01*
X021054Y020919D02*
X021859Y020919D01*
X021859Y020870D02*
X021054Y020870D01*
X021054Y020822D02*
X021859Y020822D01*
X021859Y020773D02*
X021089Y020773D01*
X021054Y021113D02*
X023573Y021113D01*
X023577Y021161D02*
X021054Y021161D01*
X020617Y020143D02*
X019174Y020143D01*
X019125Y020191D02*
X020389Y020191D01*
X020341Y020240D02*
X019077Y020240D01*
X019028Y020288D02*
X020292Y020288D01*
X020244Y020337D02*
X018980Y020337D01*
X018931Y020385D02*
X020195Y020385D01*
X020147Y020434D02*
X018883Y020434D01*
X018834Y020482D02*
X020098Y020482D01*
X020050Y020531D02*
X018786Y020531D01*
X018737Y020579D02*
X020001Y020579D01*
X019416Y019900D02*
X021780Y019900D01*
X021063Y017621D02*
X027744Y017621D01*
X027707Y017572D02*
X021164Y017572D01*
X021213Y017524D02*
X026355Y017524D01*
X026292Y017475D02*
X021245Y017475D01*
X021265Y017427D02*
X026248Y017427D01*
X026228Y017378D02*
X021277Y017378D01*
X021277Y017330D02*
X026207Y017330D01*
X026207Y017281D02*
X021275Y017281D01*
X021255Y017233D02*
X026207Y017233D01*
X026220Y017184D02*
X021235Y017184D01*
X021189Y017136D02*
X026240Y017136D01*
X026273Y017087D02*
X021140Y017087D01*
X021092Y017039D02*
X026322Y017039D01*
X026370Y016990D02*
X021043Y016990D01*
X020995Y016942D02*
X026419Y016942D01*
X026467Y016893D02*
X020946Y016893D01*
X020898Y016845D02*
X026516Y016845D01*
X026564Y016796D02*
X020849Y016796D01*
X020801Y016748D02*
X026613Y016748D01*
X026661Y016699D02*
X020752Y016699D01*
X020704Y016651D02*
X026710Y016651D01*
X026758Y016602D02*
X020655Y016602D01*
X020607Y016554D02*
X026807Y016554D01*
X026855Y016505D02*
X024605Y016505D01*
X025011Y016457D02*
X026904Y016457D01*
X026950Y016408D02*
X025416Y016408D01*
X025730Y016360D02*
X027001Y016360D01*
X027090Y016311D02*
X025930Y016311D01*
X026129Y016263D02*
X027213Y016263D01*
X027424Y016796D02*
X027824Y016796D01*
X027937Y016748D02*
X027555Y016748D01*
X027686Y016699D02*
X028045Y016699D01*
X028140Y016651D02*
X027818Y016651D01*
X027853Y016638D02*
X027853Y016638D01*
X027926Y016602D02*
X028102Y016602D01*
X028054Y016554D02*
X028025Y016554D01*
X027710Y016845D02*
X027322Y016845D01*
X027273Y016893D02*
X027597Y016893D01*
X027483Y016942D02*
X027225Y016942D01*
X027176Y016990D02*
X027397Y016990D01*
X027381Y017039D02*
X027128Y017039D01*
X027079Y017087D02*
X027400Y017087D01*
X027431Y017136D02*
X027031Y017136D01*
X026982Y017184D02*
X027459Y017184D01*
X027488Y017233D02*
X026934Y017233D01*
X026885Y017281D02*
X027516Y017281D01*
X027545Y017330D02*
X026837Y017330D01*
X026788Y017378D02*
X027573Y017378D01*
X027602Y017427D02*
X026740Y017427D01*
X026691Y017475D02*
X027632Y017475D01*
X027625Y017466D02*
X027625Y017466D01*
X027670Y017524D02*
X026628Y017524D01*
X027782Y017669D02*
X019682Y017669D01*
X019720Y017621D02*
X020921Y017621D01*
X020819Y017572D02*
X019757Y017572D01*
X019794Y017524D02*
X020771Y017524D01*
X020722Y017475D02*
X019832Y017475D01*
X019862Y017427D02*
X020674Y017427D01*
X020625Y017378D02*
X019890Y017378D01*
X019919Y017330D02*
X020577Y017330D01*
X020528Y017281D02*
X019948Y017281D01*
X019976Y017233D02*
X020480Y017233D01*
X020431Y017184D02*
X020005Y017184D01*
X020033Y017136D02*
X020383Y017136D01*
X020334Y017087D02*
X020064Y017087D01*
X020083Y017039D02*
X020286Y017039D01*
X020237Y016990D02*
X020067Y016990D01*
X019980Y016942D02*
X020189Y016942D01*
X020140Y016893D02*
X019867Y016893D01*
X019918Y016796D02*
X019640Y016796D01*
X019668Y016699D02*
X019419Y016699D01*
X019462Y016602D02*
X019229Y016602D01*
X019269Y016505D02*
X019039Y016505D01*
X019007Y016457D02*
X019172Y016457D01*
X019134Y016554D02*
X019365Y016554D01*
X019324Y016651D02*
X019558Y016651D01*
X019526Y016748D02*
X019793Y016748D01*
X019753Y016845D02*
X020043Y016845D01*
X020253Y016311D02*
X021534Y016311D01*
X021334Y016263D02*
X020137Y016263D01*
X020370Y016360D02*
X021734Y016360D01*
X021823Y016381D02*
X021823Y016381D01*
X022048Y016408D02*
X020461Y016408D01*
X020511Y016457D02*
X022453Y016457D01*
X022859Y016505D02*
X020558Y016505D01*
X019076Y016408D02*
X019055Y016408D01*
X019645Y017718D02*
X027819Y017718D01*
X027845Y017766D02*
X019619Y017766D01*
X019667Y017815D02*
X027797Y017815D01*
X027748Y017863D02*
X019716Y017863D01*
X023987Y020617D02*
X023987Y021304D01*
X024520Y021304D01*
X024593Y021377D01*
X024593Y021658D01*
X024762Y021827D01*
X025420Y021827D01*
X025359Y021766D01*
X025359Y021446D01*
X025432Y021373D01*
X026008Y021373D01*
X026012Y021377D01*
X026027Y021377D01*
X026027Y021347D01*
X026147Y021227D01*
X026227Y021147D01*
X026347Y021027D01*
X026391Y021027D01*
X026383Y021018D01*
X026383Y020698D01*
X026456Y020625D01*
X027032Y020625D01*
X027100Y020693D01*
X027160Y020693D01*
X027160Y020629D01*
X027233Y020556D01*
X027731Y020556D01*
X027804Y020629D01*
X027804Y021166D01*
X027737Y021232D01*
X027804Y021298D01*
X027804Y021835D01*
X027731Y021908D01*
X027233Y021908D01*
X027160Y021835D01*
X027160Y021771D01*
X027100Y021771D01*
X027032Y021839D01*
X026529Y021839D01*
X026827Y022137D01*
X026831Y022137D01*
X026921Y022174D01*
X026990Y022243D01*
X027027Y022333D01*
X027027Y022431D01*
X026990Y022521D01*
X026921Y022590D01*
X026831Y022627D01*
X026733Y022627D01*
X026643Y022590D01*
X026574Y022521D01*
X026537Y022431D01*
X026537Y022427D01*
X026347Y022237D01*
X024797Y022237D01*
X024797Y022355D01*
X024855Y022297D01*
X025013Y022297D01*
X025043Y022267D01*
X025221Y022267D01*
X025347Y022393D01*
X025347Y022571D01*
X025247Y022671D01*
X025247Y022821D01*
X025121Y022947D01*
X025117Y022947D01*
X025117Y023917D01*
X025219Y023814D01*
X025357Y023757D01*
X025506Y023757D01*
X025644Y023814D01*
X025750Y023919D01*
X025807Y024057D01*
X025807Y024206D01*
X025750Y024344D01*
X025714Y024380D01*
X026100Y024767D01*
X026197Y024864D01*
X026197Y025650D01*
X026138Y025709D01*
X026736Y025709D01*
X026810Y025782D01*
X026810Y026240D01*
X026736Y026313D01*
X026047Y026313D01*
X026250Y026517D01*
X026347Y026614D01*
X026347Y027600D01*
X026147Y027800D01*
X026147Y027921D01*
X026021Y028047D01*
X025947Y028047D01*
X025947Y028071D01*
X026736Y028071D01*
X026810Y028144D01*
X026810Y028208D01*
X027042Y028208D01*
X027050Y028217D01*
X027121Y028217D01*
X027247Y028343D01*
X027247Y028414D01*
X027397Y028264D01*
X027397Y027625D01*
X027440Y027520D01*
X027520Y027440D01*
X027520Y027440D01*
X027874Y027087D01*
X027197Y027087D01*
X026997Y026887D01*
X026877Y026767D01*
X026877Y026473D01*
X026874Y026471D01*
X026837Y026381D01*
X026837Y026283D01*
X026874Y026193D01*
X026877Y026190D01*
X026877Y024847D01*
X027327Y024397D01*
X027327Y024367D01*
X027187Y024507D01*
X026877Y024507D01*
X026657Y024287D01*
X026657Y023977D01*
X026877Y023757D01*
X027167Y023757D01*
X027114Y023704D01*
X027106Y023707D01*
X026957Y023707D01*
X026819Y023650D01*
X026714Y023544D01*
X026657Y023406D01*
X026657Y023257D01*
X026714Y023119D01*
X026819Y023014D01*
X026957Y022957D01*
X027106Y022957D01*
X027114Y022960D01*
X027977Y022097D01*
X027977Y020717D01*
X027747Y020487D01*
X026381Y020487D01*
X026081Y020787D01*
X026081Y021018D01*
X026008Y021091D01*
X025432Y021091D01*
X025404Y021063D01*
X025304Y021063D01*
X025304Y021166D01*
X025231Y021239D01*
X024733Y021239D01*
X024660Y021166D01*
X024660Y020629D01*
X024700Y020589D01*
X024697Y020587D01*
X024017Y020587D01*
X023987Y020617D01*
X023987Y020628D02*
X024661Y020628D01*
X024660Y020676D02*
X023987Y020676D01*
X023987Y020725D02*
X024660Y020725D01*
X024660Y020773D02*
X023987Y020773D01*
X023987Y020822D02*
X024660Y020822D01*
X024660Y020870D02*
X023987Y020870D01*
X023987Y020919D02*
X024660Y020919D01*
X024660Y020967D02*
X023987Y020967D01*
X023987Y021016D02*
X024660Y021016D01*
X024660Y021064D02*
X023987Y021064D01*
X023987Y021113D02*
X024660Y021113D01*
X024660Y021161D02*
X023987Y021161D01*
X023987Y021210D02*
X024704Y021210D01*
X024572Y021355D02*
X026027Y021355D01*
X026067Y021307D02*
X024523Y021307D01*
X024593Y021404D02*
X025401Y021404D01*
X025359Y021452D02*
X024593Y021452D01*
X024593Y021501D02*
X025359Y021501D01*
X025359Y021549D02*
X024593Y021549D01*
X024593Y021598D02*
X025359Y021598D01*
X025359Y021646D02*
X024593Y021646D01*
X024630Y021695D02*
X025359Y021695D01*
X025359Y021743D02*
X024679Y021743D01*
X024727Y021792D02*
X025385Y021792D01*
X025231Y022277D02*
X026387Y022277D01*
X026435Y022325D02*
X025279Y022325D01*
X025328Y022374D02*
X026484Y022374D01*
X026532Y022422D02*
X025347Y022422D01*
X025347Y022471D02*
X026554Y022471D01*
X026574Y022519D02*
X025347Y022519D01*
X025347Y022568D02*
X026621Y022568D01*
X026708Y022616D02*
X025301Y022616D01*
X025253Y022665D02*
X027409Y022665D01*
X027360Y022713D02*
X025247Y022713D01*
X025247Y022762D02*
X027312Y022762D01*
X027263Y022810D02*
X025247Y022810D01*
X025209Y022859D02*
X027215Y022859D01*
X027166Y022907D02*
X025160Y022907D01*
X025117Y022956D02*
X027118Y022956D01*
X026843Y023004D02*
X026421Y023004D01*
X026444Y023014D02*
X026550Y023119D01*
X026607Y023257D01*
X026607Y023406D01*
X026550Y023544D01*
X026444Y023650D01*
X026306Y023707D01*
X026157Y023707D01*
X026019Y023650D01*
X025914Y023544D01*
X025857Y023406D01*
X025857Y023257D01*
X025914Y023119D01*
X026019Y023014D01*
X026157Y022957D01*
X026306Y022957D01*
X026444Y023014D01*
X026483Y023053D02*
X026781Y023053D01*
X026732Y023101D02*
X026532Y023101D01*
X026562Y023150D02*
X026701Y023150D01*
X026681Y023198D02*
X026582Y023198D01*
X026603Y023247D02*
X026661Y023247D01*
X026657Y023295D02*
X026607Y023295D01*
X026607Y023344D02*
X026657Y023344D01*
X026657Y023392D02*
X026607Y023392D01*
X026593Y023441D02*
X026671Y023441D01*
X026691Y023489D02*
X026573Y023489D01*
X026552Y023538D02*
X026711Y023538D01*
X026756Y023586D02*
X026508Y023586D01*
X026459Y023635D02*
X026805Y023635D01*
X026901Y023683D02*
X026363Y023683D01*
X026306Y023757D02*
X026444Y023814D01*
X026550Y023919D01*
X026607Y024057D01*
X026607Y024206D01*
X026550Y024344D01*
X026444Y024450D01*
X026306Y024507D01*
X026157Y024507D01*
X026019Y024450D01*
X025914Y024344D01*
X025857Y024206D01*
X025857Y024057D01*
X025914Y023919D01*
X026019Y023814D01*
X026157Y023757D01*
X026306Y023757D01*
X026363Y023780D02*
X026853Y023780D01*
X026805Y023829D02*
X026459Y023829D01*
X026508Y023877D02*
X026756Y023877D01*
X026708Y023926D02*
X026552Y023926D01*
X026573Y023974D02*
X026659Y023974D01*
X026657Y024023D02*
X026593Y024023D01*
X026607Y024071D02*
X026657Y024071D01*
X026657Y024120D02*
X026607Y024120D01*
X026607Y024168D02*
X026657Y024168D01*
X026657Y024217D02*
X026603Y024217D01*
X026582Y024265D02*
X026657Y024265D01*
X026684Y024314D02*
X026562Y024314D01*
X026532Y024362D02*
X026732Y024362D01*
X026781Y024411D02*
X026483Y024411D01*
X026421Y024459D02*
X026829Y024459D01*
X027070Y024653D02*
X025987Y024653D01*
X025938Y024605D02*
X027119Y024605D01*
X027167Y024556D02*
X025890Y024556D01*
X025841Y024508D02*
X027216Y024508D01*
X027235Y024459D02*
X027264Y024459D01*
X027283Y024411D02*
X027313Y024411D01*
X027022Y024702D02*
X026035Y024702D01*
X026084Y024750D02*
X026973Y024750D01*
X026925Y024799D02*
X026132Y024799D01*
X026181Y024847D02*
X026877Y024847D01*
X026877Y024896D02*
X026197Y024896D01*
X026197Y024944D02*
X026877Y024944D01*
X026877Y024993D02*
X026197Y024993D01*
X026197Y025041D02*
X026877Y025041D01*
X026877Y025090D02*
X026197Y025090D01*
X026197Y025138D02*
X026877Y025138D01*
X026877Y025187D02*
X026197Y025187D01*
X026197Y025235D02*
X026877Y025235D01*
X026877Y025284D02*
X026197Y025284D01*
X026197Y025332D02*
X026877Y025332D01*
X026877Y025381D02*
X026197Y025381D01*
X026197Y025429D02*
X026877Y025429D01*
X026877Y025478D02*
X026197Y025478D01*
X026197Y025526D02*
X026877Y025526D01*
X026877Y025575D02*
X026197Y025575D01*
X026197Y025623D02*
X026877Y025623D01*
X026877Y025672D02*
X026175Y025672D01*
X026748Y025720D02*
X026877Y025720D01*
X026877Y025769D02*
X026796Y025769D01*
X026810Y025817D02*
X026877Y025817D01*
X026877Y025866D02*
X026810Y025866D01*
X026810Y025914D02*
X026877Y025914D01*
X026877Y025963D02*
X026810Y025963D01*
X026810Y026011D02*
X026877Y026011D01*
X026877Y026060D02*
X026810Y026060D01*
X026810Y026108D02*
X026877Y026108D01*
X026877Y026157D02*
X026810Y026157D01*
X026810Y026205D02*
X026869Y026205D01*
X026849Y026254D02*
X026796Y026254D01*
X026837Y026302D02*
X026747Y026302D01*
X026837Y026351D02*
X026084Y026351D01*
X026133Y026399D02*
X026845Y026399D01*
X026865Y026448D02*
X026181Y026448D01*
X026230Y026496D02*
X026877Y026496D01*
X026877Y026545D02*
X026278Y026545D01*
X026327Y026593D02*
X026877Y026593D01*
X026877Y026642D02*
X026347Y026642D01*
X026347Y026690D02*
X026877Y026690D01*
X026877Y026739D02*
X026347Y026739D01*
X026347Y026787D02*
X026897Y026787D01*
X026946Y026836D02*
X026347Y026836D01*
X026347Y026884D02*
X026994Y026884D01*
X027043Y026933D02*
X026347Y026933D01*
X026347Y026981D02*
X027091Y026981D01*
X027140Y027030D02*
X026347Y027030D01*
X026347Y027078D02*
X027188Y027078D01*
X027367Y026677D02*
X027673Y026677D01*
X027617Y026621D01*
X027617Y026507D01*
X027438Y026507D01*
X027365Y026434D01*
X027365Y025858D01*
X027438Y025785D01*
X027778Y025785D01*
X027851Y025858D01*
X027851Y026156D01*
X027900Y026205D01*
X027997Y026302D01*
X027997Y026393D01*
X028047Y026443D01*
X028047Y026477D01*
X028113Y026411D01*
X028113Y025858D01*
X028186Y025785D01*
X028526Y025785D01*
X028597Y025856D01*
X028597Y025408D01*
X028526Y025479D01*
X028186Y025479D01*
X028113Y025406D01*
X028113Y024830D01*
X028146Y024797D01*
X028043Y024797D01*
X027982Y024736D01*
X027921Y024797D01*
X027850Y024797D01*
X027834Y024813D01*
X027851Y024830D01*
X027851Y025406D01*
X027778Y025479D01*
X027438Y025479D01*
X027365Y025406D01*
X027365Y024939D01*
X027287Y025017D01*
X027287Y026190D01*
X027290Y026193D01*
X027327Y026283D01*
X027327Y026381D01*
X027290Y026471D01*
X027287Y026473D01*
X027287Y026597D01*
X027367Y026677D01*
X027332Y026642D02*
X027638Y026642D01*
X027617Y026593D02*
X027287Y026593D01*
X027287Y026545D02*
X027617Y026545D01*
X027427Y026496D02*
X027287Y026496D01*
X027299Y026448D02*
X027379Y026448D01*
X027365Y026399D02*
X027319Y026399D01*
X027327Y026351D02*
X027365Y026351D01*
X027365Y026302D02*
X027327Y026302D01*
X027315Y026254D02*
X027365Y026254D01*
X027365Y026205D02*
X027295Y026205D01*
X027287Y026157D02*
X027365Y026157D01*
X027365Y026108D02*
X027287Y026108D01*
X027287Y026060D02*
X027365Y026060D01*
X027365Y026011D02*
X027287Y026011D01*
X027287Y025963D02*
X027365Y025963D01*
X027365Y025914D02*
X027287Y025914D01*
X027287Y025866D02*
X027365Y025866D01*
X027405Y025817D02*
X027287Y025817D01*
X027287Y025769D02*
X028597Y025769D01*
X028597Y025817D02*
X028558Y025817D01*
X028597Y025720D02*
X027287Y025720D01*
X027287Y025672D02*
X028597Y025672D01*
X028597Y025623D02*
X027287Y025623D01*
X027287Y025575D02*
X028597Y025575D01*
X028597Y025526D02*
X027287Y025526D01*
X027287Y025478D02*
X027437Y025478D01*
X027388Y025429D02*
X027287Y025429D01*
X027287Y025381D02*
X027365Y025381D01*
X027365Y025332D02*
X027287Y025332D01*
X027287Y025284D02*
X027365Y025284D01*
X027365Y025235D02*
X027287Y025235D01*
X027287Y025187D02*
X027365Y025187D01*
X027365Y025138D02*
X027287Y025138D01*
X027287Y025090D02*
X027365Y025090D01*
X027365Y025041D02*
X027287Y025041D01*
X027311Y024993D02*
X027365Y024993D01*
X027359Y024944D02*
X027365Y024944D01*
X027851Y024944D02*
X028113Y024944D01*
X028113Y024896D02*
X027851Y024896D01*
X027851Y024847D02*
X028113Y024847D01*
X028144Y024799D02*
X027848Y024799D01*
X027967Y024750D02*
X027996Y024750D01*
X028113Y024993D02*
X027851Y024993D01*
X027851Y025041D02*
X028113Y025041D01*
X028113Y025090D02*
X027851Y025090D01*
X027851Y025138D02*
X028113Y025138D01*
X028113Y025187D02*
X027851Y025187D01*
X027851Y025235D02*
X028113Y025235D01*
X028113Y025284D02*
X027851Y025284D01*
X027851Y025332D02*
X028113Y025332D01*
X028113Y025381D02*
X027851Y025381D01*
X027827Y025429D02*
X028136Y025429D01*
X028185Y025478D02*
X027779Y025478D01*
X027810Y025817D02*
X028153Y025817D01*
X028113Y025866D02*
X027851Y025866D01*
X027851Y025914D02*
X028113Y025914D01*
X028113Y025963D02*
X027851Y025963D01*
X027851Y026011D02*
X028113Y026011D01*
X028113Y026060D02*
X027851Y026060D01*
X027851Y026108D02*
X028113Y026108D01*
X028113Y026157D02*
X027852Y026157D01*
X027901Y026205D02*
X028113Y026205D01*
X028113Y026254D02*
X027949Y026254D01*
X027997Y026302D02*
X028113Y026302D01*
X028113Y026351D02*
X027997Y026351D01*
X028003Y026399D02*
X028113Y026399D01*
X028076Y026448D02*
X028047Y026448D01*
X028881Y026886D02*
X029043Y026724D01*
X029120Y026647D01*
X030043Y026647D01*
X030093Y026697D01*
X030271Y026697D01*
X030397Y026571D01*
X030397Y026393D01*
X030271Y026267D01*
X030093Y026267D01*
X030043Y026317D01*
X029167Y026317D01*
X029167Y024750D01*
X029743Y024174D01*
X029824Y024093D01*
X029867Y023989D01*
X029867Y023050D01*
X031081Y021836D01*
X030930Y023093D01*
X030930Y024371D01*
X031082Y025641D01*
X031082Y025641D01*
X031232Y026257D01*
X031232Y027285D01*
X031167Y027126D01*
X031167Y027125D01*
X031147Y027076D01*
X031128Y027027D01*
X031125Y027024D01*
X031124Y027020D01*
X031086Y026983D01*
X031050Y026945D01*
X031046Y026943D01*
X030993Y026890D01*
X030889Y026847D01*
X028975Y026847D01*
X028881Y026886D01*
X028882Y026884D02*
X028885Y026884D01*
X028931Y026836D02*
X030782Y026836D01*
X030793Y026847D02*
X030667Y026721D01*
X030667Y026664D01*
X030659Y026657D01*
X030557Y026554D01*
X030557Y023004D01*
X030499Y022947D01*
X030443Y022947D01*
X030317Y022821D01*
X030317Y022643D01*
X030443Y022517D01*
X030621Y022517D01*
X030747Y022643D01*
X030747Y022699D01*
X030907Y022859D01*
X030907Y026409D01*
X030914Y026417D01*
X030971Y026417D01*
X031097Y026543D01*
X031097Y026721D01*
X030971Y026847D01*
X030793Y026847D01*
X030733Y026787D02*
X028979Y026787D01*
X029028Y026739D02*
X030685Y026739D01*
X030667Y026690D02*
X030277Y026690D01*
X030326Y026642D02*
X030644Y026642D01*
X030596Y026593D02*
X030374Y026593D01*
X030397Y026545D02*
X030557Y026545D01*
X030557Y026496D02*
X030397Y026496D01*
X030397Y026448D02*
X030557Y026448D01*
X030557Y026399D02*
X030397Y026399D01*
X030355Y026351D02*
X030557Y026351D01*
X030557Y026302D02*
X030306Y026302D01*
X030057Y026302D02*
X029167Y026302D01*
X029167Y026254D02*
X030557Y026254D01*
X030557Y026205D02*
X029167Y026205D01*
X029167Y026157D02*
X030557Y026157D01*
X030557Y026108D02*
X029167Y026108D01*
X029167Y026060D02*
X030557Y026060D01*
X030557Y026011D02*
X029167Y026011D01*
X029167Y025963D02*
X030557Y025963D01*
X030557Y025914D02*
X029167Y025914D01*
X029167Y025866D02*
X030557Y025866D01*
X030557Y025817D02*
X029167Y025817D01*
X029167Y025769D02*
X030557Y025769D01*
X030557Y025720D02*
X029167Y025720D01*
X029167Y025672D02*
X030557Y025672D01*
X030557Y025623D02*
X029167Y025623D01*
X029167Y025575D02*
X030557Y025575D01*
X030557Y025526D02*
X029167Y025526D01*
X029167Y025478D02*
X030557Y025478D01*
X030557Y025429D02*
X029167Y025429D01*
X029167Y025381D02*
X030557Y025381D01*
X030557Y025332D02*
X029167Y025332D01*
X029167Y025284D02*
X030557Y025284D01*
X030557Y025235D02*
X029167Y025235D01*
X029167Y025187D02*
X030557Y025187D01*
X030557Y025138D02*
X029167Y025138D01*
X029167Y025090D02*
X030557Y025090D01*
X030557Y025041D02*
X029167Y025041D01*
X029167Y024993D02*
X030557Y024993D01*
X030557Y024944D02*
X029167Y024944D01*
X029167Y024896D02*
X030557Y024896D01*
X030557Y024847D02*
X029167Y024847D01*
X029167Y024799D02*
X030557Y024799D01*
X030557Y024750D02*
X029167Y024750D01*
X029215Y024702D02*
X030557Y024702D01*
X030557Y024653D02*
X029263Y024653D01*
X029312Y024605D02*
X030557Y024605D01*
X030557Y024556D02*
X030340Y024556D01*
X030329Y024567D02*
X030135Y024567D01*
X029997Y024429D01*
X029997Y024235D01*
X030135Y024097D01*
X030329Y024097D01*
X030467Y024235D01*
X030467Y024429D01*
X030329Y024567D01*
X030388Y024508D02*
X030557Y024508D01*
X030557Y024459D02*
X030437Y024459D01*
X030467Y024411D02*
X030557Y024411D01*
X030557Y024362D02*
X030467Y024362D01*
X030467Y024314D02*
X030557Y024314D01*
X030557Y024265D02*
X030467Y024265D01*
X030449Y024217D02*
X030557Y024217D01*
X030557Y024168D02*
X030401Y024168D01*
X030352Y024120D02*
X030557Y024120D01*
X030557Y024071D02*
X029833Y024071D01*
X029853Y024023D02*
X030557Y024023D01*
X030557Y023974D02*
X029867Y023974D01*
X029867Y023926D02*
X030557Y023926D01*
X030557Y023877D02*
X029867Y023877D01*
X029867Y023829D02*
X030557Y023829D01*
X030557Y023780D02*
X029867Y023780D01*
X029867Y023732D02*
X030557Y023732D01*
X030557Y023683D02*
X029867Y023683D01*
X029867Y023635D02*
X030557Y023635D01*
X030557Y023586D02*
X029867Y023586D01*
X029867Y023538D02*
X030557Y023538D01*
X030557Y023489D02*
X029867Y023489D01*
X029867Y023441D02*
X030557Y023441D01*
X030557Y023392D02*
X029867Y023392D01*
X029867Y023344D02*
X030112Y023344D01*
X030135Y023367D02*
X029997Y023229D01*
X029997Y023035D01*
X030135Y022897D01*
X030329Y022897D01*
X030467Y023035D01*
X030467Y023229D01*
X030329Y023367D01*
X030135Y023367D01*
X030063Y023295D02*
X029867Y023295D01*
X029867Y023247D02*
X030015Y023247D01*
X029997Y023198D02*
X029867Y023198D01*
X029867Y023150D02*
X029997Y023150D01*
X029997Y023101D02*
X029867Y023101D01*
X029867Y023053D02*
X029997Y023053D01*
X030027Y023004D02*
X029912Y023004D01*
X029961Y022956D02*
X030076Y022956D01*
X030124Y022907D02*
X030009Y022907D01*
X030058Y022859D02*
X030355Y022859D01*
X030340Y022907D02*
X030403Y022907D01*
X030388Y022956D02*
X030508Y022956D01*
X030557Y023004D02*
X030437Y023004D01*
X030467Y023053D02*
X030557Y023053D01*
X030557Y023101D02*
X030467Y023101D01*
X030467Y023150D02*
X030557Y023150D01*
X030557Y023198D02*
X030467Y023198D01*
X030449Y023247D02*
X030557Y023247D01*
X030557Y023295D02*
X030401Y023295D01*
X030352Y023344D02*
X030557Y023344D01*
X030907Y023344D02*
X030930Y023344D01*
X030930Y023392D02*
X030907Y023392D01*
X030907Y023441D02*
X030930Y023441D01*
X030930Y023489D02*
X030907Y023489D01*
X030907Y023538D02*
X030930Y023538D01*
X030930Y023586D02*
X030907Y023586D01*
X030907Y023635D02*
X030930Y023635D01*
X030930Y023683D02*
X030907Y023683D01*
X030907Y023732D02*
X030930Y023732D01*
X030930Y023780D02*
X030907Y023780D01*
X030907Y023829D02*
X030930Y023829D01*
X030930Y023877D02*
X030907Y023877D01*
X030907Y023926D02*
X030930Y023926D01*
X030930Y023974D02*
X030907Y023974D01*
X030907Y024023D02*
X030930Y024023D01*
X030930Y024071D02*
X030907Y024071D01*
X030907Y024120D02*
X030930Y024120D01*
X030930Y024168D02*
X030907Y024168D01*
X030907Y024217D02*
X030930Y024217D01*
X030930Y024265D02*
X030907Y024265D01*
X030907Y024314D02*
X030930Y024314D01*
X030930Y024362D02*
X030907Y024362D01*
X030907Y024411D02*
X030935Y024411D01*
X030941Y024459D02*
X030907Y024459D01*
X030907Y024508D02*
X030947Y024508D01*
X030953Y024556D02*
X030907Y024556D01*
X030907Y024605D02*
X030958Y024605D01*
X030964Y024653D02*
X030907Y024653D01*
X030907Y024702D02*
X030970Y024702D01*
X030976Y024750D02*
X030907Y024750D01*
X030907Y024799D02*
X030982Y024799D01*
X030987Y024847D02*
X030907Y024847D01*
X030907Y024896D02*
X030993Y024896D01*
X030999Y024944D02*
X030907Y024944D01*
X030907Y024993D02*
X031005Y024993D01*
X031011Y025041D02*
X030907Y025041D01*
X030907Y025090D02*
X031016Y025090D01*
X031022Y025138D02*
X030907Y025138D01*
X030907Y025187D02*
X031028Y025187D01*
X031034Y025235D02*
X030907Y025235D01*
X030907Y025284D02*
X031040Y025284D01*
X031045Y025332D02*
X030907Y025332D01*
X030907Y025381D02*
X031051Y025381D01*
X031057Y025429D02*
X030907Y025429D01*
X030907Y025478D02*
X031063Y025478D01*
X031069Y025526D02*
X030907Y025526D01*
X030907Y025575D02*
X031074Y025575D01*
X031080Y025623D02*
X030907Y025623D01*
X030907Y025672D02*
X031090Y025672D01*
X031102Y025720D02*
X030907Y025720D01*
X030907Y025769D02*
X031113Y025769D01*
X031125Y025817D02*
X030907Y025817D01*
X030907Y025866D02*
X031137Y025866D01*
X031149Y025914D02*
X030907Y025914D01*
X030907Y025963D02*
X031161Y025963D01*
X031172Y026011D02*
X030907Y026011D01*
X030907Y026060D02*
X031184Y026060D01*
X031196Y026108D02*
X030907Y026108D01*
X030907Y026157D02*
X031208Y026157D01*
X031219Y026205D02*
X030907Y026205D01*
X030907Y026254D02*
X031231Y026254D01*
X031232Y026302D02*
X030907Y026302D01*
X030907Y026351D02*
X031232Y026351D01*
X031232Y026399D02*
X030907Y026399D01*
X031002Y026448D02*
X031232Y026448D01*
X031232Y026496D02*
X031050Y026496D01*
X031097Y026545D02*
X031232Y026545D01*
X031232Y026593D02*
X031097Y026593D01*
X031097Y026642D02*
X031232Y026642D01*
X031232Y026690D02*
X031097Y026690D01*
X031079Y026739D02*
X031232Y026739D01*
X031232Y026787D02*
X031030Y026787D01*
X030982Y026836D02*
X031232Y026836D01*
X031232Y026884D02*
X030979Y026884D01*
X031036Y026933D02*
X031232Y026933D01*
X031232Y026981D02*
X031085Y026981D01*
X031129Y027030D02*
X031232Y027030D01*
X031232Y027078D02*
X031148Y027078D01*
X031167Y027127D02*
X031232Y027127D01*
X031232Y027175D02*
X031187Y027175D01*
X031207Y027224D02*
X031232Y027224D01*
X031227Y027272D02*
X031232Y027272D01*
X030086Y026690D02*
X029076Y026690D01*
X028597Y025478D02*
X028527Y025478D01*
X028575Y025429D02*
X028597Y025429D01*
X028654Y024457D02*
X028464Y024457D01*
X028424Y024417D01*
X028271Y024417D01*
X028221Y024367D01*
X028043Y024367D01*
X027982Y024428D01*
X027921Y024367D01*
X027743Y024367D01*
X027737Y024373D01*
X027737Y024125D01*
X027775Y024163D01*
X027962Y024240D01*
X028164Y024240D01*
X028350Y024163D01*
X028493Y024020D01*
X028571Y023833D01*
X028571Y023631D01*
X028493Y023444D01*
X028350Y023301D01*
X028164Y023224D01*
X027962Y023224D01*
X027775Y023301D01*
X027632Y023444D01*
X027574Y023584D01*
X027404Y023414D01*
X027407Y023406D01*
X027407Y023257D01*
X027404Y023250D01*
X028387Y022267D01*
X028387Y020547D01*
X028037Y020197D01*
X027917Y020077D01*
X026591Y020077D01*
X026597Y020071D01*
X026597Y019893D01*
X026571Y019867D01*
X027914Y019867D01*
X028640Y020593D01*
X028720Y020674D01*
X028750Y020686D01*
X028432Y021004D01*
X028432Y021460D01*
X028697Y021725D01*
X028697Y022300D01*
X028671Y022274D01*
X028581Y022237D01*
X028483Y022237D01*
X028393Y022274D01*
X028324Y022343D01*
X028287Y022433D01*
X028287Y022531D01*
X028324Y022621D01*
X028327Y022623D01*
X028327Y023117D01*
X028697Y023487D01*
X029297Y023487D01*
X029297Y023814D01*
X028720Y024390D01*
X028720Y024390D01*
X028654Y024457D01*
X028700Y024411D02*
X028265Y024411D01*
X028219Y024217D02*
X028894Y024217D01*
X028942Y024168D02*
X028336Y024168D01*
X028393Y024120D02*
X028991Y024120D01*
X029039Y024071D02*
X028442Y024071D01*
X028490Y024023D02*
X029088Y024023D01*
X029136Y023974D02*
X028512Y023974D01*
X028532Y023926D02*
X029185Y023926D01*
X029233Y023877D02*
X028552Y023877D01*
X028571Y023829D02*
X029282Y023829D01*
X029297Y023780D02*
X028571Y023780D01*
X028571Y023732D02*
X029297Y023732D01*
X029297Y023683D02*
X028571Y023683D01*
X028571Y023635D02*
X029297Y023635D01*
X029297Y023586D02*
X028552Y023586D01*
X028532Y023538D02*
X029297Y023538D01*
X029297Y023489D02*
X028512Y023489D01*
X028490Y023441D02*
X028651Y023441D01*
X028602Y023392D02*
X028442Y023392D01*
X028393Y023344D02*
X028554Y023344D01*
X028505Y023295D02*
X028336Y023295D01*
X028408Y023198D02*
X027455Y023198D01*
X027504Y023150D02*
X028360Y023150D01*
X028327Y023101D02*
X027552Y023101D01*
X027601Y023053D02*
X028327Y023053D01*
X028327Y023004D02*
X027649Y023004D01*
X027698Y022956D02*
X028327Y022956D01*
X028327Y022907D02*
X027746Y022907D01*
X027795Y022859D02*
X028327Y022859D01*
X028327Y022810D02*
X027843Y022810D01*
X027892Y022762D02*
X028327Y022762D01*
X028327Y022713D02*
X027940Y022713D01*
X027989Y022665D02*
X028327Y022665D01*
X028322Y022616D02*
X028037Y022616D01*
X028086Y022568D02*
X028302Y022568D01*
X028287Y022519D02*
X028134Y022519D01*
X028183Y022471D02*
X028287Y022471D01*
X028291Y022422D02*
X028231Y022422D01*
X028280Y022374D02*
X028311Y022374D01*
X028328Y022325D02*
X028342Y022325D01*
X028377Y022277D02*
X028390Y022277D01*
X028387Y022228D02*
X028697Y022228D01*
X028697Y022180D02*
X028387Y022180D01*
X028387Y022131D02*
X028697Y022131D01*
X028697Y022083D02*
X028387Y022083D01*
X028387Y022034D02*
X028697Y022034D01*
X028697Y021986D02*
X028387Y021986D01*
X028387Y021937D02*
X028697Y021937D01*
X028697Y021889D02*
X028387Y021889D01*
X028387Y021840D02*
X028697Y021840D01*
X028697Y021792D02*
X028387Y021792D01*
X028387Y021743D02*
X028697Y021743D01*
X028667Y021695D02*
X028387Y021695D01*
X028387Y021646D02*
X028619Y021646D01*
X028570Y021598D02*
X028387Y021598D01*
X028387Y021549D02*
X028522Y021549D01*
X028473Y021501D02*
X028387Y021501D01*
X028387Y021452D02*
X028432Y021452D01*
X028432Y021404D02*
X028387Y021404D01*
X028387Y021355D02*
X028432Y021355D01*
X028432Y021307D02*
X028387Y021307D01*
X028387Y021258D02*
X028432Y021258D01*
X028432Y021210D02*
X028387Y021210D01*
X028387Y021161D02*
X028432Y021161D01*
X028432Y021113D02*
X028387Y021113D01*
X028387Y021064D02*
X028432Y021064D01*
X028432Y021016D02*
X028387Y021016D01*
X028387Y020967D02*
X028469Y020967D01*
X028517Y020919D02*
X028387Y020919D01*
X028387Y020870D02*
X028566Y020870D01*
X028614Y020822D02*
X028387Y020822D01*
X028387Y020773D02*
X028663Y020773D01*
X028711Y020725D02*
X028387Y020725D01*
X028387Y020676D02*
X028727Y020676D01*
X028675Y020628D02*
X028387Y020628D01*
X028387Y020579D02*
X028626Y020579D01*
X028578Y020531D02*
X028371Y020531D01*
X028322Y020482D02*
X028529Y020482D01*
X028481Y020434D02*
X028274Y020434D01*
X028225Y020385D02*
X028432Y020385D01*
X028384Y020337D02*
X028177Y020337D01*
X028128Y020288D02*
X028335Y020288D01*
X028287Y020240D02*
X028080Y020240D01*
X028031Y020191D02*
X028238Y020191D01*
X028190Y020143D02*
X027983Y020143D01*
X027934Y020094D02*
X028141Y020094D01*
X028093Y020046D02*
X026597Y020046D01*
X026597Y019997D02*
X028044Y019997D01*
X027996Y019949D02*
X026597Y019949D01*
X026597Y019900D02*
X027947Y019900D01*
X027791Y020531D02*
X026337Y020531D01*
X026288Y020579D02*
X027210Y020579D01*
X027161Y020628D02*
X027035Y020628D01*
X027084Y020676D02*
X027160Y020676D01*
X027754Y020579D02*
X027839Y020579D01*
X027803Y020628D02*
X027888Y020628D01*
X027936Y020676D02*
X027804Y020676D01*
X027804Y020725D02*
X027977Y020725D01*
X027977Y020773D02*
X027804Y020773D01*
X027804Y020822D02*
X027977Y020822D01*
X027977Y020870D02*
X027804Y020870D01*
X027804Y020919D02*
X027977Y020919D01*
X027977Y020967D02*
X027804Y020967D01*
X027804Y021016D02*
X027977Y021016D01*
X027977Y021064D02*
X027804Y021064D01*
X027804Y021113D02*
X027977Y021113D01*
X027977Y021161D02*
X027804Y021161D01*
X027759Y021210D02*
X027977Y021210D01*
X027977Y021258D02*
X027764Y021258D01*
X027804Y021307D02*
X027977Y021307D01*
X027977Y021355D02*
X027804Y021355D01*
X027804Y021404D02*
X027977Y021404D01*
X027977Y021452D02*
X027804Y021452D01*
X027804Y021501D02*
X027977Y021501D01*
X027977Y021549D02*
X027804Y021549D01*
X027804Y021598D02*
X027977Y021598D01*
X027977Y021646D02*
X027804Y021646D01*
X027804Y021695D02*
X027977Y021695D01*
X027977Y021743D02*
X027804Y021743D01*
X027804Y021792D02*
X027977Y021792D01*
X027977Y021840D02*
X027798Y021840D01*
X027750Y021889D02*
X027977Y021889D01*
X027977Y021937D02*
X026627Y021937D01*
X026579Y021889D02*
X027214Y021889D01*
X027166Y021840D02*
X026530Y021840D01*
X026676Y021986D02*
X027977Y021986D01*
X027977Y022034D02*
X026724Y022034D01*
X026773Y022083D02*
X027977Y022083D01*
X027942Y022131D02*
X026821Y022131D01*
X026926Y022180D02*
X027894Y022180D01*
X027845Y022228D02*
X026975Y022228D01*
X027004Y022277D02*
X027797Y022277D01*
X027748Y022325D02*
X027024Y022325D01*
X027027Y022374D02*
X027700Y022374D01*
X027651Y022422D02*
X027027Y022422D01*
X027010Y022471D02*
X027603Y022471D01*
X027554Y022519D02*
X026990Y022519D01*
X026942Y022568D02*
X027506Y022568D01*
X027457Y022616D02*
X026856Y022616D01*
X027407Y023247D02*
X027906Y023247D01*
X027789Y023295D02*
X027407Y023295D01*
X027407Y023344D02*
X027732Y023344D01*
X027684Y023392D02*
X027407Y023392D01*
X027431Y023441D02*
X027635Y023441D01*
X027613Y023489D02*
X027479Y023489D01*
X027528Y023538D02*
X027593Y023538D01*
X027142Y023732D02*
X025117Y023732D01*
X025117Y023780D02*
X025301Y023780D01*
X025205Y023829D02*
X025117Y023829D01*
X025117Y023877D02*
X025156Y023877D01*
X025117Y023683D02*
X026101Y023683D01*
X026101Y023780D02*
X025563Y023780D01*
X025659Y023829D02*
X026005Y023829D01*
X025956Y023877D02*
X025708Y023877D01*
X025752Y023926D02*
X025911Y023926D01*
X025891Y023974D02*
X025773Y023974D01*
X025793Y024023D02*
X025871Y024023D01*
X025857Y024071D02*
X025807Y024071D01*
X025807Y024120D02*
X025857Y024120D01*
X025857Y024168D02*
X025807Y024168D01*
X025803Y024217D02*
X025861Y024217D01*
X025881Y024265D02*
X025782Y024265D01*
X025762Y024314D02*
X025901Y024314D01*
X025932Y024362D02*
X025732Y024362D01*
X025744Y024411D02*
X025981Y024411D01*
X026043Y024459D02*
X025793Y024459D01*
X026005Y023635D02*
X025117Y023635D01*
X025117Y023586D02*
X025956Y023586D01*
X025911Y023538D02*
X025117Y023538D01*
X025117Y023489D02*
X025891Y023489D01*
X025871Y023441D02*
X025117Y023441D01*
X025117Y023392D02*
X025857Y023392D01*
X025857Y023344D02*
X025117Y023344D01*
X025117Y023295D02*
X025857Y023295D01*
X025861Y023247D02*
X025117Y023247D01*
X025117Y023198D02*
X025881Y023198D01*
X025901Y023150D02*
X025117Y023150D01*
X025117Y023101D02*
X025932Y023101D01*
X025981Y023053D02*
X025117Y023053D01*
X025117Y023004D02*
X026043Y023004D01*
X025033Y022277D02*
X024797Y022277D01*
X024797Y022325D02*
X024827Y022325D01*
X025259Y021210D02*
X026164Y021210D01*
X026115Y021258D02*
X023987Y021258D01*
X024978Y020288D02*
X026000Y020288D01*
X026048Y020240D02*
X024930Y020240D01*
X024881Y020191D02*
X026097Y020191D01*
X025951Y020337D02*
X025027Y020337D01*
X025067Y020377D02*
X025067Y020377D01*
X025075Y020385D02*
X025903Y020385D01*
X025854Y020434D02*
X025124Y020434D01*
X025172Y020482D02*
X025806Y020482D01*
X025757Y020531D02*
X025187Y020531D01*
X025254Y020579D02*
X025709Y020579D01*
X025429Y020628D02*
X025303Y020628D01*
X025304Y021064D02*
X025405Y021064D01*
X025304Y021113D02*
X026261Y021113D01*
X026227Y021147D02*
X026227Y021147D01*
X026212Y021161D02*
X025304Y021161D01*
X026035Y021064D02*
X026309Y021064D01*
X026383Y021016D02*
X026081Y021016D01*
X026081Y020967D02*
X026383Y020967D01*
X026383Y020919D02*
X026081Y020919D01*
X026081Y020870D02*
X026383Y020870D01*
X026383Y020822D02*
X026081Y020822D01*
X026094Y020773D02*
X026383Y020773D01*
X026383Y020725D02*
X026143Y020725D01*
X026191Y020676D02*
X026404Y020676D01*
X026452Y020628D02*
X026240Y020628D01*
X027079Y021792D02*
X027160Y021792D01*
X028673Y022277D02*
X028697Y022277D01*
X029267Y022277D02*
X029834Y022277D01*
X029882Y022228D02*
X029267Y022228D01*
X029267Y022180D02*
X029931Y022180D01*
X029979Y022131D02*
X029267Y022131D01*
X029267Y022083D02*
X030028Y022083D01*
X030076Y022034D02*
X029267Y022034D01*
X029267Y021986D02*
X030125Y021986D01*
X030173Y021937D02*
X029267Y021937D01*
X029267Y021889D02*
X030222Y021889D01*
X030270Y021840D02*
X029267Y021840D01*
X029267Y021792D02*
X030319Y021792D01*
X030367Y021743D02*
X029267Y021743D01*
X029267Y021725D02*
X029267Y022989D01*
X029230Y023077D01*
X029297Y023077D01*
X029297Y022875D01*
X029340Y022770D01*
X030697Y021414D01*
X030697Y020717D01*
X029245Y020717D01*
X029532Y021004D01*
X029532Y021460D01*
X029267Y021725D01*
X029297Y021695D02*
X030416Y021695D01*
X030464Y021646D02*
X029345Y021646D01*
X029394Y021598D02*
X030513Y021598D01*
X030561Y021549D02*
X029442Y021549D01*
X029491Y021501D02*
X030610Y021501D01*
X030658Y021452D02*
X029532Y021452D01*
X029532Y021404D02*
X030697Y021404D01*
X030697Y021355D02*
X029532Y021355D01*
X029532Y021307D02*
X030697Y021307D01*
X030697Y021258D02*
X029532Y021258D01*
X029532Y021210D02*
X030697Y021210D01*
X030697Y021161D02*
X029532Y021161D01*
X029532Y021113D02*
X030697Y021113D01*
X030697Y021064D02*
X029532Y021064D01*
X029532Y021016D02*
X030697Y021016D01*
X030697Y020967D02*
X029495Y020967D01*
X029447Y020919D02*
X030697Y020919D01*
X030697Y020870D02*
X029398Y020870D01*
X029350Y020822D02*
X030697Y020822D01*
X030697Y020773D02*
X029301Y020773D01*
X029253Y020725D02*
X030697Y020725D01*
X030710Y020143D02*
X028996Y020143D01*
X029270Y020046D02*
X030350Y020046D01*
X030267Y019997D02*
X029319Y019997D01*
X029367Y019949D02*
X030185Y019949D01*
X030102Y019900D02*
X029416Y019900D01*
X029464Y019852D02*
X030020Y019852D01*
X029952Y019803D02*
X029513Y019803D01*
X029561Y019755D02*
X029889Y019755D01*
X029826Y019706D02*
X029610Y019706D01*
X029658Y019658D02*
X029763Y019658D01*
X031076Y021840D02*
X031080Y021840D01*
X031074Y021889D02*
X031028Y021889D01*
X031069Y021937D02*
X030979Y021937D01*
X030931Y021986D02*
X031063Y021986D01*
X031057Y022034D02*
X030882Y022034D01*
X030834Y022083D02*
X031051Y022083D01*
X031045Y022131D02*
X030785Y022131D01*
X030737Y022180D02*
X031040Y022180D01*
X031034Y022228D02*
X030688Y022228D01*
X030640Y022277D02*
X031028Y022277D01*
X031022Y022325D02*
X030591Y022325D01*
X030543Y022374D02*
X031016Y022374D01*
X031011Y022422D02*
X030494Y022422D01*
X030446Y022471D02*
X031005Y022471D01*
X030999Y022519D02*
X030623Y022519D01*
X030672Y022568D02*
X030993Y022568D01*
X030987Y022616D02*
X030720Y022616D01*
X030747Y022665D02*
X030982Y022665D01*
X030976Y022713D02*
X030761Y022713D01*
X030809Y022762D02*
X030970Y022762D01*
X030964Y022810D02*
X030858Y022810D01*
X030906Y022859D02*
X030958Y022859D01*
X030953Y022907D02*
X030907Y022907D01*
X030907Y022956D02*
X030947Y022956D01*
X030941Y023004D02*
X030907Y023004D01*
X030907Y023053D02*
X030935Y023053D01*
X030930Y023101D02*
X030907Y023101D01*
X030907Y023150D02*
X030930Y023150D01*
X030930Y023198D02*
X030907Y023198D01*
X030907Y023247D02*
X030930Y023247D01*
X030930Y023295D02*
X030907Y023295D01*
X030317Y022810D02*
X030106Y022810D01*
X030155Y022762D02*
X030317Y022762D01*
X030317Y022713D02*
X030203Y022713D01*
X030252Y022665D02*
X030317Y022665D01*
X030300Y022616D02*
X030343Y022616D01*
X030349Y022568D02*
X030392Y022568D01*
X030397Y022519D02*
X030440Y022519D01*
X029785Y022325D02*
X029267Y022325D01*
X029267Y022374D02*
X029737Y022374D01*
X029688Y022422D02*
X029267Y022422D01*
X029267Y022471D02*
X029640Y022471D01*
X029591Y022519D02*
X029267Y022519D01*
X029267Y022568D02*
X029543Y022568D01*
X029494Y022616D02*
X029267Y022616D01*
X029267Y022665D02*
X029446Y022665D01*
X029397Y022713D02*
X029267Y022713D01*
X029267Y022762D02*
X029349Y022762D01*
X029324Y022810D02*
X029267Y022810D01*
X029267Y022859D02*
X029304Y022859D01*
X029297Y022907D02*
X029267Y022907D01*
X029267Y022956D02*
X029297Y022956D01*
X029297Y023004D02*
X029260Y023004D01*
X029240Y023053D02*
X029297Y023053D01*
X028457Y023247D02*
X028219Y023247D01*
X027789Y024168D02*
X027737Y024168D01*
X027737Y024217D02*
X027906Y024217D01*
X027737Y024265D02*
X028845Y024265D01*
X028797Y024314D02*
X027737Y024314D01*
X027737Y024362D02*
X028748Y024362D01*
X029360Y024556D02*
X030124Y024556D01*
X030076Y024508D02*
X029409Y024508D01*
X029457Y024459D02*
X030027Y024459D01*
X029997Y024411D02*
X029506Y024411D01*
X029554Y024362D02*
X029997Y024362D01*
X029997Y024314D02*
X029603Y024314D01*
X029651Y024265D02*
X029997Y024265D01*
X030015Y024217D02*
X029700Y024217D01*
X029748Y024168D02*
X030063Y024168D01*
X030112Y024120D02*
X029797Y024120D01*
X027999Y024411D02*
X027965Y024411D01*
X027834Y027127D02*
X026347Y027127D01*
X026347Y027175D02*
X027785Y027175D01*
X027737Y027224D02*
X026347Y027224D01*
X026347Y027272D02*
X027688Y027272D01*
X027640Y027321D02*
X026347Y027321D01*
X026347Y027369D02*
X027591Y027369D01*
X027543Y027418D02*
X026347Y027418D01*
X026347Y027466D02*
X027494Y027466D01*
X027446Y027515D02*
X026347Y027515D01*
X026347Y027563D02*
X027422Y027563D01*
X027402Y027612D02*
X026335Y027612D01*
X026287Y027660D02*
X027397Y027660D01*
X027397Y027709D02*
X026238Y027709D01*
X026190Y027757D02*
X027397Y027757D01*
X027397Y027806D02*
X026147Y027806D01*
X026147Y027854D02*
X027397Y027854D01*
X027397Y027903D02*
X026147Y027903D01*
X026116Y027951D02*
X027397Y027951D01*
X027397Y028000D02*
X026068Y028000D01*
X025947Y028048D02*
X027397Y028048D01*
X027397Y028097D02*
X026762Y028097D01*
X026810Y028145D02*
X027397Y028145D01*
X027397Y028194D02*
X026810Y028194D01*
X027146Y028242D02*
X027397Y028242D01*
X027370Y028291D02*
X027195Y028291D01*
X027243Y028339D02*
X027321Y028339D01*
X027273Y028388D02*
X027247Y028388D01*
X027014Y028647D02*
X026943Y028647D01*
X026834Y028538D01*
X026810Y028538D01*
X026810Y028602D01*
X026736Y028675D01*
X025944Y028675D01*
X025871Y028602D01*
X025871Y028197D01*
X025821Y028247D01*
X025797Y028247D01*
X025797Y028764D01*
X025951Y028918D01*
X025953Y028918D01*
X025999Y028966D01*
X026047Y029014D01*
X026047Y029015D01*
X026277Y029252D01*
X026736Y029252D01*
X026810Y029325D01*
X026810Y029783D01*
X026743Y029850D01*
X026810Y029916D01*
X026810Y030374D01*
X026736Y030447D01*
X025944Y030447D01*
X025882Y030385D01*
X025771Y030497D01*
X025750Y030497D01*
X025850Y030597D01*
X026847Y030597D01*
X026847Y028875D01*
X026890Y028770D01*
X027014Y028647D01*
X026982Y028679D02*
X025797Y028679D01*
X025797Y028727D02*
X026933Y028727D01*
X026888Y028776D02*
X025809Y028776D01*
X025858Y028824D02*
X026868Y028824D01*
X026848Y028873D02*
X025906Y028873D01*
X025956Y028921D02*
X026847Y028921D01*
X026847Y028970D02*
X026003Y028970D01*
X026050Y029018D02*
X026847Y029018D01*
X026847Y029067D02*
X026097Y029067D01*
X026144Y029115D02*
X026847Y029115D01*
X026847Y029164D02*
X026191Y029164D01*
X026238Y029212D02*
X026847Y029212D01*
X026847Y029261D02*
X026745Y029261D01*
X026794Y029309D02*
X026847Y029309D01*
X026847Y029358D02*
X026810Y029358D01*
X026810Y029406D02*
X026847Y029406D01*
X026847Y029455D02*
X026810Y029455D01*
X026810Y029503D02*
X026847Y029503D01*
X026847Y029552D02*
X026810Y029552D01*
X026810Y029600D02*
X026847Y029600D01*
X026847Y029649D02*
X026810Y029649D01*
X026810Y029697D02*
X026847Y029697D01*
X026847Y029746D02*
X026810Y029746D01*
X026799Y029794D02*
X026847Y029794D01*
X026847Y029843D02*
X026750Y029843D01*
X026785Y029891D02*
X026847Y029891D01*
X026847Y029940D02*
X026810Y029940D01*
X026810Y029988D02*
X026847Y029988D01*
X026847Y030037D02*
X026810Y030037D01*
X026810Y030085D02*
X026847Y030085D01*
X026847Y030134D02*
X026810Y030134D01*
X026810Y030182D02*
X026847Y030182D01*
X026847Y030231D02*
X026810Y030231D01*
X026810Y030279D02*
X026847Y030279D01*
X026847Y030328D02*
X026810Y030328D01*
X026807Y030376D02*
X026847Y030376D01*
X026847Y030425D02*
X026759Y030425D01*
X026847Y030473D02*
X025794Y030473D01*
X025775Y030522D02*
X026847Y030522D01*
X026847Y030570D02*
X025823Y030570D01*
X025843Y030425D02*
X025922Y030425D01*
X025871Y030167D02*
X025871Y029916D01*
X025937Y029850D01*
X025871Y029783D01*
X025871Y029325D01*
X025880Y029316D01*
X025764Y029198D01*
X025564Y028997D01*
X025467Y028900D01*
X025467Y028471D01*
X025367Y028371D01*
X025367Y028209D01*
X024717Y028859D01*
X024717Y028952D01*
X024771Y028974D01*
X024813Y029017D01*
X025550Y029017D01*
X025647Y029114D01*
X025847Y029314D01*
X025847Y030143D01*
X025871Y030167D01*
X025871Y030134D02*
X025847Y030134D01*
X025847Y030085D02*
X025871Y030085D01*
X025871Y030037D02*
X025847Y030037D01*
X025847Y029988D02*
X025871Y029988D01*
X025871Y029940D02*
X025847Y029940D01*
X025847Y029891D02*
X025895Y029891D01*
X025930Y029843D02*
X025847Y029843D01*
X025847Y029794D02*
X025882Y029794D01*
X025871Y029746D02*
X025847Y029746D01*
X025847Y029697D02*
X025871Y029697D01*
X025871Y029649D02*
X025847Y029649D01*
X025847Y029600D02*
X025871Y029600D01*
X025871Y029552D02*
X025847Y029552D01*
X025847Y029503D02*
X025871Y029503D01*
X025871Y029455D02*
X025847Y029455D01*
X025847Y029406D02*
X025871Y029406D01*
X025871Y029358D02*
X025847Y029358D01*
X025843Y029309D02*
X025873Y029309D01*
X025826Y029261D02*
X025794Y029261D01*
X025779Y029212D02*
X025746Y029212D01*
X025731Y029164D02*
X025697Y029164D01*
X025682Y029115D02*
X025649Y029115D01*
X025634Y029067D02*
X025600Y029067D01*
X025585Y029018D02*
X025552Y029018D01*
X025537Y028970D02*
X024760Y028970D01*
X024717Y028921D02*
X025488Y028921D01*
X025467Y028873D02*
X024717Y028873D01*
X024751Y028824D02*
X025467Y028824D01*
X025467Y028776D02*
X024799Y028776D01*
X024848Y028727D02*
X025467Y028727D01*
X025467Y028679D02*
X024896Y028679D01*
X024945Y028630D02*
X025467Y028630D01*
X025467Y028582D02*
X024993Y028582D01*
X025042Y028533D02*
X025467Y028533D01*
X025467Y028485D02*
X025090Y028485D01*
X025139Y028436D02*
X025432Y028436D01*
X025384Y028388D02*
X025187Y028388D01*
X025236Y028339D02*
X025367Y028339D01*
X025367Y028291D02*
X025284Y028291D01*
X025333Y028242D02*
X025367Y028242D01*
X025797Y028291D02*
X025871Y028291D01*
X025871Y028339D02*
X025797Y028339D01*
X025797Y028388D02*
X025871Y028388D01*
X025871Y028436D02*
X025797Y028436D01*
X025797Y028485D02*
X025871Y028485D01*
X025871Y028533D02*
X025797Y028533D01*
X025797Y028582D02*
X025871Y028582D01*
X025899Y028630D02*
X025797Y028630D01*
X025825Y028242D02*
X025871Y028242D01*
X026781Y028630D02*
X026926Y028630D01*
X026878Y028582D02*
X026810Y028582D01*
X025517Y029551D02*
X025517Y030143D01*
X025467Y030193D01*
X025467Y030264D01*
X025464Y030267D01*
X024101Y030267D01*
X024147Y030221D01*
X024147Y030043D01*
X024021Y029917D01*
X023997Y029917D01*
X023997Y029847D01*
X024021Y029847D01*
X024147Y029721D01*
X024147Y029543D01*
X024021Y029417D01*
X023843Y029417D01*
X023793Y029467D01*
X023664Y029467D01*
X023642Y029488D01*
X023551Y029397D01*
X024164Y029397D01*
X024267Y029500D01*
X024364Y029597D01*
X025193Y029597D01*
X025243Y029647D01*
X025421Y029647D01*
X025517Y029551D01*
X025516Y029552D02*
X025517Y029552D01*
X025517Y029600D02*
X025467Y029600D01*
X025517Y029649D02*
X024147Y029649D01*
X024147Y029697D02*
X025517Y029697D01*
X025517Y029746D02*
X024122Y029746D01*
X024073Y029794D02*
X025517Y029794D01*
X025517Y029843D02*
X024025Y029843D01*
X023997Y029891D02*
X025517Y029891D01*
X025517Y029940D02*
X024044Y029940D01*
X024092Y029988D02*
X025517Y029988D01*
X025517Y030037D02*
X024141Y030037D01*
X024147Y030085D02*
X025517Y030085D01*
X025517Y030134D02*
X024147Y030134D01*
X024147Y030182D02*
X025477Y030182D01*
X025467Y030231D02*
X024137Y030231D01*
X024147Y029600D02*
X025196Y029600D01*
X024319Y029552D02*
X024147Y029552D01*
X024107Y029503D02*
X024270Y029503D01*
X024222Y029455D02*
X024059Y029455D01*
X024173Y029406D02*
X023560Y029406D01*
X023609Y029455D02*
X023805Y029455D01*
X021817Y028776D02*
X021809Y028776D01*
X021817Y028727D02*
X021761Y028727D01*
X021712Y028679D02*
X021817Y028679D01*
X021817Y028630D02*
X021664Y028630D01*
X021615Y028582D02*
X021817Y028582D01*
X021817Y028533D02*
X021567Y028533D01*
X021518Y028485D02*
X021817Y028485D01*
X021817Y028436D02*
X021497Y028436D01*
X021497Y028388D02*
X021817Y028388D01*
X021817Y028339D02*
X021497Y028339D01*
X021627Y028291D02*
X021817Y028291D01*
X021817Y028242D02*
X021675Y028242D01*
X021724Y028194D02*
X021817Y028194D01*
X021817Y028145D02*
X021747Y028145D01*
X021747Y028097D02*
X021817Y028097D01*
X021817Y028048D02*
X021747Y028048D01*
X021747Y028000D02*
X021817Y028000D01*
X021817Y027951D02*
X021705Y027951D01*
X021657Y027903D02*
X021817Y027903D01*
X022159Y027175D02*
X022197Y027175D01*
X022197Y027127D02*
X022110Y027127D01*
X022062Y027078D02*
X022197Y027078D01*
X022197Y027030D02*
X022013Y027030D01*
X021997Y026981D02*
X022197Y026981D01*
X022197Y026933D02*
X021997Y026933D01*
X021997Y026884D02*
X022197Y026884D01*
X022197Y026836D02*
X021997Y026836D01*
X021997Y026787D02*
X022197Y026787D01*
X022197Y026739D02*
X021997Y026739D01*
X021997Y026690D02*
X022197Y026690D01*
X022197Y026642D02*
X021997Y026642D01*
X021997Y026593D02*
X022197Y026593D01*
X022197Y026545D02*
X021997Y026545D01*
X021997Y026496D02*
X022197Y026496D01*
X022197Y026448D02*
X021997Y026448D01*
X021997Y026399D02*
X022195Y026399D01*
X022167Y026351D02*
X021997Y026351D01*
X022015Y026302D02*
X022167Y026302D01*
X022167Y026254D02*
X022047Y026254D01*
X022047Y026205D02*
X022167Y026205D01*
X022203Y026157D02*
X022047Y026157D01*
X022047Y026108D02*
X022251Y026108D01*
X022327Y026060D02*
X022014Y026060D01*
X021965Y026011D02*
X022278Y026011D01*
X022067Y025900D02*
X022067Y025900D01*
X022033Y025866D02*
X021952Y025866D01*
X021932Y025478D02*
X021974Y025478D01*
X022470Y025187D02*
X022739Y025187D01*
X022788Y025235D02*
X022519Y025235D01*
X022567Y025284D02*
X022897Y025284D01*
X022897Y025332D02*
X022616Y025332D01*
X022664Y025381D02*
X022897Y025381D01*
X022880Y025429D02*
X022713Y025429D01*
X022761Y025478D02*
X022867Y025478D01*
X022867Y025526D02*
X022810Y025526D01*
X022858Y025575D02*
X022867Y025575D01*
X021667Y026399D02*
X021083Y026399D01*
X021131Y026448D02*
X021667Y026448D01*
X021667Y026496D02*
X021180Y026496D01*
X021228Y026545D02*
X021667Y026545D01*
X021667Y026593D02*
X021277Y026593D01*
X021325Y026642D02*
X021667Y026642D01*
X021667Y026690D02*
X021374Y026690D01*
X021422Y026739D02*
X021667Y026739D01*
X021667Y026787D02*
X021471Y026787D01*
X021519Y026836D02*
X021667Y026836D01*
X021667Y026884D02*
X021568Y026884D01*
X021616Y026933D02*
X021667Y026933D01*
X021665Y026981D02*
X021667Y026981D01*
X019701Y026884D02*
X016232Y026884D01*
X016232Y026836D02*
X019653Y026836D01*
X019604Y026787D02*
X016232Y026787D01*
X016232Y026739D02*
X019556Y026739D01*
X019517Y026690D02*
X016232Y026690D01*
X016232Y026642D02*
X019517Y026642D01*
X016438Y026933D02*
X016232Y026933D01*
X016232Y026981D02*
X016379Y026981D01*
X016330Y027030D02*
X016232Y027030D01*
X016232Y027078D02*
X016287Y027078D01*
X016267Y027127D02*
X016232Y027127D01*
X016232Y027175D02*
X016247Y027175D01*
X024987Y020297D02*
X024987Y020297D01*
D34*
X026382Y019982D02*
X021932Y019982D01*
X021582Y020332D01*
X021982Y020582D02*
X021047Y020582D01*
X020732Y020897D01*
X020482Y020332D02*
X020132Y020682D01*
X020132Y021382D01*
X020482Y020332D02*
X020732Y020332D01*
X021982Y020582D02*
X022220Y020820D01*
X022220Y020858D01*
X023232Y021882D02*
X024232Y021882D01*
X024632Y022282D01*
X024632Y022432D01*
X024482Y022582D01*
X024482Y022682D01*
X024382Y022782D01*
X024382Y023426D01*
X024282Y023426D01*
X024271Y023437D01*
X023830Y023193D02*
X023830Y022483D01*
X024032Y022282D01*
X023437Y022787D02*
X023232Y022582D01*
X022882Y022582D01*
X022732Y022432D01*
X023132Y021982D02*
X023232Y021882D01*
X023437Y022787D02*
X023437Y023193D01*
X023193Y024027D02*
X023188Y024032D01*
X022882Y024032D01*
X022082Y024032D01*
X022082Y024182D01*
X021961Y024303D01*
X021803Y024303D01*
X022082Y024532D02*
X021432Y024532D01*
X021409Y024509D01*
X021409Y024303D01*
X021432Y024532D02*
X020732Y024532D01*
X020132Y023932D01*
X020132Y023532D01*
X019732Y023132D01*
X018882Y023132D01*
X018676Y023338D01*
X017826Y023338D01*
X017582Y023732D02*
X017432Y023582D01*
X017432Y022944D01*
X017039Y022551D01*
X017826Y022551D02*
X018157Y022882D01*
X020382Y022882D01*
X020032Y024432D02*
X020032Y025432D01*
X020582Y025982D01*
X020582Y026282D01*
X020682Y026382D01*
X020832Y026382D01*
X021982Y027532D01*
X021982Y028932D01*
X022732Y029682D01*
X023332Y029682D01*
X023432Y029582D01*
X023482Y029882D02*
X023732Y029632D01*
X023932Y029632D01*
X023782Y029882D02*
X023632Y030032D01*
X022582Y030032D01*
X020482Y027932D01*
X020482Y026532D01*
X020332Y026382D01*
X020332Y026182D01*
X020132Y026482D02*
X020132Y025782D01*
X019732Y025382D01*
X019732Y024432D01*
X018932Y024932D02*
X018913Y024913D01*
X017826Y024913D01*
X017432Y024519D02*
X017432Y026032D01*
X017782Y026382D01*
X018182Y026382D01*
X017826Y025700D02*
X019400Y025700D01*
X019432Y025732D01*
X019682Y025632D02*
X019432Y025382D01*
X019682Y025632D02*
X019682Y026632D01*
X019882Y026832D01*
X019882Y028082D01*
X021482Y029682D01*
X021482Y029782D01*
X021682Y029982D01*
X021832Y030232D02*
X022232Y030232D01*
X022432Y030432D01*
X025532Y030432D01*
X025682Y030282D01*
X025682Y029382D01*
X025482Y029182D01*
X024632Y029182D01*
X024432Y029432D02*
X024232Y029232D01*
X023282Y029232D01*
X023132Y029482D02*
X022782Y029482D01*
X022182Y028882D01*
X022182Y027432D01*
X021832Y027082D01*
X021832Y026182D01*
X021832Y025682D02*
X022082Y025682D01*
X022232Y025832D01*
X022332Y025832D01*
X022682Y026182D01*
X025082Y026182D01*
X025532Y026232D02*
X025532Y026282D01*
X025932Y026682D01*
X025932Y027432D01*
X025682Y027682D01*
X025682Y027982D01*
X025732Y028032D01*
X025932Y027832D02*
X025932Y027782D01*
X026182Y027532D01*
X026182Y026682D01*
X025732Y026232D01*
X025732Y026132D01*
X024732Y025132D01*
X024682Y025132D01*
X024632Y025332D02*
X024482Y025332D01*
X024632Y025332D02*
X025532Y026232D01*
X025782Y025832D02*
X026032Y025582D01*
X026032Y024932D01*
X025432Y024332D01*
X025432Y024132D01*
X025232Y024682D02*
X025082Y024682D01*
X025232Y024682D02*
X025432Y024882D01*
X024882Y024932D02*
X025482Y025532D01*
X025782Y025532D01*
X024132Y025582D02*
X024132Y025882D01*
X024032Y025982D01*
X022732Y025982D01*
X022332Y025582D01*
X022382Y025332D02*
X022132Y025332D01*
X022382Y025332D02*
X022832Y025782D01*
X023732Y025782D01*
X023482Y024882D02*
X022982Y024882D01*
X022632Y024532D01*
X022082Y024532D01*
X022901Y024451D02*
X022901Y024051D01*
X022882Y024032D01*
X022901Y024451D02*
X023001Y024551D01*
X023437Y024271D02*
X023437Y024837D01*
X023482Y024882D01*
X021124Y026011D02*
X020976Y026011D01*
X020282Y026632D02*
X020132Y026482D01*
X020282Y026632D02*
X020282Y027982D01*
X022482Y030182D01*
X023882Y030182D01*
X023932Y030132D01*
X023482Y029882D02*
X022682Y029882D01*
X021332Y028532D01*
X021332Y028232D01*
X021482Y028082D01*
X021532Y028082D01*
X020082Y028032D02*
X020082Y026732D01*
X019932Y026582D01*
X019932Y025982D01*
X018632Y024432D02*
X018326Y024126D01*
X017826Y024126D01*
X017582Y023732D02*
X018382Y023732D01*
X017432Y024519D02*
X017039Y024126D01*
X020082Y028032D02*
X021682Y029632D01*
X021682Y029682D01*
X021582Y030482D02*
X020582Y030482D01*
X020382Y030282D01*
X020382Y029982D01*
X024432Y029432D02*
X025332Y029432D01*
X025882Y029082D02*
X026340Y029554D01*
X025882Y029082D02*
X025632Y028832D01*
X025632Y028332D01*
X025582Y028282D01*
X026340Y028373D02*
X026973Y028373D01*
X027032Y028432D01*
X027846Y026546D02*
X027832Y026532D01*
X027832Y026370D01*
X027608Y026146D01*
X028882Y026482D02*
X030182Y026482D01*
X028356Y024708D02*
X028356Y024582D01*
X028132Y024582D01*
X027832Y024582D02*
X027608Y024806D01*
X027608Y025118D01*
X027443Y021606D02*
X026744Y021606D01*
X027443Y021606D02*
X027482Y021567D01*
X027482Y020897D02*
X027443Y020858D01*
X026744Y020858D01*
X024252Y018552D02*
X024252Y018292D01*
X023992Y018292D02*
X023992Y018772D01*
X023832Y018932D01*
X023732Y018682D02*
X023482Y018932D01*
X023732Y018682D02*
X023732Y018292D01*
D35*
X024932Y022482D02*
X024682Y022732D01*
X024682Y024382D01*
X023782Y025282D01*
X023082Y025282D01*
X023082Y025532D01*
X023382Y025532D02*
X023882Y025532D01*
X024932Y024482D01*
X024932Y022832D01*
X025032Y022732D01*
X024932Y022482D02*
X025132Y022482D01*
X024832Y026382D02*
X022682Y026382D01*
X022382Y026682D01*
X022382Y026282D01*
X022382Y026682D02*
X022382Y028782D01*
X024532Y028782D01*
X025232Y028082D01*
X025232Y026782D01*
X025532Y026782D01*
X025232Y026782D02*
X024832Y026382D01*
X024532Y028782D02*
X024532Y029082D01*
X024632Y029182D01*
X021015Y022732D02*
X021015Y022432D01*
X019532Y022432D01*
X018332Y021232D01*
X017332Y021232D01*
X017032Y021532D01*
X017032Y021763D01*
X017033Y021763D01*
D36*
X020382Y023232D02*
X020453Y023161D01*
X021015Y023161D01*
X021015Y022732D01*
X021409Y022732D01*
X022220Y022732D01*
X022220Y021606D01*
X023244Y021606D02*
X023558Y021606D01*
X023782Y021382D01*
X023782Y021032D01*
X023782Y020532D01*
X023932Y020382D01*
X024782Y020382D01*
X024982Y020582D01*
X024982Y020897D01*
X025021Y020858D01*
X025720Y020858D01*
X026296Y020282D01*
X027832Y020282D01*
X028182Y020632D01*
X028182Y022182D01*
X027032Y023332D01*
X027532Y023832D01*
X027532Y024482D01*
X027082Y024932D01*
X027082Y026332D01*
X027082Y026682D01*
X027282Y026882D01*
X027932Y026882D01*
X028356Y026458D01*
X028356Y026146D01*
X028856Y024632D02*
X028882Y024632D01*
X028782Y023282D02*
X028532Y023032D01*
X028532Y022482D01*
X028782Y023282D02*
X029532Y023282D01*
X029582Y023232D01*
X026782Y022382D02*
X026432Y022032D01*
X026232Y022032D01*
X026232Y021582D01*
X025744Y021582D01*
X025720Y021606D01*
X026232Y021582D02*
X026232Y021432D01*
X026432Y021232D01*
X026744Y021232D01*
X026232Y022032D02*
X024678Y022032D01*
X024232Y021586D01*
X023782Y021032D02*
X023608Y020858D01*
X023244Y020858D01*
X022582Y019232D02*
X022532Y019182D01*
X022582Y019232D02*
X024002Y019232D01*
X024252Y018982D01*
X025232Y018982D01*
X024252Y018982D02*
X024252Y018552D01*
X022282Y022732D02*
X022582Y023032D01*
X022782Y022832D01*
X020382Y025417D02*
X020976Y026011D01*
D37*
X020382Y025417D03*
X018732Y027382D03*
X020382Y023232D03*
X022782Y022832D03*
X025532Y026782D03*
X027082Y026332D03*
X028422Y027742D03*
X028882Y025232D03*
X028882Y024932D03*
X028882Y024632D03*
X028982Y022932D03*
X028982Y022582D03*
X028532Y022482D03*
X026782Y022382D03*
X025232Y018982D03*
X026492Y017272D03*
X020992Y017342D03*
X024632Y029182D03*
D38*
X023632Y025082D02*
X022882Y025082D01*
X022582Y024782D01*
X021026Y024782D01*
X020826Y024982D01*
X020726Y025073D01*
X020382Y025417D01*
X021409Y023161D02*
X021409Y022732D01*
X022220Y022732D02*
X022282Y022732D01*
X022582Y023032D02*
X022987Y023437D01*
X023193Y023437D01*
X023633Y024271D02*
X023633Y024682D01*
X023832Y024880D01*
X023832Y024882D01*
X023632Y025082D01*
X023832Y024882D02*
X024027Y024687D01*
X024027Y024271D01*
X022220Y021606D02*
X021482Y021606D01*
X021482Y021488D01*
X028356Y024708D02*
X028432Y024632D01*
X028882Y024632D01*
X028356Y024708D02*
X028356Y025118D01*
X030732Y026482D02*
X030732Y022932D01*
X030532Y022732D01*
X030732Y026482D02*
X030882Y026632D01*
X032787Y035149D02*
X032799Y035149D01*
X033182Y035532D01*
X020332Y030882D02*
X020182Y030732D01*
X020182Y030282D01*
X020082Y030182D01*
X020082Y029882D01*
X020282Y029682D01*
X020282Y028982D01*
X014677Y035149D02*
X014665Y035149D01*
X014282Y035532D01*
X012315Y014677D02*
X012315Y014665D01*
X011932Y014282D01*
X035149Y014665D02*
X035149Y014677D01*
X035149Y014665D02*
X035532Y014282D01*
D39*
X030982Y020232D02*
X030982Y020432D01*
X028882Y020432D01*
X028032Y019582D01*
X019332Y019582D01*
X018532Y020382D01*
X016582Y020382D01*
X016532Y020332D01*
X020282Y016632D02*
X020992Y017342D01*
X026492Y017272D02*
X027182Y016582D01*
X030982Y020432D02*
X030982Y021532D01*
X029582Y022932D01*
X029582Y023232D01*
X029582Y023932D01*
X028882Y024632D01*
X028882Y026482D01*
X027682Y027682D01*
X027682Y028382D01*
X027132Y028932D01*
X027132Y030832D01*
X027182Y030882D01*
X025732Y030882D01*
X025582Y030732D01*
X021832Y030732D01*
X021682Y030882D01*
X020332Y030882D01*
X020232Y030982D01*
X018732Y027382D02*
X018542Y027182D01*
X016582Y027182D01*
X016532Y027232D01*
X016440Y027489D01*
X016341Y027743D01*
X016237Y027995D01*
X016126Y028245D01*
X016009Y028491D01*
X015886Y028735D01*
X015758Y028975D01*
X015623Y029213D01*
X015483Y029447D01*
X015337Y029677D01*
X015186Y029904D01*
X015029Y030127D01*
X014867Y030346D01*
X014699Y030562D01*
X014526Y030773D01*
X014348Y030980D01*
X014166Y031182D01*
X013978Y031380D01*
X013785Y031573D01*
X013588Y031762D01*
X013387Y031945D01*
X013181Y032124D01*
X012970Y032298D01*
X012756Y032466D01*
X012537Y032630D01*
X012315Y032788D01*
X016532Y020332D02*
X016426Y020053D01*
X016313Y019777D01*
X016194Y019504D01*
X016068Y019234D01*
X015936Y018967D01*
X015797Y018703D01*
X015652Y018443D01*
X015501Y018186D01*
X015343Y017933D01*
X015180Y017683D01*
X015010Y017438D01*
X014835Y017197D01*
X014654Y016960D01*
X014467Y016728D01*
X014275Y016500D01*
X014077Y016277D01*
X013874Y016059D01*
X013666Y015845D01*
X013453Y015637D01*
X013235Y015434D01*
X013011Y015237D01*
X012784Y015044D01*
X012551Y014858D01*
X012314Y014677D01*
X027182Y016582D02*
X027449Y016479D01*
X027714Y016371D01*
X027976Y016256D01*
X028235Y016135D01*
X028491Y016008D01*
X028744Y015874D01*
X028994Y015735D01*
X029240Y015590D01*
X029483Y015439D01*
X029722Y015283D01*
X029958Y015121D01*
X030189Y014953D01*
X030417Y014780D01*
X030640Y014601D01*
X030859Y014417D01*
X031074Y014228D01*
X031284Y014034D01*
X031489Y013835D01*
X031690Y013631D01*
X031886Y013423D01*
X032077Y013210D01*
X032262Y012992D01*
X032443Y012770D01*
X032618Y012544D01*
X032787Y012314D01*
X020282Y016632D02*
X020005Y016521D01*
X019730Y016402D01*
X019458Y016278D01*
X019190Y016147D01*
X018924Y016010D01*
X018662Y015866D01*
X018404Y015716D01*
X018149Y015560D01*
X017898Y015398D01*
X017651Y015230D01*
X017407Y015056D01*
X017168Y014877D01*
X016934Y014692D01*
X016704Y014501D01*
X016478Y014305D01*
X016258Y014103D01*
X016042Y013897D01*
X015831Y013685D01*
X015625Y013468D01*
X015424Y013247D01*
X015229Y013020D01*
X015039Y012790D01*
X014855Y012554D01*
X014677Y012315D01*
X028982Y021232D02*
X028982Y022932D01*
X029032Y027132D02*
X030832Y027132D01*
X030882Y027182D01*
X029032Y027132D02*
X028422Y027742D01*
X030982Y020232D02*
X031086Y019957D01*
X031197Y019686D01*
X031314Y019417D01*
X031438Y019151D01*
X031569Y018888D01*
X031706Y018628D01*
X031849Y018372D01*
X031998Y018119D01*
X032154Y017870D01*
X032315Y017625D01*
X032483Y017384D01*
X032656Y017147D01*
X032835Y016914D01*
X033019Y016686D01*
X033210Y016462D01*
X033405Y016244D01*
X033606Y016029D01*
X033812Y015820D01*
X034023Y015616D01*
X034239Y015418D01*
X034460Y015224D01*
X034685Y015036D01*
X034915Y014854D01*
X035149Y014677D01*
X030882Y027182D02*
X030991Y027459D01*
X031107Y027733D01*
X031230Y028004D01*
X031359Y028272D01*
X031494Y028537D01*
X031636Y028799D01*
X031784Y029057D01*
X031937Y029312D01*
X032097Y029563D01*
X032263Y029810D01*
X032435Y030053D01*
X032612Y030292D01*
X032795Y030526D01*
X032984Y030757D01*
X033178Y030982D01*
X033377Y031203D01*
X033582Y031419D01*
X033791Y031630D01*
X034006Y031837D01*
X034225Y032038D01*
X034450Y032233D01*
X034678Y032424D01*
X034912Y032608D01*
X035149Y032787D01*
X020232Y030981D02*
X019968Y031080D01*
X019707Y031185D01*
X019447Y031296D01*
X019191Y031414D01*
X018938Y031537D01*
X018687Y031666D01*
X018440Y031802D01*
X018196Y031943D01*
X017955Y032090D01*
X017718Y032242D01*
X017485Y032401D01*
X017255Y032564D01*
X017030Y032734D01*
X016808Y032908D01*
X016591Y033088D01*
X016378Y033273D01*
X016170Y033463D01*
X015966Y033657D01*
X015767Y033857D01*
X015573Y034061D01*
X015383Y034270D01*
X015199Y034483D01*
X015020Y034701D01*
X014846Y034923D01*
X014677Y035149D01*
X027182Y030881D02*
X027459Y030991D01*
X027733Y031107D01*
X028004Y031230D01*
X028272Y031359D01*
X028537Y031495D01*
X028798Y031636D01*
X029057Y031784D01*
X029311Y031938D01*
X029562Y032098D01*
X029809Y032264D01*
X030052Y032436D01*
X030291Y032613D01*
X030525Y032796D01*
X030756Y032985D01*
X030981Y033179D01*
X031202Y033378D01*
X031418Y033582D01*
X031630Y033792D01*
X031836Y034006D01*
X032037Y034226D01*
X032233Y034450D01*
X032423Y034678D01*
X032608Y034911D01*
X032788Y035149D01*
M02*
