%
M48
M72
T01C0.0080
T02C0.0140
T03C0.0300
T04C0.0315
T05C0.0320
T06C0.0400
T07C0.0866
%
T01
X11932Y14282
X16382Y20782
X19032Y20982
X19382Y21782
X19882Y22032
X20132Y21382
X21132Y21182
X21032Y20332
X20732Y20332
X21582Y20332
X22332Y20482
X23032Y21182
X23132Y21982
X23032Y22282
X22732Y22432
X21632Y22032
X20982Y22032
X20382Y22882
X19382Y22632
X18382Y23732
X18632Y24432
X18932Y24932
X19432Y25382
X19432Y25732
X19932Y25982
X20332Y26182
X20832Y25432
X21582Y25232
X21832Y25682
X22132Y25332
X22132Y25032
X22082Y24532
X22082Y24032
X22182Y23532
X23001Y24551
X23482Y24882
X23382Y25532
X23082Y25532
X22682Y25282
X22332Y25582
X22382Y26282
X22032Y26382
X21832Y26182
X21682Y27732
X21532Y28082
X21732Y28582
X22382Y28782
X23282Y29232
X23132Y29482
X23432Y29582
X23782Y29882
X23932Y30132
X23932Y29632
X24632Y29732
X25332Y29432
X25332Y30182
X25682Y30282
X26732Y30532
X25882Y28732
X25382Y28882
X24832Y28882
X25582Y28282
X25732Y28032
X25932Y27832
X27032Y28432
X27082Y27732
X27832Y26532
X27982Y25532
X28132Y24582
X27832Y24582
X28032Y23032
X28532Y21782
X27682Y19932
X27182Y19932
X26382Y19982
X25782Y20332
X24182Y21182
X24032Y22282
X24332Y22382
X25032Y22732
X25132Y22482
X25482Y22432
X25782Y22432
X25082Y24682
X24882Y24932
X24682Y25132
X24482Y25332
X24132Y25582
X23732Y25782
X25082Y26182
X25782Y25832
X25782Y25532
X29732Y25682
X30182Y26482
X30882Y26632
X30532Y22732
X23832Y18932
X23482Y18932
X22532Y19182
X20632Y18482
X20182Y18932
X19432Y24382
X19732Y24432
X20032Y24432
X18282Y25282
X18232Y26082
X18182Y26382
X17482Y26782
X16332Y26332
X19382Y27282
X19482Y28132
X19782Y28482
X20282Y28982
X19982Y29582
X20382Y29982
X21582Y30482
X21832Y30232
X21682Y29982
X21682Y29682
X20882Y27882
X14282Y35532
X33182Y35532
X35532Y14282
T02
X28982Y22582
X28982Y22932
X28532Y22482
X26782Y22382
X28882Y24632
X28882Y24932
X28882Y25232
X27082Y26332
X28422Y27742
X25532Y26782
X24632Y29182
X20382Y25417
X18732Y27382
X20382Y23232
X22782Y22832
X25232Y18982
X26492Y17272
X20992Y17342
T03
X17826Y22551
X17039Y22551
X17039Y23338
X17039Y24126
X17039Y24913
X17826Y24913
X17826Y25700
X17039Y25700
X17826Y24126
X17826Y23338
T04
X22702Y18292
X22802Y18292
X22352Y17332
X22352Y17132
X24662Y18292
X24762Y18292
X25112Y17332
X25112Y17132
T05
X30232Y23132
X30232Y24332
X27032Y24132
X27032Y23332
X26232Y23332
X26232Y24132
X25432Y24132
X25432Y23332
X17833Y21763
X17033Y21763
T06
X28982Y21232
X30232Y21232
T07
X28063Y23732
X19401Y23732
M30
