G75*
G70*
%OFA0B0*%
%FSLAX24Y24*%
%IPPOS*%
%LPD*%
%AMOC8*
5,1,8,0,0,1.08239X$1,22.5*
%
%ADD10C,0.0030*%
%ADD11C,0.0040*%
%ADD12C,0.0080*%
%ADD13C,0.0160*%
%ADD14R,0.0072X0.0004*%
%ADD15R,0.0084X0.0004*%
%ADD16R,0.0152X0.0004*%
%ADD17R,0.0168X0.0004*%
%ADD18R,0.0204X0.0004*%
%ADD19R,0.0212X0.0004*%
%ADD20R,0.0228X0.0004*%
%ADD21R,0.0236X0.0004*%
%ADD22R,0.0256X0.0004*%
%ADD23R,0.0268X0.0004*%
%ADD24R,0.0280X0.0004*%
%ADD25R,0.0288X0.0004*%
%ADD26R,0.0300X0.0004*%
%ADD27R,0.0308X0.0004*%
%ADD28R,0.0320X0.0004*%
%ADD29R,0.0324X0.0004*%
%ADD30R,0.0328X0.0004*%
%ADD31R,0.0336X0.0004*%
%ADD32R,0.0344X0.0004*%
%ADD33R,0.0356X0.0004*%
%ADD34R,0.0360X0.0004*%
%ADD35R,0.0368X0.0004*%
%ADD36R,0.0368X0.0004*%
%ADD37R,0.0376X0.0004*%
%ADD38R,0.0380X0.0004*%
%ADD39R,0.0384X0.0004*%
%ADD40R,0.0388X0.0004*%
%ADD41R,0.0004X0.0004*%
%ADD42R,0.0396X0.0004*%
%ADD43R,0.0056X0.0004*%
%ADD44R,0.0400X0.0004*%
%ADD45R,0.0128X0.0004*%
%ADD46R,0.0408X0.0004*%
%ADD47R,0.0008X0.0004*%
%ADD48R,0.0164X0.0004*%
%ADD49R,0.0200X0.0004*%
%ADD50R,0.0412X0.0004*%
%ADD51R,0.0216X0.0004*%
%ADD52R,0.0416X0.0004*%
%ADD53R,0.0220X0.0004*%
%ADD54R,0.0420X0.0004*%
%ADD55R,0.0232X0.0004*%
%ADD56R,0.0240X0.0004*%
%ADD57R,0.0428X0.0004*%
%ADD58R,0.0252X0.0004*%
%ADD59R,0.0432X0.0004*%
%ADD60R,0.0264X0.0004*%
%ADD61R,0.0432X0.0004*%
%ADD62R,0.0264X0.0004*%
%ADD63R,0.0440X0.0004*%
%ADD64R,0.0272X0.0004*%
%ADD65R,0.0444X0.0004*%
%ADD66R,0.0276X0.0004*%
%ADD67R,0.0448X0.0004*%
%ADD68R,0.0448X0.0004*%
%ADD69R,0.0280X0.0004*%
%ADD70R,0.0452X0.0004*%
%ADD71R,0.0284X0.0004*%
%ADD72R,0.0456X0.0004*%
%ADD73R,0.0288X0.0004*%
%ADD74R,0.0292X0.0004*%
%ADD75R,0.0464X0.0004*%
%ADD76R,0.0296X0.0004*%
%ADD77R,0.0464X0.0004*%
%ADD78R,0.0300X0.0004*%
%ADD79R,0.0468X0.0004*%
%ADD80R,0.0472X0.0004*%
%ADD81R,0.0304X0.0004*%
%ADD82R,0.0472X0.0004*%
%ADD83R,0.0304X0.0004*%
%ADD84R,0.0312X0.0004*%
%ADD85R,0.0112X0.0004*%
%ADD86R,0.0304X0.0004*%
%ADD87R,0.0108X0.0004*%
%ADD88R,0.0296X0.0004*%
%ADD89R,0.0100X0.0004*%
%ADD90R,0.0316X0.0004*%
%ADD91R,0.0096X0.0004*%
%ADD92R,0.0224X0.0004*%
%ADD93R,0.0092X0.0004*%
%ADD94R,0.0220X0.0004*%
%ADD95R,0.0088X0.0004*%
%ADD96R,0.0192X0.0004*%
%ADD97R,0.0084X0.0004*%
%ADD98R,0.0324X0.0004*%
%ADD99R,0.0168X0.0004*%
%ADD100R,0.0080X0.0004*%
%ADD101R,0.0328X0.0004*%
%ADD102R,0.0160X0.0004*%
%ADD103R,0.0076X0.0004*%
%ADD104R,0.0152X0.0004*%
%ADD105R,0.0072X0.0004*%
%ADD106R,0.0136X0.0004*%
%ADD107R,0.0132X0.0004*%
%ADD108R,0.0068X0.0004*%
%ADD109R,0.0328X0.0004*%
%ADD110R,0.0128X0.0004*%
%ADD111R,0.0064X0.0004*%
%ADD112R,0.0112X0.0004*%
%ADD113R,0.0104X0.0004*%
%ADD114R,0.0060X0.0004*%
%ADD115R,0.0332X0.0004*%
%ADD116R,0.0100X0.0004*%
%ADD117R,0.0092X0.0004*%
%ADD118R,0.0056X0.0004*%
%ADD119R,0.0332X0.0004*%
%ADD120R,0.0088X0.0004*%
%ADD121R,0.0056X0.0004*%
%ADD122R,0.0052X0.0004*%
%ADD123R,0.0068X0.0004*%
%ADD124R,0.0064X0.0004*%
%ADD125R,0.0048X0.0004*%
%ADD126R,0.0336X0.0004*%
%ADD127R,0.0060X0.0004*%
%ADD128R,0.0044X0.0004*%
%ADD129R,0.0056X0.0004*%
%ADD130R,0.0040X0.0004*%
%ADD131R,0.0340X0.0004*%
%ADD132R,0.0052X0.0004*%
%ADD133R,0.0048X0.0004*%
%ADD134R,0.0044X0.0004*%
%ADD135R,0.0036X0.0004*%
%ADD136R,0.0032X0.0004*%
%ADD137R,0.0036X0.0004*%
%ADD138R,0.0340X0.0004*%
%ADD139R,0.0032X0.0004*%
%ADD140R,0.0032X0.0004*%
%ADD141R,0.0028X0.0004*%
%ADD142R,0.0024X0.0004*%
%ADD143R,0.0132X0.0004*%
%ADD144R,0.0192X0.0004*%
%ADD145R,0.0024X0.0004*%
%ADD146R,0.0020X0.0004*%
%ADD147R,0.0040X0.0004*%
%ADD148R,0.0120X0.0004*%
%ADD149R,0.0180X0.0004*%
%ADD150R,0.0076X0.0004*%
%ADD151R,0.0016X0.0004*%
%ADD152R,0.0116X0.0004*%
%ADD153R,0.0176X0.0004*%
%ADD154R,0.0092X0.0004*%
%ADD155R,0.0012X0.0004*%
%ADD156R,0.0116X0.0004*%
%ADD157R,0.0140X0.0004*%
%ADD158R,0.0172X0.0004*%
%ADD159R,0.0156X0.0004*%
%ADD160R,0.0168X0.0004*%
%ADD161R,0.0008X0.0004*%
%ADD162R,0.0176X0.0004*%
%ADD163R,0.0080X0.0004*%
%ADD164R,0.0172X0.0004*%
%ADD165R,0.0180X0.0004*%
%ADD166R,0.0008X0.0004*%
%ADD167R,0.0188X0.0004*%
%ADD168R,0.0208X0.0004*%
%ADD169R,0.0068X0.0004*%
%ADD170R,0.0232X0.0004*%
%ADD171R,0.0236X0.0004*%
%ADD172R,0.0240X0.0004*%
%ADD173R,0.0244X0.0004*%
%ADD174R,0.0052X0.0004*%
%ADD175R,0.0260X0.0004*%
%ADD176R,0.0184X0.0004*%
%ADD177R,0.0288X0.0004*%
%ADD178R,0.0312X0.0004*%
%ADD179R,0.0188X0.0004*%
%ADD180R,0.0296X0.0004*%
%ADD181R,0.0312X0.0004*%
%ADD182R,0.0316X0.0004*%
%ADD183R,0.0316X0.0004*%
%ADD184R,0.0196X0.0004*%
%ADD185R,0.0320X0.0004*%
%ADD186R,0.0324X0.0004*%
%ADD187R,0.0352X0.0004*%
%ADD188R,0.0356X0.0004*%
%ADD189R,0.0344X0.0004*%
%ADD190R,0.0204X0.0004*%
%ADD191R,0.0364X0.0004*%
%ADD192R,0.0348X0.0004*%
%ADD193R,0.0204X0.0004*%
%ADD194R,0.0356X0.0004*%
%ADD195R,0.0372X0.0004*%
%ADD196R,0.0380X0.0004*%
%ADD197R,0.0360X0.0004*%
%ADD198R,0.0212X0.0004*%
%ADD199R,0.0364X0.0004*%
%ADD200R,0.0216X0.0004*%
%ADD201R,0.0392X0.0004*%
%ADD202R,0.0400X0.0004*%
%ADD203R,0.0372X0.0004*%
%ADD204R,0.0216X0.0004*%
%ADD205R,0.0408X0.0004*%
%ADD206R,0.0392X0.0004*%
%ADD207R,0.0384X0.0004*%
%ADD208R,0.0164X0.0004*%
%ADD209R,0.0156X0.0004*%
%ADD210R,0.0368X0.0004*%
%ADD211R,0.0148X0.0004*%
%ADD212R,0.0156X0.0004*%
%ADD213R,0.0144X0.0004*%
%ADD214R,0.0224X0.0004*%
%ADD215R,0.0336X0.0004*%
%ADD216R,0.0152X0.0004*%
%ADD217R,0.0144X0.0004*%
%ADD218R,0.0224X0.0004*%
%ADD219R,0.0332X0.0004*%
%ADD220R,0.0152X0.0004*%
%ADD221R,0.0148X0.0004*%
%ADD222R,0.0148X0.0004*%
%ADD223R,0.0264X0.0004*%
%ADD224R,0.0256X0.0004*%
%ADD225R,0.0332X0.0004*%
%ADD226R,0.0248X0.0004*%
%ADD227R,0.0268X0.0004*%
%ADD228R,0.0212X0.0004*%
%ADD229R,0.0204X0.0004*%
%ADD230R,0.0356X0.0004*%
%ADD231R,0.0352X0.0004*%
%ADD232R,0.0348X0.0004*%
%ADD233R,0.0188X0.0004*%
%ADD234R,0.0200X0.0004*%
%ADD235R,0.0016X0.0004*%
%ADD236R,0.0308X0.0004*%
%ADD237R,0.0292X0.0004*%
%ADD238R,0.0020X0.0004*%
%ADD239R,0.0272X0.0004*%
%ADD240R,0.0084X0.0004*%
%ADD241R,0.0252X0.0004*%
%ADD242R,0.0124X0.0004*%
%ADD243R,0.0244X0.0004*%
%ADD244R,0.0144X0.0004*%
%ADD245R,0.0276X0.0004*%
%ADD246R,0.0008X0.0004*%
%ADD247R,0.0160X0.0004*%
%ADD248R,0.0272X0.0004*%
%ADD249R,0.0184X0.0004*%
%ADD250R,0.0252X0.0004*%
%ADD251R,0.0016X0.0004*%
%ADD252R,0.0248X0.0004*%
%ADD253R,0.0228X0.0004*%
%ADD254R,0.0012X0.0004*%
%ADD255R,0.0228X0.0004*%
%ADD256R,0.0108X0.0004*%
%ADD257R,0.0292X0.0004*%
%ADD258R,0.0024X0.0004*%
%ADD259R,0.0028X0.0004*%
%ADD260R,0.0284X0.0004*%
%ADD261R,0.0268X0.0004*%
%ADD262R,0.0244X0.0004*%
%ADD263R,0.0244X0.0004*%
%ADD264R,0.0116X0.0004*%
%ADD265R,0.0216X0.0004*%
%ADD266R,0.0076X0.0004*%
%ADD267R,0.0104X0.0004*%
%ADD268R,0.0196X0.0004*%
%ADD269R,0.0108X0.0004*%
%ADD270R,0.0192X0.0004*%
%ADD271R,0.0028X0.0004*%
%ADD272R,0.0084X0.0004*%
%ADD273R,0.0120X0.0004*%
%ADD274R,0.0124X0.0004*%
%ADD275R,0.0124X0.0004*%
%ADD276R,0.0172X0.0004*%
%ADD277R,0.0124X0.0004*%
%ADD278R,0.0176X0.0004*%
%ADD279R,0.0348X0.0004*%
%ADD280R,0.0136X0.0004*%
%ADD281R,0.0324X0.0004*%
%ADD282R,0.0288X0.0004*%
%ADD283R,0.0144X0.0004*%
%ADD284R,0.0148X0.0004*%
%ADD285R,0.0104X0.0004*%
%ADD286R,0.0112X0.0004*%
%ADD287R,0.0132X0.0004*%
%ADD288R,0.0312X0.0004*%
%ADD289R,0.0172X0.0004*%
%ADD290R,0.0128X0.0004*%
%ADD291R,0.0280X0.0160*%
%ADD292R,0.0160X0.0280*%
%ADD293C,0.0050*%
%ADD294R,0.0098X0.0098*%
%ADD295C,0.0060*%
%ADD296R,0.0098X0.0098*%
%ADD297R,0.0500X0.1000*%
D10*
X012961Y014988D02*
X012950Y015056D01*
X013036Y015173D01*
X012957Y015230D02*
X013192Y015059D01*
X013107Y014942D01*
X013039Y014931D01*
X012961Y014988D01*
X013095Y015255D02*
X013213Y015170D01*
X013280Y015180D01*
X013365Y015298D01*
X013209Y015411D01*
X013268Y015493D02*
X013297Y015532D01*
X013453Y015419D01*
X013425Y015380D02*
X013482Y015458D01*
X013540Y015539D02*
X013384Y015652D01*
X013469Y015770D01*
X013537Y015780D01*
X013654Y015695D01*
X013674Y015805D02*
X013742Y015816D01*
X013799Y015894D01*
X013788Y015962D01*
X013710Y016019D01*
X013642Y016008D01*
X013585Y015930D01*
X013596Y015862D01*
X013674Y015805D01*
X013887Y016015D02*
X013972Y016133D01*
X013961Y016200D01*
X013883Y016257D01*
X013816Y016246D01*
X013730Y016129D01*
X013965Y015958D01*
X014021Y016282D02*
X013943Y016339D01*
X013932Y016407D01*
X013989Y016485D01*
X014056Y016495D01*
X014095Y016467D01*
X013982Y016311D01*
X014021Y016282D02*
X014088Y016293D01*
X014145Y016371D01*
X014194Y016520D02*
X014183Y016588D01*
X014269Y016705D01*
X014230Y016734D02*
X014347Y016649D01*
X014262Y016531D01*
X014194Y016520D01*
X014105Y016645D02*
X014162Y016723D01*
X014230Y016734D01*
X014328Y016787D02*
X014335Y016962D01*
X014172Y016901D02*
X014406Y016730D01*
X014328Y016787D02*
X014492Y016848D01*
X014551Y016929D02*
X014579Y016968D01*
X014540Y016997D01*
X014512Y016957D01*
X014551Y016929D01*
X014598Y017077D02*
X014666Y017087D01*
X014751Y017205D01*
X014771Y017315D02*
X014839Y017326D01*
X014896Y017404D01*
X014885Y017472D01*
X014807Y017528D01*
X014739Y017518D01*
X014682Y017439D01*
X014693Y017372D01*
X014771Y017315D01*
X014594Y017319D02*
X014509Y017201D01*
X014520Y017134D01*
X014598Y017077D01*
X014984Y017525D02*
X014827Y017639D01*
X014856Y017678D01*
X014923Y017689D01*
X014912Y017756D01*
X014980Y017767D01*
X015097Y017682D01*
X015041Y017603D02*
X014923Y017689D01*
X015157Y017763D02*
X015036Y018091D01*
X015213Y018087D02*
X015291Y018030D01*
X015358Y018041D01*
X015444Y018158D01*
X015503Y018240D02*
X015347Y018354D01*
X015404Y018432D02*
X015432Y018471D01*
X015404Y018432D02*
X015425Y018297D01*
X015287Y018272D02*
X015202Y018155D01*
X015213Y018087D01*
X015608Y018467D02*
X015598Y018535D01*
X015683Y018652D01*
X015644Y018681D02*
X015761Y018595D01*
X015676Y018478D01*
X015608Y018467D01*
X015519Y018592D02*
X015576Y018670D01*
X015644Y018681D01*
X015664Y018791D02*
X015778Y018947D01*
X015821Y018677D01*
X015934Y018834D01*
X015955Y018944D02*
X015877Y019001D01*
X015866Y019068D01*
X015923Y019147D01*
X015990Y019157D01*
X016029Y019129D01*
X015916Y018972D01*
X015955Y018944D02*
X016022Y018955D01*
X016079Y019033D01*
X016167Y019154D02*
X015932Y019325D01*
X016011Y019268D02*
X016096Y019385D01*
X016163Y019396D01*
X016242Y019339D01*
X016252Y019271D01*
X016167Y019154D01*
X016340Y019392D02*
X016397Y019471D01*
X016369Y019431D02*
X016212Y019545D01*
X016184Y019506D01*
X016134Y019602D02*
X016095Y019630D01*
X016299Y019665D02*
X016456Y019551D01*
X016378Y019608D02*
X016356Y019743D01*
X016385Y019782D01*
X016483Y019835D02*
X016472Y019903D01*
X016557Y020020D01*
X016479Y020077D02*
X016714Y019906D01*
X016629Y019789D01*
X016561Y019778D01*
X016483Y019835D01*
X013219Y015589D02*
X013179Y015618D01*
X023597Y015289D02*
X023645Y015337D01*
X023742Y015337D01*
X023790Y015289D01*
X023790Y015240D01*
X023597Y015047D01*
X023790Y015047D01*
X023892Y015095D02*
X024085Y015289D01*
X024085Y015095D01*
X024037Y015047D01*
X023940Y015047D01*
X023892Y015095D01*
X023892Y015289D01*
X023940Y015337D01*
X024037Y015337D01*
X024085Y015289D01*
X024186Y015240D02*
X024283Y015337D01*
X024283Y015047D01*
X024186Y015047D02*
X024380Y015047D01*
X024481Y015095D02*
X024529Y015047D01*
X024626Y015047D01*
X024674Y015095D01*
X024674Y015192D01*
X024626Y015240D01*
X024578Y015240D01*
X024481Y015192D01*
X024481Y015337D01*
X024674Y015337D01*
X024969Y015337D02*
X024775Y015047D01*
X025070Y015095D02*
X025119Y015047D01*
X025215Y015047D01*
X025264Y015095D01*
X025264Y015144D01*
X025215Y015192D01*
X025167Y015192D01*
X025215Y015192D02*
X025264Y015240D01*
X025264Y015289D01*
X025215Y015337D01*
X025119Y015337D01*
X025070Y015289D01*
X025365Y015047D02*
X025558Y015337D01*
X025659Y015289D02*
X025659Y015240D01*
X025708Y015192D01*
X025853Y015192D01*
X025853Y015095D02*
X025853Y015289D01*
X025805Y015337D01*
X025708Y015337D01*
X025659Y015289D01*
X025659Y015095D02*
X025708Y015047D01*
X025805Y015047D01*
X025853Y015095D01*
X025954Y015192D02*
X026148Y015192D01*
X026249Y015240D02*
X026346Y015047D01*
X026442Y015240D01*
X026543Y015240D02*
X026640Y015337D01*
X026640Y015047D01*
X026543Y015047D02*
X026737Y015047D01*
X026838Y015047D02*
X026886Y015047D01*
X026886Y015095D01*
X026838Y015095D01*
X026838Y015047D01*
X026985Y015095D02*
X027179Y015289D01*
X027179Y015095D01*
X027131Y015047D01*
X027034Y015047D01*
X026985Y015095D01*
X026985Y015289D01*
X027034Y015337D01*
X027131Y015337D01*
X027179Y015289D01*
X031314Y019176D02*
X031433Y019259D01*
X031445Y019327D01*
X031362Y019446D01*
X031203Y019335D01*
X031146Y019416D02*
X031091Y019495D01*
X031119Y019456D02*
X031277Y019567D01*
X031249Y019606D01*
X031191Y019689D02*
X031033Y019578D01*
X030950Y019697D01*
X030961Y019765D01*
X031080Y019848D01*
X031022Y019931D02*
X030939Y020050D01*
X030872Y020061D01*
X030792Y020006D01*
X030781Y019939D01*
X030864Y019820D01*
X031102Y019986D01*
X031356Y019622D02*
X031396Y019650D01*
X031491Y019176D02*
X031412Y019121D01*
X031400Y019054D01*
X031456Y018974D01*
X031523Y018962D01*
X031602Y019018D01*
X031614Y019085D01*
X031559Y019165D01*
X031491Y019176D01*
X031700Y018963D02*
X031783Y018844D01*
X031771Y018777D01*
X031692Y018721D01*
X031625Y018733D01*
X031541Y018852D01*
X031462Y018796D02*
X031700Y018963D01*
X031829Y018694D02*
X031750Y018638D01*
X031738Y018571D01*
X031794Y018492D01*
X031901Y018507D02*
X031790Y018666D01*
X031829Y018694D02*
X031897Y018682D01*
X031952Y018603D01*
X031940Y018535D01*
X031901Y018507D01*
X031919Y018397D02*
X031986Y018385D01*
X032070Y018266D01*
X032109Y018294D02*
X031990Y018211D01*
X031907Y018329D01*
X031919Y018397D01*
X032066Y018440D02*
X032121Y018361D01*
X032109Y018294D01*
X032128Y018183D02*
X032290Y018120D01*
X032128Y018183D02*
X032132Y018009D01*
X032189Y017927D02*
X032217Y017887D01*
X032257Y017915D01*
X032229Y017954D01*
X032189Y017927D01*
X032313Y017834D02*
X032302Y017766D01*
X032385Y017647D01*
X032482Y017592D02*
X032471Y017525D01*
X032526Y017446D01*
X032593Y017434D01*
X032673Y017489D01*
X032685Y017557D01*
X032629Y017636D01*
X032562Y017648D01*
X032482Y017592D01*
X032543Y017758D02*
X032460Y017877D01*
X032393Y017889D01*
X032313Y017834D01*
X032048Y018128D02*
X032286Y018294D01*
X032770Y017434D02*
X032612Y017323D01*
X032667Y017244D02*
X032786Y017327D01*
X032854Y017315D01*
X032842Y017248D01*
X032723Y017165D01*
X032781Y017082D02*
X033130Y017090D01*
X033069Y016924D02*
X032989Y016868D01*
X032978Y016801D01*
X033061Y016682D01*
X033119Y016599D02*
X033277Y016710D01*
X033198Y016655D02*
X033333Y016631D01*
X033361Y016591D01*
X033446Y016469D02*
X033501Y016390D01*
X033490Y016323D01*
X033371Y016239D01*
X033287Y016358D01*
X033299Y016426D01*
X033367Y016414D01*
X033450Y016295D01*
X033587Y016268D02*
X033698Y016109D01*
X033429Y016157D01*
X033540Y015998D01*
X033637Y015943D02*
X033717Y015998D01*
X033784Y015987D01*
X033839Y015907D01*
X033828Y015840D01*
X033788Y015812D01*
X033677Y015971D01*
X033637Y015943D02*
X033625Y015876D01*
X033681Y015796D01*
X033767Y015674D02*
X033850Y015555D01*
X033917Y015543D01*
X033997Y015599D01*
X034008Y015666D01*
X033925Y015785D01*
X034004Y015840D02*
X033767Y015674D01*
X033936Y015432D02*
X033991Y015353D01*
X033963Y015393D02*
X034122Y015504D01*
X034094Y015543D01*
X034201Y015559D02*
X034241Y015587D01*
X034207Y015383D02*
X034048Y015272D01*
X034128Y015327D02*
X034262Y015303D01*
X034290Y015264D01*
X034308Y015154D02*
X034375Y015142D01*
X034459Y015023D01*
X034538Y015078D02*
X034300Y014912D01*
X034217Y015031D01*
X034229Y015098D01*
X034308Y015154D01*
X033219Y016793D02*
X033136Y016912D01*
X033069Y016924D01*
X032786Y017327D02*
X032798Y017395D01*
X032770Y017434D01*
X022079Y027357D02*
X022044Y027322D01*
X021974Y027322D01*
X021939Y027357D01*
X022079Y027497D01*
X022079Y027357D01*
X022079Y027497D02*
X022044Y027532D01*
X021974Y027532D01*
X021939Y027497D01*
X021939Y027357D01*
X021858Y027322D02*
X021718Y027322D01*
X021788Y027322D02*
X021788Y027532D01*
X021718Y027462D01*
X021637Y027427D02*
X021602Y027392D01*
X021497Y027392D01*
X021567Y027392D02*
X021637Y027322D01*
X021637Y027427D02*
X021637Y027497D01*
X021602Y027532D01*
X021497Y027532D01*
X021497Y027322D01*
X021497Y028347D02*
X021497Y028557D01*
X021602Y028557D01*
X021637Y028522D01*
X021637Y028452D01*
X021602Y028417D01*
X021497Y028417D01*
X021567Y028417D02*
X021637Y028347D01*
X021718Y028347D02*
X021858Y028487D01*
X021858Y028522D01*
X021823Y028557D01*
X021753Y028557D01*
X021718Y028522D01*
X021718Y028347D02*
X021858Y028347D01*
X021939Y028382D02*
X021939Y028417D01*
X021974Y028452D01*
X022044Y028452D01*
X022079Y028417D01*
X022079Y028382D01*
X022044Y028347D01*
X021974Y028347D01*
X021939Y028382D01*
X021974Y028452D02*
X021939Y028487D01*
X021939Y028522D01*
X021974Y028557D01*
X022044Y028557D01*
X022079Y028522D01*
X022079Y028487D01*
X022044Y028452D01*
X019826Y030695D02*
X019712Y030784D01*
X019704Y030852D01*
X019763Y030928D01*
X019831Y030936D01*
X019945Y030847D01*
X020005Y030923D02*
X019826Y030695D01*
X019714Y031028D02*
X019676Y031058D01*
X019540Y031041D01*
X019480Y030965D02*
X019599Y031117D01*
X019483Y031209D02*
X019364Y031056D01*
X019402Y031026D02*
X019325Y031086D01*
X019276Y031186D02*
X019335Y031262D01*
X019327Y031330D01*
X019212Y031420D01*
X019272Y031496D02*
X019093Y031267D01*
X019208Y031178D01*
X019276Y031186D01*
X019445Y031238D02*
X019483Y031209D01*
X019542Y031285D02*
X019572Y031323D01*
X019103Y031444D02*
X019073Y031406D01*
X018921Y031525D01*
X018950Y031563D02*
X019018Y031571D01*
X019095Y031512D01*
X019103Y031444D01*
X018975Y031359D02*
X018899Y031419D01*
X018891Y031487D01*
X018950Y031563D01*
X018900Y031663D02*
X018629Y031630D01*
X018781Y031511D01*
X018900Y031663D02*
X018748Y031783D01*
X018639Y031807D02*
X018549Y031692D01*
X018435Y031782D01*
X018426Y031850D01*
X018494Y031858D01*
X018609Y031769D01*
X018639Y031807D02*
X018630Y031875D01*
X018554Y031934D01*
X018437Y032026D02*
X018399Y032056D01*
X018263Y032039D01*
X018203Y031963D02*
X018322Y032115D01*
X018243Y032177D02*
X018128Y032267D01*
X018060Y032258D01*
X018001Y032182D01*
X018009Y032114D01*
X018123Y032025D01*
X018070Y032435D02*
X017739Y032325D01*
X017659Y032388D02*
X017748Y032502D01*
X017740Y032570D01*
X017672Y032562D01*
X017583Y032447D01*
X017507Y032507D02*
X017626Y032659D01*
X017664Y032630D01*
X017672Y032562D01*
X017516Y032683D02*
X017508Y032751D01*
X017432Y032811D01*
X017364Y032803D01*
X017304Y032726D01*
X017313Y032658D01*
X017389Y032599D01*
X017457Y032607D01*
X017516Y032683D01*
X017314Y032903D02*
X017200Y032992D01*
X017132Y032984D01*
X017072Y032908D01*
X017080Y032840D01*
X017195Y032751D01*
X016964Y032931D02*
X016926Y032960D01*
X016956Y032998D01*
X016994Y032969D01*
X016964Y032931D01*
X016847Y033022D02*
X016792Y033188D01*
X016966Y033175D01*
X016911Y033340D02*
X016733Y033112D01*
X016653Y033174D02*
X016539Y033263D01*
X016530Y033331D01*
X016598Y033339D01*
X016713Y033250D01*
X016742Y033288D02*
X016653Y033174D01*
X016742Y033288D02*
X016734Y033356D01*
X016658Y033416D01*
X016510Y033470D02*
X016480Y033431D01*
X016328Y033551D01*
X016358Y033589D02*
X016426Y033597D01*
X016502Y033537D01*
X016510Y033470D01*
X016383Y033385D02*
X016306Y033445D01*
X016298Y033512D01*
X016358Y033589D01*
X016278Y033651D02*
X016218Y033575D01*
X016150Y033566D01*
X016036Y033656D01*
X015977Y033579D02*
X016155Y033808D01*
X016270Y033719D01*
X016278Y033651D01*
X016046Y033832D02*
X016037Y033900D01*
X015961Y033960D01*
X015893Y033952D01*
X015834Y033875D01*
X015842Y033807D01*
X015918Y033748D01*
X015986Y033756D01*
X016046Y033832D01*
X015814Y034014D02*
X015724Y033899D01*
X015814Y034014D02*
X015805Y034082D01*
X015691Y034171D01*
X015572Y034019D01*
X015493Y034080D02*
X015417Y034139D01*
X015455Y034110D02*
X015574Y034262D01*
X015536Y034292D01*
X015456Y034354D02*
X015337Y034202D01*
X015223Y034291D01*
X015215Y034359D01*
X015304Y034473D01*
X015224Y034536D02*
X015110Y034625D01*
X015042Y034617D01*
X014982Y034540D01*
X014991Y034473D01*
X015105Y034383D01*
X015284Y034612D01*
X015634Y034338D02*
X015664Y034377D01*
X027361Y030838D02*
X027478Y030923D01*
X027421Y031001D02*
X027592Y030767D01*
X027474Y030681D01*
X027407Y030692D01*
X027350Y030770D01*
X027361Y030838D01*
X027560Y030983D02*
X027645Y030865D01*
X027713Y030854D01*
X027830Y030940D01*
X027716Y031096D01*
X027798Y031156D02*
X027837Y031184D01*
X027951Y031028D01*
X027912Y030999D02*
X027990Y031056D01*
X028071Y031115D02*
X027957Y031271D01*
X028075Y031357D01*
X028142Y031346D01*
X028227Y031228D01*
X028281Y031327D02*
X028348Y031316D01*
X028427Y031373D01*
X028437Y031441D01*
X028380Y031519D01*
X028313Y031530D01*
X028235Y031473D01*
X028224Y031405D01*
X028281Y031327D01*
X028548Y031461D02*
X028665Y031546D01*
X028676Y031614D01*
X028619Y031692D01*
X028551Y031703D01*
X028434Y031618D01*
X028605Y031383D01*
X028758Y031673D02*
X028701Y031752D01*
X028711Y031819D01*
X028790Y031876D01*
X028857Y031865D01*
X028886Y031826D01*
X028729Y031713D01*
X028758Y031673D02*
X028825Y031663D01*
X028903Y031720D01*
X028996Y031847D02*
X029007Y031914D01*
X029124Y031999D01*
X029096Y032039D02*
X029181Y031921D01*
X029064Y031836D01*
X028996Y031847D01*
X028950Y031992D02*
X029028Y032049D01*
X029096Y032039D01*
X029206Y032059D02*
X029266Y032222D01*
X029206Y032059D02*
X029380Y032066D01*
X029461Y032125D02*
X029501Y032153D01*
X029472Y032193D01*
X029433Y032164D01*
X029461Y032125D01*
X029552Y032251D02*
X029620Y032240D01*
X029737Y032325D01*
X029791Y032424D02*
X029858Y032413D01*
X029936Y032470D01*
X029947Y032538D01*
X029890Y032616D01*
X029823Y032627D01*
X029744Y032570D01*
X029734Y032502D01*
X029791Y032424D01*
X029623Y032482D02*
X029506Y032397D01*
X029495Y032329D01*
X029552Y032251D01*
X029263Y031981D02*
X029092Y032215D01*
X029944Y032714D02*
X029983Y032743D01*
X030050Y032732D01*
X030061Y032800D01*
X030129Y032789D01*
X030214Y032672D01*
X030136Y032615D02*
X030050Y032732D01*
X029944Y032714D02*
X030057Y032558D01*
X030296Y032731D02*
X030282Y033080D01*
X030449Y033022D02*
X030506Y032943D01*
X030573Y032933D01*
X030691Y033018D01*
X030772Y033078D02*
X030659Y033234D01*
X030716Y033156D02*
X030737Y033291D01*
X030776Y033319D01*
X030897Y033407D02*
X030975Y033464D01*
X031042Y033453D01*
X031128Y033336D01*
X031010Y033250D01*
X030943Y033261D01*
X030953Y033329D01*
X031071Y033414D01*
X031096Y033552D02*
X031252Y033665D01*
X031210Y033395D01*
X031366Y033509D01*
X031419Y033607D02*
X031363Y033686D01*
X031373Y033753D01*
X031452Y033810D01*
X031519Y033799D01*
X031548Y033760D01*
X031391Y033646D01*
X031419Y033607D02*
X031487Y033597D01*
X031565Y033654D01*
X031686Y033741D02*
X031804Y033827D01*
X031814Y033894D01*
X031758Y033973D01*
X031690Y033983D01*
X031573Y033898D01*
X031516Y033976D02*
X031686Y033741D01*
X031925Y033915D02*
X032003Y033971D01*
X031964Y033943D02*
X031850Y034100D01*
X031811Y034071D01*
X031793Y034178D02*
X031765Y034217D01*
X031970Y034187D02*
X032084Y034030D01*
X032027Y034108D02*
X032048Y034243D01*
X032087Y034272D01*
X032197Y034292D02*
X032208Y034359D01*
X032325Y034445D01*
X032268Y034523D02*
X032439Y034288D01*
X032321Y034203D01*
X032254Y034214D01*
X032197Y034292D01*
X030577Y033175D02*
X030460Y033089D01*
X030449Y033022D01*
X027780Y031262D02*
X027752Y031302D01*
D11*
X025994Y029940D02*
X025994Y029894D01*
X025947Y029847D01*
X025854Y029847D01*
X025807Y029894D01*
X025807Y029940D01*
X025854Y029987D01*
X025947Y029987D01*
X025994Y029940D01*
X025947Y029847D02*
X025994Y029800D01*
X025994Y029754D01*
X025947Y029707D01*
X025854Y029707D01*
X025807Y029754D01*
X025807Y029800D01*
X025854Y029847D01*
X025699Y029847D02*
X025653Y029800D01*
X025513Y029800D01*
X025606Y029800D02*
X025699Y029707D01*
X025606Y029637D02*
X025606Y029357D01*
X025513Y029357D02*
X025699Y029357D01*
X025807Y029357D02*
X025994Y029357D01*
X025901Y029357D02*
X025901Y029637D01*
X025807Y029544D01*
X025606Y029637D02*
X025513Y029544D01*
X025405Y029590D02*
X025405Y029497D01*
X025358Y029450D01*
X025218Y029450D01*
X025218Y029357D02*
X025218Y029637D01*
X025358Y029637D01*
X025405Y029590D01*
X025513Y029707D02*
X025513Y029987D01*
X025653Y029987D01*
X025699Y029940D01*
X025699Y029847D01*
X025311Y029450D02*
X025405Y029357D01*
X025358Y029237D02*
X025405Y029190D01*
X025405Y029097D01*
X025358Y029050D01*
X025218Y029050D01*
X025218Y028957D02*
X025218Y029237D01*
X025358Y029237D01*
X025513Y029144D02*
X025606Y029237D01*
X025606Y028957D01*
X025653Y028887D02*
X025559Y028887D01*
X025513Y028840D01*
X025405Y028840D02*
X025405Y028747D01*
X025358Y028700D01*
X025218Y028700D01*
X025218Y028607D02*
X025218Y028887D01*
X025358Y028887D01*
X025405Y028840D01*
X025405Y028957D02*
X025311Y029050D01*
X025513Y028957D02*
X025699Y028957D01*
X025653Y028887D02*
X025699Y028840D01*
X025699Y028794D01*
X025513Y028607D01*
X025699Y028607D01*
X025807Y028654D02*
X025854Y028607D01*
X025947Y028607D01*
X025994Y028654D01*
X025994Y028700D01*
X025947Y028747D01*
X025807Y028747D01*
X025807Y028654D01*
X025807Y028747D02*
X025901Y028840D01*
X025994Y028887D01*
X025994Y028957D02*
X025807Y028957D01*
X025994Y029144D01*
X025994Y029190D01*
X025947Y029237D01*
X025854Y029237D01*
X025807Y029190D01*
X025311Y028700D02*
X025405Y028607D01*
X024885Y029192D02*
X024885Y029472D01*
X024745Y029332D01*
X024931Y029332D01*
X024637Y029238D02*
X024637Y029472D01*
X024450Y029472D02*
X024450Y029238D01*
X024497Y029192D01*
X024590Y029192D01*
X024637Y029238D01*
X024342Y029192D02*
X024155Y029192D01*
X024342Y029378D01*
X024342Y029425D01*
X024295Y029472D01*
X024202Y029472D01*
X024155Y029425D01*
X024047Y029425D02*
X024047Y029378D01*
X024001Y029332D01*
X024047Y029285D01*
X024047Y029238D01*
X024001Y029192D01*
X023907Y029192D01*
X023861Y029238D01*
X023753Y029192D02*
X023566Y029192D01*
X023566Y029472D01*
X023458Y029472D02*
X023271Y029472D01*
X023271Y029192D01*
X023458Y029192D01*
X023365Y029332D02*
X023271Y029332D01*
X023163Y029472D02*
X023163Y029192D01*
X022977Y029192D02*
X022977Y029472D01*
X023070Y029378D01*
X023163Y029472D01*
X022869Y029472D02*
X022682Y029472D01*
X022775Y029472D02*
X022775Y029192D01*
X022574Y029192D02*
X022574Y029378D01*
X022481Y029472D01*
X022387Y029378D01*
X022387Y029192D01*
X022387Y029332D02*
X022574Y029332D01*
X022278Y029057D02*
X022278Y029010D01*
X022091Y028824D01*
X022091Y028777D01*
X021983Y028777D02*
X021797Y028777D01*
X021983Y028964D01*
X021983Y029010D01*
X021937Y029057D01*
X021843Y029057D01*
X021797Y029010D01*
X021689Y029010D02*
X021689Y028917D01*
X021642Y028870D01*
X021502Y028870D01*
X021502Y028777D02*
X021502Y029057D01*
X021642Y029057D01*
X021689Y029010D01*
X021595Y028870D02*
X021689Y028777D01*
X021689Y029227D02*
X021595Y029320D01*
X021642Y029320D02*
X021502Y029320D01*
X021502Y029227D02*
X021502Y029507D01*
X021642Y029507D01*
X021689Y029460D01*
X021689Y029367D01*
X021642Y029320D01*
X021797Y029227D02*
X021983Y029227D01*
X021890Y029227D02*
X021890Y029507D01*
X021797Y029414D01*
X021797Y029627D02*
X021983Y029814D01*
X021983Y029860D01*
X021937Y029907D01*
X021843Y029907D01*
X021797Y029860D01*
X021689Y029860D02*
X021689Y029767D01*
X021642Y029720D01*
X021502Y029720D01*
X021502Y029627D02*
X021502Y029907D01*
X021642Y029907D01*
X021689Y029860D01*
X021595Y029720D02*
X021689Y029627D01*
X021797Y029627D02*
X021983Y029627D01*
X022091Y029674D02*
X022138Y029627D01*
X022231Y029627D01*
X022278Y029674D01*
X022278Y029720D01*
X022231Y029767D01*
X022185Y029767D01*
X022231Y029767D02*
X022278Y029814D01*
X022278Y029860D01*
X022231Y029907D01*
X022138Y029907D01*
X022091Y029860D01*
X021797Y030352D02*
X021797Y030399D01*
X021983Y030585D01*
X021983Y030632D01*
X021797Y030632D01*
X021689Y030585D02*
X021689Y030492D01*
X021642Y030445D01*
X021502Y030445D01*
X021502Y030352D02*
X021502Y030632D01*
X021642Y030632D01*
X021689Y030585D01*
X021595Y030445D02*
X021689Y030352D01*
X021707Y030782D02*
X021707Y030829D01*
X021894Y031015D01*
X021894Y031062D01*
X021707Y031062D01*
X021599Y031015D02*
X021553Y031062D01*
X021413Y031062D01*
X021413Y030782D01*
X021553Y030782D01*
X021599Y030829D01*
X021599Y031015D01*
X023302Y030932D02*
X023302Y030652D01*
X023442Y030652D01*
X023489Y030699D01*
X023489Y030885D01*
X023442Y030932D01*
X023302Y030932D01*
X023597Y030885D02*
X023597Y030839D01*
X023643Y030792D01*
X023737Y030792D01*
X023783Y030745D01*
X023783Y030699D01*
X023737Y030652D01*
X023643Y030652D01*
X023597Y030699D01*
X023597Y030745D01*
X023643Y030792D01*
X023737Y030792D02*
X023783Y030839D01*
X023783Y030885D01*
X023737Y030932D01*
X023643Y030932D01*
X023597Y030885D01*
X024752Y030932D02*
X024939Y030932D01*
X024845Y030932D02*
X024845Y030652D01*
X025047Y030652D02*
X025233Y030932D01*
X025341Y030932D02*
X025481Y030932D01*
X025528Y030885D01*
X025528Y030699D01*
X025481Y030652D01*
X025341Y030652D01*
X025341Y030932D01*
X025047Y030932D02*
X025233Y030652D01*
X024001Y029472D02*
X024047Y029425D01*
X024001Y029472D02*
X023907Y029472D01*
X023861Y029425D01*
X023954Y029332D02*
X024001Y029332D01*
X022278Y029057D02*
X022091Y029057D01*
X021937Y028107D02*
X021843Y028107D01*
X021797Y028060D01*
X021797Y028014D01*
X021843Y027967D01*
X021983Y027967D01*
X021983Y027874D02*
X021983Y028060D01*
X021937Y028107D01*
X021983Y027874D02*
X021937Y027827D01*
X021843Y027827D01*
X021797Y027874D01*
X021689Y027827D02*
X021595Y027920D01*
X021642Y027920D02*
X021502Y027920D01*
X021502Y027827D02*
X021502Y028107D01*
X021642Y028107D01*
X021689Y028060D01*
X021689Y027967D01*
X021642Y027920D01*
X020233Y028452D02*
X020047Y028452D01*
X020140Y028452D02*
X020140Y028732D01*
X020047Y028639D01*
X019939Y028732D02*
X019752Y028732D01*
X019845Y028732D02*
X019845Y028452D01*
X021549Y025607D02*
X021502Y025560D01*
X021502Y025374D01*
X021549Y025327D01*
X021642Y025327D01*
X021689Y025374D01*
X021797Y025327D02*
X021983Y025514D01*
X021983Y025560D01*
X021937Y025607D01*
X021843Y025607D01*
X021797Y025560D01*
X021689Y025560D02*
X021642Y025607D01*
X021549Y025607D01*
X021797Y025327D02*
X021983Y025327D01*
X021890Y025107D02*
X021797Y025014D01*
X021689Y025060D02*
X021642Y025107D01*
X021549Y025107D01*
X021502Y025060D01*
X021502Y024874D01*
X021549Y024827D01*
X021642Y024827D01*
X021689Y024874D01*
X021797Y024827D02*
X021983Y024827D01*
X021890Y024827D02*
X021890Y025107D01*
X022091Y025060D02*
X022138Y025107D01*
X022231Y025107D01*
X022278Y025060D01*
X022278Y025014D01*
X022231Y024967D01*
X022278Y024920D01*
X022278Y024874D01*
X022231Y024827D01*
X022138Y024827D01*
X022091Y024874D01*
X022185Y024967D02*
X022231Y024967D01*
X022702Y024902D02*
X022702Y025182D01*
X022795Y025089D01*
X022889Y025182D01*
X022889Y024902D01*
X022997Y024949D02*
X023043Y024902D01*
X023137Y024902D01*
X023183Y024949D01*
X023291Y024949D02*
X023291Y025182D01*
X023183Y025135D02*
X023137Y025182D01*
X023043Y025182D01*
X022997Y025135D01*
X022997Y024949D01*
X023291Y024949D02*
X023338Y024902D01*
X023431Y024902D01*
X023478Y024949D01*
X023478Y025182D01*
X023586Y025042D02*
X023726Y025042D01*
X023773Y024995D01*
X023773Y024949D01*
X023726Y024902D01*
X023633Y024902D01*
X023586Y024949D01*
X023586Y025042D01*
X023679Y025135D01*
X023773Y025182D01*
X023880Y025135D02*
X023927Y025182D01*
X024021Y025182D01*
X024067Y025135D01*
X023880Y024949D01*
X023927Y024902D01*
X024021Y024902D01*
X024067Y024949D01*
X024067Y025135D01*
X024175Y025182D02*
X024175Y025042D01*
X024269Y025089D01*
X024315Y025089D01*
X024362Y025042D01*
X024362Y024949D01*
X024315Y024902D01*
X024222Y024902D01*
X024175Y024949D01*
X024175Y025182D02*
X024362Y025182D01*
X024470Y025135D02*
X024517Y025182D01*
X024610Y025182D01*
X024657Y025135D01*
X024470Y024949D01*
X024517Y024902D01*
X024610Y024902D01*
X024657Y024949D01*
X024657Y025135D01*
X024470Y025135D02*
X024470Y024949D01*
X023880Y024949D02*
X023880Y025135D01*
X025218Y025154D02*
X025265Y025107D01*
X025358Y025107D01*
X025405Y025154D01*
X025513Y025107D02*
X025699Y025107D01*
X025606Y025107D02*
X025606Y025387D01*
X025513Y025294D01*
X025405Y025340D02*
X025358Y025387D01*
X025265Y025387D01*
X025218Y025340D01*
X025218Y025154D01*
X025302Y024932D02*
X025442Y024932D01*
X025489Y024885D01*
X025489Y024792D01*
X025442Y024745D01*
X025302Y024745D01*
X025302Y024652D02*
X025302Y024932D01*
X025395Y024745D02*
X025489Y024652D01*
X025802Y024699D02*
X025849Y024652D01*
X025942Y024652D01*
X025989Y024699D01*
X025989Y024745D01*
X025942Y024792D01*
X025849Y024792D01*
X025802Y024839D01*
X025802Y024885D01*
X025849Y024932D01*
X025942Y024932D01*
X025989Y024885D01*
X025994Y025107D02*
X025807Y025107D01*
X025994Y025294D01*
X025994Y025340D01*
X025947Y025387D01*
X025854Y025387D01*
X025807Y025340D01*
X025804Y025457D02*
X025757Y025504D01*
X025804Y025457D02*
X025897Y025457D01*
X025944Y025504D01*
X025944Y025550D01*
X025897Y025597D01*
X025851Y025597D01*
X025897Y025597D02*
X025944Y025644D01*
X025944Y025690D01*
X025897Y025737D01*
X025804Y025737D01*
X025757Y025690D01*
X025649Y025690D02*
X025603Y025737D01*
X025509Y025737D01*
X025463Y025690D01*
X025463Y025504D01*
X025509Y025457D01*
X025603Y025457D01*
X025649Y025504D01*
X025649Y025807D02*
X025556Y025900D01*
X025603Y025900D02*
X025463Y025900D01*
X025463Y025807D02*
X025463Y026087D01*
X025603Y026087D01*
X025649Y026040D01*
X025649Y025947D01*
X025603Y025900D01*
X025757Y025947D02*
X025944Y025947D01*
X025897Y025807D02*
X025897Y026087D01*
X025757Y025947D01*
X025775Y026802D02*
X025682Y026895D01*
X025962Y026895D01*
X025962Y026802D02*
X025962Y026989D01*
X025915Y027097D02*
X025962Y027143D01*
X025962Y027237D01*
X025915Y027283D01*
X025868Y027283D01*
X025822Y027237D01*
X025822Y027097D01*
X025915Y027097D01*
X025822Y027097D02*
X025728Y027190D01*
X025682Y027283D01*
X025682Y027391D02*
X025775Y027485D01*
X025682Y027578D01*
X025962Y027578D01*
X025962Y027391D02*
X025682Y027391D01*
X026907Y026981D02*
X027047Y026841D01*
X027047Y027028D01*
X027187Y026981D02*
X026907Y026981D01*
X026953Y026733D02*
X026907Y026687D01*
X026907Y026593D01*
X026953Y026547D01*
X026953Y026439D02*
X027047Y026439D01*
X027093Y026392D01*
X027093Y026252D01*
X027093Y026345D02*
X027187Y026439D01*
X027187Y026547D02*
X027000Y026733D01*
X026953Y026733D01*
X027187Y026733D02*
X027187Y026547D01*
X026953Y026439D02*
X026907Y026392D01*
X026907Y026252D01*
X027187Y026252D01*
X027782Y025628D02*
X027782Y025441D01*
X027922Y025441D01*
X027875Y025535D01*
X027875Y025581D01*
X027922Y025628D01*
X028015Y025628D01*
X028062Y025581D01*
X028062Y025488D01*
X028015Y025441D01*
X028062Y025333D02*
X028062Y025147D01*
X027875Y025333D01*
X027828Y025333D01*
X027782Y025287D01*
X027782Y025193D01*
X027828Y025147D01*
X027828Y025039D02*
X027922Y025039D01*
X027968Y024992D01*
X027968Y024852D01*
X027968Y024945D02*
X028062Y025039D01*
X028062Y024852D02*
X027782Y024852D01*
X027782Y024992D01*
X027828Y025039D01*
X027145Y024882D02*
X027052Y024882D01*
X027099Y024882D02*
X027099Y024602D01*
X027145Y024602D02*
X027052Y024602D01*
X027139Y022832D02*
X027139Y022645D01*
X027045Y022552D01*
X026952Y022645D01*
X026952Y022832D01*
X026483Y022785D02*
X026483Y022599D01*
X026437Y022552D01*
X026343Y022552D01*
X026297Y022599D01*
X026297Y022785D01*
X026343Y022832D01*
X026437Y022832D01*
X026483Y022785D01*
X026189Y022832D02*
X026189Y022552D01*
X026002Y022552D02*
X026002Y022832D01*
X026095Y022739D01*
X026189Y022832D01*
X025489Y022785D02*
X025442Y022832D01*
X025349Y022832D01*
X025302Y022785D01*
X025302Y022599D01*
X025349Y022552D01*
X025442Y022552D01*
X025489Y022599D01*
X025489Y022692D01*
X025395Y022692D01*
X025423Y021194D02*
X025377Y021147D01*
X025377Y021054D01*
X025423Y021007D01*
X025423Y020899D02*
X025377Y020853D01*
X025377Y020759D01*
X025423Y020713D01*
X025423Y020605D02*
X025517Y020605D01*
X025563Y020558D01*
X025563Y020418D01*
X025563Y020511D02*
X025657Y020605D01*
X025657Y020713D02*
X025470Y020899D01*
X025423Y020899D01*
X025657Y020899D02*
X025657Y020713D01*
X025423Y020605D02*
X025377Y020558D01*
X025377Y020418D01*
X025657Y020418D01*
X025952Y020082D02*
X026139Y020082D01*
X026045Y020082D02*
X026045Y019802D01*
X026277Y019807D02*
X026277Y019994D01*
X026247Y019942D02*
X026433Y019942D01*
X026417Y019994D02*
X026510Y019994D01*
X026557Y019947D01*
X026557Y019854D01*
X026510Y019807D01*
X026417Y019807D02*
X026370Y019901D01*
X026370Y019947D01*
X026417Y019994D01*
X026387Y020082D02*
X026247Y019942D01*
X026277Y019807D02*
X026417Y019807D01*
X026387Y019802D02*
X026387Y020082D01*
X026557Y019699D02*
X026557Y019513D01*
X026557Y019606D02*
X026277Y019606D01*
X026370Y019513D01*
X026323Y019405D02*
X026417Y019405D01*
X026463Y019358D01*
X026463Y019218D01*
X026463Y019311D02*
X026557Y019405D01*
X026557Y019218D02*
X026277Y019218D01*
X026277Y019358D01*
X026323Y019405D01*
X027027Y019358D02*
X027073Y019405D01*
X027167Y019405D01*
X027213Y019358D01*
X027213Y019218D01*
X027213Y019311D02*
X027307Y019405D01*
X027307Y019513D02*
X027307Y019699D01*
X027307Y019606D02*
X027027Y019606D01*
X027120Y019513D01*
X027027Y019358D02*
X027027Y019218D01*
X027307Y019218D01*
X027260Y019807D02*
X027307Y019854D01*
X027307Y019947D01*
X027260Y019994D01*
X027213Y019994D01*
X027167Y019947D01*
X027167Y019807D01*
X027260Y019807D01*
X027167Y019807D02*
X027073Y019901D01*
X027027Y019994D01*
X026997Y020732D02*
X026997Y021012D01*
X026857Y020872D01*
X027044Y020872D01*
X026749Y020779D02*
X026703Y020732D01*
X026609Y020732D01*
X026563Y020779D01*
X026563Y020965D01*
X026609Y021012D01*
X026703Y021012D01*
X026749Y020965D01*
X026460Y021012D02*
X026366Y021012D01*
X026413Y021012D02*
X026413Y020732D01*
X026366Y020732D02*
X026460Y020732D01*
X025657Y021007D02*
X025470Y021194D01*
X025423Y021194D01*
X025657Y021194D02*
X025657Y021007D01*
X024362Y020933D02*
X024362Y020747D01*
X024362Y020840D02*
X024082Y020840D01*
X024175Y020747D01*
X024128Y020639D02*
X024082Y020592D01*
X024082Y020499D01*
X024128Y020452D01*
X024315Y020452D01*
X024362Y020499D01*
X024362Y020592D01*
X024315Y020639D01*
X024315Y021041D02*
X024128Y021228D01*
X024315Y021228D01*
X024362Y021181D01*
X024362Y021088D01*
X024315Y021041D01*
X024128Y021041D01*
X024082Y021088D01*
X024082Y021181D01*
X024128Y021228D01*
X023607Y021197D02*
X023327Y021197D01*
X023467Y021057D01*
X023467Y021244D01*
X023560Y020949D02*
X023607Y020903D01*
X023607Y020809D01*
X023560Y020763D01*
X023373Y020763D01*
X023327Y020809D01*
X023327Y020903D01*
X023373Y020949D01*
X022857Y020853D02*
X022810Y020899D01*
X022857Y020853D02*
X022857Y020759D01*
X022810Y020713D01*
X022623Y020713D01*
X022577Y020759D01*
X022577Y020853D01*
X022623Y020899D01*
X022623Y021007D02*
X022670Y021007D01*
X022717Y021054D01*
X022717Y021194D01*
X022810Y021194D02*
X022623Y021194D01*
X022577Y021147D01*
X022577Y021054D01*
X022623Y021007D01*
X022810Y021007D02*
X022857Y021054D01*
X022857Y021147D01*
X022810Y021194D01*
X022087Y020981D02*
X022087Y020888D01*
X022040Y020841D01*
X021853Y021028D01*
X022040Y021028D01*
X022087Y020981D01*
X022040Y020841D02*
X021853Y020841D01*
X021807Y020888D01*
X021807Y020981D01*
X021853Y021028D01*
X021853Y020733D02*
X021807Y020687D01*
X021807Y020593D01*
X021853Y020547D01*
X021853Y020439D02*
X021947Y020439D01*
X021993Y020392D01*
X021993Y020252D01*
X021993Y020345D02*
X022087Y020439D01*
X022087Y020547D02*
X021900Y020733D01*
X021853Y020733D01*
X022087Y020733D02*
X022087Y020547D01*
X021853Y020439D02*
X021807Y020392D01*
X021807Y020252D01*
X022087Y020252D01*
X021387Y020252D02*
X021107Y020252D01*
X021107Y020392D01*
X021153Y020439D01*
X021247Y020439D01*
X021293Y020392D01*
X021293Y020252D01*
X021293Y020345D02*
X021387Y020439D01*
X021387Y020547D02*
X021387Y020733D01*
X021387Y020640D02*
X021107Y020640D01*
X021200Y020547D01*
X020987Y020547D02*
X020987Y020733D01*
X020987Y020640D02*
X020707Y020640D01*
X020800Y020547D01*
X020753Y020439D02*
X020847Y020439D01*
X020893Y020392D01*
X020893Y020252D01*
X020893Y020345D02*
X020987Y020439D01*
X020987Y020252D02*
X020707Y020252D01*
X020707Y020392D01*
X020753Y020439D01*
X020587Y020439D02*
X020493Y020345D01*
X020493Y020392D02*
X020493Y020252D01*
X020587Y020252D02*
X020307Y020252D01*
X020307Y020392D01*
X020353Y020439D01*
X020447Y020439D01*
X020493Y020392D01*
X020400Y020547D02*
X020307Y020640D01*
X020587Y020640D01*
X020587Y020547D02*
X020587Y020733D01*
X020540Y020841D02*
X020493Y020841D01*
X020447Y020888D01*
X020447Y020981D01*
X020493Y021028D01*
X020540Y021028D01*
X020587Y020981D01*
X020587Y020888D01*
X020540Y020841D01*
X020447Y020888D02*
X020400Y020841D01*
X020353Y020841D01*
X020307Y020888D01*
X020307Y020981D01*
X020353Y021028D01*
X020400Y021028D01*
X020447Y020981D01*
X020707Y020981D02*
X020753Y021028D01*
X020800Y021028D01*
X020847Y020981D01*
X020893Y021028D01*
X020940Y021028D01*
X020987Y020981D01*
X020987Y020888D01*
X020940Y020841D01*
X020847Y020935D02*
X020847Y020981D01*
X020707Y020981D02*
X020707Y020888D01*
X020753Y020841D01*
X021107Y020981D02*
X021247Y020841D01*
X021247Y021028D01*
X021387Y020981D02*
X021107Y020981D01*
X020137Y021252D02*
X019857Y021252D01*
X019857Y021392D01*
X019903Y021439D01*
X019997Y021439D01*
X020043Y021392D01*
X020043Y021252D01*
X020043Y021345D02*
X020137Y021439D01*
X020137Y021547D02*
X020137Y021733D01*
X020137Y021640D02*
X019857Y021640D01*
X019950Y021547D01*
X019857Y021841D02*
X019857Y022028D01*
X019903Y022028D01*
X020090Y021841D01*
X020137Y021841D01*
X019283Y021792D02*
X019283Y021699D01*
X019237Y021652D01*
X019143Y021652D01*
X019097Y021699D01*
X019097Y021792D02*
X019190Y021839D01*
X019237Y021839D01*
X019283Y021792D01*
X019283Y021932D02*
X019097Y021932D01*
X019097Y021792D01*
X018989Y021932D02*
X018802Y021932D01*
X018895Y021932D02*
X018895Y021652D01*
X018294Y021215D02*
X018247Y021262D01*
X018107Y021262D01*
X018107Y020982D01*
X018247Y020982D01*
X018294Y021029D01*
X018294Y021215D01*
X017999Y021262D02*
X017999Y020982D01*
X017813Y021262D01*
X017813Y020982D01*
X017705Y021029D02*
X017705Y021122D01*
X017611Y021122D01*
X017518Y021029D02*
X017565Y020982D01*
X017658Y020982D01*
X017705Y021029D01*
X017705Y021215D02*
X017658Y021262D01*
X017565Y021262D01*
X017518Y021215D01*
X017518Y021029D01*
X017244Y021075D02*
X017244Y021262D01*
X017244Y021075D02*
X017151Y020982D01*
X017057Y021075D01*
X017057Y021262D01*
X016949Y021215D02*
X016949Y021169D01*
X016903Y021122D01*
X016949Y021075D01*
X016949Y021029D01*
X016903Y020982D01*
X016809Y020982D01*
X016763Y021029D01*
X016662Y021029D02*
X016662Y020982D01*
X016615Y020982D01*
X016615Y021029D01*
X016662Y021029D01*
X016507Y021029D02*
X016461Y020982D01*
X016367Y020982D01*
X016321Y021029D01*
X016414Y021122D02*
X016461Y021122D01*
X016507Y021075D01*
X016507Y021029D01*
X016461Y021122D02*
X016507Y021169D01*
X016507Y021215D01*
X016461Y021262D01*
X016367Y021262D01*
X016321Y021215D01*
X016763Y021215D02*
X016809Y021262D01*
X016903Y021262D01*
X016949Y021215D01*
X016903Y021122D02*
X016856Y021122D01*
X018402Y020257D02*
X018542Y020257D01*
X018589Y020210D01*
X018589Y020117D01*
X018542Y020070D01*
X018402Y020070D01*
X018402Y019977D02*
X018402Y020257D01*
X018495Y020070D02*
X018589Y019977D01*
X018697Y019977D02*
X018883Y019977D01*
X018790Y019977D02*
X018790Y020257D01*
X018697Y020164D01*
X018991Y020164D02*
X019038Y020117D01*
X019178Y020117D01*
X019178Y020024D02*
X019178Y020210D01*
X019131Y020257D01*
X019038Y020257D01*
X018991Y020210D01*
X018991Y020164D01*
X018991Y020024D02*
X019038Y019977D01*
X019131Y019977D01*
X019178Y020024D01*
X020028Y018983D02*
X020075Y018983D01*
X020122Y018937D01*
X020168Y018983D01*
X020215Y018983D01*
X020262Y018937D01*
X020262Y018843D01*
X020215Y018797D01*
X020122Y018890D02*
X020122Y018937D01*
X020028Y018983D02*
X019982Y018937D01*
X019982Y018843D01*
X020028Y018797D01*
X019982Y018689D02*
X019982Y018502D01*
X019982Y018595D02*
X020262Y018595D01*
X023038Y018561D02*
X023038Y018748D01*
X023085Y018748D01*
X023271Y018561D01*
X023318Y018561D01*
X023318Y018748D01*
X023407Y018702D02*
X023407Y018842D01*
X023453Y018889D01*
X023547Y018889D01*
X023593Y018842D01*
X023593Y018702D01*
X023593Y018795D02*
X023687Y018889D01*
X023687Y018997D02*
X023500Y019183D01*
X023453Y019183D01*
X023407Y019137D01*
X023407Y019043D01*
X023453Y018997D01*
X023318Y019043D02*
X023318Y018856D01*
X023131Y019043D01*
X023085Y019043D01*
X023038Y018996D01*
X023038Y018903D01*
X023085Y018856D01*
X023407Y018702D02*
X023687Y018702D01*
X023687Y018997D02*
X023687Y019183D01*
X024057Y019137D02*
X024103Y019183D01*
X024150Y019183D01*
X024197Y019137D01*
X024243Y019183D01*
X024290Y019183D01*
X024337Y019137D01*
X024337Y019043D01*
X024290Y018997D01*
X024337Y018889D02*
X024243Y018795D01*
X024243Y018842D02*
X024243Y018702D01*
X024337Y018702D02*
X024057Y018702D01*
X024057Y018842D01*
X024103Y018889D01*
X024197Y018889D01*
X024243Y018842D01*
X024103Y018997D02*
X024057Y019043D01*
X024057Y019137D01*
X024197Y019137D02*
X024197Y019090D01*
X024553Y019018D02*
X024740Y019018D01*
X024740Y018972D01*
X024553Y018785D01*
X024553Y018738D01*
X024740Y018738D01*
X024848Y018738D02*
X025035Y018738D01*
X024941Y018738D02*
X024941Y019018D01*
X024848Y018925D01*
X024081Y016882D02*
X023988Y016882D01*
X023941Y016835D01*
X023941Y016649D01*
X023988Y016602D01*
X024081Y016602D01*
X024128Y016649D01*
X024128Y016742D01*
X024035Y016742D01*
X024128Y016835D02*
X024081Y016882D01*
X023833Y016882D02*
X023833Y016602D01*
X023833Y016742D02*
X023647Y016742D01*
X023647Y016602D02*
X023647Y016882D01*
X023539Y016835D02*
X023492Y016882D01*
X023399Y016882D01*
X023352Y016835D01*
X023352Y016649D01*
X023399Y016602D01*
X023492Y016602D01*
X023539Y016649D01*
X028552Y020495D02*
X028645Y020402D01*
X028739Y020495D01*
X028739Y020682D01*
X028847Y020635D02*
X028847Y020449D01*
X028893Y020402D01*
X028987Y020402D01*
X029033Y020449D01*
X029141Y020449D02*
X029188Y020402D01*
X029281Y020402D01*
X029328Y020449D01*
X029328Y020635D02*
X029281Y020682D01*
X029188Y020682D01*
X029141Y020635D01*
X029141Y020449D01*
X029033Y020635D02*
X028987Y020682D01*
X028893Y020682D01*
X028847Y020635D01*
X028552Y020682D02*
X028552Y020495D01*
X029802Y020449D02*
X029849Y020402D01*
X029942Y020402D01*
X029989Y020449D01*
X029989Y020542D01*
X029895Y020542D01*
X029802Y020635D02*
X029802Y020449D01*
X029802Y020635D02*
X029849Y020682D01*
X029942Y020682D01*
X029989Y020635D01*
X030097Y020682D02*
X030283Y020402D01*
X030283Y020682D01*
X030391Y020682D02*
X030391Y020402D01*
X030531Y020402D01*
X030578Y020449D01*
X030578Y020635D01*
X030531Y020682D01*
X030391Y020682D01*
X030097Y020682D02*
X030097Y020402D01*
X030102Y026252D02*
X030102Y026532D01*
X030242Y026532D01*
X030289Y026485D01*
X030289Y026392D01*
X030242Y026345D01*
X030102Y026345D01*
X030397Y026252D02*
X030490Y026345D01*
X030583Y026252D01*
X030583Y026532D01*
X030691Y026532D02*
X030831Y026532D01*
X030878Y026485D01*
X030878Y026392D01*
X030831Y026345D01*
X030691Y026345D01*
X030691Y026252D02*
X030691Y026532D01*
X030785Y026345D02*
X030878Y026252D01*
X030397Y026252D02*
X030397Y026532D01*
X030094Y027007D02*
X029907Y027007D01*
X030001Y027007D02*
X030001Y027287D01*
X029907Y027194D01*
X029799Y027194D02*
X029613Y027007D01*
X029799Y027007D01*
X029799Y027194D02*
X029799Y027240D01*
X029753Y027287D01*
X029659Y027287D01*
X029613Y027240D01*
X029505Y027240D02*
X029505Y027147D01*
X029458Y027100D01*
X029318Y027100D01*
X029318Y027007D02*
X029318Y027287D01*
X029458Y027287D01*
X029505Y027240D01*
X029411Y027100D02*
X029505Y027007D01*
X028894Y027415D02*
X028707Y027229D01*
X028707Y027182D01*
X028506Y027182D02*
X028506Y027462D01*
X028413Y027462D02*
X028599Y027462D01*
X028707Y027462D02*
X028894Y027462D01*
X028894Y027415D01*
X027844Y028432D02*
X027657Y028432D01*
X027844Y028619D01*
X027844Y028665D01*
X027797Y028712D01*
X027704Y028712D01*
X027657Y028665D01*
X027549Y028712D02*
X027363Y028712D01*
X027456Y028712D02*
X027456Y028432D01*
X021890Y024607D02*
X021890Y024327D01*
X021797Y024327D02*
X021983Y024327D01*
X021983Y024107D02*
X021890Y024060D01*
X021797Y023967D01*
X021937Y023967D01*
X021983Y023920D01*
X021983Y023874D01*
X021937Y023827D01*
X021843Y023827D01*
X021797Y023874D01*
X021797Y023967D01*
X021689Y023967D02*
X021642Y023920D01*
X021502Y023920D01*
X021502Y023827D02*
X021502Y024107D01*
X021642Y024107D01*
X021689Y024060D01*
X021689Y023967D01*
X021595Y023920D02*
X021689Y023827D01*
X021642Y023607D02*
X021689Y023560D01*
X021689Y023467D01*
X021642Y023420D01*
X021502Y023420D01*
X021502Y023327D02*
X021502Y023607D01*
X021642Y023607D01*
X021797Y023607D02*
X021797Y023467D01*
X021890Y023514D01*
X021937Y023514D01*
X021983Y023467D01*
X021983Y023374D01*
X021937Y023327D01*
X021843Y023327D01*
X021797Y023374D01*
X021689Y023327D02*
X021595Y023420D01*
X021797Y023607D02*
X021983Y023607D01*
X021642Y024327D02*
X021689Y024374D01*
X021642Y024327D02*
X021549Y024327D01*
X021502Y024374D01*
X021502Y024560D01*
X021549Y024607D01*
X021642Y024607D01*
X021689Y024560D01*
X021797Y024514D02*
X021890Y024607D01*
X021990Y022607D02*
X021990Y022327D01*
X021897Y022327D02*
X022083Y022327D01*
X022191Y022327D02*
X022191Y022374D01*
X022378Y022560D01*
X022378Y022607D01*
X022191Y022607D01*
X021990Y022607D02*
X021897Y022514D01*
X021789Y022560D02*
X021742Y022607D01*
X021649Y022607D01*
X021602Y022560D01*
X021602Y022374D01*
X021649Y022327D01*
X021742Y022327D01*
X021789Y022374D01*
X019094Y022432D02*
X019094Y022619D01*
X019001Y022712D01*
X018907Y022619D01*
X018907Y022432D01*
X018799Y022479D02*
X018799Y022665D01*
X018753Y022712D01*
X018613Y022712D01*
X018613Y022432D01*
X018753Y022432D01*
X018799Y022479D01*
X018907Y022572D02*
X019094Y022572D01*
X019094Y022982D02*
X018907Y022982D01*
X018907Y023262D01*
X018799Y023215D02*
X018753Y023262D01*
X018659Y023262D01*
X018613Y023215D01*
X018613Y023029D01*
X018659Y022982D01*
X018753Y022982D01*
X018799Y023029D01*
X018505Y023029D02*
X018458Y022982D01*
X018365Y022982D01*
X018318Y023029D01*
X018365Y023122D02*
X018458Y023122D01*
X018505Y023075D01*
X018505Y023029D01*
X018365Y023122D02*
X018318Y023169D01*
X018318Y023215D01*
X018365Y023262D01*
X018458Y023262D01*
X018505Y023215D01*
X018458Y022712D02*
X018365Y022712D01*
X018318Y022665D01*
X018318Y022619D01*
X018365Y022572D01*
X018458Y022572D01*
X018505Y022525D01*
X018505Y022479D01*
X018458Y022432D01*
X018365Y022432D01*
X018318Y022479D01*
X018505Y022665D02*
X018458Y022712D01*
D12*
X018448Y026272D02*
X018862Y026272D01*
X019093Y026375D02*
X019093Y026582D01*
X019196Y026686D01*
X019403Y026686D01*
X019506Y026582D01*
X019506Y026479D01*
X019093Y026479D01*
X019093Y026375D02*
X019196Y026272D01*
X019403Y026272D01*
X019737Y026272D02*
X019737Y026892D01*
X019737Y026686D02*
X020047Y026686D01*
X020151Y026582D01*
X020151Y026375D01*
X020047Y026272D01*
X019737Y026272D01*
X020382Y026272D02*
X020589Y026272D01*
X020485Y026272D02*
X020485Y026686D01*
X020382Y026686D01*
X020485Y026892D02*
X020485Y026996D01*
X020811Y026686D02*
X020811Y026272D01*
X020811Y026479D02*
X021018Y026686D01*
X021122Y026686D01*
X021349Y026582D02*
X021452Y026686D01*
X021762Y026686D01*
X021762Y026892D02*
X021762Y026272D01*
X021452Y026272D01*
X021349Y026375D01*
X021349Y026582D01*
X022354Y026301D02*
X022551Y026104D01*
X022354Y028131D02*
X022354Y028860D01*
X023082Y028860D01*
X024381Y028860D02*
X025110Y028860D01*
X025110Y028131D01*
X026226Y027941D02*
X026738Y027941D01*
X026738Y026523D02*
X026226Y026523D01*
X025110Y026832D02*
X025110Y026104D01*
X024952Y026104D01*
X028561Y025193D02*
X028561Y025000D01*
X028658Y024903D01*
X029045Y024903D01*
X029142Y025000D01*
X029142Y025193D01*
X029045Y025290D01*
X028658Y025290D01*
X028561Y025193D01*
X028561Y024682D02*
X029142Y024682D01*
X028561Y024295D01*
X029142Y024295D01*
X029142Y023687D02*
X028561Y024074D01*
X028561Y023467D02*
X029142Y023467D01*
X028852Y023467D02*
X028852Y023080D01*
X029142Y023080D02*
X028561Y023080D01*
X028658Y022859D02*
X028561Y022762D01*
X028561Y022569D01*
X028658Y022472D01*
X029045Y022472D01*
X029142Y022569D01*
X029142Y022762D01*
X029045Y022859D01*
X026901Y022292D02*
X026563Y022292D01*
X026413Y021838D02*
X026413Y021626D01*
X026563Y021172D02*
X026901Y021172D01*
X018862Y026686D02*
X018448Y026272D01*
X018217Y026272D02*
X017907Y026272D01*
X017804Y026375D01*
X017907Y026479D01*
X018217Y026479D01*
X018217Y026582D02*
X018217Y026272D01*
X018217Y026582D02*
X018114Y026686D01*
X017907Y026686D01*
X017577Y026686D02*
X017473Y026686D01*
X017266Y026479D01*
X017266Y026272D02*
X017266Y026686D01*
X017036Y026789D02*
X016932Y026892D01*
X016725Y026892D01*
X016622Y026789D01*
X016622Y026375D01*
X016725Y026272D01*
X016932Y026272D01*
X017036Y026375D01*
X018448Y026686D02*
X018862Y026686D01*
D13*
X013482Y011232D02*
X013489Y011133D01*
X013493Y011035D01*
X013494Y010936D01*
X013490Y010837D01*
X013482Y010739D01*
X013471Y010641D01*
X013455Y010543D01*
X013436Y010446D01*
X013413Y010350D01*
X013386Y010255D01*
X013356Y010161D01*
X013322Y010068D01*
X013284Y009977D01*
X013243Y009887D01*
X013198Y009799D01*
X013150Y009713D01*
X013098Y009628D01*
X013043Y009546D01*
X012985Y009466D01*
X012924Y009389D01*
X012860Y009314D01*
X012793Y009241D01*
X012723Y009171D01*
X012650Y009104D01*
X012575Y009040D01*
X012498Y008979D01*
X012418Y008921D01*
X012336Y008866D01*
X012251Y008814D01*
X012165Y008766D01*
X012077Y008721D01*
X011987Y008680D01*
X011896Y008642D01*
X011803Y008608D01*
X011709Y008578D01*
X011614Y008551D01*
X011518Y008528D01*
X011421Y008509D01*
X011323Y008493D01*
X011225Y008482D01*
X011127Y008474D01*
X011028Y008470D01*
X010929Y008471D01*
X010831Y008475D01*
X010732Y008482D01*
X013732Y010232D02*
X013732Y010982D01*
X013482Y011232D01*
X022720Y021732D02*
X022744Y021732D01*
X023470Y021732D02*
X023494Y021732D01*
X024220Y021732D02*
X024244Y021732D01*
X026482Y024970D02*
X026482Y024994D01*
X026482Y025470D02*
X026482Y025494D01*
X020982Y025494D02*
X020982Y025470D01*
X020982Y024994D02*
X020982Y024970D01*
X020982Y024494D02*
X020982Y024470D01*
X013482Y036232D02*
X013732Y036482D01*
X013732Y037232D01*
X013482Y036232D02*
X013489Y036331D01*
X013493Y036429D01*
X013494Y036528D01*
X013490Y036627D01*
X013482Y036725D01*
X013471Y036823D01*
X013455Y036921D01*
X013436Y037018D01*
X013413Y037114D01*
X013386Y037209D01*
X013356Y037303D01*
X013322Y037396D01*
X013284Y037487D01*
X013243Y037577D01*
X013198Y037665D01*
X013150Y037751D01*
X013098Y037836D01*
X013043Y037918D01*
X012985Y037998D01*
X012924Y038075D01*
X012860Y038150D01*
X012793Y038223D01*
X012723Y038293D01*
X012650Y038360D01*
X012575Y038424D01*
X012498Y038485D01*
X012418Y038543D01*
X012336Y038598D01*
X012251Y038650D01*
X012165Y038698D01*
X012077Y038743D01*
X011987Y038784D01*
X011896Y038822D01*
X011803Y038856D01*
X011709Y038886D01*
X011614Y038913D01*
X011518Y038936D01*
X011421Y038955D01*
X011323Y038971D01*
X011225Y038982D01*
X011127Y038990D01*
X011028Y038994D01*
X010929Y038993D01*
X010831Y038989D01*
X010732Y038982D01*
X033982Y037232D02*
X033982Y036482D01*
X034232Y036232D01*
X034225Y036331D01*
X034221Y036429D01*
X034220Y036528D01*
X034224Y036627D01*
X034232Y036725D01*
X034243Y036823D01*
X034259Y036921D01*
X034278Y037018D01*
X034301Y037114D01*
X034328Y037209D01*
X034358Y037303D01*
X034392Y037396D01*
X034430Y037487D01*
X034471Y037577D01*
X034516Y037665D01*
X034564Y037751D01*
X034616Y037836D01*
X034671Y037918D01*
X034729Y037998D01*
X034790Y038075D01*
X034854Y038150D01*
X034921Y038223D01*
X034991Y038293D01*
X035064Y038360D01*
X035139Y038424D01*
X035216Y038485D01*
X035296Y038543D01*
X035378Y038598D01*
X035463Y038650D01*
X035549Y038698D01*
X035637Y038743D01*
X035727Y038784D01*
X035818Y038822D01*
X035911Y038856D01*
X036005Y038886D01*
X036100Y038913D01*
X036196Y038936D01*
X036293Y038955D01*
X036391Y038971D01*
X036489Y038982D01*
X036587Y038990D01*
X036686Y038994D01*
X036785Y038993D01*
X036883Y038989D01*
X036982Y038982D01*
X033982Y011232D02*
X033978Y011131D01*
X033979Y011029D01*
X033983Y010928D01*
X033991Y010828D01*
X034002Y010727D01*
X034018Y010627D01*
X034037Y010528D01*
X034061Y010429D01*
X034088Y010332D01*
X034119Y010236D01*
X034153Y010140D01*
X034191Y010047D01*
X034233Y009955D01*
X034278Y009864D01*
X034327Y009775D01*
X034379Y009689D01*
X034434Y009604D01*
X034493Y009521D01*
X034554Y009441D01*
X034619Y009364D01*
X034687Y009288D01*
X034757Y009216D01*
X034831Y009146D01*
X034906Y009079D01*
X034985Y009015D01*
X035066Y008954D01*
X035149Y008897D01*
X035234Y008842D01*
X035321Y008791D01*
X035410Y008743D01*
X035501Y008699D01*
X035594Y008658D01*
X035688Y008621D01*
X035783Y008587D01*
X035880Y008558D01*
X035978Y008531D01*
X036076Y008509D01*
X036176Y008491D01*
X036276Y008476D01*
X036377Y008465D01*
X036477Y008458D01*
X036579Y008455D01*
X036680Y008456D01*
X036781Y008461D01*
X036882Y008469D01*
X036982Y008482D01*
X033732Y010232D02*
X033732Y010982D01*
X033982Y011232D01*
D14*
X019376Y024644D03*
D15*
X019374Y024648D03*
X019338Y025448D03*
X019530Y025616D03*
X019706Y025496D03*
D16*
X019372Y024652D03*
D17*
X019376Y024656D03*
X019472Y025148D03*
X019956Y025508D03*
D18*
X019958Y025468D03*
X019958Y025100D03*
X019330Y024888D03*
X019374Y024660D03*
X018994Y025248D03*
X019058Y025404D03*
D19*
X019010Y025300D03*
X019894Y025184D03*
X019954Y025456D03*
X019374Y024664D03*
D20*
X019374Y024668D03*
X019950Y025444D03*
D21*
X019598Y025352D03*
X019370Y024672D03*
D22*
X019368Y024676D03*
X019308Y024876D03*
X019580Y025036D03*
X019836Y024788D03*
X019020Y025216D03*
X019504Y025748D03*
D23*
X019370Y024680D03*
D24*
X019368Y024684D03*
X019116Y025048D03*
X019040Y025196D03*
X019596Y025328D03*
X019724Y025236D03*
X019932Y025404D03*
X019864Y025576D03*
X019860Y024816D03*
X019852Y024808D03*
D25*
X019368Y024688D03*
X019596Y025324D03*
X019928Y025396D03*
D26*
X019594Y025312D03*
X019366Y024692D03*
D27*
X019366Y024696D03*
X019586Y025060D03*
X019882Y024856D03*
X019058Y025184D03*
D28*
X019064Y025180D03*
X019068Y025316D03*
X019068Y025320D03*
X019436Y025648D03*
X019440Y025656D03*
X019444Y025660D03*
X019448Y025664D03*
X019452Y025668D03*
X019456Y025680D03*
X019472Y025700D03*
X019476Y025704D03*
X019480Y025708D03*
X019592Y025300D03*
X019592Y025296D03*
X019596Y025048D03*
X019888Y024880D03*
X019888Y024876D03*
X019364Y024700D03*
D29*
X019366Y024704D03*
X019598Y025044D03*
X019606Y025040D03*
X019786Y025216D03*
X019894Y024908D03*
X019894Y024904D03*
X019894Y024900D03*
X019886Y024888D03*
X019886Y024884D03*
X019454Y025676D03*
X019458Y025684D03*
X019470Y025696D03*
D30*
X019864Y025544D03*
X019120Y025076D03*
X019364Y024708D03*
D31*
X019364Y024712D03*
X019900Y024952D03*
D32*
X019800Y025204D03*
X019276Y024864D03*
X019364Y024716D03*
X019120Y025084D03*
D33*
X019362Y024720D03*
D34*
X019360Y024724D03*
X019584Y025248D03*
D35*
X019580Y025120D03*
X019360Y024728D03*
X019120Y025100D03*
D36*
X019360Y024732D03*
D37*
X019360Y024736D03*
X019120Y025108D03*
D38*
X019122Y025116D03*
X019358Y024740D03*
D39*
X019360Y024744D03*
D40*
X019358Y024748D03*
X019122Y025120D03*
D41*
X019050Y025000D03*
X019514Y025528D03*
X019474Y025780D03*
X019838Y024748D03*
D42*
X019358Y024752D03*
D43*
X019820Y024752D03*
X019528Y025592D03*
D44*
X019124Y025128D03*
X019356Y024756D03*
D45*
X019816Y024756D03*
X019592Y025388D03*
D46*
X019356Y024764D03*
X019356Y024760D03*
D47*
X019424Y025008D03*
X019100Y024988D03*
X019724Y024760D03*
D48*
X019818Y024760D03*
X019598Y025380D03*
D49*
X019596Y025368D03*
X019964Y025088D03*
X019964Y025084D03*
X019812Y024764D03*
X019112Y025020D03*
X018992Y025256D03*
D50*
X019354Y024768D03*
D51*
X019812Y024768D03*
X019872Y025608D03*
D52*
X019356Y024772D03*
D53*
X019814Y024772D03*
X019926Y025152D03*
D54*
X019354Y024780D03*
X019354Y024776D03*
D55*
X019824Y024776D03*
D56*
X019828Y024780D03*
D57*
X019354Y024784D03*
X019354Y024788D03*
D58*
X019114Y025036D03*
X019834Y024784D03*
D59*
X019352Y024792D03*
D60*
X019840Y024792D03*
D61*
X019352Y024796D03*
D62*
X019844Y024796D03*
X019596Y025336D03*
X019940Y025420D03*
X019060Y025360D03*
D63*
X019352Y024800D03*
D64*
X019116Y025044D03*
X019036Y025200D03*
X019848Y024800D03*
D65*
X019350Y024804D03*
D66*
X019850Y024804D03*
X019946Y025368D03*
X019934Y025408D03*
D67*
X019348Y024808D03*
D68*
X019348Y024812D03*
D69*
X019856Y024812D03*
X019936Y025372D03*
D70*
X019346Y024820D03*
X019346Y024816D03*
D71*
X019862Y024820D03*
X019062Y025344D03*
X019062Y025348D03*
D72*
X019348Y024828D03*
X019348Y024824D03*
D73*
X019864Y024824D03*
D74*
X019866Y024828D03*
X019062Y025336D03*
X019062Y025340D03*
X019506Y025744D03*
D75*
X019348Y024832D03*
D76*
X019048Y025192D03*
X019868Y024832D03*
D77*
X019348Y024836D03*
D78*
X019870Y024836D03*
X019870Y024840D03*
X019874Y024844D03*
X019866Y025564D03*
D79*
X019346Y024844D03*
X019346Y024840D03*
D80*
X019344Y024848D03*
X019344Y024856D03*
X019344Y024860D03*
D81*
X019116Y025060D03*
X019768Y025224D03*
X019920Y025384D03*
X019864Y025560D03*
X019876Y024848D03*
D82*
X019344Y024852D03*
D83*
X019880Y024852D03*
X019064Y025332D03*
D84*
X019584Y025064D03*
X019884Y024868D03*
X019884Y024864D03*
X019884Y024860D03*
X019504Y025736D03*
D85*
X019724Y025504D03*
X019524Y024864D03*
D86*
X019292Y024868D03*
X019052Y025188D03*
D87*
X019526Y024868D03*
D88*
X019292Y024872D03*
D89*
X019530Y024872D03*
D90*
X019886Y024872D03*
D91*
X019532Y024876D03*
X019592Y025396D03*
X019872Y025640D03*
D92*
X019596Y025356D03*
X019916Y025164D03*
X019920Y025160D03*
X019320Y024880D03*
D93*
X019534Y024880D03*
X019774Y025004D03*
X019334Y025464D03*
X019530Y025620D03*
X019074Y025468D03*
D94*
X019058Y025396D03*
X019322Y024884D03*
X019578Y025024D03*
X019906Y025176D03*
X019922Y025156D03*
X019926Y025148D03*
X019930Y025144D03*
X019934Y025140D03*
X019938Y025136D03*
X019942Y025128D03*
X019974Y025360D03*
D95*
X019712Y025500D03*
X019336Y025460D03*
X019336Y025456D03*
X019536Y024888D03*
X019536Y024884D03*
X019772Y025008D03*
D96*
X019972Y025072D03*
X019332Y024892D03*
X018992Y025272D03*
X019056Y025412D03*
D97*
X019338Y025452D03*
X019538Y024892D03*
D98*
X019890Y024892D03*
X019070Y025312D03*
X019466Y025692D03*
D99*
X019060Y025428D03*
X019344Y024896D03*
X019684Y025144D03*
D100*
X019540Y024896D03*
X019384Y024940D03*
X019340Y025444D03*
D101*
X019592Y025288D03*
X019896Y024920D03*
X019896Y024916D03*
X019892Y024896D03*
D102*
X019688Y025148D03*
X019576Y025008D03*
X019464Y025156D03*
X019344Y024900D03*
X019872Y025624D03*
X019352Y025640D03*
X019348Y025636D03*
D103*
X019342Y025440D03*
X019542Y024900D03*
D104*
X019348Y024904D03*
X019468Y025220D03*
X019472Y025224D03*
X019872Y025628D03*
D105*
X019344Y025436D03*
X019544Y024908D03*
X019544Y024904D03*
X019764Y025016D03*
D106*
X019356Y024908D03*
X019320Y025536D03*
X019320Y025540D03*
X019320Y025544D03*
X019320Y025548D03*
X019320Y025556D03*
D107*
X019322Y025532D03*
X019358Y024912D03*
D108*
X019546Y024912D03*
X019346Y025432D03*
D109*
X019896Y024912D03*
D110*
X019360Y024916D03*
X019324Y025520D03*
X019324Y025524D03*
X019324Y025528D03*
X019064Y025448D03*
D111*
X019080Y025480D03*
X019348Y025428D03*
X019688Y025484D03*
X019548Y024920D03*
X019548Y024916D03*
D112*
X019368Y024920D03*
X019328Y025484D03*
X019328Y025488D03*
X019068Y025460D03*
D113*
X019372Y024924D03*
D114*
X019550Y024924D03*
X019550Y024928D03*
X019566Y024996D03*
X019758Y025024D03*
X019682Y025480D03*
X019350Y025424D03*
X019494Y025776D03*
D115*
X019582Y025080D03*
X019898Y024944D03*
X019898Y024940D03*
X019898Y024936D03*
X019898Y024928D03*
X019898Y024924D03*
D116*
X019778Y025000D03*
X019374Y024928D03*
X019334Y025468D03*
X019530Y025624D03*
X019070Y025464D03*
D117*
X019378Y024932D03*
D118*
X019552Y024932D03*
D119*
X019898Y024932D03*
D120*
X020040Y025340D03*
X019380Y024936D03*
D121*
X019552Y024936D03*
X019352Y025420D03*
D122*
X019590Y025400D03*
X019554Y024944D03*
X019554Y024940D03*
D123*
X019390Y024944D03*
X019694Y025488D03*
X019530Y025600D03*
X019530Y025604D03*
D124*
X019392Y024948D03*
D125*
X019556Y024948D03*
X019748Y025036D03*
X020048Y025328D03*
X019676Y025476D03*
X019356Y025416D03*
D126*
X019580Y025084D03*
X019796Y025208D03*
X019900Y024948D03*
X019864Y025540D03*
X019120Y025080D03*
D127*
X019394Y024952D03*
X020046Y025332D03*
D128*
X019558Y024952D03*
D129*
X019396Y024956D03*
X019756Y025028D03*
X019220Y025300D03*
X019080Y025484D03*
X019528Y025588D03*
X019528Y025596D03*
D130*
X019524Y025576D03*
X019560Y024964D03*
X019560Y024960D03*
X019560Y024956D03*
D131*
X019578Y025088D03*
X019590Y025276D03*
X019862Y025536D03*
X019902Y024984D03*
X019902Y024980D03*
X019902Y024976D03*
X019902Y024968D03*
X019902Y024964D03*
X019902Y024960D03*
X019902Y024956D03*
X019074Y025304D03*
D132*
X019398Y024960D03*
X019526Y025584D03*
D133*
X019524Y025580D03*
X019400Y024964D03*
D134*
X019402Y024968D03*
X019082Y025488D03*
D135*
X019362Y025408D03*
X019522Y025564D03*
X019522Y025568D03*
X019562Y024968D03*
D136*
X019408Y024972D03*
D137*
X019562Y024972D03*
D138*
X019902Y024972D03*
D139*
X019408Y024976D03*
D140*
X019564Y024976D03*
X019564Y024980D03*
X019564Y024984D03*
X019564Y024988D03*
X019364Y025404D03*
X019520Y025560D03*
X019664Y025468D03*
D141*
X019654Y025460D03*
X019410Y024984D03*
X019410Y024980D03*
D142*
X019412Y024988D03*
D143*
X019578Y025004D03*
X019798Y024988D03*
D144*
X019976Y024988D03*
X019976Y025060D03*
X019976Y025064D03*
X019968Y025076D03*
X018996Y025288D03*
X018992Y025276D03*
D145*
X019100Y024992D03*
D146*
X019414Y024992D03*
X019370Y025392D03*
X019518Y025552D03*
D147*
X019524Y025572D03*
X019668Y025472D03*
X019360Y025412D03*
X019564Y024992D03*
D148*
X019788Y024992D03*
D149*
X019982Y024992D03*
X019962Y025492D03*
D150*
X019874Y025644D03*
X019530Y025608D03*
X019106Y024996D03*
D151*
X019416Y024996D03*
X019244Y025296D03*
D152*
X019782Y024996D03*
D153*
X019984Y024996D03*
X019984Y025000D03*
X019984Y025028D03*
X019960Y025496D03*
X019960Y025500D03*
X019596Y025376D03*
X019476Y025144D03*
X019060Y025424D03*
D154*
X019106Y025000D03*
D155*
X019202Y025296D03*
X019422Y025004D03*
X019418Y025000D03*
X019518Y025544D03*
D156*
X019326Y025496D03*
X019066Y025456D03*
X019578Y025000D03*
D157*
X019698Y025164D03*
X019698Y025168D03*
X019702Y025180D03*
X019322Y025560D03*
X019322Y025564D03*
X019062Y025444D03*
X019110Y025004D03*
D158*
X019986Y025004D03*
X019986Y025008D03*
X019986Y025016D03*
X019986Y025020D03*
X019986Y025024D03*
X019958Y025504D03*
D159*
X019758Y025520D03*
X019474Y025228D03*
X019110Y025008D03*
D160*
X019112Y025012D03*
D161*
X019424Y025012D03*
X019640Y025452D03*
D162*
X019576Y025012D03*
X019984Y025032D03*
D163*
X019768Y025012D03*
D164*
X019986Y025012D03*
D165*
X019982Y025036D03*
X019982Y025040D03*
X019982Y025044D03*
X019870Y025620D03*
X019058Y025420D03*
X019114Y025016D03*
D166*
X019428Y025016D03*
X019428Y025020D03*
X019376Y025384D03*
X019516Y025540D03*
X019092Y025496D03*
D167*
X019058Y025416D03*
X019578Y025016D03*
X019978Y025056D03*
X019962Y025484D03*
D168*
X019956Y025464D03*
X019956Y025460D03*
X019952Y025108D03*
X019956Y025104D03*
X019576Y025020D03*
X019596Y025364D03*
X019112Y025024D03*
X018996Y025244D03*
D169*
X019078Y025476D03*
X019762Y025020D03*
D170*
X019948Y025440D03*
X019872Y025600D03*
X019056Y025384D03*
X019008Y025228D03*
X019008Y025224D03*
X019112Y025028D03*
D171*
X019058Y025380D03*
X019578Y025028D03*
X019946Y025436D03*
X019870Y025596D03*
D172*
X019504Y025752D03*
X019112Y025032D03*
D173*
X019578Y025032D03*
X019870Y025592D03*
D174*
X019750Y025032D03*
D175*
X019598Y025340D03*
X019866Y025584D03*
X019058Y025368D03*
X019058Y025364D03*
X019026Y025208D03*
X019114Y025040D03*
D176*
X019488Y025236D03*
X019980Y025048D03*
X019960Y025488D03*
X019948Y025520D03*
D177*
X019116Y025052D03*
D178*
X019592Y025052D03*
D179*
X019598Y025372D03*
X019978Y025052D03*
D180*
X019760Y025228D03*
X019596Y025316D03*
X019924Y025388D03*
X019864Y025568D03*
X019508Y025740D03*
X019116Y025056D03*
D181*
X019116Y025064D03*
X019068Y025328D03*
X019592Y025304D03*
X019588Y025056D03*
X019916Y025380D03*
X019496Y025728D03*
D182*
X019494Y025724D03*
X019490Y025720D03*
X019486Y025716D03*
X019434Y025644D03*
X019066Y025324D03*
X019118Y025068D03*
X019914Y025376D03*
D183*
X019862Y025556D03*
X019582Y025068D03*
D184*
X019966Y025080D03*
X019974Y025068D03*
X019058Y025408D03*
X018990Y025268D03*
X018990Y025264D03*
X018990Y025260D03*
D185*
X019120Y025072D03*
X019580Y025072D03*
X019592Y025292D03*
X019436Y025652D03*
X019452Y025672D03*
X019484Y025712D03*
D186*
X019462Y025688D03*
X019862Y025548D03*
X019782Y025220D03*
X019582Y025076D03*
D187*
X019120Y025088D03*
X019080Y025168D03*
X019860Y025524D03*
D188*
X019122Y025092D03*
D189*
X019580Y025092D03*
X019588Y025272D03*
D190*
X019962Y025092D03*
D191*
X019122Y025096D03*
D192*
X019578Y025096D03*
X019806Y025200D03*
X019862Y025528D03*
D193*
X019502Y025760D03*
X019962Y025096D03*
D194*
X019810Y025196D03*
X019586Y025256D03*
X019578Y025108D03*
X019578Y025104D03*
X019578Y025100D03*
X019086Y025164D03*
D195*
X019122Y025104D03*
X019578Y025124D03*
X019578Y025128D03*
X019578Y025136D03*
X019578Y025140D03*
X019586Y025240D03*
D196*
X019122Y025112D03*
D197*
X019576Y025112D03*
X019812Y025192D03*
D198*
X019950Y025112D03*
D199*
X019814Y025188D03*
X019586Y025244D03*
X019578Y025116D03*
X019090Y025160D03*
D200*
X019000Y025236D03*
X019596Y025360D03*
X019900Y025180D03*
X019944Y025124D03*
X019948Y025120D03*
X019948Y025116D03*
X019500Y025756D03*
D201*
X019124Y025124D03*
D202*
X019124Y025132D03*
D203*
X019578Y025132D03*
D204*
X019940Y025132D03*
D205*
X019124Y025136D03*
X019124Y025140D03*
X019120Y025144D03*
D206*
X019112Y025148D03*
D207*
X019104Y025152D03*
D208*
X019466Y025152D03*
X019478Y025232D03*
D209*
X019694Y025152D03*
X019346Y025632D03*
D210*
X019092Y025156D03*
D211*
X019694Y025156D03*
X019494Y025768D03*
D212*
X019062Y025436D03*
X019462Y025168D03*
X019462Y025164D03*
X019462Y025160D03*
D213*
X019464Y025204D03*
X019696Y025160D03*
X019700Y025176D03*
X019704Y025184D03*
X019324Y025568D03*
X019324Y025576D03*
X019324Y025580D03*
X019324Y025584D03*
X019328Y025588D03*
D214*
X019872Y025604D03*
X019952Y025448D03*
X019972Y025364D03*
X019912Y025168D03*
D215*
X019072Y025172D03*
D216*
X019460Y025172D03*
D217*
X019700Y025172D03*
X019324Y025572D03*
D218*
X019004Y025232D03*
X019908Y025172D03*
D219*
X019590Y025280D03*
X019590Y025284D03*
X019074Y025308D03*
X019070Y025176D03*
D220*
X019460Y025176D03*
X019460Y025180D03*
X019340Y025624D03*
X019344Y025628D03*
D221*
X019338Y025620D03*
X019338Y025616D03*
X019062Y025440D03*
X019466Y025216D03*
X019466Y025208D03*
X019462Y025200D03*
X019458Y025196D03*
X019458Y025188D03*
X019458Y025184D03*
X019598Y025384D03*
D222*
X019466Y025212D03*
X019458Y025192D03*
D223*
X019032Y025204D03*
D224*
X019024Y025212D03*
D225*
X019790Y025212D03*
D226*
X019016Y025220D03*
D227*
X019738Y025232D03*
D228*
X019058Y025400D03*
X019006Y025296D03*
X018998Y025240D03*
D229*
X018994Y025252D03*
D230*
X019586Y025252D03*
D231*
X019588Y025260D03*
X019588Y025264D03*
D232*
X019590Y025268D03*
D233*
X019870Y025616D03*
X018994Y025284D03*
X018994Y025280D03*
D234*
X019000Y025292D03*
X019872Y025612D03*
D235*
X019252Y025292D03*
D236*
X019594Y025308D03*
D237*
X019594Y025320D03*
D238*
X019646Y025456D03*
X019518Y025548D03*
X020062Y025324D03*
D239*
X019936Y025412D03*
X019596Y025332D03*
D240*
X020042Y025336D03*
D241*
X019942Y025424D03*
X019866Y025588D03*
X019598Y025344D03*
D242*
X019322Y025508D03*
X019322Y025516D03*
X020022Y025344D03*
D243*
X019598Y025348D03*
D244*
X019332Y025596D03*
X019332Y025600D03*
X019332Y025604D03*
X019332Y025608D03*
X020012Y025348D03*
D245*
X019062Y025352D03*
D246*
X019512Y025532D03*
X019908Y025352D03*
D247*
X020004Y025352D03*
X019060Y025432D03*
D248*
X019060Y025356D03*
X019864Y025580D03*
D249*
X019992Y025356D03*
D250*
X019058Y025372D03*
D251*
X019764Y025372D03*
D252*
X019060Y025376D03*
D253*
X019058Y025388D03*
D254*
X019374Y025388D03*
X019514Y025536D03*
D255*
X019058Y025392D03*
D256*
X019594Y025392D03*
D257*
X019926Y025392D03*
D258*
X019368Y025396D03*
X019508Y025780D03*
D259*
X019518Y025556D03*
X019658Y025464D03*
X019366Y025400D03*
D260*
X019930Y025400D03*
D261*
X019938Y025416D03*
D262*
X019942Y025428D03*
D263*
X019942Y025432D03*
D264*
X019326Y025492D03*
X019066Y025452D03*
D265*
X019952Y025452D03*
D266*
X019530Y025612D03*
X019078Y025472D03*
D267*
X019332Y025472D03*
D268*
X019958Y025472D03*
D269*
X019330Y025476D03*
X019330Y025480D03*
D270*
X019960Y025480D03*
X019960Y025476D03*
D271*
X019090Y025492D03*
D272*
X019702Y025492D03*
D273*
X019728Y025508D03*
X019528Y025636D03*
X019324Y025504D03*
X019324Y025500D03*
D274*
X019322Y025512D03*
D275*
X019734Y025512D03*
D276*
X019954Y025512D03*
D277*
X019874Y025636D03*
X019738Y025516D03*
X019526Y025640D03*
D278*
X019952Y025516D03*
D279*
X019862Y025532D03*
D280*
X019320Y025552D03*
D281*
X019862Y025552D03*
D282*
X019864Y025572D03*
D283*
X019332Y025592D03*
D284*
X019334Y025612D03*
D285*
X019528Y025628D03*
D286*
X019528Y025632D03*
D287*
X019874Y025632D03*
D288*
X019500Y025732D03*
D289*
X019494Y025764D03*
D290*
X019496Y025772D03*
D291*
X019982Y020732D03*
X020232Y019732D03*
X020732Y019732D03*
X021232Y019732D03*
X021982Y019732D03*
X023482Y019732D03*
X024232Y019732D03*
X025982Y019732D03*
X026732Y019732D03*
X025482Y021732D03*
X027482Y025232D03*
X027482Y026482D03*
X029682Y026482D03*
X019482Y019732D03*
D292*
X020982Y023482D03*
X020982Y023982D03*
X020982Y027482D03*
X020982Y027982D03*
X020982Y028482D03*
X020982Y028982D03*
X020982Y029482D03*
X020982Y029982D03*
X020982Y030482D03*
X026482Y029982D03*
X026482Y029482D03*
X026482Y028982D03*
X026482Y028482D03*
X026482Y025982D03*
D293*
X027432Y024532D02*
X025032Y024532D01*
X025032Y022932D01*
X027432Y022932D01*
X027432Y024532D01*
X029682Y025032D02*
X029682Y022432D01*
X030782Y022432D01*
X030782Y025032D01*
X029682Y025032D01*
X024559Y024559D02*
X024559Y024441D01*
X024559Y024559D02*
X024441Y024559D01*
X023006Y024433D02*
X023008Y024443D01*
X023013Y024451D01*
X023021Y024456D01*
X023031Y024458D01*
X023041Y024456D01*
X023049Y024451D01*
X023054Y024443D01*
X023056Y024433D01*
X023054Y024423D01*
X023049Y024415D01*
X023041Y024410D01*
X023031Y024408D01*
X023021Y024410D01*
X023013Y024415D01*
X023008Y024423D01*
X023006Y024433D01*
X022905Y024441D02*
X023023Y024559D01*
X022905Y023023D02*
X022905Y022905D01*
X023023Y022905D01*
X024441Y022905D02*
X024559Y022905D01*
X024559Y023023D01*
X018233Y022163D02*
X018233Y021363D01*
X016633Y021363D01*
X016633Y022163D01*
X018233Y022163D01*
X018220Y022157D02*
X017433Y022157D01*
X017433Y026094D01*
X018220Y026094D01*
X018220Y022157D01*
X017433Y022157D02*
X016645Y022157D01*
X016645Y026094D01*
X017433Y026094D01*
X017433Y022157D01*
D294*
X023781Y017232D03*
X030531Y025982D03*
X024482Y030433D03*
X022982Y030433D03*
X022232Y030433D03*
D295*
X019632Y028292D02*
X019332Y028292D01*
X019332Y027152D01*
X019632Y027152D01*
X019632Y028292D01*
X020864Y022718D02*
X021100Y022718D01*
X021100Y022246D02*
X020864Y022246D01*
X019132Y021542D02*
X018832Y021542D01*
X018832Y020402D01*
X019132Y020402D01*
X019132Y021542D01*
X020422Y018632D02*
X020422Y018332D01*
X021562Y018332D01*
X021562Y018632D01*
X020422Y018632D01*
X025922Y018632D02*
X025922Y018332D01*
X027062Y018332D01*
X027062Y018632D01*
X025922Y018632D01*
X028532Y020782D02*
X028732Y020782D01*
X028532Y020782D02*
X028532Y020982D01*
X028532Y021482D02*
X028532Y021682D01*
X028732Y021682D01*
X029232Y021682D02*
X029432Y021682D01*
X029432Y021482D01*
X029782Y021482D02*
X029782Y021682D01*
X029982Y021682D01*
X030482Y021682D02*
X030682Y021682D01*
X030682Y021482D01*
X030682Y020982D02*
X030682Y020782D01*
X030482Y020782D01*
X029982Y020782D02*
X029782Y020782D01*
X029782Y020982D01*
X029432Y020982D02*
X029432Y020782D01*
X029232Y020782D01*
X028882Y025922D02*
X028582Y025922D01*
X028582Y027062D01*
X028882Y027062D01*
X028882Y025922D01*
X027882Y027172D02*
X027582Y027172D01*
X027582Y028312D01*
X027882Y028312D01*
X027882Y027172D01*
D296*
G36*
X034328Y034327D02*
X034397Y034396D01*
X034466Y034327D01*
X034397Y034258D01*
X034328Y034327D01*
G37*
G36*
X034327Y013136D02*
X034396Y013067D01*
X034327Y012998D01*
X034258Y013067D01*
X034327Y013136D01*
G37*
G36*
X012971Y013164D02*
X013040Y013233D01*
X013109Y013164D01*
X013040Y013095D01*
X012971Y013164D01*
G37*
G36*
X013067Y034396D02*
X013136Y034327D01*
X013067Y034258D01*
X012998Y034327D01*
X013067Y034396D01*
G37*
D297*
X030232Y023732D03*
M02*
