G75*
G70*
%OFA0B0*%
%FSLAX24Y24*%
%IPPOS*%
%LPD*%
%AMOC8*
5,1,8,0,0,1.08239X$1,22.5*
%
%ADD10C,0.0946*%
%ADD11R,0.0394X0.0394*%
%ADD12R,0.0198X0.0395*%
%ADD13R,0.0395X0.0198*%
%ADD14R,0.0749X0.0356*%
%ADD15R,0.0434X0.0356*%
%ADD16R,0.0356X0.0434*%
%ADD17C,0.0180*%
%ADD18R,0.1110X0.1110*%
%ADD19R,0.0395X0.0395*%
%ADD20R,0.0430X0.0390*%
%ADD21R,0.0390X0.0430*%
%ADD22OC8,0.0930*%
%ADD23C,0.0580*%
%ADD24C,0.0570*%
%ADD25C,0.0552*%
%ADD26R,0.0395X0.0395*%
%ADD27R,0.0552X0.0297*%
%ADD28R,0.0395X0.0552*%
%ADD29R,0.0474X0.0474*%
%ADD30R,0.0780X0.0330*%
%ADD31R,0.0280X0.0480*%
%ADD32C,0.0400*%
%ADD33OC8,0.0580*%
%ADD34R,0.0580X0.0580*%
D10*
X019401Y023732D03*
X028063Y023732D03*
D11*
X023732Y027482D03*
D12*
X023732Y026143D03*
X023929Y026143D03*
X024126Y026143D03*
X024322Y026143D03*
X024519Y026143D03*
X024716Y026143D03*
X023535Y026143D03*
X023338Y026143D03*
X023141Y026143D03*
X022944Y026143D03*
X022748Y026143D03*
X022748Y028820D03*
X022944Y028820D03*
X023141Y028820D03*
X023338Y028820D03*
X023535Y028820D03*
X023732Y028820D03*
X023929Y028820D03*
X024126Y028820D03*
X024322Y028820D03*
X024519Y028820D03*
X024716Y028820D03*
D13*
X025070Y028466D03*
X025070Y028269D03*
X025070Y028072D03*
X025070Y027876D03*
X025070Y027679D03*
X025070Y027482D03*
X025070Y027285D03*
X025070Y027088D03*
X025070Y026891D03*
X025070Y026694D03*
X025070Y026498D03*
X022393Y026498D03*
X022393Y026694D03*
X022393Y026891D03*
X022393Y027088D03*
X022393Y027285D03*
X022393Y027482D03*
X022393Y027679D03*
X022393Y027876D03*
X022393Y028072D03*
X022393Y028269D03*
X022393Y028466D03*
D14*
X026482Y027704D03*
X026482Y027232D03*
X026482Y026759D03*
D15*
X027482Y026738D03*
X027482Y026226D03*
X027482Y025488D03*
X027482Y024976D03*
X029682Y026226D03*
X029682Y026738D03*
X025482Y021988D03*
X025482Y021476D03*
X024232Y021476D03*
X024232Y021988D03*
X023482Y021988D03*
X023482Y021476D03*
X022732Y021476D03*
X022732Y021988D03*
X023482Y019988D03*
X023482Y019476D03*
X024232Y019476D03*
X024232Y019988D03*
X025982Y019988D03*
X025982Y019476D03*
X026732Y019476D03*
X026732Y019988D03*
X021982Y019988D03*
X021982Y019476D03*
X021232Y019476D03*
X020732Y019476D03*
X020232Y019476D03*
X020232Y019988D03*
X020732Y019988D03*
X021232Y019988D03*
X019982Y020476D03*
X019982Y020988D03*
X019482Y019988D03*
X019482Y019476D03*
D16*
X020726Y023482D03*
X020726Y023982D03*
X020726Y024482D03*
X020726Y024982D03*
X020726Y025482D03*
X021238Y025482D03*
X021238Y024982D03*
X021238Y024482D03*
X021238Y023982D03*
X021238Y023482D03*
X021238Y027482D03*
X021238Y027982D03*
X020726Y027982D03*
X020726Y027482D03*
X020726Y028482D03*
X020726Y028982D03*
X020726Y029482D03*
X020726Y029982D03*
X020726Y030482D03*
X021238Y030482D03*
X021238Y029982D03*
X021238Y029482D03*
X021238Y028982D03*
X021238Y028482D03*
X026226Y028482D03*
X026226Y028982D03*
X026226Y029482D03*
X026226Y029982D03*
X026738Y029982D03*
X026738Y029482D03*
X026738Y028982D03*
X026738Y028482D03*
X026738Y025982D03*
X026738Y025482D03*
X026738Y024982D03*
X026226Y024982D03*
X026226Y025482D03*
X026226Y025982D03*
D17*
X024703Y024227D02*
X024403Y024227D01*
X024403Y024027D02*
X024703Y024027D01*
X024703Y023829D02*
X024403Y023829D01*
X024403Y023619D02*
X024703Y023619D01*
X024703Y023420D02*
X024403Y023420D01*
X024403Y023221D02*
X024703Y023221D01*
X024238Y023047D02*
X024238Y022747D01*
X024039Y022747D02*
X024039Y023047D01*
X023841Y023047D02*
X023841Y022747D01*
X023631Y022747D02*
X023631Y023047D01*
X023432Y023047D02*
X023432Y022747D01*
X023233Y022747D02*
X023233Y023047D01*
X023068Y023221D02*
X022768Y023221D01*
X022768Y023420D02*
X023068Y023420D01*
X023068Y023619D02*
X022768Y023619D01*
X022768Y023829D02*
X023068Y023829D01*
X023068Y024027D02*
X022768Y024027D01*
X022768Y024227D02*
X023068Y024227D01*
X023233Y024401D02*
X023233Y024701D01*
X023432Y024701D02*
X023432Y024401D01*
X023631Y024401D02*
X023631Y024701D01*
X023841Y024701D02*
X023841Y024401D01*
X024039Y024401D02*
X024039Y024701D01*
X024238Y024701D02*
X024238Y024401D01*
D18*
X023740Y023728D03*
D19*
X024027Y017232D03*
X023437Y017232D03*
X030187Y025982D03*
X030777Y025982D03*
X024482Y030187D03*
X024482Y030777D03*
X022982Y030777D03*
X022982Y030187D03*
X022232Y030187D03*
X022232Y030777D03*
D20*
X019882Y028102D03*
X019082Y027722D03*
X019882Y027342D03*
X019382Y021352D03*
X019382Y020592D03*
X018582Y020972D03*
X027332Y027362D03*
X027332Y028122D03*
X028132Y027742D03*
X028332Y026872D03*
X028332Y026112D03*
X029132Y026492D03*
D21*
X026872Y018882D03*
X026112Y018882D03*
X026492Y018082D03*
X021372Y018882D03*
X020992Y018082D03*
X020612Y018882D03*
D22*
X028982Y021232D03*
X030232Y021232D03*
D23*
X027032Y023332D03*
X026232Y023332D03*
X026232Y024132D03*
X025432Y024132D03*
X025432Y023332D03*
X024762Y018292D03*
X017826Y022551D03*
X017039Y022551D03*
X017039Y023338D03*
X017039Y024126D03*
X017039Y024913D03*
X017826Y024913D03*
X017826Y024126D03*
X017826Y023338D03*
X017033Y021763D03*
D24*
X022702Y018292D03*
X022802Y018292D03*
X024662Y018292D03*
D25*
X025112Y017332D03*
X025112Y017132D03*
X022352Y017132D03*
X022352Y017332D03*
D26*
G36*
X012936Y012990D02*
X013214Y013268D01*
X013492Y012990D01*
X013214Y012712D01*
X012936Y012990D01*
G37*
G36*
X012518Y013408D02*
X012796Y013686D01*
X013074Y013408D01*
X012796Y013130D01*
X012518Y013408D01*
G37*
G36*
X012893Y034431D02*
X013171Y034153D01*
X012893Y033875D01*
X012615Y034153D01*
X012893Y034431D01*
G37*
G36*
X013311Y034849D02*
X013589Y034571D01*
X013311Y034293D01*
X013033Y034571D01*
X013311Y034849D01*
G37*
G36*
X033875Y034571D02*
X034153Y034849D01*
X034431Y034571D01*
X034153Y034293D01*
X033875Y034571D01*
G37*
G36*
X034293Y034153D02*
X034571Y034431D01*
X034849Y034153D01*
X034571Y033875D01*
X034293Y034153D01*
G37*
G36*
X034571Y013589D02*
X034849Y013311D01*
X034571Y013033D01*
X034293Y013311D01*
X034571Y013589D01*
G37*
G36*
X034153Y013171D02*
X034431Y012893D01*
X034153Y012615D01*
X033875Y012893D01*
X034153Y013171D01*
G37*
D27*
X027244Y021358D03*
X027244Y021732D03*
X027244Y022106D03*
X026220Y022106D03*
X026220Y021358D03*
D28*
X021336Y022482D03*
X020628Y022482D03*
D29*
X022982Y020126D03*
X022982Y019338D03*
X024732Y019338D03*
X024732Y020126D03*
D30*
X029632Y022832D03*
X029632Y024032D03*
X029632Y024632D03*
D31*
X029782Y025182D03*
X030682Y025182D03*
X030682Y022282D03*
X029782Y022282D03*
D32*
X030232Y023132D03*
X030232Y024332D03*
D33*
X027032Y024132D03*
D34*
X017826Y025700D03*
X017039Y025700D03*
X017833Y021763D03*
M02*
