G75*
G70*
%OFA0B0*%
%FSLAX24Y24*%
%IPPOS*%
%LPD*%
%AMOC8*
5,1,8,0,0,1.08239X$1,22.5*
%
%ADD10C,0.0020*%
%ADD11C,0.0000*%
%ADD12R,0.1969X0.1969*%
%ADD13R,0.0118X0.0315*%
%ADD14R,0.0315X0.0118*%
%ADD15R,0.0669X0.0276*%
%ADD16R,0.0354X0.0276*%
%ADD17R,0.0276X0.0354*%
%ADD18C,0.0100*%
%ADD19R,0.1030X0.1030*%
%ADD20R,0.0315X0.0315*%
%ADD21R,0.0350X0.0310*%
%ADD22R,0.0310X0.0350*%
%ADD23OC8,0.0850*%
%ADD24C,0.0500*%
%ADD25C,0.0490*%
%ADD26C,0.0472*%
%ADD27R,0.0315X0.0315*%
%ADD28R,0.0472X0.0217*%
%ADD29R,0.0315X0.0472*%
%ADD30R,0.0394X0.0394*%
%ADD31R,0.0700X0.0250*%
%ADD32R,0.0200X0.0400*%
%ADD33OC8,0.0500*%
%ADD34R,0.0500X0.0500*%
%ADD35C,0.0160*%
%ADD36C,0.0180*%
%ADD37C,0.0080*%
%ADD38C,0.0050*%
%ADD39C,0.0120*%
%ADD40C,0.0240*%
%ADD41C,0.0320*%
%ADD42C,0.0140*%
D10*
X008464Y010273D02*
X009035Y010427D01*
X010427Y009035D02*
X010273Y008464D01*
X013849Y009755D02*
X013806Y009653D01*
X013759Y009552D01*
X013709Y009454D01*
X013655Y009357D01*
X013598Y009261D01*
X013538Y009169D01*
X013474Y009078D01*
X013407Y008989D01*
X013337Y008903D01*
X013264Y008820D01*
X013189Y008739D01*
X013110Y008660D01*
X013029Y008585D01*
X012945Y008513D01*
X012858Y008443D01*
X012770Y008377D01*
X012678Y008313D01*
X012585Y008253D01*
X012490Y008197D01*
X012393Y008143D01*
X012293Y008094D01*
X012193Y008047D01*
X012090Y008005D01*
X011986Y007966D01*
X011881Y007930D01*
X011775Y007899D01*
X011668Y007871D01*
X011560Y007847D01*
X011450Y007826D01*
X011341Y007810D01*
X011231Y007797D01*
X011120Y007789D01*
X011009Y007784D01*
X010898Y007783D01*
X010787Y007786D01*
X010677Y007793D01*
X010566Y007804D01*
X010457Y007819D01*
X010347Y007837D01*
X010239Y007860D01*
X010131Y007886D01*
X010024Y007916D01*
X009918Y007950D01*
X009814Y007988D01*
X009711Y008029D01*
X009610Y008073D01*
X009510Y008122D01*
X009412Y008173D01*
X009316Y008229D01*
X009221Y008287D01*
X009129Y008349D01*
X009039Y008414D01*
X008952Y008482D01*
X008867Y008554D01*
X008785Y008628D01*
X008705Y008705D01*
X008628Y008785D01*
X008554Y008867D01*
X008482Y008952D01*
X008414Y009039D01*
X008349Y009129D01*
X008287Y009221D01*
X008229Y009316D01*
X008173Y009412D01*
X008122Y009510D01*
X008073Y009610D01*
X008029Y009711D01*
X007988Y009814D01*
X007950Y009918D01*
X007916Y010024D01*
X007886Y010131D01*
X007860Y010239D01*
X007837Y010347D01*
X007819Y010457D01*
X007804Y010566D01*
X007793Y010677D01*
X007786Y010787D01*
X007783Y010898D01*
X007784Y011009D01*
X007789Y011120D01*
X007797Y011231D01*
X007810Y011341D01*
X007826Y011450D01*
X007847Y011560D01*
X007871Y011668D01*
X007899Y011775D01*
X007930Y011881D01*
X007966Y011986D01*
X008005Y012090D01*
X008047Y012193D01*
X008094Y012293D01*
X008143Y012393D01*
X008197Y012490D01*
X008253Y012585D01*
X008313Y012678D01*
X008377Y012770D01*
X008443Y012858D01*
X008513Y012945D01*
X008585Y013029D01*
X008660Y013110D01*
X008739Y013189D01*
X008820Y013264D01*
X008903Y013337D01*
X008989Y013407D01*
X009078Y013474D01*
X009169Y013538D01*
X009261Y013598D01*
X009357Y013655D01*
X009454Y013709D01*
X009552Y013759D01*
X009653Y013806D01*
X009755Y013849D01*
X011600Y013409D02*
X011446Y012838D01*
X012511Y014085D02*
X012603Y014055D01*
X012693Y014022D01*
X012782Y013984D01*
X012870Y013943D01*
X012955Y013899D01*
X013039Y013851D01*
X013121Y013799D01*
X013201Y013745D01*
X013278Y013687D01*
X013353Y013626D01*
X013425Y013562D01*
X013495Y013495D01*
X013562Y013425D01*
X013626Y013353D01*
X013687Y013278D01*
X013745Y013201D01*
X013799Y013121D01*
X013851Y013039D01*
X013899Y012955D01*
X013943Y012870D01*
X013984Y012782D01*
X014022Y012693D01*
X014055Y012603D01*
X014085Y012511D01*
X019991Y017039D02*
X019916Y017164D01*
X019837Y017288D01*
X019756Y017410D01*
X019673Y017531D01*
X019587Y017650D01*
X019499Y017767D01*
X019500Y017767D02*
X019972Y018240D01*
X018240Y019972D01*
X017767Y019500D01*
X017767Y019499D02*
X017650Y019587D01*
X017531Y019673D01*
X017410Y019756D01*
X017288Y019837D01*
X017164Y019916D01*
X017039Y019991D01*
X018240Y027492D02*
X017767Y027964D01*
X018240Y027492D02*
X019972Y029224D01*
X019500Y029696D01*
X019499Y029697D02*
X019587Y029814D01*
X019673Y029933D01*
X019756Y030054D01*
X019837Y030176D01*
X019916Y030300D01*
X019991Y030425D01*
X017767Y027964D02*
X017650Y027876D01*
X017531Y027790D01*
X017410Y027707D01*
X017288Y027626D01*
X017164Y027547D01*
X017039Y027472D01*
X011600Y034055D02*
X011446Y034626D01*
X012511Y033378D02*
X012603Y033408D01*
X012693Y033441D01*
X012782Y033479D01*
X012870Y033520D01*
X012955Y033564D01*
X013039Y033612D01*
X013121Y033664D01*
X013201Y033718D01*
X013278Y033776D01*
X013353Y033837D01*
X013425Y033901D01*
X013495Y033968D01*
X013562Y034038D01*
X013626Y034110D01*
X013687Y034185D01*
X013745Y034262D01*
X013799Y034342D01*
X013851Y034424D01*
X013899Y034508D01*
X013943Y034593D01*
X013984Y034681D01*
X014022Y034770D01*
X014055Y034860D01*
X014085Y034952D01*
X013409Y035864D02*
X012838Y036017D01*
X013409Y035864D02*
X013381Y035769D01*
X013350Y035675D01*
X013315Y035582D01*
X013277Y035490D01*
X013235Y035400D01*
X013189Y035312D01*
X013141Y035226D01*
X013088Y035141D01*
X013033Y035059D01*
X012975Y034979D01*
X012913Y034901D01*
X012849Y034826D01*
X012781Y034753D01*
X012711Y034683D01*
X012638Y034615D01*
X012563Y034551D01*
X012485Y034489D01*
X012405Y034431D01*
X012323Y034376D01*
X012238Y034323D01*
X012152Y034275D01*
X012064Y034229D01*
X011974Y034187D01*
X011882Y034149D01*
X011789Y034114D01*
X011695Y034083D01*
X011600Y034055D01*
X012839Y036017D02*
X012860Y036102D01*
X012877Y036188D01*
X012890Y036275D01*
X012899Y036362D01*
X012904Y036450D01*
X012906Y036538D01*
X012904Y036625D01*
X012897Y036713D01*
X012887Y036800D01*
X012873Y036887D01*
X012855Y036973D01*
X012833Y037058D01*
X012808Y037142D01*
X012778Y037224D01*
X012745Y037306D01*
X012709Y037385D01*
X012669Y037464D01*
X012626Y037540D01*
X012579Y037614D01*
X012529Y037686D01*
X012475Y037756D01*
X012419Y037823D01*
X012360Y037888D01*
X012298Y037950D01*
X012233Y038009D01*
X012166Y038065D01*
X012096Y038119D01*
X012024Y038169D01*
X011950Y038216D01*
X011874Y038259D01*
X011795Y038299D01*
X011716Y038335D01*
X011634Y038368D01*
X011552Y038398D01*
X011468Y038423D01*
X011383Y038445D01*
X011297Y038463D01*
X011210Y038477D01*
X011123Y038487D01*
X011035Y038494D01*
X010948Y038496D01*
X010860Y038494D01*
X010772Y038489D01*
X010685Y038480D01*
X010598Y038467D01*
X010512Y038450D01*
X010427Y038429D01*
X010273Y039000D01*
X009035Y037037D02*
X008464Y037191D01*
X009755Y033614D02*
X009653Y033657D01*
X009552Y033704D01*
X009454Y033754D01*
X009357Y033808D01*
X009261Y033865D01*
X009169Y033925D01*
X009078Y033989D01*
X008989Y034056D01*
X008903Y034126D01*
X008820Y034199D01*
X008739Y034274D01*
X008660Y034353D01*
X008585Y034434D01*
X008513Y034518D01*
X008443Y034605D01*
X008377Y034693D01*
X008313Y034785D01*
X008253Y034878D01*
X008197Y034973D01*
X008143Y035070D01*
X008094Y035170D01*
X008047Y035270D01*
X008005Y035373D01*
X007966Y035477D01*
X007930Y035582D01*
X007899Y035688D01*
X007871Y035795D01*
X007847Y035903D01*
X007826Y036013D01*
X007810Y036122D01*
X007797Y036232D01*
X007789Y036343D01*
X007784Y036454D01*
X007783Y036565D01*
X007786Y036676D01*
X007793Y036786D01*
X007804Y036897D01*
X007819Y037006D01*
X007837Y037116D01*
X007860Y037224D01*
X007886Y037332D01*
X007916Y037439D01*
X007950Y037545D01*
X007988Y037649D01*
X008029Y037752D01*
X008073Y037853D01*
X008122Y037953D01*
X008173Y038051D01*
X008229Y038147D01*
X008287Y038242D01*
X008349Y038334D01*
X008414Y038424D01*
X008482Y038511D01*
X008554Y038596D01*
X008628Y038678D01*
X008705Y038758D01*
X008785Y038835D01*
X008867Y038909D01*
X008952Y038981D01*
X009039Y039049D01*
X009129Y039114D01*
X009221Y039176D01*
X009316Y039234D01*
X009412Y039290D01*
X009510Y039341D01*
X009610Y039390D01*
X009711Y039434D01*
X009814Y039475D01*
X009918Y039513D01*
X010024Y039547D01*
X010131Y039577D01*
X010239Y039603D01*
X010347Y039626D01*
X010457Y039644D01*
X010566Y039659D01*
X010677Y039670D01*
X010787Y039677D01*
X010898Y039680D01*
X011009Y039679D01*
X011120Y039674D01*
X011231Y039666D01*
X011341Y039653D01*
X011450Y039637D01*
X011560Y039616D01*
X011668Y039592D01*
X011775Y039564D01*
X011881Y039533D01*
X011986Y039497D01*
X012090Y039458D01*
X012193Y039416D01*
X012293Y039369D01*
X012393Y039320D01*
X012490Y039266D01*
X012585Y039210D01*
X012678Y039150D01*
X012770Y039086D01*
X012858Y039020D01*
X012945Y038950D01*
X013029Y038878D01*
X013110Y038803D01*
X013189Y038724D01*
X013264Y038643D01*
X013337Y038560D01*
X013407Y038474D01*
X013474Y038385D01*
X013538Y038294D01*
X013598Y038202D01*
X013655Y038106D01*
X013709Y038009D01*
X013759Y037911D01*
X013806Y037810D01*
X013849Y037708D01*
X011447Y034625D02*
X011362Y034604D01*
X011276Y034587D01*
X011189Y034574D01*
X011102Y034565D01*
X011014Y034560D01*
X010926Y034558D01*
X010839Y034560D01*
X010751Y034567D01*
X010664Y034577D01*
X010577Y034591D01*
X010491Y034609D01*
X010406Y034631D01*
X010322Y034656D01*
X010240Y034686D01*
X010158Y034719D01*
X010079Y034755D01*
X010000Y034795D01*
X009924Y034838D01*
X009850Y034885D01*
X009778Y034935D01*
X009708Y034989D01*
X009641Y035045D01*
X009576Y035104D01*
X009514Y035166D01*
X009455Y035231D01*
X009399Y035298D01*
X009345Y035368D01*
X009295Y035440D01*
X009248Y035514D01*
X009205Y035590D01*
X009165Y035669D01*
X009129Y035748D01*
X009096Y035830D01*
X009066Y035912D01*
X009041Y035996D01*
X009019Y036081D01*
X009001Y036167D01*
X008987Y036254D01*
X008977Y036341D01*
X008970Y036429D01*
X008968Y036516D01*
X008970Y036604D01*
X008975Y036692D01*
X008984Y036779D01*
X008997Y036866D01*
X009014Y036952D01*
X009035Y037037D01*
X008464Y037191D02*
X008492Y037286D01*
X008523Y037380D01*
X008558Y037473D01*
X008596Y037565D01*
X008638Y037655D01*
X008684Y037743D01*
X008732Y037829D01*
X008785Y037914D01*
X008840Y037996D01*
X008898Y038076D01*
X008960Y038154D01*
X009024Y038229D01*
X009092Y038302D01*
X009162Y038372D01*
X009235Y038440D01*
X009310Y038504D01*
X009388Y038566D01*
X009468Y038624D01*
X009550Y038679D01*
X009635Y038732D01*
X009721Y038780D01*
X009809Y038826D01*
X009899Y038868D01*
X009991Y038906D01*
X010084Y038941D01*
X010178Y038972D01*
X010273Y039000D01*
X027472Y030425D02*
X027775Y030550D01*
X028074Y030683D01*
X028371Y030823D01*
X028663Y030969D01*
X028953Y031123D01*
X029238Y031283D01*
X029520Y031450D01*
X029798Y031624D01*
X030071Y031804D01*
X030341Y031991D01*
X030605Y032184D01*
X030865Y032383D01*
X031120Y032589D01*
X031371Y032800D01*
X031616Y033018D01*
X031856Y033241D01*
X032090Y033469D01*
X032319Y033704D01*
X032543Y033943D01*
X032760Y034188D01*
X032972Y034438D01*
X033178Y034693D01*
X033378Y034952D01*
X027472Y030425D02*
X027547Y030300D01*
X027626Y030176D01*
X027707Y030054D01*
X027790Y029933D01*
X027876Y029814D01*
X027964Y029697D01*
X027964Y029696D02*
X027492Y029224D01*
X029224Y027492D01*
X029696Y027964D01*
X029697Y027964D02*
X029814Y027876D01*
X029933Y027790D01*
X030054Y027707D01*
X030176Y027626D01*
X030300Y027547D01*
X030425Y027472D01*
X035864Y034055D02*
X036017Y034626D01*
X034952Y033378D02*
X034860Y033408D01*
X034770Y033441D01*
X034681Y033479D01*
X034593Y033520D01*
X034508Y033564D01*
X034424Y033612D01*
X034342Y033664D01*
X034262Y033718D01*
X034185Y033776D01*
X034110Y033837D01*
X034038Y033901D01*
X033968Y033968D01*
X033901Y034038D01*
X033837Y034110D01*
X033776Y034185D01*
X033718Y034262D01*
X033664Y034342D01*
X033612Y034424D01*
X033564Y034508D01*
X033520Y034593D01*
X033479Y034681D01*
X033441Y034770D01*
X033408Y034860D01*
X033378Y034952D01*
X034055Y035864D02*
X034626Y036017D01*
X034055Y035864D02*
X034083Y035769D01*
X034114Y035675D01*
X034149Y035582D01*
X034187Y035490D01*
X034229Y035400D01*
X034275Y035312D01*
X034323Y035226D01*
X034376Y035141D01*
X034431Y035059D01*
X034489Y034979D01*
X034551Y034901D01*
X034615Y034826D01*
X034683Y034753D01*
X034753Y034683D01*
X034826Y034615D01*
X034901Y034551D01*
X034979Y034489D01*
X035059Y034431D01*
X035141Y034376D01*
X035226Y034323D01*
X035312Y034275D01*
X035400Y034229D01*
X035490Y034187D01*
X035582Y034149D01*
X035675Y034114D01*
X035769Y034083D01*
X035864Y034055D01*
X036017Y034625D02*
X036102Y034604D01*
X036188Y034587D01*
X036275Y034574D01*
X036362Y034565D01*
X036450Y034560D01*
X036538Y034558D01*
X036625Y034560D01*
X036713Y034567D01*
X036800Y034577D01*
X036887Y034591D01*
X036973Y034609D01*
X037058Y034631D01*
X037142Y034656D01*
X037224Y034686D01*
X037306Y034719D01*
X037385Y034755D01*
X037464Y034795D01*
X037540Y034838D01*
X037614Y034885D01*
X037686Y034935D01*
X037756Y034989D01*
X037823Y035045D01*
X037888Y035104D01*
X037950Y035166D01*
X038009Y035231D01*
X038065Y035298D01*
X038119Y035368D01*
X038169Y035440D01*
X038216Y035514D01*
X038259Y035590D01*
X038299Y035669D01*
X038335Y035748D01*
X038368Y035830D01*
X038398Y035912D01*
X038423Y035996D01*
X038445Y036081D01*
X038463Y036167D01*
X038477Y036254D01*
X038487Y036341D01*
X038494Y036429D01*
X038496Y036516D01*
X038494Y036604D01*
X038489Y036692D01*
X038480Y036779D01*
X038467Y036866D01*
X038450Y036952D01*
X038429Y037037D01*
X039000Y037191D01*
X037037Y038429D02*
X037191Y039000D01*
X033614Y037708D02*
X033657Y037810D01*
X033704Y037911D01*
X033754Y038009D01*
X033808Y038106D01*
X033865Y038202D01*
X033925Y038294D01*
X033989Y038385D01*
X034056Y038474D01*
X034126Y038560D01*
X034199Y038643D01*
X034274Y038724D01*
X034353Y038803D01*
X034434Y038878D01*
X034518Y038950D01*
X034605Y039020D01*
X034693Y039086D01*
X034785Y039150D01*
X034878Y039210D01*
X034973Y039266D01*
X035070Y039320D01*
X035170Y039369D01*
X035270Y039416D01*
X035373Y039458D01*
X035477Y039497D01*
X035582Y039533D01*
X035688Y039564D01*
X035795Y039592D01*
X035903Y039616D01*
X036013Y039637D01*
X036122Y039653D01*
X036232Y039666D01*
X036343Y039674D01*
X036454Y039679D01*
X036565Y039680D01*
X036676Y039677D01*
X036786Y039670D01*
X036897Y039659D01*
X037006Y039644D01*
X037116Y039626D01*
X037224Y039603D01*
X037332Y039577D01*
X037439Y039547D01*
X037545Y039513D01*
X037649Y039475D01*
X037752Y039434D01*
X037853Y039390D01*
X037953Y039341D01*
X038051Y039290D01*
X038147Y039234D01*
X038242Y039176D01*
X038334Y039114D01*
X038424Y039049D01*
X038511Y038981D01*
X038596Y038909D01*
X038678Y038835D01*
X038758Y038758D01*
X038835Y038678D01*
X038909Y038596D01*
X038981Y038511D01*
X039049Y038424D01*
X039114Y038334D01*
X039176Y038242D01*
X039234Y038147D01*
X039290Y038051D01*
X039341Y037953D01*
X039390Y037853D01*
X039434Y037752D01*
X039475Y037649D01*
X039513Y037545D01*
X039547Y037439D01*
X039577Y037332D01*
X039603Y037224D01*
X039626Y037116D01*
X039644Y037006D01*
X039659Y036897D01*
X039670Y036786D01*
X039677Y036676D01*
X039680Y036565D01*
X039679Y036454D01*
X039674Y036343D01*
X039666Y036232D01*
X039653Y036122D01*
X039637Y036013D01*
X039616Y035903D01*
X039592Y035795D01*
X039564Y035688D01*
X039533Y035582D01*
X039497Y035477D01*
X039458Y035373D01*
X039416Y035270D01*
X039369Y035170D01*
X039320Y035070D01*
X039266Y034973D01*
X039210Y034878D01*
X039150Y034785D01*
X039086Y034693D01*
X039020Y034605D01*
X038950Y034518D01*
X038878Y034434D01*
X038803Y034353D01*
X038724Y034274D01*
X038643Y034199D01*
X038560Y034126D01*
X038474Y034056D01*
X038385Y033989D01*
X038294Y033925D01*
X038202Y033865D01*
X038106Y033808D01*
X038009Y033754D01*
X037911Y033704D01*
X037810Y033657D01*
X037708Y033614D01*
X034625Y036017D02*
X034604Y036102D01*
X034587Y036188D01*
X034574Y036275D01*
X034565Y036362D01*
X034560Y036450D01*
X034558Y036538D01*
X034560Y036625D01*
X034567Y036713D01*
X034577Y036800D01*
X034591Y036887D01*
X034609Y036973D01*
X034631Y037058D01*
X034656Y037142D01*
X034686Y037224D01*
X034719Y037306D01*
X034755Y037385D01*
X034795Y037464D01*
X034838Y037540D01*
X034885Y037614D01*
X034935Y037686D01*
X034989Y037756D01*
X035045Y037823D01*
X035104Y037888D01*
X035166Y037950D01*
X035231Y038009D01*
X035298Y038065D01*
X035368Y038119D01*
X035440Y038169D01*
X035514Y038216D01*
X035590Y038259D01*
X035669Y038299D01*
X035748Y038335D01*
X035830Y038368D01*
X035912Y038398D01*
X035996Y038423D01*
X036081Y038445D01*
X036167Y038463D01*
X036254Y038477D01*
X036341Y038487D01*
X036429Y038494D01*
X036516Y038496D01*
X036604Y038494D01*
X036692Y038489D01*
X036779Y038480D01*
X036866Y038467D01*
X036952Y038450D01*
X037037Y038429D01*
X037191Y039000D02*
X037286Y038972D01*
X037380Y038941D01*
X037473Y038906D01*
X037565Y038868D01*
X037655Y038826D01*
X037743Y038780D01*
X037829Y038732D01*
X037914Y038679D01*
X037996Y038624D01*
X038076Y038566D01*
X038154Y038504D01*
X038229Y038440D01*
X038302Y038372D01*
X038372Y038302D01*
X038440Y038229D01*
X038504Y038154D01*
X038566Y038076D01*
X038624Y037996D01*
X038679Y037914D01*
X038732Y037829D01*
X038780Y037743D01*
X038826Y037655D01*
X038868Y037565D01*
X038906Y037473D01*
X038941Y037380D01*
X038972Y037286D01*
X039000Y037191D01*
X030425Y019992D02*
X030550Y019689D01*
X030683Y019390D01*
X030823Y019093D01*
X030969Y018801D01*
X031123Y018511D01*
X031283Y018226D01*
X031450Y017944D01*
X031624Y017666D01*
X031804Y017393D01*
X031991Y017123D01*
X032184Y016859D01*
X032383Y016599D01*
X032589Y016344D01*
X032800Y016093D01*
X033018Y015848D01*
X033241Y015608D01*
X033469Y015374D01*
X033704Y015145D01*
X033943Y014921D01*
X034188Y014704D01*
X034438Y014492D01*
X034693Y014286D01*
X034952Y014086D01*
X030425Y019991D02*
X030300Y019916D01*
X030176Y019837D01*
X030054Y019756D01*
X029933Y019673D01*
X029814Y019587D01*
X029697Y019499D01*
X029696Y019500D02*
X029224Y019972D01*
X027492Y018240D01*
X027964Y017767D01*
X027876Y017650D01*
X027790Y017531D01*
X027707Y017410D01*
X027626Y017288D01*
X027547Y017164D01*
X027472Y017039D01*
X034055Y011600D02*
X034626Y011446D01*
X033378Y012511D02*
X033408Y012603D01*
X033441Y012693D01*
X033479Y012782D01*
X033520Y012870D01*
X033564Y012955D01*
X033612Y013039D01*
X033664Y013121D01*
X033718Y013201D01*
X033776Y013278D01*
X033837Y013353D01*
X033901Y013425D01*
X033968Y013495D01*
X034038Y013562D01*
X034110Y013626D01*
X034185Y013687D01*
X034262Y013745D01*
X034342Y013799D01*
X034424Y013851D01*
X034508Y013899D01*
X034593Y013943D01*
X034681Y013984D01*
X034770Y014022D01*
X034860Y014055D01*
X034952Y014085D01*
X035864Y013409D02*
X036017Y012838D01*
X035864Y013409D02*
X035769Y013381D01*
X035675Y013350D01*
X035582Y013315D01*
X035490Y013277D01*
X035400Y013235D01*
X035312Y013189D01*
X035226Y013141D01*
X035141Y013088D01*
X035059Y013033D01*
X034979Y012975D01*
X034901Y012913D01*
X034826Y012849D01*
X034753Y012781D01*
X034683Y012711D01*
X034615Y012638D01*
X034551Y012563D01*
X034489Y012485D01*
X034431Y012405D01*
X034376Y012323D01*
X034323Y012238D01*
X034275Y012152D01*
X034229Y012064D01*
X034187Y011974D01*
X034149Y011882D01*
X034114Y011789D01*
X034083Y011695D01*
X034055Y011600D01*
X036017Y012839D02*
X036102Y012860D01*
X036188Y012877D01*
X036275Y012890D01*
X036362Y012899D01*
X036450Y012904D01*
X036538Y012906D01*
X036625Y012904D01*
X036713Y012897D01*
X036800Y012887D01*
X036887Y012873D01*
X036973Y012855D01*
X037058Y012833D01*
X037142Y012808D01*
X037224Y012778D01*
X037306Y012745D01*
X037385Y012709D01*
X037464Y012669D01*
X037540Y012626D01*
X037614Y012579D01*
X037686Y012529D01*
X037756Y012475D01*
X037823Y012419D01*
X037888Y012360D01*
X037950Y012298D01*
X038009Y012233D01*
X038065Y012166D01*
X038119Y012096D01*
X038169Y012024D01*
X038216Y011950D01*
X038259Y011874D01*
X038299Y011795D01*
X038335Y011716D01*
X038368Y011634D01*
X038398Y011552D01*
X038423Y011468D01*
X038445Y011383D01*
X038463Y011297D01*
X038477Y011210D01*
X038487Y011123D01*
X038494Y011035D01*
X038496Y010948D01*
X038494Y010860D01*
X038489Y010772D01*
X038480Y010685D01*
X038467Y010598D01*
X038450Y010512D01*
X038429Y010427D01*
X039000Y010273D01*
X037037Y009035D02*
X037191Y008464D01*
X033614Y009755D02*
X033657Y009653D01*
X033704Y009552D01*
X033754Y009454D01*
X033808Y009357D01*
X033865Y009261D01*
X033925Y009169D01*
X033989Y009078D01*
X034056Y008989D01*
X034126Y008903D01*
X034199Y008820D01*
X034274Y008739D01*
X034353Y008660D01*
X034434Y008585D01*
X034518Y008513D01*
X034605Y008443D01*
X034693Y008377D01*
X034785Y008313D01*
X034878Y008253D01*
X034973Y008197D01*
X035070Y008143D01*
X035170Y008094D01*
X035270Y008047D01*
X035373Y008005D01*
X035477Y007966D01*
X035582Y007930D01*
X035688Y007899D01*
X035795Y007871D01*
X035903Y007847D01*
X036013Y007826D01*
X036122Y007810D01*
X036232Y007797D01*
X036343Y007789D01*
X036454Y007784D01*
X036565Y007783D01*
X036676Y007786D01*
X036786Y007793D01*
X036897Y007804D01*
X037006Y007819D01*
X037116Y007837D01*
X037224Y007860D01*
X037332Y007886D01*
X037439Y007916D01*
X037545Y007950D01*
X037649Y007988D01*
X037752Y008029D01*
X037853Y008073D01*
X037953Y008122D01*
X038051Y008173D01*
X038147Y008229D01*
X038242Y008287D01*
X038334Y008349D01*
X038424Y008414D01*
X038511Y008482D01*
X038596Y008554D01*
X038678Y008628D01*
X038758Y008705D01*
X038835Y008785D01*
X038909Y008867D01*
X038981Y008952D01*
X039049Y009039D01*
X039114Y009129D01*
X039176Y009221D01*
X039234Y009316D01*
X039290Y009412D01*
X039341Y009510D01*
X039390Y009610D01*
X039434Y009711D01*
X039475Y009814D01*
X039513Y009918D01*
X039547Y010024D01*
X039577Y010131D01*
X039603Y010239D01*
X039626Y010347D01*
X039644Y010457D01*
X039659Y010566D01*
X039670Y010677D01*
X039677Y010787D01*
X039680Y010898D01*
X039679Y011009D01*
X039674Y011120D01*
X039666Y011231D01*
X039653Y011341D01*
X039637Y011450D01*
X039616Y011560D01*
X039592Y011668D01*
X039564Y011775D01*
X039533Y011881D01*
X039497Y011986D01*
X039458Y012090D01*
X039416Y012193D01*
X039369Y012293D01*
X039320Y012393D01*
X039266Y012490D01*
X039210Y012585D01*
X039150Y012678D01*
X039086Y012770D01*
X039020Y012858D01*
X038950Y012945D01*
X038878Y013029D01*
X038803Y013110D01*
X038724Y013189D01*
X038643Y013264D01*
X038560Y013337D01*
X038474Y013407D01*
X038385Y013474D01*
X038294Y013538D01*
X038202Y013598D01*
X038106Y013655D01*
X038009Y013709D01*
X037911Y013759D01*
X037810Y013806D01*
X037708Y013849D01*
X034625Y011447D02*
X034604Y011362D01*
X034587Y011276D01*
X034574Y011189D01*
X034565Y011102D01*
X034560Y011014D01*
X034558Y010926D01*
X034560Y010839D01*
X034567Y010751D01*
X034577Y010664D01*
X034591Y010577D01*
X034609Y010491D01*
X034631Y010406D01*
X034656Y010322D01*
X034686Y010240D01*
X034719Y010158D01*
X034755Y010079D01*
X034795Y010000D01*
X034838Y009924D01*
X034885Y009850D01*
X034935Y009778D01*
X034989Y009708D01*
X035045Y009641D01*
X035104Y009576D01*
X035166Y009514D01*
X035231Y009455D01*
X035298Y009399D01*
X035368Y009345D01*
X035440Y009295D01*
X035514Y009248D01*
X035590Y009205D01*
X035669Y009165D01*
X035748Y009129D01*
X035830Y009096D01*
X035912Y009066D01*
X035996Y009041D01*
X036081Y009019D01*
X036167Y009001D01*
X036254Y008987D01*
X036341Y008977D01*
X036429Y008970D01*
X036516Y008968D01*
X036604Y008970D01*
X036692Y008975D01*
X036779Y008984D01*
X036866Y008997D01*
X036952Y009014D01*
X037037Y009035D01*
X037191Y008464D02*
X037286Y008492D01*
X037380Y008523D01*
X037473Y008558D01*
X037565Y008596D01*
X037655Y008638D01*
X037743Y008684D01*
X037829Y008732D01*
X037914Y008785D01*
X037996Y008840D01*
X038076Y008898D01*
X038154Y008960D01*
X038229Y009024D01*
X038302Y009092D01*
X038372Y009162D01*
X038440Y009235D01*
X038504Y009310D01*
X038566Y009388D01*
X038624Y009468D01*
X038679Y009550D01*
X038732Y009635D01*
X038780Y009721D01*
X038826Y009809D01*
X038868Y009899D01*
X038906Y009991D01*
X038941Y010084D01*
X038972Y010178D01*
X039000Y010273D01*
X030425Y027472D02*
X030550Y027775D01*
X030683Y028074D01*
X030823Y028371D01*
X030969Y028663D01*
X031123Y028953D01*
X031283Y029238D01*
X031450Y029520D01*
X031624Y029798D01*
X031804Y030071D01*
X031991Y030341D01*
X032184Y030605D01*
X032383Y030865D01*
X032589Y031120D01*
X032800Y031371D01*
X033018Y031616D01*
X033241Y031856D01*
X033469Y032090D01*
X033704Y032319D01*
X033943Y032543D01*
X034188Y032760D01*
X034438Y032972D01*
X034693Y033178D01*
X034952Y033378D01*
X037708Y033614D02*
X037469Y033515D01*
X037233Y033411D01*
X036999Y033300D01*
X036768Y033184D01*
X036540Y033063D01*
X036314Y032936D01*
X036092Y032803D01*
X035874Y032665D01*
X035658Y032522D01*
X035447Y032374D01*
X035238Y032220D01*
X035034Y032062D01*
X034834Y031899D01*
X034637Y031730D01*
X034445Y031557D01*
X034257Y031380D01*
X034073Y031198D01*
X033894Y031011D01*
X033720Y030821D01*
X033550Y030626D01*
X033385Y030427D01*
X033224Y030224D01*
X033069Y030017D01*
X032919Y029806D01*
X032774Y029592D01*
X032634Y029375D01*
X032500Y029154D01*
X032371Y028930D01*
X032247Y028703D01*
X032129Y028473D01*
X032017Y028240D01*
X031910Y028004D01*
X031809Y027766D01*
X031714Y027526D01*
X031625Y027283D01*
X031542Y027038D01*
X031464Y026791D01*
X031393Y026543D01*
X031328Y026293D01*
X031268Y026041D01*
X031215Y025788D01*
X031169Y025533D01*
X031128Y025278D01*
X031093Y025022D01*
X031065Y024765D01*
X031043Y024507D01*
X031028Y024249D01*
X031018Y023991D01*
X031015Y023732D01*
X031018Y023473D01*
X031028Y023215D01*
X031043Y022957D01*
X031065Y022699D01*
X031093Y022442D01*
X031128Y022186D01*
X031169Y021931D01*
X031215Y021676D01*
X031268Y021423D01*
X031328Y021171D01*
X031393Y020921D01*
X031464Y020673D01*
X031542Y020426D01*
X031625Y020181D01*
X031714Y019938D01*
X031809Y019698D01*
X031910Y019460D01*
X032017Y019224D01*
X032129Y018991D01*
X032247Y018761D01*
X032371Y018534D01*
X032500Y018310D01*
X032634Y018089D01*
X032774Y017872D01*
X032919Y017658D01*
X033069Y017447D01*
X033224Y017240D01*
X033385Y017037D01*
X033550Y016838D01*
X033720Y016643D01*
X033894Y016453D01*
X034073Y016266D01*
X034257Y016084D01*
X034445Y015907D01*
X034637Y015734D01*
X034834Y015565D01*
X035034Y015402D01*
X035238Y015244D01*
X035447Y015090D01*
X035658Y014942D01*
X035874Y014799D01*
X036092Y014661D01*
X036314Y014528D01*
X036540Y014401D01*
X036768Y014280D01*
X036999Y014164D01*
X037233Y014053D01*
X037469Y013949D01*
X037708Y013850D01*
X019992Y017039D02*
X019689Y016914D01*
X019390Y016781D01*
X019093Y016641D01*
X018801Y016495D01*
X018511Y016341D01*
X018226Y016181D01*
X017944Y016014D01*
X017666Y015840D01*
X017393Y015660D01*
X017123Y015473D01*
X016859Y015280D01*
X016599Y015081D01*
X016344Y014875D01*
X016093Y014664D01*
X015848Y014446D01*
X015608Y014223D01*
X015374Y013995D01*
X015145Y013760D01*
X014921Y013521D01*
X014704Y013276D01*
X014492Y013026D01*
X014286Y012771D01*
X014086Y012512D01*
X013409Y011600D02*
X012838Y011446D01*
X013409Y011600D02*
X013381Y011695D01*
X013350Y011789D01*
X013315Y011882D01*
X013277Y011974D01*
X013235Y012064D01*
X013189Y012152D01*
X013141Y012238D01*
X013088Y012323D01*
X013033Y012405D01*
X012975Y012485D01*
X012913Y012563D01*
X012849Y012638D01*
X012781Y012711D01*
X012711Y012781D01*
X012638Y012849D01*
X012563Y012913D01*
X012485Y012975D01*
X012405Y013033D01*
X012323Y013088D01*
X012238Y013141D01*
X012152Y013189D01*
X012064Y013235D01*
X011974Y013277D01*
X011882Y013315D01*
X011789Y013350D01*
X011695Y013381D01*
X011600Y013409D01*
X012839Y011447D02*
X012860Y011362D01*
X012877Y011276D01*
X012890Y011189D01*
X012899Y011102D01*
X012904Y011014D01*
X012906Y010926D01*
X012904Y010839D01*
X012897Y010751D01*
X012887Y010664D01*
X012873Y010577D01*
X012855Y010491D01*
X012833Y010406D01*
X012808Y010322D01*
X012778Y010240D01*
X012745Y010158D01*
X012709Y010079D01*
X012669Y010000D01*
X012626Y009924D01*
X012579Y009850D01*
X012529Y009778D01*
X012475Y009708D01*
X012419Y009641D01*
X012360Y009576D01*
X012298Y009514D01*
X012233Y009455D01*
X012166Y009399D01*
X012096Y009345D01*
X012024Y009295D01*
X011950Y009248D01*
X011874Y009205D01*
X011795Y009165D01*
X011716Y009129D01*
X011634Y009096D01*
X011552Y009066D01*
X011468Y009041D01*
X011383Y009019D01*
X011297Y009001D01*
X011210Y008987D01*
X011123Y008977D01*
X011035Y008970D01*
X010948Y008968D01*
X010860Y008970D01*
X010772Y008975D01*
X010685Y008984D01*
X010598Y008997D01*
X010512Y009014D01*
X010427Y009035D01*
X010273Y008464D02*
X010178Y008492D01*
X010084Y008523D01*
X009991Y008558D01*
X009899Y008596D01*
X009809Y008638D01*
X009721Y008684D01*
X009635Y008732D01*
X009550Y008785D01*
X009468Y008840D01*
X009388Y008898D01*
X009310Y008960D01*
X009235Y009024D01*
X009162Y009092D01*
X009092Y009162D01*
X009024Y009235D01*
X008960Y009310D01*
X008898Y009388D01*
X008840Y009468D01*
X008785Y009550D01*
X008732Y009635D01*
X008684Y009721D01*
X008638Y009809D01*
X008596Y009899D01*
X008558Y009991D01*
X008523Y010084D01*
X008492Y010178D01*
X008464Y010273D01*
X009035Y010427D02*
X009014Y010512D01*
X008997Y010598D01*
X008984Y010685D01*
X008975Y010772D01*
X008970Y010860D01*
X008968Y010948D01*
X008970Y011035D01*
X008977Y011123D01*
X008987Y011210D01*
X009001Y011297D01*
X009019Y011383D01*
X009041Y011468D01*
X009066Y011552D01*
X009096Y011634D01*
X009129Y011716D01*
X009165Y011795D01*
X009205Y011874D01*
X009248Y011950D01*
X009295Y012024D01*
X009345Y012096D01*
X009399Y012166D01*
X009455Y012233D01*
X009514Y012298D01*
X009576Y012360D01*
X009641Y012419D01*
X009708Y012475D01*
X009778Y012529D01*
X009850Y012579D01*
X009924Y012626D01*
X010000Y012669D01*
X010079Y012709D01*
X010158Y012745D01*
X010240Y012778D01*
X010322Y012808D01*
X010406Y012833D01*
X010491Y012855D01*
X010577Y012873D01*
X010664Y012887D01*
X010751Y012897D01*
X010839Y012904D01*
X010926Y012906D01*
X011014Y012904D01*
X011102Y012899D01*
X011189Y012890D01*
X011276Y012877D01*
X011362Y012860D01*
X011447Y012839D01*
X017039Y027472D02*
X016914Y027775D01*
X016781Y028074D01*
X016641Y028371D01*
X016495Y028663D01*
X016341Y028953D01*
X016181Y029238D01*
X016014Y029520D01*
X015840Y029798D01*
X015660Y030071D01*
X015473Y030341D01*
X015280Y030605D01*
X015081Y030865D01*
X014875Y031120D01*
X014664Y031371D01*
X014446Y031616D01*
X014223Y031856D01*
X013995Y032090D01*
X013760Y032319D01*
X013521Y032543D01*
X013276Y032760D01*
X013026Y032972D01*
X012771Y033178D01*
X012512Y033378D01*
X017039Y019992D02*
X016914Y019689D01*
X016781Y019390D01*
X016641Y019093D01*
X016495Y018801D01*
X016341Y018511D01*
X016181Y018226D01*
X016014Y017944D01*
X015840Y017666D01*
X015660Y017393D01*
X015473Y017123D01*
X015280Y016859D01*
X015081Y016599D01*
X014875Y016344D01*
X014664Y016093D01*
X014446Y015848D01*
X014223Y015608D01*
X013995Y015374D01*
X013760Y015145D01*
X013521Y014921D01*
X013276Y014704D01*
X013026Y014492D01*
X012771Y014286D01*
X012512Y014086D01*
X009756Y013850D02*
X009995Y013949D01*
X010231Y014053D01*
X010465Y014164D01*
X010696Y014280D01*
X010924Y014401D01*
X011150Y014528D01*
X011372Y014661D01*
X011590Y014799D01*
X011806Y014942D01*
X012017Y015090D01*
X012226Y015244D01*
X012430Y015402D01*
X012630Y015565D01*
X012827Y015734D01*
X013019Y015907D01*
X013207Y016084D01*
X013391Y016266D01*
X013570Y016453D01*
X013744Y016643D01*
X013914Y016838D01*
X014079Y017037D01*
X014240Y017240D01*
X014395Y017447D01*
X014545Y017658D01*
X014690Y017872D01*
X014830Y018089D01*
X014964Y018310D01*
X015093Y018534D01*
X015217Y018761D01*
X015335Y018991D01*
X015447Y019224D01*
X015554Y019460D01*
X015655Y019698D01*
X015750Y019938D01*
X015839Y020181D01*
X015922Y020426D01*
X016000Y020673D01*
X016071Y020921D01*
X016136Y021171D01*
X016196Y021423D01*
X016249Y021676D01*
X016295Y021931D01*
X016336Y022186D01*
X016371Y022442D01*
X016399Y022699D01*
X016421Y022957D01*
X016436Y023215D01*
X016446Y023473D01*
X016449Y023732D01*
X016446Y023991D01*
X016436Y024249D01*
X016421Y024507D01*
X016399Y024765D01*
X016371Y025022D01*
X016336Y025278D01*
X016295Y025533D01*
X016249Y025788D01*
X016196Y026041D01*
X016136Y026293D01*
X016071Y026543D01*
X016000Y026791D01*
X015922Y027038D01*
X015839Y027283D01*
X015750Y027526D01*
X015655Y027766D01*
X015554Y028004D01*
X015447Y028240D01*
X015335Y028473D01*
X015217Y028703D01*
X015093Y028930D01*
X014964Y029154D01*
X014830Y029375D01*
X014690Y029592D01*
X014545Y029806D01*
X014395Y030017D01*
X014240Y030224D01*
X014079Y030427D01*
X013914Y030626D01*
X013744Y030821D01*
X013570Y031011D01*
X013391Y031198D01*
X013207Y031380D01*
X013019Y031557D01*
X012827Y031730D01*
X012630Y031899D01*
X012430Y032062D01*
X012226Y032220D01*
X012017Y032374D01*
X011806Y032522D01*
X011590Y032665D01*
X011372Y032803D01*
X011150Y032936D01*
X010924Y033063D01*
X010696Y033184D01*
X010465Y033300D01*
X010231Y033411D01*
X009995Y033515D01*
X009756Y033614D01*
X013850Y037708D02*
X013949Y037469D01*
X014053Y037233D01*
X014164Y036999D01*
X014280Y036768D01*
X014401Y036540D01*
X014528Y036314D01*
X014661Y036092D01*
X014799Y035874D01*
X014942Y035658D01*
X015090Y035447D01*
X015244Y035238D01*
X015402Y035034D01*
X015565Y034834D01*
X015734Y034637D01*
X015907Y034445D01*
X016084Y034257D01*
X016266Y034073D01*
X016453Y033894D01*
X016643Y033720D01*
X016838Y033550D01*
X017037Y033385D01*
X017240Y033224D01*
X017447Y033069D01*
X017658Y032919D01*
X017872Y032774D01*
X018089Y032634D01*
X018310Y032500D01*
X018534Y032371D01*
X018761Y032247D01*
X018991Y032129D01*
X019224Y032017D01*
X019460Y031910D01*
X019698Y031809D01*
X019938Y031714D01*
X020181Y031625D01*
X020426Y031542D01*
X020673Y031464D01*
X020921Y031393D01*
X021171Y031328D01*
X021423Y031268D01*
X021676Y031215D01*
X021931Y031169D01*
X022186Y031128D01*
X022442Y031093D01*
X022699Y031065D01*
X022957Y031043D01*
X023215Y031028D01*
X023473Y031018D01*
X023732Y031015D01*
X023991Y031018D01*
X024249Y031028D01*
X024507Y031043D01*
X024765Y031065D01*
X025022Y031093D01*
X025278Y031128D01*
X025533Y031169D01*
X025788Y031215D01*
X026041Y031268D01*
X026293Y031328D01*
X026543Y031393D01*
X026791Y031464D01*
X027038Y031542D01*
X027283Y031625D01*
X027526Y031714D01*
X027766Y031809D01*
X028004Y031910D01*
X028240Y032017D01*
X028473Y032129D01*
X028703Y032247D01*
X028930Y032371D01*
X029154Y032500D01*
X029375Y032634D01*
X029592Y032774D01*
X029806Y032919D01*
X030017Y033069D01*
X030224Y033224D01*
X030427Y033385D01*
X030626Y033550D01*
X030821Y033720D01*
X031011Y033894D01*
X031198Y034073D01*
X031380Y034257D01*
X031557Y034445D01*
X031730Y034637D01*
X031899Y034834D01*
X032062Y035034D01*
X032220Y035238D01*
X032374Y035447D01*
X032522Y035658D01*
X032665Y035874D01*
X032803Y036092D01*
X032936Y036314D01*
X033063Y036540D01*
X033184Y036768D01*
X033300Y036999D01*
X033411Y037233D01*
X033515Y037469D01*
X033614Y037708D01*
X019992Y030425D02*
X019689Y030550D01*
X019390Y030683D01*
X019093Y030823D01*
X018801Y030969D01*
X018511Y031123D01*
X018226Y031283D01*
X017944Y031450D01*
X017666Y031624D01*
X017393Y031804D01*
X017123Y031991D01*
X016859Y032184D01*
X016599Y032383D01*
X016344Y032589D01*
X016093Y032800D01*
X015848Y033018D01*
X015608Y033241D01*
X015374Y033469D01*
X015145Y033704D01*
X014921Y033943D01*
X014704Y034188D01*
X014492Y034438D01*
X014286Y034693D01*
X014086Y034952D01*
X013850Y009756D02*
X013949Y009995D01*
X014053Y010231D01*
X014164Y010465D01*
X014280Y010696D01*
X014401Y010924D01*
X014528Y011150D01*
X014661Y011372D01*
X014799Y011590D01*
X014942Y011806D01*
X015090Y012017D01*
X015244Y012226D01*
X015402Y012430D01*
X015565Y012630D01*
X015734Y012827D01*
X015907Y013019D01*
X016084Y013207D01*
X016266Y013391D01*
X016453Y013570D01*
X016643Y013744D01*
X016838Y013914D01*
X017037Y014079D01*
X017240Y014240D01*
X017447Y014395D01*
X017658Y014545D01*
X017872Y014690D01*
X018089Y014830D01*
X018310Y014964D01*
X018534Y015093D01*
X018761Y015217D01*
X018991Y015335D01*
X019224Y015447D01*
X019460Y015554D01*
X019698Y015655D01*
X019938Y015750D01*
X020181Y015839D01*
X020426Y015922D01*
X020673Y016000D01*
X020921Y016071D01*
X021171Y016136D01*
X021423Y016196D01*
X021676Y016249D01*
X021931Y016295D01*
X022186Y016336D01*
X022442Y016371D01*
X022699Y016399D01*
X022957Y016421D01*
X023215Y016436D01*
X023473Y016446D01*
X023732Y016449D01*
X023991Y016446D01*
X024249Y016436D01*
X024507Y016421D01*
X024765Y016399D01*
X025022Y016371D01*
X025278Y016336D01*
X025533Y016295D01*
X025788Y016249D01*
X026041Y016196D01*
X026293Y016136D01*
X026543Y016071D01*
X026791Y016000D01*
X027038Y015922D01*
X027283Y015839D01*
X027526Y015750D01*
X027766Y015655D01*
X028004Y015554D01*
X028240Y015447D01*
X028473Y015335D01*
X028703Y015217D01*
X028930Y015093D01*
X029154Y014964D01*
X029375Y014830D01*
X029592Y014690D01*
X029806Y014545D01*
X030017Y014395D01*
X030224Y014240D01*
X030427Y014079D01*
X030626Y013914D01*
X030821Y013744D01*
X031011Y013570D01*
X031198Y013391D01*
X031380Y013207D01*
X031557Y013019D01*
X031730Y012827D01*
X031899Y012630D01*
X032062Y012430D01*
X032220Y012226D01*
X032374Y012017D01*
X032522Y011806D01*
X032665Y011590D01*
X032803Y011372D01*
X032936Y011150D01*
X033063Y010924D01*
X033184Y010696D01*
X033300Y010465D01*
X033411Y010231D01*
X033515Y009995D01*
X033614Y009756D01*
X033378Y012512D02*
X033178Y012771D01*
X032972Y013026D01*
X032760Y013276D01*
X032543Y013521D01*
X032319Y013760D01*
X032090Y013995D01*
X031856Y014223D01*
X031616Y014446D01*
X031371Y014664D01*
X031120Y014875D01*
X030865Y015081D01*
X030605Y015280D01*
X030341Y015473D01*
X030071Y015660D01*
X029798Y015840D01*
X029520Y016014D01*
X029238Y016181D01*
X028953Y016341D01*
X028663Y016495D01*
X028371Y016641D01*
X028074Y016781D01*
X027775Y016914D01*
X027472Y017039D01*
D11*
X030072Y023132D02*
X030074Y023157D01*
X030080Y023181D01*
X030089Y023205D01*
X030103Y023226D01*
X030119Y023245D01*
X030138Y023261D01*
X030159Y023275D01*
X030183Y023284D01*
X030207Y023290D01*
X030232Y023292D01*
X030257Y023290D01*
X030281Y023284D01*
X030305Y023275D01*
X030326Y023261D01*
X030345Y023245D01*
X030361Y023226D01*
X030375Y023205D01*
X030384Y023181D01*
X030390Y023157D01*
X030392Y023132D01*
X030390Y023107D01*
X030384Y023083D01*
X030375Y023059D01*
X030361Y023038D01*
X030345Y023019D01*
X030326Y023003D01*
X030305Y022989D01*
X030281Y022980D01*
X030257Y022974D01*
X030232Y022972D01*
X030207Y022974D01*
X030183Y022980D01*
X030159Y022989D01*
X030138Y023003D01*
X030119Y023019D01*
X030103Y023038D01*
X030089Y023059D01*
X030080Y023083D01*
X030074Y023107D01*
X030072Y023132D01*
X030072Y024332D02*
X030074Y024357D01*
X030080Y024381D01*
X030089Y024405D01*
X030103Y024426D01*
X030119Y024445D01*
X030138Y024461D01*
X030159Y024475D01*
X030183Y024484D01*
X030207Y024490D01*
X030232Y024492D01*
X030257Y024490D01*
X030281Y024484D01*
X030305Y024475D01*
X030326Y024461D01*
X030345Y024445D01*
X030361Y024426D01*
X030375Y024405D01*
X030384Y024381D01*
X030390Y024357D01*
X030392Y024332D01*
X030390Y024307D01*
X030384Y024283D01*
X030375Y024259D01*
X030361Y024238D01*
X030345Y024219D01*
X030326Y024203D01*
X030305Y024189D01*
X030281Y024180D01*
X030257Y024174D01*
X030232Y024172D01*
X030207Y024174D01*
X030183Y024180D01*
X030159Y024189D01*
X030138Y024203D01*
X030119Y024219D01*
X030103Y024238D01*
X030089Y024259D01*
X030080Y024283D01*
X030074Y024307D01*
X030072Y024332D01*
X027630Y023732D02*
X027632Y023773D01*
X027638Y023814D01*
X027648Y023854D01*
X027661Y023893D01*
X027678Y023930D01*
X027699Y023966D01*
X027723Y024000D01*
X027750Y024031D01*
X027779Y024059D01*
X027812Y024085D01*
X027846Y024107D01*
X027883Y024126D01*
X027921Y024141D01*
X027961Y024153D01*
X028001Y024161D01*
X028042Y024165D01*
X028084Y024165D01*
X028125Y024161D01*
X028165Y024153D01*
X028205Y024141D01*
X028243Y024126D01*
X028279Y024107D01*
X028314Y024085D01*
X028347Y024059D01*
X028376Y024031D01*
X028403Y024000D01*
X028427Y023966D01*
X028448Y023930D01*
X028465Y023893D01*
X028478Y023854D01*
X028488Y023814D01*
X028494Y023773D01*
X028496Y023732D01*
X028494Y023691D01*
X028488Y023650D01*
X028478Y023610D01*
X028465Y023571D01*
X028448Y023534D01*
X028427Y023498D01*
X028403Y023464D01*
X028376Y023433D01*
X028347Y023405D01*
X028314Y023379D01*
X028280Y023357D01*
X028243Y023338D01*
X028205Y023323D01*
X028165Y023311D01*
X028125Y023303D01*
X028084Y023299D01*
X028042Y023299D01*
X028001Y023303D01*
X027961Y023311D01*
X027921Y023323D01*
X027883Y023338D01*
X027847Y023357D01*
X027812Y023379D01*
X027779Y023405D01*
X027750Y023433D01*
X027723Y023464D01*
X027699Y023498D01*
X027678Y023534D01*
X027661Y023571D01*
X027648Y023610D01*
X027638Y023650D01*
X027632Y023691D01*
X027630Y023732D01*
X018968Y023732D02*
X018970Y023773D01*
X018976Y023814D01*
X018986Y023854D01*
X018999Y023893D01*
X019016Y023930D01*
X019037Y023966D01*
X019061Y024000D01*
X019088Y024031D01*
X019117Y024059D01*
X019150Y024085D01*
X019184Y024107D01*
X019221Y024126D01*
X019259Y024141D01*
X019299Y024153D01*
X019339Y024161D01*
X019380Y024165D01*
X019422Y024165D01*
X019463Y024161D01*
X019503Y024153D01*
X019543Y024141D01*
X019581Y024126D01*
X019617Y024107D01*
X019652Y024085D01*
X019685Y024059D01*
X019714Y024031D01*
X019741Y024000D01*
X019765Y023966D01*
X019786Y023930D01*
X019803Y023893D01*
X019816Y023854D01*
X019826Y023814D01*
X019832Y023773D01*
X019834Y023732D01*
X019832Y023691D01*
X019826Y023650D01*
X019816Y023610D01*
X019803Y023571D01*
X019786Y023534D01*
X019765Y023498D01*
X019741Y023464D01*
X019714Y023433D01*
X019685Y023405D01*
X019652Y023379D01*
X019618Y023357D01*
X019581Y023338D01*
X019543Y023323D01*
X019503Y023311D01*
X019463Y023303D01*
X019422Y023299D01*
X019380Y023299D01*
X019339Y023303D01*
X019299Y023311D01*
X019259Y023323D01*
X019221Y023338D01*
X019185Y023357D01*
X019150Y023379D01*
X019117Y023405D01*
X019088Y023433D01*
X019061Y023464D01*
X019037Y023498D01*
X019016Y023534D01*
X018999Y023571D01*
X018986Y023610D01*
X018976Y023650D01*
X018970Y023691D01*
X018968Y023732D01*
D12*
X023732Y027482D03*
D13*
X023732Y026143D03*
X023929Y026143D03*
X024126Y026143D03*
X024322Y026143D03*
X024519Y026143D03*
X024716Y026143D03*
X023535Y026143D03*
X023338Y026143D03*
X023141Y026143D03*
X022944Y026143D03*
X022748Y026143D03*
X022748Y028820D03*
X022944Y028820D03*
X023141Y028820D03*
X023338Y028820D03*
X023535Y028820D03*
X023732Y028820D03*
X023929Y028820D03*
X024126Y028820D03*
X024322Y028820D03*
X024519Y028820D03*
X024716Y028820D03*
D14*
X025070Y028466D03*
X025070Y028269D03*
X025070Y028072D03*
X025070Y027876D03*
X025070Y027679D03*
X025070Y027482D03*
X025070Y027285D03*
X025070Y027088D03*
X025070Y026891D03*
X025070Y026694D03*
X025070Y026498D03*
X022393Y026498D03*
X022393Y026694D03*
X022393Y026891D03*
X022393Y027088D03*
X022393Y027285D03*
X022393Y027482D03*
X022393Y027679D03*
X022393Y027876D03*
X022393Y028072D03*
X022393Y028269D03*
X022393Y028466D03*
D15*
X026482Y027704D03*
X026482Y027232D03*
X026482Y026759D03*
D16*
X027482Y026738D03*
X027482Y026226D03*
X027482Y025488D03*
X027482Y024976D03*
X029682Y026226D03*
X029682Y026738D03*
X025482Y021988D03*
X025482Y021476D03*
X024232Y021476D03*
X024232Y021988D03*
X023482Y021988D03*
X023482Y021476D03*
X022732Y021476D03*
X022732Y021988D03*
X023482Y019988D03*
X023482Y019476D03*
X024232Y019476D03*
X024232Y019988D03*
X025982Y019988D03*
X025982Y019476D03*
X026732Y019476D03*
X026732Y019988D03*
X021982Y019988D03*
X021982Y019476D03*
X021232Y019476D03*
X020732Y019476D03*
X020232Y019476D03*
X020232Y019988D03*
X020732Y019988D03*
X021232Y019988D03*
X019982Y020476D03*
X019982Y020988D03*
X019482Y019988D03*
X019482Y019476D03*
D17*
X020726Y023482D03*
X020726Y023982D03*
X020726Y024482D03*
X020726Y024982D03*
X020726Y025482D03*
X021238Y025482D03*
X021238Y024982D03*
X021238Y024482D03*
X021238Y023982D03*
X021238Y023482D03*
X021238Y027482D03*
X021238Y027982D03*
X020726Y027982D03*
X020726Y027482D03*
X020726Y028482D03*
X020726Y028982D03*
X020726Y029482D03*
X020726Y029982D03*
X020726Y030482D03*
X021238Y030482D03*
X021238Y029982D03*
X021238Y029482D03*
X021238Y028982D03*
X021238Y028482D03*
X026226Y028482D03*
X026226Y028982D03*
X026226Y029482D03*
X026226Y029982D03*
X026738Y029982D03*
X026738Y029482D03*
X026738Y028982D03*
X026738Y028482D03*
X026738Y025982D03*
X026738Y025482D03*
X026738Y024982D03*
X026226Y024982D03*
X026226Y025482D03*
X026226Y025982D03*
D18*
X026154Y026759D02*
X025982Y026932D01*
X025982Y027132D01*
X025829Y027285D01*
X025070Y027285D01*
X025070Y027482D02*
X025932Y027482D01*
X026154Y027704D01*
X026482Y027704D01*
X026482Y026759D02*
X026154Y026759D01*
X024238Y024701D02*
X024238Y024401D01*
X024039Y024401D02*
X024039Y024701D01*
X023841Y024701D02*
X023841Y024401D01*
X023631Y024401D02*
X023631Y024701D01*
X023432Y024701D02*
X023432Y024401D01*
X023233Y024401D02*
X023233Y024701D01*
X023068Y024227D02*
X022768Y024227D01*
X022768Y024027D02*
X023068Y024027D01*
X023068Y023829D02*
X022768Y023829D01*
X022768Y023619D02*
X023068Y023619D01*
X023068Y023420D02*
X022768Y023420D01*
X022768Y023221D02*
X023068Y023221D01*
X023233Y023047D02*
X023233Y022747D01*
X023432Y022747D02*
X023432Y023047D01*
X023432Y022897D02*
X023432Y022532D01*
X023082Y022532D01*
X022782Y022832D01*
X023631Y022747D02*
X023631Y023047D01*
X023841Y023047D02*
X023841Y022747D01*
X024039Y022747D02*
X024039Y023047D01*
X024238Y023047D02*
X024238Y022747D01*
X024403Y023221D02*
X024703Y023221D01*
X024703Y023420D02*
X024403Y023420D01*
X024403Y023619D02*
X024703Y023619D01*
X024703Y023829D02*
X024403Y023829D01*
X024403Y024027D02*
X024703Y024027D01*
X024703Y024227D02*
X024403Y024227D01*
X020726Y028982D02*
X020282Y028982D01*
X016582Y027182D02*
X016582Y021032D01*
X017232Y020382D01*
X018232Y020382D01*
X019138Y019476D01*
X019482Y019476D01*
X019482Y019132D01*
X020282Y018332D01*
X020282Y016632D01*
X027132Y016632D01*
X027132Y017582D01*
X027282Y017732D01*
X027282Y018632D01*
X029082Y020432D01*
X030632Y020432D01*
X030932Y020732D01*
X030932Y021482D01*
X030282Y022132D01*
X030282Y022482D01*
X030532Y022732D01*
X030882Y026632D02*
X030882Y027182D01*
X035382Y033082D02*
X035382Y033342D01*
X034571Y034153D01*
X034153Y034571D02*
X033192Y035532D01*
X033182Y035532D01*
X035382Y033082D02*
X035122Y032884D01*
X034867Y032679D01*
X034618Y032468D01*
X034373Y032252D01*
X034134Y032029D01*
X033900Y031801D01*
X033672Y031567D01*
X033449Y031327D01*
X033232Y031083D01*
X033022Y030833D01*
X032817Y030578D01*
X032619Y030318D01*
X032427Y030053D01*
X032242Y029784D01*
X032063Y029510D01*
X031891Y029232D01*
X031726Y028950D01*
X031567Y028664D01*
X031416Y028375D01*
X031272Y028082D01*
X031134Y027785D01*
X031005Y027485D01*
X030882Y027182D01*
X035532Y014282D02*
X035532Y014272D01*
X034571Y013311D01*
X034153Y012893D02*
X033292Y012032D01*
X033032Y012032D01*
X020282Y016632D02*
X019958Y016495D01*
X019637Y016351D01*
X019320Y016200D01*
X019007Y016041D01*
X018697Y015875D01*
X018391Y015701D01*
X018090Y015521D01*
X017792Y015333D01*
X017500Y015138D01*
X017211Y014937D01*
X016928Y014729D01*
X016650Y014514D01*
X016377Y014293D01*
X016109Y014065D01*
X015846Y013832D01*
X015589Y013592D01*
X015338Y013346D01*
X015093Y013094D01*
X014853Y012837D01*
X014620Y012574D01*
X014393Y012305D01*
X014172Y012032D01*
X013214Y012990D01*
X012796Y013408D02*
X011932Y014272D01*
X011932Y014282D01*
X016582Y027181D02*
X016440Y027520D01*
X016290Y027855D01*
X016133Y028186D01*
X015968Y028514D01*
X015795Y028838D01*
X015615Y029157D01*
X015427Y029473D01*
X015232Y029783D01*
X015029Y030089D01*
X014820Y030391D01*
X014603Y030687D01*
X014380Y030978D01*
X014150Y031264D01*
X013913Y031544D01*
X013670Y031819D01*
X013420Y032088D01*
X013165Y032351D01*
X012903Y032608D01*
X012635Y032859D01*
X012361Y033103D01*
X012082Y033341D01*
X012082Y033342D02*
X012893Y034153D01*
X013311Y034571D02*
X014272Y035532D01*
X014282Y035532D01*
X027131Y016632D02*
X027425Y016514D01*
X027715Y016388D01*
X028002Y016256D01*
X028286Y016117D01*
X028566Y015971D01*
X028843Y015818D01*
X029116Y015658D01*
X029385Y015492D01*
X029650Y015320D01*
X029911Y015141D01*
X030167Y014956D01*
X030419Y014764D01*
X030665Y014567D01*
X030908Y014364D01*
X031145Y014154D01*
X031377Y013940D01*
X031603Y013719D01*
X031825Y013493D01*
X032040Y013262D01*
X032250Y013026D01*
X032455Y012785D01*
X032653Y012538D01*
X032845Y012287D01*
X033031Y012032D01*
D19*
X023740Y023728D03*
D20*
X024027Y017232D03*
X023437Y017232D03*
X030187Y025982D03*
X030777Y025982D03*
X024482Y030187D03*
X024482Y030777D03*
X022982Y030777D03*
X022982Y030187D03*
X022232Y030187D03*
X022232Y030777D03*
D21*
X019882Y028102D03*
X019082Y027722D03*
X019882Y027342D03*
X019382Y021352D03*
X019382Y020592D03*
X018582Y020972D03*
X027332Y027362D03*
X027332Y028122D03*
X028132Y027742D03*
X028332Y026872D03*
X028332Y026112D03*
X029132Y026492D03*
D22*
X026872Y018882D03*
X026112Y018882D03*
X026492Y018082D03*
X021372Y018882D03*
X020992Y018082D03*
X020612Y018882D03*
D23*
X028982Y021232D03*
X030232Y021232D03*
D24*
X027032Y023332D03*
X026232Y023332D03*
X026232Y024132D03*
X025432Y024132D03*
X025432Y023332D03*
X024762Y018292D03*
X017826Y022551D03*
X017039Y022551D03*
X017039Y023338D03*
X017039Y024126D03*
X017039Y024913D03*
X017826Y024913D03*
X017826Y024126D03*
X017826Y023338D03*
X017033Y021763D03*
D25*
X022702Y018292D03*
X022802Y018292D03*
X024662Y018292D03*
D26*
X025112Y017332D03*
X025112Y017132D03*
X022352Y017132D03*
X022352Y017332D03*
D27*
G36*
X012992Y012990D02*
X013214Y013212D01*
X013436Y012990D01*
X013214Y012768D01*
X012992Y012990D01*
G37*
G36*
X012574Y013408D02*
X012796Y013630D01*
X013018Y013408D01*
X012796Y013186D01*
X012574Y013408D01*
G37*
G36*
X012893Y034375D02*
X013115Y034153D01*
X012893Y033931D01*
X012671Y034153D01*
X012893Y034375D01*
G37*
G36*
X013311Y034793D02*
X013533Y034571D01*
X013311Y034349D01*
X013089Y034571D01*
X013311Y034793D01*
G37*
G36*
X033931Y034571D02*
X034153Y034793D01*
X034375Y034571D01*
X034153Y034349D01*
X033931Y034571D01*
G37*
G36*
X034349Y034153D02*
X034571Y034375D01*
X034793Y034153D01*
X034571Y033931D01*
X034349Y034153D01*
G37*
G36*
X034571Y013533D02*
X034793Y013311D01*
X034571Y013089D01*
X034349Y013311D01*
X034571Y013533D01*
G37*
G36*
X034153Y013115D02*
X034375Y012893D01*
X034153Y012671D01*
X033931Y012893D01*
X034153Y013115D01*
G37*
D28*
X027244Y021358D03*
X027244Y021732D03*
X027244Y022106D03*
X026220Y022106D03*
X026220Y021358D03*
D29*
X021336Y022482D03*
X020628Y022482D03*
D30*
X022982Y020126D03*
X022982Y019338D03*
X024732Y019338D03*
X024732Y020126D03*
D31*
X029632Y022832D03*
X029632Y024032D03*
X029632Y024632D03*
D32*
X029782Y025182D03*
X030682Y025182D03*
X030682Y022282D03*
X029782Y022282D03*
D33*
X027032Y024132D03*
D34*
X017826Y025700D03*
X017039Y025700D03*
X017833Y021763D03*
D35*
X020382Y023232D02*
X020382Y023982D01*
X020726Y023982D01*
X020382Y023982D02*
X020382Y024982D01*
X020382Y025417D01*
X020382Y024982D02*
X020726Y024982D01*
X022432Y022882D02*
X022032Y022482D01*
X021982Y022432D01*
X021982Y019988D01*
X022276Y019988D01*
X022532Y019732D01*
X022532Y019182D01*
X025232Y018982D02*
X025232Y020532D01*
X025582Y020882D01*
X026482Y020882D01*
X026732Y021132D01*
X026732Y021732D01*
X026358Y022106D01*
X026220Y022106D01*
X026220Y022320D01*
X026682Y022782D01*
X028132Y022782D01*
X028632Y023282D01*
X028632Y024182D01*
X028432Y024382D01*
X028432Y025382D01*
X029132Y026082D01*
X029132Y026492D01*
X026738Y026088D02*
X026738Y025982D01*
X029632Y022832D02*
X029632Y022732D01*
X029006Y022106D01*
X027244Y022106D01*
X026882Y022482D02*
X026782Y022382D01*
X026882Y022482D02*
X028532Y022482D01*
X022032Y022482D02*
X021336Y022482D01*
D36*
X021632Y022032D03*
X020982Y022032D03*
X021132Y021182D03*
X021032Y020332D03*
X020732Y020332D03*
X021582Y020332D03*
X022332Y020482D03*
X023032Y021182D03*
X023132Y021982D03*
X023032Y022282D03*
X022732Y022432D03*
X022182Y023532D03*
X022082Y024032D03*
X022082Y024532D03*
X022132Y025032D03*
X022132Y025332D03*
X022332Y025582D03*
X022682Y025282D03*
X023082Y025532D03*
X023382Y025532D03*
X023732Y025782D03*
X024132Y025582D03*
X024482Y025332D03*
X024682Y025132D03*
X024882Y024932D03*
X025082Y024682D03*
X025782Y025532D03*
X025782Y025832D03*
X025082Y026182D03*
X025932Y027832D03*
X025732Y028032D03*
X025582Y028282D03*
X025882Y028732D03*
X025382Y028882D03*
X024832Y028882D03*
X025332Y029432D03*
X025332Y030182D03*
X025682Y030282D03*
X026732Y030532D03*
X027032Y028432D03*
X027082Y027732D03*
X027832Y026532D03*
X027982Y025532D03*
X028132Y024582D03*
X027832Y024582D03*
X028032Y023032D03*
X028532Y021782D03*
X027682Y019932D03*
X027182Y019932D03*
X026382Y019982D03*
X025782Y020332D03*
X024182Y021182D03*
X024032Y022282D03*
X024332Y022382D03*
X025032Y022732D03*
X025132Y022482D03*
X025482Y022432D03*
X025782Y022432D03*
X023482Y024882D03*
X023001Y024551D03*
X021582Y025232D03*
X021832Y025682D03*
X021832Y026182D03*
X022032Y026382D03*
X022382Y026282D03*
X021682Y027732D03*
X021532Y028082D03*
X021732Y028582D03*
X022382Y028782D03*
X023282Y029232D03*
X023132Y029482D03*
X023432Y029582D03*
X023782Y029882D03*
X023932Y030132D03*
X023932Y029632D03*
X024632Y029732D03*
X021832Y030232D03*
X021682Y029982D03*
X021682Y029682D03*
X021582Y030482D03*
X020382Y029982D03*
X019982Y029582D03*
X020282Y028982D03*
X019782Y028482D03*
X019482Y028132D03*
X019382Y027282D03*
X020332Y026182D03*
X019932Y025982D03*
X019432Y025732D03*
X019432Y025382D03*
X018932Y024932D03*
X018632Y024432D03*
X018382Y023732D03*
X019432Y024382D03*
X019732Y024432D03*
X020032Y024432D03*
X020832Y025432D03*
X020882Y027882D03*
X018182Y026382D03*
X018232Y026082D03*
X018282Y025282D03*
X017482Y026782D03*
X016332Y026332D03*
X019382Y022632D03*
X019882Y022032D03*
X019382Y021782D03*
X019032Y020982D03*
X020132Y021382D03*
X020382Y022882D03*
X022532Y019182D03*
X023482Y018932D03*
X023832Y018932D03*
X020632Y018482D03*
X020182Y018932D03*
X016382Y020782D03*
X011932Y014282D03*
X029732Y025682D03*
X030182Y026482D03*
X030882Y026632D03*
X030532Y022732D03*
X035532Y014282D03*
X033182Y035532D03*
X014282Y035532D03*
D37*
X020382Y029982D02*
X020726Y029982D01*
X020726Y030482D02*
X020726Y030882D01*
X022127Y030882D01*
X022232Y030777D01*
X022432Y030482D02*
X021582Y030482D01*
X021238Y030482D02*
X021238Y030232D01*
X021832Y030232D01*
X021832Y029982D02*
X021932Y029882D01*
X021932Y029482D01*
X022032Y029382D01*
X022882Y029382D01*
X023141Y029122D01*
X023141Y028820D01*
X022944Y028820D02*
X022944Y029069D01*
X022832Y029182D01*
X021782Y029182D01*
X021682Y029282D01*
X021682Y029682D01*
X021682Y029982D02*
X021832Y029982D01*
X022232Y030187D02*
X022232Y029732D01*
X022382Y029582D01*
X023032Y029582D01*
X023132Y029482D01*
X023282Y029232D02*
X023338Y029176D01*
X023338Y028820D01*
X023535Y028820D02*
X023535Y029479D01*
X023432Y029582D01*
X023732Y029632D02*
X023177Y030187D01*
X022982Y030187D01*
X022982Y030777D02*
X022977Y030782D01*
X022732Y030782D01*
X022432Y030482D01*
X021432Y029482D02*
X021238Y029482D01*
X021332Y029482D01*
X021432Y029482D02*
X021532Y029382D01*
X021532Y029132D01*
X021682Y028982D01*
X022586Y028982D01*
X022748Y028820D01*
X022393Y028770D02*
X022382Y028782D01*
X022393Y028770D02*
X022393Y028466D01*
X022393Y028072D02*
X021991Y028072D01*
X021732Y028332D01*
X021532Y028332D01*
X021382Y028482D01*
X021238Y028482D01*
X021238Y028982D01*
X021532Y028082D02*
X021532Y028032D01*
X021482Y027982D01*
X021238Y027982D01*
X021238Y027482D01*
X021332Y027032D02*
X018139Y027032D01*
X017039Y025932D01*
X017039Y025700D01*
X017432Y026032D02*
X017432Y025306D01*
X017039Y024913D01*
X017432Y024382D02*
X017582Y024532D01*
X018082Y024532D01*
X018482Y024932D01*
X018482Y026232D01*
X018832Y026582D01*
X021482Y026582D01*
X022185Y027285D01*
X022393Y027285D01*
X022393Y027088D02*
X022188Y027088D01*
X021532Y026432D01*
X018982Y026432D01*
X018682Y026132D01*
X018682Y024832D01*
X018382Y024532D01*
X018382Y023732D01*
X018732Y024032D02*
X019432Y024732D01*
X019432Y025382D01*
X019432Y025732D02*
X019982Y025732D01*
X020232Y025982D01*
X020432Y025982D01*
X020682Y026232D01*
X021332Y026232D01*
X021432Y026132D01*
X021432Y025882D01*
X021632Y025682D01*
X021832Y025682D01*
X021932Y025482D02*
X021238Y025482D01*
X021782Y025932D02*
X022132Y025932D01*
X022132Y025682D01*
X021932Y025482D01*
X022088Y025332D02*
X022132Y025332D01*
X022088Y025332D02*
X021238Y024482D01*
X021238Y023982D02*
X021532Y023982D01*
X022082Y024532D01*
X022082Y024032D02*
X021532Y023482D01*
X021238Y023482D01*
X021238Y023388D01*
X020982Y023132D01*
X020632Y023132D01*
X020382Y022882D01*
X020132Y022382D02*
X020582Y021932D01*
X020682Y021932D01*
X021582Y021032D01*
X021582Y020332D01*
X021232Y019988D02*
X020732Y019988D01*
X020732Y020332D01*
X020382Y020582D02*
X020276Y020476D01*
X019982Y020476D01*
X020232Y020226D01*
X020232Y019988D01*
X019882Y020092D02*
X019882Y019632D01*
X020038Y019476D01*
X020232Y019476D01*
X019882Y020092D02*
X019382Y020592D01*
X020382Y020582D02*
X020382Y021882D01*
X019982Y022282D01*
X019982Y024132D01*
X019732Y024382D01*
X019732Y024432D01*
X020032Y024432D02*
X020132Y024332D01*
X020132Y022382D01*
X020132Y021382D02*
X018682Y022832D01*
X018732Y024032D01*
X018832Y024432D02*
X018632Y024432D01*
X018832Y024432D02*
X019182Y024782D01*
X019182Y025932D01*
X019232Y025982D01*
X019932Y025982D01*
X020332Y026182D02*
X019032Y026182D01*
X018932Y026082D01*
X018932Y024932D01*
X017432Y024382D02*
X017432Y023731D01*
X017039Y023338D01*
X017432Y026032D02*
X018282Y026882D01*
X021382Y026882D01*
X022179Y027679D01*
X022393Y027679D01*
X022393Y027876D02*
X022176Y027876D01*
X021332Y027032D01*
X021432Y026732D02*
X018532Y026732D01*
X018182Y026382D01*
X019882Y027342D02*
X020242Y027342D01*
X020382Y027482D01*
X020726Y027482D01*
X021432Y026732D02*
X022182Y027482D01*
X022393Y027482D01*
X022393Y026891D02*
X022191Y026891D01*
X021632Y026332D01*
X021632Y026082D01*
X021782Y025932D01*
X021932Y026082D02*
X021832Y026182D01*
X021932Y026082D02*
X022232Y026082D01*
X022282Y026032D01*
X022636Y026032D01*
X022748Y026143D01*
X022748Y026082D01*
X022082Y026332D02*
X022082Y026582D01*
X022194Y026694D01*
X022393Y026694D01*
X023535Y026143D02*
X023535Y025679D01*
X023682Y025532D01*
X023732Y025782D02*
X023732Y026143D01*
X023929Y026143D02*
X023929Y025885D01*
X023982Y025832D01*
X023982Y025732D01*
X024132Y025582D01*
X024032Y025332D02*
X023782Y025082D01*
X023282Y025082D01*
X023232Y025032D01*
X023232Y024553D01*
X023233Y024551D01*
X023001Y024551D01*
X023432Y024551D02*
X023432Y024832D01*
X023482Y024882D01*
X023832Y024882D01*
X024082Y025132D01*
X024682Y025132D01*
X024882Y024932D02*
X024132Y024932D01*
X024039Y024839D01*
X024039Y024551D01*
X023482Y024882D02*
X023469Y024880D01*
X023457Y024875D01*
X023447Y024867D01*
X023439Y024857D01*
X023434Y024845D01*
X023432Y024832D01*
X024032Y025332D02*
X024482Y025332D01*
X024482Y025532D02*
X024732Y025532D01*
X025082Y025182D01*
X025082Y024682D01*
X025432Y024682D02*
X025982Y024132D01*
X026232Y024132D01*
X026432Y024532D02*
X025832Y024532D01*
X025632Y024732D01*
X025632Y025132D01*
X024932Y025832D01*
X024632Y025832D01*
X024519Y025944D01*
X024519Y026143D01*
X024322Y026143D02*
X024322Y025891D01*
X024532Y025682D01*
X024832Y025682D01*
X025432Y025082D01*
X025432Y024682D01*
X025832Y024782D02*
X025832Y025182D01*
X025032Y025982D01*
X024878Y025982D01*
X024716Y026143D01*
X025082Y026182D02*
X025082Y026486D01*
X025070Y026498D01*
X025070Y026694D02*
X025269Y026694D01*
X025382Y026582D01*
X025382Y026032D01*
X025582Y025832D01*
X025782Y025832D01*
X025782Y025532D02*
X026176Y025532D01*
X026226Y025482D01*
X026738Y024982D02*
X026882Y024982D01*
X027282Y024582D01*
X027832Y024582D01*
X027482Y024232D01*
X027482Y023882D01*
X027332Y023732D01*
X026782Y023732D01*
X026632Y023582D01*
X026632Y023082D01*
X026382Y022832D01*
X025232Y022832D01*
X024842Y023221D01*
X024553Y023221D01*
X023841Y022897D02*
X023841Y022391D01*
X023482Y022032D01*
X023482Y021988D01*
X023132Y021982D02*
X023132Y021582D01*
X023026Y021476D01*
X022732Y021476D01*
X022732Y021988D02*
X022732Y022432D01*
X024032Y022282D02*
X024232Y022082D01*
X024232Y021988D01*
X025482Y021476D02*
X025482Y021358D01*
X026220Y021358D01*
X025682Y020632D02*
X025482Y020432D01*
X025482Y019282D01*
X025632Y019132D01*
X025632Y018132D01*
X025332Y017832D01*
X024732Y017832D01*
X024532Y017632D01*
X024532Y017382D01*
X024382Y017232D01*
X024027Y017232D01*
X023437Y017232D02*
X023132Y017232D01*
X022982Y017382D01*
X022982Y017682D01*
X022832Y017832D01*
X022282Y017832D01*
X021982Y018132D01*
X021982Y019476D01*
X021372Y019476D02*
X021372Y018882D01*
X021372Y019476D02*
X021232Y019476D01*
X022982Y019882D02*
X023132Y019732D01*
X023226Y019732D01*
X023482Y019476D01*
X023482Y018932D01*
X023832Y018932D02*
X023832Y019076D01*
X024232Y019476D01*
X024488Y019732D01*
X024532Y019732D01*
X024732Y019932D01*
X024732Y020126D01*
X025682Y020632D02*
X026882Y020632D01*
X027232Y020982D01*
X027232Y021346D01*
X027244Y021358D01*
X026732Y019988D02*
X026726Y019982D01*
X026382Y019982D01*
X025988Y019982D01*
X025982Y019988D01*
X026732Y019476D02*
X026872Y019476D01*
X026872Y018882D01*
X022982Y019882D02*
X022982Y020126D01*
X026232Y023332D02*
X026232Y023532D01*
X026632Y023932D01*
X026632Y024332D01*
X026432Y024532D01*
X026482Y024682D02*
X025932Y024682D01*
X025832Y024782D01*
X026482Y024682D02*
X027032Y024182D01*
X027032Y024132D01*
X027482Y024976D02*
X027738Y024976D01*
X028132Y024582D01*
X027832Y026532D02*
X027832Y026738D01*
X028198Y026738D01*
X028332Y026872D01*
X027832Y026738D02*
X027482Y026738D01*
X026982Y026732D02*
X026982Y026632D01*
X026832Y026482D01*
X026132Y026482D01*
X025732Y026882D01*
X025732Y026982D01*
X025626Y027088D01*
X025070Y027088D01*
X025070Y027679D02*
X025779Y027679D01*
X025932Y027832D01*
X025732Y028032D02*
X025576Y027876D01*
X025070Y027876D01*
X025070Y028072D02*
X025372Y028072D01*
X025582Y028282D01*
X025382Y028332D02*
X025382Y028432D01*
X025482Y028532D01*
X025732Y028532D01*
X025782Y028482D01*
X026226Y028482D01*
X026226Y028982D02*
X026226Y029482D01*
X026176Y029432D01*
X025332Y029432D01*
X025082Y029732D02*
X024627Y030187D01*
X024482Y030187D01*
X024322Y029841D02*
X024032Y030132D01*
X023932Y030132D01*
X023982Y029882D02*
X023782Y029882D01*
X023982Y029882D02*
X024126Y029738D01*
X024126Y028820D01*
X024322Y028820D02*
X024322Y029841D01*
X023932Y029632D02*
X023929Y029629D01*
X023929Y028820D01*
X023732Y028820D02*
X023732Y029632D01*
X024882Y030232D02*
X024882Y030482D01*
X024587Y030777D01*
X024482Y030777D01*
X024882Y030232D02*
X025232Y029882D01*
X025832Y029882D01*
X025932Y029982D01*
X026226Y029982D01*
X026482Y030382D02*
X025782Y030382D01*
X025682Y030282D01*
X026482Y030382D02*
X026738Y030126D01*
X026738Y029982D01*
X026738Y028982D02*
X026932Y028982D01*
X027032Y028882D01*
X027032Y028782D01*
X027332Y028482D01*
X027332Y028122D01*
X027032Y028432D02*
X026788Y028432D01*
X026738Y028482D01*
X025382Y028332D02*
X025319Y028269D01*
X025070Y028269D01*
X025070Y028466D02*
X025082Y028478D01*
X025082Y029732D01*
X024126Y026143D02*
X024126Y025888D01*
X024482Y025532D01*
X020732Y023982D02*
X020382Y023982D01*
X021238Y029982D02*
X021238Y030232D01*
X029682Y026738D02*
X029926Y026738D01*
X030182Y026482D01*
X030187Y025982D02*
X029926Y025982D01*
X029682Y026226D01*
D38*
X029711Y025963D02*
X029761Y025914D01*
X029858Y025817D01*
X029904Y025817D01*
X029904Y025773D01*
X029977Y025699D01*
X030396Y025699D01*
X030469Y025773D01*
X030469Y026191D01*
X030396Y026264D01*
X029984Y026264D01*
X029984Y026376D01*
X030093Y026267D01*
X030271Y026267D01*
X030397Y026393D01*
X030397Y026571D01*
X030271Y026697D01*
X030200Y026697D01*
X030091Y026806D01*
X029994Y026903D01*
X029984Y026903D01*
X029984Y026927D01*
X029911Y027001D01*
X029453Y027001D01*
X029380Y026927D01*
X029380Y026751D01*
X029359Y026772D01*
X028905Y026772D01*
X028832Y026699D01*
X028832Y026285D01*
X028905Y026212D01*
X028927Y026212D01*
X028927Y026167D01*
X028347Y025587D01*
X028227Y025467D01*
X028227Y024791D01*
X028221Y024797D01*
X028150Y024797D01*
X027806Y025141D01*
X027784Y025141D01*
X027784Y025166D01*
X027711Y025239D01*
X027253Y025239D01*
X027180Y025166D01*
X027180Y024917D01*
X027001Y025097D01*
X027001Y025211D01*
X026927Y025284D01*
X026548Y025284D01*
X026489Y025284D01*
X026489Y025253D02*
X026489Y025711D01*
X026468Y025732D01*
X026482Y025746D01*
X026548Y025680D01*
X026927Y025680D01*
X027001Y025753D01*
X027001Y025787D01*
X027151Y025637D01*
X027913Y025637D01*
X028027Y025751D01*
X028108Y025832D01*
X028559Y025832D01*
X028632Y025905D01*
X028632Y026319D01*
X028559Y026392D01*
X028105Y026392D01*
X028032Y026319D01*
X028032Y026307D01*
X028031Y026307D01*
X027751Y026027D01*
X027313Y026027D01*
X027277Y026063D01*
X027217Y026123D01*
X027221Y026124D01*
X027290Y026193D01*
X027327Y026283D01*
X027327Y026381D01*
X027290Y026471D01*
X027285Y026475D01*
X027617Y026475D01*
X027617Y026443D01*
X027743Y026317D01*
X027921Y026317D01*
X028047Y026443D01*
X028047Y026573D01*
X028266Y026573D01*
X028285Y026592D01*
X028559Y026592D01*
X028632Y026665D01*
X028632Y027079D01*
X028559Y027152D01*
X028105Y027152D01*
X028032Y027079D01*
X028032Y026903D01*
X027784Y026903D01*
X027784Y026927D01*
X027711Y027001D01*
X027253Y027001D01*
X027180Y026927D01*
X027180Y026557D01*
X027131Y026577D01*
X027033Y026577D01*
X026943Y026540D01*
X026920Y026517D01*
X026889Y026517D01*
X026942Y026570D01*
X026942Y026949D01*
X026868Y027022D01*
X026157Y027022D01*
X026157Y027204D01*
X026054Y027307D01*
X026029Y027332D01*
X026139Y027442D01*
X026868Y027442D01*
X026942Y027515D01*
X027852Y027515D01*
X027832Y027535D02*
X027905Y027462D01*
X028063Y027462D01*
X028075Y027457D01*
X028479Y027457D01*
X028583Y027500D01*
X028664Y027580D01*
X028707Y027685D01*
X028707Y027799D01*
X028664Y027903D01*
X028693Y027903D01*
X028664Y027903D02*
X028583Y027984D01*
X028479Y028027D01*
X028075Y028027D01*
X028063Y028022D01*
X027905Y028022D01*
X027832Y027949D01*
X027832Y027535D01*
X027832Y027563D02*
X026942Y027563D01*
X026942Y027515D02*
X026942Y027894D01*
X026868Y027967D01*
X026101Y027967D01*
X026021Y028047D01*
X025947Y028047D01*
X025947Y028121D01*
X025821Y028247D01*
X025797Y028247D01*
X025797Y028317D01*
X025963Y028317D01*
X025963Y028253D01*
X026036Y028180D01*
X026416Y028180D01*
X026482Y028246D01*
X026548Y028180D01*
X026927Y028180D01*
X026965Y028217D01*
X027032Y028217D01*
X027032Y027915D01*
X027105Y027842D01*
X027559Y027842D01*
X027632Y027915D01*
X027632Y028329D01*
X027559Y028402D01*
X027497Y028402D01*
X027497Y028550D01*
X027400Y028647D01*
X027197Y028850D01*
X027197Y028950D01*
X027100Y029047D01*
X027001Y029147D01*
X027001Y029211D01*
X026927Y029284D01*
X026548Y029284D01*
X026482Y029218D01*
X026468Y029232D01*
X026489Y029253D01*
X026489Y029711D01*
X026468Y029732D01*
X026482Y029746D01*
X026482Y029746D01*
X026548Y029680D01*
X026927Y029680D01*
X027001Y029753D01*
X027001Y030211D01*
X026927Y030284D01*
X026813Y030284D01*
X026806Y030291D01*
X026550Y030547D01*
X025714Y030547D01*
X025664Y030497D01*
X025593Y030497D01*
X025467Y030371D01*
X025467Y030193D01*
X025593Y030067D01*
X025771Y030067D01*
X025897Y030193D01*
X025897Y030217D01*
X025969Y030217D01*
X025963Y030211D01*
X025963Y030147D01*
X025864Y030147D01*
X025767Y030050D01*
X025764Y030047D01*
X025300Y030047D01*
X025047Y030300D01*
X025047Y030550D01*
X024950Y030647D01*
X024764Y030833D01*
X024764Y030977D01*
X025641Y031082D01*
X026257Y031232D01*
X027732Y031232D01*
X028147Y030817D01*
X028014Y030749D01*
X027465Y030514D01*
X027459Y030516D01*
X027435Y030501D01*
X027408Y030490D01*
X027405Y030484D01*
X027399Y030480D01*
X027392Y030452D01*
X027380Y030426D01*
X027383Y030419D01*
X027381Y030412D01*
X027396Y030387D01*
X027406Y030361D01*
X027413Y030358D01*
X027625Y029998D01*
X027625Y029998D01*
X027851Y029704D01*
X027407Y029259D01*
X027407Y029189D01*
X027457Y029139D01*
X029189Y027407D01*
X029259Y027407D01*
X029309Y027457D01*
X029704Y027851D01*
X029998Y027625D01*
X030358Y027413D01*
X030361Y027406D01*
X030387Y027396D01*
X030412Y027381D01*
X030419Y027383D01*
X030426Y027380D01*
X030452Y027392D01*
X030480Y027399D01*
X030484Y027405D01*
X030490Y027408D01*
X030501Y027435D01*
X030516Y027459D01*
X030514Y027465D01*
X030749Y028014D01*
X030817Y028147D01*
X031009Y027955D01*
X030950Y027837D01*
X030732Y027280D01*
X030707Y027254D01*
X030707Y027215D01*
X030693Y027178D01*
X030707Y027145D01*
X030707Y026761D01*
X030667Y026721D01*
X030667Y026543D01*
X030793Y026417D01*
X030971Y026417D01*
X031097Y026543D01*
X031097Y026721D01*
X031057Y026761D01*
X031057Y027147D01*
X031232Y027566D01*
X031232Y026257D01*
X031082Y025641D01*
X031082Y025641D01*
X030930Y024371D01*
X030930Y023093D01*
X031082Y021823D01*
X031232Y021207D01*
X031232Y019732D01*
X030817Y019317D01*
X030749Y019450D01*
X030514Y019998D01*
X030516Y020004D01*
X030501Y020029D01*
X030490Y020056D01*
X030484Y020059D01*
X030480Y020065D01*
X030452Y020072D01*
X030426Y020084D01*
X030419Y020081D01*
X030412Y020083D01*
X030387Y020068D01*
X030361Y020057D01*
X030358Y020051D01*
X029998Y019839D01*
X029998Y019839D01*
X029704Y019612D01*
X029259Y020057D01*
X029189Y020057D01*
X029139Y020007D01*
X027457Y018325D01*
X027457Y018559D01*
X029154Y020257D01*
X030704Y020257D01*
X030807Y020359D01*
X030807Y020359D01*
X031004Y020557D01*
X031107Y020659D01*
X031107Y021554D01*
X031004Y021657D01*
X030704Y021957D01*
X030834Y021957D01*
X030907Y022030D01*
X030907Y022534D01*
X030834Y022607D01*
X030711Y022607D01*
X030747Y022643D01*
X030747Y022821D01*
X030621Y022947D01*
X030443Y022947D01*
X030317Y022821D01*
X030317Y022764D01*
X030209Y022657D01*
X030107Y022554D01*
X030107Y022059D01*
X030757Y021409D01*
X030757Y020804D01*
X030559Y020607D01*
X029009Y020607D01*
X027209Y018807D01*
X027152Y018749D01*
X027152Y019109D01*
X027079Y019182D01*
X027037Y019182D01*
X027037Y019544D01*
X027034Y019547D01*
X027034Y019666D01*
X026968Y019732D01*
X027034Y019798D01*
X027034Y020177D01*
X026961Y020251D01*
X026503Y020251D01*
X026449Y020197D01*
X026293Y020197D01*
X026279Y020183D01*
X026211Y020251D01*
X025753Y020251D01*
X025680Y020177D01*
X025680Y019798D01*
X025753Y019725D01*
X026211Y019725D01*
X026273Y019787D01*
X026293Y019767D01*
X026461Y019767D01*
X026496Y019732D01*
X026430Y019666D01*
X026430Y019286D01*
X026503Y019213D01*
X026707Y019213D01*
X026707Y019182D01*
X026665Y019182D01*
X026592Y019109D01*
X026592Y018655D01*
X026665Y018582D01*
X027079Y018582D01*
X027107Y018610D01*
X027107Y017804D01*
X027059Y017757D01*
X026957Y017654D01*
X026957Y016807D01*
X020457Y016807D01*
X020457Y018404D01*
X019657Y019204D01*
X019657Y019213D01*
X019711Y019213D01*
X019784Y019286D01*
X019784Y019496D01*
X019873Y019408D01*
X019930Y019351D01*
X019930Y019286D01*
X020003Y019213D01*
X020461Y019213D01*
X020534Y019286D01*
X020534Y019666D01*
X020468Y019732D01*
X020482Y019746D01*
X020503Y019725D01*
X020961Y019725D01*
X020982Y019746D01*
X020996Y019732D01*
X020930Y019666D01*
X020930Y019286D01*
X021003Y019213D01*
X021207Y019213D01*
X021207Y019182D01*
X021165Y019182D01*
X021092Y019109D01*
X021092Y018655D01*
X021165Y018582D01*
X021579Y018582D01*
X021652Y018655D01*
X021652Y019109D01*
X021579Y019182D01*
X021537Y019182D01*
X021537Y019544D01*
X021534Y019547D01*
X021534Y019666D01*
X021468Y019732D01*
X021534Y019798D01*
X021534Y020117D01*
X021671Y020117D01*
X021680Y020126D01*
X021680Y019798D01*
X021746Y019732D01*
X021680Y019666D01*
X021680Y019286D01*
X021753Y019213D01*
X021817Y019213D01*
X021817Y018064D01*
X022117Y017764D01*
X022214Y017667D01*
X022764Y017667D01*
X022817Y017614D01*
X022817Y017314D01*
X022967Y017164D01*
X023064Y017067D01*
X023154Y017067D01*
X023154Y017023D01*
X023227Y016949D01*
X023646Y016949D01*
X023719Y017023D01*
X023719Y017441D01*
X023646Y017514D01*
X023227Y017514D01*
X023155Y017442D01*
X023147Y017450D01*
X023147Y017750D01*
X023050Y017847D01*
X022900Y017997D01*
X022350Y017997D01*
X022147Y018200D01*
X022147Y019213D01*
X022211Y019213D01*
X022284Y019286D01*
X022284Y019666D01*
X022218Y019732D01*
X022230Y019744D01*
X022327Y019647D01*
X022327Y019281D01*
X022317Y019271D01*
X022317Y019093D01*
X022443Y018967D01*
X022621Y018967D01*
X022747Y019093D01*
X022747Y019271D01*
X022737Y019281D01*
X022737Y019804D01*
X022827Y019804D01*
X022967Y019664D01*
X023064Y019567D01*
X023158Y019567D01*
X023180Y019545D01*
X023180Y019286D01*
X023253Y019213D01*
X023317Y019213D01*
X023317Y019071D01*
X023267Y019021D01*
X023267Y018843D01*
X023393Y018717D01*
X023571Y018717D01*
X023657Y018803D01*
X023743Y018717D01*
X023921Y018717D01*
X024047Y018843D01*
X024047Y019021D01*
X024029Y019039D01*
X024202Y019213D01*
X024461Y019213D01*
X024534Y019286D01*
X024534Y019545D01*
X024556Y019567D01*
X024600Y019567D01*
X024697Y019664D01*
X024837Y019804D01*
X024981Y019804D01*
X025027Y019850D01*
X025027Y019123D01*
X025024Y019121D01*
X024987Y019031D01*
X024987Y018933D01*
X025024Y018843D01*
X025093Y018774D01*
X025183Y018737D01*
X025281Y018737D01*
X025371Y018774D01*
X025440Y018843D01*
X025467Y018909D01*
X025467Y018200D01*
X025264Y017997D01*
X024664Y017997D01*
X024464Y017797D01*
X024367Y017700D01*
X024367Y017450D01*
X024314Y017397D01*
X024310Y017397D01*
X024310Y017441D01*
X024236Y017514D01*
X023818Y017514D01*
X023745Y017441D01*
X023745Y017023D01*
X023818Y016949D01*
X024236Y016949D01*
X024310Y017023D01*
X024310Y017067D01*
X024450Y017067D01*
X024547Y017164D01*
X024697Y017314D01*
X024697Y017564D01*
X024800Y017667D01*
X025400Y017667D01*
X025497Y017764D01*
X025797Y018064D01*
X025797Y019200D01*
X025700Y019297D01*
X025647Y019350D01*
X025647Y020364D01*
X025750Y020467D01*
X026950Y020467D01*
X027300Y020817D01*
X027397Y020914D01*
X027397Y021125D01*
X027532Y021125D01*
X027605Y021198D01*
X027605Y021518D01*
X027532Y021591D01*
X026956Y021591D01*
X026937Y021572D01*
X026937Y021817D01*
X026817Y021937D01*
X026581Y022172D01*
X026581Y022236D01*
X026643Y022174D01*
X026733Y022137D01*
X026831Y022137D01*
X026883Y022158D01*
X026883Y021946D01*
X026956Y021873D01*
X027532Y021873D01*
X027560Y021901D01*
X029091Y021901D01*
X029557Y022367D01*
X029557Y022030D01*
X029630Y021957D01*
X029934Y021957D01*
X030007Y022030D01*
X030007Y022534D01*
X029959Y022582D01*
X030034Y022582D01*
X030107Y022655D01*
X030107Y022925D01*
X030135Y022897D01*
X030329Y022897D01*
X030467Y023035D01*
X030467Y023229D01*
X030329Y023367D01*
X030135Y023367D01*
X029997Y023229D01*
X029997Y023082D01*
X029267Y023082D01*
X029267Y023614D01*
X029400Y023747D01*
X029689Y023747D01*
X029773Y023782D01*
X030034Y023782D01*
X030107Y023855D01*
X030107Y024125D01*
X030135Y024097D01*
X030329Y024097D01*
X030467Y024235D01*
X030467Y024429D01*
X030329Y024567D01*
X030135Y024567D01*
X030107Y024539D01*
X030107Y024809D01*
X030034Y024882D01*
X029959Y024882D01*
X030007Y024930D01*
X030007Y025434D01*
X029934Y025507D01*
X029630Y025507D01*
X029557Y025434D01*
X029557Y024930D01*
X029570Y024917D01*
X029167Y024917D01*
X029167Y025289D01*
X029124Y025393D01*
X029043Y025474D01*
X028939Y025517D01*
X028857Y025517D01*
X029217Y025877D01*
X029337Y025997D01*
X029337Y026212D01*
X029359Y026212D01*
X029380Y026233D01*
X029380Y026036D01*
X029453Y025963D01*
X029711Y025963D01*
X029712Y025963D02*
X029303Y025963D01*
X029337Y026011D02*
X029405Y026011D01*
X029380Y026060D02*
X029337Y026060D01*
X029337Y026108D02*
X029380Y026108D01*
X029380Y026157D02*
X029337Y026157D01*
X029337Y026205D02*
X029380Y026205D01*
X029254Y025914D02*
X029760Y025914D01*
X029809Y025866D02*
X029206Y025866D01*
X029157Y025817D02*
X029857Y025817D01*
X029908Y025769D02*
X029109Y025769D01*
X029060Y025720D02*
X029956Y025720D01*
X029963Y025478D02*
X030501Y025478D01*
X030530Y025507D02*
X030457Y025434D01*
X030457Y024930D01*
X030530Y024857D01*
X030834Y024857D01*
X030907Y024930D01*
X030907Y025434D01*
X030834Y025507D01*
X030530Y025507D01*
X030457Y025429D02*
X030007Y025429D01*
X030007Y025381D02*
X030457Y025381D01*
X030457Y025332D02*
X030007Y025332D01*
X030007Y025284D02*
X030457Y025284D01*
X030457Y025235D02*
X030007Y025235D01*
X030007Y025187D02*
X030457Y025187D01*
X030457Y025138D02*
X030007Y025138D01*
X030007Y025090D02*
X030457Y025090D01*
X030457Y025041D02*
X030007Y025041D01*
X030007Y024993D02*
X030457Y024993D01*
X030457Y024944D02*
X030007Y024944D01*
X029973Y024896D02*
X030491Y024896D01*
X030340Y024556D02*
X030953Y024556D01*
X030947Y024508D02*
X030388Y024508D01*
X030437Y024459D02*
X030941Y024459D01*
X030935Y024411D02*
X030467Y024411D01*
X030467Y024362D02*
X030930Y024362D01*
X030930Y024314D02*
X030467Y024314D01*
X030467Y024265D02*
X030930Y024265D01*
X030930Y024217D02*
X030449Y024217D01*
X030401Y024168D02*
X030930Y024168D01*
X030930Y024120D02*
X030352Y024120D01*
X030112Y024120D02*
X030107Y024120D01*
X030107Y024071D02*
X030930Y024071D01*
X030930Y024023D02*
X030107Y024023D01*
X030107Y023974D02*
X030930Y023974D01*
X030930Y023926D02*
X030107Y023926D01*
X030107Y023877D02*
X030930Y023877D01*
X030930Y023829D02*
X030081Y023829D01*
X029769Y023780D02*
X030930Y023780D01*
X030930Y023732D02*
X029385Y023732D01*
X029336Y023683D02*
X030930Y023683D01*
X030930Y023635D02*
X029288Y023635D01*
X029267Y023586D02*
X030930Y023586D01*
X030930Y023538D02*
X029267Y023538D01*
X029267Y023489D02*
X030930Y023489D01*
X030930Y023441D02*
X029267Y023441D01*
X029267Y023392D02*
X030930Y023392D01*
X030930Y023344D02*
X030352Y023344D01*
X030401Y023295D02*
X030930Y023295D01*
X030930Y023247D02*
X030449Y023247D01*
X030467Y023198D02*
X030930Y023198D01*
X030930Y023150D02*
X030467Y023150D01*
X030467Y023101D02*
X030930Y023101D01*
X030935Y023053D02*
X030467Y023053D01*
X030437Y023004D02*
X030941Y023004D01*
X030947Y022956D02*
X030388Y022956D01*
X030403Y022907D02*
X030340Y022907D01*
X030355Y022859D02*
X030107Y022859D01*
X030107Y022907D02*
X030124Y022907D01*
X030107Y022810D02*
X030317Y022810D01*
X030314Y022762D02*
X030107Y022762D01*
X030107Y022713D02*
X030266Y022713D01*
X030217Y022665D02*
X030107Y022665D01*
X030068Y022616D02*
X030169Y022616D01*
X030120Y022568D02*
X029973Y022568D01*
X030007Y022519D02*
X030107Y022519D01*
X030107Y022471D02*
X030007Y022471D01*
X030007Y022422D02*
X030107Y022422D01*
X030107Y022374D02*
X030007Y022374D01*
X030007Y022325D02*
X030107Y022325D01*
X030107Y022277D02*
X030007Y022277D01*
X030007Y022228D02*
X030107Y022228D01*
X030107Y022180D02*
X030007Y022180D01*
X030007Y022131D02*
X030107Y022131D01*
X030107Y022083D02*
X030007Y022083D01*
X030007Y022034D02*
X030132Y022034D01*
X030180Y021986D02*
X029963Y021986D01*
X030229Y021937D02*
X029127Y021937D01*
X029176Y021986D02*
X029601Y021986D01*
X029557Y022034D02*
X029224Y022034D01*
X029273Y022083D02*
X029557Y022083D01*
X029557Y022131D02*
X029321Y022131D01*
X029370Y022180D02*
X029557Y022180D01*
X029557Y022228D02*
X029418Y022228D01*
X029467Y022277D02*
X029557Y022277D01*
X029557Y022325D02*
X029515Y022325D01*
X029267Y023101D02*
X029997Y023101D01*
X029997Y023150D02*
X029267Y023150D01*
X029267Y023198D02*
X029997Y023198D01*
X030015Y023247D02*
X029267Y023247D01*
X029267Y023295D02*
X030063Y023295D01*
X030112Y023344D02*
X029267Y023344D01*
X028427Y023367D02*
X028047Y022987D01*
X027179Y022987D01*
X027244Y023014D01*
X027350Y023119D01*
X027407Y023257D01*
X027407Y023406D01*
X027350Y023544D01*
X027327Y023567D01*
X027400Y023567D01*
X027555Y023721D01*
X027555Y023631D01*
X027632Y023444D01*
X027775Y023301D01*
X027962Y023224D01*
X028164Y023224D01*
X028350Y023301D01*
X028427Y023378D01*
X028427Y023367D01*
X028404Y023344D02*
X028393Y023344D01*
X028355Y023295D02*
X028336Y023295D01*
X028307Y023247D02*
X028219Y023247D01*
X028258Y023198D02*
X027382Y023198D01*
X027362Y023150D02*
X028210Y023150D01*
X028161Y023101D02*
X027332Y023101D01*
X027283Y023053D02*
X028113Y023053D01*
X028064Y023004D02*
X027221Y023004D01*
X027403Y023247D02*
X027906Y023247D01*
X027789Y023295D02*
X027407Y023295D01*
X027407Y023344D02*
X027732Y023344D01*
X027684Y023392D02*
X027407Y023392D01*
X027393Y023441D02*
X027635Y023441D01*
X027613Y023489D02*
X027373Y023489D01*
X027352Y023538D02*
X027593Y023538D01*
X027573Y023586D02*
X027420Y023586D01*
X027468Y023635D02*
X027555Y023635D01*
X027555Y023683D02*
X027517Y023683D01*
X026224Y023757D02*
X026174Y023707D01*
X026157Y023707D01*
X026019Y023650D01*
X025914Y023544D01*
X025857Y023406D01*
X025857Y023257D01*
X025914Y023119D01*
X026019Y023014D01*
X026061Y022997D01*
X025300Y022997D01*
X025007Y023290D01*
X024911Y023386D01*
X024878Y023386D01*
X024878Y023493D01*
X024851Y023519D01*
X024878Y023546D01*
X024878Y023691D01*
X024845Y023724D01*
X024878Y023757D01*
X024878Y023902D01*
X024852Y023928D01*
X024878Y023955D01*
X024878Y024099D01*
X024776Y024202D01*
X024380Y024202D01*
X024380Y024295D01*
X024380Y024295D01*
X024413Y024329D01*
X024413Y024767D01*
X024743Y024767D01*
X024793Y024717D01*
X024867Y024717D01*
X024867Y024593D01*
X024993Y024467D01*
X025171Y024467D01*
X025292Y024588D01*
X025374Y024507D01*
X025357Y024507D01*
X025219Y024450D01*
X025114Y024344D01*
X025057Y024206D01*
X025057Y024057D01*
X025114Y023919D01*
X025219Y023814D01*
X025357Y023757D01*
X025506Y023757D01*
X025644Y023814D01*
X025750Y023919D01*
X025807Y024057D01*
X025807Y024074D01*
X025817Y024064D01*
X025881Y024000D01*
X025914Y023919D01*
X026019Y023814D01*
X026157Y023757D01*
X026224Y023757D01*
X026199Y023732D02*
X024853Y023732D01*
X024878Y023780D02*
X025301Y023780D01*
X025205Y023829D02*
X024878Y023829D01*
X024878Y023877D02*
X025156Y023877D01*
X025111Y023926D02*
X024854Y023926D01*
X024878Y023974D02*
X025091Y023974D01*
X025071Y024023D02*
X024878Y024023D01*
X024878Y024071D02*
X025057Y024071D01*
X025057Y024120D02*
X024858Y024120D01*
X024809Y024168D02*
X025057Y024168D01*
X025061Y024217D02*
X024380Y024217D01*
X024380Y024265D02*
X025081Y024265D01*
X025101Y024314D02*
X024398Y024314D01*
X024413Y024362D02*
X025132Y024362D01*
X025181Y024411D02*
X024413Y024411D01*
X024413Y024459D02*
X025243Y024459D01*
X025212Y024508D02*
X025373Y024508D01*
X025324Y024556D02*
X025260Y024556D01*
X024952Y024508D02*
X024413Y024508D01*
X024413Y024556D02*
X024903Y024556D01*
X024867Y024605D02*
X024413Y024605D01*
X024413Y024653D02*
X024867Y024653D01*
X024867Y024702D02*
X024413Y024702D01*
X024413Y024750D02*
X024759Y024750D01*
X023938Y025472D02*
X023714Y025247D01*
X023214Y025247D01*
X023067Y025100D01*
X023067Y024964D01*
X023067Y024783D01*
X023058Y024774D01*
X023058Y024766D01*
X022912Y024766D01*
X022786Y024640D01*
X022786Y024462D01*
X022912Y024336D01*
X023058Y024336D01*
X023058Y024329D01*
X023100Y024287D01*
X023100Y024202D01*
X022717Y024202D01*
X022717Y025059D01*
X022609Y025167D01*
X022567Y025209D01*
X022567Y025397D01*
X022759Y025397D01*
X022867Y025505D01*
X022867Y025505D01*
X022867Y025505D01*
X022867Y025443D01*
X022993Y025317D01*
X023171Y025317D01*
X023232Y025378D01*
X023293Y025317D01*
X023471Y025317D01*
X023597Y025443D01*
X023597Y025613D01*
X023643Y025567D01*
X023821Y025567D01*
X023867Y025613D01*
X023917Y025564D01*
X023917Y025493D01*
X023938Y025472D01*
X023932Y025478D02*
X023597Y025478D01*
X023597Y025526D02*
X023917Y025526D01*
X023906Y025575D02*
X023829Y025575D01*
X023896Y025429D02*
X023583Y025429D01*
X023535Y025381D02*
X023848Y025381D01*
X023799Y025332D02*
X023486Y025332D01*
X023277Y025332D02*
X023186Y025332D01*
X023202Y025235D02*
X022567Y025235D01*
X022567Y025284D02*
X023751Y025284D01*
X023635Y025575D02*
X023597Y025575D01*
X023523Y025877D02*
X023523Y026220D01*
X023522Y026221D01*
X023522Y026353D01*
X023502Y026373D01*
X023568Y026373D01*
X023548Y026353D01*
X023548Y025934D01*
X023564Y025918D01*
X023523Y025877D01*
X023523Y025914D02*
X023560Y025914D01*
X023548Y025963D02*
X023523Y025963D01*
X023523Y026011D02*
X023548Y026011D01*
X023548Y026060D02*
X023523Y026060D01*
X023523Y026108D02*
X023548Y026108D01*
X023548Y026157D02*
X023523Y026157D01*
X023523Y026205D02*
X023548Y026205D01*
X023548Y026254D02*
X023522Y026254D01*
X023522Y026302D02*
X023548Y026302D01*
X023548Y026351D02*
X023522Y026351D01*
X022623Y026662D02*
X022603Y026682D01*
X022471Y026682D01*
X022470Y026683D01*
X022305Y026683D01*
X022304Y026682D01*
X022215Y026682D01*
X022241Y026707D01*
X022603Y026707D01*
X022623Y026727D01*
X022623Y026662D01*
X022623Y026690D02*
X022224Y026690D01*
X022111Y026577D02*
X022111Y026387D01*
X022167Y026331D01*
X022167Y026247D01*
X022047Y026247D01*
X022047Y026271D01*
X021926Y026392D01*
X022111Y026577D01*
X022111Y026545D02*
X022078Y026545D01*
X022111Y026496D02*
X022030Y026496D01*
X021981Y026448D02*
X022111Y026448D01*
X022111Y026399D02*
X021933Y026399D01*
X021967Y026351D02*
X022147Y026351D01*
X022167Y026302D02*
X022015Y026302D01*
X022047Y026254D02*
X022167Y026254D01*
X021267Y026064D02*
X021267Y025814D01*
X021296Y025784D01*
X021048Y025784D01*
X020975Y025711D01*
X020975Y025253D01*
X021048Y025180D01*
X021427Y025180D01*
X021501Y025253D01*
X021501Y025317D01*
X021839Y025317D01*
X021307Y024784D01*
X021048Y024784D01*
X020975Y024711D01*
X020975Y024253D01*
X020996Y024232D01*
X020982Y024218D01*
X020916Y024284D01*
X020587Y024284D01*
X020587Y024680D01*
X020916Y024680D01*
X020989Y024753D01*
X020989Y025211D01*
X020916Y025284D01*
X020975Y025284D01*
X020975Y025332D02*
X020612Y025332D01*
X020627Y025368D02*
X020627Y025466D01*
X020590Y025556D01*
X020521Y025625D01*
X020431Y025662D01*
X020333Y025662D01*
X020243Y025625D01*
X020174Y025556D01*
X020137Y025466D01*
X020137Y025368D01*
X020174Y025278D01*
X020177Y025275D01*
X020177Y024591D01*
X020121Y024647D01*
X019943Y024647D01*
X019882Y024586D01*
X019821Y024647D01*
X019643Y024647D01*
X019517Y024521D01*
X019517Y024343D01*
X019643Y024217D01*
X019558Y024217D01*
X019502Y024240D02*
X019300Y024240D01*
X019113Y024163D01*
X018970Y024020D01*
X018893Y023833D01*
X018893Y023631D01*
X018970Y023444D01*
X019113Y023301D01*
X019300Y023224D01*
X019502Y023224D01*
X019689Y023301D01*
X019817Y023429D01*
X019817Y022214D01*
X019914Y022117D01*
X020217Y021814D01*
X020217Y021597D01*
X020150Y021597D01*
X018850Y022897D01*
X018894Y023961D01*
X019500Y024567D01*
X019597Y024664D01*
X019597Y025243D01*
X019647Y025293D01*
X019647Y025471D01*
X019561Y025557D01*
X019571Y025567D01*
X020050Y025567D01*
X020147Y025664D01*
X020300Y025817D01*
X020500Y025817D01*
X020597Y025914D01*
X020750Y026067D01*
X021264Y026067D01*
X021267Y026064D01*
X021267Y026060D02*
X020743Y026060D01*
X020695Y026011D02*
X021267Y026011D01*
X021267Y025963D02*
X020646Y025963D01*
X020598Y025914D02*
X021267Y025914D01*
X021267Y025866D02*
X020549Y025866D01*
X020501Y025817D02*
X021267Y025817D01*
X021033Y025769D02*
X020252Y025769D01*
X020204Y025720D02*
X020985Y025720D01*
X020975Y025672D02*
X020155Y025672D01*
X020107Y025623D02*
X020242Y025623D01*
X020193Y025575D02*
X020058Y025575D01*
X020162Y025526D02*
X019591Y025526D01*
X019640Y025478D02*
X020142Y025478D01*
X020137Y025429D02*
X019647Y025429D01*
X019647Y025381D02*
X020137Y025381D01*
X020152Y025332D02*
X019647Y025332D01*
X019638Y025284D02*
X020172Y025284D01*
X020177Y025235D02*
X019597Y025235D01*
X019597Y025187D02*
X020177Y025187D01*
X020177Y025138D02*
X019597Y025138D01*
X019597Y025090D02*
X020177Y025090D01*
X020177Y025041D02*
X019597Y025041D01*
X019597Y024993D02*
X020177Y024993D01*
X020177Y024944D02*
X019597Y024944D01*
X019597Y024896D02*
X020177Y024896D01*
X020177Y024847D02*
X019597Y024847D01*
X019597Y024799D02*
X020177Y024799D01*
X020177Y024750D02*
X019597Y024750D01*
X019597Y024702D02*
X020177Y024702D01*
X020177Y024653D02*
X019587Y024653D01*
X019601Y024605D02*
X019538Y024605D01*
X019552Y024556D02*
X019490Y024556D01*
X019517Y024508D02*
X019441Y024508D01*
X019393Y024459D02*
X019517Y024459D01*
X019517Y024411D02*
X019344Y024411D01*
X019296Y024362D02*
X019517Y024362D01*
X019546Y024314D02*
X019247Y024314D01*
X019199Y024265D02*
X019594Y024265D01*
X019643Y024217D02*
X019664Y024217D01*
X019817Y024064D01*
X019817Y024035D01*
X019689Y024163D01*
X019502Y024240D01*
X019675Y024168D02*
X019712Y024168D01*
X019732Y024120D02*
X019761Y024120D01*
X019780Y024071D02*
X019809Y024071D01*
X019863Y024605D02*
X019901Y024605D01*
X020163Y024605D02*
X020177Y024605D01*
X020587Y024605D02*
X020975Y024605D01*
X020975Y024653D02*
X020587Y024653D01*
X020587Y024556D02*
X020975Y024556D01*
X020975Y024508D02*
X020587Y024508D01*
X020587Y024459D02*
X020975Y024459D01*
X020975Y024411D02*
X020587Y024411D01*
X020587Y024362D02*
X020975Y024362D01*
X020975Y024314D02*
X020587Y024314D01*
X020934Y024265D02*
X020975Y024265D01*
X020975Y024702D02*
X020938Y024702D01*
X020986Y024750D02*
X021015Y024750D01*
X020989Y024799D02*
X021321Y024799D01*
X021370Y024847D02*
X020989Y024847D01*
X020989Y024896D02*
X021418Y024896D01*
X021467Y024944D02*
X020989Y024944D01*
X020989Y024993D02*
X021515Y024993D01*
X021564Y025041D02*
X020989Y025041D01*
X020989Y025090D02*
X021612Y025090D01*
X021661Y025138D02*
X020989Y025138D01*
X020989Y025187D02*
X021041Y025187D01*
X020993Y025235D02*
X020964Y025235D01*
X020916Y025284D02*
X020592Y025284D01*
X020627Y025368D01*
X020627Y025381D02*
X020975Y025381D01*
X020975Y025429D02*
X020627Y025429D01*
X020622Y025478D02*
X020975Y025478D01*
X020975Y025526D02*
X020602Y025526D01*
X020570Y025575D02*
X020975Y025575D01*
X020975Y025623D02*
X020522Y025623D01*
X021435Y025187D02*
X021709Y025187D01*
X021758Y025235D02*
X021483Y025235D01*
X021501Y025284D02*
X021806Y025284D01*
X022031Y025041D02*
X022211Y025041D01*
X022197Y025055D02*
X022305Y024947D01*
X022305Y024947D01*
X022347Y024905D01*
X022347Y023087D01*
X021947Y022687D01*
X021619Y022687D01*
X021619Y022770D01*
X021545Y022843D01*
X021127Y022843D01*
X021054Y022770D01*
X021054Y022194D01*
X021127Y022121D01*
X021545Y022121D01*
X021619Y022194D01*
X021619Y022277D01*
X021777Y022277D01*
X021777Y020441D01*
X021747Y020471D01*
X021747Y021100D01*
X020750Y022097D01*
X020650Y022097D01*
X020297Y022450D01*
X020297Y022667D01*
X020471Y022667D01*
X020597Y022793D01*
X020597Y022864D01*
X020700Y022967D01*
X021050Y022967D01*
X021263Y023180D01*
X021427Y023180D01*
X021501Y023253D01*
X021501Y023317D01*
X021600Y023317D01*
X022100Y023817D01*
X022171Y023817D01*
X022297Y023943D01*
X022297Y024121D01*
X022171Y024247D01*
X022030Y024247D01*
X022100Y024317D01*
X022171Y024317D01*
X022297Y024443D01*
X022297Y024621D01*
X022171Y024747D01*
X021993Y024747D01*
X021867Y024621D01*
X021867Y024550D01*
X021501Y024184D01*
X021501Y024211D01*
X021480Y024232D01*
X021501Y024253D01*
X021501Y024511D01*
X022106Y025117D01*
X022197Y025117D01*
X022197Y025055D01*
X022197Y025090D02*
X022079Y025090D01*
X021982Y024993D02*
X022259Y024993D01*
X022308Y024944D02*
X021934Y024944D01*
X021885Y024896D02*
X022347Y024896D01*
X022347Y024847D02*
X021837Y024847D01*
X021788Y024799D02*
X022347Y024799D01*
X022347Y024750D02*
X021740Y024750D01*
X021691Y024702D02*
X021948Y024702D01*
X021899Y024653D02*
X021643Y024653D01*
X021594Y024605D02*
X021867Y024605D01*
X021867Y024556D02*
X021546Y024556D01*
X021501Y024508D02*
X021825Y024508D01*
X021776Y024459D02*
X021501Y024459D01*
X021501Y024411D02*
X021728Y024411D01*
X021679Y024362D02*
X021501Y024362D01*
X021501Y024314D02*
X021631Y024314D01*
X021582Y024265D02*
X021501Y024265D01*
X021495Y024217D02*
X021534Y024217D01*
X022049Y024265D02*
X022347Y024265D01*
X022347Y024217D02*
X022201Y024217D01*
X022249Y024168D02*
X022347Y024168D01*
X022347Y024120D02*
X022297Y024120D01*
X022297Y024071D02*
X022347Y024071D01*
X022347Y024023D02*
X022297Y024023D01*
X022297Y023974D02*
X022347Y023974D01*
X022347Y023926D02*
X022280Y023926D01*
X022231Y023877D02*
X022347Y023877D01*
X022347Y023829D02*
X022183Y023829D01*
X022064Y023780D02*
X022347Y023780D01*
X022347Y023732D02*
X022015Y023732D01*
X021967Y023683D02*
X022347Y023683D01*
X022347Y023635D02*
X021918Y023635D01*
X021870Y023586D02*
X022347Y023586D01*
X022347Y023538D02*
X021821Y023538D01*
X021773Y023489D02*
X022347Y023489D01*
X022347Y023441D02*
X021724Y023441D01*
X021676Y023392D02*
X022347Y023392D01*
X022347Y023344D02*
X021627Y023344D01*
X021501Y023295D02*
X022347Y023295D01*
X022347Y023247D02*
X021495Y023247D01*
X021446Y023198D02*
X022347Y023198D01*
X022347Y023150D02*
X021233Y023150D01*
X021185Y023101D02*
X022347Y023101D01*
X022313Y023053D02*
X021136Y023053D01*
X021088Y023004D02*
X022264Y023004D01*
X022216Y022956D02*
X020689Y022956D01*
X020641Y022907D02*
X022167Y022907D01*
X022119Y022859D02*
X020597Y022859D01*
X020597Y022810D02*
X021094Y022810D01*
X021054Y022762D02*
X020566Y022762D01*
X020517Y022713D02*
X021054Y022713D01*
X021054Y022665D02*
X020297Y022665D01*
X020297Y022616D02*
X021054Y022616D01*
X021054Y022568D02*
X020297Y022568D01*
X020297Y022519D02*
X021054Y022519D01*
X021054Y022471D02*
X020297Y022471D01*
X020325Y022422D02*
X021054Y022422D01*
X021054Y022374D02*
X020373Y022374D01*
X020422Y022325D02*
X021054Y022325D01*
X021054Y022277D02*
X020470Y022277D01*
X020519Y022228D02*
X021054Y022228D01*
X021068Y022180D02*
X020567Y022180D01*
X020616Y022131D02*
X021116Y022131D01*
X020910Y021937D02*
X021777Y021937D01*
X021777Y021889D02*
X020958Y021889D01*
X021007Y021840D02*
X021777Y021840D01*
X021777Y021792D02*
X021055Y021792D01*
X021104Y021743D02*
X021777Y021743D01*
X021777Y021695D02*
X021152Y021695D01*
X021201Y021646D02*
X021777Y021646D01*
X021777Y021598D02*
X021249Y021598D01*
X021298Y021549D02*
X021777Y021549D01*
X021777Y021501D02*
X021346Y021501D01*
X021395Y021452D02*
X021777Y021452D01*
X021777Y021404D02*
X021443Y021404D01*
X021492Y021355D02*
X021777Y021355D01*
X021777Y021307D02*
X021540Y021307D01*
X021589Y021258D02*
X021777Y021258D01*
X021777Y021210D02*
X021637Y021210D01*
X021686Y021161D02*
X021777Y021161D01*
X021777Y021113D02*
X021734Y021113D01*
X021747Y021064D02*
X021777Y021064D01*
X021777Y021016D02*
X021747Y021016D01*
X021747Y020967D02*
X021777Y020967D01*
X021777Y020919D02*
X021747Y020919D01*
X021747Y020870D02*
X021777Y020870D01*
X021777Y020822D02*
X021747Y020822D01*
X021747Y020773D02*
X021777Y020773D01*
X021777Y020725D02*
X021747Y020725D01*
X021747Y020676D02*
X021777Y020676D01*
X021777Y020628D02*
X021747Y020628D01*
X021747Y020579D02*
X021777Y020579D01*
X021777Y020531D02*
X021747Y020531D01*
X021747Y020482D02*
X021777Y020482D01*
X021417Y020482D02*
X020885Y020482D01*
X020837Y020531D02*
X021417Y020531D01*
X021417Y020579D02*
X020547Y020579D01*
X020547Y020531D02*
X020627Y020531D01*
X020643Y020547D02*
X020517Y020421D01*
X020517Y020251D01*
X020503Y020251D01*
X020482Y020230D01*
X020461Y020251D01*
X020397Y020251D01*
X020397Y020294D01*
X020362Y020329D01*
X020441Y020408D01*
X020547Y020514D01*
X020547Y021767D01*
X020614Y021767D01*
X021417Y020964D01*
X021417Y020471D01*
X021367Y020421D01*
X021367Y020251D01*
X021003Y020251D01*
X020982Y020230D01*
X020961Y020251D01*
X020947Y020251D01*
X020947Y020421D01*
X020821Y020547D01*
X020643Y020547D01*
X020578Y020482D02*
X020516Y020482D01*
X020530Y020434D02*
X020467Y020434D01*
X020419Y020385D02*
X020517Y020385D01*
X020517Y020337D02*
X020370Y020337D01*
X020397Y020288D02*
X020517Y020288D01*
X020492Y020240D02*
X020472Y020240D01*
X020547Y020628D02*
X021417Y020628D01*
X021417Y020676D02*
X020547Y020676D01*
X020547Y020725D02*
X021417Y020725D01*
X021417Y020773D02*
X020547Y020773D01*
X020547Y020822D02*
X021417Y020822D01*
X021417Y020870D02*
X020547Y020870D01*
X020547Y020919D02*
X021417Y020919D01*
X021413Y020967D02*
X020547Y020967D01*
X020547Y021016D02*
X021365Y021016D01*
X021316Y021064D02*
X020547Y021064D01*
X020547Y021113D02*
X021268Y021113D01*
X021219Y021161D02*
X020547Y021161D01*
X020547Y021210D02*
X021171Y021210D01*
X021122Y021258D02*
X020547Y021258D01*
X020547Y021307D02*
X021074Y021307D01*
X021025Y021355D02*
X020547Y021355D01*
X020547Y021404D02*
X020977Y021404D01*
X020928Y021452D02*
X020547Y021452D01*
X020547Y021501D02*
X020880Y021501D01*
X020831Y021549D02*
X020547Y021549D01*
X020547Y021598D02*
X020783Y021598D01*
X020734Y021646D02*
X020547Y021646D01*
X020547Y021695D02*
X020686Y021695D01*
X020637Y021743D02*
X020547Y021743D01*
X020217Y021743D02*
X020004Y021743D01*
X020052Y021695D02*
X020217Y021695D01*
X020217Y021646D02*
X020101Y021646D01*
X020149Y021598D02*
X020217Y021598D01*
X020217Y021792D02*
X019955Y021792D01*
X019907Y021840D02*
X020190Y021840D01*
X020142Y021889D02*
X019858Y021889D01*
X019810Y021937D02*
X020093Y021937D01*
X020045Y021986D02*
X019761Y021986D01*
X019713Y022034D02*
X019996Y022034D01*
X019948Y022083D02*
X019664Y022083D01*
X019616Y022131D02*
X019899Y022131D01*
X019851Y022180D02*
X019567Y022180D01*
X019519Y022228D02*
X019817Y022228D01*
X019817Y022277D02*
X019470Y022277D01*
X019422Y022325D02*
X019817Y022325D01*
X019817Y022374D02*
X019373Y022374D01*
X019325Y022422D02*
X019817Y022422D01*
X019817Y022471D02*
X019276Y022471D01*
X019228Y022519D02*
X019817Y022519D01*
X019817Y022568D02*
X019179Y022568D01*
X019131Y022616D02*
X019817Y022616D01*
X019817Y022665D02*
X019082Y022665D01*
X019034Y022713D02*
X019817Y022713D01*
X019817Y022762D02*
X018985Y022762D01*
X018937Y022810D02*
X019817Y022810D01*
X019817Y022859D02*
X018888Y022859D01*
X018850Y022907D02*
X019817Y022907D01*
X019817Y022956D02*
X018852Y022956D01*
X018854Y023004D02*
X019817Y023004D01*
X019817Y023053D02*
X018856Y023053D01*
X018858Y023101D02*
X019817Y023101D01*
X019817Y023150D02*
X018860Y023150D01*
X018862Y023198D02*
X019817Y023198D01*
X019817Y023247D02*
X019558Y023247D01*
X019675Y023295D02*
X019817Y023295D01*
X019817Y023344D02*
X019732Y023344D01*
X019780Y023392D02*
X019817Y023392D01*
X019244Y023247D02*
X018864Y023247D01*
X018866Y023295D02*
X019127Y023295D01*
X019071Y023344D02*
X018868Y023344D01*
X018870Y023392D02*
X019022Y023392D01*
X018974Y023441D02*
X018872Y023441D01*
X018874Y023489D02*
X018952Y023489D01*
X018932Y023538D02*
X018876Y023538D01*
X018878Y023586D02*
X018912Y023586D01*
X018893Y023635D02*
X018880Y023635D01*
X018883Y023683D02*
X018893Y023683D01*
X018885Y023732D02*
X018893Y023732D01*
X018887Y023780D02*
X018893Y023780D01*
X018889Y023829D02*
X018893Y023829D01*
X018891Y023877D02*
X018912Y023877D01*
X018893Y023926D02*
X018932Y023926D01*
X018952Y023974D02*
X018908Y023974D01*
X018956Y024023D02*
X018974Y024023D01*
X019005Y024071D02*
X019022Y024071D01*
X019053Y024120D02*
X019071Y024120D01*
X019102Y024168D02*
X019127Y024168D01*
X019150Y024217D02*
X019244Y024217D01*
X018549Y023594D02*
X018471Y023517D01*
X018293Y023517D01*
X018167Y023643D01*
X018167Y023821D01*
X018217Y023871D01*
X018217Y024434D01*
X018150Y024367D01*
X018115Y024367D01*
X018144Y024338D01*
X018201Y024200D01*
X018201Y024051D01*
X018144Y023913D01*
X018039Y023808D01*
X017901Y023751D01*
X017752Y023751D01*
X017614Y023808D01*
X017597Y023825D01*
X017597Y023663D01*
X017500Y023566D01*
X017394Y023460D01*
X017414Y023413D01*
X017414Y023264D01*
X017357Y023126D01*
X017251Y023020D01*
X017114Y022963D01*
X016964Y022963D01*
X016827Y023020D01*
X016757Y023090D01*
X016757Y022799D01*
X016827Y022869D01*
X016964Y022926D01*
X017114Y022926D01*
X017251Y022869D01*
X017357Y022763D01*
X017414Y022625D01*
X017414Y022476D01*
X017357Y022338D01*
X017251Y022233D01*
X017114Y022176D01*
X016964Y022176D01*
X016827Y022233D01*
X016757Y022303D01*
X016757Y022018D01*
X016820Y022081D01*
X016958Y022138D01*
X017107Y022138D01*
X017245Y022081D01*
X017351Y021976D01*
X017408Y021838D01*
X017408Y021689D01*
X017351Y021551D01*
X017245Y021445D01*
X017107Y021388D01*
X016958Y021388D01*
X016820Y021445D01*
X016757Y021509D01*
X016757Y021104D01*
X017304Y020557D01*
X018304Y020557D01*
X018397Y020464D01*
X018397Y020692D01*
X018355Y020692D01*
X018282Y020765D01*
X018282Y021179D01*
X018355Y021252D01*
X018809Y021252D01*
X018882Y021179D01*
X018882Y020765D01*
X018809Y020692D01*
X018767Y020692D01*
X018767Y020609D01*
X019189Y020187D01*
X019253Y020251D01*
X019490Y020251D01*
X019429Y020312D01*
X019155Y020312D01*
X019082Y020385D01*
X019082Y020799D01*
X019155Y020872D01*
X019609Y020872D01*
X019682Y020799D01*
X019682Y020668D01*
X019753Y020739D01*
X020211Y020739D01*
X020217Y020733D01*
X020217Y021167D01*
X020043Y021167D01*
X019917Y021293D01*
X019917Y021364D01*
X018611Y022670D01*
X018607Y022670D01*
X018563Y022718D01*
X018517Y022764D01*
X018517Y022768D01*
X018514Y022770D01*
X018517Y022835D01*
X018517Y022900D01*
X018520Y022903D01*
X018549Y023594D01*
X018548Y023586D02*
X018540Y023586D01*
X018546Y023538D02*
X018492Y023538D01*
X018544Y023489D02*
X018170Y023489D01*
X018190Y023441D02*
X018542Y023441D01*
X018540Y023392D02*
X018201Y023392D01*
X018201Y023413D02*
X018144Y023551D01*
X018039Y023656D01*
X017901Y023713D01*
X017752Y023713D01*
X017614Y023656D01*
X017508Y023551D01*
X017451Y023413D01*
X017451Y023264D01*
X017508Y023126D01*
X017614Y023020D01*
X017752Y022963D01*
X017901Y022963D01*
X018039Y023020D01*
X018144Y023126D01*
X018201Y023264D01*
X018201Y023413D01*
X018201Y023344D02*
X018538Y023344D01*
X018536Y023295D02*
X018201Y023295D01*
X018194Y023247D02*
X018534Y023247D01*
X018532Y023198D02*
X018174Y023198D01*
X018154Y023150D02*
X018530Y023150D01*
X018528Y023101D02*
X018120Y023101D01*
X018071Y023053D02*
X018526Y023053D01*
X018524Y023004D02*
X018000Y023004D01*
X017945Y022907D02*
X018520Y022907D01*
X018517Y022859D02*
X018049Y022859D01*
X018039Y022869D02*
X017901Y022926D01*
X017752Y022926D01*
X017614Y022869D01*
X017508Y022763D01*
X017451Y022625D01*
X017451Y022476D01*
X017508Y022338D01*
X017614Y022233D01*
X017752Y022176D01*
X017901Y022176D01*
X018039Y022233D01*
X018144Y022338D01*
X018201Y022476D01*
X018201Y022625D01*
X018144Y022763D01*
X018039Y022869D01*
X018097Y022810D02*
X018516Y022810D01*
X018519Y022762D02*
X018145Y022762D01*
X018165Y022713D02*
X018567Y022713D01*
X018616Y022665D02*
X018185Y022665D01*
X018201Y022616D02*
X018664Y022616D01*
X018713Y022568D02*
X018201Y022568D01*
X018201Y022519D02*
X018761Y022519D01*
X018810Y022471D02*
X018199Y022471D01*
X018179Y022422D02*
X018858Y022422D01*
X018907Y022374D02*
X018159Y022374D01*
X018131Y022325D02*
X018955Y022325D01*
X019004Y022277D02*
X018083Y022277D01*
X018028Y022228D02*
X019052Y022228D01*
X019101Y022180D02*
X017911Y022180D01*
X017742Y022180D02*
X017123Y022180D01*
X017124Y022131D02*
X019149Y022131D01*
X019198Y022083D02*
X017241Y022083D01*
X017292Y022034D02*
X019246Y022034D01*
X019295Y021986D02*
X017341Y021986D01*
X017367Y021937D02*
X019343Y021937D01*
X019392Y021889D02*
X017387Y021889D01*
X017407Y021840D02*
X019440Y021840D01*
X019489Y021792D02*
X017408Y021792D01*
X017408Y021743D02*
X019537Y021743D01*
X019586Y021695D02*
X017408Y021695D01*
X017390Y021646D02*
X019634Y021646D01*
X019683Y021598D02*
X017370Y021598D01*
X017349Y021549D02*
X019731Y021549D01*
X019780Y021501D02*
X017300Y021501D01*
X017252Y021452D02*
X019828Y021452D01*
X019877Y021404D02*
X017145Y021404D01*
X016921Y021404D02*
X016757Y021404D01*
X016757Y021452D02*
X016813Y021452D01*
X016765Y021501D02*
X016757Y021501D01*
X016757Y021355D02*
X019917Y021355D01*
X019917Y021307D02*
X016757Y021307D01*
X016757Y021258D02*
X019951Y021258D01*
X020000Y021210D02*
X018851Y021210D01*
X018882Y021161D02*
X020217Y021161D01*
X020217Y021113D02*
X018882Y021113D01*
X018882Y021064D02*
X020217Y021064D01*
X020217Y021016D02*
X018882Y021016D01*
X018882Y020967D02*
X020217Y020967D01*
X020217Y020919D02*
X018882Y020919D01*
X018882Y020870D02*
X019154Y020870D01*
X019105Y020822D02*
X018882Y020822D01*
X018882Y020773D02*
X019082Y020773D01*
X019082Y020725D02*
X018842Y020725D01*
X018767Y020676D02*
X019082Y020676D01*
X019082Y020628D02*
X018767Y020628D01*
X018796Y020579D02*
X019082Y020579D01*
X019082Y020531D02*
X018845Y020531D01*
X018893Y020482D02*
X019082Y020482D01*
X019082Y020434D02*
X018942Y020434D01*
X018990Y020385D02*
X019082Y020385D01*
X019039Y020337D02*
X019130Y020337D01*
X019087Y020288D02*
X019452Y020288D01*
X019242Y020240D02*
X019136Y020240D01*
X019184Y020191D02*
X019194Y020191D01*
X019682Y020676D02*
X019691Y020676D01*
X019682Y020725D02*
X019739Y020725D01*
X019682Y020773D02*
X020217Y020773D01*
X020217Y020822D02*
X019659Y020822D01*
X019610Y020870D02*
X020217Y020870D01*
X020934Y020434D02*
X021380Y020434D01*
X021367Y020385D02*
X020947Y020385D01*
X020947Y020337D02*
X021367Y020337D01*
X021367Y020288D02*
X020947Y020288D01*
X020972Y020240D02*
X020992Y020240D01*
X020971Y019706D02*
X020493Y019706D01*
X020534Y019658D02*
X020930Y019658D01*
X020930Y019609D02*
X020534Y019609D01*
X020534Y019561D02*
X020930Y019561D01*
X020930Y019512D02*
X020534Y019512D01*
X020534Y019464D02*
X020930Y019464D01*
X020930Y019415D02*
X020534Y019415D01*
X020534Y019367D02*
X020930Y019367D01*
X020930Y019318D02*
X020534Y019318D01*
X020518Y019270D02*
X020946Y019270D01*
X020995Y019221D02*
X020469Y019221D01*
X019995Y019221D02*
X019719Y019221D01*
X019688Y019173D02*
X021156Y019173D01*
X021108Y019124D02*
X019737Y019124D01*
X019785Y019076D02*
X021092Y019076D01*
X021092Y019027D02*
X019834Y019027D01*
X019882Y018979D02*
X021092Y018979D01*
X021092Y018930D02*
X019931Y018930D01*
X019979Y018882D02*
X021092Y018882D01*
X021092Y018833D02*
X020028Y018833D01*
X020076Y018785D02*
X021092Y018785D01*
X021092Y018736D02*
X020125Y018736D01*
X020173Y018688D02*
X021092Y018688D01*
X021108Y018639D02*
X020222Y018639D01*
X020270Y018591D02*
X021156Y018591D01*
X021199Y018382D02*
X020785Y018382D01*
X020712Y018309D01*
X020712Y018151D01*
X020707Y018139D01*
X020707Y017285D01*
X020750Y017180D01*
X020830Y017100D01*
X020935Y017057D01*
X021049Y017057D01*
X021153Y017100D01*
X021234Y017180D01*
X021277Y017285D01*
X021277Y018139D01*
X021272Y018151D01*
X021272Y018309D01*
X021199Y018382D01*
X021232Y018348D02*
X021817Y018348D01*
X021817Y018300D02*
X021272Y018300D01*
X021272Y018251D02*
X021817Y018251D01*
X021817Y018203D02*
X021272Y018203D01*
X021272Y018154D02*
X021817Y018154D01*
X021817Y018106D02*
X021277Y018106D01*
X021277Y018057D02*
X021823Y018057D01*
X021872Y018009D02*
X021277Y018009D01*
X021277Y017960D02*
X021920Y017960D01*
X021969Y017912D02*
X021277Y017912D01*
X021277Y017863D02*
X022017Y017863D01*
X022066Y017815D02*
X021277Y017815D01*
X021277Y017766D02*
X022114Y017766D01*
X022163Y017718D02*
X021277Y017718D01*
X021277Y017669D02*
X022211Y017669D01*
X022338Y018009D02*
X025276Y018009D01*
X025324Y018057D02*
X022290Y018057D01*
X022241Y018106D02*
X025373Y018106D01*
X025421Y018154D02*
X022193Y018154D01*
X022147Y018203D02*
X025467Y018203D01*
X025467Y018251D02*
X022147Y018251D01*
X022147Y018300D02*
X025467Y018300D01*
X025467Y018348D02*
X022147Y018348D01*
X022147Y018397D02*
X025467Y018397D01*
X025467Y018445D02*
X022147Y018445D01*
X022147Y018494D02*
X025467Y018494D01*
X025467Y018542D02*
X022147Y018542D01*
X022147Y018591D02*
X025467Y018591D01*
X025467Y018639D02*
X022147Y018639D01*
X022147Y018688D02*
X025467Y018688D01*
X025467Y018736D02*
X023940Y018736D01*
X023989Y018785D02*
X025082Y018785D01*
X025034Y018833D02*
X024037Y018833D01*
X024047Y018882D02*
X025008Y018882D01*
X024988Y018930D02*
X024047Y018930D01*
X024047Y018979D02*
X024987Y018979D01*
X024987Y019027D02*
X024040Y019027D01*
X024065Y019076D02*
X025006Y019076D01*
X025027Y019124D02*
X024114Y019124D01*
X024162Y019173D02*
X025027Y019173D01*
X025027Y019221D02*
X024469Y019221D01*
X024518Y019270D02*
X025027Y019270D01*
X025027Y019318D02*
X024534Y019318D01*
X024534Y019367D02*
X025027Y019367D01*
X025027Y019415D02*
X024534Y019415D01*
X024534Y019464D02*
X025027Y019464D01*
X025027Y019512D02*
X024534Y019512D01*
X024550Y019561D02*
X025027Y019561D01*
X025027Y019609D02*
X024643Y019609D01*
X024691Y019658D02*
X025027Y019658D01*
X025027Y019706D02*
X024740Y019706D01*
X024788Y019755D02*
X025027Y019755D01*
X025027Y019803D02*
X024837Y019803D01*
X025647Y019803D02*
X025680Y019803D01*
X025680Y019852D02*
X025647Y019852D01*
X025647Y019900D02*
X025680Y019900D01*
X025680Y019949D02*
X025647Y019949D01*
X025647Y019997D02*
X025680Y019997D01*
X025680Y020046D02*
X025647Y020046D01*
X025647Y020094D02*
X025680Y020094D01*
X025680Y020143D02*
X025647Y020143D01*
X025647Y020191D02*
X025694Y020191D01*
X025647Y020240D02*
X025742Y020240D01*
X025647Y020288D02*
X028691Y020288D01*
X028642Y020240D02*
X026972Y020240D01*
X027020Y020191D02*
X028594Y020191D01*
X028545Y020143D02*
X027034Y020143D01*
X027034Y020094D02*
X028497Y020094D01*
X028448Y020046D02*
X027034Y020046D01*
X027034Y019997D02*
X028400Y019997D01*
X028351Y019949D02*
X027034Y019949D01*
X027034Y019900D02*
X028303Y019900D01*
X028254Y019852D02*
X027034Y019852D01*
X027034Y019803D02*
X028206Y019803D01*
X028157Y019755D02*
X026991Y019755D01*
X026993Y019706D02*
X028109Y019706D01*
X028060Y019658D02*
X027034Y019658D01*
X027034Y019609D02*
X028012Y019609D01*
X027963Y019561D02*
X027034Y019561D01*
X027037Y019512D02*
X027915Y019512D01*
X027866Y019464D02*
X027037Y019464D01*
X027037Y019415D02*
X027818Y019415D01*
X027769Y019367D02*
X027037Y019367D01*
X027037Y019318D02*
X027721Y019318D01*
X027672Y019270D02*
X027037Y019270D01*
X027037Y019221D02*
X027624Y019221D01*
X027575Y019173D02*
X027088Y019173D01*
X027136Y019124D02*
X027527Y019124D01*
X027478Y019076D02*
X027152Y019076D01*
X027152Y019027D02*
X027430Y019027D01*
X027381Y018979D02*
X027152Y018979D01*
X027152Y018930D02*
X027333Y018930D01*
X027284Y018882D02*
X027152Y018882D01*
X027152Y018833D02*
X027236Y018833D01*
X027187Y018785D02*
X027152Y018785D01*
X027107Y018591D02*
X027088Y018591D01*
X027107Y018542D02*
X025797Y018542D01*
X025797Y018494D02*
X027107Y018494D01*
X027107Y018445D02*
X025797Y018445D01*
X025797Y018397D02*
X027107Y018397D01*
X027107Y018348D02*
X026732Y018348D01*
X026699Y018382D02*
X026285Y018382D01*
X026212Y018309D01*
X026212Y018151D01*
X026207Y018139D01*
X026207Y017215D01*
X026250Y017110D01*
X026330Y017030D01*
X026435Y016987D01*
X026549Y016987D01*
X026653Y017030D01*
X026734Y017110D01*
X026777Y017215D01*
X026777Y018139D01*
X026772Y018151D01*
X026772Y018309D01*
X026699Y018382D01*
X026772Y018300D02*
X027107Y018300D01*
X027107Y018251D02*
X026772Y018251D01*
X026772Y018203D02*
X027107Y018203D01*
X027107Y018154D02*
X026772Y018154D01*
X026777Y018106D02*
X027107Y018106D01*
X027107Y018057D02*
X026777Y018057D01*
X026777Y018009D02*
X027107Y018009D01*
X027107Y017960D02*
X026777Y017960D01*
X026777Y017912D02*
X027107Y017912D01*
X027107Y017863D02*
X026777Y017863D01*
X026777Y017815D02*
X027107Y017815D01*
X027069Y017766D02*
X026777Y017766D01*
X026777Y017718D02*
X027020Y017718D01*
X026972Y017669D02*
X026777Y017669D01*
X026777Y017621D02*
X026957Y017621D01*
X026957Y017572D02*
X026777Y017572D01*
X026777Y017524D02*
X026957Y017524D01*
X026957Y017475D02*
X026777Y017475D01*
X026777Y017427D02*
X026957Y017427D01*
X026957Y017378D02*
X026777Y017378D01*
X026777Y017330D02*
X026957Y017330D01*
X026957Y017281D02*
X026777Y017281D01*
X026777Y017233D02*
X026957Y017233D01*
X026957Y017184D02*
X026764Y017184D01*
X026744Y017136D02*
X026957Y017136D01*
X026957Y017087D02*
X026710Y017087D01*
X026662Y017039D02*
X026957Y017039D01*
X026957Y016990D02*
X026557Y016990D01*
X026427Y016990D02*
X024277Y016990D01*
X024310Y017039D02*
X026322Y017039D01*
X026273Y017087D02*
X024471Y017087D01*
X024519Y017136D02*
X026240Y017136D01*
X026220Y017184D02*
X024568Y017184D01*
X024616Y017233D02*
X026207Y017233D01*
X026207Y017281D02*
X024665Y017281D01*
X024697Y017330D02*
X026207Y017330D01*
X026207Y017378D02*
X024697Y017378D01*
X024697Y017427D02*
X026207Y017427D01*
X026207Y017475D02*
X024697Y017475D01*
X024697Y017524D02*
X026207Y017524D01*
X026207Y017572D02*
X024706Y017572D01*
X024754Y017621D02*
X026207Y017621D01*
X026207Y017669D02*
X025403Y017669D01*
X025451Y017718D02*
X026207Y017718D01*
X026207Y017766D02*
X025500Y017766D01*
X025548Y017815D02*
X026207Y017815D01*
X026207Y017863D02*
X025597Y017863D01*
X025645Y017912D02*
X026207Y017912D01*
X026207Y017960D02*
X025694Y017960D01*
X025742Y018009D02*
X026207Y018009D01*
X026207Y018057D02*
X025791Y018057D01*
X025797Y018106D02*
X026207Y018106D01*
X026212Y018154D02*
X025797Y018154D01*
X025797Y018203D02*
X026212Y018203D01*
X026212Y018251D02*
X025797Y018251D01*
X025797Y018300D02*
X026212Y018300D01*
X026252Y018348D02*
X025797Y018348D01*
X025797Y018591D02*
X026656Y018591D01*
X026608Y018639D02*
X025797Y018639D01*
X025797Y018688D02*
X026592Y018688D01*
X026592Y018736D02*
X025797Y018736D01*
X025797Y018785D02*
X026592Y018785D01*
X026592Y018833D02*
X025797Y018833D01*
X025797Y018882D02*
X026592Y018882D01*
X026592Y018930D02*
X025797Y018930D01*
X025797Y018979D02*
X026592Y018979D01*
X026592Y019027D02*
X025797Y019027D01*
X025797Y019076D02*
X026592Y019076D01*
X026608Y019124D02*
X025797Y019124D01*
X025797Y019173D02*
X026656Y019173D01*
X026495Y019221D02*
X025776Y019221D01*
X025727Y019270D02*
X026446Y019270D01*
X026430Y019318D02*
X025679Y019318D01*
X025647Y019367D02*
X026430Y019367D01*
X026430Y019415D02*
X025647Y019415D01*
X025647Y019464D02*
X026430Y019464D01*
X026430Y019512D02*
X025647Y019512D01*
X025647Y019561D02*
X026430Y019561D01*
X026430Y019609D02*
X025647Y019609D01*
X025647Y019658D02*
X026430Y019658D01*
X026471Y019706D02*
X025647Y019706D01*
X025647Y019755D02*
X025723Y019755D01*
X026241Y019755D02*
X026473Y019755D01*
X026287Y020191D02*
X026270Y020191D01*
X026222Y020240D02*
X026492Y020240D01*
X026966Y020482D02*
X028885Y020482D01*
X028836Y020434D02*
X025717Y020434D01*
X025669Y020385D02*
X028788Y020385D01*
X028739Y020337D02*
X025647Y020337D01*
X027014Y020531D02*
X028933Y020531D01*
X028982Y020579D02*
X027063Y020579D01*
X027111Y020628D02*
X030580Y020628D01*
X030629Y020676D02*
X027160Y020676D01*
X027208Y020725D02*
X028711Y020725D01*
X028754Y020682D02*
X029210Y020682D01*
X029532Y021004D01*
X029532Y021460D01*
X029210Y021782D01*
X028754Y021782D01*
X028432Y021460D01*
X028432Y021004D01*
X028754Y020682D01*
X028663Y020773D02*
X027257Y020773D01*
X027305Y020822D02*
X028614Y020822D01*
X028566Y020870D02*
X027354Y020870D01*
X027397Y020919D02*
X028517Y020919D01*
X028469Y020967D02*
X027397Y020967D01*
X027397Y021016D02*
X028432Y021016D01*
X028432Y021064D02*
X027397Y021064D01*
X027397Y021113D02*
X028432Y021113D01*
X028432Y021161D02*
X027569Y021161D01*
X027605Y021210D02*
X028432Y021210D01*
X028432Y021258D02*
X027605Y021258D01*
X027605Y021307D02*
X028432Y021307D01*
X028432Y021355D02*
X027605Y021355D01*
X027605Y021404D02*
X028432Y021404D01*
X028432Y021452D02*
X027605Y021452D01*
X027605Y021501D02*
X028473Y021501D01*
X028522Y021549D02*
X027573Y021549D01*
X027548Y021889D02*
X030277Y021889D01*
X030326Y021840D02*
X026913Y021840D01*
X026937Y021792D02*
X030374Y021792D01*
X030423Y021743D02*
X029248Y021743D01*
X029297Y021695D02*
X030471Y021695D01*
X030520Y021646D02*
X029345Y021646D01*
X029394Y021598D02*
X030568Y021598D01*
X030617Y021549D02*
X029442Y021549D01*
X029491Y021501D02*
X030665Y021501D01*
X030714Y021452D02*
X029532Y021452D01*
X029532Y021404D02*
X030757Y021404D01*
X030757Y021355D02*
X029532Y021355D01*
X029532Y021307D02*
X030757Y021307D01*
X030757Y021258D02*
X029532Y021258D01*
X029532Y021210D02*
X030757Y021210D01*
X030757Y021161D02*
X029532Y021161D01*
X029532Y021113D02*
X030757Y021113D01*
X030757Y021064D02*
X029532Y021064D01*
X029532Y021016D02*
X030757Y021016D01*
X030757Y020967D02*
X029495Y020967D01*
X029447Y020919D02*
X030757Y020919D01*
X030757Y020870D02*
X029398Y020870D01*
X029350Y020822D02*
X030757Y020822D01*
X030726Y020773D02*
X029301Y020773D01*
X029253Y020725D02*
X030677Y020725D01*
X030930Y020482D02*
X031232Y020482D01*
X031232Y020434D02*
X030881Y020434D01*
X030833Y020385D02*
X031232Y020385D01*
X031232Y020337D02*
X030784Y020337D01*
X030736Y020288D02*
X031232Y020288D01*
X031232Y020240D02*
X029137Y020240D01*
X029089Y020191D02*
X031232Y020191D01*
X031232Y020143D02*
X029040Y020143D01*
X028992Y020094D02*
X031232Y020094D01*
X031232Y020046D02*
X030495Y020046D01*
X030515Y019997D02*
X031232Y019997D01*
X031232Y019949D02*
X030535Y019949D01*
X030556Y019900D02*
X031232Y019900D01*
X031232Y019852D02*
X030577Y019852D01*
X030598Y019803D02*
X031232Y019803D01*
X031232Y019755D02*
X030618Y019755D01*
X030639Y019706D02*
X031206Y019706D01*
X031158Y019658D02*
X030660Y019658D01*
X030680Y019609D02*
X031109Y019609D01*
X031061Y019561D02*
X030701Y019561D01*
X030722Y019512D02*
X031012Y019512D01*
X030964Y019464D02*
X030743Y019464D01*
X030766Y019415D02*
X030915Y019415D01*
X030867Y019367D02*
X030791Y019367D01*
X030816Y019318D02*
X030818Y019318D01*
X030102Y019900D02*
X029416Y019900D01*
X029464Y019852D02*
X030020Y019852D01*
X029952Y019803D02*
X029513Y019803D01*
X029561Y019755D02*
X029889Y019755D01*
X029826Y019706D02*
X029610Y019706D01*
X029658Y019658D02*
X029763Y019658D01*
X029367Y019949D02*
X030185Y019949D01*
X030267Y019997D02*
X029319Y019997D01*
X029270Y020046D02*
X030350Y020046D01*
X030978Y020531D02*
X031232Y020531D01*
X031232Y020579D02*
X031027Y020579D01*
X031004Y020557D02*
X031004Y020557D01*
X031075Y020628D02*
X031232Y020628D01*
X031232Y020676D02*
X031107Y020676D01*
X031107Y020725D02*
X031232Y020725D01*
X031232Y020773D02*
X031107Y020773D01*
X031107Y020822D02*
X031232Y020822D01*
X031232Y020870D02*
X031107Y020870D01*
X031107Y020919D02*
X031232Y020919D01*
X031232Y020967D02*
X031107Y020967D01*
X031107Y021016D02*
X031232Y021016D01*
X031232Y021064D02*
X031107Y021064D01*
X031107Y021113D02*
X031232Y021113D01*
X031232Y021161D02*
X031107Y021161D01*
X031107Y021210D02*
X031231Y021210D01*
X031219Y021258D02*
X031107Y021258D01*
X031107Y021307D02*
X031208Y021307D01*
X031196Y021355D02*
X031107Y021355D01*
X031107Y021404D02*
X031184Y021404D01*
X031172Y021452D02*
X031107Y021452D01*
X031107Y021501D02*
X031161Y021501D01*
X031149Y021549D02*
X031107Y021549D01*
X031137Y021598D02*
X031063Y021598D01*
X031015Y021646D02*
X031125Y021646D01*
X031113Y021695D02*
X030966Y021695D01*
X030918Y021743D02*
X031102Y021743D01*
X031090Y021792D02*
X030869Y021792D01*
X030821Y021840D02*
X031080Y021840D01*
X031082Y021823D02*
X031082Y021823D01*
X031074Y021889D02*
X030772Y021889D01*
X030724Y021937D02*
X031069Y021937D01*
X031063Y021986D02*
X030863Y021986D01*
X030907Y022034D02*
X031057Y022034D01*
X031051Y022083D02*
X030907Y022083D01*
X030907Y022131D02*
X031045Y022131D01*
X031040Y022180D02*
X030907Y022180D01*
X030907Y022228D02*
X031034Y022228D01*
X031028Y022277D02*
X030907Y022277D01*
X030907Y022325D02*
X031022Y022325D01*
X031016Y022374D02*
X030907Y022374D01*
X030907Y022422D02*
X031011Y022422D01*
X031005Y022471D02*
X030907Y022471D01*
X030907Y022519D02*
X030999Y022519D01*
X030993Y022568D02*
X030873Y022568D01*
X030987Y022616D02*
X030720Y022616D01*
X030747Y022665D02*
X030982Y022665D01*
X030976Y022713D02*
X030747Y022713D01*
X030747Y022762D02*
X030970Y022762D01*
X030964Y022810D02*
X030747Y022810D01*
X030709Y022859D02*
X030958Y022859D01*
X030953Y022907D02*
X030660Y022907D01*
X030958Y024605D02*
X030107Y024605D01*
X030107Y024653D02*
X030964Y024653D01*
X030970Y024702D02*
X030107Y024702D01*
X030107Y024750D02*
X030976Y024750D01*
X030982Y024799D02*
X030107Y024799D01*
X030068Y024847D02*
X030987Y024847D01*
X030993Y024896D02*
X030873Y024896D01*
X030907Y024944D02*
X030999Y024944D01*
X031005Y024993D02*
X030907Y024993D01*
X030907Y025041D02*
X031011Y025041D01*
X031016Y025090D02*
X030907Y025090D01*
X030907Y025138D02*
X031022Y025138D01*
X031028Y025187D02*
X030907Y025187D01*
X030907Y025235D02*
X031034Y025235D01*
X031040Y025284D02*
X030907Y025284D01*
X030907Y025332D02*
X031045Y025332D01*
X031051Y025381D02*
X030907Y025381D01*
X030907Y025429D02*
X031057Y025429D01*
X031063Y025478D02*
X030863Y025478D01*
X031069Y025526D02*
X028866Y025526D01*
X028915Y025575D02*
X031074Y025575D01*
X031080Y025623D02*
X028963Y025623D01*
X029012Y025672D02*
X031090Y025672D01*
X031102Y025720D02*
X030417Y025720D01*
X030465Y025769D02*
X031113Y025769D01*
X031125Y025817D02*
X030469Y025817D01*
X030469Y025866D02*
X031137Y025866D01*
X031149Y025914D02*
X030469Y025914D01*
X030469Y025963D02*
X031161Y025963D01*
X031172Y026011D02*
X030469Y026011D01*
X030469Y026060D02*
X031184Y026060D01*
X031196Y026108D02*
X030469Y026108D01*
X030469Y026157D02*
X031208Y026157D01*
X031219Y026205D02*
X030455Y026205D01*
X030406Y026254D02*
X031231Y026254D01*
X031232Y026302D02*
X030306Y026302D01*
X030355Y026351D02*
X031232Y026351D01*
X031232Y026399D02*
X030397Y026399D01*
X030397Y026448D02*
X030762Y026448D01*
X030713Y026496D02*
X030397Y026496D01*
X030397Y026545D02*
X030667Y026545D01*
X030667Y026593D02*
X030374Y026593D01*
X030326Y026642D02*
X030667Y026642D01*
X030667Y026690D02*
X030277Y026690D01*
X030158Y026739D02*
X030685Y026739D01*
X030707Y026787D02*
X030110Y026787D01*
X030061Y026836D02*
X030707Y026836D01*
X030707Y026884D02*
X030013Y026884D01*
X029979Y026933D02*
X030707Y026933D01*
X030707Y026981D02*
X029930Y026981D01*
X029434Y026981D02*
X028632Y026981D01*
X028632Y026933D02*
X029385Y026933D01*
X029380Y026884D02*
X028632Y026884D01*
X028632Y026836D02*
X029380Y026836D01*
X029380Y026787D02*
X028632Y026787D01*
X028632Y026739D02*
X028872Y026739D01*
X028832Y026690D02*
X028632Y026690D01*
X028609Y026642D02*
X028832Y026642D01*
X028832Y026593D02*
X028560Y026593D01*
X028600Y026351D02*
X028832Y026351D01*
X028832Y026399D02*
X028003Y026399D01*
X028047Y026448D02*
X028832Y026448D01*
X028832Y026496D02*
X028047Y026496D01*
X028047Y026545D02*
X028832Y026545D01*
X028832Y026302D02*
X028632Y026302D01*
X028632Y026254D02*
X028863Y026254D01*
X028927Y026205D02*
X028632Y026205D01*
X028632Y026157D02*
X028917Y026157D01*
X028868Y026108D02*
X028632Y026108D01*
X028632Y026060D02*
X028820Y026060D01*
X028771Y026011D02*
X028632Y026011D01*
X028632Y025963D02*
X028723Y025963D01*
X028674Y025914D02*
X028632Y025914D01*
X028626Y025866D02*
X028593Y025866D01*
X028577Y025817D02*
X028093Y025817D01*
X028045Y025769D02*
X028529Y025769D01*
X028480Y025720D02*
X027996Y025720D01*
X027948Y025672D02*
X028432Y025672D01*
X028383Y025623D02*
X026489Y025623D01*
X026489Y025575D02*
X028335Y025575D01*
X028347Y025587D02*
X028347Y025587D01*
X028286Y025526D02*
X026489Y025526D01*
X026489Y025478D02*
X028238Y025478D01*
X028227Y025429D02*
X026489Y025429D01*
X026489Y025381D02*
X028227Y025381D01*
X028227Y025332D02*
X026489Y025332D01*
X026548Y025284D02*
X026475Y025211D01*
X026475Y024847D01*
X026000Y024847D01*
X025997Y024850D01*
X025997Y025219D01*
X026036Y025180D01*
X026416Y025180D01*
X026489Y025253D01*
X026500Y025235D02*
X026471Y025235D01*
X026475Y025187D02*
X026423Y025187D01*
X026475Y025138D02*
X025997Y025138D01*
X025997Y025090D02*
X026475Y025090D01*
X026475Y025041D02*
X025997Y025041D01*
X025997Y024993D02*
X026475Y024993D01*
X026475Y024944D02*
X025997Y024944D01*
X025997Y024896D02*
X026475Y024896D01*
X026475Y024847D02*
X026000Y024847D01*
X025997Y025187D02*
X026029Y025187D01*
X026489Y025672D02*
X027116Y025672D01*
X027068Y025720D02*
X026968Y025720D01*
X027001Y025769D02*
X027019Y025769D01*
X027001Y025787D02*
X027001Y025787D01*
X027280Y026060D02*
X027784Y026060D01*
X027833Y026108D02*
X027231Y026108D01*
X027253Y026157D02*
X027881Y026157D01*
X027930Y026205D02*
X027295Y026205D01*
X027315Y026254D02*
X027978Y026254D01*
X028027Y026302D02*
X027327Y026302D01*
X027327Y026351D02*
X027709Y026351D01*
X027660Y026399D02*
X027319Y026399D01*
X027299Y026448D02*
X027617Y026448D01*
X027955Y026351D02*
X028064Y026351D01*
X028032Y026933D02*
X027779Y026933D01*
X027730Y026981D02*
X028032Y026981D01*
X028032Y027030D02*
X026157Y027030D01*
X026157Y027078D02*
X028032Y027078D01*
X028080Y027127D02*
X026157Y027127D01*
X026157Y027175D02*
X030694Y027175D01*
X030707Y027127D02*
X028584Y027127D01*
X028632Y027078D02*
X030707Y027078D01*
X030707Y027030D02*
X028632Y027030D01*
X028502Y027466D02*
X029129Y027466D01*
X029178Y027418D02*
X026115Y027418D01*
X026067Y027369D02*
X030767Y027369D01*
X030748Y027321D02*
X026040Y027321D01*
X026089Y027272D02*
X030725Y027272D01*
X030707Y027224D02*
X026137Y027224D01*
X025807Y027059D02*
X025807Y026859D01*
X025909Y026757D01*
X025909Y026757D01*
X025979Y026687D01*
X026022Y026644D01*
X026022Y026570D01*
X026075Y026517D01*
X026059Y026517D01*
X025777Y026799D01*
X025777Y026831D01*
X025740Y026921D01*
X025671Y026990D01*
X025611Y027014D01*
X025609Y027017D01*
X025605Y027017D01*
X025581Y027027D01*
X025560Y027027D01*
X025534Y027041D01*
X025499Y027076D01*
X025469Y027076D01*
X025443Y027090D01*
X025396Y027076D01*
X024994Y027076D01*
X024993Y027075D01*
X024861Y027075D01*
X024841Y027055D01*
X024841Y027121D01*
X024861Y027101D01*
X025280Y027101D01*
X025289Y027110D01*
X025756Y027110D01*
X025807Y027059D01*
X025788Y027078D02*
X025466Y027078D01*
X025403Y027078D02*
X024841Y027078D01*
X025555Y027030D02*
X025807Y027030D01*
X025807Y026981D02*
X025679Y026981D01*
X025727Y026933D02*
X025807Y026933D01*
X025807Y026884D02*
X025755Y026884D01*
X025775Y026836D02*
X025830Y026836D01*
X025788Y026787D02*
X025879Y026787D01*
X025837Y026739D02*
X025927Y026739D01*
X025885Y026690D02*
X025976Y026690D01*
X025979Y026687D02*
X025979Y026687D01*
X026022Y026642D02*
X025934Y026642D01*
X025982Y026593D02*
X026022Y026593D01*
X026031Y026545D02*
X026047Y026545D01*
X026479Y025720D02*
X026508Y025720D01*
X026928Y025284D02*
X028227Y025284D01*
X028227Y025235D02*
X027714Y025235D01*
X027763Y025187D02*
X028227Y025187D01*
X028227Y025138D02*
X027809Y025138D01*
X027857Y025090D02*
X028227Y025090D01*
X028227Y025041D02*
X027906Y025041D01*
X027954Y024993D02*
X028227Y024993D01*
X028227Y024944D02*
X028003Y024944D01*
X028051Y024896D02*
X028227Y024896D01*
X028227Y024847D02*
X028100Y024847D01*
X028148Y024799D02*
X028227Y024799D01*
X029167Y024944D02*
X029557Y024944D01*
X029557Y024993D02*
X029167Y024993D01*
X029167Y025041D02*
X029557Y025041D01*
X029557Y025090D02*
X029167Y025090D01*
X029167Y025138D02*
X029557Y025138D01*
X029557Y025187D02*
X029167Y025187D01*
X029167Y025235D02*
X029557Y025235D01*
X029557Y025284D02*
X029167Y025284D01*
X029149Y025332D02*
X029557Y025332D01*
X029557Y025381D02*
X029129Y025381D01*
X029087Y025429D02*
X029557Y025429D01*
X029601Y025478D02*
X029033Y025478D01*
X029984Y026302D02*
X030057Y026302D01*
X030009Y026351D02*
X029984Y026351D01*
X031002Y026448D02*
X031232Y026448D01*
X031232Y026496D02*
X031050Y026496D01*
X031097Y026545D02*
X031232Y026545D01*
X031232Y026593D02*
X031097Y026593D01*
X031097Y026642D02*
X031232Y026642D01*
X031232Y026690D02*
X031097Y026690D01*
X031079Y026739D02*
X031232Y026739D01*
X031232Y026787D02*
X031057Y026787D01*
X031057Y026836D02*
X031232Y026836D01*
X031232Y026884D02*
X031057Y026884D01*
X031057Y026933D02*
X031232Y026933D01*
X031232Y026981D02*
X031057Y026981D01*
X031057Y027030D02*
X031232Y027030D01*
X031232Y027078D02*
X031057Y027078D01*
X031057Y027127D02*
X031232Y027127D01*
X031232Y027175D02*
X031069Y027175D01*
X031089Y027224D02*
X031232Y027224D01*
X031232Y027272D02*
X031109Y027272D01*
X031130Y027321D02*
X031232Y027321D01*
X031232Y027369D02*
X031150Y027369D01*
X031170Y027418D02*
X031232Y027418D01*
X031232Y027466D02*
X031190Y027466D01*
X031211Y027515D02*
X031232Y027515D01*
X031231Y027563D02*
X031232Y027563D01*
X030900Y027709D02*
X030618Y027709D01*
X030598Y027660D02*
X030881Y027660D01*
X030862Y027612D02*
X030577Y027612D01*
X030556Y027563D02*
X030843Y027563D01*
X030824Y027515D02*
X030535Y027515D01*
X030515Y027466D02*
X030805Y027466D01*
X030786Y027418D02*
X030495Y027418D01*
X030350Y027418D02*
X029270Y027418D01*
X029319Y027466D02*
X030267Y027466D01*
X030185Y027515D02*
X029367Y027515D01*
X029416Y027563D02*
X030102Y027563D01*
X030020Y027612D02*
X029464Y027612D01*
X029513Y027660D02*
X029952Y027660D01*
X029998Y027625D02*
X029998Y027625D01*
X029889Y027709D02*
X029561Y027709D01*
X029610Y027757D02*
X029826Y027757D01*
X029763Y027806D02*
X029658Y027806D01*
X029081Y027515D02*
X028598Y027515D01*
X028646Y027563D02*
X029032Y027563D01*
X028984Y027612D02*
X028677Y027612D01*
X028697Y027660D02*
X028935Y027660D01*
X028887Y027709D02*
X028707Y027709D01*
X028707Y027757D02*
X028838Y027757D01*
X028790Y027806D02*
X028704Y027806D01*
X028684Y027854D02*
X028741Y027854D01*
X028644Y027951D02*
X028615Y027951D01*
X028596Y028000D02*
X028544Y028000D01*
X028547Y028048D02*
X027632Y028048D01*
X027632Y028000D02*
X027883Y028000D01*
X027835Y027951D02*
X027632Y027951D01*
X027620Y027903D02*
X027832Y027903D01*
X027832Y027854D02*
X027571Y027854D01*
X027632Y028097D02*
X028499Y028097D01*
X028450Y028145D02*
X027632Y028145D01*
X027632Y028194D02*
X028402Y028194D01*
X028353Y028242D02*
X027632Y028242D01*
X027632Y028291D02*
X028305Y028291D01*
X028256Y028339D02*
X027621Y028339D01*
X027573Y028388D02*
X028208Y028388D01*
X028159Y028436D02*
X027497Y028436D01*
X027497Y028485D02*
X028111Y028485D01*
X028062Y028533D02*
X027497Y028533D01*
X027465Y028582D02*
X028014Y028582D01*
X027965Y028630D02*
X027417Y028630D01*
X027368Y028679D02*
X027917Y028679D01*
X027868Y028727D02*
X027320Y028727D01*
X027271Y028776D02*
X027820Y028776D01*
X027771Y028824D02*
X027223Y028824D01*
X027197Y028873D02*
X027723Y028873D01*
X027674Y028921D02*
X027197Y028921D01*
X027177Y028970D02*
X027626Y028970D01*
X027577Y029018D02*
X027129Y029018D01*
X027080Y029067D02*
X027529Y029067D01*
X027480Y029115D02*
X027032Y029115D01*
X027001Y029164D02*
X027432Y029164D01*
X027407Y029212D02*
X026999Y029212D01*
X026951Y029261D02*
X027409Y029261D01*
X027457Y029309D02*
X026489Y029309D01*
X026489Y029261D02*
X026525Y029261D01*
X026489Y029358D02*
X027506Y029358D01*
X027554Y029406D02*
X026489Y029406D01*
X026489Y029455D02*
X027603Y029455D01*
X027651Y029503D02*
X026489Y029503D01*
X026489Y029552D02*
X027700Y029552D01*
X027748Y029600D02*
X026489Y029600D01*
X026489Y029649D02*
X027797Y029649D01*
X027845Y029697D02*
X026945Y029697D01*
X026994Y029746D02*
X027819Y029746D01*
X027782Y029794D02*
X027001Y029794D01*
X027001Y029843D02*
X027744Y029843D01*
X027707Y029891D02*
X027001Y029891D01*
X027001Y029940D02*
X027670Y029940D01*
X027632Y029988D02*
X027001Y029988D01*
X027001Y030037D02*
X027602Y030037D01*
X027573Y030085D02*
X027001Y030085D01*
X027001Y030134D02*
X027545Y030134D01*
X027516Y030182D02*
X027001Y030182D01*
X026980Y030231D02*
X027488Y030231D01*
X027459Y030279D02*
X026932Y030279D01*
X026769Y030328D02*
X027431Y030328D01*
X027400Y030376D02*
X026721Y030376D01*
X026672Y030425D02*
X027381Y030425D01*
X027397Y030473D02*
X026624Y030473D01*
X026575Y030522D02*
X027483Y030522D01*
X027597Y030570D02*
X025027Y030570D01*
X025047Y030522D02*
X025689Y030522D01*
X025569Y030473D02*
X025047Y030473D01*
X025047Y030425D02*
X025521Y030425D01*
X025472Y030376D02*
X025047Y030376D01*
X025047Y030328D02*
X025467Y030328D01*
X025467Y030279D02*
X025068Y030279D01*
X025116Y030231D02*
X025467Y030231D01*
X025477Y030182D02*
X025165Y030182D01*
X025213Y030134D02*
X025526Y030134D01*
X025574Y030085D02*
X025262Y030085D01*
X025789Y030085D02*
X025802Y030085D01*
X025838Y030134D02*
X025851Y030134D01*
X025886Y030182D02*
X025963Y030182D01*
X026489Y029697D02*
X026531Y029697D01*
X025963Y029267D02*
X025963Y029253D01*
X025984Y029232D01*
X025963Y029211D01*
X025963Y028753D01*
X025984Y028732D01*
X025963Y028711D01*
X025963Y028647D01*
X025850Y028647D01*
X025800Y028697D01*
X025414Y028697D01*
X025323Y028607D01*
X025280Y028650D01*
X025247Y028650D01*
X025247Y029217D01*
X025421Y029217D01*
X025471Y029267D01*
X025963Y029267D01*
X025963Y029261D02*
X025465Y029261D01*
X025247Y029212D02*
X025965Y029212D01*
X025963Y029164D02*
X025247Y029164D01*
X025247Y029115D02*
X025963Y029115D01*
X025963Y029067D02*
X025247Y029067D01*
X025247Y029018D02*
X025963Y029018D01*
X025963Y028970D02*
X025247Y028970D01*
X025247Y028921D02*
X025963Y028921D01*
X025963Y028873D02*
X025247Y028873D01*
X025247Y028824D02*
X025963Y028824D01*
X025963Y028776D02*
X025247Y028776D01*
X025247Y028727D02*
X025980Y028727D01*
X025963Y028679D02*
X025818Y028679D01*
X025797Y028291D02*
X025963Y028291D01*
X025974Y028242D02*
X025825Y028242D01*
X025874Y028194D02*
X026022Y028194D01*
X025922Y028145D02*
X027032Y028145D01*
X027032Y028097D02*
X025947Y028097D01*
X025947Y028048D02*
X027032Y028048D01*
X027032Y028000D02*
X026068Y028000D01*
X026430Y028194D02*
X026534Y028194D01*
X026486Y028242D02*
X026478Y028242D01*
X026942Y028194D02*
X027032Y028194D01*
X027032Y027951D02*
X026884Y027951D01*
X026933Y027903D02*
X027044Y027903D01*
X027093Y027854D02*
X026942Y027854D01*
X026942Y027806D02*
X027832Y027806D01*
X027832Y027757D02*
X026942Y027757D01*
X026942Y027709D02*
X027832Y027709D01*
X027832Y027660D02*
X026942Y027660D01*
X026942Y027612D02*
X027832Y027612D01*
X027901Y027466D02*
X026893Y027466D01*
X026909Y026981D02*
X027234Y026981D01*
X027185Y026933D02*
X026942Y026933D01*
X026942Y026884D02*
X027180Y026884D01*
X027180Y026836D02*
X026942Y026836D01*
X026942Y026787D02*
X027180Y026787D01*
X027180Y026739D02*
X026942Y026739D01*
X026942Y026690D02*
X027180Y026690D01*
X027180Y026642D02*
X026942Y026642D01*
X026942Y026593D02*
X027180Y026593D01*
X026956Y026545D02*
X026917Y026545D01*
X026976Y025235D02*
X027250Y025235D01*
X027201Y025187D02*
X027001Y025187D01*
X027001Y025138D02*
X027180Y025138D01*
X027180Y025090D02*
X027007Y025090D01*
X027056Y025041D02*
X027180Y025041D01*
X027180Y024993D02*
X027104Y024993D01*
X027153Y024944D02*
X027180Y024944D01*
X026101Y023780D02*
X025563Y023780D01*
X025659Y023829D02*
X026005Y023829D01*
X025956Y023877D02*
X025708Y023877D01*
X025752Y023926D02*
X025911Y023926D01*
X025891Y023974D02*
X025773Y023974D01*
X025793Y024023D02*
X025858Y024023D01*
X025809Y024071D02*
X025807Y024071D01*
X026005Y023635D02*
X024878Y023635D01*
X024878Y023683D02*
X026101Y023683D01*
X025956Y023586D02*
X024878Y023586D01*
X024870Y023538D02*
X025911Y023538D01*
X025891Y023489D02*
X024878Y023489D01*
X024878Y023441D02*
X025871Y023441D01*
X025857Y023392D02*
X024878Y023392D01*
X024953Y023344D02*
X025857Y023344D01*
X025857Y023295D02*
X025002Y023295D01*
X025050Y023247D02*
X025861Y023247D01*
X025881Y023198D02*
X025099Y023198D01*
X025147Y023150D02*
X025901Y023150D01*
X025932Y023101D02*
X025196Y023101D01*
X025244Y023053D02*
X025981Y023053D01*
X026043Y023004D02*
X025293Y023004D01*
X025251Y022667D02*
X026277Y022667D01*
X026135Y022525D01*
X026015Y022405D01*
X026015Y022339D01*
X025932Y022339D01*
X025859Y022266D01*
X025859Y021946D01*
X025932Y021873D01*
X026301Y021873D01*
X026527Y021647D01*
X026527Y021572D01*
X026508Y021591D01*
X025932Y021591D01*
X025864Y021523D01*
X025784Y021523D01*
X025784Y021666D01*
X025711Y021739D01*
X025317Y021739D01*
X025317Y022363D01*
X025347Y022393D01*
X025347Y022571D01*
X025251Y022667D01*
X025253Y022665D02*
X026275Y022665D01*
X026226Y022616D02*
X025301Y022616D01*
X025347Y022568D02*
X026178Y022568D01*
X026129Y022519D02*
X025347Y022519D01*
X025347Y022471D02*
X026081Y022471D01*
X026032Y022422D02*
X025347Y022422D01*
X025328Y022374D02*
X026015Y022374D01*
X025918Y022325D02*
X025317Y022325D01*
X025317Y022277D02*
X025870Y022277D01*
X025859Y022228D02*
X025317Y022228D01*
X025317Y022180D02*
X025859Y022180D01*
X025859Y022131D02*
X025317Y022131D01*
X025317Y022083D02*
X025859Y022083D01*
X025859Y022034D02*
X025317Y022034D01*
X025317Y021986D02*
X025859Y021986D01*
X025867Y021937D02*
X025317Y021937D01*
X025317Y021889D02*
X025916Y021889D01*
X025755Y021695D02*
X026479Y021695D01*
X026527Y021646D02*
X025784Y021646D01*
X025784Y021598D02*
X026527Y021598D01*
X026430Y021743D02*
X025317Y021743D01*
X025317Y021792D02*
X026382Y021792D01*
X026333Y021840D02*
X025317Y021840D01*
X025784Y021549D02*
X025890Y021549D01*
X026622Y022131D02*
X026883Y022131D01*
X026883Y022083D02*
X026671Y022083D01*
X026719Y022034D02*
X026883Y022034D01*
X026883Y021986D02*
X026768Y021986D01*
X026816Y021937D02*
X026891Y021937D01*
X026865Y021889D02*
X026939Y021889D01*
X026937Y021743D02*
X028716Y021743D01*
X028667Y021695D02*
X026937Y021695D01*
X026937Y021646D02*
X028619Y021646D01*
X028570Y021598D02*
X026937Y021598D01*
X026637Y022180D02*
X026581Y022180D01*
X026581Y022228D02*
X026589Y022228D01*
X028846Y019949D02*
X029081Y019949D01*
X029129Y019997D02*
X028895Y019997D01*
X028943Y020046D02*
X029178Y020046D01*
X029032Y019900D02*
X028798Y019900D01*
X028749Y019852D02*
X028984Y019852D01*
X028935Y019803D02*
X028701Y019803D01*
X028652Y019755D02*
X028887Y019755D01*
X028838Y019706D02*
X028604Y019706D01*
X028555Y019658D02*
X028790Y019658D01*
X028741Y019609D02*
X028507Y019609D01*
X028458Y019561D02*
X028693Y019561D01*
X028644Y019512D02*
X028410Y019512D01*
X028361Y019464D02*
X028596Y019464D01*
X028547Y019415D02*
X028313Y019415D01*
X028264Y019367D02*
X028499Y019367D01*
X028450Y019318D02*
X028216Y019318D01*
X028167Y019270D02*
X028402Y019270D01*
X028353Y019221D02*
X028119Y019221D01*
X028070Y019173D02*
X028305Y019173D01*
X028256Y019124D02*
X028022Y019124D01*
X027973Y019076D02*
X028208Y019076D01*
X028159Y019027D02*
X027925Y019027D01*
X027876Y018979D02*
X028111Y018979D01*
X028062Y018930D02*
X027828Y018930D01*
X027779Y018882D02*
X028014Y018882D01*
X027965Y018833D02*
X027731Y018833D01*
X027682Y018785D02*
X027917Y018785D01*
X027868Y018736D02*
X027634Y018736D01*
X027585Y018688D02*
X027820Y018688D01*
X027771Y018639D02*
X027537Y018639D01*
X027488Y018591D02*
X027723Y018591D01*
X027674Y018542D02*
X027457Y018542D01*
X027457Y018494D02*
X027626Y018494D01*
X027577Y018445D02*
X027457Y018445D01*
X027457Y018397D02*
X027529Y018397D01*
X027480Y018348D02*
X027457Y018348D01*
X026957Y016942D02*
X020457Y016942D01*
X020457Y016990D02*
X023186Y016990D01*
X023154Y017039D02*
X020457Y017039D01*
X020457Y017087D02*
X020862Y017087D01*
X020795Y017136D02*
X020457Y017136D01*
X020457Y017184D02*
X020749Y017184D01*
X020729Y017233D02*
X020457Y017233D01*
X020457Y017281D02*
X020708Y017281D01*
X020707Y017330D02*
X020457Y017330D01*
X020457Y017378D02*
X020707Y017378D01*
X020707Y017427D02*
X020457Y017427D01*
X020457Y017475D02*
X020707Y017475D01*
X020707Y017524D02*
X020457Y017524D01*
X020457Y017572D02*
X020707Y017572D01*
X020707Y017621D02*
X020457Y017621D01*
X020457Y017669D02*
X020707Y017669D01*
X020707Y017718D02*
X020457Y017718D01*
X020457Y017766D02*
X020707Y017766D01*
X020707Y017815D02*
X020457Y017815D01*
X020457Y017863D02*
X020707Y017863D01*
X020707Y017912D02*
X020457Y017912D01*
X020457Y017960D02*
X020707Y017960D01*
X020707Y018009D02*
X020457Y018009D01*
X020457Y018057D02*
X020707Y018057D01*
X020707Y018106D02*
X020457Y018106D01*
X020457Y018154D02*
X020712Y018154D01*
X020712Y018203D02*
X020457Y018203D01*
X020457Y018251D02*
X020712Y018251D01*
X020712Y018300D02*
X020457Y018300D01*
X020457Y018348D02*
X020752Y018348D01*
X020457Y018397D02*
X021817Y018397D01*
X021817Y018445D02*
X020416Y018445D01*
X020367Y018494D02*
X021817Y018494D01*
X021817Y018542D02*
X020319Y018542D01*
X020066Y018300D02*
X020032Y018300D01*
X020007Y018325D02*
X018275Y020057D01*
X018205Y020057D01*
X018155Y020007D01*
X017760Y019612D01*
X017466Y019839D01*
X017106Y020051D01*
X017103Y020057D01*
X017076Y020068D01*
X017052Y020083D01*
X017045Y020081D01*
X017038Y020084D01*
X017011Y020072D01*
X016984Y020065D01*
X016980Y020059D01*
X016973Y020056D01*
X016963Y020029D01*
X016948Y020004D01*
X016950Y019998D01*
X016715Y019450D01*
X016478Y018986D01*
X016232Y019232D01*
X016232Y021207D01*
X016381Y021823D01*
X016407Y022036D01*
X016407Y020959D01*
X017057Y020309D01*
X017159Y020207D01*
X018159Y020207D01*
X018963Y019403D01*
X019065Y019301D01*
X019180Y019301D01*
X019180Y019286D01*
X019253Y019213D01*
X019307Y019213D01*
X019307Y019059D01*
X019409Y018957D01*
X020107Y018259D01*
X020107Y016750D01*
X019612Y016548D01*
X019612Y016548D01*
X019151Y016312D01*
X018986Y016478D01*
X019450Y016715D01*
X019998Y016950D01*
X020004Y016948D01*
X020029Y016963D01*
X020056Y016973D01*
X020059Y016980D01*
X020065Y016984D01*
X020072Y017011D01*
X020084Y017038D01*
X020081Y017045D01*
X020083Y017052D01*
X020068Y017076D01*
X020057Y017103D01*
X020051Y017106D01*
X019839Y017466D01*
X019612Y017760D01*
X020057Y018205D01*
X020057Y018275D01*
X020007Y018325D01*
X020018Y018348D02*
X019983Y018348D01*
X019969Y018397D02*
X019935Y018397D01*
X019921Y018445D02*
X019886Y018445D01*
X019872Y018494D02*
X019838Y018494D01*
X019824Y018542D02*
X019789Y018542D01*
X019775Y018591D02*
X019741Y018591D01*
X019727Y018639D02*
X019692Y018639D01*
X019678Y018688D02*
X019644Y018688D01*
X019630Y018736D02*
X019595Y018736D01*
X019581Y018785D02*
X019547Y018785D01*
X019533Y018833D02*
X019498Y018833D01*
X019484Y018882D02*
X019450Y018882D01*
X019436Y018930D02*
X019401Y018930D01*
X019387Y018979D02*
X019353Y018979D01*
X019339Y019027D02*
X019304Y019027D01*
X019307Y019076D02*
X019256Y019076D01*
X019207Y019124D02*
X019307Y019124D01*
X019307Y019173D02*
X019159Y019173D01*
X019110Y019221D02*
X019245Y019221D01*
X019196Y019270D02*
X019062Y019270D01*
X019048Y019318D02*
X019013Y019318D01*
X018999Y019367D02*
X018965Y019367D01*
X018951Y019415D02*
X018916Y019415D01*
X018902Y019464D02*
X018868Y019464D01*
X018854Y019512D02*
X018819Y019512D01*
X018805Y019561D02*
X018771Y019561D01*
X018757Y019609D02*
X018722Y019609D01*
X018708Y019658D02*
X018674Y019658D01*
X018660Y019706D02*
X018625Y019706D01*
X018611Y019755D02*
X018577Y019755D01*
X018563Y019803D02*
X018528Y019803D01*
X018514Y019852D02*
X018480Y019852D01*
X018466Y019900D02*
X018431Y019900D01*
X018417Y019949D02*
X018383Y019949D01*
X018369Y019997D02*
X018334Y019997D01*
X018320Y020046D02*
X018286Y020046D01*
X018272Y020094D02*
X016232Y020094D01*
X016232Y020046D02*
X016969Y020046D01*
X016949Y019997D02*
X016232Y019997D01*
X016232Y019949D02*
X016928Y019949D01*
X016908Y019900D02*
X016232Y019900D01*
X016232Y019852D02*
X016887Y019852D01*
X016866Y019803D02*
X016232Y019803D01*
X016232Y019755D02*
X016846Y019755D01*
X016825Y019706D02*
X016232Y019706D01*
X016232Y019658D02*
X016804Y019658D01*
X016783Y019609D02*
X016232Y019609D01*
X016232Y019561D02*
X016763Y019561D01*
X016742Y019512D02*
X016232Y019512D01*
X016232Y019464D02*
X016721Y019464D01*
X016698Y019415D02*
X016232Y019415D01*
X016232Y019367D02*
X016673Y019367D01*
X016648Y019318D02*
X016232Y019318D01*
X016232Y019270D02*
X016623Y019270D01*
X016599Y019221D02*
X016242Y019221D01*
X016291Y019173D02*
X016574Y019173D01*
X016549Y019124D02*
X016339Y019124D01*
X016388Y019076D02*
X016524Y019076D01*
X016500Y019027D02*
X016436Y019027D01*
X016232Y020143D02*
X018223Y020143D01*
X018175Y020191D02*
X016232Y020191D01*
X016232Y020240D02*
X017126Y020240D01*
X017078Y020288D02*
X016232Y020288D01*
X016232Y020337D02*
X017029Y020337D01*
X016981Y020385D02*
X016232Y020385D01*
X016232Y020434D02*
X016932Y020434D01*
X016884Y020482D02*
X016232Y020482D01*
X016232Y020531D02*
X016835Y020531D01*
X016787Y020579D02*
X016232Y020579D01*
X016232Y020628D02*
X016738Y020628D01*
X016690Y020676D02*
X016232Y020676D01*
X016232Y020725D02*
X016641Y020725D01*
X016593Y020773D02*
X016232Y020773D01*
X016232Y020822D02*
X016544Y020822D01*
X016496Y020870D02*
X016232Y020870D01*
X016232Y020919D02*
X016447Y020919D01*
X016407Y020967D02*
X016232Y020967D01*
X016232Y021016D02*
X016407Y021016D01*
X016407Y021064D02*
X016232Y021064D01*
X016232Y021113D02*
X016407Y021113D01*
X016407Y021161D02*
X016232Y021161D01*
X016233Y021210D02*
X016407Y021210D01*
X016407Y021258D02*
X016244Y021258D01*
X016256Y021307D02*
X016407Y021307D01*
X016407Y021355D02*
X016268Y021355D01*
X016280Y021404D02*
X016407Y021404D01*
X016407Y021452D02*
X016292Y021452D01*
X016303Y021501D02*
X016407Y021501D01*
X016407Y021549D02*
X016315Y021549D01*
X016327Y021598D02*
X016407Y021598D01*
X016407Y021646D02*
X016339Y021646D01*
X016350Y021695D02*
X016407Y021695D01*
X016407Y021743D02*
X016362Y021743D01*
X016374Y021792D02*
X016407Y021792D01*
X016407Y021840D02*
X016384Y021840D01*
X016389Y021889D02*
X016407Y021889D01*
X016407Y021937D02*
X016395Y021937D01*
X016401Y021986D02*
X016407Y021986D01*
X016407Y022034D02*
X016407Y022034D01*
X016757Y022034D02*
X016773Y022034D01*
X016757Y022083D02*
X016824Y022083D01*
X016757Y022131D02*
X016941Y022131D01*
X016954Y022180D02*
X016757Y022180D01*
X016757Y022228D02*
X016837Y022228D01*
X016783Y022277D02*
X016757Y022277D01*
X017241Y022228D02*
X017625Y022228D01*
X017570Y022277D02*
X017295Y022277D01*
X017344Y022325D02*
X017521Y022325D01*
X017494Y022374D02*
X017372Y022374D01*
X017392Y022422D02*
X017474Y022422D01*
X017454Y022471D02*
X017412Y022471D01*
X017414Y022519D02*
X017451Y022519D01*
X017451Y022568D02*
X017414Y022568D01*
X017414Y022616D02*
X017451Y022616D01*
X017468Y022665D02*
X017398Y022665D01*
X017378Y022713D02*
X017488Y022713D01*
X017508Y022762D02*
X017357Y022762D01*
X017310Y022810D02*
X017556Y022810D01*
X017604Y022859D02*
X017261Y022859D01*
X017158Y022907D02*
X017707Y022907D01*
X017652Y023004D02*
X017213Y023004D01*
X017284Y023053D02*
X017581Y023053D01*
X017533Y023101D02*
X017333Y023101D01*
X017367Y023150D02*
X017498Y023150D01*
X017478Y023198D02*
X017387Y023198D01*
X017407Y023247D02*
X017458Y023247D01*
X017451Y023295D02*
X017414Y023295D01*
X017414Y023344D02*
X017451Y023344D01*
X017451Y023392D02*
X017414Y023392D01*
X017402Y023441D02*
X017463Y023441D01*
X017483Y023489D02*
X017424Y023489D01*
X017472Y023538D02*
X017503Y023538D01*
X017521Y023586D02*
X017544Y023586D01*
X017569Y023635D02*
X017593Y023635D01*
X017597Y023683D02*
X017680Y023683D01*
X017597Y023732D02*
X018167Y023732D01*
X018167Y023780D02*
X017973Y023780D01*
X017973Y023683D02*
X018167Y023683D01*
X018175Y023635D02*
X018060Y023635D01*
X018109Y023586D02*
X018223Y023586D01*
X018272Y023538D02*
X018150Y023538D01*
X018175Y023829D02*
X018060Y023829D01*
X018109Y023877D02*
X018217Y023877D01*
X018217Y023926D02*
X018150Y023926D01*
X018170Y023974D02*
X018217Y023974D01*
X018217Y024023D02*
X018190Y024023D01*
X018201Y024071D02*
X018217Y024071D01*
X018217Y024120D02*
X018201Y024120D01*
X018201Y024168D02*
X018217Y024168D01*
X018217Y024217D02*
X018194Y024217D01*
X018174Y024265D02*
X018217Y024265D01*
X018217Y024314D02*
X018154Y024314D01*
X018120Y024362D02*
X018217Y024362D01*
X018217Y024411D02*
X018194Y024411D01*
X018201Y024885D02*
X018201Y024988D01*
X018144Y025125D01*
X018039Y025231D01*
X017901Y025288D01*
X017752Y025288D01*
X017614Y025231D01*
X017508Y025125D01*
X017451Y024988D01*
X017451Y024838D01*
X017508Y024701D01*
X017513Y024696D01*
X017417Y024600D01*
X017267Y024450D01*
X017267Y024428D01*
X017251Y024443D01*
X017114Y024501D01*
X016964Y024501D01*
X016827Y024443D01*
X016757Y024374D01*
X016757Y024665D01*
X016827Y024595D01*
X016964Y024538D01*
X017114Y024538D01*
X017251Y024595D01*
X017357Y024701D01*
X017414Y024838D01*
X017414Y024988D01*
X017394Y025035D01*
X017597Y025238D01*
X017597Y025325D01*
X018128Y025325D01*
X018201Y025399D01*
X018201Y026002D01*
X018128Y026075D01*
X017709Y026075D01*
X017967Y026334D01*
X017967Y026293D01*
X018093Y026167D01*
X018271Y026167D01*
X018317Y026213D01*
X018317Y025000D01*
X018201Y024885D01*
X018201Y024896D02*
X018213Y024896D01*
X018201Y024944D02*
X018261Y024944D01*
X018310Y024993D02*
X018199Y024993D01*
X018179Y025041D02*
X018317Y025041D01*
X018317Y025090D02*
X018159Y025090D01*
X018131Y025138D02*
X018317Y025138D01*
X018317Y025187D02*
X018083Y025187D01*
X018028Y025235D02*
X018317Y025235D01*
X018317Y025284D02*
X017911Y025284D01*
X017742Y025284D02*
X017597Y025284D01*
X017595Y025235D02*
X017625Y025235D01*
X017570Y025187D02*
X017546Y025187D01*
X017521Y025138D02*
X017498Y025138D01*
X017494Y025090D02*
X017449Y025090D01*
X017474Y025041D02*
X017401Y025041D01*
X017412Y024993D02*
X017454Y024993D01*
X017451Y024944D02*
X017414Y024944D01*
X017414Y024896D02*
X017451Y024896D01*
X017451Y024847D02*
X017414Y024847D01*
X017398Y024799D02*
X017468Y024799D01*
X017488Y024750D02*
X017378Y024750D01*
X017357Y024702D02*
X017508Y024702D01*
X017470Y024653D02*
X017310Y024653D01*
X017261Y024605D02*
X017422Y024605D01*
X017373Y024556D02*
X017158Y024556D01*
X017213Y024459D02*
X017276Y024459D01*
X017325Y024508D02*
X016757Y024508D01*
X016757Y024556D02*
X016920Y024556D01*
X016865Y024459D02*
X016757Y024459D01*
X016757Y024411D02*
X016794Y024411D01*
X016817Y024605D02*
X016757Y024605D01*
X016757Y024653D02*
X016768Y024653D01*
X016407Y025428D02*
X016381Y025641D01*
X016232Y026257D01*
X016232Y027554D01*
X016407Y027146D01*
X016407Y025428D01*
X016407Y025429D02*
X016407Y025429D01*
X016401Y025478D02*
X016407Y025478D01*
X016407Y025526D02*
X016395Y025526D01*
X016389Y025575D02*
X016407Y025575D01*
X016407Y025623D02*
X016384Y025623D01*
X016381Y025641D02*
X016381Y025641D01*
X016374Y025672D02*
X016407Y025672D01*
X016407Y025720D02*
X016362Y025720D01*
X016350Y025769D02*
X016407Y025769D01*
X016407Y025817D02*
X016339Y025817D01*
X016327Y025866D02*
X016407Y025866D01*
X016407Y025914D02*
X016315Y025914D01*
X016303Y025963D02*
X016407Y025963D01*
X016407Y026011D02*
X016292Y026011D01*
X016280Y026060D02*
X016407Y026060D01*
X016407Y026108D02*
X016268Y026108D01*
X016256Y026157D02*
X016407Y026157D01*
X016407Y026205D02*
X016244Y026205D01*
X016233Y026254D02*
X016407Y026254D01*
X016407Y026302D02*
X016232Y026302D01*
X016232Y026351D02*
X016407Y026351D01*
X016407Y026399D02*
X016232Y026399D01*
X016232Y026448D02*
X016407Y026448D01*
X016407Y026496D02*
X016232Y026496D01*
X016232Y026545D02*
X016407Y026545D01*
X016407Y026593D02*
X016232Y026593D01*
X016232Y026642D02*
X016407Y026642D01*
X016407Y026690D02*
X016232Y026690D01*
X016232Y026739D02*
X016407Y026739D01*
X016407Y026787D02*
X016232Y026787D01*
X016232Y026836D02*
X016407Y026836D01*
X016407Y026884D02*
X016232Y026884D01*
X016232Y026933D02*
X016407Y026933D01*
X016407Y026981D02*
X016232Y026981D01*
X016232Y027030D02*
X016407Y027030D01*
X016407Y027078D02*
X016232Y027078D01*
X016232Y027127D02*
X016407Y027127D01*
X016394Y027175D02*
X016232Y027175D01*
X016232Y027224D02*
X016373Y027224D01*
X016353Y027272D02*
X016232Y027272D01*
X016232Y027321D02*
X016332Y027321D01*
X016311Y027369D02*
X016232Y027369D01*
X016232Y027418D02*
X016290Y027418D01*
X016269Y027466D02*
X016232Y027466D01*
X016232Y027515D02*
X016249Y027515D01*
X016577Y027660D02*
X016866Y027660D01*
X016887Y027612D02*
X016596Y027612D01*
X016616Y027563D02*
X016908Y027563D01*
X016928Y027515D02*
X016636Y027515D01*
X016655Y027466D02*
X016949Y027466D01*
X016950Y027465D02*
X016948Y027459D01*
X016963Y027435D01*
X016973Y027408D01*
X016980Y027405D01*
X016984Y027399D01*
X017011Y027392D01*
X017038Y027380D01*
X017045Y027383D01*
X017052Y027381D01*
X017076Y027396D01*
X017103Y027406D01*
X017106Y027413D01*
X017466Y027625D01*
X017466Y027625D01*
X017760Y027851D01*
X018205Y027407D01*
X018275Y027407D01*
X018325Y027457D01*
X018782Y027914D01*
X018782Y027828D01*
X018493Y027547D01*
X018448Y027443D01*
X018446Y027329D01*
X018488Y027224D01*
X018514Y027197D01*
X018071Y027197D01*
X016949Y026075D01*
X016757Y026075D01*
X016757Y027146D01*
X016771Y027180D01*
X016757Y027216D01*
X016757Y027254D01*
X016731Y027281D01*
X016500Y027850D01*
X016450Y027950D01*
X016647Y028147D01*
X016715Y028014D01*
X016950Y027465D01*
X016969Y027418D02*
X016675Y027418D01*
X016695Y027369D02*
X018447Y027369D01*
X018449Y027321D02*
X016714Y027321D01*
X016739Y027272D02*
X018469Y027272D01*
X018488Y027224D02*
X016757Y027224D01*
X016769Y027175D02*
X018049Y027175D01*
X018001Y027127D02*
X016757Y027127D01*
X016757Y027078D02*
X017952Y027078D01*
X017904Y027030D02*
X016757Y027030D01*
X016757Y026981D02*
X017855Y026981D01*
X017807Y026933D02*
X016757Y026933D01*
X016757Y026884D02*
X017758Y026884D01*
X017710Y026836D02*
X016757Y026836D01*
X016757Y026787D02*
X017661Y026787D01*
X017613Y026739D02*
X016757Y026739D01*
X016757Y026690D02*
X017564Y026690D01*
X017516Y026642D02*
X016757Y026642D01*
X016757Y026593D02*
X017467Y026593D01*
X017419Y026545D02*
X016757Y026545D01*
X016757Y026496D02*
X017370Y026496D01*
X017322Y026448D02*
X016757Y026448D01*
X016757Y026399D02*
X017273Y026399D01*
X017225Y026351D02*
X016757Y026351D01*
X016757Y026302D02*
X017176Y026302D01*
X017128Y026254D02*
X016757Y026254D01*
X016757Y026205D02*
X017079Y026205D01*
X017031Y026157D02*
X016757Y026157D01*
X016757Y026108D02*
X016982Y026108D01*
X017742Y026108D02*
X018317Y026108D01*
X018317Y026060D02*
X018144Y026060D01*
X018192Y026011D02*
X018317Y026011D01*
X018317Y025963D02*
X018201Y025963D01*
X018201Y025914D02*
X018317Y025914D01*
X018317Y025866D02*
X018201Y025866D01*
X018201Y025817D02*
X018317Y025817D01*
X018317Y025769D02*
X018201Y025769D01*
X018201Y025720D02*
X018317Y025720D01*
X018317Y025672D02*
X018201Y025672D01*
X018201Y025623D02*
X018317Y025623D01*
X018317Y025575D02*
X018201Y025575D01*
X018201Y025526D02*
X018317Y025526D01*
X018317Y025478D02*
X018201Y025478D01*
X018201Y025429D02*
X018317Y025429D01*
X018317Y025381D02*
X018184Y025381D01*
X018135Y025332D02*
X018317Y025332D01*
X018317Y026157D02*
X017790Y026157D01*
X017839Y026205D02*
X018054Y026205D01*
X018006Y026254D02*
X017887Y026254D01*
X017936Y026302D02*
X017967Y026302D01*
X018309Y026205D02*
X018317Y026205D01*
X018950Y027197D02*
X019203Y027442D01*
X019309Y027442D01*
X019382Y027515D01*
X019382Y027929D01*
X019309Y028002D01*
X019152Y028002D01*
X019143Y028006D01*
X019029Y028008D01*
X019015Y028002D01*
X018870Y028002D01*
X020057Y029189D01*
X020057Y029259D01*
X020007Y029309D01*
X019612Y029704D01*
X019839Y029998D01*
X020051Y030358D01*
X020057Y030361D01*
X020068Y030387D01*
X020083Y030412D01*
X020081Y030419D01*
X020084Y030426D01*
X020072Y030452D01*
X020065Y030480D01*
X020059Y030484D01*
X020056Y030490D01*
X020029Y030501D01*
X020004Y030516D01*
X019998Y030514D01*
X019450Y030749D01*
X019317Y030817D01*
X019732Y031232D01*
X021207Y031232D01*
X021823Y031082D01*
X022022Y031059D01*
X022010Y031047D01*
X020658Y031047D01*
X020561Y030950D01*
X020561Y030784D01*
X020536Y030784D01*
X020463Y030711D01*
X020463Y030253D01*
X020484Y030232D01*
X020463Y030211D01*
X020463Y030197D01*
X020293Y030197D01*
X020167Y030071D01*
X020167Y029893D01*
X020293Y029767D01*
X020463Y029767D01*
X020463Y029753D01*
X020536Y029680D01*
X020916Y029680D01*
X020982Y029746D01*
X020982Y029746D01*
X020996Y029732D01*
X020975Y029711D01*
X020975Y029253D01*
X020996Y029232D01*
X020982Y029218D01*
X020916Y029284D01*
X020536Y029284D01*
X020463Y029211D01*
X020463Y029157D01*
X020411Y029157D01*
X020371Y029197D01*
X020193Y029197D01*
X020067Y029071D01*
X020067Y028893D01*
X020193Y028767D01*
X020371Y028767D01*
X020411Y028807D01*
X020463Y028807D01*
X020463Y028753D01*
X020536Y028680D01*
X020916Y028680D01*
X020982Y028746D01*
X020996Y028732D01*
X020975Y028711D01*
X020975Y028253D01*
X020996Y028232D01*
X020975Y028211D01*
X020975Y027753D01*
X020996Y027732D01*
X020982Y027718D01*
X020916Y027784D01*
X020536Y027784D01*
X020463Y027711D01*
X020463Y027647D01*
X020314Y027647D01*
X020217Y027550D01*
X020182Y027515D01*
X020182Y027549D01*
X020109Y027622D01*
X019655Y027622D01*
X019582Y027549D01*
X019582Y027197D01*
X018950Y027197D01*
X018978Y027224D02*
X019582Y027224D01*
X019582Y027272D02*
X019028Y027272D01*
X019078Y027321D02*
X019582Y027321D01*
X019582Y027369D02*
X019128Y027369D01*
X019178Y027418D02*
X019582Y027418D01*
X019582Y027466D02*
X019333Y027466D01*
X019382Y027515D02*
X019582Y027515D01*
X019597Y027563D02*
X019382Y027563D01*
X019382Y027612D02*
X019645Y027612D01*
X019382Y027660D02*
X020463Y027660D01*
X020463Y027709D02*
X019382Y027709D01*
X019382Y027757D02*
X020510Y027757D01*
X020279Y027612D02*
X020119Y027612D01*
X020167Y027563D02*
X020230Y027563D01*
X020942Y027757D02*
X020975Y027757D01*
X020975Y027806D02*
X019382Y027806D01*
X019382Y027854D02*
X020975Y027854D01*
X020975Y027903D02*
X019382Y027903D01*
X019359Y027951D02*
X020975Y027951D01*
X020975Y028000D02*
X019311Y028000D01*
X019110Y028242D02*
X020986Y028242D01*
X020975Y028194D02*
X019062Y028194D01*
X019013Y028145D02*
X020975Y028145D01*
X020975Y028097D02*
X018965Y028097D01*
X018916Y028048D02*
X020975Y028048D01*
X020975Y028291D02*
X019159Y028291D01*
X019207Y028339D02*
X020975Y028339D01*
X020975Y028388D02*
X019256Y028388D01*
X019304Y028436D02*
X020975Y028436D01*
X020975Y028485D02*
X019353Y028485D01*
X019401Y028533D02*
X020975Y028533D01*
X020975Y028582D02*
X019450Y028582D01*
X019498Y028630D02*
X020975Y028630D01*
X020975Y028679D02*
X019547Y028679D01*
X019595Y028727D02*
X020489Y028727D01*
X020463Y028776D02*
X020380Y028776D01*
X020184Y028776D02*
X019644Y028776D01*
X019692Y028824D02*
X020135Y028824D01*
X020087Y028873D02*
X019741Y028873D01*
X019789Y028921D02*
X020067Y028921D01*
X020067Y028970D02*
X019838Y028970D01*
X019886Y029018D02*
X020067Y029018D01*
X020067Y029067D02*
X019935Y029067D01*
X019983Y029115D02*
X020111Y029115D01*
X020160Y029164D02*
X020032Y029164D01*
X020057Y029212D02*
X020465Y029212D01*
X020463Y029164D02*
X020404Y029164D01*
X020513Y029261D02*
X020055Y029261D01*
X020007Y029309D02*
X020975Y029309D01*
X020975Y029261D02*
X020939Y029261D01*
X020975Y029358D02*
X019958Y029358D01*
X019910Y029406D02*
X020975Y029406D01*
X020975Y029455D02*
X019861Y029455D01*
X019813Y029503D02*
X020975Y029503D01*
X020975Y029552D02*
X019764Y029552D01*
X019716Y029600D02*
X020975Y029600D01*
X020975Y029649D02*
X019667Y029649D01*
X019619Y029697D02*
X020519Y029697D01*
X020470Y029746D02*
X019645Y029746D01*
X019682Y029794D02*
X020265Y029794D01*
X020217Y029843D02*
X019720Y029843D01*
X019757Y029891D02*
X020168Y029891D01*
X020167Y029940D02*
X019794Y029940D01*
X019832Y029988D02*
X020167Y029988D01*
X020167Y030037D02*
X019862Y030037D01*
X019839Y029998D02*
X019839Y029998D01*
X019890Y030085D02*
X020181Y030085D01*
X020230Y030134D02*
X019919Y030134D01*
X019948Y030182D02*
X020278Y030182D01*
X020463Y030279D02*
X020005Y030279D01*
X019976Y030231D02*
X020483Y030231D01*
X020463Y030328D02*
X020033Y030328D01*
X020064Y030376D02*
X020463Y030376D01*
X020463Y030425D02*
X020083Y030425D01*
X020067Y030473D02*
X020463Y030473D01*
X020463Y030522D02*
X019980Y030522D01*
X019867Y030570D02*
X020463Y030570D01*
X020463Y030619D02*
X019753Y030619D01*
X019640Y030667D02*
X020463Y030667D01*
X020468Y030716D02*
X019526Y030716D01*
X019419Y030764D02*
X020517Y030764D01*
X020561Y030813D02*
X019324Y030813D01*
X019361Y030861D02*
X020561Y030861D01*
X020561Y030910D02*
X019410Y030910D01*
X019458Y030958D02*
X020569Y030958D01*
X020618Y031007D02*
X019507Y031007D01*
X019555Y031055D02*
X022018Y031055D01*
X021823Y031082D02*
X021823Y031082D01*
X021734Y031104D02*
X019604Y031104D01*
X019652Y031152D02*
X021534Y031152D01*
X021334Y031201D02*
X019701Y031201D01*
X020933Y029697D02*
X020975Y029697D01*
X021501Y028930D02*
X021614Y028817D01*
X022167Y028817D01*
X022167Y028693D01*
X022210Y028650D01*
X022184Y028650D01*
X022111Y028577D01*
X022111Y028355D01*
X022184Y028282D01*
X022603Y028282D01*
X022623Y028302D01*
X022623Y028236D01*
X022603Y028256D01*
X022184Y028256D01*
X022165Y028237D01*
X022060Y028237D01*
X021897Y028400D01*
X021800Y028497D01*
X021600Y028497D01*
X021547Y028550D01*
X021501Y028597D01*
X021501Y028711D01*
X021480Y028732D01*
X021501Y028753D01*
X021501Y028930D01*
X021501Y028921D02*
X021509Y028921D01*
X021501Y028873D02*
X021558Y028873D01*
X021606Y028824D02*
X021501Y028824D01*
X021501Y028776D02*
X022167Y028776D01*
X022167Y028727D02*
X021484Y028727D01*
X021501Y028679D02*
X022181Y028679D01*
X022164Y028630D02*
X021501Y028630D01*
X021515Y028582D02*
X022116Y028582D01*
X022111Y028533D02*
X021564Y028533D01*
X021812Y028485D02*
X022111Y028485D01*
X022111Y028436D02*
X021861Y028436D01*
X021909Y028388D02*
X022111Y028388D01*
X022127Y028339D02*
X021958Y028339D01*
X022006Y028291D02*
X022175Y028291D01*
X022170Y028242D02*
X022055Y028242D01*
X021831Y028000D02*
X021747Y028000D01*
X021747Y027993D02*
X021747Y028084D01*
X021923Y027907D01*
X021974Y027907D01*
X021501Y027434D01*
X021501Y027711D01*
X021480Y027732D01*
X021501Y027753D01*
X021501Y027817D01*
X021550Y027817D01*
X021600Y027867D01*
X021621Y027867D01*
X021747Y027993D01*
X021747Y028048D02*
X021782Y028048D01*
X021705Y027951D02*
X021879Y027951D01*
X021970Y027903D02*
X021657Y027903D01*
X021588Y027854D02*
X021921Y027854D01*
X021873Y027806D02*
X021501Y027806D01*
X021501Y027757D02*
X021824Y027757D01*
X021776Y027709D02*
X021501Y027709D01*
X021501Y027660D02*
X021727Y027660D01*
X021679Y027612D02*
X021501Y027612D01*
X021501Y027563D02*
X021630Y027563D01*
X021582Y027515D02*
X021501Y027515D01*
X021501Y027466D02*
X021533Y027466D01*
X022617Y028242D02*
X022623Y028242D01*
X022623Y028291D02*
X022611Y028291D01*
X020992Y028727D02*
X020963Y028727D01*
X018782Y027903D02*
X018771Y027903D01*
X018782Y027854D02*
X018722Y027854D01*
X018759Y027806D02*
X018674Y027806D01*
X018709Y027757D02*
X018625Y027757D01*
X018660Y027709D02*
X018577Y027709D01*
X018610Y027660D02*
X018528Y027660D01*
X018560Y027612D02*
X018480Y027612D01*
X018510Y027563D02*
X018431Y027563D01*
X018383Y027515D02*
X018479Y027515D01*
X018458Y027466D02*
X018334Y027466D01*
X018286Y027418D02*
X018447Y027418D01*
X018194Y027418D02*
X017114Y027418D01*
X017197Y027466D02*
X018145Y027466D01*
X018097Y027515D02*
X017279Y027515D01*
X017361Y027563D02*
X018048Y027563D01*
X018000Y027612D02*
X017444Y027612D01*
X017512Y027660D02*
X017951Y027660D01*
X017903Y027709D02*
X017575Y027709D01*
X017638Y027757D02*
X017854Y027757D01*
X017806Y027806D02*
X017701Y027806D01*
X016846Y027709D02*
X016557Y027709D01*
X016538Y027757D02*
X016825Y027757D01*
X016804Y027806D02*
X016518Y027806D01*
X016500Y027850D02*
X016500Y027850D01*
X016498Y027854D02*
X016783Y027854D01*
X016763Y027903D02*
X016473Y027903D01*
X016451Y027951D02*
X016742Y027951D01*
X016721Y028000D02*
X016500Y028000D01*
X016548Y028048D02*
X016698Y028048D01*
X016673Y028097D02*
X016597Y028097D01*
X016645Y028145D02*
X016648Y028145D01*
X017597Y023780D02*
X017680Y023780D01*
X016865Y023004D02*
X016757Y023004D01*
X016757Y022956D02*
X018522Y022956D01*
X016920Y022907D02*
X016757Y022907D01*
X016757Y022859D02*
X016817Y022859D01*
X016768Y022810D02*
X016757Y022810D01*
X016757Y023053D02*
X016794Y023053D01*
X016757Y021210D02*
X018313Y021210D01*
X018282Y021161D02*
X016757Y021161D01*
X016757Y021113D02*
X018282Y021113D01*
X018282Y021064D02*
X016797Y021064D01*
X016845Y021016D02*
X018282Y021016D01*
X018282Y020967D02*
X016894Y020967D01*
X016942Y020919D02*
X018282Y020919D01*
X018282Y020870D02*
X016991Y020870D01*
X017039Y020822D02*
X018282Y020822D01*
X018282Y020773D02*
X017088Y020773D01*
X017136Y020725D02*
X018322Y020725D01*
X018397Y020676D02*
X017185Y020676D01*
X017233Y020628D02*
X018397Y020628D01*
X018397Y020579D02*
X017282Y020579D01*
X017114Y020046D02*
X018194Y020046D01*
X018155Y020007D02*
X018155Y020007D01*
X018145Y019997D02*
X017197Y019997D01*
X017279Y019949D02*
X018097Y019949D01*
X018048Y019900D02*
X017361Y019900D01*
X017444Y019852D02*
X018000Y019852D01*
X017951Y019803D02*
X017512Y019803D01*
X017466Y019839D02*
X017466Y019839D01*
X017575Y019755D02*
X017903Y019755D01*
X017854Y019706D02*
X017638Y019706D01*
X017701Y019658D02*
X017806Y019658D01*
X018379Y020482D02*
X018397Y020482D01*
X018397Y020531D02*
X018330Y020531D01*
X019784Y019464D02*
X019817Y019464D01*
X019784Y019415D02*
X019865Y019415D01*
X019914Y019367D02*
X019784Y019367D01*
X019784Y019318D02*
X019930Y019318D01*
X019946Y019270D02*
X019768Y019270D01*
X020057Y018251D02*
X020107Y018251D01*
X020107Y018203D02*
X020055Y018203D01*
X020007Y018154D02*
X020107Y018154D01*
X020107Y018106D02*
X019958Y018106D01*
X019910Y018057D02*
X020107Y018057D01*
X020107Y018009D02*
X019861Y018009D01*
X019813Y017960D02*
X020107Y017960D01*
X020107Y017912D02*
X019764Y017912D01*
X019716Y017863D02*
X020107Y017863D01*
X020107Y017815D02*
X019667Y017815D01*
X019619Y017766D02*
X020107Y017766D01*
X020107Y017718D02*
X019645Y017718D01*
X019682Y017669D02*
X020107Y017669D01*
X020107Y017621D02*
X019720Y017621D01*
X019757Y017572D02*
X020107Y017572D01*
X020107Y017524D02*
X019794Y017524D01*
X019832Y017475D02*
X020107Y017475D01*
X020107Y017427D02*
X019862Y017427D01*
X019890Y017378D02*
X020107Y017378D01*
X020107Y017330D02*
X019919Y017330D01*
X019948Y017281D02*
X020107Y017281D01*
X020107Y017233D02*
X019976Y017233D01*
X020005Y017184D02*
X020107Y017184D01*
X020107Y017136D02*
X020033Y017136D01*
X020064Y017087D02*
X020107Y017087D01*
X020107Y017039D02*
X020083Y017039D01*
X020067Y016990D02*
X020107Y016990D01*
X020107Y016942D02*
X019980Y016942D01*
X019867Y016893D02*
X020107Y016893D01*
X020107Y016845D02*
X019753Y016845D01*
X019640Y016796D02*
X020107Y016796D01*
X020103Y016748D02*
X019526Y016748D01*
X019419Y016699D02*
X019984Y016699D01*
X019865Y016651D02*
X019324Y016651D01*
X019229Y016602D02*
X019746Y016602D01*
X019626Y016554D02*
X019134Y016554D01*
X019039Y016505D02*
X019529Y016505D01*
X019434Y016457D02*
X019007Y016457D01*
X019055Y016408D02*
X019339Y016408D01*
X019244Y016360D02*
X019104Y016360D01*
X020457Y016845D02*
X026957Y016845D01*
X026957Y016893D02*
X020457Y016893D01*
X021122Y017087D02*
X023043Y017087D01*
X022995Y017136D02*
X021189Y017136D01*
X021235Y017184D02*
X022946Y017184D01*
X022898Y017233D02*
X021255Y017233D01*
X021275Y017281D02*
X022849Y017281D01*
X022817Y017330D02*
X021277Y017330D01*
X021277Y017378D02*
X022817Y017378D01*
X022817Y017427D02*
X021277Y017427D01*
X021277Y017475D02*
X022817Y017475D01*
X022817Y017524D02*
X021277Y017524D01*
X021277Y017572D02*
X022817Y017572D01*
X022810Y017621D02*
X021277Y017621D01*
X021588Y018591D02*
X021817Y018591D01*
X021817Y018639D02*
X021636Y018639D01*
X021652Y018688D02*
X021817Y018688D01*
X021817Y018736D02*
X021652Y018736D01*
X021652Y018785D02*
X021817Y018785D01*
X021817Y018833D02*
X021652Y018833D01*
X021652Y018882D02*
X021817Y018882D01*
X021817Y018930D02*
X021652Y018930D01*
X021652Y018979D02*
X021817Y018979D01*
X021817Y019027D02*
X021652Y019027D01*
X021652Y019076D02*
X021817Y019076D01*
X021817Y019124D02*
X021636Y019124D01*
X021588Y019173D02*
X021817Y019173D01*
X021745Y019221D02*
X021537Y019221D01*
X021537Y019270D02*
X021696Y019270D01*
X021680Y019318D02*
X021537Y019318D01*
X021537Y019367D02*
X021680Y019367D01*
X021680Y019415D02*
X021537Y019415D01*
X021537Y019464D02*
X021680Y019464D01*
X021680Y019512D02*
X021537Y019512D01*
X021534Y019561D02*
X021680Y019561D01*
X021680Y019609D02*
X021534Y019609D01*
X021534Y019658D02*
X021680Y019658D01*
X021721Y019706D02*
X021493Y019706D01*
X021491Y019755D02*
X021723Y019755D01*
X021680Y019803D02*
X021534Y019803D01*
X021534Y019852D02*
X021680Y019852D01*
X021680Y019900D02*
X021534Y019900D01*
X021534Y019949D02*
X021680Y019949D01*
X021680Y019997D02*
X021534Y019997D01*
X021534Y020046D02*
X021680Y020046D01*
X021680Y020094D02*
X021534Y020094D01*
X022187Y020251D02*
X022187Y020815D01*
X022255Y020747D01*
X023735Y020747D01*
X023405Y020417D01*
X023304Y020315D01*
X023304Y020374D01*
X023231Y020447D01*
X022733Y020447D01*
X022660Y020374D01*
X022660Y019894D01*
X022617Y019937D01*
X022361Y020193D01*
X022269Y020193D01*
X022211Y020251D01*
X022187Y020251D01*
X022222Y020240D02*
X022660Y020240D01*
X022660Y020288D02*
X022187Y020288D01*
X022187Y020337D02*
X022660Y020337D01*
X022671Y020385D02*
X022187Y020385D01*
X022187Y020434D02*
X022720Y020434D01*
X022660Y020191D02*
X022362Y020191D01*
X022411Y020143D02*
X022660Y020143D01*
X022660Y020094D02*
X022459Y020094D01*
X022508Y020046D02*
X022660Y020046D01*
X022660Y019997D02*
X022556Y019997D01*
X022605Y019949D02*
X022660Y019949D01*
X022653Y019900D02*
X022660Y019900D01*
X022737Y019803D02*
X022827Y019803D01*
X022876Y019755D02*
X022737Y019755D01*
X022737Y019706D02*
X022924Y019706D01*
X022973Y019658D02*
X022737Y019658D01*
X022737Y019609D02*
X023021Y019609D01*
X023164Y019561D02*
X022737Y019561D01*
X022737Y019512D02*
X023180Y019512D01*
X023180Y019464D02*
X022737Y019464D01*
X022737Y019415D02*
X023180Y019415D01*
X023180Y019367D02*
X022737Y019367D01*
X022737Y019318D02*
X023180Y019318D01*
X023196Y019270D02*
X022747Y019270D01*
X022747Y019221D02*
X023245Y019221D01*
X023317Y019173D02*
X022747Y019173D01*
X022747Y019124D02*
X023317Y019124D01*
X023317Y019076D02*
X022730Y019076D01*
X022681Y019027D02*
X023273Y019027D01*
X023267Y018979D02*
X022633Y018979D01*
X022431Y018979D02*
X022147Y018979D01*
X022147Y019027D02*
X022382Y019027D01*
X022334Y019076D02*
X022147Y019076D01*
X022147Y019124D02*
X022317Y019124D01*
X022317Y019173D02*
X022147Y019173D01*
X022219Y019221D02*
X022317Y019221D01*
X022317Y019270D02*
X022268Y019270D01*
X022284Y019318D02*
X022327Y019318D01*
X022327Y019367D02*
X022284Y019367D01*
X022284Y019415D02*
X022327Y019415D01*
X022327Y019464D02*
X022284Y019464D01*
X022284Y019512D02*
X022327Y019512D01*
X022327Y019561D02*
X022284Y019561D01*
X022284Y019609D02*
X022327Y019609D01*
X022316Y019658D02*
X022284Y019658D01*
X022267Y019706D02*
X022243Y019706D01*
X022187Y020482D02*
X023471Y020482D01*
X023422Y020434D02*
X023244Y020434D01*
X023293Y020385D02*
X023374Y020385D01*
X023325Y020337D02*
X023304Y020337D01*
X023519Y020531D02*
X022187Y020531D01*
X022187Y020579D02*
X023568Y020579D01*
X023616Y020628D02*
X022187Y020628D01*
X022187Y020676D02*
X023665Y020676D01*
X023713Y020725D02*
X022187Y020725D01*
X022187Y020773D02*
X022229Y020773D01*
X022417Y021117D02*
X022417Y022205D01*
X022536Y022324D01*
X022567Y022293D01*
X022567Y022251D01*
X022503Y022251D01*
X022430Y022177D01*
X022430Y021798D01*
X022496Y021732D01*
X022430Y021666D01*
X022430Y021286D01*
X022503Y021213D01*
X022961Y021213D01*
X023034Y021286D01*
X023034Y021311D01*
X023094Y021311D01*
X023200Y021417D01*
X023297Y021514D01*
X023297Y021725D01*
X023711Y021725D01*
X023784Y021798D01*
X023784Y022101D01*
X023847Y022163D01*
X023930Y022080D01*
X023930Y021798D01*
X024003Y021725D01*
X024461Y021725D01*
X024534Y021798D01*
X024534Y022177D01*
X024461Y022251D01*
X024297Y022251D01*
X024247Y022300D01*
X024247Y022371D01*
X024121Y022497D01*
X024006Y022497D01*
X024006Y022664D01*
X024016Y022674D01*
X024016Y023088D01*
X024063Y023088D01*
X024063Y022674D01*
X024166Y022572D01*
X024311Y022572D01*
X024413Y022674D01*
X024413Y023046D01*
X024447Y023046D01*
X024447Y022305D01*
X024547Y022205D01*
X024547Y021309D01*
X024355Y021117D01*
X022417Y021117D01*
X022417Y021161D02*
X024400Y021161D01*
X024448Y021210D02*
X022417Y021210D01*
X022417Y021258D02*
X022458Y021258D01*
X022430Y021307D02*
X022417Y021307D01*
X022417Y021355D02*
X022430Y021355D01*
X022430Y021404D02*
X022417Y021404D01*
X022417Y021452D02*
X022430Y021452D01*
X022430Y021501D02*
X022417Y021501D01*
X022417Y021549D02*
X022430Y021549D01*
X022430Y021598D02*
X022417Y021598D01*
X022417Y021646D02*
X022430Y021646D01*
X022417Y021695D02*
X022459Y021695D01*
X022485Y021743D02*
X022417Y021743D01*
X022417Y021792D02*
X022436Y021792D01*
X022430Y021840D02*
X022417Y021840D01*
X022417Y021889D02*
X022430Y021889D01*
X022430Y021937D02*
X022417Y021937D01*
X022417Y021986D02*
X022430Y021986D01*
X022430Y022034D02*
X022417Y022034D01*
X022417Y022083D02*
X022430Y022083D01*
X022430Y022131D02*
X022417Y022131D01*
X022417Y022180D02*
X022432Y022180D01*
X022440Y022228D02*
X022481Y022228D01*
X022489Y022277D02*
X022567Y022277D01*
X022897Y022277D02*
X023494Y022277D01*
X023467Y022251D02*
X023253Y022251D01*
X023199Y022197D01*
X023043Y022197D01*
X023029Y022183D01*
X022961Y022251D01*
X022897Y022251D01*
X022897Y022293D01*
X022947Y022343D01*
X022947Y022419D01*
X023009Y022357D01*
X023504Y022357D01*
X023607Y022459D01*
X023607Y023088D01*
X023666Y023088D01*
X023666Y022674D01*
X023676Y022664D01*
X023676Y022459D01*
X023467Y022251D01*
X023542Y022325D02*
X022929Y022325D01*
X022947Y022374D02*
X022992Y022374D01*
X022983Y022228D02*
X023231Y022228D01*
X023521Y022374D02*
X023591Y022374D01*
X023570Y022422D02*
X023639Y022422D01*
X023607Y022471D02*
X023676Y022471D01*
X023676Y022519D02*
X023607Y022519D01*
X023607Y022568D02*
X023676Y022568D01*
X023676Y022616D02*
X023607Y022616D01*
X023607Y022665D02*
X023675Y022665D01*
X023666Y022713D02*
X023607Y022713D01*
X023607Y022762D02*
X023666Y022762D01*
X023666Y022810D02*
X023607Y022810D01*
X023607Y022859D02*
X023666Y022859D01*
X023666Y022907D02*
X023607Y022907D01*
X023607Y022956D02*
X023666Y022956D01*
X023666Y023004D02*
X023607Y023004D01*
X023607Y023053D02*
X023666Y023053D01*
X024016Y023053D02*
X024063Y023053D01*
X024063Y023004D02*
X024016Y023004D01*
X024016Y022956D02*
X024063Y022956D01*
X024063Y022907D02*
X024016Y022907D01*
X024016Y022859D02*
X024063Y022859D01*
X024063Y022810D02*
X024016Y022810D01*
X024016Y022762D02*
X024063Y022762D01*
X024063Y022713D02*
X024016Y022713D01*
X024007Y022665D02*
X024073Y022665D01*
X024121Y022616D02*
X024006Y022616D01*
X024006Y022568D02*
X024447Y022568D01*
X024447Y022616D02*
X024356Y022616D01*
X024404Y022665D02*
X024447Y022665D01*
X024447Y022713D02*
X024413Y022713D01*
X024413Y022762D02*
X024447Y022762D01*
X024447Y022810D02*
X024413Y022810D01*
X024413Y022859D02*
X024447Y022859D01*
X024447Y022907D02*
X024413Y022907D01*
X024413Y022956D02*
X024447Y022956D01*
X024447Y023004D02*
X024413Y023004D01*
X024447Y022519D02*
X024006Y022519D01*
X024147Y022471D02*
X024447Y022471D01*
X024447Y022422D02*
X024195Y022422D01*
X024244Y022374D02*
X024447Y022374D01*
X024447Y022325D02*
X024247Y022325D01*
X024270Y022277D02*
X024475Y022277D01*
X024483Y022228D02*
X024524Y022228D01*
X024532Y022180D02*
X024547Y022180D01*
X024547Y022131D02*
X024534Y022131D01*
X024534Y022083D02*
X024547Y022083D01*
X024547Y022034D02*
X024534Y022034D01*
X024534Y021986D02*
X024547Y021986D01*
X024547Y021937D02*
X024534Y021937D01*
X024534Y021889D02*
X024547Y021889D01*
X024547Y021840D02*
X024534Y021840D01*
X024528Y021792D02*
X024547Y021792D01*
X024547Y021743D02*
X024479Y021743D01*
X024547Y021695D02*
X023297Y021695D01*
X023297Y021646D02*
X024547Y021646D01*
X024547Y021598D02*
X023297Y021598D01*
X023297Y021549D02*
X024547Y021549D01*
X024547Y021501D02*
X023284Y021501D01*
X023236Y021452D02*
X024547Y021452D01*
X024547Y021404D02*
X023187Y021404D01*
X023139Y021355D02*
X024547Y021355D01*
X024545Y021307D02*
X023034Y021307D01*
X023006Y021258D02*
X024497Y021258D01*
X023985Y021743D02*
X023729Y021743D01*
X023778Y021792D02*
X023936Y021792D01*
X023930Y021840D02*
X023784Y021840D01*
X023784Y021889D02*
X023930Y021889D01*
X023930Y021937D02*
X023784Y021937D01*
X023784Y021986D02*
X023930Y021986D01*
X023930Y022034D02*
X023784Y022034D01*
X023784Y022083D02*
X023927Y022083D01*
X023878Y022131D02*
X023815Y022131D01*
X022070Y022810D02*
X021578Y022810D01*
X021619Y022762D02*
X022022Y022762D01*
X021973Y022713D02*
X021619Y022713D01*
X021619Y022277D02*
X021777Y022277D01*
X021777Y022228D02*
X021619Y022228D01*
X021605Y022180D02*
X021777Y022180D01*
X021777Y022131D02*
X021556Y022131D01*
X021777Y022083D02*
X020764Y022083D01*
X020813Y022034D02*
X021777Y022034D01*
X021777Y021986D02*
X020861Y021986D01*
X022097Y024314D02*
X022347Y024314D01*
X022347Y024362D02*
X022216Y024362D01*
X022265Y024411D02*
X022347Y024411D01*
X022347Y024459D02*
X022297Y024459D01*
X022297Y024508D02*
X022347Y024508D01*
X022347Y024556D02*
X022297Y024556D01*
X022297Y024605D02*
X022347Y024605D01*
X022347Y024653D02*
X022264Y024653D01*
X022216Y024702D02*
X022347Y024702D01*
X022717Y024702D02*
X022848Y024702D01*
X022896Y024750D02*
X022717Y024750D01*
X022717Y024799D02*
X023067Y024799D01*
X023067Y024847D02*
X022717Y024847D01*
X022717Y024896D02*
X023067Y024896D01*
X023067Y024944D02*
X022717Y024944D01*
X022717Y024993D02*
X023067Y024993D01*
X023067Y025041D02*
X022717Y025041D01*
X022686Y025090D02*
X023067Y025090D01*
X023105Y025138D02*
X022637Y025138D01*
X022589Y025187D02*
X023154Y025187D01*
X022977Y025332D02*
X022567Y025332D01*
X022567Y025381D02*
X022929Y025381D01*
X022880Y025429D02*
X022791Y025429D01*
X022840Y025478D02*
X022867Y025478D01*
X022799Y024653D02*
X022717Y024653D01*
X022717Y024605D02*
X022786Y024605D01*
X022786Y024556D02*
X022717Y024556D01*
X022717Y024508D02*
X022786Y024508D01*
X022789Y024459D02*
X022717Y024459D01*
X022717Y024411D02*
X022838Y024411D01*
X022886Y024362D02*
X022717Y024362D01*
X022717Y024314D02*
X023073Y024314D01*
X023100Y024265D02*
X022717Y024265D01*
X022717Y024217D02*
X023100Y024217D01*
X024683Y028591D02*
X024703Y028611D01*
X024703Y028801D01*
X024711Y028899D01*
X024717Y028905D01*
X024717Y028952D01*
X024771Y028974D01*
X024840Y029043D01*
X024877Y029133D01*
X024877Y029231D01*
X024840Y029321D01*
X024771Y029390D01*
X024681Y029427D01*
X024583Y029427D01*
X024493Y029390D01*
X024487Y029384D01*
X024487Y029904D01*
X024676Y029904D01*
X024917Y029664D01*
X024917Y028650D01*
X024861Y028650D01*
X024788Y028577D01*
X024788Y028571D01*
X024768Y028591D01*
X024683Y028591D01*
X024703Y028630D02*
X024841Y028630D01*
X024793Y028582D02*
X024777Y028582D01*
X024703Y028679D02*
X024917Y028679D01*
X024917Y028727D02*
X024703Y028727D01*
X024703Y028776D02*
X024917Y028776D01*
X024917Y028824D02*
X024705Y028824D01*
X024709Y028873D02*
X024917Y028873D01*
X024917Y028921D02*
X024717Y028921D01*
X024760Y028970D02*
X024917Y028970D01*
X024917Y029018D02*
X024815Y029018D01*
X024849Y029067D02*
X024917Y029067D01*
X024917Y029115D02*
X024870Y029115D01*
X024877Y029164D02*
X024917Y029164D01*
X024917Y029212D02*
X024877Y029212D01*
X024864Y029261D02*
X024917Y029261D01*
X024917Y029309D02*
X024844Y029309D01*
X024802Y029358D02*
X024917Y029358D01*
X024917Y029406D02*
X024730Y029406D01*
X024917Y029455D02*
X024487Y029455D01*
X024487Y029503D02*
X024917Y029503D01*
X024917Y029552D02*
X024487Y029552D01*
X024487Y029600D02*
X024917Y029600D01*
X024917Y029649D02*
X024487Y029649D01*
X024487Y029697D02*
X024883Y029697D01*
X024835Y029746D02*
X024487Y029746D01*
X024487Y029794D02*
X024786Y029794D01*
X024738Y029843D02*
X024487Y029843D01*
X024487Y029891D02*
X024689Y029891D01*
X024534Y029406D02*
X024487Y029406D01*
X025247Y028679D02*
X025396Y028679D01*
X025347Y028630D02*
X025300Y028630D01*
X024978Y030619D02*
X027710Y030619D01*
X027824Y030667D02*
X024930Y030667D01*
X024881Y030716D02*
X027937Y030716D01*
X028045Y030764D02*
X024833Y030764D01*
X024784Y030813D02*
X028140Y030813D01*
X028102Y030861D02*
X024764Y030861D01*
X024764Y030910D02*
X028054Y030910D01*
X028005Y030958D02*
X024764Y030958D01*
X025011Y031007D02*
X027957Y031007D01*
X027908Y031055D02*
X025416Y031055D01*
X025730Y031104D02*
X027860Y031104D01*
X027811Y031152D02*
X025930Y031152D01*
X026129Y031201D02*
X027763Y031201D01*
X030816Y028145D02*
X030818Y028145D01*
X030791Y028097D02*
X030867Y028097D01*
X030915Y028048D02*
X030766Y028048D01*
X030743Y028000D02*
X030964Y028000D01*
X031007Y027951D02*
X030722Y027951D01*
X030701Y027903D02*
X030983Y027903D01*
X030959Y027854D02*
X030680Y027854D01*
X030660Y027806D02*
X030938Y027806D01*
X030950Y027837D02*
X030950Y027837D01*
X030919Y027757D02*
X030639Y027757D01*
X030124Y024556D02*
X030107Y024556D01*
X025467Y018882D02*
X025456Y018882D01*
X025467Y018833D02*
X025430Y018833D01*
X025467Y018785D02*
X025381Y018785D01*
X024627Y017960D02*
X022937Y017960D01*
X022985Y017912D02*
X024579Y017912D01*
X024530Y017863D02*
X023034Y017863D01*
X023082Y017815D02*
X024482Y017815D01*
X024433Y017766D02*
X023131Y017766D01*
X023147Y017718D02*
X024385Y017718D01*
X024367Y017669D02*
X023147Y017669D01*
X023147Y017621D02*
X024367Y017621D01*
X024367Y017572D02*
X023147Y017572D01*
X023147Y017524D02*
X024367Y017524D01*
X024367Y017475D02*
X024275Y017475D01*
X024310Y017427D02*
X024344Y017427D01*
X023779Y017475D02*
X023685Y017475D01*
X023719Y017427D02*
X023745Y017427D01*
X023745Y017378D02*
X023719Y017378D01*
X023719Y017330D02*
X023745Y017330D01*
X023745Y017281D02*
X023719Y017281D01*
X023719Y017233D02*
X023745Y017233D01*
X023745Y017184D02*
X023719Y017184D01*
X023719Y017136D02*
X023745Y017136D01*
X023745Y017087D02*
X023719Y017087D01*
X023719Y017039D02*
X023745Y017039D01*
X023777Y016990D02*
X023687Y016990D01*
X023188Y017475D02*
X023147Y017475D01*
X023373Y018736D02*
X022147Y018736D01*
X022147Y018785D02*
X023325Y018785D01*
X023276Y018833D02*
X022147Y018833D01*
X022147Y018882D02*
X023267Y018882D01*
X023267Y018930D02*
X022147Y018930D01*
X023590Y018736D02*
X023723Y018736D01*
X023675Y018785D02*
X023639Y018785D01*
D39*
X023482Y019988D02*
X023482Y020232D01*
X023982Y020732D01*
X024532Y020732D01*
X024932Y021132D01*
X024932Y022382D01*
X024882Y022432D01*
X024882Y022582D01*
X025032Y022732D01*
X025132Y022482D02*
X025132Y020832D01*
X024832Y020532D01*
X024432Y020532D01*
X024232Y020332D01*
X024232Y019988D01*
X024432Y020932D02*
X022332Y020932D01*
X022232Y021032D01*
X022232Y022282D01*
X022782Y022832D01*
X022532Y022982D02*
X022432Y022882D01*
X022532Y022982D02*
X022532Y024982D01*
X022382Y025132D01*
X022382Y025532D01*
X022332Y025582D01*
X022682Y025582D01*
X022944Y025844D01*
X022944Y026143D01*
X023141Y026143D02*
X023141Y025591D01*
X023082Y025532D01*
X023338Y025576D02*
X023382Y025532D01*
X023338Y025576D02*
X023338Y026143D01*
X022382Y026282D02*
X022382Y026498D01*
X022393Y026498D01*
X025070Y026891D02*
X025422Y026891D01*
X025532Y026832D01*
X025532Y026782D01*
X025982Y026332D01*
X026582Y026332D01*
X026738Y026176D01*
X026894Y026332D01*
X027082Y026332D01*
X026738Y026176D02*
X026738Y025982D01*
X026226Y025982D02*
X025932Y025982D01*
X025782Y025832D01*
X024553Y023221D02*
X024632Y023143D01*
X024632Y022382D01*
X024732Y022282D01*
X024732Y021232D01*
X024432Y020932D01*
X020726Y023482D02*
X020726Y023982D01*
X020732Y023982D01*
X020732Y023982D01*
X020732Y023982D01*
X018582Y020972D02*
X018582Y020532D01*
X019126Y019988D01*
X019482Y019988D01*
X024519Y028820D02*
X024532Y028982D01*
X024532Y029094D01*
X024619Y029182D01*
X024632Y029182D01*
D40*
X024632Y029182D03*
X025532Y026782D03*
X027082Y026332D03*
X028422Y027742D03*
X028882Y025232D03*
X028882Y024932D03*
X028882Y024632D03*
X028982Y022932D03*
X028982Y022582D03*
X028532Y022482D03*
X026782Y022382D03*
X025232Y018982D03*
X026492Y017272D03*
X020992Y017342D03*
X022782Y022832D03*
X020382Y023232D03*
X020382Y025417D03*
X018732Y027382D03*
D41*
X019082Y027722D01*
X028132Y027742D02*
X028422Y027742D01*
X028882Y025232D02*
X028882Y024932D01*
X028882Y024632D01*
X029632Y024632D01*
X029632Y024032D02*
X029282Y024032D01*
X028982Y023732D01*
X028982Y022932D01*
X028982Y022582D01*
X026492Y018082D02*
X026492Y017272D01*
X020992Y017342D02*
X020992Y018082D01*
D42*
X026738Y025982D02*
X027082Y025982D01*
X027232Y025832D01*
X027832Y025832D01*
X028112Y026112D01*
X028332Y026112D01*
M02*
