G75*
G70*
%OFA0B0*%
%FSLAX24Y24*%
%IPPOS*%
%LPD*%
%AMOC8*
5,1,8,0,0,1.08239X$1,22.5*
%
%ADD10C,0.0946*%
%ADD11R,0.0552X0.0297*%
%ADD12R,0.0434X0.0356*%
%ADD13OC8,0.0930*%
%ADD14R,0.0474X0.0513*%
%ADD15R,0.0552X0.0395*%
%ADD16R,0.0190X0.0336*%
%ADD17R,0.0336X0.0190*%
%ADD18R,0.0316X0.0552*%
%ADD19C,0.0580*%
%ADD20C,0.0570*%
%ADD21C,0.0552*%
%ADD22C,0.0024*%
%ADD23C,0.0146*%
%ADD24C,0.0464*%
%ADD25C,0.0068*%
%ADD26R,0.0316X0.0277*%
%ADD27R,0.0277X0.0316*%
%ADD28R,0.0671X0.0867*%
%ADD29C,0.0400*%
%ADD30OC8,0.0580*%
%ADD31R,0.0580X0.0580*%
%ADD32R,0.0769X0.0434*%
%ADD33R,0.0580X0.0330*%
D10*
X019401Y023732D03*
X028063Y023732D03*
D11*
X026744Y021606D03*
X026744Y021232D03*
X026744Y020858D03*
X025720Y020858D03*
X025720Y021232D03*
X025720Y021606D03*
X023244Y021606D03*
X023244Y021232D03*
X023244Y020858D03*
X022220Y020858D03*
X022220Y021606D03*
D12*
X021482Y021488D03*
X021482Y020976D03*
D13*
X028982Y021232D03*
X030232Y021232D03*
D14*
X027482Y021567D03*
X027482Y020897D03*
X024982Y020897D03*
X024982Y021567D03*
X020732Y021567D03*
X020732Y020897D03*
D15*
X024232Y020878D03*
X024232Y021586D03*
D16*
X024027Y023193D03*
X023830Y023193D03*
X023633Y023193D03*
X023437Y023193D03*
X023437Y024271D03*
X023633Y024271D03*
X023830Y024271D03*
X024027Y024271D03*
D17*
X024271Y024027D03*
X024271Y023830D03*
X024271Y023633D03*
X024271Y023437D03*
X023193Y023437D03*
X023193Y023633D03*
X023193Y023830D03*
X023193Y024027D03*
D18*
X027608Y025118D03*
X027982Y025118D03*
X028356Y025118D03*
X028356Y026146D03*
X027608Y026146D03*
D19*
X026232Y024132D03*
X026232Y023332D03*
X027032Y023332D03*
X025432Y023332D03*
X025432Y024132D03*
X024762Y018292D03*
X017826Y022551D03*
X017039Y022551D03*
X017039Y023338D03*
X017039Y024126D03*
X017039Y024913D03*
X017826Y024913D03*
X017826Y024126D03*
X017826Y023338D03*
X017033Y021763D03*
D20*
X022702Y018292D03*
X022802Y018292D03*
X024662Y018292D03*
D21*
X025112Y017332D03*
X025112Y017132D03*
X022352Y017132D03*
X022352Y017332D03*
D22*
X023104Y018585D02*
X023320Y018585D01*
X023320Y017999D01*
X023104Y017999D01*
X023104Y018585D01*
X023104Y018022D02*
X023320Y018022D01*
X023320Y018045D02*
X023104Y018045D01*
X023104Y018068D02*
X023320Y018068D01*
X023320Y018091D02*
X023104Y018091D01*
X023104Y018114D02*
X023320Y018114D01*
X023320Y018137D02*
X023104Y018137D01*
X023104Y018160D02*
X023320Y018160D01*
X023320Y018183D02*
X023104Y018183D01*
X023104Y018206D02*
X023320Y018206D01*
X023320Y018229D02*
X023104Y018229D01*
X023104Y018252D02*
X023320Y018252D01*
X023320Y018275D02*
X023104Y018275D01*
X023104Y018298D02*
X023320Y018298D01*
X023320Y018321D02*
X023104Y018321D01*
X023104Y018344D02*
X023320Y018344D01*
X023320Y018367D02*
X023104Y018367D01*
X023104Y018390D02*
X023320Y018390D01*
X023320Y018413D02*
X023104Y018413D01*
X023104Y018436D02*
X023320Y018436D01*
X023320Y018459D02*
X023104Y018459D01*
X023104Y018482D02*
X023320Y018482D01*
X023320Y018505D02*
X023104Y018505D01*
X023104Y018528D02*
X023320Y018528D01*
X023320Y018551D02*
X023104Y018551D01*
X023104Y018574D02*
X023320Y018574D01*
X023364Y018585D02*
X023580Y018585D01*
X023580Y017999D01*
X023364Y017999D01*
X023364Y018585D01*
X023364Y018022D02*
X023580Y018022D01*
X023580Y018045D02*
X023364Y018045D01*
X023364Y018068D02*
X023580Y018068D01*
X023580Y018091D02*
X023364Y018091D01*
X023364Y018114D02*
X023580Y018114D01*
X023580Y018137D02*
X023364Y018137D01*
X023364Y018160D02*
X023580Y018160D01*
X023580Y018183D02*
X023364Y018183D01*
X023364Y018206D02*
X023580Y018206D01*
X023580Y018229D02*
X023364Y018229D01*
X023364Y018252D02*
X023580Y018252D01*
X023580Y018275D02*
X023364Y018275D01*
X023364Y018298D02*
X023580Y018298D01*
X023580Y018321D02*
X023364Y018321D01*
X023364Y018344D02*
X023580Y018344D01*
X023580Y018367D02*
X023364Y018367D01*
X023364Y018390D02*
X023580Y018390D01*
X023580Y018413D02*
X023364Y018413D01*
X023364Y018436D02*
X023580Y018436D01*
X023580Y018459D02*
X023364Y018459D01*
X023364Y018482D02*
X023580Y018482D01*
X023580Y018505D02*
X023364Y018505D01*
X023364Y018528D02*
X023580Y018528D01*
X023580Y018551D02*
X023364Y018551D01*
X023364Y018574D02*
X023580Y018574D01*
X023624Y018585D02*
X023840Y018585D01*
X023840Y017999D01*
X023624Y017999D01*
X023624Y018585D01*
X023624Y018022D02*
X023840Y018022D01*
X023840Y018045D02*
X023624Y018045D01*
X023624Y018068D02*
X023840Y018068D01*
X023840Y018091D02*
X023624Y018091D01*
X023624Y018114D02*
X023840Y018114D01*
X023840Y018137D02*
X023624Y018137D01*
X023624Y018160D02*
X023840Y018160D01*
X023840Y018183D02*
X023624Y018183D01*
X023624Y018206D02*
X023840Y018206D01*
X023840Y018229D02*
X023624Y018229D01*
X023624Y018252D02*
X023840Y018252D01*
X023840Y018275D02*
X023624Y018275D01*
X023624Y018298D02*
X023840Y018298D01*
X023840Y018321D02*
X023624Y018321D01*
X023624Y018344D02*
X023840Y018344D01*
X023840Y018367D02*
X023624Y018367D01*
X023624Y018390D02*
X023840Y018390D01*
X023840Y018413D02*
X023624Y018413D01*
X023624Y018436D02*
X023840Y018436D01*
X023840Y018459D02*
X023624Y018459D01*
X023624Y018482D02*
X023840Y018482D01*
X023840Y018505D02*
X023624Y018505D01*
X023624Y018528D02*
X023840Y018528D01*
X023840Y018551D02*
X023624Y018551D01*
X023624Y018574D02*
X023840Y018574D01*
X023884Y018585D02*
X024100Y018585D01*
X024100Y017999D01*
X023884Y017999D01*
X023884Y018585D01*
X023884Y018022D02*
X024100Y018022D01*
X024100Y018045D02*
X023884Y018045D01*
X023884Y018068D02*
X024100Y018068D01*
X024100Y018091D02*
X023884Y018091D01*
X023884Y018114D02*
X024100Y018114D01*
X024100Y018137D02*
X023884Y018137D01*
X023884Y018160D02*
X024100Y018160D01*
X024100Y018183D02*
X023884Y018183D01*
X023884Y018206D02*
X024100Y018206D01*
X024100Y018229D02*
X023884Y018229D01*
X023884Y018252D02*
X024100Y018252D01*
X024100Y018275D02*
X023884Y018275D01*
X023884Y018298D02*
X024100Y018298D01*
X024100Y018321D02*
X023884Y018321D01*
X023884Y018344D02*
X024100Y018344D01*
X024100Y018367D02*
X023884Y018367D01*
X023884Y018390D02*
X024100Y018390D01*
X024100Y018413D02*
X023884Y018413D01*
X023884Y018436D02*
X024100Y018436D01*
X024100Y018459D02*
X023884Y018459D01*
X023884Y018482D02*
X024100Y018482D01*
X024100Y018505D02*
X023884Y018505D01*
X023884Y018528D02*
X024100Y018528D01*
X024100Y018551D02*
X023884Y018551D01*
X023884Y018574D02*
X024100Y018574D01*
X024144Y018585D02*
X024360Y018585D01*
X024360Y017999D01*
X024144Y017999D01*
X024144Y018585D01*
X024144Y018022D02*
X024360Y018022D01*
X024360Y018045D02*
X024144Y018045D01*
X024144Y018068D02*
X024360Y018068D01*
X024360Y018091D02*
X024144Y018091D01*
X024144Y018114D02*
X024360Y018114D01*
X024360Y018137D02*
X024144Y018137D01*
X024144Y018160D02*
X024360Y018160D01*
X024360Y018183D02*
X024144Y018183D01*
X024144Y018206D02*
X024360Y018206D01*
X024360Y018229D02*
X024144Y018229D01*
X024144Y018252D02*
X024360Y018252D01*
X024360Y018275D02*
X024144Y018275D01*
X024144Y018298D02*
X024360Y018298D01*
X024360Y018321D02*
X024144Y018321D01*
X024144Y018344D02*
X024360Y018344D01*
X024360Y018367D02*
X024144Y018367D01*
X024144Y018390D02*
X024360Y018390D01*
X024360Y018413D02*
X024144Y018413D01*
X024144Y018436D02*
X024360Y018436D01*
X024360Y018459D02*
X024144Y018459D01*
X024144Y018482D02*
X024360Y018482D01*
X024360Y018505D02*
X024144Y018505D01*
X024144Y018528D02*
X024360Y018528D01*
X024360Y018551D02*
X024144Y018551D01*
X024144Y018574D02*
X024360Y018574D01*
D23*
X024715Y017524D02*
X025349Y017524D01*
X025349Y016940D01*
X024715Y016940D01*
X024715Y017524D01*
X024715Y017085D02*
X025349Y017085D01*
X025349Y017230D02*
X024715Y017230D01*
X024715Y017375D02*
X025349Y017375D01*
X025349Y017520D02*
X024715Y017520D01*
X022749Y017524D02*
X022115Y017524D01*
X022749Y017524D02*
X022749Y016940D01*
X022115Y016940D01*
X022115Y017524D01*
X022115Y017085D02*
X022749Y017085D01*
X022749Y017230D02*
X022115Y017230D01*
X022115Y017375D02*
X022749Y017375D01*
X022749Y017520D02*
X022115Y017520D01*
D24*
X022644Y018350D02*
X022860Y018350D01*
X022860Y018234D01*
X022644Y018234D01*
X022644Y018350D01*
X024604Y018350D02*
X024820Y018350D01*
X024820Y018234D01*
X024604Y018234D01*
X024604Y018350D01*
D25*
X024458Y017538D02*
X023806Y017538D01*
X024458Y017538D02*
X024458Y016926D01*
X023806Y016926D01*
X023806Y017538D01*
X023806Y016993D02*
X024458Y016993D01*
X024458Y017060D02*
X023806Y017060D01*
X023806Y017127D02*
X024458Y017127D01*
X024458Y017194D02*
X023806Y017194D01*
X023806Y017261D02*
X024458Y017261D01*
X024458Y017328D02*
X023806Y017328D01*
X023806Y017395D02*
X024458Y017395D01*
X024458Y017462D02*
X023806Y017462D01*
X023806Y017529D02*
X024458Y017529D01*
X023658Y017538D02*
X023006Y017538D01*
X023658Y017538D02*
X023658Y016926D01*
X023006Y016926D01*
X023006Y017538D01*
X023006Y016993D02*
X023658Y016993D01*
X023658Y017060D02*
X023006Y017060D01*
X023006Y017127D02*
X023658Y017127D01*
X023658Y017194D02*
X023006Y017194D01*
X023006Y017261D02*
X023658Y017261D01*
X023658Y017328D02*
X023006Y017328D01*
X023006Y017395D02*
X023658Y017395D01*
X023658Y017462D02*
X023006Y017462D01*
X023006Y017529D02*
X023658Y017529D01*
D26*
X021803Y023161D03*
X021409Y023161D03*
X021015Y023161D03*
X021015Y024303D03*
X021409Y024303D03*
X021803Y024303D03*
D27*
X021803Y023732D03*
D28*
G36*
X012384Y015220D02*
X012858Y014746D01*
X012246Y014134D01*
X011772Y014608D01*
X012384Y015220D01*
G37*
G36*
X014746Y012858D02*
X015220Y012384D01*
X014608Y011772D01*
X014134Y012246D01*
X014746Y012858D01*
G37*
G36*
X032244Y012384D02*
X032718Y012858D01*
X033330Y012246D01*
X032856Y011772D01*
X032244Y012384D01*
G37*
G36*
X034606Y014746D02*
X035080Y015220D01*
X035692Y014608D01*
X035218Y014134D01*
X034606Y014746D01*
G37*
G36*
X035218Y033330D02*
X035692Y032856D01*
X035080Y032244D01*
X034606Y032718D01*
X035218Y033330D01*
G37*
G36*
X032856Y035692D02*
X033330Y035218D01*
X032718Y034606D01*
X032244Y035080D01*
X032856Y035692D01*
G37*
G36*
X015220Y035080D02*
X014746Y034606D01*
X014134Y035218D01*
X014608Y035692D01*
X015220Y035080D01*
G37*
G36*
X012858Y032718D02*
X012384Y032244D01*
X011772Y032856D01*
X012246Y033330D01*
X012858Y032718D01*
G37*
D29*
X030232Y024332D03*
X030232Y023132D03*
D30*
X027032Y024132D03*
D31*
X017826Y025700D03*
X017039Y025700D03*
X017833Y021763D03*
D32*
X021124Y026011D03*
X021124Y027783D03*
X021124Y030145D03*
X026340Y030145D03*
X026340Y029554D03*
X026340Y028373D03*
X026340Y026011D03*
D33*
G36*
X025111Y024794D02*
X025520Y025203D01*
X025753Y024970D01*
X025344Y024561D01*
X025111Y024794D01*
G37*
M02*
