G75*
%MOIN*%
%OFA0B0*%
%FSLAX24Y24*%
%IPPOS*%
%LPD*%
%AMOC8*
5,1,8,0,0,1.08239X$1,22.5*
%
%ADD10R,0.0276X0.0354*%
%ADD11R,0.0310X0.0350*%
%ADD12R,0.0110X0.0256*%
%ADD13R,0.0256X0.0110*%
%ADD14C,0.0500*%
%ADD15C,0.0490*%
%ADD16C,0.0472*%
%ADD17C,0.0016*%
%ADD18C,0.0130*%
%ADD19C,0.0400*%
%ADD20C,0.0060*%
%ADD21R,0.0300X0.0350*%
%ADD22R,0.0350X0.0350*%
%ADD23R,0.0315X0.0315*%
%ADD24R,0.0700X0.0250*%
%ADD25R,0.0200X0.0400*%
%ADD26R,0.0689X0.0354*%
%ADD27R,0.0300X0.0300*%
%ADD28OC8,0.0500*%
%ADD29C,0.0740*%
%ADD30C,0.0400*%
%ADD31C,0.0160*%
%ADD32C,0.0280*%
%ADD33C,0.0220*%
%ADD34C,0.0340*%
%ADD35C,0.0050*%
%ADD36C,0.0080*%
%ADD37C,0.0120*%
%ADD38C,0.0320*%
%ADD39C,0.0100*%
%ADD40C,0.0240*%
%ADD41C,0.0000*%
D10*
X022775Y022231D03*
X022775Y022731D03*
X023287Y022731D03*
X023287Y022231D03*
X023287Y023431D03*
X022775Y023431D03*
X026175Y023631D03*
X026687Y023631D03*
X026687Y023031D03*
X026175Y023031D03*
X026175Y022431D03*
X026687Y022431D03*
X027375Y023031D03*
X027887Y023031D03*
X027887Y023631D03*
X027375Y023631D03*
D11*
X027241Y022431D03*
X028001Y022431D03*
X027621Y021631D03*
D12*
X025027Y024192D03*
X024830Y024192D03*
X024633Y024192D03*
X024436Y024192D03*
X024436Y025271D03*
X024633Y025271D03*
X024830Y025271D03*
X025027Y025271D03*
D13*
X025271Y025027D03*
X025271Y024830D03*
X025271Y024633D03*
X025271Y024436D03*
X024192Y024436D03*
X024192Y024633D03*
X024192Y024830D03*
X024192Y025027D03*
D14*
X026431Y025231D03*
X026431Y024431D03*
X027231Y024431D03*
X028031Y024431D03*
X027231Y025231D03*
X025761Y020041D03*
D15*
X025661Y020041D03*
X023801Y020041D03*
X023701Y020041D03*
D16*
X023351Y019081D03*
X023351Y018881D03*
X026111Y018881D03*
X026111Y019081D03*
D17*
X025323Y020298D02*
X025179Y020298D01*
X025323Y020298D02*
X025323Y019784D01*
X025179Y019784D01*
X025179Y020298D01*
X025179Y019799D02*
X025323Y019799D01*
X025323Y019814D02*
X025179Y019814D01*
X025179Y019829D02*
X025323Y019829D01*
X025323Y019844D02*
X025179Y019844D01*
X025179Y019859D02*
X025323Y019859D01*
X025323Y019874D02*
X025179Y019874D01*
X025179Y019889D02*
X025323Y019889D01*
X025323Y019904D02*
X025179Y019904D01*
X025179Y019919D02*
X025323Y019919D01*
X025323Y019934D02*
X025179Y019934D01*
X025179Y019949D02*
X025323Y019949D01*
X025323Y019964D02*
X025179Y019964D01*
X025179Y019979D02*
X025323Y019979D01*
X025323Y019994D02*
X025179Y019994D01*
X025179Y020009D02*
X025323Y020009D01*
X025323Y020024D02*
X025179Y020024D01*
X025179Y020039D02*
X025323Y020039D01*
X025323Y020054D02*
X025179Y020054D01*
X025179Y020069D02*
X025323Y020069D01*
X025323Y020084D02*
X025179Y020084D01*
X025179Y020099D02*
X025323Y020099D01*
X025323Y020114D02*
X025179Y020114D01*
X025179Y020129D02*
X025323Y020129D01*
X025323Y020144D02*
X025179Y020144D01*
X025179Y020159D02*
X025323Y020159D01*
X025323Y020174D02*
X025179Y020174D01*
X025179Y020189D02*
X025323Y020189D01*
X025323Y020204D02*
X025179Y020204D01*
X025179Y020219D02*
X025323Y020219D01*
X025323Y020234D02*
X025179Y020234D01*
X025179Y020249D02*
X025323Y020249D01*
X025323Y020264D02*
X025179Y020264D01*
X025179Y020279D02*
X025323Y020279D01*
X025323Y020294D02*
X025179Y020294D01*
X025063Y020298D02*
X024919Y020298D01*
X025063Y020298D02*
X025063Y019784D01*
X024919Y019784D01*
X024919Y020298D01*
X024919Y019799D02*
X025063Y019799D01*
X025063Y019814D02*
X024919Y019814D01*
X024919Y019829D02*
X025063Y019829D01*
X025063Y019844D02*
X024919Y019844D01*
X024919Y019859D02*
X025063Y019859D01*
X025063Y019874D02*
X024919Y019874D01*
X024919Y019889D02*
X025063Y019889D01*
X025063Y019904D02*
X024919Y019904D01*
X024919Y019919D02*
X025063Y019919D01*
X025063Y019934D02*
X024919Y019934D01*
X024919Y019949D02*
X025063Y019949D01*
X025063Y019964D02*
X024919Y019964D01*
X024919Y019979D02*
X025063Y019979D01*
X025063Y019994D02*
X024919Y019994D01*
X024919Y020009D02*
X025063Y020009D01*
X025063Y020024D02*
X024919Y020024D01*
X024919Y020039D02*
X025063Y020039D01*
X025063Y020054D02*
X024919Y020054D01*
X024919Y020069D02*
X025063Y020069D01*
X025063Y020084D02*
X024919Y020084D01*
X024919Y020099D02*
X025063Y020099D01*
X025063Y020114D02*
X024919Y020114D01*
X024919Y020129D02*
X025063Y020129D01*
X025063Y020144D02*
X024919Y020144D01*
X024919Y020159D02*
X025063Y020159D01*
X025063Y020174D02*
X024919Y020174D01*
X024919Y020189D02*
X025063Y020189D01*
X025063Y020204D02*
X024919Y020204D01*
X024919Y020219D02*
X025063Y020219D01*
X025063Y020234D02*
X024919Y020234D01*
X024919Y020249D02*
X025063Y020249D01*
X025063Y020264D02*
X024919Y020264D01*
X024919Y020279D02*
X025063Y020279D01*
X025063Y020294D02*
X024919Y020294D01*
X024803Y020298D02*
X024659Y020298D01*
X024803Y020298D02*
X024803Y019784D01*
X024659Y019784D01*
X024659Y020298D01*
X024659Y019799D02*
X024803Y019799D01*
X024803Y019814D02*
X024659Y019814D01*
X024659Y019829D02*
X024803Y019829D01*
X024803Y019844D02*
X024659Y019844D01*
X024659Y019859D02*
X024803Y019859D01*
X024803Y019874D02*
X024659Y019874D01*
X024659Y019889D02*
X024803Y019889D01*
X024803Y019904D02*
X024659Y019904D01*
X024659Y019919D02*
X024803Y019919D01*
X024803Y019934D02*
X024659Y019934D01*
X024659Y019949D02*
X024803Y019949D01*
X024803Y019964D02*
X024659Y019964D01*
X024659Y019979D02*
X024803Y019979D01*
X024803Y019994D02*
X024659Y019994D01*
X024659Y020009D02*
X024803Y020009D01*
X024803Y020024D02*
X024659Y020024D01*
X024659Y020039D02*
X024803Y020039D01*
X024803Y020054D02*
X024659Y020054D01*
X024659Y020069D02*
X024803Y020069D01*
X024803Y020084D02*
X024659Y020084D01*
X024659Y020099D02*
X024803Y020099D01*
X024803Y020114D02*
X024659Y020114D01*
X024659Y020129D02*
X024803Y020129D01*
X024803Y020144D02*
X024659Y020144D01*
X024659Y020159D02*
X024803Y020159D01*
X024803Y020174D02*
X024659Y020174D01*
X024659Y020189D02*
X024803Y020189D01*
X024803Y020204D02*
X024659Y020204D01*
X024659Y020219D02*
X024803Y020219D01*
X024803Y020234D02*
X024659Y020234D01*
X024659Y020249D02*
X024803Y020249D01*
X024803Y020264D02*
X024659Y020264D01*
X024659Y020279D02*
X024803Y020279D01*
X024803Y020294D02*
X024659Y020294D01*
X024543Y020298D02*
X024399Y020298D01*
X024543Y020298D02*
X024543Y019784D01*
X024399Y019784D01*
X024399Y020298D01*
X024399Y019799D02*
X024543Y019799D01*
X024543Y019814D02*
X024399Y019814D01*
X024399Y019829D02*
X024543Y019829D01*
X024543Y019844D02*
X024399Y019844D01*
X024399Y019859D02*
X024543Y019859D01*
X024543Y019874D02*
X024399Y019874D01*
X024399Y019889D02*
X024543Y019889D01*
X024543Y019904D02*
X024399Y019904D01*
X024399Y019919D02*
X024543Y019919D01*
X024543Y019934D02*
X024399Y019934D01*
X024399Y019949D02*
X024543Y019949D01*
X024543Y019964D02*
X024399Y019964D01*
X024399Y019979D02*
X024543Y019979D01*
X024543Y019994D02*
X024399Y019994D01*
X024399Y020009D02*
X024543Y020009D01*
X024543Y020024D02*
X024399Y020024D01*
X024399Y020039D02*
X024543Y020039D01*
X024543Y020054D02*
X024399Y020054D01*
X024399Y020069D02*
X024543Y020069D01*
X024543Y020084D02*
X024399Y020084D01*
X024399Y020099D02*
X024543Y020099D01*
X024543Y020114D02*
X024399Y020114D01*
X024399Y020129D02*
X024543Y020129D01*
X024543Y020144D02*
X024399Y020144D01*
X024399Y020159D02*
X024543Y020159D01*
X024543Y020174D02*
X024399Y020174D01*
X024399Y020189D02*
X024543Y020189D01*
X024543Y020204D02*
X024399Y020204D01*
X024399Y020219D02*
X024543Y020219D01*
X024543Y020234D02*
X024399Y020234D01*
X024399Y020249D02*
X024543Y020249D01*
X024543Y020264D02*
X024399Y020264D01*
X024399Y020279D02*
X024543Y020279D01*
X024543Y020294D02*
X024399Y020294D01*
X024283Y020298D02*
X024139Y020298D01*
X024283Y020298D02*
X024283Y019784D01*
X024139Y019784D01*
X024139Y020298D01*
X024139Y019799D02*
X024283Y019799D01*
X024283Y019814D02*
X024139Y019814D01*
X024139Y019829D02*
X024283Y019829D01*
X024283Y019844D02*
X024139Y019844D01*
X024139Y019859D02*
X024283Y019859D01*
X024283Y019874D02*
X024139Y019874D01*
X024139Y019889D02*
X024283Y019889D01*
X024283Y019904D02*
X024139Y019904D01*
X024139Y019919D02*
X024283Y019919D01*
X024283Y019934D02*
X024139Y019934D01*
X024139Y019949D02*
X024283Y019949D01*
X024283Y019964D02*
X024139Y019964D01*
X024139Y019979D02*
X024283Y019979D01*
X024283Y019994D02*
X024139Y019994D01*
X024139Y020009D02*
X024283Y020009D01*
X024283Y020024D02*
X024139Y020024D01*
X024139Y020039D02*
X024283Y020039D01*
X024283Y020054D02*
X024139Y020054D01*
X024139Y020069D02*
X024283Y020069D01*
X024283Y020084D02*
X024139Y020084D01*
X024139Y020099D02*
X024283Y020099D01*
X024283Y020114D02*
X024139Y020114D01*
X024139Y020129D02*
X024283Y020129D01*
X024283Y020144D02*
X024139Y020144D01*
X024139Y020159D02*
X024283Y020159D01*
X024283Y020174D02*
X024139Y020174D01*
X024139Y020189D02*
X024283Y020189D01*
X024283Y020204D02*
X024139Y020204D01*
X024139Y020219D02*
X024283Y020219D01*
X024283Y020234D02*
X024139Y020234D01*
X024139Y020249D02*
X024283Y020249D01*
X024283Y020264D02*
X024139Y020264D01*
X024139Y020279D02*
X024283Y020279D01*
X024283Y020294D02*
X024139Y020294D01*
D18*
X023716Y019241D02*
X023146Y019241D01*
X023716Y019241D02*
X023716Y018721D01*
X023146Y018721D01*
X023146Y019241D01*
X023146Y018850D02*
X023716Y018850D01*
X023716Y018979D02*
X023146Y018979D01*
X023146Y019108D02*
X023716Y019108D01*
X023716Y019237D02*
X023146Y019237D01*
X025746Y019241D02*
X026316Y019241D01*
X026316Y018721D01*
X025746Y018721D01*
X025746Y019241D01*
X025746Y018850D02*
X026316Y018850D01*
X026316Y018979D02*
X025746Y018979D01*
X025746Y019108D02*
X026316Y019108D01*
X026316Y019237D02*
X025746Y019237D01*
D19*
X025811Y020091D02*
X025611Y020091D01*
X025811Y020091D02*
X025811Y019991D01*
X025611Y019991D01*
X025611Y020091D01*
X023851Y020091D02*
X023651Y020091D01*
X023851Y020091D02*
X023851Y019991D01*
X023651Y019991D01*
X023651Y020091D01*
X020281Y021881D02*
X020281Y022381D01*
X019731Y022931D01*
X019331Y023331D01*
X019331Y026131D01*
X020131Y026931D01*
X020131Y027731D01*
X020381Y027731D01*
X020856Y028206D01*
X022281Y029631D01*
X022631Y029631D01*
X023231Y030231D01*
X025981Y030231D01*
X026381Y029831D01*
X026381Y029281D01*
X026631Y029031D01*
X027781Y029031D01*
X028531Y028281D01*
X029625Y027187D01*
X029675Y027081D01*
X030181Y027081D01*
X030181Y026431D01*
X030181Y026131D01*
X030181Y025631D01*
X030031Y024431D02*
X029631Y024031D01*
X030031Y024431D02*
X030627Y024431D01*
X030181Y027081D02*
X030231Y027131D01*
X020131Y027731D02*
X019981Y027881D01*
X019831Y028031D01*
X020181Y021781D02*
X019831Y021431D01*
D20*
X024041Y019251D02*
X024621Y019251D01*
X024621Y018711D01*
X024041Y018711D01*
X024041Y019251D01*
X024041Y018770D02*
X024621Y018770D01*
X024621Y018829D02*
X024041Y018829D01*
X024041Y018888D02*
X024621Y018888D01*
X024621Y018947D02*
X024041Y018947D01*
X024041Y019006D02*
X024621Y019006D01*
X024621Y019065D02*
X024041Y019065D01*
X024041Y019124D02*
X024621Y019124D01*
X024621Y019183D02*
X024041Y019183D01*
X024041Y019242D02*
X024621Y019242D01*
X024841Y019251D02*
X025421Y019251D01*
X025421Y018711D01*
X024841Y018711D01*
X024841Y019251D01*
X024841Y018770D02*
X025421Y018770D01*
X025421Y018829D02*
X024841Y018829D01*
X024841Y018888D02*
X025421Y018888D01*
X025421Y018947D02*
X024841Y018947D01*
X024841Y019006D02*
X025421Y019006D01*
X025421Y019065D02*
X024841Y019065D01*
X024841Y019124D02*
X025421Y019124D01*
X025421Y019183D02*
X024841Y019183D01*
X024841Y019242D02*
X025421Y019242D01*
D21*
X022631Y023981D03*
X022631Y024581D03*
X022631Y025181D03*
X021431Y025181D03*
X021431Y024581D03*
X021431Y023981D03*
D22*
X022031Y023981D03*
D23*
G36*
X020795Y020990D02*
X020573Y020768D01*
X020351Y020990D01*
X020573Y021212D01*
X020795Y020990D01*
G37*
G36*
X021212Y020573D02*
X020990Y020351D01*
X020768Y020573D01*
X020990Y020795D01*
X021212Y020573D01*
G37*
G36*
X028523Y020301D02*
X028301Y020523D01*
X028523Y020745D01*
X028745Y020523D01*
X028523Y020301D01*
G37*
G36*
X028940Y020718D02*
X028718Y020940D01*
X028940Y021162D01*
X029162Y020940D01*
X028940Y020718D01*
G37*
G36*
X028718Y028523D02*
X028940Y028745D01*
X029162Y028523D01*
X028940Y028301D01*
X028718Y028523D01*
G37*
G36*
X028301Y028940D02*
X028523Y029162D01*
X028745Y028940D01*
X028523Y028718D01*
X028301Y028940D01*
G37*
G36*
X020940Y029162D02*
X021162Y028940D01*
X020940Y028718D01*
X020718Y028940D01*
X020940Y029162D01*
G37*
G36*
X020523Y028745D02*
X020745Y028523D01*
X020523Y028301D01*
X020301Y028523D01*
X020523Y028745D01*
G37*
D24*
X030627Y025631D03*
X030627Y024431D03*
X030627Y023831D03*
D25*
X030777Y023281D03*
X031677Y023281D03*
X031677Y026181D03*
X030777Y026181D03*
D26*
X027340Y026110D03*
X027340Y028473D03*
X027340Y029654D03*
X027340Y030244D03*
X022123Y030244D03*
X022123Y027882D03*
X022123Y026110D03*
D27*
X024231Y023031D03*
X024231Y022631D03*
X025231Y022631D03*
X025231Y023031D03*
D28*
X028031Y025231D03*
D29*
X029631Y024031D03*
X029031Y022431D03*
D30*
X030131Y021931D03*
X029631Y021231D03*
X030231Y027131D03*
X029731Y028031D03*
X019831Y028031D03*
X019331Y027131D03*
X019331Y022231D03*
X019831Y021431D03*
D31*
X021131Y021531D02*
X021781Y020881D01*
X023331Y020881D01*
X023631Y020881D01*
X023681Y020931D01*
X025331Y020931D01*
X025631Y021231D01*
X025631Y021981D01*
X026451Y021981D01*
X026501Y022031D01*
X028331Y022031D01*
X028431Y022131D01*
X028431Y022881D01*
X028281Y023031D01*
X028281Y023581D01*
X028381Y023681D01*
X030131Y023131D02*
X030431Y023431D01*
X030431Y023831D01*
X030627Y023831D01*
X027005Y021505D02*
X026955Y021505D01*
X026081Y020631D01*
X026681Y020031D01*
X026081Y020631D02*
X025481Y020631D01*
X025251Y020401D01*
X025251Y020041D01*
X021731Y022431D02*
X021731Y022931D01*
X021081Y023581D01*
X021081Y023631D01*
X021081Y024575D01*
X021087Y024581D01*
X021431Y024581D01*
X021087Y024581D02*
X021087Y025181D01*
X021431Y025181D01*
X021087Y025181D02*
X021087Y025537D01*
X021660Y026110D01*
X022123Y026110D01*
X021131Y021581D02*
X021131Y021531D01*
D32*
X021131Y021581D03*
X021731Y022431D03*
X023331Y020881D03*
X027005Y021505D03*
X030131Y023131D03*
X029031Y025281D03*
X029631Y026581D03*
X021871Y027981D03*
X021371Y027431D03*
X019391Y027691D03*
X018921Y026631D03*
X018681Y025761D03*
X018681Y024731D03*
X018681Y023521D03*
D33*
X019731Y022931D03*
X020181Y023331D03*
X020021Y023661D03*
X020021Y024501D03*
X020031Y025181D03*
X020281Y026431D03*
X021381Y027081D03*
X022681Y026331D03*
X022981Y026381D03*
X023231Y026131D03*
X023681Y026381D03*
X023231Y026831D03*
X023031Y027131D03*
X022831Y027431D03*
X022681Y028131D03*
X022881Y028881D03*
X023031Y029231D03*
X023481Y029731D03*
X023931Y029831D03*
X024631Y029831D03*
X024931Y029831D03*
X025231Y029831D03*
X025931Y029381D03*
X026381Y028431D03*
X026581Y028181D03*
X026731Y027131D03*
X026481Y026631D03*
X025981Y026631D03*
X025181Y026131D03*
X024681Y026181D03*
X025581Y025531D03*
X025906Y024006D03*
X025501Y023701D03*
X025245Y022645D03*
X024781Y021981D03*
X025031Y021431D03*
X024431Y021431D03*
X024581Y020581D03*
X024931Y020581D03*
X026331Y021581D03*
X026451Y021981D03*
X027081Y021131D03*
X027531Y020481D03*
X026781Y020381D03*
X026681Y020031D03*
X028431Y020131D03*
X028531Y021131D03*
X029691Y021721D03*
X030531Y022481D03*
X030381Y022831D03*
X029681Y023431D03*
X028381Y023681D03*
X026681Y023631D03*
X028811Y025861D03*
X028781Y026231D03*
X028171Y026331D03*
X027281Y026981D03*
X028081Y027931D03*
X028381Y027781D03*
X028631Y027581D03*
X027981Y028281D03*
X028131Y029681D03*
X027881Y029931D03*
X028081Y030181D03*
X028731Y029831D03*
X029631Y028631D03*
X030331Y027781D03*
X030731Y026781D03*
X030181Y026431D03*
X031581Y025631D03*
X031581Y024331D03*
X031581Y023931D03*
X023641Y023631D03*
X023431Y024181D03*
X022911Y024161D03*
X022631Y024581D03*
X023031Y025281D03*
X023431Y024981D03*
X021781Y025481D03*
X021081Y023631D03*
X021056Y023181D03*
X022131Y022681D03*
X022281Y023481D03*
X023606Y023031D03*
X023731Y022031D03*
X021981Y021681D03*
X021931Y020281D03*
X021531Y020281D03*
X021131Y020231D03*
X020341Y021321D03*
X019851Y022111D03*
X021431Y029461D03*
X021581Y029901D03*
X021081Y029831D03*
D34*
X028651Y023281D03*
X027881Y022481D03*
D35*
X020616Y019658D02*
X020585Y019624D01*
X020799Y019451D01*
X021428Y019030D01*
X022102Y018688D01*
X022813Y018429D01*
X023169Y018335D01*
X026293Y018335D01*
X026649Y018430D01*
X027360Y018689D01*
X028034Y019031D01*
X028663Y019451D01*
X028877Y019624D01*
X028847Y019658D01*
X028847Y019658D01*
X028756Y019947D01*
X028756Y019947D01*
X028796Y020248D01*
X028796Y020248D01*
X028959Y020503D01*
X028959Y020503D01*
X028959Y020503D01*
X029137Y020616D01*
X029031Y020616D01*
X029023Y020624D01*
X028992Y020592D01*
X028888Y020592D01*
X028592Y020888D01*
X028592Y020992D01*
X028888Y021288D01*
X027163Y021288D01*
X027155Y021281D02*
X027230Y021355D01*
X027270Y021453D01*
X027270Y021558D01*
X027230Y021655D01*
X027155Y021730D01*
X027058Y021770D01*
X026953Y021770D01*
X026855Y021730D01*
X026781Y021655D01*
X026756Y021596D01*
X026750Y021590D01*
X025996Y020836D01*
X025526Y020836D01*
X025536Y020846D01*
X025836Y021146D01*
X025836Y021776D01*
X026324Y021776D01*
X026354Y021746D01*
X026549Y021746D01*
X026629Y021826D01*
X027341Y021826D01*
X027341Y021700D01*
X027336Y021688D01*
X027336Y021575D01*
X027341Y021563D01*
X027341Y021405D01*
X027415Y021331D01*
X027828Y021331D01*
X027843Y021346D01*
X029113Y021346D01*
X029316Y021144D01*
X029356Y021047D01*
X029447Y020956D01*
X029470Y020946D01*
X029288Y020946D01*
X029288Y020992D01*
X028992Y021288D01*
X028888Y021288D01*
X028840Y021239D02*
X026979Y021239D01*
X026980Y021240D02*
X027058Y021240D01*
X027155Y021281D01*
X027211Y021336D02*
X027410Y021336D01*
X027361Y021385D02*
X027242Y021385D01*
X027262Y021433D02*
X027341Y021433D01*
X027341Y021482D02*
X027270Y021482D01*
X027270Y021530D02*
X027341Y021530D01*
X027336Y021579D02*
X027262Y021579D01*
X027242Y021627D02*
X027336Y021627D01*
X027336Y021676D02*
X027210Y021676D01*
X027161Y021724D02*
X027341Y021724D01*
X027341Y021773D02*
X026575Y021773D01*
X026624Y021821D02*
X027341Y021821D01*
X027521Y022236D02*
X027521Y022478D01*
X027540Y022497D01*
X027540Y022729D01*
X027565Y022729D01*
X027631Y022795D01*
X027698Y022729D01*
X028077Y022729D01*
X028150Y022802D01*
X028150Y022873D01*
X028196Y022826D01*
X028226Y022796D01*
X028226Y022236D01*
X027521Y022236D01*
X027521Y022258D02*
X028226Y022258D01*
X028226Y022306D02*
X027521Y022306D01*
X027521Y022355D02*
X028226Y022355D01*
X028226Y022403D02*
X027521Y022403D01*
X027521Y022452D02*
X028226Y022452D01*
X028226Y022500D02*
X027540Y022500D01*
X027540Y022549D02*
X028226Y022549D01*
X028226Y022597D02*
X027540Y022597D01*
X027540Y022646D02*
X028226Y022646D01*
X028226Y022694D02*
X027540Y022694D01*
X027579Y022743D02*
X027684Y022743D01*
X027635Y022791D02*
X027627Y022791D01*
X028090Y022743D02*
X028226Y022743D01*
X028226Y022791D02*
X028139Y022791D01*
X028150Y022840D02*
X028183Y022840D01*
X028486Y023116D02*
X028486Y023454D01*
X028596Y023564D01*
X028670Y023490D01*
X029846Y022313D01*
X029846Y022093D01*
X029806Y021996D01*
X029806Y021867D01*
X029856Y021747D01*
X029947Y021656D01*
X029966Y021648D01*
X029966Y021150D01*
X029937Y021121D01*
X029956Y021167D01*
X029956Y021296D01*
X029907Y021415D01*
X029815Y021507D01*
X029719Y021547D01*
X029393Y021873D01*
X029288Y021916D01*
X028506Y021916D01*
X028516Y021926D01*
X028636Y022046D01*
X028636Y022966D01*
X028486Y023116D01*
X028486Y023131D02*
X029029Y023131D01*
X029077Y023082D02*
X028520Y023082D01*
X028569Y023034D02*
X029126Y023034D01*
X029174Y022985D02*
X028617Y022985D01*
X028636Y022937D02*
X029223Y022937D01*
X029271Y022888D02*
X028636Y022888D01*
X028636Y022840D02*
X029320Y022840D01*
X029368Y022791D02*
X028636Y022791D01*
X028636Y022743D02*
X029417Y022743D01*
X029465Y022694D02*
X028636Y022694D01*
X028636Y022646D02*
X029514Y022646D01*
X029562Y022597D02*
X028636Y022597D01*
X028636Y022549D02*
X029611Y022549D01*
X029659Y022500D02*
X028636Y022500D01*
X028636Y022452D02*
X029708Y022452D01*
X029756Y022403D02*
X028636Y022403D01*
X028636Y022355D02*
X029805Y022355D01*
X029846Y022306D02*
X028636Y022306D01*
X028636Y022258D02*
X029846Y022258D01*
X029846Y022209D02*
X028636Y022209D01*
X028636Y022161D02*
X029846Y022161D01*
X029846Y022112D02*
X028636Y022112D01*
X028636Y022064D02*
X029834Y022064D01*
X029814Y022015D02*
X028605Y022015D01*
X028557Y021967D02*
X029806Y021967D01*
X029806Y021918D02*
X028508Y021918D01*
X028992Y021288D02*
X029172Y021288D01*
X029220Y021239D02*
X029040Y021239D01*
X029089Y021191D02*
X029269Y021191D01*
X029316Y021142D02*
X029137Y021142D01*
X029186Y021094D02*
X029336Y021094D01*
X029358Y021045D02*
X029234Y021045D01*
X029283Y020997D02*
X029406Y020997D01*
X029465Y020948D02*
X029288Y020948D01*
X029125Y020609D02*
X029008Y020609D01*
X029049Y020560D02*
X028870Y020560D01*
X028870Y020574D02*
X028574Y020870D01*
X028471Y020870D01*
X028175Y020574D01*
X028175Y020471D01*
X028246Y020399D01*
X028246Y020279D01*
X028196Y020229D01*
X028196Y020034D01*
X028334Y019896D01*
X028529Y019896D01*
X028666Y020034D01*
X028666Y020229D01*
X028647Y020248D01*
X028870Y020471D01*
X028870Y020574D01*
X028872Y020609D02*
X028836Y020609D01*
X028823Y020657D02*
X028787Y020657D01*
X028775Y020706D02*
X028739Y020706D01*
X028726Y020754D02*
X028690Y020754D01*
X028678Y020803D02*
X028642Y020803D01*
X028629Y020851D02*
X028593Y020851D01*
X028592Y020900D02*
X026640Y020900D01*
X026688Y020948D02*
X028592Y020948D01*
X028597Y020997D02*
X026737Y020997D01*
X026785Y021045D02*
X028646Y021045D01*
X028694Y021094D02*
X026834Y021094D01*
X026882Y021142D02*
X028743Y021142D01*
X028791Y021191D02*
X026931Y021191D01*
X026980Y021240D02*
X026371Y020631D01*
X026736Y020266D01*
X026779Y020266D01*
X026916Y020129D01*
X026916Y019934D01*
X026779Y019796D01*
X026584Y019796D01*
X026446Y019934D01*
X026446Y019976D01*
X025996Y020426D01*
X025566Y020426D01*
X025456Y020316D01*
X025456Y019729D01*
X025378Y019651D01*
X025124Y019651D01*
X025121Y019654D01*
X025118Y019651D01*
X024864Y019651D01*
X024861Y019654D01*
X024858Y019651D01*
X024604Y019651D01*
X024601Y019654D01*
X024598Y019651D01*
X024344Y019651D01*
X024266Y019729D01*
X024266Y020353D01*
X024344Y020431D01*
X024399Y020431D01*
X024346Y020484D01*
X024346Y020679D01*
X024394Y020726D01*
X023766Y020726D01*
X023716Y020676D01*
X023501Y020676D01*
X023481Y020657D01*
X023384Y020616D01*
X023279Y020616D01*
X023181Y020657D01*
X023162Y020676D01*
X021776Y020676D01*
X021776Y020526D01*
X021980Y020526D01*
X022004Y020516D01*
X022029Y020516D01*
X022046Y020499D01*
X022070Y020489D01*
X022139Y020420D01*
X022149Y020396D01*
X022166Y020379D01*
X022166Y020354D01*
X022176Y020330D01*
X022176Y020233D01*
X022166Y020208D01*
X022166Y020184D01*
X022149Y020167D01*
X022139Y020143D01*
X022070Y020074D01*
X022046Y020064D01*
X022029Y020046D01*
X022004Y020046D01*
X021980Y020036D01*
X021483Y020036D01*
X021458Y020046D01*
X021434Y020046D01*
X021417Y020064D01*
X021393Y020074D01*
X021349Y020117D01*
X021229Y019996D01*
X021034Y019996D01*
X020896Y020134D01*
X020896Y020205D01*
X020805Y020296D01*
X020805Y020358D01*
X020642Y020521D01*
X020642Y020624D01*
X020917Y020899D01*
X020899Y020917D01*
X020624Y020642D01*
X020521Y020642D01*
X020225Y020938D01*
X020225Y021042D01*
X020500Y021317D01*
X020338Y021478D01*
X020216Y021357D01*
X020216Y021355D01*
X020108Y021246D01*
X020106Y021246D01*
X020015Y021156D01*
X019896Y021106D01*
X019767Y021106D01*
X019647Y021156D01*
X019556Y021247D01*
X019506Y021367D01*
X019506Y021496D01*
X019556Y021615D01*
X019647Y021707D01*
X019647Y021707D01*
X019956Y022016D01*
X019956Y022247D01*
X019456Y022747D01*
X019056Y023147D01*
X019006Y023267D01*
X019006Y026196D01*
X019056Y026315D01*
X019147Y026407D01*
X019806Y027066D01*
X019806Y027597D01*
X019706Y027697D01*
X019647Y027756D01*
X019647Y027756D01*
X019556Y027847D01*
X019506Y027967D01*
X019506Y028096D01*
X019556Y028215D01*
X019647Y028307D01*
X019767Y028356D01*
X019896Y028356D01*
X020015Y028307D01*
X020107Y028215D01*
X020107Y028215D01*
X020165Y028157D01*
X020256Y028066D01*
X020418Y028228D01*
X020175Y028471D01*
X020175Y028574D01*
X020471Y028870D01*
X020574Y028870D01*
X020817Y028627D01*
X020836Y028645D01*
X020592Y028888D01*
X020592Y028992D01*
X020888Y029288D01*
X020896Y029288D01*
X020896Y029684D01*
X020846Y029734D01*
X020846Y029929D01*
X020984Y030066D01*
X021179Y030066D01*
X021316Y029929D01*
X021316Y029734D01*
X021266Y029684D01*
X021266Y029076D01*
X022097Y029907D01*
X022182Y029942D01*
X021727Y029942D01*
X021654Y030015D01*
X021654Y030473D01*
X021717Y030537D01*
X021609Y030537D01*
X021335Y030376D01*
X021335Y030376D01*
X020771Y029987D01*
X020771Y029987D01*
X020585Y029838D01*
X020616Y029805D01*
X020616Y029805D01*
X020706Y029515D01*
X020706Y029515D01*
X020666Y029215D01*
X020666Y029215D01*
X020503Y028959D01*
X020503Y028959D01*
X020248Y028796D01*
X020248Y028796D01*
X019947Y028756D01*
X019947Y028756D01*
X019658Y028847D01*
X019658Y028847D01*
X019625Y028877D01*
X019404Y028598D01*
X018912Y027821D01*
X018534Y026983D01*
X018278Y026101D01*
X018149Y025191D01*
X018149Y024272D01*
X018278Y023362D01*
X018534Y022479D01*
X018912Y021641D01*
X019404Y020865D01*
X019625Y020586D01*
X019658Y020616D01*
X019658Y020616D01*
X019947Y020706D01*
X019947Y020706D01*
X020248Y020666D01*
X020248Y020666D01*
X020503Y020503D01*
X020503Y020503D01*
X020503Y020503D01*
X020666Y020248D01*
X020666Y020248D01*
X020706Y019947D01*
X020706Y019947D01*
X020616Y019658D01*
X020616Y019658D01*
X020598Y019639D02*
X028864Y019639D01*
X028838Y019687D02*
X025414Y019687D01*
X025456Y019736D02*
X028822Y019736D01*
X028807Y019784D02*
X025456Y019784D01*
X025456Y019833D02*
X026547Y019833D01*
X026499Y019881D02*
X025456Y019881D01*
X025456Y019930D02*
X026450Y019930D01*
X026444Y019978D02*
X025456Y019978D01*
X025456Y020027D02*
X026396Y020027D01*
X026347Y020075D02*
X025456Y020075D01*
X025456Y020124D02*
X026299Y020124D01*
X026250Y020172D02*
X025456Y020172D01*
X025456Y020221D02*
X026202Y020221D01*
X026153Y020269D02*
X025456Y020269D01*
X025458Y020318D02*
X026105Y020318D01*
X026056Y020366D02*
X025506Y020366D01*
X025555Y020415D02*
X026008Y020415D01*
X026394Y020609D02*
X028209Y020609D01*
X028175Y020560D02*
X026442Y020560D01*
X026491Y020512D02*
X028175Y020512D01*
X028182Y020463D02*
X026539Y020463D01*
X026588Y020415D02*
X028231Y020415D01*
X028246Y020366D02*
X026636Y020366D01*
X026685Y020318D02*
X028246Y020318D01*
X028237Y020269D02*
X026733Y020269D01*
X026824Y020221D02*
X028196Y020221D01*
X028196Y020172D02*
X026873Y020172D01*
X026916Y020124D02*
X028196Y020124D01*
X028196Y020075D02*
X026916Y020075D01*
X026916Y020027D02*
X028203Y020027D01*
X028252Y019978D02*
X026916Y019978D01*
X026912Y019930D02*
X028300Y019930D01*
X028562Y019930D02*
X028762Y019930D01*
X028761Y019978D02*
X028611Y019978D01*
X028659Y020027D02*
X028767Y020027D01*
X028773Y020075D02*
X028666Y020075D01*
X028666Y020124D02*
X028780Y020124D01*
X028786Y020172D02*
X028666Y020172D01*
X028666Y020221D02*
X028793Y020221D01*
X028810Y020269D02*
X028669Y020269D01*
X028717Y020318D02*
X028841Y020318D01*
X028872Y020366D02*
X028766Y020366D01*
X028814Y020415D02*
X028903Y020415D01*
X028934Y020463D02*
X028863Y020463D01*
X028870Y020512D02*
X028973Y020512D01*
X028452Y020851D02*
X026591Y020851D01*
X026543Y020803D02*
X028403Y020803D01*
X028355Y020754D02*
X026494Y020754D01*
X026446Y020706D02*
X028306Y020706D01*
X028258Y020657D02*
X026397Y020657D01*
X026108Y020948D02*
X025638Y020948D01*
X025590Y020900D02*
X026060Y020900D01*
X026011Y020851D02*
X025541Y020851D01*
X025687Y020997D02*
X026157Y020997D01*
X026205Y021045D02*
X025735Y021045D01*
X025784Y021094D02*
X026254Y021094D01*
X026302Y021142D02*
X025832Y021142D01*
X025836Y021191D02*
X026351Y021191D01*
X026399Y021239D02*
X025836Y021239D01*
X025836Y021288D02*
X026448Y021288D01*
X026496Y021336D02*
X025836Y021336D01*
X025836Y021385D02*
X026545Y021385D01*
X026593Y021433D02*
X025836Y021433D01*
X025836Y021482D02*
X026642Y021482D01*
X026690Y021530D02*
X025836Y021530D01*
X025836Y021579D02*
X026739Y021579D01*
X026769Y021627D02*
X025836Y021627D01*
X025836Y021676D02*
X026801Y021676D01*
X026850Y021724D02*
X025836Y021724D01*
X025836Y021773D02*
X026327Y021773D01*
X026596Y022733D02*
X026596Y023350D01*
X026500Y023446D01*
X026450Y023496D01*
X026438Y023496D01*
X026438Y023860D01*
X026365Y023933D01*
X026346Y023933D01*
X026346Y024150D01*
X026250Y024246D01*
X026902Y024246D01*
X026913Y024219D02*
X026856Y024357D01*
X026856Y024506D01*
X026913Y024644D01*
X027019Y024749D01*
X027157Y024806D01*
X027306Y024806D01*
X027444Y024749D01*
X027466Y024727D01*
X027466Y024763D01*
X027353Y024876D01*
X027306Y024856D01*
X027157Y024856D01*
X027019Y024913D01*
X026913Y025019D01*
X026856Y025157D01*
X026856Y025306D01*
X026913Y025444D01*
X027019Y025549D01*
X027157Y025606D01*
X027306Y025606D01*
X027444Y025549D01*
X027549Y025444D01*
X027606Y025306D01*
X027606Y025157D01*
X027587Y025109D01*
X027796Y024900D01*
X027796Y024727D01*
X027819Y024749D01*
X027957Y024806D01*
X028106Y024806D01*
X028133Y024795D01*
X028346Y025008D01*
X028346Y025016D01*
X028187Y024856D01*
X027876Y024856D01*
X027656Y025076D01*
X027656Y025387D01*
X027876Y025606D01*
X028023Y025606D01*
X028016Y025613D01*
X028016Y025613D01*
X027778Y025851D01*
X027736Y025808D01*
X026943Y025808D01*
X026870Y025881D01*
X026870Y026339D01*
X026943Y026413D01*
X027567Y026413D01*
X027513Y026466D01*
X026649Y026466D01*
X026579Y026396D01*
X026384Y026396D01*
X026246Y026534D01*
X026246Y026729D01*
X026384Y026866D01*
X026579Y026866D01*
X026649Y026796D01*
X027650Y026796D01*
X028046Y026400D01*
X028046Y026050D01*
X028250Y025846D01*
X028535Y025846D01*
X028576Y025888D01*
X028576Y025959D01*
X028649Y026031D01*
X028546Y026134D01*
X028546Y026329D01*
X028616Y026399D01*
X028616Y026563D01*
X027916Y027263D01*
X027916Y027764D01*
X027846Y027834D01*
X027846Y028029D01*
X027874Y028056D01*
X027748Y028182D01*
X027736Y028170D01*
X026943Y028170D01*
X026870Y028244D01*
X026870Y028702D01*
X026875Y028706D01*
X026567Y028706D01*
X026447Y028756D01*
X026356Y028847D01*
X026106Y029097D01*
X026056Y029217D01*
X026056Y029697D01*
X025847Y029906D01*
X025466Y029906D01*
X025466Y029734D01*
X025396Y029664D01*
X025396Y029013D01*
X024996Y028613D01*
X024900Y028516D01*
X024150Y028516D01*
X023446Y027813D01*
X023446Y027513D01*
X023296Y027363D01*
X023200Y027266D01*
X022999Y027266D01*
X022929Y027196D01*
X022734Y027196D01*
X022596Y027334D01*
X022596Y027529D01*
X022734Y027666D01*
X022929Y027666D01*
X022999Y027596D01*
X023063Y027596D01*
X023116Y027650D01*
X023116Y027950D01*
X023133Y027966D01*
X022849Y027966D01*
X022779Y027896D01*
X022584Y027896D01*
X022446Y028034D01*
X022446Y028216D01*
X021950Y028216D01*
X021196Y027463D01*
X021196Y027229D01*
X021284Y027316D01*
X021479Y027316D01*
X021616Y027179D01*
X021616Y027080D01*
X021650Y027046D01*
X023114Y027046D01*
X023134Y027066D01*
X023329Y027066D01*
X023466Y026929D01*
X023466Y026734D01*
X023339Y026607D01*
X023396Y026550D01*
X023396Y026299D01*
X023466Y026229D01*
X023466Y026034D01*
X023329Y025896D01*
X023134Y025896D01*
X022996Y026034D01*
X022996Y026146D01*
X022884Y026146D01*
X022856Y026174D01*
X022779Y026096D01*
X022593Y026096D01*
X022593Y025881D01*
X022519Y025808D01*
X021727Y025808D01*
X021687Y025848D01*
X021321Y025481D01*
X021633Y025481D01*
X021706Y025408D01*
X021706Y024955D01*
X021633Y024881D01*
X021292Y024881D01*
X021292Y024881D01*
X021633Y024881D01*
X021706Y024808D01*
X021706Y024355D01*
X021633Y024281D01*
X021286Y024281D01*
X021633Y024281D01*
X021706Y024208D01*
X021706Y023755D01*
X021633Y023681D01*
X021316Y023681D01*
X021316Y023636D01*
X021816Y023136D01*
X021816Y023136D01*
X021936Y023016D01*
X021936Y022819D01*
X021966Y022849D01*
X021966Y022850D01*
X022363Y023246D01*
X022513Y023246D01*
X022513Y023660D01*
X022534Y023681D01*
X022430Y023681D01*
X022356Y023755D01*
X022356Y024208D01*
X022430Y024281D01*
X022699Y024281D01*
X022699Y024281D01*
X022430Y024281D01*
X022356Y024355D01*
X022356Y024808D01*
X022430Y024881D01*
X022748Y024881D01*
X022748Y024881D01*
X022430Y024881D01*
X022356Y024955D01*
X022356Y025408D01*
X022430Y025481D01*
X022833Y025481D01*
X022866Y025448D01*
X022934Y025516D01*
X023033Y025516D01*
X023063Y025546D01*
X023313Y025546D01*
X023716Y025950D01*
X023716Y025950D01*
X023813Y026046D01*
X024946Y026046D01*
X024946Y026133D01*
X024813Y026266D01*
X023899Y026266D01*
X023779Y026146D01*
X023584Y026146D01*
X023446Y026284D01*
X023446Y026479D01*
X023584Y026616D01*
X023779Y026616D01*
X023799Y026596D01*
X024950Y026596D01*
X025046Y026500D01*
X025180Y026366D01*
X025279Y026366D01*
X025316Y026329D01*
X025316Y027000D01*
X026166Y027850D01*
X026166Y028314D01*
X026146Y028334D01*
X026146Y028529D01*
X026284Y028666D01*
X026479Y028666D01*
X026616Y028529D01*
X026616Y028416D01*
X026679Y028416D01*
X026816Y028279D01*
X026816Y028084D01*
X026746Y028014D01*
X026746Y027663D01*
X026650Y027566D01*
X025950Y026866D01*
X026079Y026866D01*
X026216Y026729D01*
X026216Y026534D01*
X026146Y026464D01*
X026146Y025750D01*
X027879Y025750D01*
X027831Y025798D02*
X026146Y025798D01*
X026146Y025750D02*
X026309Y025587D01*
X026357Y025606D01*
X026506Y025606D01*
X026644Y025549D01*
X026749Y025444D01*
X026806Y025306D01*
X026806Y025157D01*
X026749Y025019D01*
X026644Y024913D01*
X026506Y024856D01*
X026357Y024856D01*
X026219Y024913D01*
X026146Y024986D01*
X026146Y024350D01*
X026250Y024246D01*
X026298Y024198D02*
X026934Y024198D01*
X026913Y024219D02*
X027019Y024113D01*
X027027Y024110D01*
X026966Y024050D01*
X026866Y023950D01*
X026866Y022844D01*
X026756Y022733D01*
X026596Y022733D01*
X026596Y022743D02*
X026765Y022743D01*
X026814Y022791D02*
X026596Y022791D01*
X026596Y022840D02*
X026862Y022840D01*
X026866Y022888D02*
X026596Y022888D01*
X026596Y022937D02*
X026866Y022937D01*
X026866Y022985D02*
X026596Y022985D01*
X026596Y023034D02*
X026866Y023034D01*
X026866Y023082D02*
X026596Y023082D01*
X026596Y023131D02*
X026866Y023131D01*
X026866Y023179D02*
X026596Y023179D01*
X026596Y023228D02*
X026866Y023228D01*
X026866Y023276D02*
X026596Y023276D01*
X026596Y023325D02*
X026866Y023325D01*
X026866Y023373D02*
X026573Y023373D01*
X026524Y023422D02*
X026866Y023422D01*
X026866Y023470D02*
X026476Y023470D01*
X026438Y023519D02*
X026866Y023519D01*
X026866Y023567D02*
X026438Y023567D01*
X026438Y023616D02*
X026866Y023616D01*
X026866Y023664D02*
X026438Y023664D01*
X026438Y023713D02*
X026866Y023713D01*
X026866Y023761D02*
X026438Y023761D01*
X026438Y023810D02*
X026866Y023810D01*
X026866Y023858D02*
X026438Y023858D01*
X026392Y023907D02*
X026866Y023907D01*
X026872Y023955D02*
X026346Y023955D01*
X026346Y024004D02*
X026920Y024004D01*
X026969Y024052D02*
X026346Y024052D01*
X026346Y024101D02*
X027017Y024101D01*
X026983Y024149D02*
X026346Y024149D01*
X026201Y024295D02*
X026882Y024295D01*
X026862Y024343D02*
X026153Y024343D01*
X026146Y024392D02*
X026856Y024392D01*
X026856Y024440D02*
X026146Y024440D01*
X026146Y024489D02*
X026856Y024489D01*
X026869Y024537D02*
X026146Y024537D01*
X026146Y024586D02*
X026889Y024586D01*
X026909Y024634D02*
X026146Y024634D01*
X026146Y024683D02*
X026952Y024683D01*
X027001Y024731D02*
X026146Y024731D01*
X026146Y024780D02*
X027093Y024780D01*
X027107Y024877D02*
X026555Y024877D01*
X026656Y024925D02*
X027007Y024925D01*
X026958Y024974D02*
X026704Y024974D01*
X026751Y025022D02*
X026912Y025022D01*
X026892Y025071D02*
X026771Y025071D01*
X026791Y025119D02*
X026872Y025119D01*
X026856Y025168D02*
X026806Y025168D01*
X026806Y025216D02*
X026856Y025216D01*
X026856Y025265D02*
X026806Y025265D01*
X026803Y025313D02*
X026859Y025313D01*
X026879Y025362D02*
X026783Y025362D01*
X026763Y025410D02*
X026900Y025410D01*
X026928Y025459D02*
X026734Y025459D01*
X026686Y025507D02*
X026977Y025507D01*
X027035Y025556D02*
X026628Y025556D01*
X026511Y025604D02*
X027152Y025604D01*
X027311Y025604D02*
X027874Y025604D01*
X027825Y025556D02*
X027428Y025556D01*
X027486Y025507D02*
X027777Y025507D01*
X027728Y025459D02*
X027534Y025459D01*
X027563Y025410D02*
X027680Y025410D01*
X027656Y025362D02*
X027583Y025362D01*
X027603Y025313D02*
X027656Y025313D01*
X027656Y025265D02*
X027606Y025265D01*
X027606Y025216D02*
X027656Y025216D01*
X027656Y025168D02*
X027606Y025168D01*
X027591Y025119D02*
X027656Y025119D01*
X027661Y025071D02*
X027625Y025071D01*
X027674Y025022D02*
X027710Y025022D01*
X027722Y024974D02*
X027758Y024974D01*
X027771Y024925D02*
X027807Y024925D01*
X027796Y024877D02*
X027855Y024877D01*
X027796Y024828D02*
X028167Y024828D01*
X028207Y024877D02*
X028215Y024877D01*
X028256Y024925D02*
X028264Y024925D01*
X028304Y024974D02*
X028312Y024974D01*
X027893Y024780D02*
X027796Y024780D01*
X027796Y024731D02*
X027801Y024731D01*
X027466Y024731D02*
X027462Y024731D01*
X027449Y024780D02*
X027370Y024780D01*
X027401Y024828D02*
X026146Y024828D01*
X026146Y024877D02*
X026307Y024877D01*
X026207Y024925D02*
X026146Y024925D01*
X026146Y024974D02*
X026158Y024974D01*
X026292Y025604D02*
X026352Y025604D01*
X026243Y025653D02*
X027976Y025653D01*
X027928Y025701D02*
X026195Y025701D01*
X026146Y025847D02*
X026905Y025847D01*
X026870Y025895D02*
X026146Y025895D01*
X026146Y025944D02*
X026870Y025944D01*
X026870Y025992D02*
X026146Y025992D01*
X026146Y026041D02*
X026870Y026041D01*
X026870Y026089D02*
X026146Y026089D01*
X026146Y026138D02*
X026870Y026138D01*
X026870Y026186D02*
X026146Y026186D01*
X026146Y026235D02*
X026870Y026235D01*
X026870Y026283D02*
X026146Y026283D01*
X026146Y026332D02*
X026870Y026332D01*
X026911Y026380D02*
X026146Y026380D01*
X026146Y026429D02*
X026351Y026429D01*
X026303Y026477D02*
X026160Y026477D01*
X026208Y026526D02*
X026254Y026526D01*
X026246Y026574D02*
X026216Y026574D01*
X026216Y026623D02*
X026246Y026623D01*
X026246Y026671D02*
X026216Y026671D01*
X026216Y026720D02*
X026246Y026720D01*
X026286Y026768D02*
X026177Y026768D01*
X026128Y026817D02*
X026334Y026817D01*
X026383Y026865D02*
X026080Y026865D01*
X025997Y026914D02*
X028265Y026914D01*
X028217Y026962D02*
X026046Y026962D01*
X026094Y027011D02*
X028168Y027011D01*
X028120Y027059D02*
X026143Y027059D01*
X026191Y027108D02*
X028071Y027108D01*
X028023Y027156D02*
X026240Y027156D01*
X026288Y027205D02*
X027974Y027205D01*
X027926Y027253D02*
X026337Y027253D01*
X026385Y027302D02*
X027916Y027302D01*
X027916Y027350D02*
X026434Y027350D01*
X026482Y027399D02*
X027916Y027399D01*
X027916Y027447D02*
X026531Y027447D01*
X026579Y027496D02*
X027916Y027496D01*
X027916Y027544D02*
X026628Y027544D01*
X026676Y027593D02*
X027916Y027593D01*
X027916Y027641D02*
X026725Y027641D01*
X026746Y027690D02*
X027916Y027690D01*
X027916Y027738D02*
X026746Y027738D01*
X026746Y027787D02*
X027893Y027787D01*
X027846Y027835D02*
X026746Y027835D01*
X026746Y027884D02*
X027846Y027884D01*
X027846Y027932D02*
X026746Y027932D01*
X026746Y027981D02*
X027846Y027981D01*
X027847Y028029D02*
X026762Y028029D01*
X026810Y028078D02*
X027852Y028078D01*
X027804Y028126D02*
X026816Y028126D01*
X026816Y028175D02*
X026939Y028175D01*
X026890Y028223D02*
X026816Y028223D01*
X026816Y028272D02*
X026870Y028272D01*
X026870Y028320D02*
X026775Y028320D01*
X026726Y028369D02*
X026870Y028369D01*
X026870Y028417D02*
X026616Y028417D01*
X026616Y028466D02*
X026870Y028466D01*
X026870Y028514D02*
X026616Y028514D01*
X026582Y028563D02*
X026870Y028563D01*
X026870Y028611D02*
X026534Y028611D01*
X026485Y028660D02*
X026870Y028660D01*
X026562Y028708D02*
X025092Y028708D01*
X025140Y028757D02*
X026446Y028757D01*
X026398Y028805D02*
X025189Y028805D01*
X025237Y028854D02*
X026349Y028854D01*
X026301Y028902D02*
X025286Y028902D01*
X025334Y028951D02*
X026252Y028951D01*
X026204Y028999D02*
X025383Y028999D01*
X025396Y029048D02*
X026155Y029048D01*
X026107Y029096D02*
X025396Y029096D01*
X025396Y029145D02*
X026086Y029145D01*
X026066Y029193D02*
X025396Y029193D01*
X025396Y029242D02*
X026056Y029242D01*
X026056Y029290D02*
X025396Y029290D01*
X025396Y029339D02*
X026056Y029339D01*
X026056Y029387D02*
X025396Y029387D01*
X025396Y029436D02*
X026056Y029436D01*
X026056Y029484D02*
X025396Y029484D01*
X025396Y029533D02*
X026056Y029533D01*
X026056Y029581D02*
X025396Y029581D01*
X025396Y029630D02*
X026056Y029630D01*
X026056Y029678D02*
X025411Y029678D01*
X025459Y029727D02*
X026026Y029727D01*
X025978Y029775D02*
X025466Y029775D01*
X025466Y029824D02*
X025929Y029824D01*
X025881Y029872D02*
X025466Y029872D01*
X025043Y028660D02*
X026277Y028660D01*
X026229Y028611D02*
X024995Y028611D01*
X024946Y028563D02*
X026180Y028563D01*
X026146Y028514D02*
X024148Y028514D01*
X024099Y028466D02*
X026146Y028466D01*
X026146Y028417D02*
X024051Y028417D01*
X024002Y028369D02*
X026146Y028369D01*
X026160Y028320D02*
X023954Y028320D01*
X023905Y028272D02*
X026166Y028272D01*
X026166Y028223D02*
X023857Y028223D01*
X023808Y028175D02*
X026166Y028175D01*
X026166Y028126D02*
X023760Y028126D01*
X023711Y028078D02*
X026166Y028078D01*
X026166Y028029D02*
X023663Y028029D01*
X023614Y027981D02*
X026166Y027981D01*
X026166Y027932D02*
X023566Y027932D01*
X023517Y027884D02*
X026166Y027884D01*
X026152Y027835D02*
X023469Y027835D01*
X023446Y027787D02*
X026103Y027787D01*
X026055Y027738D02*
X023446Y027738D01*
X023446Y027690D02*
X026006Y027690D01*
X025958Y027641D02*
X023446Y027641D01*
X023446Y027593D02*
X025909Y027593D01*
X025861Y027544D02*
X023446Y027544D01*
X023429Y027496D02*
X025812Y027496D01*
X025764Y027447D02*
X023381Y027447D01*
X023332Y027399D02*
X025715Y027399D01*
X025667Y027350D02*
X023284Y027350D01*
X023235Y027302D02*
X025618Y027302D01*
X025570Y027253D02*
X022986Y027253D01*
X022937Y027205D02*
X025521Y027205D01*
X025473Y027156D02*
X021616Y027156D01*
X021616Y027108D02*
X025424Y027108D01*
X025376Y027059D02*
X023336Y027059D01*
X023384Y027011D02*
X025327Y027011D01*
X025316Y026962D02*
X023433Y026962D01*
X023466Y026914D02*
X025316Y026914D01*
X025316Y026865D02*
X023466Y026865D01*
X023466Y026817D02*
X025316Y026817D01*
X025316Y026768D02*
X023466Y026768D01*
X023452Y026720D02*
X025316Y026720D01*
X025316Y026671D02*
X023404Y026671D01*
X023355Y026623D02*
X025316Y026623D01*
X025316Y026574D02*
X024972Y026574D01*
X025020Y026526D02*
X025316Y026526D01*
X025316Y026477D02*
X025069Y026477D01*
X025117Y026429D02*
X025316Y026429D01*
X025316Y026380D02*
X025166Y026380D01*
X025313Y026332D02*
X025316Y026332D01*
X024941Y026138D02*
X023466Y026138D01*
X023466Y026186D02*
X023544Y026186D01*
X023495Y026235D02*
X023460Y026235D01*
X023447Y026283D02*
X023412Y026283D01*
X023396Y026332D02*
X023446Y026332D01*
X023446Y026380D02*
X023396Y026380D01*
X023396Y026429D02*
X023446Y026429D01*
X023446Y026477D02*
X023396Y026477D01*
X023396Y026526D02*
X023493Y026526D01*
X023542Y026574D02*
X023372Y026574D01*
X023466Y026089D02*
X024946Y026089D01*
X024893Y026186D02*
X023819Y026186D01*
X023867Y026235D02*
X024844Y026235D01*
X023807Y026041D02*
X023466Y026041D01*
X023425Y025992D02*
X023759Y025992D01*
X023710Y025944D02*
X023376Y025944D01*
X023565Y025798D02*
X021638Y025798D01*
X021590Y025750D02*
X023516Y025750D01*
X023468Y025701D02*
X021541Y025701D01*
X021493Y025653D02*
X023419Y025653D01*
X023371Y025604D02*
X021444Y025604D01*
X021396Y025556D02*
X023322Y025556D01*
X022925Y025507D02*
X021347Y025507D01*
X021656Y025459D02*
X022407Y025459D01*
X022359Y025410D02*
X021704Y025410D01*
X021706Y025362D02*
X022356Y025362D01*
X022356Y025313D02*
X021706Y025313D01*
X021706Y025265D02*
X022356Y025265D01*
X022356Y025216D02*
X021706Y025216D01*
X021706Y025168D02*
X022356Y025168D01*
X022356Y025119D02*
X021706Y025119D01*
X021706Y025071D02*
X022356Y025071D01*
X022356Y025022D02*
X021706Y025022D01*
X021706Y024974D02*
X022356Y024974D01*
X022386Y024925D02*
X021677Y024925D01*
X021638Y024877D02*
X022425Y024877D01*
X022377Y024828D02*
X021686Y024828D01*
X021706Y024780D02*
X022356Y024780D01*
X022356Y024731D02*
X021706Y024731D01*
X021706Y024683D02*
X022356Y024683D01*
X022356Y024634D02*
X021706Y024634D01*
X021706Y024586D02*
X022356Y024586D01*
X022356Y024537D02*
X021706Y024537D01*
X021706Y024489D02*
X022356Y024489D01*
X022356Y024440D02*
X021706Y024440D01*
X021706Y024392D02*
X022356Y024392D01*
X022368Y024343D02*
X021695Y024343D01*
X021647Y024295D02*
X022416Y024295D01*
X022395Y024246D02*
X021668Y024246D01*
X021706Y024198D02*
X022356Y024198D01*
X022356Y024149D02*
X021706Y024149D01*
X021706Y024101D02*
X022356Y024101D01*
X022356Y024052D02*
X021706Y024052D01*
X021706Y024004D02*
X022356Y024004D01*
X022356Y023955D02*
X021706Y023955D01*
X021706Y023907D02*
X022356Y023907D01*
X022356Y023858D02*
X021706Y023858D01*
X021706Y023810D02*
X022356Y023810D01*
X022356Y023761D02*
X021706Y023761D01*
X021665Y023713D02*
X022398Y023713D01*
X022517Y023664D02*
X021316Y023664D01*
X021337Y023616D02*
X022513Y023616D01*
X022513Y023567D02*
X021385Y023567D01*
X021434Y023519D02*
X022513Y023519D01*
X022513Y023470D02*
X021482Y023470D01*
X021531Y023422D02*
X022513Y023422D01*
X022513Y023373D02*
X021579Y023373D01*
X021628Y023325D02*
X022513Y023325D01*
X022513Y023276D02*
X021676Y023276D01*
X021725Y023228D02*
X022344Y023228D01*
X022296Y023179D02*
X021773Y023179D01*
X021822Y023131D02*
X022247Y023131D01*
X022199Y023082D02*
X021870Y023082D01*
X021919Y023034D02*
X022150Y023034D01*
X022102Y022985D02*
X021936Y022985D01*
X021936Y022937D02*
X022053Y022937D01*
X022005Y022888D02*
X021936Y022888D01*
X021936Y022840D02*
X021957Y022840D01*
X021286Y024281D02*
X021286Y024281D01*
X020116Y024295D02*
X019916Y024295D01*
X019916Y024343D02*
X020116Y024343D01*
X020116Y024392D02*
X019916Y024392D01*
X019916Y024440D02*
X020116Y024440D01*
X020116Y024489D02*
X019916Y024489D01*
X019916Y024537D02*
X020116Y024537D01*
X020116Y024586D02*
X019916Y024586D01*
X019916Y024634D02*
X020116Y024634D01*
X020116Y024683D02*
X019916Y024683D01*
X019916Y024731D02*
X020116Y024731D01*
X020116Y024780D02*
X019916Y024780D01*
X019916Y024828D02*
X020116Y024828D01*
X020116Y024877D02*
X019916Y024877D01*
X019916Y024925D02*
X020116Y024925D01*
X020116Y024946D02*
X020116Y023566D01*
X020084Y023566D01*
X019971Y023453D01*
X019916Y023508D01*
X019916Y024964D01*
X019934Y024946D01*
X020116Y024946D01*
X020116Y024246D02*
X019916Y024246D01*
X019916Y024198D02*
X020116Y024198D01*
X020116Y024149D02*
X019916Y024149D01*
X019916Y024101D02*
X020116Y024101D01*
X020116Y024052D02*
X019916Y024052D01*
X019916Y024004D02*
X020116Y024004D01*
X020116Y023955D02*
X019916Y023955D01*
X019916Y023907D02*
X020116Y023907D01*
X020116Y023858D02*
X019916Y023858D01*
X019916Y023810D02*
X020116Y023810D01*
X020116Y023761D02*
X019916Y023761D01*
X019916Y023713D02*
X020116Y023713D01*
X020116Y023664D02*
X019916Y023664D01*
X019916Y023616D02*
X020116Y023616D01*
X020116Y023567D02*
X019916Y023567D01*
X019916Y023519D02*
X020036Y023519D01*
X019988Y023470D02*
X019954Y023470D01*
X019363Y022840D02*
X018430Y022840D01*
X018416Y022888D02*
X019315Y022888D01*
X019266Y022937D02*
X018401Y022937D01*
X018387Y022985D02*
X019218Y022985D01*
X019169Y023034D02*
X018373Y023034D01*
X018359Y023082D02*
X019121Y023082D01*
X019072Y023131D02*
X018345Y023131D01*
X018331Y023179D02*
X019042Y023179D01*
X019022Y023228D02*
X018317Y023228D01*
X018303Y023276D02*
X019006Y023276D01*
X019006Y023325D02*
X018289Y023325D01*
X018277Y023373D02*
X019006Y023373D01*
X019006Y023422D02*
X018270Y023422D01*
X018263Y023470D02*
X019006Y023470D01*
X019006Y023519D02*
X018256Y023519D01*
X018249Y023567D02*
X019006Y023567D01*
X019006Y023616D02*
X018242Y023616D01*
X018235Y023664D02*
X019006Y023664D01*
X019006Y023713D02*
X018228Y023713D01*
X018221Y023761D02*
X019006Y023761D01*
X019006Y023810D02*
X018215Y023810D01*
X018208Y023858D02*
X019006Y023858D01*
X019006Y023907D02*
X018201Y023907D01*
X018194Y023955D02*
X019006Y023955D01*
X019006Y024004D02*
X018187Y024004D01*
X018180Y024052D02*
X019006Y024052D01*
X019006Y024101D02*
X018173Y024101D01*
X018166Y024149D02*
X019006Y024149D01*
X019006Y024198D02*
X018159Y024198D01*
X018152Y024246D02*
X019006Y024246D01*
X019006Y024295D02*
X018149Y024295D01*
X018149Y024343D02*
X019006Y024343D01*
X019006Y024392D02*
X018149Y024392D01*
X018149Y024440D02*
X019006Y024440D01*
X019006Y024489D02*
X018149Y024489D01*
X018149Y024537D02*
X019006Y024537D01*
X019006Y024586D02*
X018149Y024586D01*
X018149Y024634D02*
X019006Y024634D01*
X019006Y024683D02*
X018149Y024683D01*
X018149Y024731D02*
X019006Y024731D01*
X019006Y024780D02*
X018149Y024780D01*
X018149Y024828D02*
X019006Y024828D01*
X019006Y024877D02*
X018149Y024877D01*
X018149Y024925D02*
X019006Y024925D01*
X019006Y024974D02*
X018149Y024974D01*
X018149Y025022D02*
X019006Y025022D01*
X019006Y025071D02*
X018149Y025071D01*
X018149Y025119D02*
X019006Y025119D01*
X019006Y025168D02*
X018149Y025168D01*
X018152Y025216D02*
X019006Y025216D01*
X019006Y025265D02*
X018159Y025265D01*
X018166Y025313D02*
X019006Y025313D01*
X019006Y025362D02*
X018173Y025362D01*
X018180Y025410D02*
X019006Y025410D01*
X019006Y025459D02*
X018187Y025459D01*
X018194Y025507D02*
X019006Y025507D01*
X019006Y025556D02*
X018201Y025556D01*
X018208Y025604D02*
X019006Y025604D01*
X019006Y025653D02*
X018215Y025653D01*
X018221Y025701D02*
X019006Y025701D01*
X019006Y025750D02*
X018228Y025750D01*
X018235Y025798D02*
X019006Y025798D01*
X019006Y025847D02*
X018242Y025847D01*
X018249Y025895D02*
X019006Y025895D01*
X019006Y025944D02*
X018256Y025944D01*
X018263Y025992D02*
X019006Y025992D01*
X019006Y026041D02*
X018270Y026041D01*
X018277Y026089D02*
X019006Y026089D01*
X019006Y026138D02*
X018289Y026138D01*
X018303Y026186D02*
X019006Y026186D01*
X019022Y026235D02*
X018317Y026235D01*
X018331Y026283D02*
X019042Y026283D01*
X019072Y026332D02*
X018345Y026332D01*
X018359Y026380D02*
X019121Y026380D01*
X019169Y026429D02*
X018373Y026429D01*
X018387Y026477D02*
X019218Y026477D01*
X019266Y026526D02*
X018401Y026526D01*
X018416Y026574D02*
X019315Y026574D01*
X019363Y026623D02*
X018430Y026623D01*
X018444Y026671D02*
X019412Y026671D01*
X019460Y026720D02*
X018458Y026720D01*
X018472Y026768D02*
X019509Y026768D01*
X019557Y026817D02*
X019421Y026817D01*
X019396Y026806D02*
X019515Y026856D01*
X019607Y026947D01*
X019656Y027067D01*
X019656Y027196D01*
X019607Y027315D01*
X019515Y027407D01*
X019396Y027456D01*
X019267Y027456D01*
X019147Y027407D01*
X019056Y027315D01*
X019006Y027196D01*
X019006Y027067D01*
X019056Y026947D01*
X019147Y026856D01*
X019267Y026806D01*
X019396Y026806D01*
X019525Y026865D02*
X019606Y026865D01*
X019573Y026914D02*
X019654Y026914D01*
X019613Y026962D02*
X019703Y026962D01*
X019751Y027011D02*
X019633Y027011D01*
X019653Y027059D02*
X019800Y027059D01*
X019806Y027108D02*
X019656Y027108D01*
X019656Y027156D02*
X019806Y027156D01*
X019806Y027205D02*
X019653Y027205D01*
X019633Y027253D02*
X019806Y027253D01*
X019806Y027302D02*
X019612Y027302D01*
X019572Y027350D02*
X019806Y027350D01*
X019806Y027399D02*
X019523Y027399D01*
X019418Y027447D02*
X019806Y027447D01*
X019806Y027496D02*
X018765Y027496D01*
X018787Y027544D02*
X019806Y027544D01*
X019806Y027593D02*
X018809Y027593D01*
X018831Y027641D02*
X019762Y027641D01*
X019713Y027690D02*
X018853Y027690D01*
X018874Y027738D02*
X019665Y027738D01*
X019616Y027787D02*
X018896Y027787D01*
X018921Y027835D02*
X019568Y027835D01*
X019541Y027884D02*
X018952Y027884D01*
X018982Y027932D02*
X019521Y027932D01*
X019506Y027981D02*
X019013Y027981D01*
X019044Y028029D02*
X019506Y028029D01*
X019506Y028078D02*
X019074Y028078D01*
X019105Y028126D02*
X019519Y028126D01*
X019539Y028175D02*
X019136Y028175D01*
X019167Y028223D02*
X019564Y028223D01*
X019612Y028272D02*
X019197Y028272D01*
X019228Y028320D02*
X019680Y028320D01*
X019983Y028320D02*
X020325Y028320D01*
X020374Y028272D02*
X020050Y028272D01*
X020099Y028223D02*
X020414Y028223D01*
X020365Y028175D02*
X020147Y028175D01*
X020196Y028126D02*
X020317Y028126D01*
X020268Y028078D02*
X020244Y028078D01*
X020277Y028369D02*
X019259Y028369D01*
X019289Y028417D02*
X020228Y028417D01*
X020180Y028466D02*
X019320Y028466D01*
X019351Y028514D02*
X020175Y028514D01*
X020175Y028563D02*
X019382Y028563D01*
X019415Y028611D02*
X020212Y028611D01*
X020260Y028660D02*
X019453Y028660D01*
X019491Y028708D02*
X020309Y028708D01*
X020357Y028757D02*
X019950Y028757D01*
X019946Y028757D02*
X019530Y028757D01*
X019568Y028805D02*
X019791Y028805D01*
X019650Y028854D02*
X019607Y028854D01*
X020262Y028805D02*
X020406Y028805D01*
X020454Y028854D02*
X020338Y028854D01*
X020414Y028902D02*
X020592Y028902D01*
X020591Y028854D02*
X020627Y028854D01*
X020639Y028805D02*
X020675Y028805D01*
X020688Y028757D02*
X020724Y028757D01*
X020736Y028708D02*
X020772Y028708D01*
X020785Y028660D02*
X020821Y028660D01*
X020592Y028951D02*
X020490Y028951D01*
X020503Y028959D02*
X020503Y028959D01*
X020529Y028999D02*
X020600Y028999D01*
X020560Y029048D02*
X020648Y029048D01*
X020697Y029096D02*
X020590Y029096D01*
X020621Y029145D02*
X020745Y029145D01*
X020794Y029193D02*
X020652Y029193D01*
X020670Y029242D02*
X020842Y029242D01*
X020896Y029290D02*
X020676Y029290D01*
X020683Y029339D02*
X020896Y029339D01*
X020896Y029387D02*
X020689Y029387D01*
X020696Y029436D02*
X020896Y029436D01*
X020896Y029484D02*
X020702Y029484D01*
X020701Y029533D02*
X020896Y029533D01*
X020896Y029581D02*
X020686Y029581D01*
X020670Y029630D02*
X020896Y029630D01*
X020896Y029678D02*
X020655Y029678D01*
X020640Y029727D02*
X020853Y029727D01*
X020846Y029775D02*
X020625Y029775D01*
X020598Y029824D02*
X020846Y029824D01*
X020846Y029872D02*
X020628Y029872D01*
X020689Y029921D02*
X020846Y029921D01*
X020887Y029969D02*
X020749Y029969D01*
X020816Y030018D02*
X020935Y030018D01*
X020886Y030066D02*
X021654Y030066D01*
X021654Y030018D02*
X021227Y030018D01*
X021276Y029969D02*
X021700Y029969D01*
X021654Y030115D02*
X020956Y030115D01*
X021027Y030163D02*
X021654Y030163D01*
X021654Y030212D02*
X021097Y030212D01*
X021167Y030260D02*
X021654Y030260D01*
X021654Y030309D02*
X021238Y030309D01*
X021308Y030357D02*
X021654Y030357D01*
X021654Y030406D02*
X021386Y030406D01*
X021468Y030454D02*
X021654Y030454D01*
X021683Y030503D02*
X021551Y030503D01*
X021316Y029921D02*
X022131Y029921D01*
X022063Y029872D02*
X021316Y029872D01*
X021316Y029824D02*
X022014Y029824D01*
X021966Y029775D02*
X021316Y029775D01*
X021309Y029727D02*
X021917Y029727D01*
X021869Y029678D02*
X021266Y029678D01*
X021266Y029630D02*
X021820Y029630D01*
X021772Y029581D02*
X021266Y029581D01*
X021266Y029533D02*
X021723Y029533D01*
X021675Y029484D02*
X021266Y029484D01*
X021266Y029436D02*
X021626Y029436D01*
X021578Y029387D02*
X021266Y029387D01*
X021266Y029339D02*
X021529Y029339D01*
X021481Y029290D02*
X021266Y029290D01*
X021266Y029242D02*
X021432Y029242D01*
X021384Y029193D02*
X021266Y029193D01*
X021266Y029145D02*
X021335Y029145D01*
X021287Y029096D02*
X021266Y029096D01*
X022030Y028696D02*
X022400Y029066D01*
X022864Y029066D01*
X022934Y028996D01*
X023129Y028996D01*
X023266Y029134D01*
X023266Y029329D01*
X023129Y029466D01*
X022934Y029466D01*
X022864Y029396D01*
X022856Y029396D01*
X022907Y029447D01*
X023366Y029906D01*
X023696Y029906D01*
X023696Y029734D01*
X023766Y029664D01*
X023766Y029350D01*
X023113Y028696D01*
X022030Y028696D01*
X022042Y028708D02*
X023125Y028708D01*
X023173Y028757D02*
X022090Y028757D01*
X022139Y028805D02*
X023222Y028805D01*
X023270Y028854D02*
X022187Y028854D01*
X022236Y028902D02*
X023319Y028902D01*
X023367Y028951D02*
X022284Y028951D01*
X022333Y028999D02*
X022931Y028999D01*
X022882Y029048D02*
X022381Y029048D01*
X022895Y029436D02*
X022903Y029436D01*
X022944Y029484D02*
X023766Y029484D01*
X023766Y029436D02*
X023159Y029436D01*
X023208Y029387D02*
X023766Y029387D01*
X023755Y029339D02*
X023256Y029339D01*
X023266Y029290D02*
X023707Y029290D01*
X023658Y029242D02*
X023266Y029242D01*
X023266Y029193D02*
X023610Y029193D01*
X023561Y029145D02*
X023266Y029145D01*
X023229Y029096D02*
X023513Y029096D01*
X023464Y029048D02*
X023180Y029048D01*
X023132Y028999D02*
X023416Y028999D01*
X023766Y029533D02*
X022992Y029533D01*
X023041Y029581D02*
X023766Y029581D01*
X023766Y029630D02*
X023089Y029630D01*
X023138Y029678D02*
X023752Y029678D01*
X023703Y029727D02*
X023186Y029727D01*
X023235Y029775D02*
X023696Y029775D01*
X023696Y029824D02*
X023283Y029824D01*
X023332Y029872D02*
X023696Y029872D01*
X023116Y027932D02*
X022815Y027932D01*
X022548Y027932D02*
X021666Y027932D01*
X021714Y027981D02*
X022499Y027981D01*
X022451Y028029D02*
X021763Y028029D01*
X021811Y028078D02*
X022446Y028078D01*
X022446Y028126D02*
X021860Y028126D01*
X021908Y028175D02*
X022446Y028175D01*
X022709Y027641D02*
X021375Y027641D01*
X021423Y027690D02*
X023116Y027690D01*
X023116Y027738D02*
X021472Y027738D01*
X021520Y027787D02*
X023116Y027787D01*
X023116Y027835D02*
X021569Y027835D01*
X021617Y027884D02*
X023116Y027884D01*
X023108Y027641D02*
X022954Y027641D01*
X022660Y027593D02*
X021326Y027593D01*
X021278Y027544D02*
X022612Y027544D01*
X022596Y027496D02*
X021229Y027496D01*
X021196Y027447D02*
X022596Y027447D01*
X022596Y027399D02*
X021196Y027399D01*
X021196Y027350D02*
X022596Y027350D01*
X022628Y027302D02*
X021493Y027302D01*
X021542Y027253D02*
X022677Y027253D01*
X022725Y027205D02*
X021590Y027205D01*
X021637Y027059D02*
X023127Y027059D01*
X022996Y026138D02*
X022820Y026138D01*
X022996Y026089D02*
X022593Y026089D01*
X022593Y026041D02*
X022996Y026041D01*
X023038Y025992D02*
X022593Y025992D01*
X022593Y025944D02*
X023086Y025944D01*
X022593Y025895D02*
X023662Y025895D01*
X023613Y025847D02*
X022558Y025847D01*
X022856Y025459D02*
X022876Y025459D01*
X021688Y025847D02*
X021687Y025847D01*
X021221Y027253D02*
X021196Y027253D01*
X021196Y027302D02*
X021269Y027302D01*
X019245Y027447D02*
X018743Y027447D01*
X018721Y027399D02*
X019139Y027399D01*
X019091Y027350D02*
X018700Y027350D01*
X018678Y027302D02*
X019050Y027302D01*
X019030Y027253D02*
X018656Y027253D01*
X018634Y027205D02*
X019010Y027205D01*
X019006Y027156D02*
X018612Y027156D01*
X018590Y027108D02*
X019006Y027108D01*
X019009Y027059D02*
X018568Y027059D01*
X018547Y027011D02*
X019029Y027011D01*
X019050Y026962D02*
X018528Y026962D01*
X018514Y026914D02*
X019089Y026914D01*
X019138Y026865D02*
X018500Y026865D01*
X018486Y026817D02*
X019241Y026817D01*
X019412Y022791D02*
X018444Y022791D01*
X018458Y022743D02*
X019460Y022743D01*
X019509Y022694D02*
X018472Y022694D01*
X018486Y022646D02*
X019557Y022646D01*
X019606Y022597D02*
X018500Y022597D01*
X018514Y022549D02*
X019249Y022549D01*
X019267Y022556D02*
X019147Y022507D01*
X019056Y022415D01*
X019006Y022296D01*
X019006Y022167D01*
X019056Y022047D01*
X019147Y021956D01*
X019267Y021906D01*
X019396Y021906D01*
X019515Y021956D01*
X019607Y022047D01*
X019656Y022167D01*
X019656Y022296D01*
X019607Y022415D01*
X019515Y022507D01*
X019396Y022556D01*
X019267Y022556D01*
X019141Y022500D02*
X018528Y022500D01*
X018547Y022452D02*
X019092Y022452D01*
X019051Y022403D02*
X018568Y022403D01*
X018590Y022355D02*
X019031Y022355D01*
X019011Y022306D02*
X018612Y022306D01*
X018634Y022258D02*
X019006Y022258D01*
X019006Y022209D02*
X018656Y022209D01*
X018678Y022161D02*
X019009Y022161D01*
X019029Y022112D02*
X018700Y022112D01*
X018721Y022064D02*
X019049Y022064D01*
X019088Y022015D02*
X018743Y022015D01*
X018765Y021967D02*
X019136Y021967D01*
X019238Y021918D02*
X018787Y021918D01*
X018809Y021870D02*
X019810Y021870D01*
X019859Y021918D02*
X019425Y021918D01*
X019526Y021967D02*
X019907Y021967D01*
X019956Y022015D02*
X019575Y022015D01*
X019614Y022064D02*
X019956Y022064D01*
X019956Y022112D02*
X019634Y022112D01*
X019654Y022161D02*
X019956Y022161D01*
X019956Y022209D02*
X019656Y022209D01*
X019656Y022258D02*
X019945Y022258D01*
X019897Y022306D02*
X019652Y022306D01*
X019632Y022355D02*
X019848Y022355D01*
X019800Y022403D02*
X019612Y022403D01*
X019570Y022452D02*
X019751Y022452D01*
X019703Y022500D02*
X019522Y022500D01*
X019414Y022549D02*
X019654Y022549D01*
X019762Y021821D02*
X018831Y021821D01*
X018853Y021773D02*
X019713Y021773D01*
X019665Y021724D02*
X018874Y021724D01*
X018896Y021676D02*
X019616Y021676D01*
X019568Y021627D02*
X018921Y021627D01*
X018952Y021579D02*
X019541Y021579D01*
X019521Y021530D02*
X018982Y021530D01*
X019013Y021482D02*
X019506Y021482D01*
X019506Y021433D02*
X019044Y021433D01*
X019074Y021385D02*
X019506Y021385D01*
X019519Y021336D02*
X019105Y021336D01*
X019136Y021288D02*
X019539Y021288D01*
X019564Y021239D02*
X019167Y021239D01*
X019197Y021191D02*
X019612Y021191D01*
X019680Y021142D02*
X019228Y021142D01*
X019259Y021094D02*
X020277Y021094D01*
X020325Y021142D02*
X019983Y021142D01*
X020050Y021191D02*
X020374Y021191D01*
X020422Y021239D02*
X020099Y021239D01*
X020149Y021288D02*
X020471Y021288D01*
X020480Y021336D02*
X020198Y021336D01*
X020244Y021385D02*
X020431Y021385D01*
X020383Y021433D02*
X020293Y021433D01*
X020228Y021045D02*
X019289Y021045D01*
X019320Y020997D02*
X020225Y020997D01*
X020225Y020948D02*
X019351Y020948D01*
X019382Y020900D02*
X020263Y020900D01*
X020312Y020851D02*
X019415Y020851D01*
X019453Y020803D02*
X020360Y020803D01*
X020409Y020754D02*
X019491Y020754D01*
X019530Y020706D02*
X019946Y020706D01*
X019950Y020706D02*
X020457Y020706D01*
X020506Y020657D02*
X020262Y020657D01*
X020338Y020609D02*
X020642Y020609D01*
X020639Y020657D02*
X020675Y020657D01*
X020688Y020706D02*
X020724Y020706D01*
X020736Y020754D02*
X020772Y020754D01*
X020785Y020803D02*
X020821Y020803D01*
X020833Y020851D02*
X020869Y020851D01*
X020882Y020900D02*
X020916Y020900D01*
X020642Y020560D02*
X020414Y020560D01*
X020490Y020512D02*
X020651Y020512D01*
X020700Y020463D02*
X020529Y020463D01*
X020560Y020415D02*
X020748Y020415D01*
X020797Y020366D02*
X020590Y020366D01*
X020621Y020318D02*
X020805Y020318D01*
X020832Y020269D02*
X020652Y020269D01*
X020670Y020221D02*
X020880Y020221D01*
X020896Y020172D02*
X020676Y020172D01*
X020683Y020124D02*
X020906Y020124D01*
X020955Y020075D02*
X020689Y020075D01*
X020696Y020027D02*
X021003Y020027D01*
X021259Y020027D02*
X024266Y020027D01*
X024266Y020075D02*
X022072Y020075D01*
X022120Y020124D02*
X024266Y020124D01*
X024266Y020172D02*
X022155Y020172D01*
X022171Y020221D02*
X024266Y020221D01*
X024266Y020269D02*
X022176Y020269D01*
X022176Y020318D02*
X024266Y020318D01*
X024279Y020366D02*
X022166Y020366D01*
X022141Y020415D02*
X024328Y020415D01*
X024367Y020463D02*
X022096Y020463D01*
X022033Y020512D02*
X024346Y020512D01*
X024346Y020560D02*
X021776Y020560D01*
X021776Y020609D02*
X024346Y020609D01*
X024346Y020657D02*
X023482Y020657D01*
X023746Y020706D02*
X024373Y020706D01*
X024370Y021136D02*
X024430Y021196D01*
X024529Y021196D01*
X024666Y021334D01*
X024666Y021516D01*
X024713Y021516D01*
X024796Y021433D01*
X024666Y021433D01*
X024666Y021385D02*
X024796Y021385D01*
X024796Y021433D02*
X024796Y021334D01*
X024934Y021196D01*
X025129Y021196D01*
X025266Y021334D01*
X025266Y021529D01*
X025129Y021666D01*
X025030Y021666D01*
X024946Y021750D01*
X024850Y021846D01*
X024013Y021846D01*
X023916Y021750D01*
X023713Y021546D01*
X023508Y021546D01*
X023566Y021605D01*
X023758Y021796D01*
X023829Y021796D01*
X023966Y021934D01*
X023966Y022129D01*
X023839Y022256D01*
X023985Y022401D01*
X024030Y022356D01*
X024433Y022356D01*
X024506Y022430D01*
X024506Y023123D01*
X024513Y023116D01*
X024956Y023116D01*
X024956Y022430D01*
X025030Y022356D01*
X025066Y022356D01*
X025066Y022313D01*
X025426Y021953D01*
X025426Y021316D01*
X025246Y021136D01*
X024370Y021136D01*
X024376Y021142D02*
X025252Y021142D01*
X025301Y021191D02*
X024424Y021191D01*
X024572Y021239D02*
X024891Y021239D01*
X024842Y021288D02*
X024620Y021288D01*
X024666Y021336D02*
X024796Y021336D01*
X024747Y021482D02*
X024666Y021482D01*
X024923Y021773D02*
X025426Y021773D01*
X025426Y021821D02*
X024875Y021821D01*
X024972Y021724D02*
X025426Y021724D01*
X025426Y021676D02*
X025020Y021676D01*
X025168Y021627D02*
X025426Y021627D01*
X025426Y021579D02*
X025216Y021579D01*
X025265Y021530D02*
X025426Y021530D01*
X025426Y021482D02*
X025266Y021482D01*
X025266Y021433D02*
X025426Y021433D01*
X025426Y021385D02*
X025266Y021385D01*
X025266Y021336D02*
X025426Y021336D01*
X025398Y021288D02*
X025220Y021288D01*
X025172Y021239D02*
X025349Y021239D01*
X025426Y021870D02*
X023902Y021870D01*
X023951Y021918D02*
X025426Y021918D01*
X025412Y021967D02*
X023966Y021967D01*
X023966Y022015D02*
X025364Y022015D01*
X025315Y022064D02*
X023966Y022064D01*
X023966Y022112D02*
X025267Y022112D01*
X025218Y022161D02*
X023934Y022161D01*
X023886Y022209D02*
X025170Y022209D01*
X025121Y022258D02*
X023841Y022258D01*
X023890Y022306D02*
X025073Y022306D01*
X025066Y022355D02*
X023938Y022355D01*
X023988Y021821D02*
X023854Y021821D01*
X023939Y021773D02*
X023734Y021773D01*
X023686Y021724D02*
X023891Y021724D01*
X023842Y021676D02*
X023637Y021676D01*
X023589Y021627D02*
X023794Y021627D01*
X023745Y021579D02*
X023540Y021579D01*
X023181Y020657D02*
X021776Y020657D01*
X021391Y020075D02*
X021308Y020075D01*
X020881Y019396D02*
X028580Y019396D01*
X028508Y019348D02*
X020953Y019348D01*
X021026Y019299D02*
X028435Y019299D01*
X028363Y019251D02*
X021098Y019251D01*
X021170Y019202D02*
X028290Y019202D01*
X028218Y019154D02*
X021243Y019154D01*
X021315Y019105D02*
X028145Y019105D01*
X028072Y019057D02*
X021388Y019057D01*
X021470Y019008D02*
X027989Y019008D01*
X027893Y018960D02*
X021566Y018960D01*
X021662Y018911D02*
X027798Y018911D01*
X027702Y018863D02*
X021757Y018863D01*
X021853Y018814D02*
X027607Y018814D01*
X027511Y018766D02*
X021948Y018766D01*
X022044Y018717D02*
X027415Y018717D01*
X027304Y018669D02*
X022154Y018669D01*
X022288Y018620D02*
X027171Y018620D01*
X027038Y018572D02*
X022421Y018572D01*
X022555Y018523D02*
X026905Y018523D01*
X026772Y018475D02*
X022688Y018475D01*
X022825Y018426D02*
X026636Y018426D01*
X026453Y018378D02*
X023008Y018378D01*
X024308Y019687D02*
X020625Y019687D01*
X020640Y019736D02*
X024266Y019736D01*
X024266Y019784D02*
X020655Y019784D01*
X020670Y019833D02*
X024266Y019833D01*
X024266Y019881D02*
X020686Y019881D01*
X020701Y019930D02*
X024266Y019930D01*
X024266Y019978D02*
X020702Y019978D01*
X020627Y019590D02*
X028835Y019590D01*
X028775Y019542D02*
X020687Y019542D01*
X020747Y019493D02*
X028715Y019493D01*
X028653Y019445D02*
X020808Y019445D01*
X019791Y020657D02*
X019568Y020657D01*
X019607Y020609D02*
X019650Y020609D01*
X023550Y023546D02*
X023550Y023660D01*
X023494Y023716D01*
X024504Y023716D01*
X024601Y023813D01*
X024601Y023997D01*
X024616Y024012D01*
X024616Y024372D01*
X024543Y024445D01*
X024445Y024445D01*
X024445Y025018D01*
X025018Y025018D01*
X025018Y024329D01*
X025091Y024256D01*
X025373Y024256D01*
X025466Y024163D01*
X025466Y023863D01*
X025716Y023613D01*
X025716Y023480D01*
X025696Y023500D01*
X025600Y023596D01*
X025050Y023596D01*
X024995Y023651D01*
X024995Y023997D01*
X025010Y024012D01*
X025010Y024372D01*
X024937Y024445D01*
X024723Y024445D01*
X024650Y024372D01*
X024650Y024012D01*
X024665Y023997D01*
X024665Y023515D01*
X024733Y023446D01*
X024650Y023446D01*
X024550Y023546D01*
X023550Y023546D01*
X023550Y023567D02*
X024665Y023567D01*
X024665Y023519D02*
X024577Y023519D01*
X024626Y023470D02*
X024709Y023470D01*
X024665Y023616D02*
X023550Y023616D01*
X023546Y023664D02*
X024665Y023664D01*
X024665Y023713D02*
X023497Y023713D01*
X024549Y023761D02*
X024665Y023761D01*
X024665Y023810D02*
X024598Y023810D01*
X024601Y023858D02*
X024665Y023858D01*
X024665Y023907D02*
X024601Y023907D01*
X024601Y023955D02*
X024665Y023955D01*
X024658Y024004D02*
X024608Y024004D01*
X024616Y024052D02*
X024650Y024052D01*
X024650Y024101D02*
X024616Y024101D01*
X024616Y024149D02*
X024650Y024149D01*
X024650Y024198D02*
X024616Y024198D01*
X024616Y024246D02*
X024650Y024246D01*
X024650Y024295D02*
X024616Y024295D01*
X024616Y024343D02*
X024650Y024343D01*
X024670Y024392D02*
X024596Y024392D01*
X024548Y024440D02*
X024718Y024440D01*
X024941Y024440D02*
X025018Y024440D01*
X025018Y024392D02*
X024990Y024392D01*
X025010Y024343D02*
X025018Y024343D01*
X025010Y024295D02*
X025052Y024295D01*
X025010Y024246D02*
X025383Y024246D01*
X025431Y024198D02*
X025010Y024198D01*
X025010Y024149D02*
X025466Y024149D01*
X025466Y024101D02*
X025010Y024101D01*
X025010Y024052D02*
X025466Y024052D01*
X025466Y024004D02*
X025001Y024004D01*
X024995Y023955D02*
X025466Y023955D01*
X025466Y023907D02*
X024995Y023907D01*
X024995Y023858D02*
X025471Y023858D01*
X025519Y023810D02*
X024995Y023810D01*
X024995Y023761D02*
X025568Y023761D01*
X025616Y023713D02*
X024995Y023713D01*
X024995Y023664D02*
X025665Y023664D01*
X025713Y023616D02*
X025030Y023616D01*
X024956Y023082D02*
X024506Y023082D01*
X024506Y023034D02*
X024956Y023034D01*
X024956Y022985D02*
X024506Y022985D01*
X024506Y022937D02*
X024956Y022937D01*
X024956Y022888D02*
X024506Y022888D01*
X024506Y022840D02*
X024956Y022840D01*
X024956Y022791D02*
X024506Y022791D01*
X024506Y022743D02*
X024956Y022743D01*
X024956Y022694D02*
X024506Y022694D01*
X024506Y022646D02*
X024956Y022646D01*
X024956Y022597D02*
X024506Y022597D01*
X024506Y022549D02*
X024956Y022549D01*
X024956Y022500D02*
X024506Y022500D01*
X024506Y022452D02*
X024956Y022452D01*
X024983Y022403D02*
X024480Y022403D01*
X025629Y023567D02*
X025716Y023567D01*
X025716Y023519D02*
X025677Y023519D01*
X025018Y024489D02*
X024445Y024489D01*
X024445Y024537D02*
X025018Y024537D01*
X025018Y024586D02*
X024445Y024586D01*
X024445Y024634D02*
X025018Y024634D01*
X025018Y024683D02*
X024445Y024683D01*
X024445Y024731D02*
X025018Y024731D01*
X025018Y024780D02*
X024445Y024780D01*
X024445Y024828D02*
X025018Y024828D01*
X025018Y024877D02*
X024445Y024877D01*
X024445Y024925D02*
X025018Y024925D01*
X025018Y024974D02*
X024445Y024974D01*
X026611Y026429D02*
X027550Y026429D01*
X027775Y026671D02*
X028508Y026671D01*
X028556Y026623D02*
X027823Y026623D01*
X027872Y026574D02*
X028605Y026574D01*
X028616Y026526D02*
X027920Y026526D01*
X027969Y026477D02*
X028616Y026477D01*
X028616Y026429D02*
X028017Y026429D01*
X028046Y026380D02*
X028598Y026380D01*
X028549Y026332D02*
X028046Y026332D01*
X028046Y026283D02*
X028546Y026283D01*
X028546Y026235D02*
X028046Y026235D01*
X028046Y026186D02*
X028546Y026186D01*
X028546Y026138D02*
X028046Y026138D01*
X028046Y026089D02*
X028591Y026089D01*
X028639Y026041D02*
X028055Y026041D01*
X028104Y025992D02*
X028610Y025992D01*
X028576Y025944D02*
X028152Y025944D01*
X028201Y025895D02*
X028576Y025895D01*
X028535Y025847D02*
X028249Y025847D01*
X027782Y025847D02*
X027774Y025847D01*
X027726Y026720D02*
X028459Y026720D01*
X028411Y026768D02*
X027678Y026768D01*
X028314Y026865D02*
X026580Y026865D01*
X026628Y026817D02*
X028362Y026817D01*
X029446Y026817D02*
X029480Y026817D01*
X029491Y026806D02*
X029499Y026803D01*
X029505Y026797D01*
X029558Y026778D01*
X029611Y026756D01*
X029619Y026756D01*
X029627Y026754D01*
X029683Y026756D01*
X029856Y026756D01*
X029856Y025888D01*
X029820Y025873D01*
X028896Y024949D01*
X028896Y025363D01*
X029446Y025913D01*
X029446Y026850D01*
X029451Y026846D01*
X029491Y026806D01*
X029446Y026768D02*
X029582Y026768D01*
X029446Y026720D02*
X029856Y026720D01*
X029856Y026671D02*
X029446Y026671D01*
X029446Y026623D02*
X029856Y026623D01*
X029856Y026574D02*
X029446Y026574D01*
X029446Y026526D02*
X029856Y026526D01*
X029856Y026477D02*
X029446Y026477D01*
X029446Y026429D02*
X029856Y026429D01*
X029856Y026380D02*
X029446Y026380D01*
X029446Y026332D02*
X029856Y026332D01*
X029856Y026283D02*
X029446Y026283D01*
X029446Y026235D02*
X029856Y026235D01*
X029856Y026186D02*
X029446Y026186D01*
X029446Y026138D02*
X029856Y026138D01*
X029856Y026089D02*
X029446Y026089D01*
X029446Y026041D02*
X029856Y026041D01*
X029856Y025992D02*
X029446Y025992D01*
X029446Y025944D02*
X029856Y025944D01*
X029856Y025895D02*
X029429Y025895D01*
X029380Y025847D02*
X029794Y025847D01*
X029745Y025798D02*
X029332Y025798D01*
X029283Y025750D02*
X029697Y025750D01*
X029648Y025701D02*
X029235Y025701D01*
X029186Y025653D02*
X029600Y025653D01*
X029551Y025604D02*
X029138Y025604D01*
X029089Y025556D02*
X029503Y025556D01*
X029454Y025507D02*
X029041Y025507D01*
X028992Y025459D02*
X029406Y025459D01*
X029357Y025410D02*
X028944Y025410D01*
X028896Y025362D02*
X029309Y025362D01*
X029260Y025313D02*
X028896Y025313D01*
X028896Y025265D02*
X029212Y025265D01*
X029163Y025216D02*
X028896Y025216D01*
X028896Y025168D02*
X029115Y025168D01*
X029066Y025119D02*
X028896Y025119D01*
X028896Y025071D02*
X029018Y025071D01*
X028969Y025022D02*
X028896Y025022D01*
X028896Y024974D02*
X028921Y024974D01*
X029339Y024586D02*
X029726Y024586D01*
X029775Y024634D02*
X029387Y024634D01*
X029436Y024683D02*
X029823Y024683D01*
X029847Y024707D02*
X029667Y024526D01*
X029533Y024526D01*
X029351Y024451D01*
X029212Y024312D01*
X029136Y024130D01*
X029136Y023933D01*
X029209Y023756D01*
X029116Y023849D01*
X029116Y024363D01*
X030076Y025323D01*
X030117Y025306D01*
X030246Y025306D01*
X030343Y025346D01*
X030684Y025346D01*
X030769Y025381D01*
X030992Y025381D01*
X030992Y025234D01*
X031130Y025096D01*
X031325Y025096D01*
X031462Y025234D01*
X031462Y025429D01*
X031325Y025566D01*
X031130Y025566D01*
X031102Y025539D01*
X031102Y025808D01*
X031029Y025881D01*
X030954Y025881D01*
X031002Y025930D01*
X031002Y026433D01*
X030929Y026506D01*
X030626Y026506D01*
X030552Y026433D01*
X030552Y025930D01*
X030566Y025916D01*
X030506Y025916D01*
X030506Y026947D01*
X030507Y026947D01*
X030556Y027067D01*
X030556Y027196D01*
X030507Y027315D01*
X030415Y027407D01*
X030296Y027456D01*
X030167Y027456D01*
X030047Y027407D01*
X030047Y027406D01*
X029868Y027406D01*
X029850Y027423D01*
X029045Y028228D01*
X029288Y028471D01*
X029288Y028574D01*
X028992Y028870D01*
X028888Y028870D01*
X028645Y028627D01*
X028627Y028645D01*
X028870Y028888D01*
X028870Y028992D01*
X028596Y029266D01*
X028596Y029900D01*
X028500Y029996D01*
X028316Y030180D01*
X028316Y030246D01*
X028691Y029987D01*
X028877Y029838D01*
X028847Y029805D01*
X028847Y029805D01*
X028756Y029515D01*
X028796Y029215D01*
X028959Y028959D01*
X029215Y028796D01*
X029515Y028756D01*
X029805Y028847D01*
X029837Y028876D01*
X030005Y028661D01*
X030419Y028028D01*
X030762Y027354D01*
X031027Y026645D01*
X031127Y026292D01*
X031127Y026265D01*
X031137Y026255D01*
X031141Y026241D01*
X031165Y026227D01*
X031186Y026206D01*
X031200Y026206D01*
X031212Y026199D01*
X031240Y026206D01*
X031452Y026206D01*
X031452Y025930D01*
X031526Y025856D01*
X031718Y025856D01*
X031718Y023606D01*
X031526Y023606D01*
X031452Y023533D01*
X031452Y023256D01*
X031240Y023256D01*
X031212Y023264D01*
X031200Y023256D01*
X031186Y023256D01*
X031165Y023236D01*
X031141Y023221D01*
X031137Y023208D01*
X031127Y023198D01*
X031127Y023170D01*
X031027Y022817D01*
X030762Y022109D01*
X030419Y021435D01*
X030296Y021247D01*
X030296Y021648D01*
X030315Y021656D01*
X030407Y021747D01*
X030456Y021867D01*
X030456Y021996D01*
X030416Y022093D01*
X030416Y022488D01*
X030373Y022593D01*
X030293Y022673D01*
X030293Y022673D01*
X030099Y022866D01*
X030184Y022866D01*
X030281Y022907D01*
X030356Y022981D01*
X030396Y023079D01*
X030396Y023106D01*
X030552Y023262D01*
X030552Y023030D01*
X030626Y022956D01*
X030929Y022956D01*
X031002Y023030D01*
X031002Y023533D01*
X030954Y023581D01*
X031029Y023581D01*
X031102Y023655D01*
X031102Y023924D01*
X031130Y023896D01*
X031325Y023896D01*
X031462Y024034D01*
X031462Y024229D01*
X031325Y024366D01*
X031130Y024366D01*
X031102Y024339D01*
X031102Y024608D01*
X031029Y024681D01*
X030837Y024681D01*
X030811Y024707D01*
X030692Y024756D01*
X029967Y024756D01*
X029847Y024707D01*
X029906Y024731D02*
X029484Y024731D01*
X029533Y024780D02*
X031718Y024780D01*
X031718Y024828D02*
X029581Y024828D01*
X029630Y024877D02*
X031718Y024877D01*
X031718Y024925D02*
X029678Y024925D01*
X029727Y024974D02*
X031718Y024974D01*
X031718Y025022D02*
X029775Y025022D01*
X029824Y025071D02*
X031718Y025071D01*
X031718Y025119D02*
X031348Y025119D01*
X031396Y025168D02*
X031718Y025168D01*
X031718Y025216D02*
X031445Y025216D01*
X031462Y025265D02*
X031718Y025265D01*
X031718Y025313D02*
X031462Y025313D01*
X031462Y025362D02*
X031718Y025362D01*
X031718Y025410D02*
X031462Y025410D01*
X031432Y025459D02*
X031718Y025459D01*
X031718Y025507D02*
X031384Y025507D01*
X031335Y025556D02*
X031718Y025556D01*
X031718Y025604D02*
X031102Y025604D01*
X031102Y025556D02*
X031120Y025556D01*
X031102Y025653D02*
X031718Y025653D01*
X031718Y025701D02*
X031102Y025701D01*
X031102Y025750D02*
X031718Y025750D01*
X031718Y025798D02*
X031102Y025798D01*
X031064Y025847D02*
X031718Y025847D01*
X031487Y025895D02*
X030968Y025895D01*
X031002Y025944D02*
X031452Y025944D01*
X031452Y025992D02*
X031002Y025992D01*
X031002Y026041D02*
X031452Y026041D01*
X031452Y026089D02*
X031002Y026089D01*
X031002Y026138D02*
X031452Y026138D01*
X031452Y026186D02*
X031002Y026186D01*
X031002Y026235D02*
X031152Y026235D01*
X031127Y026283D02*
X031002Y026283D01*
X031002Y026332D02*
X031116Y026332D01*
X031102Y026380D02*
X031002Y026380D01*
X031002Y026429D02*
X031089Y026429D01*
X031075Y026477D02*
X030958Y026477D01*
X031061Y026526D02*
X030506Y026526D01*
X030506Y026574D02*
X031047Y026574D01*
X031034Y026623D02*
X030506Y026623D01*
X030506Y026671D02*
X031018Y026671D01*
X030999Y026720D02*
X030506Y026720D01*
X030506Y026768D02*
X030981Y026768D01*
X030963Y026817D02*
X030506Y026817D01*
X030506Y026865D02*
X030945Y026865D01*
X030927Y026914D02*
X030506Y026914D01*
X030513Y026962D02*
X030908Y026962D01*
X030890Y027011D02*
X030533Y027011D01*
X030553Y027059D02*
X030872Y027059D01*
X030854Y027108D02*
X030556Y027108D01*
X030556Y027156D02*
X030836Y027156D01*
X030817Y027205D02*
X030553Y027205D01*
X030533Y027253D02*
X030799Y027253D01*
X030781Y027302D02*
X030512Y027302D01*
X030472Y027350D02*
X030763Y027350D01*
X030739Y027399D02*
X030423Y027399D01*
X030318Y027447D02*
X030714Y027447D01*
X030689Y027496D02*
X029776Y027496D01*
X029728Y027544D02*
X030665Y027544D01*
X030640Y027593D02*
X029679Y027593D01*
X029631Y027641D02*
X030616Y027641D01*
X030591Y027690D02*
X029582Y027690D01*
X029589Y027738D02*
X029534Y027738D01*
X029547Y027756D02*
X029667Y027706D01*
X029796Y027706D01*
X029915Y027756D01*
X030007Y027847D01*
X030056Y027967D01*
X030056Y028096D01*
X030007Y028215D01*
X029915Y028307D01*
X029796Y028356D01*
X029667Y028356D01*
X029547Y028307D01*
X029456Y028215D01*
X029406Y028096D01*
X029406Y027967D01*
X029456Y027847D01*
X029547Y027756D01*
X029516Y027787D02*
X029485Y027787D01*
X029468Y027835D02*
X029437Y027835D01*
X029441Y027884D02*
X029388Y027884D01*
X029421Y027932D02*
X029340Y027932D01*
X029291Y027981D02*
X029406Y027981D01*
X029406Y028029D02*
X029243Y028029D01*
X029194Y028078D02*
X029406Y028078D01*
X029419Y028126D02*
X029146Y028126D01*
X029097Y028175D02*
X029439Y028175D01*
X029464Y028223D02*
X029049Y028223D01*
X029089Y028272D02*
X029512Y028272D01*
X029580Y028320D02*
X029137Y028320D01*
X029186Y028369D02*
X030196Y028369D01*
X030164Y028417D02*
X029234Y028417D01*
X029283Y028466D02*
X030133Y028466D01*
X030101Y028514D02*
X029288Y028514D01*
X029288Y028563D02*
X030069Y028563D01*
X030037Y028611D02*
X029251Y028611D01*
X029202Y028660D02*
X030006Y028660D01*
X029968Y028708D02*
X029154Y028708D01*
X029105Y028757D02*
X029512Y028757D01*
X029515Y028756D02*
X029515Y028756D01*
X029517Y028757D02*
X029930Y028757D01*
X029892Y028805D02*
X029672Y028805D01*
X029805Y028847D02*
X029805Y028847D01*
X029812Y028854D02*
X029854Y028854D01*
X029883Y028320D02*
X030228Y028320D01*
X030260Y028272D02*
X029950Y028272D01*
X029999Y028223D02*
X030292Y028223D01*
X030323Y028175D02*
X030024Y028175D01*
X030044Y028126D02*
X030355Y028126D01*
X030387Y028078D02*
X030056Y028078D01*
X030056Y028029D02*
X030419Y028029D01*
X030443Y027981D02*
X030056Y027981D01*
X030042Y027932D02*
X030468Y027932D01*
X030493Y027884D02*
X030022Y027884D01*
X029995Y027835D02*
X030517Y027835D01*
X030542Y027787D02*
X029946Y027787D01*
X029873Y027738D02*
X030566Y027738D01*
X030145Y027447D02*
X029825Y027447D01*
X030506Y026477D02*
X030597Y026477D01*
X030552Y026429D02*
X030506Y026429D01*
X030506Y026380D02*
X030552Y026380D01*
X030552Y026332D02*
X030506Y026332D01*
X030506Y026283D02*
X030552Y026283D01*
X030552Y026235D02*
X030506Y026235D01*
X030506Y026186D02*
X030552Y026186D01*
X030552Y026138D02*
X030506Y026138D01*
X030506Y026089D02*
X030552Y026089D01*
X030552Y026041D02*
X030506Y026041D01*
X030506Y025992D02*
X030552Y025992D01*
X030552Y025944D02*
X030506Y025944D01*
X030721Y025362D02*
X030992Y025362D01*
X030992Y025313D02*
X030263Y025313D01*
X030100Y025313D02*
X030066Y025313D01*
X030018Y025265D02*
X030992Y025265D01*
X031010Y025216D02*
X029969Y025216D01*
X029921Y025168D02*
X031059Y025168D01*
X031107Y025119D02*
X029872Y025119D01*
X029678Y024537D02*
X029290Y024537D01*
X029242Y024489D02*
X029442Y024489D01*
X029340Y024440D02*
X029193Y024440D01*
X029145Y024392D02*
X029292Y024392D01*
X029243Y024343D02*
X029116Y024343D01*
X029116Y024295D02*
X029205Y024295D01*
X029185Y024246D02*
X029116Y024246D01*
X029116Y024198D02*
X029164Y024198D01*
X029144Y024149D02*
X029116Y024149D01*
X029116Y024101D02*
X029136Y024101D01*
X029136Y024052D02*
X029116Y024052D01*
X029116Y024004D02*
X029136Y024004D01*
X029136Y023955D02*
X029116Y023955D01*
X029116Y023907D02*
X029147Y023907D01*
X029167Y023858D02*
X029116Y023858D01*
X029156Y023810D02*
X029187Y023810D01*
X029204Y023761D02*
X029207Y023761D01*
X029356Y023609D02*
X029533Y023536D01*
X029730Y023536D01*
X029912Y023612D01*
X030051Y023751D01*
X030126Y023933D01*
X030126Y024067D01*
X030166Y024106D01*
X030692Y024106D01*
X030811Y024156D01*
X030837Y024181D01*
X030992Y024181D01*
X030992Y024081D01*
X030226Y024081D01*
X030152Y024008D01*
X030152Y023655D01*
X030226Y023581D01*
X030226Y023516D01*
X030106Y023396D01*
X030079Y023396D01*
X029981Y023356D01*
X029907Y023281D01*
X029866Y023184D01*
X029866Y023099D01*
X029356Y023609D01*
X029398Y023567D02*
X029458Y023567D01*
X029447Y023519D02*
X030226Y023519D01*
X030226Y023567D02*
X029805Y023567D01*
X029916Y023616D02*
X030191Y023616D01*
X030226Y023581D02*
X030226Y023581D01*
X030152Y023664D02*
X029964Y023664D01*
X030013Y023713D02*
X030152Y023713D01*
X030152Y023761D02*
X030055Y023761D01*
X030075Y023810D02*
X030152Y023810D01*
X030152Y023858D02*
X030095Y023858D01*
X030116Y023907D02*
X030152Y023907D01*
X030152Y023955D02*
X030126Y023955D01*
X030126Y024004D02*
X030152Y024004D01*
X030126Y024052D02*
X030197Y024052D01*
X030160Y024101D02*
X030992Y024101D01*
X030992Y024149D02*
X030796Y024149D01*
X031102Y024343D02*
X031107Y024343D01*
X031102Y024392D02*
X031718Y024392D01*
X031718Y024440D02*
X031102Y024440D01*
X031102Y024489D02*
X031718Y024489D01*
X031718Y024537D02*
X031102Y024537D01*
X031102Y024586D02*
X031718Y024586D01*
X031718Y024634D02*
X031076Y024634D01*
X030835Y024683D02*
X031718Y024683D01*
X031718Y024731D02*
X030752Y024731D01*
X031348Y024343D02*
X031718Y024343D01*
X031718Y024295D02*
X031396Y024295D01*
X031445Y024246D02*
X031718Y024246D01*
X031718Y024198D02*
X031462Y024198D01*
X031462Y024149D02*
X031718Y024149D01*
X031718Y024101D02*
X031462Y024101D01*
X031462Y024052D02*
X031718Y024052D01*
X031718Y024004D02*
X031432Y024004D01*
X031384Y023955D02*
X031718Y023955D01*
X031718Y023907D02*
X031335Y023907D01*
X031120Y023907D02*
X031102Y023907D01*
X031102Y023858D02*
X031718Y023858D01*
X031718Y023810D02*
X031102Y023810D01*
X031102Y023761D02*
X031718Y023761D01*
X031718Y023713D02*
X031102Y023713D01*
X031102Y023664D02*
X031718Y023664D01*
X031718Y023616D02*
X031064Y023616D01*
X030968Y023567D02*
X031487Y023567D01*
X031452Y023519D02*
X031002Y023519D01*
X031002Y023470D02*
X031452Y023470D01*
X031452Y023422D02*
X031002Y023422D01*
X031002Y023373D02*
X031452Y023373D01*
X031452Y023325D02*
X031002Y023325D01*
X031002Y023276D02*
X031452Y023276D01*
X031152Y023228D02*
X031002Y023228D01*
X031002Y023179D02*
X031127Y023179D01*
X031116Y023131D02*
X031002Y023131D01*
X031002Y023082D02*
X031102Y023082D01*
X031089Y023034D02*
X031002Y023034D01*
X030958Y022985D02*
X031075Y022985D01*
X031061Y022937D02*
X030312Y022937D01*
X030358Y022985D02*
X030597Y022985D01*
X030552Y023034D02*
X030378Y023034D01*
X030396Y023082D02*
X030552Y023082D01*
X030552Y023131D02*
X030421Y023131D01*
X030469Y023179D02*
X030552Y023179D01*
X030552Y023228D02*
X030518Y023228D01*
X030180Y023470D02*
X029495Y023470D01*
X029544Y023422D02*
X030132Y023422D01*
X030023Y023373D02*
X029592Y023373D01*
X029641Y023325D02*
X029950Y023325D01*
X029905Y023276D02*
X029689Y023276D01*
X029738Y023228D02*
X029884Y023228D01*
X029866Y023179D02*
X029786Y023179D01*
X029835Y023131D02*
X029866Y023131D01*
X030126Y022840D02*
X031034Y022840D01*
X031047Y022888D02*
X030237Y022888D01*
X030174Y022791D02*
X031018Y022791D01*
X030999Y022743D02*
X030223Y022743D01*
X030271Y022694D02*
X030981Y022694D01*
X030963Y022646D02*
X030320Y022646D01*
X030368Y022597D02*
X030945Y022597D01*
X030927Y022549D02*
X030391Y022549D01*
X030411Y022500D02*
X030908Y022500D01*
X030890Y022452D02*
X030416Y022452D01*
X030416Y022403D02*
X030872Y022403D01*
X030854Y022355D02*
X030416Y022355D01*
X030416Y022306D02*
X030836Y022306D01*
X030817Y022258D02*
X030416Y022258D01*
X030416Y022209D02*
X030799Y022209D01*
X030781Y022161D02*
X030416Y022161D01*
X030416Y022112D02*
X030763Y022112D01*
X030739Y022064D02*
X030428Y022064D01*
X030448Y022015D02*
X030714Y022015D01*
X030689Y021967D02*
X030456Y021967D01*
X030456Y021918D02*
X030665Y021918D01*
X030640Y021870D02*
X030456Y021870D01*
X030438Y021821D02*
X030616Y021821D01*
X030591Y021773D02*
X030417Y021773D01*
X030384Y021724D02*
X030566Y021724D01*
X030542Y021676D02*
X030335Y021676D01*
X030296Y021627D02*
X030517Y021627D01*
X030493Y021579D02*
X030296Y021579D01*
X030296Y021530D02*
X030468Y021530D01*
X030443Y021482D02*
X030296Y021482D01*
X030296Y021433D02*
X030419Y021433D01*
X030387Y021385D02*
X030296Y021385D01*
X030296Y021336D02*
X030355Y021336D01*
X030323Y021288D02*
X030296Y021288D01*
X029966Y021288D02*
X029956Y021288D01*
X029956Y021239D02*
X029966Y021239D01*
X029966Y021191D02*
X029956Y021191D01*
X029959Y021142D02*
X029946Y021142D01*
X029940Y021336D02*
X029966Y021336D01*
X029966Y021385D02*
X029920Y021385D01*
X029889Y021433D02*
X029966Y021433D01*
X029966Y021482D02*
X029840Y021482D01*
X029759Y021530D02*
X029966Y021530D01*
X029966Y021579D02*
X029687Y021579D01*
X029638Y021627D02*
X029966Y021627D01*
X029927Y021676D02*
X029590Y021676D01*
X029541Y021724D02*
X029879Y021724D01*
X029845Y021773D02*
X029493Y021773D01*
X029444Y021821D02*
X029825Y021821D01*
X029806Y021870D02*
X029396Y021870D01*
X029123Y021336D02*
X027833Y021336D01*
X028777Y019881D02*
X026864Y019881D01*
X026815Y019833D02*
X028792Y019833D01*
X028980Y023179D02*
X028486Y023179D01*
X028486Y023228D02*
X028932Y023228D01*
X028883Y023276D02*
X028486Y023276D01*
X028486Y023325D02*
X028835Y023325D01*
X028786Y023373D02*
X028486Y023373D01*
X028486Y023422D02*
X028738Y023422D01*
X028689Y023470D02*
X028503Y023470D01*
X028551Y023519D02*
X028641Y023519D01*
X028670Y023490D02*
X028670Y023490D01*
X028119Y024052D02*
X027736Y024052D01*
X027784Y024101D02*
X027849Y024101D01*
X027819Y024113D02*
X027796Y024136D01*
X027796Y024113D01*
X027500Y023816D01*
X027200Y023816D01*
X027196Y023813D01*
X027196Y023333D01*
X027565Y023333D01*
X027631Y023267D01*
X027695Y023331D01*
X027624Y023402D01*
X027624Y023860D01*
X027698Y023933D01*
X028000Y023933D01*
X028135Y024068D01*
X028106Y024056D01*
X027957Y024056D01*
X027819Y024113D01*
X027687Y024004D02*
X028070Y024004D01*
X028022Y023955D02*
X027639Y023955D01*
X027671Y023907D02*
X027590Y023907D01*
X027624Y023858D02*
X027542Y023858D01*
X027624Y023810D02*
X027196Y023810D01*
X027196Y023761D02*
X027624Y023761D01*
X027624Y023713D02*
X027196Y023713D01*
X027196Y023664D02*
X027624Y023664D01*
X027624Y023616D02*
X027196Y023616D01*
X027196Y023567D02*
X027624Y023567D01*
X027624Y023519D02*
X027196Y023519D01*
X027196Y023470D02*
X027624Y023470D01*
X027624Y023422D02*
X027196Y023422D01*
X027196Y023373D02*
X027653Y023373D01*
X027689Y023325D02*
X027574Y023325D01*
X027622Y023276D02*
X027640Y023276D01*
X027740Y028175D02*
X027755Y028175D01*
X028642Y028660D02*
X028678Y028660D01*
X028690Y028708D02*
X028726Y028708D01*
X028739Y028757D02*
X028775Y028757D01*
X028787Y028805D02*
X028823Y028805D01*
X028836Y028854D02*
X028872Y028854D01*
X028870Y028902D02*
X029049Y028902D01*
X029008Y028854D02*
X029125Y028854D01*
X029057Y028805D02*
X029201Y028805D01*
X029215Y028796D02*
X029215Y028796D01*
X028973Y028951D02*
X028870Y028951D01*
X028863Y028999D02*
X028934Y028999D01*
X028959Y028959D02*
X028959Y028959D01*
X028959Y028959D01*
X028903Y029048D02*
X028814Y029048D01*
X028766Y029096D02*
X028872Y029096D01*
X028841Y029145D02*
X028717Y029145D01*
X028669Y029193D02*
X028810Y029193D01*
X028796Y029215D02*
X028796Y029215D01*
X028793Y029242D02*
X028620Y029242D01*
X028596Y029290D02*
X028786Y029290D01*
X028780Y029339D02*
X028596Y029339D01*
X028596Y029387D02*
X028773Y029387D01*
X028767Y029436D02*
X028596Y029436D01*
X028596Y029484D02*
X028761Y029484D01*
X028756Y029515D02*
X028756Y029515D01*
X028762Y029533D02*
X028596Y029533D01*
X028596Y029581D02*
X028777Y029581D01*
X028792Y029630D02*
X028596Y029630D01*
X028596Y029678D02*
X028807Y029678D01*
X028822Y029727D02*
X028596Y029727D01*
X028596Y029775D02*
X028838Y029775D01*
X028864Y029824D02*
X028596Y029824D01*
X028596Y029872D02*
X028834Y029872D01*
X028774Y029921D02*
X028575Y029921D01*
X028527Y029969D02*
X028714Y029969D01*
X028647Y030018D02*
X028478Y030018D01*
X028430Y030066D02*
X028577Y030066D01*
X028506Y030115D02*
X028381Y030115D01*
X028333Y030163D02*
X028436Y030163D01*
X028366Y030212D02*
X028316Y030212D01*
X028059Y030416D02*
X027984Y030416D01*
X027846Y030279D01*
X027846Y030084D01*
X027984Y029946D01*
X028083Y029946D01*
X028113Y029916D01*
X028034Y029916D01*
X027936Y029819D01*
X027809Y029819D01*
X027809Y029883D01*
X027743Y029949D01*
X027809Y030015D01*
X027809Y030473D01*
X027745Y030537D01*
X027854Y030537D01*
X028059Y030416D01*
X027994Y030454D02*
X027809Y030454D01*
X027809Y030406D02*
X027973Y030406D01*
X027925Y030357D02*
X027809Y030357D01*
X027809Y030309D02*
X027876Y030309D01*
X027846Y030260D02*
X027809Y030260D01*
X027809Y030212D02*
X027846Y030212D01*
X027846Y030163D02*
X027809Y030163D01*
X027809Y030115D02*
X027846Y030115D01*
X027864Y030066D02*
X027809Y030066D01*
X027809Y030018D02*
X027912Y030018D01*
X027961Y029969D02*
X027763Y029969D01*
X027771Y029921D02*
X028108Y029921D01*
X027990Y029872D02*
X027809Y029872D01*
X027809Y029824D02*
X027941Y029824D01*
X027912Y030503D02*
X027779Y030503D01*
D36*
X028081Y030181D02*
X028431Y029831D01*
X028431Y029031D01*
X028523Y028940D01*
X028940Y028523D02*
X028699Y028281D01*
X028531Y028281D01*
X027981Y028281D02*
X027790Y028473D01*
X027340Y028473D01*
X028081Y027931D02*
X028081Y027331D01*
X028781Y026631D01*
X028781Y026231D01*
X028811Y025861D02*
X028631Y025681D01*
X028181Y025681D01*
X027881Y025981D01*
X027881Y026331D01*
X027581Y026631D01*
X026481Y026631D01*
X025981Y026631D02*
X025981Y025681D01*
X026431Y025231D01*
X025981Y025281D02*
X025981Y024281D01*
X026181Y024081D01*
X026181Y023637D01*
X026175Y023631D01*
X025881Y023681D02*
X025881Y023381D01*
X025931Y023331D01*
X026381Y023331D01*
X026431Y023281D01*
X026431Y022781D01*
X026381Y022731D01*
X025981Y022731D01*
X025431Y023281D01*
X024581Y023281D01*
X024481Y023381D01*
X023287Y023381D01*
X023287Y023431D01*
X023641Y023631D02*
X023691Y023581D01*
X024431Y023581D01*
X024633Y023783D01*
X024633Y024192D01*
X024633Y024483D01*
X024681Y024531D01*
X024881Y024531D01*
X025027Y024386D01*
X025027Y024192D01*
X024830Y024192D02*
X024830Y023583D01*
X024981Y023431D01*
X025531Y023431D01*
X025931Y023031D01*
X026175Y023031D01*
X026031Y023031D01*
X026175Y023031D02*
X026175Y023087D01*
X026175Y022431D02*
X026031Y022431D01*
X025431Y023031D01*
X025231Y023031D01*
X025245Y022645D02*
X025231Y022631D01*
X025231Y022381D01*
X025631Y021981D01*
X025031Y021431D02*
X024781Y021681D01*
X024081Y021681D01*
X023781Y021381D01*
X021931Y021381D01*
X021056Y022256D01*
X021056Y022606D01*
X020581Y023081D01*
X020581Y025681D01*
X021481Y026581D01*
X022831Y026581D01*
X022981Y026431D01*
X022981Y026381D01*
X023231Y026481D02*
X022981Y026731D01*
X021431Y026731D01*
X020431Y025731D01*
X020431Y023006D01*
X020881Y022556D01*
X020881Y022181D01*
X021881Y021181D01*
X024181Y021181D01*
X024431Y021431D01*
X024581Y020581D02*
X024731Y020431D01*
X024731Y020041D01*
X024991Y020041D02*
X024991Y020521D01*
X024931Y020581D01*
X023287Y022231D02*
X023337Y022281D01*
X023631Y022281D01*
X023981Y022631D01*
X024231Y022631D01*
X024231Y023031D02*
X023981Y023031D01*
X023681Y022731D01*
X023287Y022731D01*
X023606Y023031D02*
X023556Y023081D01*
X022431Y023081D01*
X022131Y022781D01*
X022131Y022681D01*
X022581Y022731D02*
X022006Y022156D01*
X021631Y022156D01*
X021406Y022381D01*
X021406Y022831D01*
X021056Y023181D01*
X020731Y023156D02*
X021231Y022656D01*
X021231Y022306D01*
X021556Y021981D01*
X022106Y021981D01*
X022356Y022231D01*
X022775Y022231D01*
X022775Y022731D02*
X022581Y022731D01*
X022775Y023431D02*
X022775Y023575D01*
X023081Y023881D01*
X024436Y023881D01*
X024436Y024192D01*
X024192Y024436D02*
X024187Y024431D01*
X023681Y024431D01*
X023431Y024181D01*
X023431Y024431D02*
X023181Y024431D01*
X022911Y024161D01*
X022731Y023981D01*
X022631Y023981D01*
X022781Y023537D02*
X022775Y023431D01*
X022681Y024581D02*
X022631Y024581D01*
X022681Y024631D01*
X023381Y024631D01*
X024031Y025281D01*
X024436Y025281D01*
X024436Y025271D01*
X024631Y025272D02*
X024631Y025581D01*
X025031Y025581D01*
X025031Y025275D01*
X025027Y025271D01*
X025642Y025271D01*
X025806Y025106D01*
X025806Y024106D01*
X025906Y024006D01*
X025631Y023931D02*
X025881Y023681D01*
X025631Y023931D02*
X025631Y024231D01*
X025437Y024425D01*
X025281Y024425D01*
X025271Y024436D01*
X024633Y025271D02*
X024631Y025272D01*
X024633Y025580D02*
X024631Y025581D01*
X024081Y025581D01*
X023481Y024981D01*
X023431Y024981D01*
X023481Y025231D02*
X023981Y025731D01*
X025431Y025731D01*
X025681Y025981D01*
X025681Y026831D01*
X026581Y027731D01*
X026581Y028181D01*
X026331Y028381D02*
X026331Y027781D01*
X025481Y026931D01*
X025481Y026031D01*
X025331Y025881D01*
X023881Y025881D01*
X023381Y025381D01*
X023131Y025381D01*
X023031Y025281D01*
X023331Y025231D02*
X022681Y024581D01*
X023431Y024431D02*
X024027Y025027D01*
X024192Y025027D01*
X023481Y025231D02*
X023331Y025231D01*
X023231Y026131D02*
X023231Y026481D01*
X023231Y026831D02*
X023181Y026881D01*
X021581Y026881D01*
X021381Y027081D01*
X021031Y027531D02*
X021031Y026531D01*
X020281Y025781D01*
X020281Y023431D01*
X020181Y023331D01*
X020731Y023156D02*
X020731Y025631D01*
X021481Y026381D01*
X022631Y026381D01*
X022681Y026331D01*
X023681Y026381D02*
X023731Y026431D01*
X024881Y026431D01*
X025181Y026131D01*
X025581Y025531D02*
X025731Y025531D01*
X025981Y025281D01*
X027231Y025231D02*
X027631Y024831D01*
X027631Y024181D01*
X027431Y023981D01*
X027131Y023981D01*
X027031Y023881D01*
X027031Y022775D01*
X026687Y022431D01*
X026681Y022425D01*
X027241Y022431D02*
X027375Y022565D01*
X027375Y023031D01*
X027631Y022731D02*
X027881Y022481D01*
X027631Y022731D02*
X027631Y023631D01*
X027375Y023631D01*
X027887Y023631D02*
X027887Y023031D01*
X027887Y023631D02*
X027931Y023631D01*
X028531Y024231D01*
X028531Y024631D01*
X028731Y024831D01*
X028731Y025431D01*
X029281Y025981D01*
X029281Y026931D01*
X028631Y027581D01*
X030181Y026231D02*
X030181Y026131D01*
X028104Y029654D02*
X027340Y029654D01*
X028104Y029654D02*
X028131Y029681D01*
X026381Y028431D02*
X026331Y028381D01*
X025231Y029081D02*
X024831Y028681D01*
X024081Y028681D01*
X023281Y027881D01*
X023281Y027581D01*
X023131Y027431D01*
X022831Y027431D01*
X022681Y028131D02*
X023281Y028131D01*
X023981Y028831D01*
X024681Y028831D01*
X024928Y029078D01*
X024928Y029420D01*
X024931Y029423D01*
X024931Y029831D01*
X024631Y029831D02*
X024631Y029031D01*
X024581Y028981D01*
X023881Y028981D01*
X023281Y028381D01*
X021881Y028381D01*
X021031Y027531D01*
X020781Y027481D02*
X021831Y028531D01*
X023181Y028531D01*
X023931Y029281D01*
X023931Y029831D01*
X023031Y029231D02*
X022331Y029231D01*
X020481Y027381D01*
X020481Y026731D01*
X020181Y026431D01*
X020281Y026431D01*
X020781Y026531D02*
X020031Y025781D01*
X020031Y025181D01*
X020781Y026531D02*
X020781Y027481D01*
X020839Y028206D02*
X020523Y028523D01*
X020839Y028206D02*
X020856Y028206D01*
X025231Y029081D02*
X025231Y029831D01*
X020331Y021931D02*
X020306Y021906D01*
X020306Y021856D01*
X020281Y021881D02*
X020181Y021781D01*
X020281Y021881D02*
X020306Y021906D01*
X028940Y020940D02*
X029099Y020781D01*
X029831Y020781D01*
X030131Y021081D01*
X030131Y021931D01*
D37*
X028523Y020523D02*
X028431Y020523D01*
X028431Y020131D01*
X028031Y024431D02*
X028531Y024931D01*
X028531Y025581D01*
X028811Y025861D01*
X029081Y026131D01*
X029081Y026631D01*
X028331Y027381D01*
X028331Y027731D01*
X028381Y027781D01*
X023731Y022031D02*
X023381Y021681D01*
X021981Y021681D01*
X021131Y021581D02*
X020681Y022031D01*
X020681Y022481D01*
X019731Y023431D01*
X019731Y025981D01*
X020181Y026431D01*
X020940Y028940D02*
X021081Y029081D01*
X021081Y029831D01*
X020031Y021431D02*
X019831Y021431D01*
X020540Y020940D02*
X020881Y021281D01*
X020573Y020990D02*
X020540Y020940D01*
X020990Y020573D02*
X020990Y020373D01*
X021131Y020231D01*
D38*
X027621Y021631D02*
X029231Y021631D01*
X029631Y021231D01*
X030131Y021931D02*
X030131Y022431D01*
X028831Y023731D01*
X028831Y024481D01*
X029981Y025631D01*
X030181Y025631D01*
X030627Y025631D01*
D39*
X019981Y027881D02*
X019981Y027981D01*
D40*
X020281Y021881D02*
X020306Y021856D01*
X020881Y021281D01*
X021531Y020631D01*
X021531Y020281D01*
X021931Y020281D01*
X020181Y021781D02*
X020131Y021731D01*
D41*
X030627Y025631D02*
X030631Y025631D01*
M02*
