%
M48
M72
T01C0.0080
T02C0.0140
T03C0.0200
T04C0.0315
T05C0.0320
T06C0.0400
%
T01
X21131Y20231
X21531Y20281
X21931Y20281
X21981Y21681
X22131Y22681
X22281Y23481
X22911Y24161
X22631Y24581
X23031Y25281
X23431Y24981
X23431Y24181
X23641Y23631
X23606Y23031
X23731Y22031
X24431Y21431
X25031Y21431
X24781Y21981
X25245Y22645
X25501Y23701
X25906Y24006
X26681Y23631
X26451Y21981
X26331Y21581
X27081Y21131
X27531Y20481
X26781Y20381
X26681Y20031
X24931Y20581
X24581Y20581
X21056Y23181
X21081Y23631
X20181Y23331
X20021Y23661
X19731Y22931
X19851Y22111
X20341Y21321
X20021Y24501
X20031Y25181
X20281Y26431
X21381Y27081
X22681Y26331
X22981Y26381
X23231Y26131
X23681Y26381
X23231Y26831
X23031Y27131
X22831Y27431
X22681Y28131
X22881Y28881
X23031Y29231
X23481Y29731
X23931Y29831
X24631Y29831
X24931Y29831
X25231Y29831
X25931Y29381
X26381Y28431
X26581Y28181
X26731Y27131
X26481Y26631
X25981Y26631
X25181Y26131
X24681Y26181
X25581Y25531
X27281Y26981
X28171Y26331
X28781Y26231
X28811Y25861
X30181Y26431
X30731Y26781
X30331Y27781
X29631Y28631
X28631Y27581
X28381Y27781
X28081Y27931
X27981Y28281
X28131Y29681
X27881Y29931
X28081Y30181
X28731Y29831
X31581Y25631
X31581Y24331
X31581Y23931
X30381Y22831
X30531Y22481
X29691Y21721
X28531Y21131
X28431Y20131
X29681Y23431
X28381Y23681
X21781Y25481
X21431Y29461
X21581Y29901
X21081Y29831
T02
X21871Y27981
X21371Y27431
X19391Y27691
X18921Y26631
X18681Y25761
X18681Y24731
X18681Y23521
X21131Y21581
X21731Y22431
X23331Y20881
X27005Y21505
X30131Y23131
X29031Y25281
X29631Y26581
T03
X30231Y27131
X29731Y28031
X28651Y23281
X27881Y22481
X29631Y21231
X30131Y21931
X19831Y21431
X19331Y22231
X19331Y27131
X19831Y28031
T04
X23701Y20041
X23801Y20041
X23351Y19081
X23351Y18881
X25661Y20041
X25761Y20041
X26111Y19081
X26111Y18881
T05
X26431Y24431
X26431Y25231
X27231Y25231
X28031Y25231
X28031Y24431
X27231Y24431
X31227Y24131
X31227Y25331
T06
X29631Y24031
X29031Y22431
M30
