G75*
%MOIN*%
%OFA0B0*%
%FSLAX24Y24*%
%IPPOS*%
%LPD*%
%AMOC8*
5,1,8,0,0,1.08239X$1,22.5*
%
%ADD10R,0.0394X0.0394*%
%ADD11R,0.0158X0.0355*%
%ADD12R,0.0355X0.0158*%
%ADD13R,0.0709X0.0316*%
%ADD14R,0.0394X0.0316*%
%ADD15R,0.0316X0.0394*%
%ADD16C,0.0140*%
%ADD17R,0.1070X0.1070*%
%ADD18R,0.0355X0.0355*%
%ADD19R,0.0512X0.0257*%
%ADD20R,0.0390X0.0350*%
%ADD21R,0.0355X0.0512*%
%ADD22R,0.0512X0.0276*%
%ADD23C,0.0540*%
%ADD24C,0.0530*%
%ADD25C,0.0512*%
%ADD26R,0.0434X0.0434*%
%ADD27C,0.0360*%
%ADD28OC8,0.0540*%
%ADD29C,0.0780*%
%ADD30C,0.0440*%
D10*
X024731Y028081D03*
D11*
X024731Y026743D03*
X024534Y026743D03*
X024338Y026743D03*
X024141Y026743D03*
X023944Y026743D03*
X023747Y026743D03*
X024928Y026743D03*
X025125Y026743D03*
X025322Y026743D03*
X025519Y026743D03*
X025716Y026743D03*
X025716Y029420D03*
X025519Y029420D03*
X025322Y029420D03*
X025125Y029420D03*
X024928Y029420D03*
X024731Y029420D03*
X024534Y029420D03*
X024338Y029420D03*
X024141Y029420D03*
X023944Y029420D03*
X023747Y029420D03*
D12*
X023393Y029066D03*
X023393Y028869D03*
X023393Y028672D03*
X023393Y028475D03*
X023393Y028278D03*
X023393Y028081D03*
X023393Y027884D03*
X023393Y027688D03*
X023393Y027491D03*
X023393Y027294D03*
X023393Y027097D03*
X026070Y027097D03*
X026070Y027294D03*
X026070Y027491D03*
X026070Y027688D03*
X026070Y027884D03*
X026070Y028081D03*
X026070Y028278D03*
X026070Y028475D03*
X026070Y028672D03*
X026070Y028869D03*
X026070Y029066D03*
D13*
X027463Y027435D03*
X027463Y026962D03*
X027463Y026490D03*
D14*
X020731Y021075D03*
X020731Y021587D03*
X024431Y021437D03*
X024431Y020925D03*
X025031Y020925D03*
X025031Y021437D03*
X025931Y022275D03*
X025931Y022787D03*
X026331Y021387D03*
X026331Y020875D03*
D15*
X027325Y023431D03*
X027837Y023431D03*
X026687Y023631D03*
X026175Y023631D03*
X027925Y025931D03*
X028437Y025931D03*
X029675Y026031D03*
X029675Y025331D03*
X029675Y024831D03*
X030187Y024831D03*
X030187Y025331D03*
X030187Y026031D03*
X027719Y028112D03*
X027207Y028112D03*
X027207Y029312D03*
X027719Y029312D03*
X027719Y029962D03*
X027207Y029962D03*
X022287Y029531D03*
X022287Y029031D03*
X022287Y028531D03*
X022287Y028031D03*
X022287Y027531D03*
X022287Y027031D03*
X022287Y026531D03*
X022287Y026031D03*
X022287Y025531D03*
X022287Y025031D03*
X022287Y024531D03*
X022287Y024031D03*
X021775Y024031D03*
X021775Y024531D03*
X021775Y025031D03*
X021775Y025531D03*
X021775Y026031D03*
X021775Y026531D03*
X021775Y027031D03*
X021775Y027531D03*
X021775Y028031D03*
X021775Y028531D03*
X021775Y029031D03*
X021775Y029531D03*
X019687Y026131D03*
X019175Y026131D03*
X019175Y025431D03*
X019687Y025431D03*
X020575Y024731D03*
X020575Y024231D03*
X021087Y024231D03*
X021087Y023581D03*
X020575Y023581D03*
X021775Y023481D03*
X022287Y023481D03*
X021087Y024731D03*
X022425Y020281D03*
X022937Y020281D03*
D16*
X024233Y023746D02*
X024233Y024046D01*
X024431Y024046D02*
X024431Y023746D01*
X024630Y023746D02*
X024630Y024046D01*
X024841Y024046D02*
X024841Y023746D01*
X025038Y023746D02*
X025038Y024046D01*
X025238Y024046D02*
X025238Y023746D01*
X025403Y024221D02*
X025703Y024221D01*
X025703Y024419D02*
X025403Y024419D01*
X025403Y024618D02*
X025703Y024618D01*
X025703Y024829D02*
X025403Y024829D01*
X025403Y025026D02*
X025703Y025026D01*
X025703Y025226D02*
X025403Y025226D01*
X025238Y025401D02*
X025238Y025701D01*
X025038Y025701D02*
X025038Y025401D01*
X024841Y025401D02*
X024841Y025701D01*
X024630Y025701D02*
X024630Y025401D01*
X024431Y025401D02*
X024431Y025701D01*
X024233Y025701D02*
X024233Y025401D01*
X024068Y025226D02*
X023768Y025226D01*
X023768Y025026D02*
X024068Y025026D01*
X024068Y024829D02*
X023768Y024829D01*
X023768Y024618D02*
X024068Y024618D01*
X024068Y024419D02*
X023768Y024419D01*
X023768Y024221D02*
X024068Y024221D01*
D17*
X024739Y024727D03*
D18*
X030735Y024731D03*
X031326Y024731D03*
X031327Y023531D03*
X030736Y023531D03*
X030736Y025931D03*
X031327Y025931D03*
D19*
X028043Y021505D03*
X028043Y021131D03*
X028043Y020757D03*
X027019Y020757D03*
X027019Y021505D03*
X022893Y022257D03*
X022893Y022631D03*
X022893Y023005D03*
X021869Y023005D03*
X021869Y022257D03*
X021419Y021505D03*
X021419Y021131D03*
X021419Y020757D03*
X022443Y020757D03*
X022443Y021131D03*
X022443Y021505D03*
D20*
X019931Y024041D03*
X019931Y024801D03*
X019131Y024421D03*
X020231Y025721D03*
X021031Y025341D03*
X021031Y026101D03*
X021031Y026741D03*
X021031Y027501D03*
X020231Y027121D03*
X026631Y022871D03*
X026631Y022111D03*
X027431Y022491D03*
X028331Y026511D03*
X029131Y026891D03*
X028331Y027271D03*
D21*
X027886Y020031D03*
X027177Y020031D03*
X020986Y022581D03*
X020277Y022581D03*
D22*
X024217Y022631D03*
X024217Y022257D03*
X024217Y023005D03*
X025245Y023005D03*
X025245Y022257D03*
D23*
X025761Y020041D03*
X026431Y024431D03*
X026431Y025231D03*
X027231Y025231D03*
X027231Y024431D03*
X028031Y024431D03*
D24*
X025661Y020041D03*
X023801Y020041D03*
X023701Y020041D03*
D25*
X023351Y019081D03*
X023351Y018881D03*
X026111Y018881D03*
X026111Y019081D03*
D26*
X025631Y020638D03*
X025631Y021425D03*
X023831Y021425D03*
X023831Y020638D03*
D27*
X031227Y024131D03*
X031227Y025331D03*
D28*
X028031Y025231D03*
D29*
X029631Y024031D03*
X029031Y022431D03*
D30*
X030131Y021931D03*
X029631Y021231D03*
X030231Y027131D03*
X029731Y028031D03*
X019831Y028031D03*
X019331Y027131D03*
X019331Y022231D03*
X019831Y021431D03*
M02*
