G75*
%MOIN*%
%OFA0B0*%
%FSLAX24Y24*%
%IPPOS*%
%LPD*%
%AMOC8*
5,1,8,0,0,1.08239X$1,22.5*
%
%ADD10C,0.0040*%
%ADD11C,0.0080*%
%ADD12C,0.0110*%
%ADD13R,0.0280X0.0160*%
%ADD14C,0.0160*%
%ADD15R,0.0160X0.0280*%
%ADD16C,0.0050*%
%ADD17R,0.0098X0.0098*%
%ADD18C,0.0060*%
%ADD19C,0.0120*%
%ADD20R,0.0072X0.0004*%
%ADD21R,0.0084X0.0004*%
%ADD22R,0.0152X0.0004*%
%ADD23R,0.0168X0.0004*%
%ADD24R,0.0204X0.0004*%
%ADD25R,0.0212X0.0004*%
%ADD26R,0.0228X0.0004*%
%ADD27R,0.0236X0.0004*%
%ADD28R,0.0256X0.0004*%
%ADD29R,0.0268X0.0004*%
%ADD30R,0.0280X0.0004*%
%ADD31R,0.0288X0.0004*%
%ADD32R,0.0300X0.0004*%
%ADD33R,0.0308X0.0004*%
%ADD34R,0.0320X0.0004*%
%ADD35R,0.0324X0.0004*%
%ADD36R,0.0328X0.0004*%
%ADD37R,0.0336X0.0004*%
%ADD38R,0.0344X0.0004*%
%ADD39R,0.0356X0.0004*%
%ADD40R,0.0360X0.0004*%
%ADD41R,0.0368X0.0004*%
%ADD42R,0.0368X0.0004*%
%ADD43R,0.0376X0.0004*%
%ADD44R,0.0380X0.0004*%
%ADD45R,0.0384X0.0004*%
%ADD46R,0.0388X0.0004*%
%ADD47R,0.0004X0.0004*%
%ADD48R,0.0396X0.0004*%
%ADD49R,0.0056X0.0004*%
%ADD50R,0.0400X0.0004*%
%ADD51R,0.0128X0.0004*%
%ADD52R,0.0408X0.0004*%
%ADD53R,0.0008X0.0004*%
%ADD54R,0.0164X0.0004*%
%ADD55R,0.0200X0.0004*%
%ADD56R,0.0412X0.0004*%
%ADD57R,0.0216X0.0004*%
%ADD58R,0.0416X0.0004*%
%ADD59R,0.0220X0.0004*%
%ADD60R,0.0420X0.0004*%
%ADD61R,0.0232X0.0004*%
%ADD62R,0.0240X0.0004*%
%ADD63R,0.0428X0.0004*%
%ADD64R,0.0252X0.0004*%
%ADD65R,0.0432X0.0004*%
%ADD66R,0.0264X0.0004*%
%ADD67R,0.0432X0.0004*%
%ADD68R,0.0264X0.0004*%
%ADD69R,0.0440X0.0004*%
%ADD70R,0.0272X0.0004*%
%ADD71R,0.0444X0.0004*%
%ADD72R,0.0276X0.0004*%
%ADD73R,0.0448X0.0004*%
%ADD74R,0.0448X0.0004*%
%ADD75R,0.0280X0.0004*%
%ADD76R,0.0452X0.0004*%
%ADD77R,0.0284X0.0004*%
%ADD78R,0.0456X0.0004*%
%ADD79R,0.0288X0.0004*%
%ADD80R,0.0292X0.0004*%
%ADD81R,0.0464X0.0004*%
%ADD82R,0.0296X0.0004*%
%ADD83R,0.0464X0.0004*%
%ADD84R,0.0300X0.0004*%
%ADD85R,0.0468X0.0004*%
%ADD86R,0.0472X0.0004*%
%ADD87R,0.0304X0.0004*%
%ADD88R,0.0472X0.0004*%
%ADD89R,0.0304X0.0004*%
%ADD90R,0.0312X0.0004*%
%ADD91R,0.0112X0.0004*%
%ADD92R,0.0304X0.0004*%
%ADD93R,0.0108X0.0004*%
%ADD94R,0.0296X0.0004*%
%ADD95R,0.0100X0.0004*%
%ADD96R,0.0316X0.0004*%
%ADD97R,0.0096X0.0004*%
%ADD98R,0.0224X0.0004*%
%ADD99R,0.0092X0.0004*%
%ADD100R,0.0220X0.0004*%
%ADD101R,0.0088X0.0004*%
%ADD102R,0.0192X0.0004*%
%ADD103R,0.0084X0.0004*%
%ADD104R,0.0324X0.0004*%
%ADD105R,0.0168X0.0004*%
%ADD106R,0.0080X0.0004*%
%ADD107R,0.0328X0.0004*%
%ADD108R,0.0160X0.0004*%
%ADD109R,0.0076X0.0004*%
%ADD110R,0.0152X0.0004*%
%ADD111R,0.0072X0.0004*%
%ADD112R,0.0136X0.0004*%
%ADD113R,0.0132X0.0004*%
%ADD114R,0.0068X0.0004*%
%ADD115R,0.0328X0.0004*%
%ADD116R,0.0128X0.0004*%
%ADD117R,0.0064X0.0004*%
%ADD118R,0.0112X0.0004*%
%ADD119R,0.0104X0.0004*%
%ADD120R,0.0060X0.0004*%
%ADD121R,0.0332X0.0004*%
%ADD122R,0.0100X0.0004*%
%ADD123R,0.0092X0.0004*%
%ADD124R,0.0056X0.0004*%
%ADD125R,0.0332X0.0004*%
%ADD126R,0.0088X0.0004*%
%ADD127R,0.0056X0.0004*%
%ADD128R,0.0052X0.0004*%
%ADD129R,0.0068X0.0004*%
%ADD130R,0.0064X0.0004*%
%ADD131R,0.0048X0.0004*%
%ADD132R,0.0336X0.0004*%
%ADD133R,0.0060X0.0004*%
%ADD134R,0.0044X0.0004*%
%ADD135R,0.0056X0.0004*%
%ADD136R,0.0040X0.0004*%
%ADD137R,0.0340X0.0004*%
%ADD138R,0.0052X0.0004*%
%ADD139R,0.0048X0.0004*%
%ADD140R,0.0044X0.0004*%
%ADD141R,0.0036X0.0004*%
%ADD142R,0.0032X0.0004*%
%ADD143R,0.0036X0.0004*%
%ADD144R,0.0340X0.0004*%
%ADD145R,0.0032X0.0004*%
%ADD146R,0.0032X0.0004*%
%ADD147R,0.0028X0.0004*%
%ADD148R,0.0024X0.0004*%
%ADD149R,0.0132X0.0004*%
%ADD150R,0.0192X0.0004*%
%ADD151R,0.0024X0.0004*%
%ADD152R,0.0020X0.0004*%
%ADD153R,0.0040X0.0004*%
%ADD154R,0.0120X0.0004*%
%ADD155R,0.0180X0.0004*%
%ADD156R,0.0076X0.0004*%
%ADD157R,0.0016X0.0004*%
%ADD158R,0.0116X0.0004*%
%ADD159R,0.0176X0.0004*%
%ADD160R,0.0092X0.0004*%
%ADD161R,0.0012X0.0004*%
%ADD162R,0.0116X0.0004*%
%ADD163R,0.0140X0.0004*%
%ADD164R,0.0172X0.0004*%
%ADD165R,0.0156X0.0004*%
%ADD166R,0.0168X0.0004*%
%ADD167R,0.0008X0.0004*%
%ADD168R,0.0176X0.0004*%
%ADD169R,0.0080X0.0004*%
%ADD170R,0.0172X0.0004*%
%ADD171R,0.0180X0.0004*%
%ADD172R,0.0008X0.0004*%
%ADD173R,0.0188X0.0004*%
%ADD174R,0.0208X0.0004*%
%ADD175R,0.0068X0.0004*%
%ADD176R,0.0232X0.0004*%
%ADD177R,0.0236X0.0004*%
%ADD178R,0.0240X0.0004*%
%ADD179R,0.0244X0.0004*%
%ADD180R,0.0052X0.0004*%
%ADD181R,0.0260X0.0004*%
%ADD182R,0.0184X0.0004*%
%ADD183R,0.0288X0.0004*%
%ADD184R,0.0312X0.0004*%
%ADD185R,0.0188X0.0004*%
%ADD186R,0.0296X0.0004*%
%ADD187R,0.0312X0.0004*%
%ADD188R,0.0316X0.0004*%
%ADD189R,0.0316X0.0004*%
%ADD190R,0.0196X0.0004*%
%ADD191R,0.0320X0.0004*%
%ADD192R,0.0324X0.0004*%
%ADD193R,0.0352X0.0004*%
%ADD194R,0.0356X0.0004*%
%ADD195R,0.0344X0.0004*%
%ADD196R,0.0204X0.0004*%
%ADD197R,0.0364X0.0004*%
%ADD198R,0.0348X0.0004*%
%ADD199R,0.0204X0.0004*%
%ADD200R,0.0356X0.0004*%
%ADD201R,0.0372X0.0004*%
%ADD202R,0.0380X0.0004*%
%ADD203R,0.0360X0.0004*%
%ADD204R,0.0212X0.0004*%
%ADD205R,0.0364X0.0004*%
%ADD206R,0.0216X0.0004*%
%ADD207R,0.0392X0.0004*%
%ADD208R,0.0400X0.0004*%
%ADD209R,0.0372X0.0004*%
%ADD210R,0.0216X0.0004*%
%ADD211R,0.0408X0.0004*%
%ADD212R,0.0392X0.0004*%
%ADD213R,0.0384X0.0004*%
%ADD214R,0.0164X0.0004*%
%ADD215R,0.0156X0.0004*%
%ADD216R,0.0368X0.0004*%
%ADD217R,0.0148X0.0004*%
%ADD218R,0.0156X0.0004*%
%ADD219R,0.0144X0.0004*%
%ADD220R,0.0224X0.0004*%
%ADD221R,0.0336X0.0004*%
%ADD222R,0.0152X0.0004*%
%ADD223R,0.0144X0.0004*%
%ADD224R,0.0224X0.0004*%
%ADD225R,0.0332X0.0004*%
%ADD226R,0.0152X0.0004*%
%ADD227R,0.0148X0.0004*%
%ADD228R,0.0148X0.0004*%
%ADD229R,0.0264X0.0004*%
%ADD230R,0.0256X0.0004*%
%ADD231R,0.0332X0.0004*%
%ADD232R,0.0248X0.0004*%
%ADD233R,0.0268X0.0004*%
%ADD234R,0.0212X0.0004*%
%ADD235R,0.0204X0.0004*%
%ADD236R,0.0356X0.0004*%
%ADD237R,0.0352X0.0004*%
%ADD238R,0.0348X0.0004*%
%ADD239R,0.0188X0.0004*%
%ADD240R,0.0200X0.0004*%
%ADD241R,0.0016X0.0004*%
%ADD242R,0.0308X0.0004*%
%ADD243R,0.0292X0.0004*%
%ADD244R,0.0020X0.0004*%
%ADD245R,0.0272X0.0004*%
%ADD246R,0.0084X0.0004*%
%ADD247R,0.0252X0.0004*%
%ADD248R,0.0124X0.0004*%
%ADD249R,0.0244X0.0004*%
%ADD250R,0.0144X0.0004*%
%ADD251R,0.0276X0.0004*%
%ADD252R,0.0008X0.0004*%
%ADD253R,0.0160X0.0004*%
%ADD254R,0.0272X0.0004*%
%ADD255R,0.0184X0.0004*%
%ADD256R,0.0252X0.0004*%
%ADD257R,0.0016X0.0004*%
%ADD258R,0.0248X0.0004*%
%ADD259R,0.0228X0.0004*%
%ADD260R,0.0012X0.0004*%
%ADD261R,0.0228X0.0004*%
%ADD262R,0.0108X0.0004*%
%ADD263R,0.0292X0.0004*%
%ADD264R,0.0024X0.0004*%
%ADD265R,0.0028X0.0004*%
%ADD266R,0.0284X0.0004*%
%ADD267R,0.0268X0.0004*%
%ADD268R,0.0244X0.0004*%
%ADD269R,0.0244X0.0004*%
%ADD270R,0.0116X0.0004*%
%ADD271R,0.0216X0.0004*%
%ADD272R,0.0076X0.0004*%
%ADD273R,0.0104X0.0004*%
%ADD274R,0.0196X0.0004*%
%ADD275R,0.0108X0.0004*%
%ADD276R,0.0192X0.0004*%
%ADD277R,0.0028X0.0004*%
%ADD278R,0.0084X0.0004*%
%ADD279R,0.0120X0.0004*%
%ADD280R,0.0124X0.0004*%
%ADD281R,0.0124X0.0004*%
%ADD282R,0.0172X0.0004*%
%ADD283R,0.0124X0.0004*%
%ADD284R,0.0176X0.0004*%
%ADD285R,0.0348X0.0004*%
%ADD286R,0.0136X0.0004*%
%ADD287R,0.0324X0.0004*%
%ADD288R,0.0288X0.0004*%
%ADD289R,0.0144X0.0004*%
%ADD290R,0.0148X0.0004*%
%ADD291R,0.0104X0.0004*%
%ADD292R,0.0112X0.0004*%
%ADD293R,0.0132X0.0004*%
%ADD294R,0.0312X0.0004*%
%ADD295R,0.0172X0.0004*%
%ADD296R,0.0128X0.0004*%
D10*
X025751Y023848D02*
X025798Y023801D01*
X025891Y023801D01*
X025938Y023848D01*
X025938Y023941D01*
X025845Y023941D01*
X025751Y024035D02*
X025751Y023848D01*
X025751Y024035D02*
X025798Y024082D01*
X025891Y024082D01*
X025938Y024035D01*
X028201Y023932D02*
X028201Y023745D01*
X028295Y023651D01*
X028388Y023745D01*
X028388Y023932D01*
X028681Y023881D02*
X028728Y023927D01*
X028774Y023927D01*
X028821Y023881D01*
X028868Y023927D01*
X028915Y023927D01*
X028961Y023881D01*
X028961Y023787D01*
X028915Y023741D01*
X028915Y023633D02*
X028961Y023586D01*
X028961Y023493D01*
X028915Y023446D01*
X028728Y023446D01*
X028681Y023493D01*
X028681Y023586D01*
X028728Y023633D01*
X028728Y023741D02*
X028681Y023787D01*
X028681Y023881D01*
X028821Y023881D02*
X028821Y023834D01*
X028915Y024035D02*
X028915Y024082D01*
X028961Y024082D01*
X028961Y024035D01*
X028915Y024035D01*
X028915Y024183D02*
X028961Y024183D01*
X028915Y024183D02*
X028728Y024369D01*
X028681Y024369D01*
X028681Y024183D01*
X028681Y024477D02*
X028868Y024477D01*
X028961Y024571D01*
X028868Y024664D01*
X028681Y024664D01*
X028728Y023338D02*
X028681Y023291D01*
X028681Y023151D01*
X028961Y023151D01*
X028961Y023291D01*
X028915Y023338D01*
X028728Y023338D01*
X029217Y023362D02*
X029217Y023175D01*
X029311Y023081D01*
X029404Y023175D01*
X029404Y023362D01*
X029512Y023315D02*
X029512Y023128D01*
X029559Y023081D01*
X029652Y023081D01*
X029699Y023128D01*
X029807Y023128D02*
X029853Y023081D01*
X029947Y023081D01*
X029993Y023128D01*
X029807Y023128D02*
X029807Y023315D01*
X029853Y023362D01*
X029947Y023362D01*
X029993Y023315D01*
X029699Y023315D02*
X029652Y023362D01*
X029559Y023362D01*
X029512Y023315D01*
X029197Y021762D02*
X029057Y021762D01*
X029057Y021481D01*
X029197Y021481D01*
X029243Y021528D01*
X029243Y021715D01*
X029197Y021762D01*
X028949Y021762D02*
X028949Y021481D01*
X028762Y021762D01*
X028762Y021481D01*
X028654Y021528D02*
X028654Y021621D01*
X028561Y021621D01*
X028654Y021528D02*
X028607Y021481D01*
X028514Y021481D01*
X028467Y021528D01*
X028467Y021715D01*
X028514Y021762D01*
X028607Y021762D01*
X028654Y021715D01*
D11*
X020365Y021255D02*
X020365Y020868D01*
X020558Y021062D02*
X020171Y021062D01*
X021612Y020609D02*
X021612Y020571D01*
X022250Y020571D01*
X022250Y020609D01*
X022250Y021654D02*
X022250Y021691D01*
X021612Y021691D01*
X021612Y021654D01*
X022212Y022071D02*
X022550Y022071D01*
X022062Y022526D02*
X022062Y022737D01*
X022212Y023191D02*
X022550Y023191D01*
X023550Y026703D02*
X023353Y026900D01*
X023353Y028731D02*
X023353Y029459D01*
X024082Y029459D01*
X025381Y029459D02*
X026109Y029459D01*
X026109Y028731D01*
X026109Y027432D02*
X026109Y026703D01*
X025952Y026703D01*
X027207Y026254D02*
X027719Y026254D01*
X027719Y027671D02*
X027207Y027671D01*
X030421Y026762D02*
X030808Y026762D01*
X030615Y026955D02*
X030615Y026568D01*
X029881Y024531D02*
X029381Y024531D01*
X029131Y024281D01*
X029131Y023781D01*
X029381Y023531D01*
X029881Y023531D01*
X030131Y023781D01*
X030131Y024281D01*
X029881Y024531D01*
X029281Y022931D02*
X028781Y022931D01*
X028531Y022681D01*
X028531Y022181D01*
X028781Y021931D01*
X029281Y021931D01*
X029531Y022181D01*
X029531Y022681D01*
X029281Y022931D01*
X030171Y022362D02*
X030558Y022362D01*
X030365Y022555D02*
X030365Y022168D01*
X027700Y021691D02*
X027362Y021691D01*
X027212Y021237D02*
X027212Y021026D01*
X027362Y020571D02*
X027700Y020571D01*
X025574Y019155D02*
X025574Y019058D01*
X025477Y018962D01*
X025187Y018962D01*
X024966Y018865D02*
X024966Y018768D01*
X024869Y018671D01*
X024676Y018671D01*
X024579Y018768D01*
X024676Y018962D02*
X024869Y018962D01*
X024966Y018865D01*
X024966Y019155D02*
X024869Y019252D01*
X024676Y019252D01*
X024579Y019155D01*
X024579Y019058D01*
X024676Y018962D01*
X024358Y018768D02*
X024358Y019252D01*
X023971Y019252D02*
X023971Y018768D01*
X024068Y018671D01*
X024262Y018671D01*
X024358Y018768D01*
X025187Y018671D02*
X025187Y019252D01*
X025477Y019252D01*
X025574Y019155D01*
X025477Y018962D02*
X025574Y018865D01*
X025574Y018768D01*
X025477Y018671D01*
X025187Y018671D01*
X020215Y028118D02*
X020215Y028505D01*
X020408Y028312D02*
X020021Y028312D01*
D12*
X021670Y029985D02*
X021769Y029886D01*
X021966Y029886D01*
X022064Y029985D01*
X022315Y030083D02*
X022512Y030280D01*
X022610Y030280D01*
X022315Y030280D02*
X022315Y029886D01*
X022852Y029985D02*
X022951Y030083D01*
X023246Y030083D01*
X023246Y030182D02*
X023246Y029886D01*
X022951Y029886D01*
X022852Y029985D01*
X022951Y030280D02*
X023147Y030280D01*
X023246Y030182D01*
X023497Y030280D02*
X023890Y030280D01*
X023497Y029886D01*
X023890Y029886D01*
X024141Y029985D02*
X024141Y030182D01*
X024240Y030280D01*
X024437Y030280D01*
X024535Y030182D01*
X024535Y030083D01*
X024141Y030083D01*
X024141Y029985D02*
X024240Y029886D01*
X024437Y029886D01*
X024786Y029886D02*
X024786Y030477D01*
X024786Y030280D02*
X025081Y030280D01*
X025179Y030182D01*
X025179Y029985D01*
X025081Y029886D01*
X024786Y029886D01*
X025430Y029886D02*
X025627Y029886D01*
X025529Y029886D02*
X025529Y030280D01*
X025430Y030280D01*
X025529Y030477D02*
X025529Y030575D01*
X025860Y030280D02*
X025860Y029886D01*
X025860Y030083D02*
X026057Y030280D01*
X026155Y030280D01*
X026397Y030182D02*
X026397Y029985D01*
X026496Y029886D01*
X026791Y029886D01*
X026791Y030477D01*
X026791Y030280D02*
X026496Y030280D01*
X026397Y030182D01*
X022064Y030378D02*
X021966Y030477D01*
X021769Y030477D01*
X021670Y030378D01*
X021670Y029985D01*
D13*
X025931Y022531D03*
X026331Y021131D03*
X025031Y021181D03*
X024431Y021181D03*
D14*
X022681Y020293D02*
X022681Y020269D01*
X020743Y021331D02*
X020719Y021331D01*
X020831Y023569D02*
X020831Y023593D01*
X022031Y023493D02*
X022031Y023469D01*
X022031Y025019D02*
X022031Y025043D01*
X022031Y025519D02*
X022031Y025543D01*
X022031Y027019D02*
X022031Y027043D01*
X026431Y023643D02*
X026431Y023619D01*
X027581Y023443D02*
X027581Y023419D01*
D15*
X028181Y025931D03*
X029931Y026031D03*
X029931Y025331D03*
X029931Y024831D03*
X027463Y028112D03*
X027463Y029312D03*
X027463Y029962D03*
X022031Y029531D03*
X022031Y029031D03*
X022031Y028531D03*
X022031Y028031D03*
X022031Y027531D03*
X022031Y026531D03*
X022031Y026031D03*
X020831Y024731D03*
X020831Y024231D03*
X022031Y024031D03*
X022031Y024531D03*
X019431Y025431D03*
X019431Y026131D03*
D16*
X023905Y025440D02*
X024023Y025558D01*
X024006Y025432D02*
X024008Y025442D01*
X024013Y025450D01*
X024021Y025455D01*
X024031Y025457D01*
X024041Y025455D01*
X024049Y025450D01*
X024054Y025442D01*
X024056Y025432D01*
X024054Y025422D01*
X024049Y025414D01*
X024041Y025409D01*
X024031Y025407D01*
X024021Y025409D01*
X024013Y025414D01*
X024008Y025422D01*
X024006Y025432D01*
X023905Y024023D02*
X023905Y023905D01*
X024023Y023905D01*
X025440Y023905D02*
X025558Y023905D01*
X025558Y024023D01*
X026031Y024031D02*
X026031Y025631D01*
X028431Y025631D01*
X028431Y024031D01*
X026031Y024031D01*
X025558Y025440D02*
X025558Y025558D01*
X025440Y025558D01*
D17*
X031081Y025931D03*
X031080Y024731D03*
X031081Y023531D03*
D18*
X028881Y026321D02*
X028581Y026321D01*
X028581Y027461D01*
X028881Y027461D01*
X028881Y026321D01*
X027181Y023061D02*
X027181Y021921D01*
X026881Y021921D01*
X026881Y023061D01*
X027181Y023061D01*
X025012Y023239D02*
X024451Y023239D01*
X024451Y022023D02*
X025012Y022023D01*
X027413Y020268D02*
X027649Y020268D01*
X027649Y019795D02*
X027413Y019795D01*
X020781Y025151D02*
X020781Y026291D01*
X020481Y026291D01*
X020481Y025151D01*
X020781Y025151D01*
X019681Y024991D02*
X019681Y023851D01*
X019381Y023851D01*
X019381Y024991D01*
X019681Y024991D01*
X020481Y026551D02*
X020481Y027691D01*
X020781Y027691D01*
X020781Y026551D01*
X020481Y026551D01*
X020513Y022818D02*
X020749Y022818D01*
X020749Y022345D02*
X020513Y022345D01*
D19*
X021767Y021511D02*
X021769Y021518D01*
X021774Y021523D01*
X021781Y021525D01*
X021788Y021523D01*
X021793Y021518D01*
X021795Y021511D01*
X021793Y021504D01*
X021788Y021499D01*
X021781Y021497D01*
X021774Y021499D01*
X021769Y021504D01*
X021767Y021511D01*
D20*
X028375Y027993D03*
D21*
X028373Y027997D03*
X028337Y028797D03*
X028529Y028965D03*
X028705Y028845D03*
D22*
X028371Y028001D03*
D23*
X028375Y028005D03*
X028471Y028497D03*
X028955Y028857D03*
D24*
X028957Y028817D03*
X028957Y028449D03*
X028329Y028237D03*
X028373Y028009D03*
X027993Y028597D03*
X028057Y028753D03*
D25*
X028009Y028649D03*
X028373Y028013D03*
X028893Y028533D03*
X028953Y028805D03*
D26*
X028949Y028793D03*
X028373Y028017D03*
D27*
X028369Y028021D03*
X028597Y028701D03*
D28*
X028579Y028385D03*
X028307Y028225D03*
X028367Y028025D03*
X028835Y028137D03*
X028019Y028565D03*
X028503Y029097D03*
D29*
X028369Y028029D03*
D30*
X028367Y028033D03*
X028115Y028397D03*
X028039Y028545D03*
X028595Y028677D03*
X028723Y028585D03*
X028931Y028753D03*
X028863Y028925D03*
X028859Y028165D03*
X028851Y028157D03*
D31*
X028367Y028037D03*
X028595Y028673D03*
X028927Y028745D03*
D32*
X028593Y028661D03*
X028365Y028041D03*
D33*
X028365Y028045D03*
X028585Y028409D03*
X028881Y028205D03*
X028057Y028533D03*
D34*
X028063Y028529D03*
X028067Y028665D03*
X028067Y028669D03*
X028435Y028997D03*
X028439Y029005D03*
X028443Y029009D03*
X028447Y029013D03*
X028451Y029017D03*
X028455Y029029D03*
X028471Y029049D03*
X028475Y029053D03*
X028479Y029057D03*
X028591Y028649D03*
X028591Y028645D03*
X028595Y028397D03*
X028887Y028229D03*
X028887Y028225D03*
X028363Y028049D03*
D35*
X028365Y028053D03*
X028597Y028393D03*
X028605Y028389D03*
X028785Y028565D03*
X028893Y028257D03*
X028893Y028253D03*
X028893Y028249D03*
X028885Y028237D03*
X028885Y028233D03*
X028453Y029025D03*
X028457Y029033D03*
X028469Y029045D03*
D36*
X028863Y028893D03*
X028119Y028425D03*
X028363Y028057D03*
D37*
X028363Y028061D03*
X028899Y028301D03*
D38*
X028799Y028553D03*
X028275Y028213D03*
X028363Y028065D03*
X028119Y028433D03*
D39*
X028361Y028069D03*
D40*
X028359Y028073D03*
X028583Y028597D03*
D41*
X028579Y028469D03*
X028359Y028077D03*
X028119Y028449D03*
D42*
X028359Y028081D03*
D43*
X028359Y028085D03*
X028119Y028457D03*
D44*
X028121Y028465D03*
X028357Y028089D03*
D45*
X028359Y028093D03*
D46*
X028357Y028097D03*
X028121Y028469D03*
D47*
X028049Y028349D03*
X028513Y028877D03*
X028473Y029129D03*
X028837Y028097D03*
D48*
X028357Y028101D03*
D49*
X028819Y028101D03*
X028527Y028941D03*
D50*
X028123Y028477D03*
X028355Y028105D03*
D51*
X028815Y028105D03*
X028591Y028737D03*
D52*
X028355Y028113D03*
X028355Y028109D03*
D53*
X028423Y028357D03*
X028099Y028337D03*
X028723Y028109D03*
D54*
X028817Y028109D03*
X028597Y028729D03*
D55*
X028595Y028717D03*
X028963Y028437D03*
X028963Y028433D03*
X028811Y028113D03*
X028111Y028369D03*
X027991Y028605D03*
D56*
X028353Y028117D03*
D57*
X028811Y028117D03*
X028871Y028957D03*
D58*
X028355Y028121D03*
D59*
X028813Y028121D03*
X028925Y028501D03*
D60*
X028353Y028129D03*
X028353Y028125D03*
D61*
X028823Y028125D03*
D62*
X028827Y028129D03*
D63*
X028353Y028133D03*
X028353Y028137D03*
D64*
X028113Y028385D03*
X028833Y028133D03*
D65*
X028351Y028141D03*
D66*
X028839Y028141D03*
D67*
X028351Y028145D03*
D68*
X028843Y028145D03*
X028595Y028685D03*
X028939Y028769D03*
X028059Y028709D03*
D69*
X028351Y028149D03*
D70*
X028115Y028393D03*
X028035Y028549D03*
X028847Y028149D03*
D71*
X028349Y028153D03*
D72*
X028849Y028153D03*
X028945Y028717D03*
X028933Y028757D03*
D73*
X028347Y028157D03*
D74*
X028347Y028161D03*
D75*
X028855Y028161D03*
X028935Y028721D03*
D76*
X028345Y028169D03*
X028345Y028165D03*
D77*
X028861Y028169D03*
X028061Y028693D03*
X028061Y028697D03*
D78*
X028347Y028177D03*
X028347Y028173D03*
D79*
X028863Y028173D03*
D80*
X028865Y028177D03*
X028061Y028685D03*
X028061Y028689D03*
X028505Y029093D03*
D81*
X028347Y028181D03*
D82*
X028047Y028541D03*
X028867Y028181D03*
D83*
X028347Y028185D03*
D84*
X028869Y028185D03*
X028869Y028189D03*
X028873Y028193D03*
X028865Y028913D03*
D85*
X028345Y028193D03*
X028345Y028189D03*
D86*
X028343Y028197D03*
X028343Y028205D03*
X028343Y028209D03*
D87*
X028115Y028409D03*
X028767Y028573D03*
X028919Y028733D03*
X028863Y028909D03*
X028875Y028197D03*
D88*
X028343Y028201D03*
D89*
X028879Y028201D03*
X028063Y028681D03*
D90*
X028583Y028413D03*
X028883Y028217D03*
X028883Y028213D03*
X028883Y028209D03*
X028503Y029085D03*
D91*
X028723Y028853D03*
X028523Y028213D03*
D92*
X028291Y028217D03*
X028051Y028537D03*
D93*
X028525Y028217D03*
D94*
X028291Y028221D03*
D95*
X028529Y028221D03*
D96*
X028885Y028221D03*
D97*
X028531Y028225D03*
X028591Y028745D03*
X028871Y028989D03*
D98*
X028595Y028705D03*
X028915Y028513D03*
X028919Y028509D03*
X028319Y028229D03*
D99*
X028533Y028229D03*
X028773Y028353D03*
X028333Y028813D03*
X028529Y028969D03*
X028073Y028817D03*
D100*
X028057Y028745D03*
X028321Y028233D03*
X028577Y028373D03*
X028905Y028525D03*
X028921Y028505D03*
X028925Y028497D03*
X028929Y028493D03*
X028933Y028489D03*
X028937Y028485D03*
X028941Y028477D03*
X028973Y028709D03*
D101*
X028711Y028849D03*
X028335Y028809D03*
X028335Y028805D03*
X028535Y028237D03*
X028535Y028233D03*
X028771Y028357D03*
D102*
X028971Y028421D03*
X028331Y028241D03*
X027991Y028621D03*
X028055Y028761D03*
D103*
X028337Y028801D03*
X028537Y028241D03*
D104*
X028889Y028241D03*
X028465Y029041D03*
X028069Y028661D03*
D105*
X028059Y028777D03*
X028343Y028245D03*
X028683Y028493D03*
D106*
X028539Y028245D03*
X028383Y028289D03*
X028339Y028793D03*
D107*
X028591Y028637D03*
X028895Y028269D03*
X028895Y028265D03*
X028891Y028245D03*
D108*
X028687Y028497D03*
X028575Y028357D03*
X028463Y028505D03*
X028343Y028249D03*
X028347Y028985D03*
X028351Y028989D03*
X028871Y028973D03*
D109*
X028341Y028789D03*
X028541Y028249D03*
D110*
X028347Y028253D03*
X028467Y028569D03*
X028471Y028573D03*
X028871Y028977D03*
D111*
X028343Y028785D03*
X028543Y028257D03*
X028543Y028253D03*
X028763Y028365D03*
D112*
X028355Y028257D03*
X028319Y028885D03*
X028319Y028889D03*
X028319Y028893D03*
X028319Y028897D03*
X028319Y028905D03*
D113*
X028321Y028881D03*
X028357Y028261D03*
D114*
X028545Y028261D03*
X028345Y028781D03*
D115*
X028895Y028261D03*
D116*
X028359Y028265D03*
X028323Y028869D03*
X028323Y028873D03*
X028323Y028877D03*
X028063Y028797D03*
D117*
X028079Y028829D03*
X028347Y028777D03*
X028687Y028833D03*
X028547Y028269D03*
X028547Y028265D03*
D118*
X028367Y028269D03*
X028327Y028833D03*
X028327Y028837D03*
X028067Y028809D03*
D119*
X028371Y028273D03*
D120*
X028549Y028273D03*
X028549Y028277D03*
X028565Y028345D03*
X028757Y028373D03*
X028681Y028829D03*
X028349Y028773D03*
X028493Y029125D03*
D121*
X028581Y028429D03*
X028897Y028293D03*
X028897Y028289D03*
X028897Y028285D03*
X028897Y028277D03*
X028897Y028273D03*
D122*
X028777Y028349D03*
X028373Y028277D03*
X028333Y028817D03*
X028529Y028973D03*
X028069Y028813D03*
D123*
X028377Y028281D03*
D124*
X028551Y028281D03*
D125*
X028897Y028281D03*
D126*
X029039Y028689D03*
X028379Y028285D03*
D127*
X028551Y028285D03*
X028351Y028769D03*
D128*
X028589Y028749D03*
X028553Y028293D03*
X028553Y028289D03*
D129*
X028389Y028293D03*
X028693Y028837D03*
X028529Y028949D03*
X028529Y028953D03*
D130*
X028391Y028297D03*
D131*
X028555Y028297D03*
X028747Y028385D03*
X029047Y028677D03*
X028675Y028825D03*
X028355Y028765D03*
D132*
X028579Y028433D03*
X028795Y028557D03*
X028899Y028297D03*
X028863Y028889D03*
X028119Y028429D03*
D133*
X028393Y028301D03*
X029045Y028681D03*
D134*
X028557Y028301D03*
D135*
X028395Y028305D03*
X028755Y028377D03*
X028219Y028649D03*
X028079Y028833D03*
X028527Y028937D03*
X028527Y028945D03*
D136*
X028523Y028925D03*
X028559Y028313D03*
X028559Y028309D03*
X028559Y028305D03*
D137*
X028577Y028437D03*
X028589Y028625D03*
X028861Y028885D03*
X028901Y028333D03*
X028901Y028329D03*
X028901Y028325D03*
X028901Y028317D03*
X028901Y028313D03*
X028901Y028309D03*
X028901Y028305D03*
X028073Y028653D03*
D138*
X028397Y028309D03*
X028525Y028933D03*
D139*
X028523Y028929D03*
X028399Y028313D03*
D140*
X028401Y028317D03*
X028081Y028837D03*
D141*
X028361Y028757D03*
X028521Y028913D03*
X028521Y028917D03*
X028561Y028317D03*
D142*
X028407Y028321D03*
D143*
X028561Y028321D03*
D144*
X028901Y028321D03*
D145*
X028407Y028325D03*
D146*
X028563Y028325D03*
X028563Y028329D03*
X028563Y028333D03*
X028563Y028337D03*
X028363Y028753D03*
X028519Y028909D03*
X028663Y028817D03*
D147*
X028653Y028809D03*
X028409Y028333D03*
X028409Y028329D03*
D148*
X028411Y028337D03*
D149*
X028577Y028353D03*
X028797Y028337D03*
D150*
X028975Y028337D03*
X028975Y028409D03*
X028975Y028413D03*
X028967Y028425D03*
X027995Y028637D03*
X027991Y028625D03*
D151*
X028099Y028341D03*
D152*
X028413Y028341D03*
X028369Y028741D03*
X028517Y028901D03*
D153*
X028523Y028921D03*
X028667Y028821D03*
X028359Y028761D03*
X028563Y028341D03*
D154*
X028787Y028341D03*
D155*
X028981Y028341D03*
X028961Y028841D03*
D156*
X028873Y028993D03*
X028529Y028957D03*
X028105Y028345D03*
D157*
X028415Y028345D03*
X028243Y028645D03*
D158*
X028781Y028345D03*
D159*
X028983Y028345D03*
X028983Y028349D03*
X028983Y028377D03*
X028959Y028845D03*
X028959Y028849D03*
X028595Y028725D03*
X028475Y028493D03*
X028059Y028773D03*
D160*
X028105Y028349D03*
D161*
X028201Y028645D03*
X028421Y028353D03*
X028417Y028349D03*
X028517Y028893D03*
D162*
X028325Y028845D03*
X028065Y028805D03*
X028577Y028349D03*
D163*
X028697Y028513D03*
X028697Y028517D03*
X028701Y028529D03*
X028321Y028909D03*
X028321Y028913D03*
X028061Y028793D03*
X028109Y028353D03*
D164*
X028985Y028353D03*
X028985Y028357D03*
X028985Y028365D03*
X028985Y028369D03*
X028985Y028373D03*
X028957Y028853D03*
D165*
X028757Y028869D03*
X028473Y028577D03*
X028109Y028357D03*
D166*
X028111Y028361D03*
D167*
X028423Y028361D03*
X028639Y028801D03*
D168*
X028575Y028361D03*
X028983Y028381D03*
D169*
X028767Y028361D03*
D170*
X028985Y028361D03*
D171*
X028981Y028385D03*
X028981Y028389D03*
X028981Y028393D03*
X028869Y028969D03*
X028057Y028769D03*
X028113Y028365D03*
D172*
X028427Y028365D03*
X028427Y028369D03*
X028375Y028733D03*
X028515Y028889D03*
X028091Y028845D03*
D173*
X028057Y028765D03*
X028577Y028365D03*
X028977Y028405D03*
X028961Y028833D03*
D174*
X028955Y028813D03*
X028955Y028809D03*
X028951Y028457D03*
X028955Y028453D03*
X028575Y028369D03*
X028595Y028713D03*
X028111Y028373D03*
X027995Y028593D03*
D175*
X028077Y028825D03*
X028761Y028369D03*
D176*
X028947Y028789D03*
X028871Y028949D03*
X028055Y028733D03*
X028007Y028577D03*
X028007Y028573D03*
X028111Y028377D03*
D177*
X028057Y028729D03*
X028577Y028377D03*
X028945Y028785D03*
X028869Y028945D03*
D178*
X028503Y029101D03*
X028111Y028381D03*
D179*
X028577Y028381D03*
X028869Y028941D03*
D180*
X028749Y028381D03*
D181*
X028597Y028689D03*
X028865Y028933D03*
X028057Y028717D03*
X028057Y028713D03*
X028025Y028557D03*
X028113Y028389D03*
D182*
X028487Y028585D03*
X028979Y028397D03*
X028959Y028837D03*
X028947Y028869D03*
D183*
X028115Y028401D03*
D184*
X028591Y028401D03*
D185*
X028597Y028721D03*
X028977Y028401D03*
D186*
X028759Y028577D03*
X028595Y028665D03*
X028923Y028737D03*
X028863Y028917D03*
X028507Y029089D03*
X028115Y028405D03*
D187*
X028115Y028413D03*
X028067Y028677D03*
X028591Y028653D03*
X028587Y028405D03*
X028915Y028729D03*
X028495Y029077D03*
D188*
X028493Y029073D03*
X028489Y029069D03*
X028485Y029065D03*
X028433Y028993D03*
X028065Y028673D03*
X028117Y028417D03*
X028913Y028725D03*
D189*
X028861Y028905D03*
X028581Y028417D03*
D190*
X028965Y028429D03*
X028973Y028417D03*
X028057Y028757D03*
X027989Y028617D03*
X027989Y028613D03*
X027989Y028609D03*
D191*
X028119Y028421D03*
X028579Y028421D03*
X028591Y028641D03*
X028435Y029001D03*
X028451Y029021D03*
X028483Y029061D03*
D192*
X028461Y029037D03*
X028861Y028897D03*
X028781Y028569D03*
X028581Y028425D03*
D193*
X028119Y028437D03*
X028079Y028517D03*
X028859Y028873D03*
D194*
X028121Y028441D03*
D195*
X028579Y028441D03*
X028587Y028621D03*
D196*
X028961Y028441D03*
D197*
X028121Y028445D03*
D198*
X028577Y028445D03*
X028805Y028549D03*
X028861Y028877D03*
D199*
X028501Y029109D03*
X028961Y028445D03*
D200*
X028809Y028545D03*
X028585Y028605D03*
X028577Y028457D03*
X028577Y028453D03*
X028577Y028449D03*
X028085Y028513D03*
D201*
X028121Y028453D03*
X028577Y028473D03*
X028577Y028477D03*
X028577Y028485D03*
X028577Y028489D03*
X028585Y028589D03*
D202*
X028121Y028461D03*
D203*
X028575Y028461D03*
X028811Y028541D03*
D204*
X028949Y028461D03*
D205*
X028813Y028537D03*
X028585Y028593D03*
X028577Y028465D03*
X028089Y028509D03*
D206*
X027999Y028585D03*
X028595Y028709D03*
X028899Y028529D03*
X028943Y028473D03*
X028947Y028469D03*
X028947Y028465D03*
X028499Y029105D03*
D207*
X028123Y028473D03*
D208*
X028123Y028481D03*
D209*
X028577Y028481D03*
D210*
X028939Y028481D03*
D211*
X028123Y028485D03*
X028123Y028489D03*
X028119Y028493D03*
D212*
X028111Y028497D03*
D213*
X028103Y028501D03*
D214*
X028465Y028501D03*
X028477Y028581D03*
D215*
X028693Y028501D03*
X028345Y028981D03*
D216*
X028091Y028505D03*
D217*
X028493Y029117D03*
X028693Y028505D03*
D218*
X028461Y028509D03*
X028461Y028513D03*
X028461Y028517D03*
X028061Y028785D03*
D219*
X028323Y028917D03*
X028323Y028925D03*
X028323Y028929D03*
X028323Y028933D03*
X028327Y028937D03*
X028463Y028553D03*
X028695Y028509D03*
X028699Y028525D03*
X028703Y028533D03*
D220*
X028911Y028517D03*
X028971Y028713D03*
X028951Y028797D03*
X028871Y028953D03*
D221*
X028071Y028521D03*
D222*
X028459Y028521D03*
D223*
X028699Y028521D03*
X028323Y028921D03*
D224*
X028003Y028581D03*
X028907Y028521D03*
D225*
X028589Y028629D03*
X028589Y028633D03*
X028073Y028657D03*
X028069Y028525D03*
D226*
X028459Y028525D03*
X028459Y028529D03*
X028339Y028973D03*
X028343Y028977D03*
D227*
X028337Y028969D03*
X028337Y028965D03*
X028061Y028789D03*
X028465Y028565D03*
X028465Y028557D03*
X028461Y028549D03*
X028457Y028545D03*
X028457Y028537D03*
X028457Y028533D03*
X028597Y028733D03*
D228*
X028465Y028561D03*
X028457Y028541D03*
D229*
X028031Y028553D03*
D230*
X028023Y028561D03*
D231*
X028789Y028561D03*
D232*
X028015Y028569D03*
D233*
X028737Y028581D03*
D234*
X028057Y028749D03*
X028005Y028645D03*
X027997Y028589D03*
D235*
X027993Y028601D03*
D236*
X028585Y028601D03*
D237*
X028587Y028609D03*
X028587Y028613D03*
D238*
X028589Y028617D03*
D239*
X028869Y028965D03*
X027993Y028633D03*
X027993Y028629D03*
D240*
X027999Y028641D03*
X028871Y028961D03*
D241*
X028251Y028641D03*
D242*
X028593Y028657D03*
D243*
X028593Y028669D03*
D244*
X028645Y028805D03*
X028517Y028897D03*
X029061Y028673D03*
D245*
X028935Y028761D03*
X028595Y028681D03*
D246*
X029041Y028685D03*
D247*
X028941Y028773D03*
X028865Y028937D03*
X028597Y028693D03*
D248*
X028321Y028857D03*
X028321Y028865D03*
X029021Y028693D03*
D249*
X028597Y028697D03*
D250*
X028331Y028945D03*
X028331Y028949D03*
X028331Y028953D03*
X028331Y028957D03*
X029011Y028697D03*
D251*
X028061Y028701D03*
D252*
X028511Y028881D03*
X028907Y028701D03*
D253*
X029003Y028701D03*
X028059Y028781D03*
D254*
X028059Y028705D03*
X028863Y028929D03*
D255*
X028991Y028705D03*
D256*
X028057Y028721D03*
D257*
X028763Y028721D03*
D258*
X028059Y028725D03*
D259*
X028057Y028737D03*
D260*
X028373Y028737D03*
X028513Y028885D03*
D261*
X028057Y028741D03*
D262*
X028593Y028741D03*
D263*
X028925Y028741D03*
D264*
X028367Y028745D03*
X028507Y029129D03*
D265*
X028517Y028905D03*
X028657Y028813D03*
X028365Y028749D03*
D266*
X028929Y028749D03*
D267*
X028937Y028765D03*
D268*
X028941Y028777D03*
D269*
X028941Y028781D03*
D270*
X028325Y028841D03*
X028065Y028801D03*
D271*
X028951Y028801D03*
D272*
X028529Y028961D03*
X028077Y028821D03*
D273*
X028331Y028821D03*
D274*
X028957Y028821D03*
D275*
X028329Y028825D03*
X028329Y028829D03*
D276*
X028959Y028829D03*
X028959Y028825D03*
D277*
X028089Y028841D03*
D278*
X028701Y028841D03*
D279*
X028727Y028857D03*
X028527Y028985D03*
X028323Y028853D03*
X028323Y028849D03*
D280*
X028321Y028861D03*
D281*
X028733Y028861D03*
D282*
X028953Y028861D03*
D283*
X028873Y028985D03*
X028737Y028865D03*
X028525Y028989D03*
D284*
X028951Y028865D03*
D285*
X028861Y028881D03*
D286*
X028319Y028901D03*
D287*
X028861Y028901D03*
D288*
X028863Y028921D03*
D289*
X028331Y028941D03*
D290*
X028333Y028961D03*
D291*
X028527Y028977D03*
D292*
X028527Y028981D03*
D293*
X028873Y028981D03*
D294*
X028499Y029081D03*
D295*
X028493Y029113D03*
D296*
X028495Y029121D03*
M02*
