G75*
%MOIN*%
%OFA0B0*%
%FSLAX24Y24*%
%IPPOS*%
%LPD*%
%AMOC8*
5,1,8,0,0,1.08239X$1,22.5*
%
%ADD10R,0.0316X0.0394*%
%ADD11R,0.0350X0.0390*%
%ADD12R,0.0150X0.0296*%
%ADD13R,0.0296X0.0150*%
%ADD14C,0.0540*%
%ADD15C,0.0530*%
%ADD16C,0.0512*%
%ADD17C,0.0020*%
%ADD18C,0.0138*%
%ADD19C,0.0432*%
%ADD20C,0.0064*%
%ADD21R,0.0340X0.0390*%
%ADD22R,0.0390X0.0390*%
%ADD23R,0.0355X0.0355*%
%ADD24R,0.0740X0.0290*%
%ADD25R,0.0240X0.0440*%
%ADD26C,0.0360*%
%ADD27R,0.0729X0.0394*%
%ADD28R,0.0340X0.0340*%
%ADD29OC8,0.0540*%
%ADD30C,0.0780*%
%ADD31C,0.0440*%
D10*
X022775Y022231D03*
X022775Y022731D03*
X023287Y022731D03*
X023287Y022231D03*
X023287Y023431D03*
X022775Y023431D03*
X026175Y023631D03*
X026687Y023631D03*
X026687Y023031D03*
X026175Y023031D03*
X026175Y022431D03*
X026687Y022431D03*
X027375Y023031D03*
X027887Y023031D03*
X027887Y023631D03*
X027375Y023631D03*
D11*
X027241Y022431D03*
X028001Y022431D03*
X027621Y021631D03*
D12*
X025027Y024192D03*
X024830Y024192D03*
X024633Y024192D03*
X024436Y024192D03*
X024436Y025271D03*
X024633Y025271D03*
X024830Y025271D03*
X025027Y025271D03*
D13*
X025271Y025027D03*
X025271Y024830D03*
X025271Y024633D03*
X025271Y024436D03*
X024192Y024436D03*
X024192Y024633D03*
X024192Y024830D03*
X024192Y025027D03*
D14*
X026431Y025231D03*
X026431Y024431D03*
X027231Y024431D03*
X028031Y024431D03*
X027231Y025231D03*
X025761Y020041D03*
D15*
X025661Y020041D03*
X023801Y020041D03*
X023701Y020041D03*
D16*
X023351Y019081D03*
X023351Y018881D03*
X026111Y018881D03*
X026111Y019081D03*
D17*
X025341Y020316D02*
X025161Y020316D01*
X025341Y020316D02*
X025341Y019766D01*
X025161Y019766D01*
X025161Y020316D01*
X025161Y019785D02*
X025341Y019785D01*
X025341Y019804D02*
X025161Y019804D01*
X025161Y019823D02*
X025341Y019823D01*
X025341Y019842D02*
X025161Y019842D01*
X025161Y019861D02*
X025341Y019861D01*
X025341Y019880D02*
X025161Y019880D01*
X025161Y019899D02*
X025341Y019899D01*
X025341Y019918D02*
X025161Y019918D01*
X025161Y019937D02*
X025341Y019937D01*
X025341Y019956D02*
X025161Y019956D01*
X025161Y019975D02*
X025341Y019975D01*
X025341Y019994D02*
X025161Y019994D01*
X025161Y020013D02*
X025341Y020013D01*
X025341Y020032D02*
X025161Y020032D01*
X025161Y020051D02*
X025341Y020051D01*
X025341Y020070D02*
X025161Y020070D01*
X025161Y020089D02*
X025341Y020089D01*
X025341Y020108D02*
X025161Y020108D01*
X025161Y020127D02*
X025341Y020127D01*
X025341Y020146D02*
X025161Y020146D01*
X025161Y020165D02*
X025341Y020165D01*
X025341Y020184D02*
X025161Y020184D01*
X025161Y020203D02*
X025341Y020203D01*
X025341Y020222D02*
X025161Y020222D01*
X025161Y020241D02*
X025341Y020241D01*
X025341Y020260D02*
X025161Y020260D01*
X025161Y020279D02*
X025341Y020279D01*
X025341Y020298D02*
X025161Y020298D01*
X025081Y020316D02*
X024901Y020316D01*
X025081Y020316D02*
X025081Y019766D01*
X024901Y019766D01*
X024901Y020316D01*
X024901Y019785D02*
X025081Y019785D01*
X025081Y019804D02*
X024901Y019804D01*
X024901Y019823D02*
X025081Y019823D01*
X025081Y019842D02*
X024901Y019842D01*
X024901Y019861D02*
X025081Y019861D01*
X025081Y019880D02*
X024901Y019880D01*
X024901Y019899D02*
X025081Y019899D01*
X025081Y019918D02*
X024901Y019918D01*
X024901Y019937D02*
X025081Y019937D01*
X025081Y019956D02*
X024901Y019956D01*
X024901Y019975D02*
X025081Y019975D01*
X025081Y019994D02*
X024901Y019994D01*
X024901Y020013D02*
X025081Y020013D01*
X025081Y020032D02*
X024901Y020032D01*
X024901Y020051D02*
X025081Y020051D01*
X025081Y020070D02*
X024901Y020070D01*
X024901Y020089D02*
X025081Y020089D01*
X025081Y020108D02*
X024901Y020108D01*
X024901Y020127D02*
X025081Y020127D01*
X025081Y020146D02*
X024901Y020146D01*
X024901Y020165D02*
X025081Y020165D01*
X025081Y020184D02*
X024901Y020184D01*
X024901Y020203D02*
X025081Y020203D01*
X025081Y020222D02*
X024901Y020222D01*
X024901Y020241D02*
X025081Y020241D01*
X025081Y020260D02*
X024901Y020260D01*
X024901Y020279D02*
X025081Y020279D01*
X025081Y020298D02*
X024901Y020298D01*
X024821Y020316D02*
X024641Y020316D01*
X024821Y020316D02*
X024821Y019766D01*
X024641Y019766D01*
X024641Y020316D01*
X024641Y019785D02*
X024821Y019785D01*
X024821Y019804D02*
X024641Y019804D01*
X024641Y019823D02*
X024821Y019823D01*
X024821Y019842D02*
X024641Y019842D01*
X024641Y019861D02*
X024821Y019861D01*
X024821Y019880D02*
X024641Y019880D01*
X024641Y019899D02*
X024821Y019899D01*
X024821Y019918D02*
X024641Y019918D01*
X024641Y019937D02*
X024821Y019937D01*
X024821Y019956D02*
X024641Y019956D01*
X024641Y019975D02*
X024821Y019975D01*
X024821Y019994D02*
X024641Y019994D01*
X024641Y020013D02*
X024821Y020013D01*
X024821Y020032D02*
X024641Y020032D01*
X024641Y020051D02*
X024821Y020051D01*
X024821Y020070D02*
X024641Y020070D01*
X024641Y020089D02*
X024821Y020089D01*
X024821Y020108D02*
X024641Y020108D01*
X024641Y020127D02*
X024821Y020127D01*
X024821Y020146D02*
X024641Y020146D01*
X024641Y020165D02*
X024821Y020165D01*
X024821Y020184D02*
X024641Y020184D01*
X024641Y020203D02*
X024821Y020203D01*
X024821Y020222D02*
X024641Y020222D01*
X024641Y020241D02*
X024821Y020241D01*
X024821Y020260D02*
X024641Y020260D01*
X024641Y020279D02*
X024821Y020279D01*
X024821Y020298D02*
X024641Y020298D01*
X024561Y020316D02*
X024381Y020316D01*
X024561Y020316D02*
X024561Y019766D01*
X024381Y019766D01*
X024381Y020316D01*
X024381Y019785D02*
X024561Y019785D01*
X024561Y019804D02*
X024381Y019804D01*
X024381Y019823D02*
X024561Y019823D01*
X024561Y019842D02*
X024381Y019842D01*
X024381Y019861D02*
X024561Y019861D01*
X024561Y019880D02*
X024381Y019880D01*
X024381Y019899D02*
X024561Y019899D01*
X024561Y019918D02*
X024381Y019918D01*
X024381Y019937D02*
X024561Y019937D01*
X024561Y019956D02*
X024381Y019956D01*
X024381Y019975D02*
X024561Y019975D01*
X024561Y019994D02*
X024381Y019994D01*
X024381Y020013D02*
X024561Y020013D01*
X024561Y020032D02*
X024381Y020032D01*
X024381Y020051D02*
X024561Y020051D01*
X024561Y020070D02*
X024381Y020070D01*
X024381Y020089D02*
X024561Y020089D01*
X024561Y020108D02*
X024381Y020108D01*
X024381Y020127D02*
X024561Y020127D01*
X024561Y020146D02*
X024381Y020146D01*
X024381Y020165D02*
X024561Y020165D01*
X024561Y020184D02*
X024381Y020184D01*
X024381Y020203D02*
X024561Y020203D01*
X024561Y020222D02*
X024381Y020222D01*
X024381Y020241D02*
X024561Y020241D01*
X024561Y020260D02*
X024381Y020260D01*
X024381Y020279D02*
X024561Y020279D01*
X024561Y020298D02*
X024381Y020298D01*
X024301Y020316D02*
X024121Y020316D01*
X024301Y020316D02*
X024301Y019766D01*
X024121Y019766D01*
X024121Y020316D01*
X024121Y019785D02*
X024301Y019785D01*
X024301Y019804D02*
X024121Y019804D01*
X024121Y019823D02*
X024301Y019823D01*
X024301Y019842D02*
X024121Y019842D01*
X024121Y019861D02*
X024301Y019861D01*
X024301Y019880D02*
X024121Y019880D01*
X024121Y019899D02*
X024301Y019899D01*
X024301Y019918D02*
X024121Y019918D01*
X024121Y019937D02*
X024301Y019937D01*
X024301Y019956D02*
X024121Y019956D01*
X024121Y019975D02*
X024301Y019975D01*
X024301Y019994D02*
X024121Y019994D01*
X024121Y020013D02*
X024301Y020013D01*
X024301Y020032D02*
X024121Y020032D01*
X024121Y020051D02*
X024301Y020051D01*
X024301Y020070D02*
X024121Y020070D01*
X024121Y020089D02*
X024301Y020089D01*
X024301Y020108D02*
X024121Y020108D01*
X024121Y020127D02*
X024301Y020127D01*
X024301Y020146D02*
X024121Y020146D01*
X024121Y020165D02*
X024301Y020165D01*
X024301Y020184D02*
X024121Y020184D01*
X024121Y020203D02*
X024301Y020203D01*
X024301Y020222D02*
X024121Y020222D01*
X024121Y020241D02*
X024301Y020241D01*
X024301Y020260D02*
X024121Y020260D01*
X024121Y020279D02*
X024301Y020279D01*
X024301Y020298D02*
X024121Y020298D01*
D18*
X023732Y019257D02*
X023130Y019257D01*
X023732Y019257D02*
X023732Y018705D01*
X023130Y018705D01*
X023130Y019257D01*
X023130Y018842D02*
X023732Y018842D01*
X023732Y018979D02*
X023130Y018979D01*
X023130Y019116D02*
X023732Y019116D01*
X023732Y019253D02*
X023130Y019253D01*
X025730Y019257D02*
X026332Y019257D01*
X026332Y018705D01*
X025730Y018705D01*
X025730Y019257D01*
X025730Y018842D02*
X026332Y018842D01*
X026332Y018979D02*
X025730Y018979D01*
X025730Y019116D02*
X026332Y019116D01*
X026332Y019253D02*
X025730Y019253D01*
D19*
X025815Y020095D02*
X025607Y020095D01*
X025815Y020095D02*
X025815Y019987D01*
X025607Y019987D01*
X025607Y020095D01*
X023855Y020095D02*
X023647Y020095D01*
X023855Y020095D02*
X023855Y019987D01*
X023647Y019987D01*
X023647Y020095D01*
D20*
X024023Y019269D02*
X024639Y019269D01*
X024639Y018693D01*
X024023Y018693D01*
X024023Y019269D01*
X024023Y018756D02*
X024639Y018756D01*
X024639Y018819D02*
X024023Y018819D01*
X024023Y018882D02*
X024639Y018882D01*
X024639Y018945D02*
X024023Y018945D01*
X024023Y019008D02*
X024639Y019008D01*
X024639Y019071D02*
X024023Y019071D01*
X024023Y019134D02*
X024639Y019134D01*
X024639Y019197D02*
X024023Y019197D01*
X024023Y019260D02*
X024639Y019260D01*
X024823Y019269D02*
X025439Y019269D01*
X025439Y018693D01*
X024823Y018693D01*
X024823Y019269D01*
X024823Y018756D02*
X025439Y018756D01*
X025439Y018819D02*
X024823Y018819D01*
X024823Y018882D02*
X025439Y018882D01*
X025439Y018945D02*
X024823Y018945D01*
X024823Y019008D02*
X025439Y019008D01*
X025439Y019071D02*
X024823Y019071D01*
X024823Y019134D02*
X025439Y019134D01*
X025439Y019197D02*
X024823Y019197D01*
X024823Y019260D02*
X025439Y019260D01*
D21*
X022631Y023981D03*
X022631Y024581D03*
X022631Y025181D03*
X021431Y025181D03*
X021431Y024581D03*
X021431Y023981D03*
D22*
X022031Y023981D03*
D23*
G36*
X020823Y020990D02*
X020573Y020740D01*
X020323Y020990D01*
X020573Y021240D01*
X020823Y020990D01*
G37*
G36*
X021240Y020573D02*
X020990Y020323D01*
X020740Y020573D01*
X020990Y020823D01*
X021240Y020573D01*
G37*
G36*
X028523Y020273D02*
X028273Y020523D01*
X028523Y020773D01*
X028773Y020523D01*
X028523Y020273D01*
G37*
G36*
X028940Y020690D02*
X028690Y020940D01*
X028940Y021190D01*
X029190Y020940D01*
X028940Y020690D01*
G37*
G36*
X028690Y028523D02*
X028940Y028773D01*
X029190Y028523D01*
X028940Y028273D01*
X028690Y028523D01*
G37*
G36*
X028273Y028940D02*
X028523Y029190D01*
X028773Y028940D01*
X028523Y028690D01*
X028273Y028940D01*
G37*
G36*
X020940Y029190D02*
X021190Y028940D01*
X020940Y028690D01*
X020690Y028940D01*
X020940Y029190D01*
G37*
G36*
X020523Y028773D02*
X020773Y028523D01*
X020523Y028273D01*
X020273Y028523D01*
X020523Y028773D01*
G37*
D24*
X030627Y025631D03*
X030627Y024431D03*
X030627Y023831D03*
D25*
X030777Y023281D03*
X031677Y023281D03*
X031677Y026181D03*
X030777Y026181D03*
D26*
X031227Y025331D03*
X031227Y024131D03*
D27*
X027340Y026110D03*
X027340Y028473D03*
X027340Y029654D03*
X027340Y030244D03*
X022123Y030244D03*
X022123Y027882D03*
X022123Y026110D03*
D28*
X024231Y023031D03*
X024231Y022631D03*
X025231Y022631D03*
X025231Y023031D03*
D29*
X028031Y025231D03*
D30*
X029631Y024031D03*
X029031Y022431D03*
D31*
X030131Y021931D03*
X029631Y021231D03*
X030231Y027131D03*
X029731Y028031D03*
X019831Y028031D03*
X019331Y027131D03*
X019331Y022231D03*
X019831Y021431D03*
M02*
